<svg width="445" height="72" viewBox="0 0 445 72" fill="none" xmlns="http://www.w3.org/2000/svg">
<g opacity="0.8">
<rect x="0.358639" y="0.358639" width="38.8927" height="38.8882" rx="1.95515" fill="#DFDFEF"/>
<path d="M21.0358 14.818V23.8027H19.405V16.7196L17.245 17.4335V16.1165L20.8512 14.818H21.0358Z" fill="#424A5A"/>
<rect x="0.358639" y="0.358639" width="38.8927" height="38.8882" rx="1.95515" stroke="#A6A8AB" stroke-width="0.717277"/>
<rect x="45.3704" y="0.358639" width="38.8927" height="38.8882" rx="1.95515" fill="#DFDFEF"/>
<path d="M67.9306 22.5227V23.8027H61.8628V22.7073L64.7736 19.5627C65.0772 19.2181 65.3172 18.9186 65.4936 18.6642C65.6701 18.4099 65.7952 18.1801 65.869 17.975C65.947 17.7658 65.986 17.5668 65.986 17.3781C65.986 17.1032 65.9367 16.8632 65.8383 16.6581C65.7398 16.4488 65.5962 16.2868 65.4075 16.1719C65.2229 16.057 64.9952 15.9996 64.7244 15.9996C64.4249 15.9996 64.1685 16.0693 63.9552 16.2088C63.7459 16.3442 63.5859 16.5329 63.4752 16.775C63.3685 17.017 63.3152 17.294 63.3152 17.6058H61.6844C61.6844 17.0765 61.8075 16.5945 62.0536 16.1596C62.2998 15.7206 62.6526 15.3698 63.1121 15.1073C63.5716 14.8447 64.1172 14.7134 64.749 14.7134C65.3644 14.7134 65.8854 14.816 66.3121 15.0211C66.7388 15.2222 67.0629 15.5093 67.2844 15.8827C67.506 16.256 67.6167 16.7011 67.6167 17.2181C67.6167 17.5052 67.5696 17.7883 67.4752 18.0673C67.3808 18.3463 67.2475 18.6232 67.0752 18.8981C66.907 19.1689 66.706 19.4437 66.4721 19.7227C66.2383 20.0017 65.9778 20.2868 65.6906 20.5781L63.9429 22.5227H67.9306Z" fill="#424A5A"/>
<rect x="45.3704" y="0.358639" width="38.8927" height="38.8882" rx="1.95515" stroke="#A6A8AB" stroke-width="0.717277"/>
<rect x="90.3821" y="0.358639" width="38.8927" height="38.8882" rx="1.95515" fill="#DFDFEF"/>
<path d="M108.653 18.6027H109.57C109.894 18.6027 110.161 18.5473 110.37 18.4365C110.583 18.3217 110.741 18.1658 110.844 17.9688C110.95 17.7678 111.004 17.536 111.004 17.2735C111.004 17.015 110.957 16.7914 110.862 16.6027C110.768 16.4099 110.624 16.2622 110.432 16.1596C110.243 16.0529 110.001 15.9996 109.705 15.9996C109.467 15.9996 109.248 16.0468 109.047 16.1411C108.85 16.2355 108.692 16.3709 108.573 16.5473C108.458 16.7196 108.401 16.9268 108.401 17.1688H106.77C106.77 16.6847 106.897 16.2601 107.151 15.895C107.41 15.5257 107.759 15.2365 108.198 15.0273C108.637 14.818 109.127 14.7134 109.668 14.7134C110.259 14.7134 110.776 14.8119 111.219 15.0088C111.666 15.2016 112.013 15.4868 112.259 15.8642C112.509 16.2417 112.635 16.7093 112.635 17.2673C112.635 17.534 112.571 17.8006 112.444 18.0673C112.321 18.3299 112.138 18.5678 111.896 18.7812C111.658 18.9904 111.365 19.1606 111.016 19.2919C110.672 19.4191 110.276 19.4827 109.828 19.4827H108.653V18.6027ZM108.653 19.8581V18.9904H109.828C110.333 18.9904 110.77 19.0499 111.139 19.1689C111.513 19.2837 111.82 19.4478 112.062 19.6612C112.304 19.8704 112.483 20.1145 112.598 20.3935C112.717 20.6725 112.776 20.9719 112.776 21.2919C112.776 21.7104 112.698 22.0837 112.542 22.412C112.386 22.7361 112.167 23.0109 111.884 23.2366C111.605 23.4622 111.277 23.6345 110.899 23.7535C110.522 23.8684 110.114 23.9258 109.675 23.9258C109.293 23.9258 108.922 23.8745 108.561 23.772C108.204 23.6653 107.882 23.5073 107.595 23.2981C107.307 23.0848 107.08 22.8181 106.911 22.4981C106.743 22.174 106.659 21.7986 106.659 21.3719H108.29C108.29 21.6181 108.349 21.8376 108.468 22.0304C108.592 22.2232 108.76 22.375 108.973 22.4858C109.19 22.5925 109.435 22.6458 109.705 22.6458C110.005 22.6458 110.261 22.5925 110.475 22.4858C110.692 22.375 110.858 22.2191 110.973 22.0181C111.088 21.813 111.145 21.5689 111.145 21.2858C111.145 20.9494 111.082 20.6766 110.955 20.4673C110.827 20.2581 110.645 20.1042 110.407 20.0058C110.173 19.9073 109.894 19.8581 109.57 19.8581H108.653Z" fill="#424A5A"/>
<rect x="90.3821" y="0.358639" width="38.8927" height="38.8882" rx="1.95515" stroke="#A6A8AB" stroke-width="0.717277"/>
<rect x="135.392" y="0.358639" width="38.8927" height="38.8882" rx="1.95515" fill="#DFDFEF"/>
<path d="M158.106 20.535V21.815H151.65L151.583 20.8304L155.38 14.8427H156.678L155.275 17.2242L153.238 20.535H158.106ZM157.041 14.8427V23.8027H155.411V14.8427H157.041Z" fill="#424A5A"/>
<rect x="135.392" y="0.358639" width="38.8927" height="38.8882" rx="1.95515" stroke="#A6A8AB" stroke-width="0.717277"/>
<rect x="180.404" y="0.358639" width="38.8927" height="38.8882" rx="1.95515" fill="#DFDFEF"/>
<path d="M198.508 19.6796L197.21 19.3658L197.708 14.8427H202.638V16.1904H199.056L198.822 18.2827C198.949 18.2047 199.134 18.1268 199.376 18.0488C199.622 17.9668 199.899 17.9258 200.207 17.9258C200.634 17.9258 201.015 17.9955 201.351 18.135C201.688 18.2704 201.973 18.4673 202.207 18.7258C202.445 18.9842 202.623 19.3001 202.742 19.6735C202.865 20.0427 202.927 20.4612 202.927 20.9289C202.927 21.3391 202.865 21.7248 202.742 22.0858C202.623 22.4427 202.441 22.7607 202.195 23.0397C201.948 23.3145 201.639 23.532 201.265 23.692C200.892 23.8479 200.453 23.9258 199.948 23.9258C199.567 23.9258 199.2 23.8704 198.847 23.7597C198.498 23.6448 198.184 23.4786 197.905 23.2612C197.626 23.0397 197.403 22.7689 197.235 22.4489C197.07 22.1289 196.98 21.7617 196.964 21.3473H198.57C198.599 21.6222 198.672 21.8561 198.791 22.0489C198.91 22.2417 199.066 22.3894 199.259 22.492C199.456 22.5945 199.684 22.6458 199.942 22.6458C200.176 22.6458 200.377 22.6027 200.545 22.5166C200.718 22.4263 200.859 22.3012 200.97 22.1412C201.081 21.9812 201.163 21.7925 201.216 21.575C201.269 21.3576 201.296 21.1196 201.296 20.8612C201.296 20.6109 201.265 20.3832 201.204 20.1781C201.142 19.9689 201.048 19.7883 200.921 19.6365C200.794 19.4848 200.634 19.3678 200.441 19.2858C200.252 19.2037 200.03 19.1627 199.776 19.1627C199.436 19.1627 199.173 19.214 198.988 19.3165C198.808 19.4191 198.648 19.5401 198.508 19.6796Z" fill="#424A5A"/>
<rect x="180.404" y="0.358639" width="38.8927" height="38.8882" rx="1.95515" stroke="#A6A8AB" stroke-width="0.717277"/>
<rect x="225.415" y="0.358639" width="38.8927" height="38.8882" rx="1.95515" fill="#DFDFEF"/>
<path d="M246.431 14.7688H246.652V16.0796H246.548C246.051 16.0796 245.614 16.1555 245.237 16.3073C244.864 16.4591 244.552 16.6724 244.302 16.9473C244.055 17.2181 243.869 17.5401 243.742 17.9135C243.614 18.2827 243.551 18.6868 243.551 19.1258V20.5781C243.551 20.9186 243.586 21.2181 243.655 21.4766C243.729 21.7309 243.83 21.9463 243.957 22.1227C244.088 22.295 244.24 22.4243 244.412 22.5104C244.589 22.5966 244.782 22.6396 244.991 22.6396C245.2 22.6396 245.389 22.5966 245.557 22.5104C245.725 22.4243 245.869 22.3032 245.988 22.1473C246.111 21.9873 246.203 21.8007 246.265 21.5873C246.33 21.374 246.363 21.1401 246.363 20.8858C246.363 20.6355 246.332 20.4037 246.271 20.1904C246.209 19.9771 246.119 19.7904 246 19.6304C245.881 19.4663 245.733 19.3412 245.557 19.255C245.385 19.1647 245.188 19.1196 244.966 19.1196C244.679 19.1196 244.423 19.1873 244.197 19.3227C243.971 19.454 243.793 19.6263 243.662 19.8396C243.53 20.053 243.459 20.2786 243.446 20.5166L242.899 20.2458C242.919 19.8971 242.993 19.5771 243.12 19.2858C243.251 18.9945 243.426 18.7401 243.643 18.5227C243.865 18.3053 244.125 18.137 244.425 18.0181C244.728 17.8991 245.065 17.8396 245.434 17.8396C245.861 17.8396 246.234 17.9217 246.554 18.0858C246.874 18.2458 247.139 18.4653 247.348 18.7442C247.561 19.0232 247.721 19.3453 247.828 19.7104C247.934 20.0714 247.988 20.453 247.988 20.855C247.988 21.2858 247.918 21.6878 247.779 22.0612C247.643 22.4345 247.446 22.7607 247.188 23.0397C246.929 23.3186 246.618 23.5361 246.252 23.692C245.887 23.8479 245.477 23.9258 245.022 23.9258C244.542 23.9258 244.111 23.8356 243.729 23.655C243.352 23.4745 243.028 23.2243 242.757 22.9043C242.486 22.5843 242.279 22.2109 242.135 21.7843C241.992 21.3576 241.92 20.896 241.92 20.3996V19.7473C241.92 19.0458 242.016 18.3935 242.209 17.7904C242.402 17.1873 242.687 16.6601 243.065 16.2088C243.446 15.7534 243.918 15.4006 244.48 15.1504C245.042 14.896 245.692 14.7688 246.431 14.7688Z" fill="#424A5A"/>
<rect x="225.415" y="0.358639" width="38.8927" height="38.8882" rx="1.95515" stroke="#A6A8AB" stroke-width="0.717277"/>
<rect x="270.427" y="0.358639" width="38.8927" height="38.8882" rx="1.95515" fill="#DFDFEF"/>
<path d="M292.938 14.8427V15.7288L289.418 23.8027H287.701L291.221 16.1227H286.667V14.8427H292.938Z" fill="#424A5A"/>
<rect x="270.427" y="0.358639" width="38.8927" height="38.8882" rx="1.95515" stroke="#A6A8AB" stroke-width="0.717277"/>
<rect x="315.08" width="39.61" height="39.6054" rx="2.31379" fill="#424A5A"/>
<path d="M337.876 21.3535C337.876 21.9114 337.745 22.3832 337.482 22.7689C337.224 23.1504 336.869 23.4397 336.417 23.6366C335.97 23.8294 335.461 23.9258 334.891 23.9258C334.325 23.9258 333.814 23.8294 333.359 23.6366C332.908 23.4397 332.549 23.1504 332.282 22.7689C332.019 22.3832 331.888 21.9114 331.888 21.3535C331.888 20.9801 331.962 20.6417 332.11 20.3381C332.261 20.0345 332.471 19.774 332.737 19.5565C333.004 19.335 333.32 19.1668 333.685 19.0519C334.05 18.933 334.448 18.8735 334.879 18.8735C335.453 18.8735 335.966 18.9781 336.417 19.1873C336.873 19.3924 337.23 19.6817 337.488 20.055C337.747 20.4242 337.876 20.8571 337.876 21.3535ZM336.239 21.255C336.239 20.9678 336.181 20.7196 336.067 20.5104C335.956 20.2971 335.798 20.133 335.593 20.0181C335.388 19.9032 335.15 19.8458 334.879 19.8458C334.604 19.8458 334.364 19.9032 334.159 20.0181C333.958 20.133 333.8 20.2971 333.685 20.5104C333.574 20.7196 333.519 20.9678 333.519 21.255C333.519 21.5463 333.574 21.7966 333.685 22.0058C333.8 22.2109 333.96 22.3689 334.165 22.4796C334.37 22.5904 334.612 22.6458 334.891 22.6458C335.17 22.6458 335.41 22.5904 335.611 22.4796C335.812 22.3689 335.966 22.2109 336.073 22.0058C336.184 21.7966 336.239 21.5463 336.239 21.255ZM337.679 17.2058C337.679 17.657 337.56 18.0591 337.322 18.4119C337.084 18.7606 336.754 19.0335 336.331 19.2304C335.913 19.4273 335.433 19.5258 334.891 19.5258C334.35 19.5258 333.866 19.4273 333.439 19.2304C333.016 19.0335 332.684 18.7606 332.442 18.4119C332.204 18.0591 332.085 17.657 332.085 17.2058C332.085 16.6724 332.206 16.2211 332.448 15.8519C332.69 15.4786 333.02 15.1955 333.439 15.0027C333.861 14.8098 334.341 14.7134 334.879 14.7134C335.425 14.7134 335.909 14.8098 336.331 15.0027C336.754 15.1955 337.084 15.4786 337.322 15.8519C337.56 16.2211 337.679 16.6724 337.679 17.2058ZM336.054 17.2735C336.054 17.0191 336.007 16.7976 335.913 16.6088C335.818 16.416 335.683 16.2663 335.507 16.1596C335.334 16.0529 335.125 15.9996 334.879 15.9996C334.641 15.9996 334.436 16.0509 334.264 16.1534C334.091 16.256 333.958 16.4037 333.864 16.5965C333.769 16.7852 333.722 17.0109 333.722 17.2735C333.722 17.5319 333.769 17.7576 333.864 17.9504C333.958 18.1432 334.091 18.295 334.264 18.4058C334.44 18.5124 334.649 18.5658 334.891 18.5658C335.133 18.5658 335.34 18.5124 335.513 18.4058C335.685 18.295 335.818 18.1432 335.913 17.9504C336.007 17.7576 336.054 17.5319 336.054 17.2735Z" fill="#DFDFEF"/>
<rect x="360.448" y="0.358639" width="38.8927" height="38.8882" rx="1.95515" fill="#DFDFEF"/>
<path d="M378.166 22.5412H378.283C378.812 22.5412 379.259 22.4735 379.624 22.3381C379.993 22.2027 380.291 22.012 380.516 21.7658C380.746 21.5155 380.912 21.2181 381.015 20.8735C381.122 20.5248 381.175 20.1391 381.175 19.7165V18.0919C381.175 17.7473 381.14 17.4458 381.07 17.1873C381 16.9247 380.902 16.7052 380.775 16.5288C380.652 16.3524 380.506 16.2211 380.338 16.135C380.17 16.0447 379.989 15.9996 379.796 15.9996C379.583 15.9996 379.394 16.0488 379.23 16.1473C379.066 16.2458 378.927 16.3811 378.812 16.5534C378.701 16.7217 378.615 16.9165 378.553 17.1381C378.496 17.3596 378.467 17.5935 378.467 17.8396C378.467 18.0776 378.494 18.3053 378.547 18.5227C378.605 18.7401 378.689 18.933 378.799 19.1012C378.914 19.2694 379.058 19.4027 379.23 19.5012C379.403 19.5955 379.604 19.6427 379.833 19.6427C380.051 19.6427 380.248 19.6017 380.424 19.5196C380.605 19.4335 380.76 19.3206 380.892 19.1812C381.023 19.0376 381.124 18.8796 381.193 18.7073C381.267 18.5309 381.308 18.3524 381.316 18.1719L381.889 18.4181C381.889 18.7176 381.825 19.013 381.698 19.3042C381.575 19.5955 381.4 19.8601 381.175 20.0981C380.953 20.3319 380.695 20.5207 380.399 20.6642C380.104 20.8037 379.786 20.8735 379.446 20.8735C379.023 20.8735 378.65 20.7955 378.326 20.6396C378.001 20.4837 377.729 20.2683 377.507 19.9935C377.29 19.7145 377.126 19.3945 377.015 19.0335C376.904 18.6683 376.849 18.2786 376.849 17.8642C376.849 17.4335 376.916 17.0293 377.052 16.6519C377.187 16.2704 377.382 15.936 377.636 15.6488C377.895 15.3575 378.207 15.1298 378.572 14.9657C378.937 14.7975 379.347 14.7134 379.803 14.7134C380.274 14.7134 380.695 14.8057 381.064 14.9904C381.433 15.175 381.747 15.4314 382.006 15.7596C382.264 16.0837 382.461 16.4673 382.596 16.9104C382.736 17.3535 382.806 17.8376 382.806 18.3627V18.935C382.806 19.4889 382.75 20.014 382.639 20.5104C382.529 21.0068 382.358 21.4602 382.129 21.8704C381.899 22.2807 381.606 22.6355 381.249 22.935C380.896 23.2345 380.473 23.4663 379.981 23.6304C379.493 23.7904 378.935 23.8704 378.307 23.8704H378.166V22.5412Z" fill="#424A5A"/>
<rect x="360.448" y="0.358639" width="38.8927" height="38.8882" rx="1.95515" stroke="#A6A8AB" stroke-width="0.717277"/>
<rect x="405.46" y="0.358639" width="38.8927" height="38.8882" rx="1.95515" fill="#DFDFEF"/>
<path d="M422.537 14.818V23.8027H420.907V16.7196L418.747 17.4335V16.1165L422.353 14.818H422.537ZM431.485 18.5535V20.0612C431.485 20.7504 431.415 21.3391 431.276 21.8273C431.136 22.3155 430.935 22.7155 430.673 23.0273C430.41 23.335 430.096 23.5627 429.731 23.7104C429.366 23.854 428.96 23.9258 428.513 23.9258C428.156 23.9258 427.824 23.8807 427.516 23.7904C427.208 23.6961 426.931 23.5525 426.685 23.3597C426.443 23.1627 426.234 22.9125 426.057 22.6089C425.885 22.3053 425.752 21.9422 425.657 21.5196C425.567 21.0971 425.522 20.6109 425.522 20.0612V18.5535C425.522 17.8642 425.592 17.2776 425.731 16.7934C425.875 16.3093 426.078 15.9134 426.34 15.6057C426.603 15.2981 426.917 15.0745 427.282 14.935C427.647 14.7914 428.053 14.7196 428.5 14.7196C428.861 14.7196 429.194 14.7647 429.497 14.855C429.805 14.9452 430.08 15.0868 430.322 15.2796C430.568 15.4683 430.777 15.7145 430.95 16.0181C431.122 16.3175 431.253 16.6786 431.344 17.1011C431.438 17.5196 431.485 18.0037 431.485 18.5535ZM429.86 20.2827V18.3258C429.86 17.9812 429.84 17.6817 429.799 17.4273C429.762 17.1688 429.707 16.9493 429.633 16.7688C429.559 16.5883 429.467 16.4427 429.356 16.3319C429.245 16.217 429.118 16.1329 428.974 16.0796C428.831 16.0263 428.673 15.9996 428.5 15.9996C428.287 15.9996 428.096 16.0427 427.928 16.1288C427.76 16.2109 427.618 16.3422 427.504 16.5227C427.389 16.7032 427.3 16.9432 427.239 17.2427C427.181 17.5381 427.153 17.8991 427.153 18.3258V20.2827C427.153 20.6273 427.171 20.9289 427.208 21.1873C427.249 21.4458 427.307 21.6673 427.38 21.852C427.458 22.0366 427.551 22.1884 427.657 22.3073C427.768 22.4222 427.895 22.5084 428.039 22.5658C428.182 22.6191 428.34 22.6458 428.513 22.6458C428.73 22.6458 428.921 22.6027 429.085 22.5166C429.253 22.4304 429.395 22.295 429.51 22.1104C429.625 21.9217 429.711 21.6776 429.768 21.3781C429.83 21.0745 429.86 20.7094 429.86 20.2827Z" fill="#424A5A"/>
<rect x="405.46" y="0.358639" width="38.8927" height="38.8882" rx="1.95515" stroke="#A6A8AB" stroke-width="0.717277"/>
<path d="M4.37437 49.2671V57.8073H3.29518V50.6146L1.1193 51.4079V50.4338L4.2052 49.2671H4.37437ZM15.5571 52.1196V53.0588H10.692V52.1196H15.5571ZM15.5571 54.5405V55.4797H10.692V54.5405H15.5571ZM22.9131 53.7297H21.9039V53.0121H22.8723C23.3001 53.0121 23.6462 52.9519 23.9106 52.8313C24.1751 52.7108 24.3676 52.5435 24.4881 52.3296C24.6087 52.1157 24.669 51.8688 24.669 51.5888C24.669 51.3204 24.6029 51.0754 24.4706 50.8538C24.3384 50.6282 24.1342 50.4493 23.8581 50.3171C23.582 50.181 23.2262 50.1129 22.7906 50.1129C22.4639 50.1129 22.1684 50.1751 21.9039 50.2996C21.6395 50.4201 21.4295 50.5893 21.2739 50.8071C21.1183 51.021 21.0406 51.2679 21.0406 51.5479H19.9147C19.9147 51.1863 19.9905 50.8615 20.1422 50.5738C20.2939 50.2821 20.5019 50.0351 20.7664 49.8329C21.0308 49.6268 21.3361 49.4693 21.6823 49.3604C22.0323 49.2515 22.4017 49.1971 22.7906 49.1971C23.2456 49.1971 23.6578 49.2496 24.0273 49.3546C24.3968 49.4557 24.7137 49.6074 24.9782 49.8096C25.2426 50.0118 25.4448 50.2626 25.5848 50.5621C25.7248 50.8615 25.7948 51.2096 25.7948 51.6063C25.7948 51.898 25.7268 52.1721 25.5907 52.4288C25.4546 52.6855 25.2601 52.911 25.0073 53.1055C24.7545 53.2999 24.4512 53.4535 24.0973 53.5663C23.7434 53.6752 23.3487 53.7297 22.9131 53.7297ZM21.9039 53.2338H22.9131C23.3915 53.2338 23.8173 53.2824 24.1906 53.3797C24.564 53.4769 24.879 53.6188 25.1357 53.8055C25.3923 53.9922 25.5868 54.2236 25.719 54.4997C25.8551 54.7719 25.9232 55.085 25.9232 55.4389C25.9232 55.8355 25.8454 56.1875 25.6898 56.4947C25.5382 56.802 25.3223 57.0625 25.0423 57.2764C24.7623 57.4903 24.4298 57.6517 24.0448 57.7606C23.6637 57.8695 23.2456 57.9239 22.7906 57.9239C22.425 57.9239 22.0634 57.8773 21.7056 57.7839C21.3517 57.6867 21.0308 57.5389 20.7431 57.3406C20.4553 57.1383 20.2239 56.8817 20.0489 56.5706C19.8778 56.2594 19.7922 55.8861 19.7922 55.4505H20.9181C20.9181 55.7344 20.9958 55.995 21.1514 56.2322C21.3109 56.4694 21.5306 56.66 21.8106 56.8039C22.0906 56.9439 22.4173 57.0139 22.7906 57.0139C23.2184 57.0139 23.5801 56.9478 23.8756 56.8156C24.1751 56.6794 24.4026 56.4947 24.5581 56.2614C24.7176 56.0242 24.7973 55.7578 24.7973 55.4622C24.7973 55.2016 24.7545 54.9761 24.669 54.7855C24.5873 54.5911 24.4648 54.4316 24.3015 54.3072C24.142 54.1827 23.9417 54.0913 23.7006 54.033C23.4634 53.9708 23.1873 53.9397 22.8723 53.9397H21.9039V53.2338ZM26.9557 54.7214V54.5872C26.9557 54.1322 27.0218 53.7102 27.154 53.3213C27.2863 52.9285 27.4768 52.5882 27.7257 52.3005C27.9746 52.0088 28.276 51.7832 28.6299 51.6238C28.9838 51.4604 29.3805 51.3788 29.8199 51.3788C30.2633 51.3788 30.6619 51.4604 31.0158 51.6238C31.3736 51.7832 31.6769 52.0088 31.9258 52.3005C32.1786 52.5882 32.3711 52.9285 32.5033 53.3213C32.6355 53.7102 32.7017 54.1322 32.7017 54.5872V54.7214C32.7017 55.1764 32.6355 55.5983 32.5033 55.9872C32.3711 56.3761 32.1786 56.7164 31.9258 57.0081C31.6769 57.2959 31.3755 57.5214 31.0216 57.6847C30.6716 57.8442 30.2749 57.9239 29.8316 57.9239C29.3883 57.9239 28.9896 57.8442 28.6357 57.6847C28.2818 57.5214 27.9785 57.2959 27.7257 57.0081C27.4768 56.7164 27.2863 56.3761 27.154 55.9872C27.0218 55.5983 26.9557 55.1764 26.9557 54.7214ZM28.0349 54.5872V54.7214C28.0349 55.0364 28.0718 55.3339 28.1457 55.6139C28.2196 55.89 28.3305 56.135 28.4782 56.3489C28.6299 56.5628 28.8185 56.7319 29.0441 56.8564C29.2696 56.977 29.5321 57.0372 29.8316 57.0372C30.1272 57.0372 30.3858 56.977 30.6074 56.8564C30.833 56.7319 31.0197 56.5628 31.1675 56.3489C31.3152 56.135 31.4261 55.89 31.5 55.6139C31.5777 55.3339 31.6166 55.0364 31.6166 54.7214V54.5872C31.6166 54.2761 31.5777 53.9824 31.5 53.7063C31.4261 53.4263 31.3133 53.1794 31.1616 52.9655C31.0138 52.7477 30.8272 52.5766 30.6016 52.4521C30.3799 52.3277 30.1194 52.2655 29.8199 52.2655C29.5244 52.2655 29.2638 52.3277 29.0382 52.4521C28.8166 52.5766 28.6299 52.7477 28.4782 52.9655C28.3305 53.1794 28.2196 53.4263 28.1457 53.7063C28.0718 53.9824 28.0349 54.2761 28.0349 54.5872ZM37.0184 55.0305H34.9475L34.9359 54.1672H36.6276C36.962 54.1672 37.2401 54.1341 37.4618 54.068C37.6873 54.0019 37.8565 53.9027 37.9693 53.7705C38.0821 53.6383 38.1384 53.4749 38.1384 53.2805C38.1384 53.1288 38.1054 52.9966 38.0393 52.8838C37.977 52.7671 37.8818 52.6719 37.7534 52.598C37.6251 52.5202 37.4656 52.4638 37.2751 52.4288C37.0884 52.3899 36.8687 52.3705 36.6159 52.3705H35.2334V57.8073H34.1542V51.4954H36.6159C37.0165 51.4954 37.3762 51.5304 37.6951 51.6004C38.0179 51.6705 38.2921 51.7774 38.5176 51.9213C38.7471 52.0613 38.9221 52.2402 39.0426 52.458C39.1632 52.6758 39.2235 52.9324 39.2235 53.228C39.2235 53.4185 39.1846 53.5994 39.1068 53.7705C39.029 53.9416 38.9143 54.0933 38.7626 54.2255C38.611 54.3577 38.4243 54.4666 38.2026 54.5522C37.9809 54.6338 37.7262 54.6863 37.4384 54.7097L37.0184 55.0305ZM37.0184 57.8073H34.5567L35.0934 56.9322H37.0184C37.3179 56.9322 37.5668 56.8953 37.7651 56.8214C37.9634 56.7436 38.1112 56.6347 38.2084 56.4947C38.3096 56.3508 38.3601 56.1797 38.3601 55.9814C38.3601 55.783 38.3096 55.6139 38.2084 55.4739C38.1112 55.33 37.9634 55.2211 37.7651 55.1472C37.5668 55.0694 37.3179 55.0305 37.0184 55.0305H35.3792L35.3909 54.1672H37.4384L37.8293 54.4938C38.1754 54.5211 38.469 54.6066 38.7101 54.7505C38.9512 54.8944 39.134 55.0772 39.2585 55.2989C39.3829 55.5166 39.4451 55.7539 39.4451 56.0105C39.4451 56.3061 39.3887 56.5667 39.276 56.7922C39.1671 57.0178 39.0076 57.2064 38.7976 57.3581C38.5876 57.5059 38.3329 57.6186 38.0334 57.6964C37.734 57.7703 37.3956 57.8073 37.0184 57.8073ZM43.4177 57.0372C43.6744 57.0372 43.9116 56.9847 44.1294 56.8797C44.3472 56.7747 44.5261 56.6308 44.6661 56.4481C44.8061 56.2614 44.8858 56.0494 44.9053 55.8122H45.9319C45.9125 56.1855 45.7861 56.5336 45.5528 56.8564C45.3233 57.1753 45.0219 57.4339 44.6486 57.6322C44.2752 57.8267 43.865 57.9239 43.4177 57.9239C42.9433 57.9239 42.5291 57.8403 42.1752 57.6731C41.8252 57.5059 41.5335 57.2764 41.3002 56.9847C41.0707 56.6931 40.8977 56.3586 40.781 55.9814C40.6682 55.6003 40.6118 55.1977 40.6118 54.7739V54.5288C40.6118 54.1049 40.6682 53.7044 40.781 53.3272C40.8977 52.946 41.0707 52.6096 41.3002 52.318C41.5335 52.0263 41.8252 51.7968 42.1752 51.6296C42.5291 51.4624 42.9433 51.3788 43.4177 51.3788C43.9116 51.3788 44.3433 51.4799 44.7128 51.6821C45.0822 51.8805 45.3719 52.1527 45.5819 52.4988C45.7958 52.841 45.9125 53.2299 45.9319 53.6655H44.9053C44.8858 53.4049 44.8119 53.1696 44.6836 52.9596C44.5591 52.7496 44.388 52.5824 44.1702 52.458C43.9563 52.3296 43.7055 52.2655 43.4177 52.2655C43.0872 52.2655 42.8091 52.3316 42.5835 52.4638C42.3619 52.5921 42.1849 52.7671 42.0527 52.9888C41.9244 53.2066 41.831 53.4497 41.7727 53.718C41.7182 53.9824 41.691 54.2527 41.691 54.5288V54.7739C41.691 55.05 41.7182 55.3222 41.7727 55.5905C41.8271 55.8589 41.9185 56.1019 42.0469 56.3197C42.1791 56.5375 42.356 56.7125 42.5777 56.8447C42.8033 56.9731 43.0833 57.0372 43.4177 57.0372ZM48.3178 51.4954V57.8073H47.2328V51.4954H48.3178ZM47.1511 49.8212C47.1511 49.6462 47.2036 49.4985 47.3086 49.3779C47.4175 49.2573 47.577 49.1971 47.787 49.1971C47.9931 49.1971 48.1506 49.2573 48.2595 49.3779C48.3723 49.4985 48.4287 49.6462 48.4287 49.8212C48.4287 49.9885 48.3723 50.1324 48.2595 50.2529C48.1506 50.3696 47.9931 50.4279 47.787 50.4279C47.577 50.4279 47.4175 50.3696 47.3086 50.2529C47.2036 50.1324 47.1511 49.9885 47.1511 49.8212ZM53.6788 56.3722L55.8255 51.4954H56.8639L54.0521 57.8073H53.3054L50.5054 51.4954H51.5437L53.6788 56.3722ZM51.2287 51.4954V57.8073H50.1495V51.4954H51.2287ZM56.0938 57.8073V51.4954H57.1789V57.8073H56.0938ZM65.509 56.3722L67.6558 51.4954H68.6941L65.8824 57.8073H65.1357L62.3356 51.4954H63.374L65.509 56.3722ZM63.059 51.4954V57.8073H61.9798V51.4954H63.059ZM67.9241 57.8073V51.4954H69.0091V57.8073H67.9241ZM74.4692 56.7281V53.4788C74.4692 53.2299 74.4187 53.0141 74.3176 52.8313C74.2203 52.6446 74.0726 52.5007 73.8742 52.3996C73.6759 52.2985 73.4309 52.248 73.1392 52.248C72.867 52.248 72.6278 52.2946 72.4217 52.388C72.2195 52.4813 72.06 52.6038 71.9433 52.7555C71.8306 52.9071 71.7742 53.0705 71.7742 53.2455H70.695C70.695 53.0199 70.7533 52.7963 70.87 52.5746C70.9867 52.353 71.1539 52.1527 71.3717 51.9738C71.5933 51.791 71.8578 51.6471 72.165 51.5421C72.4761 51.4332 72.8223 51.3788 73.2034 51.3788C73.6623 51.3788 74.0667 51.4566 74.4167 51.6121C74.7706 51.7677 75.0468 52.003 75.2451 52.318C75.4473 52.6291 75.5484 53.0199 75.5484 53.4905V56.4306C75.5484 56.6406 75.5659 56.8642 75.6009 57.1014C75.6398 57.3386 75.6962 57.5428 75.7701 57.7139V57.8073H74.6442C74.5898 57.6828 74.547 57.5175 74.5159 57.3114C74.4848 57.1014 74.4692 56.907 74.4692 56.7281ZM74.6559 53.9805L74.6676 54.7389H73.5767C73.2695 54.7389 72.9953 54.7641 72.7542 54.8147C72.5131 54.8614 72.3109 54.9333 72.1475 55.0305C71.9842 55.1277 71.8597 55.2503 71.7742 55.398C71.6886 55.5419 71.6458 55.7111 71.6458 55.9055C71.6458 56.1039 71.6906 56.2847 71.78 56.4481C71.8695 56.6114 72.0036 56.7417 72.1825 56.8389C72.3653 56.9322 72.5889 56.9789 72.8534 56.9789C73.1839 56.9789 73.4756 56.9089 73.7284 56.7689C73.9812 56.6289 74.1815 56.4578 74.3292 56.2556C74.4809 56.0533 74.5626 55.8569 74.5742 55.6664L75.0351 56.1855C75.0079 56.3489 74.934 56.5297 74.8134 56.7281C74.6929 56.9264 74.5315 57.117 74.3292 57.2997C74.1309 57.4786 73.8937 57.6284 73.6176 57.7489C73.3453 57.8656 73.0381 57.9239 72.6959 57.9239C72.2681 57.9239 71.8928 57.8403 71.57 57.6731C71.2511 57.5059 71.0022 57.2822 70.8233 57.0022C70.6483 56.7183 70.5608 56.4014 70.5608 56.0514C70.5608 55.713 70.6269 55.4155 70.7592 55.1589C70.8914 54.8983 71.0819 54.6825 71.3308 54.5113C71.5797 54.3363 71.8792 54.2041 72.2292 54.1147C72.5792 54.0252 72.97 53.9805 73.4017 53.9805H74.6559ZM81.4636 51.4954V52.388H78.4127V51.4954H81.4636ZM82.4144 51.4954V57.8073H81.3352V51.4954H82.4144ZM78.1502 51.4954H79.2352L79.0718 54.5405C79.0446 55.0111 78.9999 55.4272 78.9377 55.7889C78.8793 56.1467 78.7977 56.4539 78.6927 56.7106C78.5915 56.9672 78.4632 57.1772 78.3077 57.3406C78.156 57.5 77.9732 57.6186 77.7593 57.6964C77.5454 57.7703 77.2985 57.8073 77.0185 57.8073H76.6801V56.8564L76.9135 56.8389C77.0807 56.8272 77.2226 56.7883 77.3393 56.7222C77.4599 56.6561 77.561 56.5589 77.6426 56.4306C77.7243 56.2983 77.7904 56.1292 77.841 55.923C77.8954 55.7169 77.9363 55.4719 77.9635 55.188C77.9946 54.9041 78.0179 54.5736 78.0335 54.1963L78.1502 51.4954ZM83.8669 54.7214V54.5872C83.8669 54.1322 83.9331 53.7102 84.0653 53.3213C84.1975 52.9285 84.3881 52.5882 84.637 52.3005C84.8859 52.0088 85.1872 51.7832 85.5411 51.6238C85.895 51.4604 86.2917 51.3788 86.7312 51.3788C87.1745 51.3788 87.5731 51.4604 87.927 51.6238C88.2848 51.7832 88.5882 52.0088 88.837 52.3005C89.0898 52.5882 89.2823 52.9285 89.4146 53.3213C89.5468 53.7102 89.6129 54.1322 89.6129 54.5872V54.7214C89.6129 55.1764 89.5468 55.5983 89.4146 55.9872C89.2823 56.3761 89.0898 56.7164 88.837 57.0081C88.5882 57.2959 88.2868 57.5214 87.9329 57.6847C87.5829 57.8442 87.1862 57.9239 86.7428 57.9239C86.2995 57.9239 85.9009 57.8442 85.547 57.6847C85.1931 57.5214 84.8897 57.2959 84.637 57.0081C84.3881 56.7164 84.1975 56.3761 84.0653 55.9872C83.9331 55.5983 83.8669 55.1764 83.8669 54.7214ZM84.9461 54.5872V54.7214C84.9461 55.0364 84.9831 55.3339 85.057 55.6139C85.1309 55.89 85.2417 56.135 85.3895 56.3489C85.5411 56.5628 85.7298 56.7319 85.9553 56.8564C86.1809 56.977 86.4434 57.0372 86.7428 57.0372C87.0384 57.0372 87.297 56.977 87.5187 56.8564C87.7442 56.7319 87.9309 56.5628 88.0787 56.3489C88.2265 56.135 88.3373 55.89 88.4112 55.6139C88.489 55.3339 88.5279 55.0364 88.5279 54.7214V54.5872C88.5279 54.2761 88.489 53.9824 88.4112 53.7063C88.3373 53.4263 88.2245 53.1794 88.0729 52.9655C87.9251 52.7477 87.7384 52.5766 87.5129 52.4521C87.2912 52.3277 87.0306 52.2655 86.7312 52.2655C86.4356 52.2655 86.175 52.3277 85.9495 52.4521C85.7278 52.5766 85.5411 52.7477 85.3895 52.9655C85.2417 53.1794 85.1309 53.4263 85.057 53.7063C84.9831 53.9824 84.9461 54.2761 84.9461 54.5872ZM92.133 56.098L95.0439 51.4954H96.1289V57.8073H95.0439V53.2047L92.133 57.8073H91.0596V51.4954H92.133V56.098ZM94.4547 49.2087H95.3297C95.3297 49.5121 95.2597 49.7824 95.1197 50.0196C94.9797 50.2529 94.7794 50.4357 94.5188 50.5679C94.2583 50.7002 93.9491 50.7663 93.5913 50.7663C93.0508 50.7663 92.623 50.6224 92.308 50.3346C91.9968 50.0429 91.8413 49.6676 91.8413 49.2087H92.7163C92.7163 49.4382 92.7824 49.6404 92.9146 49.8154C93.0469 49.9904 93.2724 50.0779 93.5913 50.0779C93.9024 50.0779 94.1241 49.9904 94.2563 49.8154C94.3886 49.6404 94.4547 49.4382 94.4547 49.2087ZM101.49 56.3722L103.637 51.4954H104.675L101.863 57.8073H101.116L98.3164 51.4954H99.3548L101.49 56.3722ZM99.0398 51.4954V57.8073H97.9606V51.4954H99.0398ZM103.905 57.8073V51.4954H104.99V57.8073H103.905ZM106.442 54.7214V54.5872C106.442 54.1322 106.509 53.7102 106.641 53.3213C106.773 52.9285 106.964 52.5882 107.212 52.3005C107.461 52.0088 107.763 51.7832 108.117 51.6238C108.471 51.4604 108.867 51.3788 109.307 51.3788C109.75 51.3788 110.149 51.4604 110.503 51.6238C110.86 51.7832 111.164 52.0088 111.413 52.3005C111.665 52.5882 111.858 52.9285 111.99 53.3213C112.122 53.7102 112.188 54.1322 112.188 54.5872V54.7214C112.188 55.1764 112.122 55.5983 111.99 55.9872C111.858 56.3761 111.665 56.7164 111.413 57.0081C111.164 57.2959 110.862 57.5214 110.508 57.6847C110.158 57.8442 109.762 57.9239 109.318 57.9239C108.875 57.9239 108.476 57.8442 108.122 57.6847C107.769 57.5214 107.465 57.2959 107.212 57.0081C106.964 56.7164 106.773 56.3761 106.641 55.9872C106.509 55.5983 106.442 55.1764 106.442 54.7214ZM107.522 54.5872V54.7214C107.522 55.0364 107.559 55.3339 107.632 55.6139C107.706 55.89 107.817 56.135 107.965 56.3489C108.117 56.5628 108.305 56.7319 108.531 56.8564C108.756 56.977 109.019 57.0372 109.318 57.0372C109.614 57.0372 109.873 56.977 110.094 56.8564C110.32 56.7319 110.506 56.5628 110.654 56.3489C110.802 56.135 110.913 55.89 110.987 55.6139C111.064 55.3339 111.103 55.0364 111.103 54.7214V54.5872C111.103 54.2761 111.064 53.9824 110.987 53.7063C110.913 53.4263 110.8 53.1794 110.648 52.9655C110.501 52.7477 110.314 52.5766 110.088 52.4521C109.867 52.3277 109.606 52.2655 109.307 52.2655C109.011 52.2655 108.751 52.3277 108.525 52.4521C108.303 52.5766 108.117 52.7477 107.965 52.9655C107.817 53.1794 107.706 53.4263 107.632 53.7063C107.559 53.9824 107.522 54.2761 107.522 54.5872ZM116.505 55.0305H114.434L114.423 54.1672H116.114C116.449 54.1672 116.727 54.1341 116.948 54.068C117.174 54.0019 117.343 53.9027 117.456 53.7705C117.569 53.6383 117.625 53.4749 117.625 53.2805C117.625 53.1288 117.592 52.9966 117.526 52.8838C117.464 52.7671 117.369 52.6719 117.24 52.598C117.112 52.5202 116.952 52.4638 116.762 52.4288C116.575 52.3899 116.355 52.3705 116.103 52.3705H114.72V57.8073H113.641V51.4954H116.103C116.503 51.4954 116.863 51.5304 117.182 51.6004C117.505 51.6705 117.779 51.7774 118.004 51.9213C118.234 52.0613 118.409 52.2402 118.529 52.458C118.65 52.6758 118.71 52.9324 118.71 53.228C118.71 53.4185 118.671 53.5994 118.594 53.7705C118.516 53.9416 118.401 54.0933 118.249 54.2255C118.098 54.3577 117.911 54.4666 117.689 54.5522C117.468 54.6338 117.213 54.6863 116.925 54.7097L116.505 55.0305ZM116.505 57.8073H114.043L114.58 56.9322H116.505C116.805 56.9322 117.053 56.8953 117.252 56.8214C117.45 56.7436 117.598 56.6347 117.695 56.4947C117.796 56.3508 117.847 56.1797 117.847 55.9814C117.847 55.783 117.796 55.6139 117.695 55.4739C117.598 55.33 117.45 55.2211 117.252 55.1472C117.053 55.0694 116.805 55.0305 116.505 55.0305H114.866L114.878 54.1672H116.925L117.316 54.4938C117.662 54.5211 117.956 54.6066 118.197 54.7505C118.438 54.8944 118.621 55.0772 118.745 55.2989C118.87 55.5166 118.932 55.7539 118.932 56.0105C118.932 56.3061 118.875 56.5667 118.763 56.7922C118.654 57.0178 118.494 57.2064 118.284 57.3581C118.074 57.5059 117.82 57.6186 117.52 57.6964C117.221 57.7703 116.882 57.8073 116.505 57.8073ZM121.551 51.4954V57.8073H120.466V51.4954H121.551ZM120.384 49.8212C120.384 49.6462 120.437 49.4985 120.542 49.3779C120.651 49.2573 120.81 49.1971 121.02 49.1971C121.226 49.1971 121.384 49.2573 121.493 49.3779C121.606 49.4985 121.662 49.6462 121.662 49.8212C121.662 49.9885 121.606 50.1324 121.493 50.2529C121.384 50.3696 121.226 50.4279 121.02 50.4279C120.81 50.4279 120.651 50.3696 120.542 50.2529C120.437 50.1324 120.384 49.9885 120.384 49.8212ZM124.363 52.7088V60.234H123.278V51.4954H124.269L124.363 52.7088ZM128.615 54.5988V54.7214C128.615 55.1802 128.561 55.6061 128.452 55.9989C128.343 56.3878 128.184 56.7261 127.974 57.0139C127.768 57.3017 127.513 57.5253 127.21 57.6847C126.906 57.8442 126.558 57.9239 126.165 57.9239C125.765 57.9239 125.411 57.8578 125.104 57.7256C124.796 57.5934 124.536 57.4009 124.322 57.1481C124.108 56.8953 123.937 56.5919 123.809 56.2381C123.684 55.8842 123.599 55.4855 123.552 55.0422V54.3888C123.599 53.9222 123.686 53.5041 123.814 53.1346C123.943 52.7652 124.112 52.4502 124.322 52.1896C124.536 51.9252 124.794 51.7249 125.098 51.5888C125.401 51.4488 125.751 51.3788 126.148 51.3788C126.545 51.3788 126.896 51.4566 127.204 51.6121C127.511 51.7638 127.77 51.9816 127.98 52.2655C128.19 52.5494 128.347 52.8896 128.452 53.2863C128.561 53.6791 128.615 54.1166 128.615 54.5988ZM127.53 54.7214V54.5988C127.53 54.2838 127.497 53.9883 127.431 53.7122C127.365 53.4322 127.262 53.1872 127.122 52.9771C126.986 52.7633 126.811 52.596 126.597 52.4755C126.383 52.351 126.128 52.2888 125.833 52.2888C125.561 52.2888 125.323 52.3355 125.121 52.4288C124.923 52.5221 124.754 52.6485 124.614 52.808C124.474 52.9635 124.359 53.1424 124.269 53.3447C124.184 53.543 124.12 53.7491 124.077 53.963V55.4739C124.155 55.7461 124.264 56.0028 124.404 56.2439C124.544 56.4811 124.73 56.6736 124.964 56.8214C125.197 56.9653 125.491 57.0372 125.845 57.0372C126.136 57.0372 126.387 56.977 126.597 56.8564C126.811 56.7319 126.986 56.5628 127.122 56.3489C127.262 56.135 127.365 55.89 127.431 55.6139C127.497 55.3339 127.53 55.0364 127.53 54.7214ZM134.274 54.2313V55.1064H130.937V54.2313H134.274ZM131.165 51.4954V57.8073H130.085V51.4954H131.165ZM135.149 51.4954V57.8073H134.064V51.4954H135.149ZM136.601 54.7214V54.5872C136.601 54.1322 136.668 53.7102 136.8 53.3213C136.932 52.9285 137.123 52.5882 137.371 52.3005C137.62 52.0088 137.922 51.7832 138.276 51.6238C138.63 51.4604 139.026 51.3788 139.466 51.3788C139.909 51.3788 140.308 51.4604 140.662 51.6238C141.019 51.7832 141.323 52.0088 141.572 52.3005C141.824 52.5882 142.017 52.9285 142.149 53.3213C142.281 53.7102 142.347 54.1322 142.347 54.5872V54.7214C142.347 55.1764 142.281 55.5983 142.149 55.9872C142.017 56.3761 141.824 56.7164 141.572 57.0081C141.323 57.2959 141.021 57.5214 140.667 57.6847C140.317 57.8442 139.921 57.9239 139.477 57.9239C139.034 57.9239 138.635 57.8442 138.281 57.6847C137.928 57.5214 137.624 57.2959 137.371 57.0081C137.123 56.7164 136.932 56.3761 136.8 55.9872C136.668 55.5983 136.601 55.1764 136.601 54.7214ZM137.681 54.5872V54.7214C137.681 55.0364 137.718 55.3339 137.791 55.6139C137.865 55.89 137.976 56.135 138.124 56.3489C138.276 56.5628 138.464 56.7319 138.69 56.8564C138.915 56.977 139.178 57.0372 139.477 57.0372C139.773 57.0372 140.031 56.977 140.253 56.8564C140.479 56.7319 140.665 56.5628 140.813 56.3489C140.961 56.135 141.072 55.89 141.146 55.6139C141.223 55.3339 141.262 55.0364 141.262 54.7214V54.5872C141.262 54.2761 141.223 53.9824 141.146 53.7063C141.072 53.4263 140.959 53.1794 140.807 52.9655C140.66 52.7477 140.473 52.5766 140.247 52.4521C140.026 52.3277 139.765 52.2655 139.466 52.2655C139.17 52.2655 138.91 52.3277 138.684 52.4521C138.462 52.5766 138.276 52.7477 138.124 52.9655C137.976 53.1794 137.865 53.4263 137.791 53.7063C137.718 53.9824 137.681 54.2761 137.681 54.5872Z" fill="#404247"/>
<path d="M337.323 49.2671V57.8073H336.244V50.6146L334.068 51.4079V50.4338L337.154 49.2671H337.323ZM345.828 52.8838V54.1788C345.828 54.875 345.766 55.4622 345.641 55.9405C345.517 56.4189 345.338 56.8039 345.105 57.0956C344.871 57.3872 344.589 57.5992 344.259 57.7314C343.932 57.8598 343.563 57.9239 343.15 57.9239C342.824 57.9239 342.522 57.8831 342.246 57.8014C341.97 57.7197 341.721 57.5895 341.5 57.4106C341.282 57.2278 341.095 56.9906 340.94 56.6989C340.784 56.4072 340.665 56.0533 340.584 55.6372C340.502 55.2211 340.461 54.735 340.461 54.1788V52.8838C340.461 52.1877 340.523 51.6043 340.648 51.1338C340.776 50.6632 340.957 50.286 341.19 50.0021C341.424 49.7143 341.704 49.5082 342.03 49.3837C342.361 49.2593 342.73 49.1971 343.139 49.1971C343.469 49.1971 343.773 49.2379 344.049 49.3196C344.329 49.3973 344.578 49.5237 344.795 49.6987C345.013 49.8699 345.198 50.0993 345.35 50.3871C345.505 50.671 345.624 51.019 345.705 51.4313C345.787 51.8435 345.828 52.3277 345.828 52.8838ZM344.743 54.3538V52.703C344.743 52.3219 344.72 51.9874 344.673 51.6996C344.63 51.4079 344.566 51.1591 344.48 50.9529C344.395 50.7468 344.286 50.5796 344.154 50.4513C344.025 50.3229 343.876 50.2296 343.705 50.1713C343.537 50.109 343.349 50.0779 343.139 50.0779C342.882 50.0779 342.655 50.1265 342.456 50.2238C342.258 50.3171 342.091 50.4668 341.955 50.6729C341.822 50.879 341.721 51.1493 341.651 51.4838C341.581 51.8182 341.546 52.2246 341.546 52.703V54.3538C341.546 54.735 341.568 55.0714 341.61 55.363C341.657 55.6547 341.725 55.9075 341.815 56.1214C341.904 56.3314 342.013 56.5044 342.141 56.6406C342.27 56.7767 342.417 56.8778 342.585 56.9439C342.756 57.0061 342.944 57.0372 343.15 57.0372C343.415 57.0372 343.646 56.9867 343.845 56.8856C344.043 56.7845 344.208 56.6269 344.34 56.4131C344.477 56.1953 344.578 55.9172 344.644 55.5789C344.71 55.2366 344.743 54.8283 344.743 54.3538ZM355.226 52.1196V53.0588H350.361V52.1196H355.226ZM355.226 54.5405V55.4797H350.361V54.5405H355.226ZM366.659 56.8914V57.8073H360.231V56.8914H366.659ZM360.412 56.8914V59.8956H359.297L359.292 56.8914H360.412ZM367.639 56.8914L367.628 59.8898H366.513V56.8914H367.639ZM365.557 49.3137V50.2354H361.835V49.3137H365.557ZM366.525 49.3137V57.8073H365.405V49.3137H366.525ZM361.45 49.3137H362.576L362.401 52.7321C362.377 53.2455 362.329 53.7199 362.255 54.1555C362.181 54.5872 362.09 54.9819 361.981 55.3397C361.872 55.6975 361.747 56.0183 361.607 56.3022C361.467 56.5822 361.318 56.8253 361.158 57.0314C360.999 57.2336 360.832 57.4009 360.657 57.5331C360.485 57.6614 360.312 57.7528 360.137 57.8073H359.624V56.8914H359.986C360.087 56.7825 360.202 56.625 360.33 56.4189C360.462 56.2128 360.592 55.9464 360.721 55.6197C360.853 55.2891 360.968 54.8866 361.065 54.4122C361.166 53.9377 361.234 53.3777 361.269 52.7321L361.45 49.3137ZM370.573 57.1539L372.329 51.4954H373.484L370.953 58.7814C370.894 58.937 370.817 59.1042 370.719 59.2831C370.626 59.4659 370.505 59.639 370.358 59.8023C370.21 59.9656 370.031 60.0979 369.821 60.199C369.615 60.304 369.368 60.3565 369.08 60.3565C368.995 60.3565 368.886 60.3448 368.753 60.3215C368.621 60.2981 368.528 60.2787 368.473 60.2631L368.468 59.3881C368.499 59.392 368.547 59.3959 368.613 59.3998C368.683 59.4076 368.732 59.4115 368.759 59.4115C369.004 59.4115 369.212 59.3784 369.383 59.3123C369.555 59.2501 369.698 59.1431 369.815 58.9914C369.936 58.8437 370.039 58.6395 370.124 58.3789L370.573 57.1539ZM369.284 51.4954L370.923 56.3956L371.203 57.5331L370.428 57.9298L368.106 51.4954H369.284ZM376.372 55.0597L373.98 51.4954H375.281L376.914 54.1088H378.174L378.017 55.0597H376.372ZM376.961 54.9489L375.129 57.8073H373.764L376.279 54.1672L376.961 54.9489ZM378.729 51.4954V57.8073H377.649V51.4954H378.729ZM382.41 51.4954L380.018 55.0597H378.373L378.204 54.1088H379.47L381.103 51.4954H382.41ZM381.255 57.8073L379.417 54.9489L380.111 54.1672L382.62 57.8073H381.255ZM386.12 57.9239C385.68 57.9239 385.282 57.85 384.924 57.7022C384.57 57.5506 384.265 57.3386 384.008 57.0664C383.755 56.7942 383.561 56.4714 383.425 56.098C383.288 55.7247 383.22 55.3164 383.22 54.873V54.628C383.22 54.1147 383.296 53.6577 383.448 53.2572C383.6 52.8527 383.806 52.5105 384.066 52.2305C384.327 51.9505 384.622 51.7385 384.953 51.5946C385.284 51.4507 385.626 51.3788 385.98 51.3788C386.431 51.3788 386.82 51.4566 387.146 51.6121C387.477 51.7677 387.747 51.9855 387.957 52.2655C388.167 52.5416 388.323 52.8683 388.424 53.2455C388.525 53.6188 388.576 54.0272 388.576 54.4705V54.9547H383.862V54.0738H387.496V53.9922C387.481 53.7122 387.422 53.4399 387.321 53.1755C387.224 52.911 387.069 52.6933 386.855 52.5221C386.641 52.351 386.349 52.2655 385.98 52.2655C385.735 52.2655 385.509 52.318 385.303 52.423C385.097 52.5241 384.92 52.6758 384.772 52.878C384.624 53.0802 384.51 53.3272 384.428 53.6188C384.346 53.9105 384.305 54.2469 384.305 54.628V54.873C384.305 55.1725 384.346 55.4544 384.428 55.7189C384.514 55.9794 384.636 56.2089 384.795 56.4072C384.959 56.6056 385.155 56.7611 385.385 56.8739C385.618 56.9867 385.882 57.0431 386.178 57.0431C386.559 57.0431 386.882 56.9653 387.146 56.8097C387.411 56.6542 387.642 56.4461 387.841 56.1855L388.494 56.7047C388.358 56.9108 388.185 57.1072 387.975 57.2939C387.765 57.4806 387.506 57.6322 387.199 57.7489C386.896 57.8656 386.536 57.9239 386.12 57.9239ZM393.966 56.098L396.877 51.4954H397.962V57.8073H396.877V53.2047L393.966 57.8073H392.892V51.4954H393.966V56.098ZM396.287 49.2087H397.162C397.162 49.5121 397.092 49.7824 396.952 50.0196C396.812 50.2529 396.612 50.4357 396.352 50.5679C396.091 50.7002 395.782 50.7663 395.424 50.7663C394.883 50.7663 394.456 50.6224 394.141 50.3346C393.83 50.0429 393.674 49.6676 393.674 49.2087H394.549C394.549 49.4382 394.615 49.6404 394.747 49.8154C394.88 49.9904 395.105 50.0779 395.424 50.0779C395.735 50.0779 395.957 49.9904 396.089 49.8154C396.221 49.6404 396.287 49.4382 396.287 49.2087ZM403.323 56.3722L405.469 51.4954H406.508L403.696 57.8073H402.949L400.149 51.4954H401.187L403.323 56.3722ZM400.872 51.4954V57.8073H399.793V51.4954H400.872ZM405.738 57.8073V51.4954H406.823V57.8073H405.738ZM408.275 54.7214V54.5872C408.275 54.1322 408.341 53.7102 408.473 53.3213C408.606 52.9285 408.796 52.5882 409.045 52.3005C409.294 52.0088 409.595 51.7832 409.949 51.6238C410.303 51.4604 410.7 51.3788 411.139 51.3788C411.583 51.3788 411.981 51.4604 412.335 51.6238C412.693 51.7832 412.996 52.0088 413.245 52.3005C413.498 52.5882 413.691 52.9285 413.823 53.3213C413.955 53.7102 414.021 54.1322 414.021 54.5872V54.7214C414.021 55.1764 413.955 55.5983 413.823 55.9872C413.691 56.3761 413.498 56.7164 413.245 57.0081C412.996 57.2959 412.695 57.5214 412.341 57.6847C411.991 57.8442 411.594 57.9239 411.151 57.9239C410.708 57.9239 410.309 57.8442 409.955 57.6847C409.601 57.5214 409.298 57.2959 409.045 57.0081C408.796 56.7164 408.606 56.3761 408.473 55.9872C408.341 55.5983 408.275 55.1764 408.275 54.7214ZM409.354 54.5872V54.7214C409.354 55.0364 409.391 55.3339 409.465 55.6139C409.539 55.89 409.65 56.135 409.798 56.3489C409.949 56.5628 410.138 56.7319 410.364 56.8564C410.589 56.977 410.852 57.0372 411.151 57.0372C411.447 57.0372 411.705 56.977 411.927 56.8564C412.152 56.7319 412.339 56.5628 412.487 56.3489C412.635 56.135 412.746 55.89 412.819 55.6139C412.897 55.3339 412.936 55.0364 412.936 54.7214V54.5872C412.936 54.2761 412.897 53.9824 412.819 53.7063C412.746 53.4263 412.633 53.1794 412.481 52.9655C412.333 52.7477 412.147 52.5766 411.921 52.4521C411.699 52.3277 411.439 52.2655 411.139 52.2655C410.844 52.2655 410.583 52.3277 410.358 52.4521C410.136 52.5766 409.949 52.7477 409.798 52.9655C409.65 53.1794 409.539 53.4263 409.465 53.7063C409.391 53.9824 409.354 54.2761 409.354 54.5872ZM418.338 55.0305H416.267L416.255 54.1672H417.947C418.281 54.1672 418.56 54.1341 418.781 54.068C419.007 54.0019 419.176 53.9027 419.289 53.7705C419.401 53.6383 419.458 53.4749 419.458 53.2805C419.458 53.1288 419.425 52.9966 419.359 52.8838C419.296 52.7671 419.201 52.6719 419.073 52.598C418.945 52.5202 418.785 52.4638 418.595 52.4288C418.408 52.3899 418.188 52.3705 417.935 52.3705H416.553V57.8073H415.474V51.4954H417.935C418.336 51.4954 418.696 51.5304 419.015 51.6004C419.337 51.6705 419.611 51.7774 419.837 51.9213C420.067 52.0613 420.242 52.2402 420.362 52.458C420.483 52.6758 420.543 52.9324 420.543 53.228C420.543 53.4185 420.504 53.5994 420.426 53.7705C420.348 53.9416 420.234 54.0933 420.082 54.2255C419.93 54.3577 419.744 54.4666 419.522 54.5522C419.3 54.6338 419.046 54.6863 418.758 54.7097L418.338 55.0305ZM418.338 57.8073H415.876L416.413 56.9322H418.338C418.637 56.9322 418.886 56.8953 419.085 56.8214C419.283 56.7436 419.431 56.6347 419.528 56.4947C419.629 56.3508 419.68 56.1797 419.68 55.9814C419.68 55.783 419.629 55.6139 419.528 55.4739C419.431 55.33 419.283 55.2211 419.085 55.1472C418.886 55.0694 418.637 55.0305 418.338 55.0305H416.699L416.71 54.1672H418.758L419.149 54.4938C419.495 54.5211 419.788 54.6066 420.03 54.7505C420.271 54.8944 420.453 55.0772 420.578 55.2989C420.702 55.5166 420.765 55.7539 420.765 56.0105C420.765 56.3061 420.708 56.5667 420.595 56.7922C420.487 57.0178 420.327 57.2064 420.117 57.3581C419.907 57.5059 419.652 57.6186 419.353 57.6964C419.053 57.7703 418.715 57.8073 418.338 57.8073ZM423.384 51.4954V57.8073H422.299V51.4954H423.384ZM422.217 49.8212C422.217 49.6462 422.27 49.4985 422.375 49.3779C422.484 49.2573 422.643 49.1971 422.853 49.1971C423.059 49.1971 423.217 49.2573 423.325 49.3779C423.438 49.4985 423.495 49.6462 423.495 49.8212C423.495 49.9885 423.438 50.1324 423.325 50.2529C423.217 50.3696 423.059 50.4279 422.853 50.4279C422.643 50.4279 422.484 50.3696 422.375 50.2529C422.27 50.1324 422.217 49.9885 422.217 49.8212ZM426.196 52.7088V60.234H425.111V51.4954H426.102L426.196 52.7088ZM430.448 54.5988V54.7214C430.448 55.1802 430.394 55.6061 430.285 55.9989C430.176 56.3878 430.016 56.7261 429.806 57.0139C429.6 57.3017 429.346 57.5253 429.042 57.6847C428.739 57.8442 428.391 57.9239 427.998 57.9239C427.598 57.9239 427.244 57.8578 426.936 57.7256C426.629 57.5934 426.369 57.4009 426.155 57.1481C425.941 56.8953 425.77 56.5919 425.641 56.2381C425.517 55.8842 425.431 55.4855 425.385 55.0422V54.3888C425.431 53.9222 425.519 53.5041 425.647 53.1346C425.776 52.7652 425.945 52.4502 426.155 52.1896C426.369 51.9252 426.627 51.7249 426.931 51.5888C427.234 51.4488 427.584 51.3788 427.981 51.3788C428.377 51.3788 428.729 51.4566 429.036 51.6121C429.344 51.7638 429.602 51.9816 429.812 52.2655C430.022 52.5494 430.18 52.8896 430.285 53.2863C430.394 53.6791 430.448 54.1166 430.448 54.5988ZM429.363 54.7214V54.5988C429.363 54.2838 429.33 53.9883 429.264 53.7122C429.198 53.4322 429.095 53.1872 428.955 52.9771C428.819 52.7633 428.644 52.596 428.43 52.4755C428.216 52.351 427.961 52.2888 427.666 52.2888C427.393 52.2888 427.156 52.3355 426.954 52.4288C426.756 52.5221 426.586 52.6485 426.446 52.808C426.306 52.9635 426.192 53.1424 426.102 53.3447C426.017 53.543 425.952 53.7491 425.91 53.963V55.4739C425.987 55.7461 426.096 56.0028 426.236 56.2439C426.376 56.4811 426.563 56.6736 426.796 56.8214C427.03 56.9653 427.323 57.0372 427.677 57.0372C427.969 57.0372 428.22 56.977 428.43 56.8564C428.644 56.7319 428.819 56.5628 428.955 56.3489C429.095 56.135 429.198 55.89 429.264 55.6139C429.33 55.3339 429.363 55.0364 429.363 54.7214ZM436.107 54.2313V55.1064H432.77V54.2313H436.107ZM432.997 51.4954V57.8073H431.918V51.4954H432.997ZM436.982 51.4954V57.8073H435.897V51.4954H436.982ZM438.434 54.7214V54.5872C438.434 54.1322 438.5 53.7102 438.632 53.3213C438.765 52.9285 438.955 52.5882 439.204 52.3005C439.453 52.0088 439.754 51.7832 440.108 51.6238C440.462 51.4604 440.859 51.3788 441.298 51.3788C441.742 51.3788 442.14 51.4604 442.494 51.6238C442.852 51.7832 443.155 52.0088 443.404 52.3005C443.657 52.5882 443.85 52.9285 443.982 53.3213C444.114 53.7102 444.18 54.1322 444.18 54.5872V54.7214C444.18 55.1764 444.114 55.5983 443.982 55.9872C443.85 56.3761 443.657 56.7164 443.404 57.0081C443.155 57.2959 442.854 57.5214 442.5 57.6847C442.15 57.8442 441.753 57.9239 441.31 57.9239C440.867 57.9239 440.468 57.8442 440.114 57.6847C439.76 57.5214 439.457 57.2959 439.204 57.0081C438.955 56.7164 438.765 56.3761 438.632 55.9872C438.5 55.5983 438.434 55.1764 438.434 54.7214ZM439.513 54.5872V54.7214C439.513 55.0364 439.55 55.3339 439.624 55.6139C439.698 55.89 439.809 56.135 439.957 56.3489C440.108 56.5628 440.297 56.7319 440.523 56.8564C440.748 56.977 441.011 57.0372 441.31 57.0372C441.606 57.0372 441.864 56.977 442.086 56.8564C442.311 56.7319 442.498 56.5628 442.646 56.3489C442.794 56.135 442.905 55.89 442.978 55.6139C443.056 55.3339 443.095 55.0364 443.095 54.7214V54.5872C443.095 54.2761 443.056 53.9824 442.978 53.7063C442.905 53.4263 442.792 53.1794 442.64 52.9655C442.492 52.7477 442.306 52.5766 442.08 52.4521C441.858 52.3277 441.598 52.2655 441.298 52.2655C441.003 52.2655 440.742 52.3277 440.517 52.4521C440.295 52.5766 440.108 52.7477 439.957 52.9655C439.809 53.1794 439.698 53.4263 439.624 53.7063C439.55 53.9824 439.513 54.2761 439.513 54.5872Z" fill="#404247"/>
</g>
</svg>
