<svg width="445" height="72" viewBox="0 0 445 72" fill="none" xmlns="http://www.w3.org/2000/svg">
<g opacity="0.8">
<rect x="0.358639" y="0.358639" width="38.8927" height="38.8882" rx="1.95515" fill="#DFDFEF"/>
<path d="M21.0358 14.818V23.8027H19.405V16.7196L17.245 17.4335V16.1165L20.8512 14.818H21.0358Z" fill="#424A5A"/>
<rect x="0.358639" y="0.358639" width="38.8927" height="38.8882" rx="1.95515" stroke="#A6A8AB" stroke-width="0.717277"/>
<rect x="45.3704" y="0.358639" width="38.8927" height="38.8882" rx="1.95515" fill="#DFDFEF"/>
<path d="M67.9306 22.5227V23.8027H61.8628V22.7073L64.7736 19.5627C65.0772 19.2181 65.3172 18.9186 65.4936 18.6642C65.6701 18.4099 65.7952 18.1801 65.869 17.975C65.947 17.7658 65.986 17.5668 65.986 17.3781C65.986 17.1032 65.9367 16.8632 65.8383 16.6581C65.7398 16.4488 65.5962 16.2868 65.4075 16.1719C65.2229 16.057 64.9952 15.9996 64.7244 15.9996C64.4249 15.9996 64.1685 16.0693 63.9552 16.2088C63.7459 16.3442 63.5859 16.5329 63.4752 16.775C63.3685 17.017 63.3152 17.294 63.3152 17.6058H61.6844C61.6844 17.0765 61.8075 16.5945 62.0536 16.1596C62.2998 15.7206 62.6526 15.3698 63.1121 15.1073C63.5716 14.8447 64.1172 14.7134 64.749 14.7134C65.3644 14.7134 65.8854 14.816 66.3121 15.0211C66.7388 15.2222 67.0629 15.5093 67.2844 15.8827C67.506 16.256 67.6167 16.7011 67.6167 17.2181C67.6167 17.5052 67.5696 17.7883 67.4752 18.0673C67.3808 18.3463 67.2475 18.6232 67.0752 18.8981C66.907 19.1689 66.706 19.4437 66.4721 19.7227C66.2383 20.0017 65.9778 20.2868 65.6906 20.5781L63.9429 22.5227H67.9306Z" fill="#424A5A"/>
<rect x="45.3704" y="0.358639" width="38.8927" height="38.8882" rx="1.95515" stroke="#A6A8AB" stroke-width="0.717277"/>
<rect x="90.3821" y="0.358639" width="38.8927" height="38.8882" rx="1.95515" fill="#DFDFEF"/>
<path d="M108.653 18.6027H109.57C109.894 18.6027 110.161 18.5473 110.37 18.4365C110.583 18.3217 110.741 18.1658 110.844 17.9688C110.95 17.7678 111.004 17.536 111.004 17.2735C111.004 17.015 110.957 16.7914 110.862 16.6027C110.768 16.4099 110.624 16.2622 110.432 16.1596C110.243 16.0529 110.001 15.9996 109.705 15.9996C109.467 15.9996 109.248 16.0468 109.047 16.1411C108.85 16.2355 108.692 16.3709 108.573 16.5473C108.458 16.7196 108.401 16.9268 108.401 17.1688H106.77C106.77 16.6847 106.897 16.2601 107.151 15.895C107.41 15.5257 107.759 15.2365 108.198 15.0273C108.637 14.818 109.127 14.7134 109.668 14.7134C110.259 14.7134 110.776 14.8119 111.219 15.0088C111.666 15.2016 112.013 15.4868 112.259 15.8642C112.509 16.2417 112.635 16.7093 112.635 17.2673C112.635 17.534 112.571 17.8006 112.444 18.0673C112.321 18.3299 112.138 18.5678 111.896 18.7812C111.658 18.9904 111.365 19.1606 111.016 19.2919C110.672 19.4191 110.276 19.4827 109.828 19.4827H108.653V18.6027ZM108.653 19.8581V18.9904H109.828C110.333 18.9904 110.77 19.0499 111.139 19.1689C111.513 19.2837 111.82 19.4478 112.062 19.6612C112.304 19.8704 112.483 20.1145 112.598 20.3935C112.717 20.6725 112.776 20.9719 112.776 21.2919C112.776 21.7104 112.698 22.0837 112.542 22.412C112.386 22.7361 112.167 23.0109 111.884 23.2366C111.605 23.4622 111.277 23.6345 110.899 23.7535C110.522 23.8684 110.114 23.9258 109.675 23.9258C109.293 23.9258 108.922 23.8745 108.561 23.772C108.204 23.6653 107.882 23.5073 107.595 23.2981C107.307 23.0848 107.08 22.8181 106.911 22.4981C106.743 22.174 106.659 21.7986 106.659 21.3719H108.29C108.29 21.6181 108.349 21.8376 108.468 22.0304C108.592 22.2232 108.76 22.375 108.973 22.4858C109.19 22.5925 109.435 22.6458 109.705 22.6458C110.005 22.6458 110.261 22.5925 110.475 22.4858C110.692 22.375 110.858 22.2191 110.973 22.0181C111.088 21.813 111.145 21.5689 111.145 21.2858C111.145 20.9494 111.082 20.6766 110.955 20.4673C110.827 20.2581 110.645 20.1042 110.407 20.0058C110.173 19.9073 109.894 19.8581 109.57 19.8581H108.653Z" fill="#424A5A"/>
<rect x="90.3821" y="0.358639" width="38.8927" height="38.8882" rx="1.95515" stroke="#A6A8AB" stroke-width="0.717277"/>
<rect x="135.392" y="0.358639" width="38.8927" height="38.8882" rx="1.95515" fill="#DFDFEF"/>
<path d="M158.106 20.535V21.815H151.65L151.583 20.8304L155.38 14.8427H156.678L155.275 17.2242L153.238 20.535H158.106ZM157.041 14.8427V23.8027H155.411V14.8427H157.041Z" fill="#424A5A"/>
<rect x="135.392" y="0.358639" width="38.8927" height="38.8882" rx="1.95515" stroke="#A6A8AB" stroke-width="0.717277"/>
<rect x="180.404" y="0.358639" width="38.8927" height="38.8882" rx="1.95515" fill="#DFDFEF"/>
<path d="M198.508 19.6796L197.21 19.3658L197.708 14.8427H202.638V16.1904H199.056L198.822 18.2827C198.949 18.2047 199.134 18.1268 199.376 18.0488C199.622 17.9668 199.899 17.9258 200.207 17.9258C200.634 17.9258 201.015 17.9955 201.351 18.135C201.688 18.2704 201.973 18.4673 202.207 18.7258C202.445 18.9842 202.623 19.3001 202.742 19.6735C202.865 20.0427 202.927 20.4612 202.927 20.9289C202.927 21.3391 202.865 21.7248 202.742 22.0858C202.623 22.4427 202.441 22.7607 202.195 23.0397C201.948 23.3145 201.639 23.532 201.265 23.692C200.892 23.8479 200.453 23.9258 199.948 23.9258C199.567 23.9258 199.2 23.8704 198.847 23.7597C198.498 23.6448 198.184 23.4786 197.905 23.2612C197.626 23.0397 197.403 22.7689 197.235 22.4489C197.07 22.1289 196.98 21.7617 196.964 21.3473H198.57C198.599 21.6222 198.672 21.8561 198.791 22.0489C198.91 22.2417 199.066 22.3894 199.259 22.492C199.456 22.5945 199.684 22.6458 199.942 22.6458C200.176 22.6458 200.377 22.6027 200.545 22.5166C200.718 22.4263 200.859 22.3012 200.97 22.1412C201.081 21.9812 201.163 21.7925 201.216 21.575C201.269 21.3576 201.296 21.1196 201.296 20.8612C201.296 20.6109 201.265 20.3832 201.204 20.1781C201.142 19.9689 201.048 19.7883 200.921 19.6365C200.794 19.4848 200.634 19.3678 200.441 19.2858C200.252 19.2037 200.03 19.1627 199.776 19.1627C199.436 19.1627 199.173 19.214 198.988 19.3165C198.808 19.4191 198.648 19.5401 198.508 19.6796Z" fill="#424A5A"/>
<rect x="180.404" y="0.358639" width="38.8927" height="38.8882" rx="1.95515" stroke="#A6A8AB" stroke-width="0.717277"/>
<rect x="225.415" y="0.358639" width="38.8927" height="38.8882" rx="1.95515" fill="#DFDFEF"/>
<path d="M246.431 14.7688H246.652V16.0796H246.548C246.051 16.0796 245.614 16.1555 245.237 16.3073C244.864 16.4591 244.552 16.6724 244.302 16.9473C244.055 17.2181 243.869 17.5401 243.742 17.9135C243.614 18.2827 243.551 18.6868 243.551 19.1258V20.5781C243.551 20.9186 243.586 21.2181 243.655 21.4766C243.729 21.7309 243.83 21.9463 243.957 22.1227C244.088 22.295 244.24 22.4243 244.412 22.5104C244.589 22.5966 244.782 22.6396 244.991 22.6396C245.2 22.6396 245.389 22.5966 245.557 22.5104C245.725 22.4243 245.869 22.3032 245.988 22.1473C246.111 21.9873 246.203 21.8007 246.265 21.5873C246.33 21.374 246.363 21.1401 246.363 20.8858C246.363 20.6355 246.332 20.4037 246.271 20.1904C246.209 19.9771 246.119 19.7904 246 19.6304C245.881 19.4663 245.733 19.3412 245.557 19.255C245.385 19.1647 245.188 19.1196 244.966 19.1196C244.679 19.1196 244.423 19.1873 244.197 19.3227C243.971 19.454 243.793 19.6263 243.662 19.8396C243.53 20.053 243.459 20.2786 243.446 20.5166L242.899 20.2458C242.919 19.8971 242.993 19.5771 243.12 19.2858C243.251 18.9945 243.426 18.7401 243.643 18.5227C243.865 18.3053 244.125 18.137 244.425 18.0181C244.728 17.8991 245.065 17.8396 245.434 17.8396C245.861 17.8396 246.234 17.9217 246.554 18.0858C246.874 18.2458 247.139 18.4653 247.348 18.7442C247.561 19.0232 247.721 19.3453 247.828 19.7104C247.934 20.0714 247.988 20.453 247.988 20.855C247.988 21.2858 247.918 21.6878 247.779 22.0612C247.643 22.4345 247.446 22.7607 247.188 23.0397C246.929 23.3186 246.618 23.5361 246.252 23.692C245.887 23.8479 245.477 23.9258 245.022 23.9258C244.542 23.9258 244.111 23.8356 243.729 23.655C243.352 23.4745 243.028 23.2243 242.757 22.9043C242.486 22.5843 242.279 22.2109 242.135 21.7843C241.992 21.3576 241.92 20.896 241.92 20.3996V19.7473C241.92 19.0458 242.016 18.3935 242.209 17.7904C242.402 17.1873 242.687 16.6601 243.065 16.2088C243.446 15.7534 243.918 15.4006 244.48 15.1504C245.042 14.896 245.692 14.7688 246.431 14.7688Z" fill="#424A5A"/>
<rect x="225.415" y="0.358639" width="38.8927" height="38.8882" rx="1.95515" stroke="#A6A8AB" stroke-width="0.717277"/>
<rect x="270.427" y="0.358639" width="38.8927" height="38.8882" rx="1.95515" fill="#DFDFEF"/>
<path d="M292.938 14.8427V15.7288L289.418 23.8027H287.701L291.221 16.1227H286.667V14.8427H292.938Z" fill="#424A5A"/>
<rect x="270.427" y="0.358639" width="38.8927" height="38.8882" rx="1.95515" stroke="#A6A8AB" stroke-width="0.717277"/>
<rect x="315.08" width="39.61" height="39.6054" rx="2.31379" fill="#424A5A"/>
<path d="M337.876 21.3535C337.876 21.9114 337.745 22.3832 337.482 22.7689C337.224 23.1504 336.869 23.4397 336.417 23.6366C335.97 23.8294 335.461 23.9258 334.891 23.9258C334.325 23.9258 333.814 23.8294 333.359 23.6366C332.908 23.4397 332.549 23.1504 332.282 22.7689C332.019 22.3832 331.888 21.9114 331.888 21.3535C331.888 20.9801 331.962 20.6417 332.11 20.3381C332.261 20.0345 332.471 19.774 332.737 19.5565C333.004 19.335 333.32 19.1668 333.685 19.0519C334.05 18.933 334.448 18.8735 334.879 18.8735C335.453 18.8735 335.966 18.9781 336.417 19.1873C336.873 19.3924 337.23 19.6817 337.488 20.055C337.747 20.4242 337.876 20.8571 337.876 21.3535ZM336.239 21.255C336.239 20.9678 336.181 20.7196 336.067 20.5104C335.956 20.2971 335.798 20.133 335.593 20.0181C335.388 19.9032 335.15 19.8458 334.879 19.8458C334.604 19.8458 334.364 19.9032 334.159 20.0181C333.958 20.133 333.8 20.2971 333.685 20.5104C333.574 20.7196 333.519 20.9678 333.519 21.255C333.519 21.5463 333.574 21.7966 333.685 22.0058C333.8 22.2109 333.96 22.3689 334.165 22.4796C334.37 22.5904 334.612 22.6458 334.891 22.6458C335.17 22.6458 335.41 22.5904 335.611 22.4796C335.812 22.3689 335.966 22.2109 336.073 22.0058C336.184 21.7966 336.239 21.5463 336.239 21.255ZM337.679 17.2058C337.679 17.657 337.56 18.0591 337.322 18.4119C337.084 18.7606 336.754 19.0335 336.331 19.2304C335.913 19.4273 335.433 19.5258 334.891 19.5258C334.35 19.5258 333.866 19.4273 333.439 19.2304C333.016 19.0335 332.684 18.7606 332.442 18.4119C332.204 18.0591 332.085 17.657 332.085 17.2058C332.085 16.6724 332.206 16.2211 332.448 15.8519C332.69 15.4786 333.02 15.1955 333.439 15.0027C333.861 14.8098 334.341 14.7134 334.879 14.7134C335.425 14.7134 335.909 14.8098 336.331 15.0027C336.754 15.1955 337.084 15.4786 337.322 15.8519C337.56 16.2211 337.679 16.6724 337.679 17.2058ZM336.054 17.2735C336.054 17.0191 336.007 16.7976 335.913 16.6088C335.818 16.416 335.683 16.2663 335.507 16.1596C335.334 16.0529 335.125 15.9996 334.879 15.9996C334.641 15.9996 334.436 16.0509 334.264 16.1534C334.091 16.256 333.958 16.4037 333.864 16.5965C333.769 16.7852 333.722 17.0109 333.722 17.2735C333.722 17.5319 333.769 17.7576 333.864 17.9504C333.958 18.1432 334.091 18.295 334.264 18.4058C334.44 18.5124 334.649 18.5658 334.891 18.5658C335.133 18.5658 335.34 18.5124 335.513 18.4058C335.685 18.295 335.818 18.1432 335.913 17.9504C336.007 17.7576 336.054 17.5319 336.054 17.2735Z" fill="#DFDFEF"/>
<rect x="360.448" y="0.358639" width="38.8927" height="38.8882" rx="1.95515" fill="#DFDFEF"/>
<path d="M378.166 22.5412H378.283C378.812 22.5412 379.259 22.4735 379.624 22.3381C379.993 22.2027 380.291 22.012 380.516 21.7658C380.746 21.5155 380.912 21.2181 381.015 20.8735C381.122 20.5248 381.175 20.1391 381.175 19.7165V18.0919C381.175 17.7473 381.14 17.4458 381.07 17.1873C381 16.9247 380.902 16.7052 380.775 16.5288C380.652 16.3524 380.506 16.2211 380.338 16.135C380.17 16.0447 379.989 15.9996 379.796 15.9996C379.583 15.9996 379.394 16.0488 379.23 16.1473C379.066 16.2458 378.927 16.3811 378.812 16.5534C378.701 16.7217 378.615 16.9165 378.553 17.1381C378.496 17.3596 378.467 17.5935 378.467 17.8396C378.467 18.0776 378.494 18.3053 378.547 18.5227C378.605 18.7401 378.689 18.933 378.799 19.1012C378.914 19.2694 379.058 19.4027 379.23 19.5012C379.403 19.5955 379.604 19.6427 379.833 19.6427C380.051 19.6427 380.248 19.6017 380.424 19.5196C380.605 19.4335 380.76 19.3206 380.892 19.1812C381.023 19.0376 381.124 18.8796 381.193 18.7073C381.267 18.5309 381.308 18.3524 381.316 18.1719L381.889 18.4181C381.889 18.7176 381.825 19.013 381.698 19.3042C381.575 19.5955 381.4 19.8601 381.175 20.0981C380.953 20.3319 380.695 20.5207 380.399 20.6642C380.104 20.8037 379.786 20.8735 379.446 20.8735C379.023 20.8735 378.65 20.7955 378.326 20.6396C378.001 20.4837 377.729 20.2683 377.507 19.9935C377.29 19.7145 377.126 19.3945 377.015 19.0335C376.904 18.6683 376.849 18.2786 376.849 17.8642C376.849 17.4335 376.916 17.0293 377.052 16.6519C377.187 16.2704 377.382 15.936 377.636 15.6488C377.895 15.3575 378.207 15.1298 378.572 14.9657C378.937 14.7975 379.347 14.7134 379.803 14.7134C380.274 14.7134 380.695 14.8057 381.064 14.9904C381.433 15.175 381.747 15.4314 382.006 15.7596C382.264 16.0837 382.461 16.4673 382.596 16.9104C382.736 17.3535 382.806 17.8376 382.806 18.3627V18.935C382.806 19.4889 382.75 20.014 382.639 20.5104C382.529 21.0068 382.358 21.4602 382.129 21.8704C381.899 22.2807 381.606 22.6355 381.249 22.935C380.896 23.2345 380.473 23.4663 379.981 23.6304C379.493 23.7904 378.935 23.8704 378.307 23.8704H378.166V22.5412Z" fill="#424A5A"/>
<rect x="360.448" y="0.358639" width="38.8927" height="38.8882" rx="1.95515" stroke="#A6A8AB" stroke-width="0.717277"/>
<rect x="405.46" y="0.358639" width="38.8927" height="38.8882" rx="1.95515" fill="#DFDFEF"/>
<path d="M422.537 14.818V23.8027H420.907V16.7196L418.747 17.4335V16.1165L422.353 14.818H422.537ZM431.485 18.5535V20.0612C431.485 20.7504 431.415 21.3391 431.276 21.8273C431.136 22.3155 430.935 22.7155 430.673 23.0273C430.41 23.335 430.096 23.5627 429.731 23.7104C429.366 23.854 428.96 23.9258 428.513 23.9258C428.156 23.9258 427.824 23.8807 427.516 23.7904C427.208 23.6961 426.931 23.5525 426.685 23.3597C426.443 23.1627 426.234 22.9125 426.057 22.6089C425.885 22.3053 425.752 21.9422 425.657 21.5196C425.567 21.0971 425.522 20.6109 425.522 20.0612V18.5535C425.522 17.8642 425.592 17.2776 425.731 16.7934C425.875 16.3093 426.078 15.9134 426.34 15.6057C426.603 15.2981 426.917 15.0745 427.282 14.935C427.647 14.7914 428.053 14.7196 428.5 14.7196C428.861 14.7196 429.194 14.7647 429.497 14.855C429.805 14.9452 430.08 15.0868 430.322 15.2796C430.568 15.4683 430.777 15.7145 430.95 16.0181C431.122 16.3175 431.253 16.6786 431.344 17.1011C431.438 17.5196 431.485 18.0037 431.485 18.5535ZM429.86 20.2827V18.3258C429.86 17.9812 429.84 17.6817 429.799 17.4273C429.762 17.1688 429.707 16.9493 429.633 16.7688C429.559 16.5883 429.467 16.4427 429.356 16.3319C429.245 16.217 429.118 16.1329 428.974 16.0796C428.831 16.0263 428.673 15.9996 428.5 15.9996C428.287 15.9996 428.096 16.0427 427.928 16.1288C427.76 16.2109 427.618 16.3422 427.504 16.5227C427.389 16.7032 427.3 16.9432 427.239 17.2427C427.181 17.5381 427.153 17.8991 427.153 18.3258V20.2827C427.153 20.6273 427.171 20.9289 427.208 21.1873C427.249 21.4458 427.307 21.6673 427.38 21.852C427.458 22.0366 427.551 22.1884 427.657 22.3073C427.768 22.4222 427.895 22.5084 428.039 22.5658C428.182 22.6191 428.34 22.6458 428.513 22.6458C428.73 22.6458 428.921 22.6027 429.085 22.5166C429.253 22.4304 429.395 22.295 429.51 22.1104C429.625 21.9217 429.711 21.6776 429.768 21.3781C429.83 21.0745 429.86 20.7094 429.86 20.2827Z" fill="#424A5A"/>
<rect x="405.46" y="0.358639" width="38.8927" height="38.8882" rx="1.95515" stroke="#A6A8AB" stroke-width="0.717277"/>
<path d="M4.39904 49.2671V57.8073H3.31985V50.6146L1.14397 51.4079V50.4338L4.22987 49.2671H4.39904ZM15.5818 52.1196V53.0588H10.7167V52.1196H15.5818ZM15.5818 54.5405V55.4797H10.7167V54.5405H15.5818ZM26.8695 49.3137V57.8073H25.7378L21.4619 51.2563V57.8073H20.3361V49.3137H21.4619L25.7553 55.8822V49.3137H26.8695ZM28.4154 54.7214V54.5872C28.4154 54.1322 28.4815 53.7102 28.6137 53.3213C28.746 52.9285 28.9365 52.5882 29.1854 52.3005C29.4343 52.0088 29.7357 51.7832 30.0896 51.6238C30.4435 51.4604 30.8402 51.3788 31.2796 51.3788C31.723 51.3788 32.1216 51.4604 32.4755 51.6238C32.8333 51.7832 33.1366 52.0088 33.3855 52.3005C33.6383 52.5882 33.8308 52.9285 33.963 53.3213C34.0952 53.7102 34.1614 54.1322 34.1614 54.5872V54.7214C34.1614 55.1764 34.0952 55.5983 33.963 55.9872C33.8308 56.3761 33.6383 56.7164 33.3855 57.0081C33.1366 57.2959 32.8352 57.5214 32.4813 57.6847C32.1313 57.8442 31.7346 57.9239 31.2913 57.9239C30.8479 57.9239 30.4493 57.8442 30.0954 57.6847C29.7415 57.5214 29.4382 57.2959 29.1854 57.0081C28.9365 56.7164 28.746 56.3761 28.6137 55.9872C28.4815 55.5983 28.4154 55.1764 28.4154 54.7214ZM29.4946 54.5872V54.7214C29.4946 55.0364 29.5315 55.3339 29.6054 55.6139C29.6793 55.89 29.7901 56.135 29.9379 56.3489C30.0896 56.5628 30.2782 56.7319 30.5038 56.8564C30.7293 56.977 30.9918 57.0372 31.2913 57.0372C31.5869 57.0372 31.8455 56.977 32.0671 56.8564C32.2927 56.7319 32.4794 56.5628 32.6272 56.3489C32.7749 56.135 32.8858 55.89 32.9597 55.6139C33.0374 55.3339 33.0763 55.0364 33.0763 54.7214V54.5872C33.0763 54.2761 33.0374 53.9824 32.9597 53.7063C32.8858 53.4263 32.773 53.1794 32.6213 52.9655C32.4735 52.7477 32.2869 52.5766 32.0613 52.4521C31.8396 52.3277 31.5791 52.2655 31.2796 52.2655C30.9841 52.2655 30.7235 52.3277 30.4979 52.4521C30.2763 52.5766 30.0896 52.7477 29.9379 52.9655C29.7901 53.1794 29.6793 53.4263 29.6054 53.7063C29.5315 53.9824 29.4946 54.2761 29.4946 54.5872ZM38.1573 51.4954V52.3238H34.7447V51.4954H38.1573ZM35.8997 49.9612H36.9789V56.2439C36.9789 56.4578 37.012 56.6192 37.0781 56.7281C37.1442 56.837 37.2298 56.9089 37.3348 56.9439C37.4398 56.9789 37.5525 56.9964 37.6731 56.9964C37.7625 56.9964 37.8559 56.9886 37.9531 56.9731C38.0542 56.9536 38.1301 56.9381 38.1806 56.9264L38.1864 57.8073C38.1009 57.8345 37.9881 57.8598 37.8481 57.8831C37.712 57.9103 37.5467 57.9239 37.3523 57.9239C37.0878 57.9239 36.8447 57.8714 36.6231 57.7664C36.4014 57.6614 36.2245 57.4864 36.0922 57.2414C35.9639 56.9925 35.8997 56.6581 35.8997 56.2381V49.9612ZM43.5591 48.8471V57.8073H42.474V48.8471H43.5591ZM46.4641 51.4954V57.8073H45.3791V51.4954H46.4641ZM45.2974 49.8212C45.2974 49.6462 45.3499 49.4985 45.4549 49.3779C45.5638 49.2573 45.7233 49.1971 45.9333 49.1971C46.1394 49.1971 46.2969 49.2573 46.4058 49.3779C46.5186 49.4985 46.575 49.6462 46.575 49.8212C46.575 49.9885 46.5186 50.1324 46.4058 50.2529C46.2969 50.3696 46.1394 50.4279 45.9333 50.4279C45.7233 50.4279 45.5638 50.3696 45.4549 50.2529C45.3499 50.1324 45.2974 49.9885 45.2974 49.8212ZM49.2817 48.8471V57.8073H48.1967V48.8471H49.2817ZM53.1376 51.4954L50.3842 54.4413L48.8442 56.0397L48.7567 54.8905L49.8592 53.5722L51.8192 51.4954H53.1376ZM52.1517 57.8073L49.9 54.7972L50.46 53.8347L53.4234 57.8073H52.1517ZM56.7543 57.9239C56.3149 57.9239 55.9163 57.85 55.5585 57.7022C55.2046 57.5506 54.8993 57.3386 54.6426 57.0664C54.3899 56.7942 54.1954 56.4714 54.0593 56.098C53.9232 55.7247 53.8551 55.3164 53.8551 54.873V54.628C53.8551 54.1147 53.931 53.6577 54.0826 53.2572C54.2343 52.8527 54.4404 52.5105 54.701 52.2305C54.9615 51.9505 55.2571 51.7385 55.5877 51.5946C55.9182 51.4507 56.2604 51.3788 56.6143 51.3788C57.0655 51.3788 57.4544 51.4566 57.781 51.6121C58.1116 51.7677 58.3819 51.9855 58.5919 52.2655C58.8019 52.5416 58.9575 52.8683 59.0586 53.2455C59.1597 53.6188 59.2102 54.0272 59.2102 54.4705V54.9547H54.4968V54.0738H58.131V53.9922C58.1155 53.7122 58.0572 53.4399 57.956 53.1755C57.8588 52.911 57.7033 52.6933 57.4894 52.5221C57.2755 52.351 56.9838 52.2655 56.6143 52.2655C56.3693 52.2655 56.1438 52.318 55.9377 52.423C55.7315 52.5241 55.5546 52.6758 55.4068 52.878C55.259 53.0802 55.1443 53.3272 55.0626 53.6188C54.981 53.9105 54.9401 54.2469 54.9401 54.628V54.873C54.9401 55.1725 54.981 55.4544 55.0626 55.7189C55.1482 55.9794 55.2707 56.2089 55.4302 56.4072C55.5935 56.6056 55.7899 56.7611 56.0193 56.8739C56.2527 56.9867 56.5171 57.0431 56.8127 57.0431C57.1938 57.0431 57.5166 56.9653 57.781 56.8097C58.0455 56.6542 58.2769 56.4461 58.4752 56.1855L59.1286 56.7047C58.9925 56.9108 58.8194 57.1072 58.6094 57.2939C58.3994 57.4806 58.1408 57.6322 57.8335 57.7489C57.5302 57.8656 57.1705 57.9239 56.7543 57.9239ZM61.6428 48.8471V57.8073H60.5578V48.8471H61.6428ZM65.1487 57.1539L66.9046 51.4954H68.0596L65.5279 58.7814C65.4695 58.937 65.3918 59.1042 65.2945 59.2831C65.2012 59.4659 65.0806 59.639 64.9329 59.8023C64.7851 59.9656 64.6062 60.0979 64.3962 60.199C64.1901 60.304 63.9431 60.3565 63.6553 60.3565C63.5698 60.3565 63.4609 60.3448 63.3287 60.3215C63.1964 60.2981 63.1031 60.2787 63.0487 60.2631L63.0428 59.3881C63.0739 59.392 63.1225 59.3959 63.1887 59.3998C63.2587 59.4076 63.3073 59.4115 63.3345 59.4115C63.5795 59.4115 63.7876 59.3784 63.9587 59.3123C64.1298 59.2501 64.2737 59.1431 64.3903 58.9914C64.5109 58.8437 64.614 58.6395 64.6995 58.3789L65.1487 57.1539ZM63.8595 51.4954L65.4987 56.3956L65.7787 57.5331L65.0029 57.9298L62.6811 51.4954H63.8595ZM75.7189 56.7281V53.4788C75.7189 53.2299 75.6684 53.0141 75.5673 52.8313C75.47 52.6446 75.3223 52.5007 75.1239 52.3996C74.9256 52.2985 74.6806 52.248 74.3889 52.248C74.1167 52.248 73.8775 52.2946 73.6714 52.388C73.4692 52.4813 73.3097 52.6038 73.193 52.7555C73.0803 52.9071 73.0239 53.0705 73.0239 53.2455H71.9447C71.9447 53.0199 72.003 52.7963 72.1197 52.5746C72.2363 52.353 72.4036 52.1527 72.6214 51.9738C72.843 51.791 73.1075 51.6471 73.4147 51.5421C73.7258 51.4332 74.0719 51.3788 74.4531 51.3788C74.912 51.3788 75.3164 51.4566 75.6664 51.6121C76.0203 51.7677 76.2964 52.003 76.4948 52.318C76.697 52.6291 76.7981 53.0199 76.7981 53.4905V56.4306C76.7981 56.6406 76.8156 56.8642 76.8506 57.1014C76.8895 57.3386 76.9459 57.5428 77.0198 57.7139V57.8073H75.8939C75.8395 57.6828 75.7967 57.5175 75.7656 57.3114C75.7345 57.1014 75.7189 56.907 75.7189 56.7281ZM75.9056 53.9805L75.9173 54.7389H74.8264C74.5192 54.7389 74.245 54.7641 74.0039 54.8147C73.7628 54.8614 73.5605 54.9333 73.3972 55.0305C73.2339 55.1277 73.1094 55.2503 73.0239 55.398C72.9383 55.5419 72.8955 55.7111 72.8955 55.9055C72.8955 56.1039 72.9403 56.2847 73.0297 56.4481C73.1191 56.6114 73.2533 56.7417 73.4322 56.8389C73.615 56.9322 73.8386 56.9789 74.1031 56.9789C74.4336 56.9789 74.7253 56.9089 74.9781 56.7689C75.2309 56.6289 75.4311 56.4578 75.5789 56.2556C75.7306 56.0533 75.8123 55.8569 75.8239 55.6664L76.2848 56.1855C76.2575 56.3489 76.1837 56.5297 76.0631 56.7281C75.9425 56.9264 75.7811 57.117 75.5789 57.2997C75.3806 57.4786 75.1434 57.6284 74.8672 57.7489C74.595 57.8656 74.2878 57.9239 73.9456 57.9239C73.5178 57.9239 73.1425 57.8403 72.8197 57.6731C72.5008 57.5059 72.2519 57.2822 72.073 57.0022C71.898 56.7183 71.8105 56.4014 71.8105 56.0514C71.8105 55.713 71.8766 55.4155 72.0088 55.1589C72.1411 54.8983 72.3316 54.6825 72.5805 54.5113C72.8294 54.3363 73.1289 54.2041 73.4789 54.1147C73.8289 54.0252 74.2197 53.9805 74.6514 53.9805H75.9056ZM81.1382 51.4954V52.3238H77.7256V51.4954H81.1382ZM78.8807 49.9612H79.9599V56.2439C79.9599 56.4578 79.9929 56.6192 80.059 56.7281C80.1251 56.837 80.2107 56.9089 80.3157 56.9439C80.4207 56.9789 80.5335 56.9964 80.654 56.9964C80.7435 56.9964 80.8368 56.9886 80.934 56.9731C81.0352 56.9536 81.111 56.9381 81.1615 56.9264L81.1674 57.8073C81.0818 57.8345 80.969 57.8598 80.829 57.8831C80.6929 57.9103 80.5276 57.9239 80.3332 57.9239C80.0687 57.9239 79.8257 57.8714 79.604 57.7664C79.3823 57.6614 79.2054 57.4864 79.0732 57.2414C78.9448 56.9925 78.8807 56.6581 78.8807 56.2381V49.9612ZM89.0892 56.7281V53.4788C89.0892 53.2299 89.0387 53.0141 88.9375 52.8313C88.8403 52.6446 88.6925 52.5007 88.4942 52.3996C88.2959 52.2985 88.0509 52.248 87.7592 52.248C87.487 52.248 87.2478 52.2946 87.0417 52.388C86.8394 52.4813 86.68 52.6038 86.5633 52.7555C86.4505 52.9071 86.3942 53.0705 86.3942 53.2455H85.315C85.315 53.0199 85.3733 52.7963 85.49 52.5746C85.6066 52.353 85.7739 52.1527 85.9917 51.9738C86.2133 51.791 86.4778 51.6471 86.785 51.5421C87.0961 51.4332 87.4422 51.3788 87.8234 51.3788C88.2823 51.3788 88.6867 51.4566 89.0367 51.6121C89.3906 51.7677 89.6667 52.003 89.8651 52.318C90.0673 52.6291 90.1684 53.0199 90.1684 53.4905V56.4306C90.1684 56.6406 90.1859 56.8642 90.2209 57.1014C90.2598 57.3386 90.3162 57.5428 90.3901 57.7139V57.8073H89.2642C89.2098 57.6828 89.167 57.5175 89.1359 57.3114C89.1048 57.1014 89.0892 56.907 89.0892 56.7281ZM89.2759 53.9805L89.2876 54.7389H88.1967C87.8895 54.7389 87.6153 54.7641 87.3742 54.8147C87.1331 54.8614 86.9308 54.9333 86.7675 55.0305C86.6042 55.1277 86.4797 55.2503 86.3942 55.398C86.3086 55.5419 86.2658 55.7111 86.2658 55.9055C86.2658 56.1039 86.3105 56.2847 86.4 56.4481C86.4894 56.6114 86.6236 56.7417 86.8025 56.8389C86.9853 56.9322 87.2089 56.9789 87.4733 56.9789C87.8039 56.9789 88.0956 56.9089 88.3484 56.7689C88.6012 56.6289 88.8014 56.4578 88.9492 56.2556C89.1009 56.0533 89.1826 55.8569 89.1942 55.6664L89.6551 56.1855C89.6278 56.3489 89.554 56.5297 89.4334 56.7281C89.3128 56.9264 89.1514 57.117 88.9492 57.2997C88.7509 57.4786 88.5137 57.6284 88.2375 57.7489C87.9653 57.8656 87.6581 57.9239 87.3158 57.9239C86.8881 57.9239 86.5128 57.8403 86.19 57.6731C85.8711 57.5059 85.6222 57.2822 85.4433 57.0022C85.2683 56.7183 85.1808 56.4014 85.1808 56.0514C85.1808 55.713 85.2469 55.4155 85.3791 55.1589C85.5114 54.8983 85.7019 54.6825 85.9508 54.5113C86.1997 54.3363 86.4992 54.2041 86.8492 54.1147C87.1992 54.0252 87.59 53.9805 88.0217 53.9805H89.2759ZM93.0385 48.8471V57.8073H91.9534V48.8471H93.0385ZM95.9435 48.8471V57.8073H94.8585V48.8471H95.9435Z" fill="#404247"/>
<path d="M341.161 49.2671V57.8073H340.082V50.6146L337.906 51.4079V50.4338L340.992 49.2671H341.161ZM349.666 52.8838V54.1788C349.666 54.875 349.604 55.4622 349.48 55.9405C349.355 56.4189 349.176 56.8039 348.943 57.0956C348.71 57.3872 348.428 57.5992 348.097 57.7314C347.77 57.8598 347.401 57.9239 346.989 57.9239C346.662 57.9239 346.361 57.8831 346.085 57.8014C345.809 57.7197 345.56 57.5895 345.338 57.4106C345.12 57.2278 344.933 56.9906 344.778 56.6989C344.622 56.4072 344.504 56.0533 344.422 55.6372C344.34 55.2211 344.3 54.735 344.3 54.1788V52.8838C344.3 52.1877 344.362 51.6043 344.486 51.1338C344.615 50.6632 344.795 50.286 345.029 50.0021C345.262 49.7143 345.542 49.5082 345.869 49.3837C346.199 49.2593 346.569 49.1971 346.977 49.1971C347.308 49.1971 347.611 49.2379 347.887 49.3196C348.167 49.3973 348.416 49.5237 348.634 49.6987C348.852 49.8699 349.036 50.0993 349.188 50.3871C349.344 50.671 349.462 51.019 349.544 51.4313C349.626 51.8435 349.666 52.3277 349.666 52.8838ZM348.581 54.3538V52.703C348.581 52.3219 348.558 51.9874 348.511 51.6996C348.469 51.4079 348.404 51.1591 348.319 50.9529C348.233 50.7468 348.124 50.5796 347.992 50.4513C347.864 50.3229 347.714 50.2296 347.543 50.1713C347.376 50.109 347.187 50.0779 346.977 50.0779C346.72 50.0779 346.493 50.1265 346.295 50.2238C346.096 50.3171 345.929 50.4668 345.793 50.6729C345.661 50.879 345.56 51.1493 345.49 51.4838C345.42 51.8182 345.385 52.2246 345.385 52.703V54.3538C345.385 54.735 345.406 55.0714 345.449 55.363C345.495 55.6547 345.563 55.9075 345.653 56.1214C345.742 56.3314 345.851 56.5044 345.98 56.6406C346.108 56.7767 346.256 56.8778 346.423 56.9439C346.594 57.0061 346.783 57.0372 346.989 57.0372C347.253 57.0372 347.485 56.9867 347.683 56.8856C347.881 56.7845 348.047 56.6269 348.179 56.4131C348.315 56.1953 348.416 55.9172 348.482 55.5789C348.548 55.2366 348.581 54.8283 348.581 54.3538ZM359.064 52.1196V53.0588H354.199V52.1196H359.064ZM359.064 54.5405V55.4797H354.199V54.5405H359.064ZM369.214 56.8914V57.8073H364.717V56.8914H369.214ZM364.944 49.3137V57.8073H363.818V49.3137H364.944ZM368.619 52.9655V53.8813H364.717V52.9655H368.619ZM369.156 49.3137V50.2354H364.717V49.3137H369.156ZM371.174 51.4954L372.557 53.7938L373.957 51.4954H375.223L373.158 54.6105L375.287 57.8073H374.039L372.58 55.4389L371.122 57.8073H369.868L371.991 54.6105L369.932 51.4954H371.174ZM379.015 51.4954V52.3238H375.602V51.4954H379.015ZM376.757 49.9612H377.836V56.2439C377.836 56.4578 377.869 56.6192 377.935 56.7281C378.001 56.837 378.087 56.9089 378.192 56.9439C378.297 56.9789 378.41 56.9964 378.53 56.9964C378.62 56.9964 378.713 56.9886 378.81 56.9731C378.911 56.9536 378.987 56.9381 379.038 56.9264L379.044 57.8073C378.958 57.8345 378.845 57.8598 378.705 57.8831C378.569 57.9103 378.404 57.9239 378.209 57.9239C377.945 57.9239 377.702 57.8714 377.48 57.7664C377.259 57.6614 377.082 57.4864 376.949 57.2414C376.821 56.9925 376.757 56.6581 376.757 56.2381V49.9612ZM381.36 52.4871V57.8073H380.28V51.4954H381.33L381.36 52.4871ZM383.331 51.4604L383.325 52.4638C383.236 52.4444 383.15 52.4327 383.069 52.4288C382.991 52.421 382.902 52.4171 382.8 52.4171C382.552 52.4171 382.332 52.456 382.141 52.5338C381.951 52.6116 381.789 52.7205 381.657 52.8605C381.525 53.0005 381.42 53.1677 381.342 53.3622C381.268 53.5527 381.22 53.7627 381.196 53.9922L380.893 54.1672C380.893 53.7861 380.93 53.4283 381.004 53.0938C381.081 52.7594 381.2 52.4638 381.36 52.2071C381.519 51.9466 381.721 51.7443 381.966 51.6004C382.215 51.4527 382.511 51.3788 382.853 51.3788C382.931 51.3788 383.02 51.3885 383.121 51.4079C383.222 51.4235 383.292 51.441 383.331 51.4604ZM386.831 57.9239C386.392 57.9239 385.993 57.85 385.635 57.7022C385.282 57.5506 384.976 57.3386 384.72 57.0664C384.467 56.7942 384.272 56.4714 384.136 56.098C384 55.7247 383.932 55.3164 383.932 54.873V54.628C383.932 54.1147 384.008 53.6577 384.16 53.2572C384.311 52.8527 384.517 52.5105 384.778 52.2305C385.039 51.9505 385.334 51.7385 385.665 51.5946C385.995 51.4507 386.337 51.3788 386.691 51.3788C387.142 51.3788 387.531 51.4566 387.858 51.6121C388.189 51.7677 388.459 51.9855 388.669 52.2655C388.879 52.5416 389.034 52.8683 389.136 53.2455C389.237 53.6188 389.287 54.0272 389.287 54.4705V54.9547H384.574V54.0738H388.208V53.9922C388.192 53.7122 388.134 53.4399 388.033 53.1755C387.936 52.911 387.78 52.6933 387.566 52.5221C387.352 52.351 387.061 52.2655 386.691 52.2655C386.446 52.2655 386.221 52.318 386.015 52.423C385.809 52.5241 385.632 52.6758 385.484 52.878C385.336 53.0802 385.221 53.3272 385.14 53.6188C385.058 53.9105 385.017 54.2469 385.017 54.628V54.873C385.017 55.1725 385.058 55.4544 385.14 55.7189C385.225 55.9794 385.348 56.2089 385.507 56.4072C385.67 56.6056 385.867 56.7611 386.096 56.8739C386.33 56.9867 386.594 57.0431 386.89 57.0431C387.271 57.0431 387.594 56.9653 387.858 56.8097C388.122 56.6542 388.354 56.4461 388.552 56.1855L389.206 56.7047C389.069 56.9108 388.896 57.1072 388.686 57.2939C388.476 57.4806 388.218 57.6322 387.911 57.7489C387.607 57.8656 387.247 57.9239 386.831 57.9239ZM391.621 52.7496V57.8073H390.536V51.4954H391.562L391.621 52.7496ZM391.399 54.4122L390.897 54.3947C390.901 53.963 390.958 53.5644 391.066 53.1988C391.175 52.8294 391.337 52.5085 391.551 52.2363C391.765 51.9641 392.031 51.7541 392.35 51.6063C392.669 51.4546 393.038 51.3788 393.458 51.3788C393.754 51.3788 394.026 51.4216 394.275 51.5071C394.524 51.5888 394.74 51.7191 394.922 51.898C395.105 52.0768 395.247 52.3063 395.348 52.5863C395.449 52.8663 395.5 53.2047 395.5 53.6013V57.8073H394.421V53.6538C394.421 53.3233 394.364 53.0588 394.252 52.8605C394.143 52.6621 393.987 52.5182 393.785 52.4288C393.583 52.3355 393.345 52.2888 393.073 52.2888C392.754 52.2888 392.488 52.3452 392.274 52.458C392.06 52.5707 391.889 52.7263 391.761 52.9246C391.632 53.123 391.539 53.3505 391.481 53.6072C391.426 53.8599 391.399 54.1283 391.399 54.4122ZM395.488 53.8172L394.765 54.0388C394.769 53.6927 394.825 53.3602 394.934 53.0413C395.047 52.7224 395.208 52.4385 395.418 52.1896C395.632 51.9407 395.895 51.7443 396.206 51.6004C396.517 51.4527 396.873 51.3788 397.273 51.3788C397.612 51.3788 397.911 51.4235 398.172 51.5129C398.436 51.6024 398.658 51.7405 398.837 51.9271C399.019 52.1099 399.157 52.3452 399.251 52.633C399.344 52.9208 399.391 53.263 399.391 53.6597V57.8073H398.306V53.648C398.306 53.2941 398.249 53.0199 398.137 52.8255C398.028 52.6271 397.872 52.4891 397.67 52.4113C397.472 52.3296 397.234 52.2888 396.958 52.2888C396.721 52.2888 396.511 52.3296 396.328 52.4113C396.145 52.493 395.992 52.6057 395.867 52.7496C395.743 52.8896 395.648 53.051 395.582 53.2338C395.519 53.4166 395.488 53.611 395.488 53.8172ZM403.643 57.9239C403.204 57.9239 402.805 57.85 402.448 57.7022C402.094 57.5506 401.788 57.3386 401.532 57.0664C401.279 56.7942 401.084 56.4714 400.948 56.098C400.812 55.7247 400.744 55.3164 400.744 54.873V54.628C400.744 54.1147 400.82 53.6577 400.972 53.2572C401.123 52.8527 401.329 52.5105 401.59 52.2305C401.851 51.9505 402.146 51.7385 402.477 51.5946C402.807 51.4507 403.149 51.3788 403.503 51.3788C403.954 51.3788 404.343 51.4566 404.67 51.6121C405.001 51.7677 405.271 51.9855 405.481 52.2655C405.691 52.5416 405.846 52.8683 405.948 53.2455C406.049 53.6188 406.099 54.0272 406.099 54.4705V54.9547H401.386V54.0738H405.02V53.9922C405.005 53.7122 404.946 53.4399 404.845 53.1755C404.748 52.911 404.592 52.6933 404.378 52.5221C404.164 52.351 403.873 52.2655 403.503 52.2655C403.258 52.2655 403.033 52.318 402.827 52.423C402.621 52.5241 402.444 52.6758 402.296 52.878C402.148 53.0802 402.033 53.3272 401.952 53.6188C401.87 53.9105 401.829 54.2469 401.829 54.628V54.873C401.829 55.1725 401.87 55.4544 401.952 55.7189C402.037 55.9794 402.16 56.2089 402.319 56.4072C402.483 56.6056 402.679 56.7611 402.908 56.8739C403.142 56.9867 403.406 57.0431 403.702 57.0431C404.083 57.0431 404.406 56.9653 404.67 56.8097C404.935 56.6542 405.166 56.4461 405.364 56.1855L406.018 56.7047C405.881 56.9108 405.708 57.1072 405.498 57.2939C405.288 57.4806 405.03 57.6322 404.723 57.7489C404.419 57.8656 404.059 57.9239 403.643 57.9239ZM408.532 48.8471V57.8073H407.447V48.8471H408.532ZM412.038 57.1539L413.794 51.4954H414.949L412.417 58.7814C412.359 58.937 412.281 59.1042 412.184 59.2831C412.09 59.4659 411.97 59.639 411.822 59.8023C411.674 59.9656 411.495 60.0979 411.285 60.199C411.079 60.304 410.832 60.3565 410.544 60.3565C410.459 60.3565 410.35 60.3448 410.218 60.3215C410.085 60.2981 409.992 60.2787 409.938 60.2631L409.932 59.3881C409.963 59.392 410.012 59.3959 410.078 59.3998C410.148 59.4076 410.196 59.4115 410.224 59.4115C410.469 59.4115 410.677 59.3784 410.848 59.3123C411.019 59.2501 411.163 59.1431 411.279 58.9914C411.4 58.8437 411.503 58.6395 411.589 58.3789L412.038 57.1539ZM410.749 51.4954L412.388 56.3956L412.668 57.5331L411.892 57.9298L409.57 51.4954H410.749ZM420.059 48.8471V57.8073H418.974V48.8471H420.059ZM422.964 51.4954V57.8073H421.879V51.4954H422.964ZM421.797 49.8212C421.797 49.6462 421.85 49.4985 421.955 49.3779C422.063 49.2573 422.223 49.1971 422.433 49.1971C422.639 49.1971 422.797 49.2573 422.905 49.3779C423.018 49.4985 423.075 49.6462 423.075 49.8212C423.075 49.9885 423.018 50.1324 422.905 50.2529C422.797 50.3696 422.639 50.4279 422.433 50.4279C422.223 50.4279 422.063 50.3696 421.955 50.2529C421.85 50.1324 421.797 49.9885 421.797 49.8212ZM425.781 48.8471V57.8073H424.696V48.8471H425.781ZM429.637 51.4954L426.884 54.4413L425.344 56.0397L425.256 54.8905L426.359 53.5722L428.319 51.4954H429.637ZM428.651 57.8073L426.4 54.7972L426.96 53.8347L429.923 57.8073H428.651ZM433.254 57.9239C432.815 57.9239 432.416 57.85 432.058 57.7022C431.704 57.5506 431.399 57.3386 431.142 57.0664C430.89 56.7942 430.695 56.4714 430.559 56.098C430.423 55.7247 430.355 55.3164 430.355 54.873V54.628C430.355 54.1147 430.431 53.6577 430.582 53.2572C430.734 52.8527 430.94 52.5105 431.201 52.2305C431.461 51.9505 431.757 51.7385 432.087 51.5946C432.418 51.4507 432.76 51.3788 433.114 51.3788C433.565 51.3788 433.954 51.4566 434.281 51.6121C434.611 51.7677 434.882 51.9855 435.092 52.2655C435.302 52.5416 435.457 52.8683 435.558 53.2455C435.659 53.6188 435.71 54.0272 435.71 54.4705V54.9547H430.996V54.0738H434.631V53.9922C434.615 53.7122 434.557 53.4399 434.456 53.1755C434.358 52.911 434.203 52.6933 433.989 52.5221C433.775 52.351 433.483 52.2655 433.114 52.2655C432.869 52.2655 432.643 52.318 432.437 52.423C432.231 52.5241 432.054 52.6758 431.906 52.878C431.759 53.0802 431.644 53.3272 431.562 53.6188C431.481 53.9105 431.44 54.2469 431.44 54.628V54.873C431.44 55.1725 431.481 55.4544 431.562 55.7189C431.648 55.9794 431.77 56.2089 431.93 56.4072C432.093 56.6056 432.29 56.7611 432.519 56.8739C432.752 56.9867 433.017 57.0431 433.312 57.0431C433.693 57.0431 434.016 56.9653 434.281 56.8097C434.545 56.6542 434.777 56.4461 434.975 56.1855L435.628 56.7047C435.492 56.9108 435.319 57.1072 435.109 57.2939C434.899 57.4806 434.64 57.6322 434.333 57.7489C434.03 57.8656 433.67 57.9239 433.254 57.9239ZM438.142 48.8471V57.8073H437.057V48.8471H438.142ZM441.648 57.1539L443.404 51.4954H444.559L442.028 58.7814C441.969 58.937 441.891 59.1042 441.794 59.2831C441.701 59.4659 441.58 59.639 441.433 59.8023C441.285 59.9656 441.106 60.0979 440.896 60.199C440.69 60.304 440.443 60.3565 440.155 60.3565C440.069 60.3565 439.961 60.3448 439.828 60.3215C439.696 60.2981 439.603 60.2787 439.548 60.2631L439.542 59.3881C439.574 59.392 439.622 59.3959 439.688 59.3998C439.758 59.4076 439.807 59.4115 439.834 59.4115C440.079 59.4115 440.287 59.3784 440.458 59.3123C440.629 59.2501 440.773 59.1431 440.89 58.9914C441.011 58.8437 441.114 58.6395 441.199 58.3789L441.648 57.1539ZM440.359 51.4954L441.998 56.3956L442.278 57.5331L441.503 57.9298L439.181 51.4954H440.359Z" fill="#404247"/>
</g>
</svg>
