<svg width="41" height="40" viewBox="0 0 41 40" fill="none" xmlns="http://www.w3.org/2000/svg">
<g id="Smileys">
<circle id="Ellipse 84" cx="20.8005" cy="20" r="19.5" fill="#DFDFEF" stroke="#B8B9BC"/>
<path id="Vector" d="M27.3222 11.3044C27.7521 11.3044 28.1724 11.4319 28.5299 11.6708C28.8874 11.9097 29.1661 12.2492 29.3306 12.6464C29.4951 13.0437 29.5382 13.4808 29.4543 13.9025C29.3704 14.3242 29.1634 14.7115 28.8594 15.0155C28.5553 15.3196 28.168 15.5266 27.7463 15.6105C27.3246 15.6944 26.8875 15.6513 26.4903 15.4868C26.093 15.3223 25.7535 15.0436 25.5146 14.6861C25.2758 14.3286 25.1483 13.9083 25.1483 13.4784C25.1483 12.9018 25.3773 12.3489 25.785 11.9412C26.1927 11.5335 26.7456 11.3044 27.3222 11.3044ZM14.2787 11.3044C14.7087 11.3044 15.129 11.4319 15.4865 11.6708C15.844 11.9097 16.1226 12.2492 16.2871 12.6464C16.4517 13.0437 16.4947 13.4808 16.4108 13.9025C16.327 14.3242 16.1199 14.7115 15.8159 15.0155C15.5119 15.3196 15.1245 15.5266 14.7028 15.6105C14.2811 15.6944 13.844 15.6513 13.4468 15.4868C13.0496 15.3223 12.71 15.0436 12.4712 14.6861C12.2323 14.3286 12.1048 13.9083 12.1048 13.4784C12.1048 12.9018 12.3338 12.3489 12.7415 11.9412C13.1492 11.5335 13.7021 11.3044 14.2787 11.3044ZM20.8004 33.0436C14.557 33.0436 9.49609 28.8001 9.49609 23.5662C9.49609 23.5365 9.50105 23.5079 9.50131 23.4784H32.0996C32.0996 23.5079 32.1048 23.5365 32.1048 23.5662C32.1048 28.8001 27.0439 33.0436 20.8004 33.0436Z" fill="#686E7B"/>
</g>
</svg>
