<svg width="41" height="40" viewBox="0 0 41 40" fill="none" xmlns="http://www.w3.org/2000/svg">
<g id="Smileys">
<circle id="Ellipse 84" cx="20.7" cy="20" r="19.5" fill="#DFDFEF" stroke="#B8B9BC"/>
<g id="Vector">
<path d="M8.56414 11.3595L15.5207 8.7508C15.6276 8.71066 15.7414 8.69197 15.8556 8.6958C15.9697 8.69964 16.082 8.72592 16.186 8.77316C16.29 8.82039 16.3837 8.88764 16.4617 8.97108C16.5397 9.05452 16.6006 9.15251 16.6407 9.25945C16.6808 9.36639 16.6995 9.48019 16.6957 9.59436C16.6919 9.70852 16.6656 9.82081 16.6183 9.92482C16.5711 10.0288 16.5039 10.1225 16.4204 10.2005C16.337 10.2785 16.239 10.3393 16.132 10.3795L9.17553 12.9882C8.95955 13.0693 8.72021 13.0612 8.51016 12.9658C8.30011 12.8704 8.13656 12.6955 8.05549 12.4795C7.97441 12.2636 7.98245 12.0242 8.07784 11.8142C8.17324 11.6041 8.34816 11.4406 8.56414 11.3595Z" fill="#686E7B"/>
<path d="M13.6525 14.7825C14.0824 14.7825 14.5027 14.91 14.8602 15.1489C15.2177 15.3878 15.4964 15.7273 15.6609 16.1245C15.8255 16.5218 15.8685 16.9589 15.7846 17.3806C15.7007 17.8023 15.4937 18.1896 15.1897 18.4936C14.8856 18.7977 14.4983 19.0047 14.0766 19.0886C13.6549 19.1725 13.2178 19.1294 12.8206 18.9649C12.4233 18.8003 12.0838 18.5217 11.8449 18.1642C11.6061 17.8067 11.4786 17.3864 11.4786 16.9564C11.4786 16.3799 11.7076 15.8269 12.1153 15.4193C12.523 15.0116 13.0759 14.7825 13.6525 14.7825Z" fill="#686E7B"/>
<path d="M28.4351 19.1304C28.0051 19.1304 27.5848 19.0029 27.2273 18.764C26.8698 18.5251 26.5912 18.1856 26.4267 17.7884C26.2621 17.3911 26.2191 16.954 26.3029 16.5323C26.3868 16.1106 26.5939 15.7233 26.8979 15.4193C27.2019 15.1152 27.5893 14.9082 28.011 14.8243C28.4327 14.7404 28.8698 14.7835 29.267 14.948C29.6642 15.1126 30.0038 15.3912 30.2426 15.7487C30.4815 16.1062 30.609 16.5265 30.609 16.9564C30.609 17.533 30.38 18.0859 29.9723 18.4936C29.5646 18.9013 29.0116 19.1304 28.4351 19.1304Z" fill="#686E7B"/>
<path d="M34.032 12.4796C33.9508 12.6954 33.7872 12.8702 33.5772 12.9655C33.3672 13.0609 33.128 13.0691 32.912 12.9883L25.9554 10.3796C25.8485 10.3394 25.7505 10.2786 25.6671 10.2006C25.5836 10.1226 25.5164 10.0289 25.4691 9.92491C25.3738 9.71486 25.3657 9.47552 25.4468 9.25954C25.5279 9.04356 25.6914 8.86863 25.9015 8.77324C26.1115 8.67785 26.3508 8.66981 26.5668 8.75089L33.5234 11.3596C33.7392 11.4409 33.9139 11.6044 34.0093 11.8144C34.1047 12.0244 34.1128 12.2636 34.032 12.4796Z" fill="#686E7B"/>
<path d="M30.2612 31.1304C30.1699 31.199 30.0659 31.249 29.9553 31.2774C29.8446 31.3059 29.7295 31.3122 29.6164 31.296C29.5033 31.2799 29.3945 31.2416 29.2963 31.1833C29.198 31.125 29.1122 31.0479 29.0438 30.9564C28.9481 30.8324 26.5786 27.826 21.0438 27.826C15.4561 27.826 13.0674 30.9256 13.0438 30.9564C12.9054 31.1409 12.6994 31.2629 12.4711 31.2955C12.2428 31.3281 12.0109 31.2687 11.8264 31.1304C11.6419 30.992 11.5199 30.786 11.4873 30.5577C11.4547 30.3294 11.5141 30.0975 11.6525 29.913C11.7697 29.7564 14.5958 26.0869 21.0438 26.0869C27.4918 26.0869 30.3177 29.7571 30.4351 29.913C30.5038 30.0042 30.5538 30.1082 30.5823 30.2188C30.6107 30.3295 30.617 30.4447 30.6009 30.5578C30.5847 30.6709 30.5464 30.7797 30.4881 30.8779C30.4298 30.9762 30.3527 31.062 30.2612 31.1304Z" fill="#686E7B"/>
</g>
</g>
</svg>
