<svg width="42" height="40" viewBox="0 0 42 40" fill="none" xmlns="http://www.w3.org/2000/svg">
<circle cx="20.8999" cy="20" r="19.5" fill="#DFDFEF" stroke="#B8B9BC"/>
<path d="M8.76409 11.3595L15.7206 8.7508C15.8275 8.71066 15.9414 8.69197 16.0555 8.6958C16.1697 8.69964 16.282 8.72592 16.386 8.77316C16.49 8.82039 16.5837 8.88764 16.6617 8.97108C16.7397 9.05452 16.8005 9.15251 16.8407 9.25945C16.8808 9.36639 16.8995 9.48019 16.8956 9.59436C16.8918 9.70852 16.8655 9.82081 16.8183 9.92482C16.7711 10.0288 16.7038 10.1225 16.6204 10.2005C16.5369 10.2785 16.4389 10.3393 16.332 10.3795L9.37548 12.9882C9.1595 13.0693 8.92016 13.0612 8.71011 12.9658C8.50007 12.8704 8.33651 12.6955 8.25544 12.4795C8.17436 12.2636 8.1824 12.0242 8.2778 11.8142C8.37319 11.6041 8.54811 11.4406 8.76409 11.3595Z" fill="#686E7B"/>
<path d="M13.8524 14.7825C14.2824 14.7825 14.7027 14.91 15.0602 15.1489C15.4177 15.3878 15.6963 15.7273 15.8609 16.1245C16.0254 16.5218 16.0685 16.9589 15.9846 17.3806C15.9007 17.8023 15.6937 18.1896 15.3896 18.4936C15.0856 18.7977 14.6982 19.0047 14.2765 19.0886C13.8548 19.1725 13.4177 19.1294 13.0205 18.9649C12.6233 18.8003 12.2838 18.5217 12.0449 18.1642C11.806 17.8067 11.6785 17.3864 11.6785 16.9564C11.6785 16.3799 11.9076 15.8269 12.3152 15.4193C12.7229 15.0116 13.2759 14.7825 13.8524 14.7825Z" fill="#686E7B"/>
<path d="M28.635 19.1304C28.2051 19.1304 27.7848 19.0029 27.4273 18.764C27.0698 18.5251 26.7911 18.1856 26.6266 17.7884C26.4621 17.3911 26.419 16.954 26.5029 16.5323C26.5868 16.1106 26.7938 15.7233 27.0979 15.4193C27.4019 15.1152 27.7892 14.9082 28.2109 14.8243C28.6326 14.7404 29.0697 14.7835 29.467 14.948C29.8642 15.1126 30.2037 15.3912 30.4426 15.7487C30.6815 16.1062 30.809 16.5265 30.809 16.9564C30.809 17.533 30.5799 18.0859 30.1722 18.4936C29.7645 18.9013 29.2116 19.1304 28.635 19.1304Z" fill="#686E7B"/>
<path d="M34.232 12.4796C34.1507 12.6954 33.9871 12.8702 33.7771 12.9655C33.5672 13.0609 33.3279 13.0691 33.1119 12.9883L26.1554 10.3796C26.0484 10.3394 25.9505 10.2786 25.867 10.2006C25.7836 10.1226 25.7163 10.0289 25.6691 9.92491C25.5737 9.71486 25.5657 9.47552 25.6467 9.25954C25.7278 9.04356 25.8914 8.86863 26.1014 8.77324C26.3115 8.67785 26.5508 8.66981 26.7668 8.75089L33.7233 11.3596C33.9391 11.4409 34.1139 11.6044 34.2092 11.8144C34.3046 12.0244 34.3128 12.2636 34.232 12.4796Z" fill="#686E7B"/>
<path d="M30.4611 31.1304C30.3698 31.199 30.2659 31.249 30.1552 31.2774C30.0446 31.3059 29.9294 31.3122 29.8163 31.296C29.7033 31.2799 29.5945 31.2416 29.4962 31.1833C29.3979 31.125 29.3122 31.0479 29.2437 30.9564C29.1481 30.8324 26.7785 27.826 21.2437 27.826C15.6561 27.826 13.2673 30.9256 13.2437 30.9564C13.1054 31.1409 12.8994 31.2629 12.6711 31.2955C12.4428 31.3281 12.2108 31.2687 12.0263 31.1304C11.8419 30.992 11.7199 30.786 11.6873 30.5577C11.6546 30.3294 11.7141 30.0975 11.8524 29.913C11.9697 29.7564 14.7957 26.0869 21.2437 26.0869C27.6917 26.0869 30.5176 29.7571 30.635 29.913C30.7037 30.0042 30.7538 30.1082 30.7822 30.2188C30.8107 30.3295 30.817 30.4447 30.8008 30.5578C30.7847 30.6709 30.7463 30.7797 30.688 30.8779C30.6298 30.9762 30.5526 31.062 30.4611 31.1304Z" fill="#686E7B"/>
</svg>
