<svg width="41" height="40" viewBox="0 0 41 40" fill="none" xmlns="http://www.w3.org/2000/svg">
<g id="Smileys">
<circle id="Ellipse 84" cx="20.5" cy="20" r="19.5" fill="#DFDFEF" stroke="#B8B9BC"/>
<g id="Vector">
<path fill-rule="evenodd" clip-rule="evenodd" d="M28.2266 27.8262H12.5744C12.3438 27.8262 12.1226 27.7346 11.9595 27.5715C11.7964 27.4084 11.7048 27.1872 11.7048 26.9566C11.7048 26.726 11.7964 26.5048 11.9595 26.3417C12.1226 26.1787 12.3438 26.0871 12.5744 26.0871H28.2266C28.4572 26.0871 28.6784 26.1787 28.8414 26.3417C29.0045 26.5048 29.0961 26.726 29.0961 26.9566C29.0961 27.1872 29.0045 27.4084 28.8414 27.5715C28.6784 27.7346 28.4572 27.8262 28.2266 27.8262Z" fill="#686E7B"/>
<path d="M13.8787 11.3044C14.3087 11.3044 14.729 11.4319 15.0865 11.6708C15.444 11.9097 15.7226 12.2492 15.8872 12.6464C16.0517 13.0437 16.0948 13.4808 16.0109 13.9025C15.927 14.3242 15.72 14.7115 15.4159 15.0155C15.1119 15.3196 14.7246 15.5266 14.3029 15.6105C13.8812 15.6944 13.4441 15.6513 13.0468 15.4868C12.6496 15.3223 12.3101 15.0436 12.0712 14.6861C11.8323 14.3286 11.7048 13.9083 11.7048 13.4784C11.7048 12.9018 11.9339 12.3489 12.3416 11.9412C12.7492 11.5335 13.3022 11.3044 13.8787 11.3044Z" fill="#686E7B"/>
<path d="M26.9222 15.6523C26.4923 15.6523 26.072 15.5248 25.7145 15.2859C25.357 15.047 25.0783 14.7075 24.9138 14.3103C24.7493 13.913 24.7062 13.4759 24.7901 13.0542C24.874 12.6325 25.081 12.2452 25.385 11.9412C25.6891 11.6371 26.0764 11.4301 26.4981 11.3462C26.9198 11.2623 27.3569 11.3054 27.7541 11.4699C28.1514 11.6345 28.4909 11.9131 28.7298 12.2706C28.9686 12.6281 29.0961 13.0484 29.0961 13.4784C29.0961 14.0549 28.8671 14.6079 28.4594 15.0155C28.0517 15.4232 27.4988 15.6523 26.9222 15.6523Z" fill="#686E7B"/>
</g>
</g>
</svg>
