<svg width="41" height="40" viewBox="0 0 41 40" fill="none" xmlns="http://www.w3.org/2000/svg">
<g id="Smileys">
<circle id="Ellipse 84" cx="20.2998" cy="20" r="19.5" fill="#DFDFEF" stroke="#B8B9BC"/>
<g id="Vector">
<path d="M8.16399 11.3595L15.1205 8.7508C15.2275 8.71066 15.3413 8.69197 15.4554 8.6958C15.5696 8.69964 15.6819 8.72592 15.7859 8.77316C15.8899 8.82039 15.9836 8.88764 16.0616 8.97108C16.1396 9.05452 16.2004 9.15251 16.2406 9.25945C16.2807 9.36639 16.2994 9.48019 16.2955 9.59436C16.2917 9.70852 16.2654 9.82081 16.2182 9.92482C16.171 10.0288 16.1037 10.1225 16.0203 10.2005C15.9368 10.2785 15.8388 10.3393 15.7319 10.3795L8.77538 12.9882C8.55941 13.0693 8.32007 13.0612 8.11002 12.9658C7.89997 12.8704 7.73642 12.6955 7.65534 12.4795C7.57426 12.2636 7.58231 12.0242 7.6777 11.8142C7.77309 11.6041 7.94801 11.4406 8.16399 11.3595Z" fill="#686E7B"/>
<path d="M13.2523 14.7825C13.6823 14.7825 14.1026 14.91 14.4601 15.1489C14.8176 15.3878 15.0962 15.7273 15.2608 16.1245C15.4253 16.5218 15.4684 16.9589 15.3845 17.3806C15.3006 17.8023 15.0936 18.1896 14.7895 18.4936C14.4855 18.7977 14.0981 19.0047 13.6764 19.0886C13.2548 19.1725 12.8176 19.1294 12.4204 18.9649C12.0232 18.8003 11.6837 18.5217 11.4448 18.1642C11.2059 17.8067 11.0784 17.3864 11.0784 16.9564C11.0784 16.3799 11.3075 15.8269 11.7152 15.4193C12.1228 15.0116 12.6758 14.7825 13.2523 14.7825Z" fill="#686E7B"/>
<path d="M28.0349 19.1304C27.605 19.1304 27.1847 19.0029 26.8272 18.764C26.4697 18.5251 26.191 18.1856 26.0265 17.7884C25.862 17.3911 25.8189 16.954 25.9028 16.5323C25.9867 16.1106 26.1937 15.7233 26.4978 15.4193C26.8018 15.1152 27.1891 14.9082 27.6108 14.8243C28.0325 14.7404 28.4696 14.7835 28.8669 14.948C29.2641 15.1126 29.6036 15.3912 29.8425 15.7487C30.0814 16.1062 30.2089 16.5265 30.2089 16.9564C30.2089 17.533 29.9798 18.0859 29.5721 18.4936C29.1644 18.9013 28.6115 19.1304 28.0349 19.1304Z" fill="#686E7B"/>
<path d="M33.6319 12.4796C33.5506 12.6954 33.387 12.8702 33.177 12.9655C32.9671 13.0609 32.7278 13.0691 32.5118 12.9883L25.5553 10.3796C25.4483 10.3394 25.3504 10.2786 25.2669 10.2006C25.1835 10.1226 25.1162 10.0289 25.069 9.92491C24.9736 9.71486 24.9656 9.47552 25.0466 9.25954C25.1277 9.04356 25.2913 8.86863 25.5013 8.77324C25.7114 8.67785 25.9507 8.66981 26.1667 8.75089L33.1232 11.3596C33.339 11.4409 33.5138 11.6044 33.6091 11.8144C33.7045 12.0244 33.7127 12.2636 33.6319 12.4796Z" fill="#686E7B"/>
<path d="M29.861 31.1304C29.7697 31.199 29.6658 31.249 29.5551 31.2774C29.4445 31.3059 29.3293 31.3122 29.2162 31.296C29.1032 31.2799 28.9944 31.2416 28.8961 31.1833C28.7978 31.125 28.7121 31.0479 28.6436 30.9564C28.548 30.8324 26.1784 27.826 20.6436 27.826C15.056 27.826 12.6672 30.9256 12.6436 30.9564C12.5053 31.1409 12.2993 31.2629 12.071 31.2955C11.8427 31.3281 11.6108 31.2687 11.4263 31.1304C11.2418 30.992 11.1198 30.786 11.0872 30.5577C11.0546 30.3294 11.114 30.0975 11.2523 29.913C11.3696 29.7564 14.1956 26.0869 20.6436 26.0869C27.0916 26.0869 29.9176 29.7571 30.0349 29.913C30.1036 30.0042 30.1537 30.1082 30.1821 30.2188C30.2106 30.3295 30.2169 30.4447 30.2007 30.5578C30.1846 30.6709 30.1462 30.7797 30.088 30.8779C30.0297 30.9762 29.9525 31.062 29.861 31.1304Z" fill="#686E7B"/>
</g>
</g>
</svg>
