<svg width="80" height="80" viewBox="0 0 80 80" fill="none" xmlns="http://www.w3.org/2000/svg">
<rect x="0.5" y="0.5" width="79" height="79" rx="3.5" fill="#E5E5F2"/>
<path d="M28.4894 46.8928H23.5885C22.9119 46.8928 22.3633 46.3442 22.3633 45.6675V26.0644C22.3633 25.3878 22.9118 24.8392 23.5885 24.8392H28.4893C29.1659 24.8392 29.7145 25.3877 29.7145 26.0644V45.6676C29.7145 46.3442 29.1661 46.8928 28.4894 46.8928Z" fill="#686E7B"/>
<path d="M58.5465 43.6518C58.3403 45.5514 56.6466 46.8977 54.8218 46.8977H45.7092C46.4836 48.3504 46.8993 52.4593 46.8809 54.1378C46.8503 56.9161 44.654 59.1426 42.0019 59.1426H41.0374C40.3914 59.1426 39.8685 58.5949 39.8685 57.9181C39.8685 55.0865 38.8161 49.9756 36.8312 47.8961C35.4952 46.4965 34.3531 45.9894 32.8555 45.2053V26.8319C35.1483 26.0313 38.0595 24.8569 42.4968 24.8569H50.1427C52.662 24.8569 54.6241 27.3013 53.6479 29.8839C55.1352 30.3084 56.2321 31.7374 56.2321 33.4283C56.2321 33.9055 56.1442 34.3622 55.9856 34.7819C58.492 35.4973 59.4146 38.7395 57.6749 40.7752C58.3141 41.5232 58.6665 42.5464 58.5465 43.6518Z" fill="#686E7B"/>
<rect x="0.5" y="0.5" width="79" height="79" rx="3.5" stroke="#B8B9BC"/>
</svg>
