<svg width="80" height="80" viewBox="0 0 80 80" fill="none" xmlns="http://www.w3.org/2000/svg">
<rect x="0.5" y="0.5" width="79" height="79" rx="3.5" fill="#E5E5F2"/>
<path d="M28.4894 33.1072H23.5885C22.9119 33.1072 22.3633 33.6558 22.3633 34.3325V53.9356C22.3633 54.6122 22.9118 55.1608 23.5885 55.1608H28.4893C29.1659 55.1608 29.7145 54.6123 29.7145 53.9356V34.3324C29.7145 33.6558 29.1661 33.1072 28.4894 33.1072Z" fill="#686E7B"/>
<path d="M58.5465 36.3482C58.3403 34.4486 56.6466 33.1023 54.8218 33.1023H45.7092C46.4836 31.6496 46.8993 27.5407 46.8809 25.8622C46.8503 23.0839 44.654 20.8574 42.0019 20.8574H41.0374C40.3914 20.8574 39.8685 21.4051 39.8685 22.0819C39.8685 24.9135 38.8161 30.0244 36.8312 32.1039C35.4952 33.5035 34.3531 34.0106 32.8555 34.7947V53.1681C35.1483 53.9687 38.0595 55.1431 42.4968 55.1431H50.1427C52.662 55.1431 54.6241 52.6987 53.6479 50.1161C55.1352 49.6916 56.2321 48.2626 56.2321 46.5717C56.2321 46.0945 56.1442 45.6378 55.9856 45.2181C58.492 44.5027 59.4146 41.2605 57.6749 39.2248C58.3141 38.4768 58.6665 37.4536 58.5465 36.3482Z" fill="#686E7B"/>
<rect x="0.5" y="0.5" width="79" height="79" rx="3.5" stroke="#B8B9BC"/>
</svg>
