<svg width="39" height="38" viewBox="0 0 39 38" fill="none" xmlns="http://www.w3.org/2000/svg">
<rect x="0.841309" width="38.0045" height="38" rx="2.31379" fill="#424A5A"/>
<path d="M22.8344 20.5508C22.8344 21.1087 22.7031 21.5805 22.4405 21.9661C22.1821 22.3477 21.8272 22.6369 21.3759 22.8338C20.9287 23.0267 20.42 23.1231 19.8497 23.1231C19.2836 23.1231 18.7728 23.0267 18.3174 22.8338C17.8661 22.6369 17.5071 22.3477 17.2405 21.9661C16.9779 21.5805 16.8466 21.1087 16.8466 20.5508C16.8466 20.1774 16.9205 19.8389 17.0682 19.5354C17.22 19.2318 17.4292 18.9713 17.6959 18.7538C17.9625 18.5323 18.2784 18.3641 18.6436 18.2492C19.0087 18.1302 19.4066 18.0707 19.8374 18.0707C20.4118 18.0707 20.9246 18.1753 21.3759 18.3846C21.8313 18.5897 22.1882 18.8789 22.4467 19.2523C22.7051 19.6215 22.8344 20.0543 22.8344 20.5508ZM21.1974 20.4523C21.1974 20.1651 21.14 19.9169 21.0251 19.7077C20.9143 19.4943 20.7564 19.3302 20.5513 19.2154C20.3461 19.1005 20.1082 19.043 19.8374 19.043C19.5625 19.043 19.3225 19.1005 19.1174 19.2154C18.9164 19.3302 18.7584 19.4943 18.6436 19.7077C18.5328 19.9169 18.4774 20.1651 18.4774 20.4523C18.4774 20.7436 18.5328 20.9938 18.6436 21.2031C18.7584 21.4082 18.9184 21.5661 19.1236 21.6769C19.3287 21.7877 19.5707 21.8431 19.8497 21.8431C20.1287 21.8431 20.3687 21.7877 20.5697 21.6769C20.7708 21.5661 20.9246 21.4082 21.0313 21.2031C21.142 20.9938 21.1974 20.7436 21.1974 20.4523ZM22.6374 16.403C22.6374 16.8543 22.5185 17.2564 22.2805 17.6092C22.0426 17.9579 21.7123 18.2307 21.2897 18.4277C20.8713 18.6246 20.3913 18.723 19.8497 18.723C19.3082 18.723 18.8241 18.6246 18.3974 18.4277C17.9748 18.2307 17.6425 17.9579 17.4005 17.6092C17.1625 17.2564 17.0435 16.8543 17.0435 16.403C17.0435 15.8697 17.1646 15.4184 17.4066 15.0492C17.6487 14.6758 17.9789 14.3928 18.3974 14.1999C18.82 14.0071 19.3 13.9107 19.8374 13.9107C20.3831 13.9107 20.8672 14.0071 21.2897 14.1999C21.7123 14.3928 22.0426 14.6758 22.2805 15.0492C22.5185 15.4184 22.6374 15.8697 22.6374 16.403ZM21.0128 16.4707C21.0128 16.2164 20.9656 15.9948 20.8713 15.8061C20.7769 15.6133 20.6415 15.4635 20.4651 15.3569C20.2928 15.2502 20.0836 15.1969 19.8374 15.1969C19.5995 15.1969 19.3943 15.2481 19.222 15.3507C19.0497 15.4533 18.9164 15.601 18.822 15.7938C18.7277 15.9825 18.6805 16.2082 18.6805 16.4707C18.6805 16.7292 18.7277 16.9548 18.822 17.1476C18.9164 17.3405 19.0497 17.4923 19.222 17.603C19.3984 17.7097 19.6077 17.763 19.8497 17.763C20.0918 17.763 20.299 17.7097 20.4713 17.603C20.6436 17.4923 20.7769 17.3405 20.8713 17.1476C20.9656 16.9548 21.0128 16.7292 21.0128 16.4707Z" fill="#DFDFEF"/>
</svg>
