<svg width="39" height="38" viewBox="0 0 39 38" fill="none" xmlns="http://www.w3.org/2000/svg">
<rect x="1.01147" y="0.358639" width="37.2872" height="37.2827" rx="1.95515" fill="#DFDFEF"/>
<path d="M17.2858 14.0153V23H15.6551V15.9169L13.495 16.6307V15.3138L17.1012 14.0153H17.2858ZM26.2336 17.7507V19.2584C26.2336 19.9477 26.1639 20.5364 26.0244 21.0246C25.8849 21.5128 25.6839 21.9128 25.4213 22.2246C25.1587 22.5323 24.8449 22.76 24.4797 22.9077C24.1146 23.0513 23.7085 23.1231 23.2613 23.1231C22.9044 23.1231 22.572 23.0779 22.2643 22.9877C21.9567 22.8933 21.6797 22.7497 21.4336 22.5569C21.1915 22.36 20.9823 22.1097 20.8059 21.8061C20.6336 21.5026 20.5002 21.1395 20.4059 20.7169C20.3156 20.2943 20.2705 19.8082 20.2705 19.2584V17.7507C20.2705 17.0615 20.3402 16.4748 20.4797 15.9907C20.6233 15.5066 20.8264 15.1107 21.089 14.803C21.3515 14.4953 21.6654 14.2717 22.0305 14.1322C22.3956 13.9886 22.8018 13.9169 23.249 13.9169C23.61 13.9169 23.9423 13.962 24.2459 14.0522C24.5536 14.1425 24.8285 14.284 25.0705 14.4769C25.3167 14.6656 25.5259 14.9117 25.6982 15.2153C25.8705 15.5148 26.0018 15.8758 26.0921 16.2984C26.1864 16.7169 26.2336 17.201 26.2336 17.7507ZM24.609 19.48V17.523C24.609 17.1784 24.5885 16.8789 24.5474 16.6246C24.5105 16.3661 24.4551 16.1466 24.3813 15.9661C24.3074 15.7856 24.2151 15.6399 24.1044 15.5292C23.9936 15.4143 23.8664 15.3302 23.7228 15.2769C23.5792 15.2235 23.4213 15.1969 23.249 15.1969C23.0356 15.1969 22.8449 15.2399 22.6767 15.3261C22.5085 15.4081 22.3669 15.5394 22.252 15.7199C22.1372 15.9005 22.049 16.1405 21.9874 16.4399C21.93 16.7353 21.9013 17.0964 21.9013 17.523V19.48C21.9013 19.8246 21.9197 20.1261 21.9567 20.3846C21.9977 20.6431 22.0551 20.8646 22.129 21.0492C22.2069 21.2338 22.2992 21.3856 22.4059 21.5046C22.5167 21.6195 22.6438 21.7056 22.7874 21.7631C22.931 21.8164 23.089 21.8431 23.2613 21.8431C23.4787 21.8431 23.6695 21.8 23.8336 21.7138C24.0018 21.6277 24.1433 21.4923 24.2582 21.3077C24.3731 21.119 24.4592 20.8749 24.5167 20.5754C24.5782 20.2718 24.609 19.9066 24.609 19.48Z" fill="#424A5A"/>
<rect x="1.01147" y="0.358639" width="37.2872" height="37.2827" rx="1.95515" stroke="#A6A8AB" stroke-width="0.717277"/>
</svg>
