<svg width="39" height="38" viewBox="0 0 39 38" fill="none" xmlns="http://www.w3.org/2000/svg">
<rect x="1.17041" y="0.358639" width="37.2872" height="37.2827" rx="1.95515" fill="#DFDFEF"/>
<path d="M18.6386 17.8H19.5556C19.8797 17.8 20.1463 17.7446 20.3556 17.6338C20.5689 17.5189 20.7269 17.363 20.8294 17.1661C20.9361 16.9651 20.9894 16.7333 20.9894 16.4707C20.9894 16.2123 20.9422 15.9887 20.8479 15.7999C20.7535 15.6071 20.6099 15.4594 20.4171 15.3569C20.2284 15.2502 19.9863 15.1969 19.691 15.1969C19.453 15.1969 19.2335 15.244 19.0325 15.3384C18.8356 15.4328 18.6776 15.5681 18.5586 15.7446C18.4438 15.9169 18.3863 16.124 18.3863 16.3661H16.7555C16.7555 15.882 16.8827 15.4574 17.1371 15.0922C17.3956 14.723 17.7443 14.4338 18.1832 14.2245C18.6222 14.0153 19.1125 13.9107 19.654 13.9107C20.2448 13.9107 20.7617 14.0092 21.2048 14.2061C21.652 14.3989 21.9987 14.684 22.2448 15.0615C22.4951 15.4389 22.6202 15.9066 22.6202 16.4646C22.6202 16.7312 22.5566 16.9979 22.4294 17.2646C22.3064 17.5271 22.1238 17.7651 21.8817 17.9784C21.6438 18.1877 21.3505 18.3579 21.0017 18.4892C20.6571 18.6164 20.2612 18.68 19.814 18.68H18.6386V17.8ZM18.6386 19.0554V18.1877H19.814C20.3186 18.1877 20.7556 18.2471 21.1248 18.3661C21.4981 18.481 21.8058 18.6451 22.0479 18.8584C22.2899 19.0677 22.4684 19.3118 22.5833 19.5907C22.7023 19.8697 22.7617 20.1692 22.7617 20.4892C22.7617 20.9077 22.6838 21.281 22.5279 21.6092C22.372 21.9333 22.1525 22.2082 21.8694 22.4338C21.5905 22.6595 21.2622 22.8318 20.8848 22.9508C20.5074 23.0656 20.0992 23.1231 19.6602 23.1231C19.2786 23.1231 18.9074 23.0718 18.5463 22.9692C18.1894 22.8626 17.8673 22.7046 17.5802 22.4954C17.293 22.282 17.0653 22.0154 16.8971 21.6954C16.7289 21.3713 16.6448 20.9959 16.6448 20.5692H18.2756C18.2756 20.8154 18.335 21.0349 18.454 21.2277C18.5771 21.4205 18.7453 21.5723 18.9586 21.6831C19.1761 21.7897 19.4202 21.8431 19.691 21.8431C19.9904 21.8431 20.2469 21.7897 20.4602 21.6831C20.6776 21.5723 20.8438 21.4164 20.9587 21.2154C21.0735 21.0102 21.131 20.7661 21.131 20.4831C21.131 20.1466 21.0674 19.8738 20.9402 19.6646C20.813 19.4554 20.6304 19.3015 20.3925 19.203C20.1586 19.1046 19.8797 19.0554 19.5556 19.0554H18.6386Z" fill="#424A5A"/>
<rect x="1.17041" y="0.358639" width="37.2872" height="37.2827" rx="1.95515" stroke="#A6A8AB" stroke-width="0.717277"/>
</svg>
