<svg width="39" height="38" viewBox="0 0 39 38" fill="none" xmlns="http://www.w3.org/2000/svg">
<rect x="0.7644" y="0.358639" width="37.2872" height="37.2827" rx="1.95515" fill="#DFDFEF"/>
<path d="M22.5219 21.72V23H16.4542V21.9046L19.3649 18.76C19.6685 18.4153 19.9085 18.1159 20.085 17.8615C20.2614 17.6071 20.3865 17.3774 20.4603 17.1723C20.5383 16.963 20.5773 16.7641 20.5773 16.5753C20.5773 16.3005 20.528 16.0605 20.4296 15.8553C20.3311 15.6461 20.1875 15.484 19.9988 15.3692C19.8142 15.2543 19.5865 15.1969 19.3157 15.1969C19.0162 15.1969 18.7598 15.2666 18.5465 15.4061C18.3372 15.5415 18.1772 15.7302 18.0665 15.9723C17.9598 16.2143 17.9065 16.4912 17.9065 16.803H16.2757C16.2757 16.2738 16.3988 15.7917 16.6449 15.3569C16.8911 14.9179 17.2439 14.5671 17.7034 14.3045C18.1629 14.042 18.7085 13.9107 19.3403 13.9107C19.9557 13.9107 20.4768 14.0133 20.9034 14.2184C21.3301 14.4194 21.6542 14.7066 21.8757 15.0799C22.0973 15.4533 22.208 15.8984 22.208 16.4153C22.208 16.7025 22.1609 16.9856 22.0665 17.2646C21.9721 17.5435 21.8388 17.8205 21.6665 18.0953C21.4983 18.3661 21.2973 18.641 21.0634 18.92C20.8296 19.1989 20.5691 19.4841 20.2819 19.7754L18.5342 21.72H22.5219Z" fill="#424A5A"/>
<rect x="0.7644" y="0.358639" width="37.2872" height="37.2827" rx="1.95515" stroke="#A6A8AB" stroke-width="0.717277"/>
</svg>
