<svg width="39" height="38" viewBox="0 0 39 38" fill="none" xmlns="http://www.w3.org/2000/svg">
<rect x="0.605709" y="0.358639" width="37.2872" height="37.2827" rx="1.95515" fill="#DFDFEF"/>
<path d="M17.5201 21.7385H17.637C18.1662 21.7385 18.6134 21.6708 18.9786 21.5354C19.3478 21.4 19.6452 21.2092 19.8709 20.9631C20.1006 20.7128 20.2668 20.4154 20.3693 20.0707C20.476 19.722 20.5293 19.3364 20.5293 18.9138V17.2892C20.5293 16.9446 20.4945 16.643 20.4247 16.3846C20.355 16.122 20.2565 15.9025 20.1293 15.7261C20.0063 15.5497 19.8606 15.4184 19.6924 15.3322C19.5242 15.242 19.3437 15.1969 19.1509 15.1969C18.9375 15.1969 18.7488 15.2461 18.5847 15.3446C18.4206 15.443 18.2811 15.5784 18.1662 15.7507C18.0555 15.9189 17.9693 16.1138 17.9078 16.3353C17.8503 16.5569 17.8216 16.7907 17.8216 17.0369C17.8216 17.2748 17.8483 17.5025 17.9016 17.72C17.9591 17.9374 18.0432 18.1302 18.1539 18.2984C18.2688 18.4666 18.4124 18.6 18.5847 18.6984C18.757 18.7928 18.958 18.84 19.1878 18.84C19.4052 18.84 19.6022 18.7989 19.7786 18.7169C19.9591 18.6307 20.115 18.5179 20.2463 18.3784C20.3775 18.2348 20.4781 18.0769 20.5478 17.9046C20.6217 17.7282 20.6627 17.5497 20.6709 17.3692L21.2432 17.6153C21.2432 17.9148 21.1796 18.2102 21.0524 18.5015C20.9293 18.7928 20.755 19.0574 20.5293 19.2954C20.3078 19.5292 20.0493 19.7179 19.754 19.8615C19.4586 20.001 19.1406 20.0707 18.8001 20.0707C18.3775 20.0707 18.0042 19.9928 17.6801 19.8369C17.356 19.681 17.0832 19.4656 16.8616 19.1907C16.6442 18.9118 16.4801 18.5918 16.3693 18.2307C16.2585 17.8656 16.2032 17.4759 16.2032 17.0615C16.2032 16.6307 16.2708 16.2266 16.4062 15.8492C16.5416 15.4676 16.7365 15.1333 16.9909 14.8461C17.2493 14.5548 17.5611 14.3271 17.9262 14.163C18.2914 13.9948 18.7016 13.9107 19.157 13.9107C19.6288 13.9107 20.0493 14.003 20.4186 14.1876C20.7878 14.3722 21.1017 14.6287 21.3601 14.9569C21.6186 15.281 21.8155 15.6646 21.9509 16.1076C22.0904 16.5507 22.1601 17.0348 22.1601 17.56V18.1323C22.1601 18.6861 22.1047 19.2113 21.994 19.7077C21.8832 20.2041 21.7129 20.6574 21.4832 21.0677C21.2535 21.4779 20.9601 21.8328 20.6032 22.1323C20.2504 22.4318 19.8278 22.6636 19.3355 22.8277C18.8473 22.9877 18.2893 23.0677 17.6616 23.0677H17.5201V21.7385Z" fill="#424A5A"/>
<rect x="0.605709" y="0.358639" width="37.2872" height="37.2827" rx="1.95515" stroke="#A6A8AB" stroke-width="0.717277"/>
</svg>
