<svg width="39" height="38" viewBox="0 0 39 38" fill="none" xmlns="http://www.w3.org/2000/svg">
<rect x="0.982174" y="0.358639" width="37.2872" height="37.2827" rx="1.95515" fill="#DFDFEF"/>
<path d="M18.2842 18.8769L16.9858 18.563L17.4842 14.0399H22.4135V15.3876H18.8319L18.5981 17.48C18.7253 17.402 18.9099 17.3241 19.1519 17.2461C19.3981 17.1641 19.675 17.123 19.9827 17.123C20.4094 17.123 20.7909 17.1928 21.1273 17.3323C21.4638 17.4676 21.7489 17.6646 21.9827 17.923C22.2207 18.1815 22.3992 18.4974 22.5181 18.8707C22.6412 19.24 22.7027 19.6584 22.7027 20.1261C22.7027 20.5364 22.6412 20.922 22.5181 21.2831C22.3992 21.64 22.2166 21.9579 21.9704 22.2369C21.7243 22.5118 21.4145 22.7292 21.0412 22.8892C20.6679 23.0451 20.2289 23.1231 19.7243 23.1231C19.3427 23.1231 18.9755 23.0677 18.6227 22.9569C18.274 22.8421 17.9601 22.6759 17.6812 22.4585C17.4022 22.2369 17.1786 21.9661 17.0104 21.6461C16.8463 21.3261 16.756 20.959 16.7396 20.5446H18.3458C18.3745 20.8195 18.4484 21.0533 18.5673 21.2461C18.6863 21.439 18.8422 21.5867 19.035 21.6892C19.2319 21.7918 19.4596 21.8431 19.7181 21.8431C19.952 21.8431 20.153 21.8 20.3212 21.7138C20.4935 21.6236 20.635 21.4984 20.7458 21.3384C20.8566 21.1784 20.9386 20.9897 20.992 20.7723C21.0453 20.5549 21.072 20.3169 21.072 20.0584C21.072 19.8082 21.0412 19.5805 20.9797 19.3754C20.9181 19.1661 20.8238 18.9856 20.6966 18.8338C20.5694 18.682 20.4094 18.5651 20.2166 18.483C20.0279 18.401 19.8063 18.36 19.552 18.36C19.2114 18.36 18.9489 18.4112 18.7643 18.5138C18.5837 18.6164 18.4237 18.7374 18.2842 18.8769Z" fill="#424A5A"/>
<rect x="0.982174" y="0.358639" width="37.2872" height="37.2827" rx="1.95515" stroke="#A6A8AB" stroke-width="0.717277"/>
</svg>
