<svg width="39" height="38" viewBox="0 0 39 38" fill="none" xmlns="http://www.w3.org/2000/svg">
<rect x="0.387936" y="0.358639" width="37.2872" height="37.2827" rx="1.95515" fill="#DFDFEF"/>
<path d="M20.6008 13.9661H20.8223V15.2769H20.7177C20.2213 15.2769 19.7844 15.3528 19.4069 15.5046C19.0336 15.6564 18.7218 15.8697 18.4716 16.1446C18.2254 16.4153 18.0387 16.7374 17.9116 17.1107C17.7844 17.48 17.7208 17.8841 17.7208 18.323V19.7754C17.7208 20.1159 17.7557 20.4154 17.8254 20.6738C17.8992 20.9282 17.9998 21.1436 18.1269 21.32C18.2582 21.4923 18.41 21.6215 18.5823 21.7077C18.7587 21.7938 18.9516 21.8369 19.1608 21.8369C19.37 21.8369 19.5587 21.7938 19.7269 21.7077C19.8952 21.6215 20.0387 21.5005 20.1577 21.3446C20.2808 21.1846 20.3731 20.9979 20.4346 20.7846C20.5003 20.5713 20.5331 20.3374 20.5331 20.0831C20.5331 19.8328 20.5023 19.601 20.4408 19.3877C20.3793 19.1743 20.289 18.9877 20.17 18.8277C20.0511 18.6636 19.9034 18.5384 19.7269 18.4523C19.5546 18.362 19.3577 18.3169 19.1362 18.3169C18.849 18.3169 18.5926 18.3846 18.3669 18.52C18.1413 18.6512 17.9628 18.8236 17.8316 19.0369C17.7003 19.2502 17.6285 19.4759 17.6162 19.7138L17.0685 19.443C17.089 19.0943 17.1628 18.7743 17.29 18.483C17.4213 18.1918 17.5957 17.9374 17.8131 17.72C18.0346 17.5025 18.2951 17.3343 18.5946 17.2153C18.8982 17.0964 19.2346 17.0369 19.6039 17.0369C20.0305 17.0369 20.4039 17.1189 20.7239 17.283C21.0439 17.443 21.3085 17.6625 21.5177 17.9415C21.7311 18.2205 21.8911 18.5425 21.9977 18.9077C22.1044 19.2687 22.1577 19.6502 22.1577 20.0523C22.1577 20.4831 22.088 20.8851 21.9485 21.2584C21.8131 21.6318 21.6162 21.9579 21.3577 22.2369C21.0993 22.5159 20.7875 22.7333 20.4223 22.8892C20.0572 23.0451 19.6469 23.1231 19.1916 23.1231C18.7116 23.1231 18.2808 23.0328 17.8992 22.8523C17.5218 22.6718 17.1977 22.4215 16.9269 22.1015C16.6562 21.7815 16.449 21.4082 16.3054 20.9815C16.1618 20.5549 16.09 20.0933 16.09 19.5969V18.9446C16.09 18.243 16.1864 17.5907 16.3792 16.9876C16.5721 16.3846 16.8572 15.8574 17.2346 15.4061C17.6162 14.9507 18.088 14.5979 18.65 14.3476C19.2121 14.0933 19.8623 13.9661 20.6008 13.9661Z" fill="#424A5A"/>
<rect x="0.387936" y="0.358639" width="37.2872" height="37.2827" rx="1.95515" stroke="#A6A8AB" stroke-width="0.717277"/>
</svg>
