<svg xmlns="http://www.w3.org/2000/svg" viewBox="0 0 68.8 68.8"><title>gr-print</title><rect width="68.8" height="68.8" rx="5.23" ry="5.23" fill="#fff"/><rect x="3.53" y="3.31" width="61.85" height="61.85" fill="#fff"/><rect x="3.53" y="3.31" width="2.47" height="2.47"/><rect x="6" y="3.31" width="2.47" height="2.47"/><rect x="8.48" y="3.31" width="2.47" height="2.47"/><rect x="10.95" y="3.31" width="2.47" height="2.47"/><rect x="13.43" y="3.31" width="2.47" height="2.47"/><rect x="15.9" y="3.31" width="2.47" height="2.47"/><rect x="18.37" y="3.31" width="2.47" height="2.47"/><rect x="25.8" y="3.31" width="2.47" height="2.47"/><rect x="33.22" y="3.31" width="2.47" height="2.47"/><rect x="38.17" y="3.31" width="2.47" height="2.47"/><rect x="40.64" y="3.31" width="2.47" height="2.47"/><rect x="43.12" y="3.31" width="2.47" height="2.47"/><rect x="48.07" y="3.31" width="2.47" height="2.47"/><rect x="50.54" y="3.31" width="2.47" height="2.47"/><rect x="53.01" y="3.31" width="2.47" height="2.47"/><rect x="55.49" y="3.31" width="2.47" height="2.47"/><rect x="57.96" y="3.31" width="2.47" height="2.47"/><rect x="60.44" y="3.31" width="2.47" height="2.47"/><rect x="62.91" y="3.31" width="2.47" height="2.47"/><rect x="3.53" y="5.79" width="2.47" height="2.47"/><rect x="18.37" y="5.79" width="2.47" height="2.47"/><rect x="23.32" y="5.79" width="2.47" height="2.47"/><rect x="30.75" y="5.79" width="2.47" height="2.47"/><rect x="33.22" y="5.79" width="2.47" height="2.47"/><rect x="40.64" y="5.79" width="2.47" height="2.47"/><rect x="48.07" y="5.79" width="2.47" height="2.47"/><rect x="62.91" y="5.79" width="2.47" height="2.47"/><rect x="3.53" y="8.26" width="2.47" height="2.47"/><rect x="8.48" y="8.26" width="2.47" height="2.47"/><rect x="10.95" y="8.26" width="2.47" height="2.47"/><rect x="13.43" y="8.26" width="2.47" height="2.47"/><rect x="18.37" y="8.26" width="2.47" height="2.47"/><rect x="23.32" y="8.26" width="2.47" height="2.47"/><rect x="25.8" y="8.26" width="2.47" height="2.47"/><rect x="28.27" y="8.26" width="2.47" height="2.47"/><rect x="30.75" y="8.26" width="2.47" height="2.47"/><rect x="33.22" y="8.26" width="2.47" height="2.47"/><rect x="48.07" y="8.26" width="2.47" height="2.47"/><rect x="53.01" y="8.26" width="2.47" height="2.47"/><rect x="55.49" y="8.26" width="2.47" height="2.47"/><rect x="57.96" y="8.26" width="2.47" height="2.47"/><rect x="62.91" y="8.26" width="2.47" height="2.47"/><rect x="3.53" y="10.73" width="2.47" height="2.47"/><rect x="8.48" y="10.73" width="2.47" height="2.47"/><rect x="10.95" y="10.73" width="2.47" height="2.47"/><rect x="13.43" y="10.73" width="2.47" height="2.47"/><rect x="18.37" y="10.73" width="2.47" height="2.47"/><rect x="25.8" y="10.73" width="2.47" height="2.47"/><rect x="28.27" y="10.73" width="2.47" height="2.47"/><rect x="30.75" y="10.73" width="2.47" height="2.47"/><rect x="38.17" y="10.73" width="2.47" height="2.47"/><rect x="40.64" y="10.73" width="2.47" height="2.47"/><rect x="48.07" y="10.73" width="2.47" height="2.47"/><rect x="53.01" y="10.73" width="2.47" height="2.47"/><rect x="55.49" y="10.73" width="2.47" height="2.47"/><rect x="57.96" y="10.73" width="2.47" height="2.47"/><rect x="62.91" y="10.73" width="2.47" height="2.47"/><rect x="3.53" y="13.21" width="2.47" height="2.47"/><rect x="8.48" y="13.21" width="2.47" height="2.47"/><rect x="10.95" y="13.21" width="2.47" height="2.47"/><rect x="13.43" y="13.21" width="2.47" height="2.47"/><rect x="18.37" y="13.21" width="2.47" height="2.47"/><rect x="23.32" y="13.21" width="2.47" height="2.47"/><rect x="35.69" y="13.21" width="2.47" height="2.47"/><rect x="38.17" y="13.21" width="2.47" height="2.47"/><rect x="40.64" y="13.21" width="2.47" height="2.47"/><rect x="43.12" y="13.21" width="2.47" height="2.47"/><rect x="48.07" y="13.21" width="2.47" height="2.47"/><rect x="53.01" y="13.21" width="2.47" height="2.47"/><rect x="55.49" y="13.21" width="2.47" height="2.47"/><rect x="57.96" y="13.21" width="2.47" height="2.47"/><rect x="62.91" y="13.21" width="2.47" height="2.47"/><rect x="3.53" y="15.68" width="2.47" height="2.47"/><rect x="18.37" y="15.68" width="2.47" height="2.47"/><rect x="23.32" y="15.68" width="2.47" height="2.47"/><rect x="25.8" y="15.68" width="2.47" height="2.47"/><rect x="30.75" y="15.68" width="2.47" height="2.47"/><rect x="38.17" y="15.68" width="2.47" height="2.47"/><rect x="40.64" y="15.68" width="2.47" height="2.47"/><rect x="48.07" y="15.68" width="2.47" height="2.47"/><rect x="62.91" y="15.68" width="2.47" height="2.47"/><rect x="3.53" y="18.16" width="2.47" height="2.47"/><rect x="6" y="18.16" width="2.47" height="2.47"/><rect x="8.48" y="18.16" width="2.47" height="2.47"/><rect x="10.95" y="18.16" width="2.47" height="2.47"/><rect x="13.43" y="18.16" width="2.47" height="2.47"/><rect x="15.9" y="18.16" width="2.47" height="2.47"/><rect x="18.37" y="18.16" width="2.47" height="2.47"/><rect x="23.32" y="18.16" width="2.47" height="2.47"/><rect x="28.27" y="18.16" width="2.47" height="2.47"/><rect x="33.22" y="18.16" width="2.47" height="2.47"/><rect x="38.17" y="18.16" width="2.47" height="2.47"/><rect x="43.12" y="18.16" width="2.47" height="2.47"/><rect x="48.07" y="18.16" width="2.47" height="2.47"/><rect x="50.54" y="18.16" width="2.47" height="2.47"/><rect x="53.01" y="18.16" width="2.47" height="2.47"/><rect x="55.49" y="18.16" width="2.47" height="2.47"/><rect x="57.96" y="18.16" width="2.47" height="2.47"/><rect x="60.44" y="18.16" width="2.47" height="2.47"/><rect x="62.91" y="18.16" width="2.47" height="2.47"/><rect x="23.32" y="20.63" width="2.47" height="2.47"/><rect x="25.8" y="20.63" width="2.47" height="2.47"/><rect x="33.22" y="20.63" width="2.47" height="2.47"/><rect x="40.64" y="20.63" width="2.47" height="2.47"/><rect x="3.53" y="23.11" width="2.47" height="2.47"/><rect x="6" y="23.11" width="2.47" height="2.47"/><rect x="10.95" y="23.11" width="2.47" height="2.47"/><rect x="18.37" y="23.11" width="2.47" height="2.47"/><rect x="20.85" y="23.11" width="2.47" height="2.47"/><rect x="28.27" y="23.11" width="2.47" height="2.47"/><rect x="33.22" y="23.11" width="2.47" height="2.47"/><rect x="35.69" y="23.11" width="2.47" height="2.47"/><rect x="38.17" y="23.11" width="2.47" height="2.47"/><rect x="43.12" y="23.11" width="2.47" height="2.47"/><rect x="48.07" y="23.11" width="2.47" height="2.47"/><rect x="50.54" y="23.11" width="2.47" height="2.47"/><rect x="53.01" y="23.11" width="2.47" height="2.47"/><rect x="57.96" y="23.11" width="2.47" height="2.47"/><rect x="60.44" y="23.11" width="2.47" height="2.47"/><rect x="6" y="25.58" width="2.47" height="2.47"/><rect x="10.95" y="25.58" width="2.47" height="2.47"/><rect x="13.43" y="25.58" width="2.47" height="2.47"/><rect x="15.9" y="25.58" width="2.47" height="2.47"/><rect x="20.85" y="25.58" width="2.47" height="2.47"/><rect x="23.32" y="25.58" width="2.47" height="2.47"/><rect x="28.27" y="25.58" width="2.47" height="2.47"/><rect x="30.75" y="25.58" width="2.47" height="2.47"/><rect x="38.17" y="25.58" width="2.47" height="2.47"/><rect x="43.12" y="25.58" width="2.47" height="2.47"/><rect x="45.59" y="25.58" width="2.47" height="2.47"/><rect x="48.07" y="25.58" width="2.47" height="2.47"/><rect x="50.54" y="25.58" width="2.47" height="2.47"/><rect x="55.49" y="25.58" width="2.47" height="2.47"/><rect x="57.96" y="25.58" width="2.47" height="2.47"/><rect x="60.44" y="25.58" width="2.47" height="2.47"/><rect x="62.91" y="25.58" width="2.47" height="2.47"/><rect x="6" y="28.05" width="2.47" height="2.47"/><rect x="8.48" y="28.05" width="2.47" height="2.47"/><rect x="10.95" y="28.05" width="2.47" height="2.47"/><rect x="13.43" y="28.05" width="2.47" height="2.47"/><rect x="18.37" y="28.05" width="2.47" height="2.47"/><rect x="20.85" y="28.05" width="2.47" height="2.47"/><rect x="23.32" y="28.05" width="2.47" height="2.47"/><rect x="25.8" y="28.05" width="2.47" height="2.47"/><rect x="28.27" y="28.05" width="2.47" height="2.47"/><rect x="33.22" y="28.05" width="2.47" height="2.47"/><rect x="35.69" y="28.05" width="2.47" height="2.47"/><rect x="38.17" y="28.05" width="2.47" height="2.47"/><rect x="43.12" y="28.05" width="2.47" height="2.47"/><rect x="48.07" y="28.05" width="2.47" height="2.47"/><rect x="53.01" y="28.05" width="2.47" height="2.47"/><rect x="55.49" y="28.05" width="2.47" height="2.47"/><rect x="60.44" y="28.05" width="2.47" height="2.47"/><rect x="62.91" y="28.05" width="2.47" height="2.47"/><rect x="6" y="30.53" width="2.47" height="2.47"/><rect x="8.48" y="30.53" width="2.47" height="2.47"/><rect x="10.95" y="30.53" width="2.47" height="2.47"/><rect x="13.43" y="30.53" width="2.47" height="2.47"/><rect x="20.85" y="30.53" width="2.47" height="2.47"/><rect x="23.32" y="30.53" width="2.47" height="2.47"/><rect x="35.69" y="30.53" width="2.47" height="2.47"/><rect x="43.12" y="30.53" width="2.47" height="2.47"/><rect x="50.54" y="30.53" width="2.47" height="2.47"/><rect x="53.01" y="30.53" width="2.47" height="2.47"/><rect x="3.53" y="33" width="2.47" height="2.47"/><rect x="10.95" y="33" width="2.47" height="2.47"/><rect x="15.9" y="33" width="2.47" height="2.47"/><rect x="18.37" y="33" width="2.47" height="2.47"/><rect x="35.69" y="33" width="2.47" height="2.47"/><rect x="38.17" y="33" width="2.47" height="2.47"/><rect x="40.64" y="33" width="2.47" height="2.47"/><rect x="43.12" y="33" width="2.47" height="2.47"/><rect x="45.59" y="33" width="2.47" height="2.47"/><rect x="48.07" y="33" width="2.47" height="2.47"/><rect x="55.49" y="33" width="2.47" height="2.47"/><rect x="6" y="35.48" width="2.47" height="2.47"/><rect x="13.43" y="35.48" width="2.47" height="2.47"/><rect x="15.9" y="35.48" width="2.47" height="2.47"/><rect x="20.85" y="35.48" width="2.47" height="2.47"/><rect x="23.32" y="35.48" width="2.47" height="2.47"/><rect x="28.27" y="35.48" width="2.47" height="2.47"/><rect x="30.75" y="35.48" width="2.47" height="2.47"/><rect x="33.22" y="35.48" width="2.47" height="2.47"/><rect x="50.54" y="35.48" width="2.47" height="2.47"/><rect x="55.49" y="35.48" width="2.47" height="2.47"/><rect x="57.96" y="35.48" width="2.47" height="2.47"/><rect x="60.44" y="35.48" width="2.47" height="2.47"/><rect x="62.91" y="35.48" width="2.47" height="2.47"/><rect x="3.53" y="37.95" width="2.47" height="2.47"/><rect x="8.48" y="37.95" width="2.47" height="2.47"/><rect x="15.9" y="37.95" width="2.47" height="2.47"/><rect x="18.37" y="37.95" width="2.47" height="2.47"/><rect x="20.85" y="37.95" width="2.47" height="2.47"/><rect x="23.32" y="37.95" width="2.47" height="2.47"/><rect x="25.8" y="37.95" width="2.47" height="2.47"/><rect x="28.27" y="37.95" width="2.47" height="2.47"/><rect x="45.59" y="37.95" width="2.47" height="2.47"/><rect x="48.07" y="37.95" width="2.47" height="2.47"/><rect x="55.49" y="37.95" width="2.47" height="2.47"/><rect x="62.91" y="37.95" width="2.47" height="2.47"/><rect x="6" y="40.42" width="2.47" height="2.47"/><rect x="13.43" y="40.42" width="2.47" height="2.47"/><rect x="15.9" y="40.42" width="2.47" height="2.47"/><rect x="20.85" y="40.42" width="2.47" height="2.47"/><rect x="23.32" y="40.42" width="2.47" height="2.47"/><rect x="25.8" y="40.42" width="2.47" height="2.47"/><rect x="28.27" y="40.42" width="2.47" height="2.47"/><rect x="30.75" y="40.42" width="2.47" height="2.47"/><rect x="33.22" y="40.42" width="2.47" height="2.47"/><rect x="35.69" y="40.42" width="2.47" height="2.47"/><rect x="50.54" y="40.42" width="2.47" height="2.47"/><rect x="55.49" y="40.42" width="2.47" height="2.47"/><rect x="60.44" y="40.42" width="2.47" height="2.47"/><rect x="3.53" y="42.9" width="2.47" height="2.47"/><rect x="6" y="42.9" width="2.47" height="2.47"/><rect x="15.9" y="42.9" width="2.47" height="2.47"/><rect x="18.37" y="42.9" width="2.47" height="2.47"/><rect x="23.32" y="42.9" width="2.47" height="2.47"/><rect x="30.75" y="42.9" width="2.47" height="2.47"/><rect x="38.17" y="42.9" width="2.47" height="2.47"/><rect x="43.12" y="42.9" width="2.47" height="2.47"/><rect x="45.59" y="42.9" width="2.47" height="2.47"/><rect x="48.07" y="42.9" width="2.47" height="2.47"/><rect x="50.54" y="42.9" width="2.47" height="2.47"/><rect x="53.01" y="42.9" width="2.47" height="2.47"/><rect x="57.96" y="42.9" width="2.47" height="2.47"/><rect x="60.44" y="42.9" width="2.47" height="2.47"/><rect x="62.91" y="42.9" width="2.47" height="2.47"/><rect x="23.32" y="45.37" width="2.47" height="2.47"/><rect x="25.8" y="45.37" width="2.47" height="2.47"/><rect x="28.27" y="45.37" width="2.47" height="2.47"/><rect x="40.64" y="45.37" width="2.47" height="2.47"/><rect x="43.12" y="45.37" width="2.47" height="2.47"/><rect x="53.01" y="45.37" width="2.47" height="2.47"/><rect x="55.49" y="45.37" width="2.47" height="2.47"/><rect x="60.44" y="45.37" width="2.47" height="2.47"/><rect x="3.53" y="47.85" width="2.47" height="2.47"/><rect x="6" y="47.85" width="2.47" height="2.47"/><rect x="8.48" y="47.85" width="2.47" height="2.47"/><rect x="10.95" y="47.85" width="2.47" height="2.47"/><rect x="13.43" y="47.85" width="2.47" height="2.47"/><rect x="15.9" y="47.85" width="2.47" height="2.47"/><rect x="18.37" y="47.85" width="2.47" height="2.47"/><rect x="23.32" y="47.85" width="2.47" height="2.47"/><rect x="35.69" y="47.85" width="2.47" height="2.47"/><rect x="43.12" y="47.85" width="2.47" height="2.47"/><rect x="48.07" y="47.85" width="2.47" height="2.47"/><rect x="53.01" y="47.85" width="2.47" height="2.47"/><rect x="57.96" y="47.85" width="2.47" height="2.47"/><rect x="60.44" y="47.85" width="2.47" height="2.47"/><rect x="62.91" y="47.85" width="2.47" height="2.47"/><rect x="3.53" y="50.32" width="2.47" height="2.47"/><rect x="18.37" y="50.32" width="2.47" height="2.47"/><rect x="25.8" y="50.32" width="2.47" height="2.47"/><rect x="28.27" y="50.32" width="2.47" height="2.47"/><rect x="30.75" y="50.32" width="2.47" height="2.47"/><rect x="33.22" y="50.32" width="2.47" height="2.47"/><rect x="43.12" y="50.32" width="2.47" height="2.47"/><rect x="53.01" y="50.32" width="2.47" height="2.47"/><rect x="57.96" y="50.32" width="2.47" height="2.47"/><rect x="60.44" y="50.32" width="2.47" height="2.47"/><rect x="3.53" y="52.8" width="2.47" height="2.47"/><rect x="8.48" y="52.8" width="2.47" height="2.47"/><rect x="10.95" y="52.8" width="2.47" height="2.47"/><rect x="13.43" y="52.8" width="2.47" height="2.47"/><rect x="18.37" y="52.8" width="2.47" height="2.47"/><rect x="25.8" y="52.8" width="2.47" height="2.47"/><rect x="28.27" y="52.8" width="2.47" height="2.47"/><rect x="35.69" y="52.8" width="2.47" height="2.47"/><rect x="38.17" y="52.8" width="2.47" height="2.47"/><rect x="43.12" y="52.8" width="2.47" height="2.47"/><rect x="45.59" y="52.8" width="2.47" height="2.47"/><rect x="48.07" y="52.8" width="2.47" height="2.47"/><rect x="50.54" y="52.8" width="2.47" height="2.47"/><rect x="53.01" y="52.8" width="2.47" height="2.47"/><rect x="62.91" y="52.8" width="2.47" height="2.47"/><rect x="3.53" y="55.27" width="2.47" height="2.47"/><rect x="8.48" y="55.27" width="2.47" height="2.47"/><rect x="10.95" y="55.27" width="2.47" height="2.47"/><rect x="13.43" y="55.27" width="2.47" height="2.47"/><rect x="18.37" y="55.27" width="2.47" height="2.47"/><rect x="23.32" y="55.27" width="2.47" height="2.47"/><rect x="25.8" y="55.27" width="2.47" height="2.47"/><rect x="28.27" y="55.27" width="2.47" height="2.47"/><rect x="30.75" y="55.27" width="2.47" height="2.47"/><rect x="33.22" y="55.27" width="2.47" height="2.47"/><rect x="35.69" y="55.27" width="2.47" height="2.47"/><rect x="38.17" y="55.27" width="2.47" height="2.47"/><rect x="40.64" y="55.27" width="2.47" height="2.47"/><rect x="50.54" y="55.27" width="2.47" height="2.47"/><rect x="53.01" y="55.27" width="2.47" height="2.47"/><rect x="55.49" y="55.27" width="2.47" height="2.47"/><rect x="57.96" y="55.27" width="2.47" height="2.47"/><rect x="3.53" y="57.74" width="2.47" height="2.47"/><rect x="8.48" y="57.74" width="2.47" height="2.47"/><rect x="10.95" y="57.74" width="2.47" height="2.47"/><rect x="13.43" y="57.74" width="2.47" height="2.47"/><rect x="18.37" y="57.74" width="2.47" height="2.47"/><rect x="28.27" y="57.74" width="2.47" height="2.47"/><rect x="33.22" y="57.74" width="2.47" height="2.47"/><rect x="35.69" y="57.74" width="2.47" height="2.47"/><rect x="38.17" y="57.74" width="2.47" height="2.47"/><rect x="45.59" y="57.74" width="2.47" height="2.47"/><rect x="48.07" y="57.74" width="2.47" height="2.47"/><rect x="50.54" y="57.74" width="2.47" height="2.47"/><rect x="53.01" y="57.74" width="2.47" height="2.47"/><rect x="55.49" y="57.74" width="2.47" height="2.47"/><rect x="62.91" y="57.74" width="2.47" height="2.47"/><rect x="3.53" y="60.22" width="2.47" height="2.47"/><rect x="18.37" y="60.22" width="2.47" height="2.47"/><rect x="23.32" y="60.22" width="2.47" height="2.47"/><rect x="25.8" y="60.22" width="2.47" height="2.47"/><rect x="35.69" y="60.22" width="2.47" height="2.47"/><rect x="40.64" y="60.22" width="2.47" height="2.47"/><rect x="43.12" y="60.22" width="2.47" height="2.47"/><rect x="3.53" y="62.69" width="2.47" height="2.47"/><rect x="6" y="62.69" width="2.47" height="2.47"/><rect x="8.48" y="62.69" width="2.47" height="2.47"/><rect x="10.95" y="62.69" width="2.47" height="2.47"/><rect x="13.43" y="62.69" width="2.47" height="2.47"/><rect x="15.9" y="62.69" width="2.47" height="2.47"/><rect x="18.37" y="62.69" width="2.47" height="2.47"/><rect x="23.32" y="62.69" width="2.47" height="2.47"/><rect x="43.12" y="62.69" width="2.47" height="2.47"/><rect x="53.01" y="62.69" width="2.47" height="2.47"/><rect x="55.49" y="62.69" width="2.47" height="2.47"/><rect x="60.44" y="62.69" width="2.47" height="2.47"/><rect x="62.91" y="62.69" width="2.47" height="2.47"/></svg>