<svg width="132" height="132" viewBox="0 0 132 132" fill="none" xmlns="http://www.w3.org/2000/svg">
<g clip-path="url(#clip0_2499_193081)">
<ellipse cx="65.9999" cy="65.4761" rx="57.619" ry="57.0953" fill="#EFF1F3"/>
<path d="M125.179 65.4653C127.208 73.2992 131.378 81.8822 130.995 88.808C130.437 98.7152 126.143 102.985 126.143 102.985C126.143 102.985 112.246 86.4051 81.8036 94.7329C81.7166 94.738 81.6295 94.743 81.5424 94.7481C81.2812 94.7633 81.0251 94.8657 80.7689 94.968C78.8788 95.515 76.9066 96.1543 74.8524 96.8857C74.4272 97.0852 73.9098 97.2027 73.4846 97.4023C73.2234 97.4175 73.0594 97.6018 72.8033 97.7042C72.2039 97.9138 71.5226 98.2157 70.9283 98.5125L53.3149 40.6407C53.3149 40.6407 66.8437 35.92 83.1522 33.921C94.1697 32.58 106.4 32.5664 116.729 35.8969C116.729 35.8969 126.934 40.1085 124.268 55.8186C123.887 58.2875 124.132 60.9823 124.735 63.8309C124.765 64.3534 124.97 64.8658 125.087 65.3833L125.179 65.4653Z" fill="#375E50"/>
<path d="M130.993 88.8105C130.434 98.7169 126.14 102.987 126.14 102.987C126.14 102.987 112.243 86.4077 81.7983 94.7348C81.7112 94.7399 81.6241 94.745 81.5371 94.7501C81.2758 94.7653 81.0197 94.8676 80.7635 94.9699C78.8732 95.5169 76.901 96.1561 74.8467 96.8874C74.4214 97.087 73.9041 97.2045 73.4788 97.404C73.2176 97.4192 73.0536 97.6035 72.7974 97.7059C72.1981 97.9155 71.5167 98.2174 70.9224 98.5141L60.8652 65.3717C68.1237 63.9876 79.5467 62.0988 91.5632 61.3987C101.316 60.8305 116.368 62.7497 125.258 65.3774C127.288 73.2107 131.457 81.7931 131.075 88.7183L130.993 88.8105Z" fill="#4C7C64"/>
<path d="M93.0294 82.0197C93.0294 82.0197 76.8839 85.3198 70.8383 98.5176C70.8383 98.5176 60.3646 88.2048 63.7109 75.1644C64.5629 71.7941 77.832 74.6037 77.832 74.6037L93.0294 82.0197Z" fill="#29473C"/>
<path d="M74.6367 21.3L93.0272 82.0099C93.0272 82.0099 77.9061 75.9002 28.1388 94.4421L7.37596 26.0057C7.37596 26.0057 61.0911 9.24363 74.6418 21.3871L74.6367 21.3Z" fill="#375E50"/>
<path d="M83.2954 49.9876L93.0254 82.0126C93.0254 82.0126 77.9034 75.9034 28.1333 94.4435L17.9636 60.8713C30.4332 55.9507 60.0795 45.9227 83.2954 49.9876Z" fill="#4C7C64"/>
<mask id="mask0_2499_193081" style="mask-type:alpha" maskUnits="userSpaceOnUse" x="-3" y="2" width="127" height="121">
<path d="M123.626 65.4762C123.626 97.009 97.9079 122.571 66.1828 122.571C34.4578 122.571 8.73965 97.009 8.73965 65.4762C8.73965 59.3036 9.72512 53.3599 11.5482 47.7918C12.7047 44.2597 -4.61571 16.8636 -2.82282 13.6714C-0.444225 9.43633 -1.73615 -7.31292 14.1435 10.3714C24.6044 -0.524371 49.8339 8.38094 66.1828 8.38094C97.9079 8.38094 123.626 33.9434 123.626 65.4762Z" fill="#EFF1F3"/>
</mask>
<g mask="url(#mask0_2499_193081)">
<path d="M8.25953 12.7846C7.71783 10.9807 5.73616 9.9596 3.93268 10.5014C2.12919 11.0432 1.10336 12.9381 1.65012 14.8291C1.98729 16.1205 3.08292 16.9309 4.23527 17.2135L52.4427 176.188L55.6193 175.217L7.41188 16.2424C8.23718 15.4078 8.5967 14.0759 8.26459 12.8717L8.25953 12.7846Z" fill="#DAB272"/>
</g>
</g>
<defs>
<clipPath id="clip0_2499_193081">
<rect width="132" height="132" fill="white"/>
</clipPath>
</defs>
</svg>
