<svg width="124" height="83" viewBox="0 0 124 83" fill="none" xmlns="http://www.w3.org/2000/svg">
<g clip-path="url(#clip0_4474_34732)">
<rect width="124" height="83" fill="white"/>
<g clip-path="url(#clip1_4474_34732)">
<rect x="1.17188" y="3.22705" width="101.894" height="76.7211" rx="5.0161" fill="#F7F7F8" stroke="#ECECEE"/>
<rect x="0.671875" y="2.72705" width="102.894" height="12.9535" fill="#D45F4B"/>
<ellipse cx="8.53654" cy="9.55813" rx="1.80217" ry="1.86281" fill="white"/>
<ellipse cx="15.7397" cy="9.55813" rx="1.80217" ry="1.86281" fill="white"/>
<ellipse cx="22.9506" cy="9.55813" rx="1.80217" ry="1.86281" fill="white"/>
<rect x="7.41406" y="31.2937" width="23.882" height="4.11758" rx="2" fill="#436EAD"/>
<rect x="7.41406" y="41.9993" width="9.05869" height="2.47055" rx="1.23528" fill="#E8E8EB"/>
<rect x="7.41406" y="51.8816" width="14.8233" height="2.47055" rx="1.23528" fill="#D9D9D9"/>
<rect x="7.41406" y="61.7637" width="14.8233" height="2.47055" rx="1.23528" fill="#E8E8EB"/>
</g>
<g filter="url(#filter0_d_4474_34732)">
<rect x="42.8203" y="19.7644" width="65.0578" height="52.705" rx="5" fill="white"/>
</g>
<rect x="54.3984" y="47.4346" width="9.02339" height="17.3526" rx="0.842857" fill="#E0B166"/>
<rect x="71.0547" y="36.3289" width="9.02339" height="28.4584" rx="0.842857" fill="#2F9064"/>
<rect x="87.7188" y="41.1877" width="9.02339" height="23.5996" rx="0.842857" fill="#E0B166"/>
<path d="M57.5845 36.1104C57.2722 36.2666 57.1456 36.6463 57.3018 36.9585C57.4579 37.2708 57.8376 37.3974 58.1499 37.2412L57.5845 36.1104ZM96.6563 28.1528C96.741 27.8141 96.535 27.4709 96.1963 27.3862L90.6769 26.0064C90.3382 25.9217 89.995 26.1276 89.9103 26.4663C89.8257 26.805 90.0316 27.1482 90.3703 27.2329L95.2764 28.4595L94.0499 33.3656C93.9652 33.7043 94.1712 34.0475 94.5099 34.1322C94.8486 34.2169 95.1918 34.0109 95.2764 33.6722L96.6563 28.1528ZM83.4632 32.9455L83.138 33.4876L83.4632 32.9455ZM73.1507 29.0341L72.868 28.4687L73.1507 29.0341ZM77.2036 29.1898L76.8783 29.7318L77.2036 29.1898ZM58.1499 37.2412L73.4334 29.5995L72.868 28.4687L57.5845 36.1104L58.1499 37.2412ZM76.8783 29.7318L83.138 33.4876L83.7884 32.4035L77.5288 28.6477L76.8783 29.7318ZM88.1249 33.4876L96.3683 28.5416L95.7178 27.4575L87.4744 32.4035L88.1249 33.4876ZM83.138 33.4876C84.6728 34.4085 86.5901 34.4085 88.1249 33.4876L87.4744 32.4035C86.34 33.0841 84.9228 33.0841 83.7884 32.4035L83.138 33.4876ZM73.4334 29.5995C74.5288 29.0518 75.8281 29.1017 76.8783 29.7318L77.5288 28.6477C76.108 27.7952 74.35 27.7277 72.868 28.4687L73.4334 29.5995Z" fill="#2F9064"/>
<rect x="50.2344" y="64.093" width="50.2345" height="1.38821" rx="0.694107" fill="#D45F4B"/>
</g>
<defs>
<filter id="filter0_d_4474_34732" x="34.8203" y="15.7644" width="81.0586" height="68.7051" filterUnits="userSpaceOnUse" color-interpolation-filters="sRGB">
<feFlood flood-opacity="0" result="BackgroundImageFix"/>
<feColorMatrix in="SourceAlpha" type="matrix" values="0 0 0 0 0 0 0 0 0 0 0 0 0 0 0 0 0 0 127 0" result="hardAlpha"/>
<feOffset dy="4"/>
<feGaussianBlur stdDeviation="4"/>
<feComposite in2="hardAlpha" operator="out"/>
<feColorMatrix type="matrix" values="0 0 0 0 0.789167 0 0 0 0 0.810833 0 0 0 0 0.80914 0 0 0 0.6 0"/>
<feBlend mode="normal" in2="BackgroundImageFix" result="effect1_dropShadow_4474_34732"/>
<feBlend mode="normal" in="SourceGraphic" in2="effect1_dropShadow_4474_34732" result="shape"/>
</filter>
<clipPath id="clip0_4474_34732">
<rect width="124" height="83" fill="white"/>
</clipPath>
<clipPath id="clip1_4474_34732">
<rect x="0.671875" y="2.72705" width="102.894" height="77.7211" rx="5" fill="white"/>
</clipPath>
</defs>
</svg>
