<svg width="124" height="83" viewBox="0 0 124 83" fill="none" xmlns="http://www.w3.org/2000/svg">
<g clip-path="url(#clip0_4474_22759)">
<rect width="124" height="83" fill="white"/>
<g clip-path="url(#clip1_4474_22759)">
<rect x="0.5" y="3.22705" width="101.894" height="76.7211" rx="5.0161" fill="#F7F7F8" stroke="#ECECEE"/>
<rect y="2.72705" width="102.894" height="12.9535" fill="#2F9064"/>
<ellipse cx="7.86467" cy="9.55813" rx="1.80217" ry="1.86281" fill="white"/>
<ellipse cx="15.0678" cy="9.55813" rx="1.80217" ry="1.86281" fill="white"/>
<ellipse cx="22.2787" cy="9.55813" rx="1.80217" ry="1.86281" fill="white"/>
<rect opacity="0.4" x="7.5625" y="22.2349" width="26.3525" height="19.7644" rx="3" fill="#D1D1D7"/>
<rect opacity="0.3" x="7.5625" y="46.1169" width="26.3525" height="19.7644" rx="3" fill="#D1D1D7"/>
<rect opacity="0.3" x="7.5625" y="69.999" width="26.3525" height="19.7644" rx="3" fill="#D1D1D7"/>
<path d="M26.3501 73.2932H14.8209C13.9068 73.2932 13.1738 74.0344 13.1738 74.9402V84.8225C13.1738 85.7283 13.9068 86.4695 14.8209 86.4695H26.3501C27.256 86.4695 27.9971 85.7283 27.9971 84.8225V74.9402C27.9971 74.0344 27.2642 73.2932 26.3501 73.2932ZM26.3501 84.8225H14.8209V76.5873H26.3501V84.8225Z" fill="#D1D1D6"/>
<rect opacity="0.6" x="38.0391" y="22.2349" width="26.3525" height="19.7644" rx="3" fill="#D1D1D7"/>
<rect opacity="0.4" x="38.0391" y="46.1169" width="26.3525" height="19.7644" rx="3" fill="#D1D1D7"/>
<g opacity="0.9">
<path d="M51.042 53.1548L52.0803 52.1166C52.5199 51.7159 53.097 51.5 53.6916 51.5138C54.2862 51.5276 54.8527 51.7699 55.2733 52.1905C55.6938 52.611 55.9362 53.1775 55.9499 53.7721C55.9637 54.3667 55.7478 54.9437 55.3472 55.3833L53.8632 56.862C53.6493 57.0767 53.3952 57.247 53.1153 57.3632C52.8355 57.4795 52.5354 57.5393 52.2324 57.5393C51.9293 57.5393 51.6293 57.4795 51.3494 57.3632C51.0696 57.247 50.8154 57.0767 50.6016 56.862" stroke="#BBBBC9" stroke-width="1.3402" stroke-linecap="round" stroke-linejoin="round"/>
<path d="M51.6351 59.0905L50.5968 60.1288C50.1572 60.5294 49.5802 60.7453 48.9855 60.7315C48.3909 60.7178 47.8245 60.4754 47.4039 60.0549C46.9833 59.6343 46.7409 59.0679 46.7272 58.4732C46.7134 57.8786 46.9293 57.3016 47.33 56.862L48.8139 55.3833C49.0278 55.1687 49.282 54.9983 49.5618 54.8821C49.8417 54.7659 50.1417 54.7061 50.4448 54.7061C50.7478 54.7061 51.0478 54.7659 51.3277 54.8821C51.6075 54.9983 51.8617 55.1687 52.0756 55.3833" stroke="#BBBBC9" stroke-width="1.3402" stroke-linecap="round" stroke-linejoin="round"/>
</g>
<rect opacity="0.4" x="38.0391" y="69.999" width="26.3525" height="19.7644" rx="3" fill="#D1D1D7"/>
<rect opacity="0.4" x="67.6797" y="22.2349" width="26.3525" height="19.7644" rx="3" fill="#D1D1D7"/>
<g clip-path="url(#clip2_4474_22759)">
<path d="M14.9766 37.4207L14.9766 37.8818L15.4377 37.8818L15.4377 37.4207L14.9766 37.4207Z" fill="#BBBBC9"/>
<path d="M14.9766 36.9595L14.9766 37.4207L15.4377 37.4207L15.4377 36.9595L14.9766 36.9595Z" fill="#BBBBC9"/>
<path d="M14.9766 36.4983L14.9766 36.9595L15.4377 36.9595L15.4377 36.4983L14.9766 36.4983Z" fill="#BBBBC9"/>
<path d="M14.9766 36.0371L14.9766 36.4983L15.4377 36.4983L15.4377 36.0371L14.9766 36.0371Z" fill="#BBBBC9"/>
<path d="M14.9766 35.5759L14.9766 36.0371L15.4377 36.0371L15.4377 35.5759L14.9766 35.5759Z" fill="#BBBBC9"/>
<path d="M14.9766 35.1148L14.9766 35.5759L15.4377 35.5759L15.4377 35.1148L14.9766 35.1148Z" fill="#BBBBC9"/>
<path d="M14.9766 34.6536L14.9766 35.1147L15.4377 35.1147L15.4377 34.6536L14.9766 34.6536Z" fill="#BBBBC9"/>
<path d="M14.9766 33.7312L14.9766 34.1924L15.4377 34.1924L15.4377 33.7312L14.9766 33.7312Z" fill="#BBBBC9"/>
<path d="M14.9766 33.27L14.9766 33.7312L15.4377 33.7312L15.4377 33.27L14.9766 33.27Z" fill="#BBBBC9"/>
<path d="M14.9766 30.0418L14.9766 30.5029L15.4377 30.5029L15.4377 30.0418L14.9766 30.0418Z" fill="#BBBBC9"/>
<path d="M14.9766 29.1196L14.9766 29.5808L15.4377 29.5808L15.4377 29.1196L14.9766 29.1196Z" fill="#BBBBC9"/>
<path d="M14.9766 28.6582L14.9766 29.1194L15.4377 29.1194L15.4377 28.6582L14.9766 28.6582Z" fill="#BBBBC9"/>
<path d="M14.9766 28.1973L14.9766 28.6584L15.4377 28.6584L15.4377 28.1973L14.9766 28.1973Z" fill="#BBBBC9"/>
<path d="M14.9766 27.7361L14.9766 28.1973L15.4377 28.1973L15.4377 27.7361L14.9766 27.7361Z" fill="#BBBBC9"/>
<path d="M14.9766 27.2749L14.9766 27.7361L15.4377 27.7361L15.4377 27.2749L14.9766 27.2749Z" fill="#BBBBC9"/>
<path d="M14.9766 26.8137L14.9766 27.2749L15.4377 27.2749L15.4377 26.8137L14.9766 26.8137Z" fill="#BBBBC9"/>
<path d="M14.9766 26.3526L14.9766 26.8137L15.4377 26.8137L15.4377 26.3526L14.9766 26.3526Z" fill="#BBBBC9"/>
<path d="M15.4375 37.4207L15.4375 37.8818L15.8987 37.8818L15.8987 37.4207L15.4375 37.4207Z" fill="#BBBBC9"/>
<path d="M15.4375 34.6538L15.4375 35.115L15.8987 35.115L15.8987 34.6538L15.4375 34.6538Z" fill="#BBBBC9"/>
<path d="M15.4375 31.4256L15.4375 31.8867L15.8987 31.8867L15.8987 31.4256L15.4375 31.4256Z" fill="#BBBBC9"/>
<path d="M15.4375 30.042L15.4375 30.5032L15.8987 30.5032L15.8987 30.042L15.4375 30.042Z" fill="#BBBBC9"/>
<path d="M15.4375 29.1196L15.4375 29.5808L15.8987 29.5808L15.8987 29.1196L15.4375 29.1196Z" fill="#BBBBC9"/>
<path d="M15.4375 26.3526L15.4375 26.8137L15.8987 26.8137L15.8987 26.3526L15.4375 26.3526Z" fill="#BBBBC9"/>
<path d="M15.8984 37.4207L15.8984 37.8818L16.3596 37.8818L16.3596 37.4207L15.8984 37.4207Z" fill="#BBBBC9"/>
<path d="M15.8984 36.4983L15.8984 36.9595L16.3596 36.9595L16.3596 36.4983L15.8984 36.4983Z" fill="#BBBBC9"/>
<path d="M15.8984 36.0371L15.8984 36.4983L16.3596 36.4983L16.3596 36.0371L15.8984 36.0371Z" fill="#BBBBC9"/>
<path d="M15.8984 35.5759L15.8984 36.0371L16.3596 36.0371L16.3596 35.5759L15.8984 35.5759Z" fill="#BBBBC9"/>
<path d="M15.8984 34.6538L15.8984 35.115L16.3596 35.115L16.3596 34.6538L15.8984 34.6538Z" fill="#BBBBC9"/>
<path d="M15.8984 33.7315L15.8984 34.1926L16.3596 34.1926L16.3596 33.7315L15.8984 33.7315Z" fill="#BBBBC9"/>
<path d="M15.8984 32.3479L15.8984 32.8091L16.3596 32.8091L16.3596 32.3479L15.8984 32.3479Z" fill="#BBBBC9"/>
<path d="M15.8984 31.8865L15.8984 32.3477L16.3596 32.3477L16.3596 31.8865L15.8984 31.8865Z" fill="#BBBBC9"/>
<path d="M15.8984 31.4256L15.8984 31.8867L16.3596 31.8867L16.3596 31.4256L15.8984 31.4256Z" fill="#BBBBC9"/>
<path d="M15.8984 30.5032L15.8984 30.9644L16.3596 30.9644L16.3596 30.5032L15.8984 30.5032Z" fill="#BBBBC9"/>
<path d="M15.8984 29.1196L15.8984 29.5808L16.3596 29.5808L16.3596 29.1196L15.8984 29.1196Z" fill="#BBBBC9"/>
<path d="M15.8984 28.1973L15.8984 28.6584L16.3596 28.6584L16.3596 28.1973L15.8984 28.1973Z" fill="#BBBBC9"/>
<path d="M15.8984 27.7361L15.8984 28.1973L16.3596 28.1973L16.3596 27.7361L15.8984 27.7361Z" fill="#BBBBC9"/>
<path d="M15.8984 27.2749L15.8984 27.7361L16.3596 27.7361L16.3596 27.2749L15.8984 27.2749Z" fill="#BBBBC9"/>
<path d="M15.8984 26.3526L15.8984 26.8137L16.3596 26.8137L16.3596 26.3526L15.8984 26.3526Z" fill="#BBBBC9"/>
<path d="M16.3594 37.4207L16.3594 37.8818L16.8205 37.8818L16.8205 37.4207L16.3594 37.4207Z" fill="#BBBBC9"/>
<path d="M16.3594 36.4983L16.3594 36.9595L16.8205 36.9595L16.8205 36.4983L16.3594 36.4983Z" fill="#BBBBC9"/>
<path d="M16.3594 36.0371L16.3594 36.4983L16.8205 36.4983L16.8205 36.0371L16.3594 36.0371Z" fill="#BBBBC9"/>
<path d="M16.3594 35.5759L16.3594 36.0371L16.8205 36.0371L16.8205 35.5759L16.3594 35.5759Z" fill="#BBBBC9"/>
<path d="M16.3594 34.6538L16.3594 35.115L16.8205 35.115L16.8205 34.6538L16.3594 34.6538Z" fill="#BBBBC9"/>
<path d="M16.3594 33.7315L16.3594 34.1926L16.8205 34.1926L16.8205 33.7315L16.3594 33.7315Z" fill="#BBBBC9"/>
<path d="M16.3594 33.27L16.3594 33.7312L16.8205 33.7312L16.8205 33.27L16.3594 33.27Z" fill="#BBBBC9"/>
<path d="M16.3594 32.3479L16.3594 32.8091L16.8205 32.8091L16.8205 32.3479L16.3594 32.3479Z" fill="#BBBBC9"/>
<path d="M16.3594 31.4256L16.3594 31.8867L16.8205 31.8867L16.8205 31.4256L16.3594 31.4256Z" fill="#BBBBC9"/>
<path d="M16.3594 30.9641L16.3594 31.4253L16.8205 31.4253L16.8205 30.9641L16.3594 30.9641Z" fill="#BBBBC9"/>
<path d="M16.3594 29.1196L16.3594 29.5808L16.8205 29.5808L16.8205 29.1196L16.3594 29.1196Z" fill="#BBBBC9"/>
<path d="M16.3594 28.1973L16.3594 28.6584L16.8205 28.6584L16.8205 28.1973L16.3594 28.1973Z" fill="#BBBBC9"/>
<path d="M16.3594 27.7361L16.3594 28.1973L16.8205 28.1973L16.8205 27.7361L16.3594 27.7361Z" fill="#BBBBC9"/>
<path d="M16.3594 27.2749L16.3594 27.7361L16.8205 27.7361L16.8205 27.2749L16.3594 27.2749Z" fill="#BBBBC9"/>
<path d="M16.3594 26.3526L16.3594 26.8137L16.8205 26.8137L16.8205 26.3526L16.3594 26.3526Z" fill="#BBBBC9"/>
<path d="M16.8203 37.4207L16.8203 37.8818L17.2815 37.8818L17.2815 37.4207L16.8203 37.4207Z" fill="#BBBBC9"/>
<path d="M16.8203 36.4983L16.8203 36.9595L17.2815 36.9595L17.2815 36.4983L16.8203 36.4983Z" fill="#BBBBC9"/>
<path d="M16.8203 36.0371L16.8203 36.4983L17.2815 36.4983L17.2815 36.0371L16.8203 36.0371Z" fill="#BBBBC9"/>
<path d="M16.8203 35.5759L16.8203 36.0371L17.2815 36.0371L17.2815 35.5759L16.8203 35.5759Z" fill="#BBBBC9"/>
<path d="M16.8203 34.6538L16.8203 35.115L17.2815 35.115L17.2815 34.6538L16.8203 34.6538Z" fill="#BBBBC9"/>
<path d="M16.8203 33.7315L16.8203 34.1926L17.2815 34.1926L17.2815 33.7315L16.8203 33.7315Z" fill="#BBBBC9"/>
<path d="M16.8203 33.27L16.8203 33.7312L17.2815 33.7312L17.2815 33.27L16.8203 33.27Z" fill="#BBBBC9"/>
<path d="M16.8203 32.8089L16.8203 33.27L17.2815 33.27L17.2815 32.8089L16.8203 32.8089Z" fill="#BBBBC9"/>
<path d="M16.8203 32.3479L16.8203 32.8091L17.2815 32.8091L17.2815 32.3479L16.8203 32.3479Z" fill="#BBBBC9"/>
<path d="M16.8203 30.5032L16.8203 30.9644L17.2815 30.9644L17.2815 30.5032L16.8203 30.5032Z" fill="#BBBBC9"/>
<path d="M16.8203 30.042L16.8203 30.5032L17.2815 30.5032L17.2815 30.042L16.8203 30.042Z" fill="#BBBBC9"/>
<path d="M16.8203 29.1196L16.8203 29.5808L17.2815 29.5808L17.2815 29.1196L16.8203 29.1196Z" fill="#BBBBC9"/>
<path d="M16.8203 28.1973L16.8203 28.6584L17.2815 28.6584L17.2815 28.1973L16.8203 28.1973Z" fill="#BBBBC9"/>
<path d="M16.8203 27.7361L16.8203 28.1973L17.2815 28.1973L17.2815 27.7361L16.8203 27.7361Z" fill="#BBBBC9"/>
<path d="M16.8203 27.2749L16.8203 27.7361L17.2815 27.7361L17.2815 27.2749L16.8203 27.2749Z" fill="#BBBBC9"/>
<path d="M16.8203 26.3526L16.8203 26.8137L17.2815 26.8137L17.2815 26.3526L16.8203 26.3526Z" fill="#BBBBC9"/>
<path d="M17.2813 37.4207L17.2812 37.8818L17.7424 37.8818L17.7424 37.4207L17.2813 37.4207Z" fill="#BBBBC9"/>
<path d="M17.2813 34.6538L17.2812 35.115L17.7424 35.115L17.7424 34.6538L17.2813 34.6538Z" fill="#BBBBC9"/>
<path d="M17.2813 33.27L17.2812 33.7312L17.7424 33.7312L17.7424 33.27L17.2813 33.27Z" fill="#BBBBC9"/>
<path d="M17.2813 31.8865L17.2812 32.3477L17.7424 32.3477L17.7424 31.8865L17.2813 31.8865Z" fill="#BBBBC9"/>
<path d="M17.2813 31.4256L17.2812 31.8867L17.7424 31.8867L17.7424 31.4256L17.2813 31.4256Z" fill="#BBBBC9"/>
<path d="M17.2813 30.9641L17.2812 31.4253L17.7424 31.4253L17.7424 30.9641L17.2813 30.9641Z" fill="#BBBBC9"/>
<path d="M17.2813 29.1196L17.2812 29.5808L17.7424 29.5808L17.7424 29.1196L17.2813 29.1196Z" fill="#BBBBC9"/>
<path d="M17.2813 26.3526L17.2812 26.8137L17.7424 26.8137L17.7424 26.3526L17.2813 26.3526Z" fill="#BBBBC9"/>
<path d="M17.7422 37.4207L17.7422 37.8818L18.2033 37.8818L18.2033 37.4207L17.7422 37.4207Z" fill="#BBBBC9"/>
<path d="M17.7422 36.9595L17.7422 37.4207L18.2033 37.4207L18.2033 36.9595L17.7422 36.9595Z" fill="#BBBBC9"/>
<path d="M17.7422 36.4983L17.7422 36.9595L18.2033 36.9595L18.2033 36.4983L17.7422 36.4983Z" fill="#BBBBC9"/>
<path d="M17.7422 36.0371L17.7422 36.4983L18.2033 36.4983L18.2033 36.0371L17.7422 36.0371Z" fill="#BBBBC9"/>
<path d="M17.7422 35.5759L17.7422 36.0371L18.2033 36.0371L18.2033 35.5759L17.7422 35.5759Z" fill="#BBBBC9"/>
<path d="M17.7422 35.1148L17.7422 35.5759L18.2033 35.5759L18.2033 35.1148L17.7422 35.1148Z" fill="#BBBBC9"/>
<path d="M17.7422 34.6538L17.7422 35.115L18.2033 35.115L18.2033 34.6538L17.7422 34.6538Z" fill="#BBBBC9"/>
<path d="M17.7422 33.7315L17.7422 34.1926L18.2033 34.1926L18.2033 33.7315L17.7422 33.7315Z" fill="#BBBBC9"/>
<path d="M17.7422 32.8089L17.7422 33.27L18.2033 33.27L18.2033 32.8089L17.7422 32.8089Z" fill="#BBBBC9"/>
<path d="M17.7422 31.8865L17.7422 32.3477L18.2033 32.3477L18.2033 31.8865L17.7422 31.8865Z" fill="#BBBBC9"/>
<path d="M17.7422 30.9641L17.7422 31.4253L18.2033 31.4253L18.2033 30.9641L17.7422 30.9641Z" fill="#BBBBC9"/>
<path d="M17.7422 30.042L17.7422 30.5032L18.2033 30.5032L18.2033 30.042L17.7422 30.042Z" fill="#BBBBC9"/>
<path d="M17.7422 29.1196L17.7422 29.5808L18.2033 29.5808L18.2033 29.1196L17.7422 29.1196Z" fill="#BBBBC9"/>
<path d="M17.7422 28.6585L17.7422 29.1196L18.2033 29.1196L18.2033 28.6585L17.7422 28.6585Z" fill="#BBBBC9"/>
<path d="M17.7422 28.1973L17.7422 28.6584L18.2033 28.6584L18.2033 28.1973L17.7422 28.1973Z" fill="#BBBBC9"/>
<path d="M17.7422 27.7361L17.7422 28.1973L18.2033 28.1973L18.2033 27.7361L17.7422 27.7361Z" fill="#BBBBC9"/>
<path d="M17.7422 27.2749L17.7422 27.7361L18.2033 27.7361L18.2033 27.2749L17.7422 27.2749Z" fill="#BBBBC9"/>
<path d="M17.7422 26.8137L17.7422 27.2749L18.2033 27.2749L18.2033 26.8137L17.7422 26.8137Z" fill="#BBBBC9"/>
<path d="M17.7422 26.3526L17.7422 26.8137L18.2033 26.8137L18.2033 26.3526L17.7422 26.3526Z" fill="#BBBBC9"/>
<path d="M18.2031 33.27L18.2031 33.7312L18.6643 33.7312L18.6643 33.27L18.2031 33.27Z" fill="#BBBBC9"/>
<path d="M18.2031 32.3477L18.2031 32.8088L18.6643 32.8088L18.6643 32.3477L18.2031 32.3477Z" fill="#BBBBC9"/>
<path d="M18.2031 30.9641L18.2031 31.4253L18.6643 31.4253L18.6643 30.9641L18.2031 30.9641Z" fill="#BBBBC9"/>
<path d="M18.2031 30.5032L18.2031 30.9644L18.6643 30.9644L18.6643 30.5032L18.2031 30.5032Z" fill="#BBBBC9"/>
<path d="M18.6719 37.4207L18.6719 37.8818L19.133 37.8818L19.133 37.4207L18.6719 37.4207Z" fill="#BBBBC9"/>
<path d="M18.6719 36.9595L18.6719 37.4207L19.133 37.4207L19.133 36.9595L18.6719 36.9595Z" fill="#BBBBC9"/>
<path d="M18.6719 36.4983L18.6719 36.9595L19.133 36.9595L19.133 36.4983L18.6719 36.4983Z" fill="#BBBBC9"/>
<path d="M18.6719 36.0371L18.6719 36.4983L19.133 36.4983L19.133 36.0371L18.6719 36.0371Z" fill="#BBBBC9"/>
<path d="M18.6719 34.6538L18.6719 35.115L19.133 35.115L19.133 34.6538L18.6719 34.6538Z" fill="#BBBBC9"/>
<path d="M18.6719 33.7315L18.6719 34.1926L19.133 34.1926L19.133 33.7315L18.6719 33.7315Z" fill="#BBBBC9"/>
<path d="M18.6719 29.5808L18.6719 30.042L19.133 30.042L19.133 29.5808L18.6719 29.5808Z" fill="#BBBBC9"/>
<path d="M18.6719 28.1973L18.6719 28.6584L19.133 28.6584L19.133 28.1973L18.6719 28.1973Z" fill="#BBBBC9"/>
<path d="M18.6719 27.7361L18.6719 28.1973L19.133 28.1973L19.133 27.7361L18.6719 27.7361Z" fill="#BBBBC9"/>
<path d="M18.6719 27.2749L18.6719 27.7361L19.133 27.7361L19.133 27.2749L18.6719 27.2749Z" fill="#BBBBC9"/>
<path d="M18.6719 26.3526L18.6719 26.8137L19.133 26.8137L19.133 26.3526L18.6719 26.3526Z" fill="#BBBBC9"/>
<path d="M19.125 35.1148L19.125 35.5759L19.5862 35.5759L19.5862 35.1148L19.125 35.1148Z" fill="#BBBBC9"/>
<path d="M19.125 34.1924L19.125 34.6536L19.5862 34.6536L19.5862 34.1924L19.125 34.1924Z" fill="#BBBBC9"/>
<path d="M19.125 33.7312L19.125 34.1924L19.5862 34.1924L19.5862 33.7312L19.125 33.7312Z" fill="#BBBBC9"/>
<path d="M19.125 33.27L19.125 33.7312L19.5862 33.7312L19.5862 33.27L19.125 33.27Z" fill="#BBBBC9"/>
<path d="M19.125 31.4256L19.125 31.8867L19.5862 31.8867L19.5862 31.4256L19.125 31.4256Z" fill="#BBBBC9"/>
<path d="M19.125 30.042L19.125 30.5032L19.5862 30.5032L19.5862 30.042L19.125 30.042Z" fill="#BBBBC9"/>
<path d="M19.125 28.6582L19.125 29.1194L19.5862 29.1194L19.5862 28.6582L19.125 28.6582Z" fill="#BBBBC9"/>
<path d="M19.125 26.8137L19.125 27.2749L19.5862 27.2749L19.5862 26.8137L19.125 26.8137Z" fill="#BBBBC9"/>
<path d="M19.5859 37.4207L19.5859 37.8818L20.0471 37.8818L20.0471 37.4207L19.5859 37.4207Z" fill="#BBBBC9"/>
<path d="M19.5859 36.9595L19.5859 37.4207L20.0471 37.4207L20.0471 36.9595L19.5859 36.9595Z" fill="#BBBBC9"/>
<path d="M19.5859 36.0371L19.5859 36.4983L20.0471 36.4983L20.0471 36.0371L19.5859 36.0371Z" fill="#BBBBC9"/>
<path d="M19.5859 34.6538L19.5859 35.115L20.0471 35.115L20.0471 34.6538L19.5859 34.6538Z" fill="#BBBBC9"/>
<path d="M19.5859 33.7315L19.5859 34.1926L20.0471 34.1926L20.0471 33.7315L19.5859 33.7315Z" fill="#BBBBC9"/>
<path d="M19.5859 31.4256L19.5859 31.8867L20.0471 31.8867L20.0471 31.4256L19.5859 31.4256Z" fill="#BBBBC9"/>
<path d="M19.5859 30.042L19.5859 30.5032L20.0471 30.5032L20.0471 30.042L19.5859 30.042Z" fill="#BBBBC9"/>
<path d="M19.5859 29.1196L19.5859 29.5808L20.0471 29.5808L20.0471 29.1196L19.5859 29.1196Z" fill="#BBBBC9"/>
<path d="M19.5859 28.6585L19.5859 29.1196L20.0471 29.1196L20.0471 28.6585L19.5859 28.6585Z" fill="#BBBBC9"/>
<path d="M19.5859 28.1973L19.5859 28.6584L20.0471 28.6584L20.0471 28.1973L19.5859 28.1973Z" fill="#BBBBC9"/>
<path d="M20.0547 36.9595L20.0547 37.4207L20.5158 37.4207L20.5158 36.9595L20.0547 36.9595Z" fill="#BBBBC9"/>
<path d="M20.0547 36.4983L20.0547 36.9595L20.5158 36.9595L20.5158 36.4983L20.0547 36.4983Z" fill="#BBBBC9"/>
<path d="M20.0547 35.5759L20.0547 36.0371L20.5158 36.0371L20.5158 35.5759L20.0547 35.5759Z" fill="#BBBBC9"/>
<path d="M20.0547 35.1148L20.0547 35.5759L20.5158 35.5759L20.5158 35.1148L20.0547 35.1148Z" fill="#BBBBC9"/>
<path d="M20.0547 34.1926L20.0547 34.6538L20.5158 34.6538L20.5158 34.1926L20.0547 34.1926Z" fill="#BBBBC9"/>
<path d="M20.0547 33.7312L20.0547 34.1924L20.5158 34.1924L20.5158 33.7312L20.0547 33.7312Z" fill="#BBBBC9"/>
<path d="M20.0547 32.3477L20.0547 32.8088L20.5158 32.8088L20.5158 32.3477L20.0547 32.3477Z" fill="#BBBBC9"/>
<path d="M20.0547 31.8867L20.0547 32.3479L20.5158 32.3479L20.5158 31.8867L20.0547 31.8867Z" fill="#BBBBC9"/>
<path d="M20.0547 31.4253L20.0547 31.8865L20.5158 31.8865L20.5158 31.4253L20.0547 31.4253Z" fill="#BBBBC9"/>
<path d="M20.0547 29.5808L20.0547 30.042L20.5158 30.042L20.5158 29.5808L20.0547 29.5808Z" fill="#BBBBC9"/>
<path d="M20.0547 28.6585L20.0547 29.1196L20.5158 29.1196L20.5158 28.6585L20.0547 28.6585Z" fill="#BBBBC9"/>
<path d="M20.0547 27.7361L20.0547 28.1973L20.5158 28.1973L20.5158 27.7361L20.0547 27.7361Z" fill="#BBBBC9"/>
<path d="M20.0547 27.2749L20.0547 27.7361L20.5158 27.7361L20.5158 27.2749L20.0547 27.2749Z" fill="#BBBBC9"/>
<path d="M20.5156 37.4207L20.5156 37.8818L20.9768 37.8818L20.9768 37.4207L20.5156 37.4207Z" fill="#BBBBC9"/>
<path d="M20.5156 36.9595L20.5156 37.4207L20.9768 37.4207L20.9768 36.9595L20.5156 36.9595Z" fill="#BBBBC9"/>
<path d="M20.5156 36.4983L20.5156 36.9595L20.9768 36.9595L20.9768 36.4983L20.5156 36.4983Z" fill="#BBBBC9"/>
<path d="M20.5156 36.0371L20.5156 36.4983L20.9768 36.4983L20.9768 36.0371L20.5156 36.0371Z" fill="#BBBBC9"/>
<path d="M20.5156 35.1148L20.5156 35.5759L20.9768 35.5759L20.9768 35.1148L20.5156 35.1148Z" fill="#BBBBC9"/>
<path d="M20.5156 34.6538L20.5156 35.115L20.9768 35.115L20.9768 34.6538L20.5156 34.6538Z" fill="#BBBBC9"/>
<path d="M20.5156 34.1924L20.5156 34.6536L20.9768 34.6536L20.9768 34.1924L20.5156 34.1924Z" fill="#BBBBC9"/>
<path d="M20.5156 33.7315L20.5156 34.1926L20.9768 34.1926L20.9768 33.7315L20.5156 33.7315Z" fill="#BBBBC9"/>
<path d="M20.5156 33.27L20.5156 33.7312L20.9768 33.7312L20.9768 33.27L20.5156 33.27Z" fill="#BBBBC9"/>
<path d="M20.5156 32.3479L20.5156 32.8091L20.9768 32.8091L20.9768 32.3479L20.5156 32.3479Z" fill="#BBBBC9"/>
<path d="M20.5156 31.4256L20.5156 31.8867L20.9768 31.8867L20.9768 31.4256L20.5156 31.4256Z" fill="#BBBBC9"/>
<path d="M20.5156 30.9641L20.5156 31.4253L20.9768 31.4253L20.9768 30.9641L20.5156 30.9641Z" fill="#BBBBC9"/>
<path d="M20.5156 29.1196L20.5156 29.5808L20.9768 29.5808L20.9768 29.1196L20.5156 29.1196Z" fill="#BBBBC9"/>
<path d="M20.5156 28.6585L20.5156 29.1196L20.9768 29.1196L20.9768 28.6585L20.5156 28.6585Z" fill="#BBBBC9"/>
<path d="M20.5156 28.1973L20.5156 28.6584L20.9768 28.6584L20.9768 28.1973L20.5156 28.1973Z" fill="#BBBBC9"/>
<path d="M20.5156 27.2749L20.5156 27.7361L20.9768 27.7361L20.9768 27.2749L20.5156 27.2749Z" fill="#BBBBC9"/>
<path d="M20.5156 26.8137L20.5156 27.2749L20.9768 27.2749L20.9768 26.8137L20.5156 26.8137Z" fill="#BBBBC9"/>
<path d="M20.5156 26.3526L20.5156 26.8137L20.9768 26.8137L20.9768 26.3526L20.5156 26.3526Z" fill="#BBBBC9"/>
<path d="M20.9688 36.9595L20.9688 37.4207L21.4299 37.4207L21.4299 36.9595L20.9688 36.9595Z" fill="#BBBBC9"/>
<path d="M20.9688 36.4983L20.9688 36.9595L21.4299 36.9595L21.4299 36.4983L20.9688 36.4983Z" fill="#BBBBC9"/>
<path d="M20.9688 33.7312L20.9688 34.1924L21.4299 34.1924L21.4299 33.7312L20.9688 33.7312Z" fill="#BBBBC9"/>
<path d="M20.9688 33.2703L20.9688 33.7314L21.4299 33.7314L21.4299 33.2703L20.9688 33.2703Z" fill="#BBBBC9"/>
<path d="M20.9688 32.8089L20.9688 33.27L21.4299 33.27L21.4299 32.8089L20.9688 32.8089Z" fill="#BBBBC9"/>
<path d="M20.9688 32.3477L20.9688 32.8088L21.4299 32.8088L21.4299 32.3477L20.9688 32.3477Z" fill="#BBBBC9"/>
<path d="M20.9688 30.9644L20.9688 31.4255L21.4299 31.4255L21.4299 30.9644L20.9688 30.9644Z" fill="#BBBBC9"/>
<path d="M20.9688 30.503L20.9688 30.9641L21.4299 30.9641L21.4299 30.503L20.9688 30.503Z" fill="#BBBBC9"/>
<path d="M20.9688 29.5808L20.9688 30.042L21.4299 30.042L21.4299 29.5808L20.9688 29.5808Z" fill="#BBBBC9"/>
<path d="M20.9688 29.1196L20.9688 29.5808L21.4299 29.5808L21.4299 29.1196L20.9688 29.1196Z" fill="#BBBBC9"/>
<path d="M20.9688 28.6585L20.9688 29.1196L21.4299 29.1196L21.4299 28.6585L20.9688 28.6585Z" fill="#BBBBC9"/>
<path d="M20.9688 28.1973L20.9688 28.6584L21.4299 28.6584L21.4299 28.1973L20.9688 28.1973Z" fill="#BBBBC9"/>
<path d="M20.9688 26.3526L20.9688 26.8137L21.4299 26.8137L21.4299 26.3526L20.9688 26.3526Z" fill="#BBBBC9"/>
<path d="M21.4297 36.9595L21.4297 37.4207L21.8908 37.4207L21.8908 36.9595L21.4297 36.9595Z" fill="#BBBBC9"/>
<path d="M21.4297 35.5759L21.4297 36.0371L21.8908 36.0371L21.8908 35.5759L21.4297 35.5759Z" fill="#BBBBC9"/>
<path d="M21.4297 35.1148L21.4297 35.5759L21.8908 35.5759L21.8908 35.1148L21.4297 35.1148Z" fill="#BBBBC9"/>
<path d="M21.4297 34.6536L21.4297 35.1147L21.8908 35.1147L21.8908 34.6536L21.4297 34.6536Z" fill="#BBBBC9"/>
<path d="M21.4297 31.8867L21.4297 32.3479L21.8908 32.3479L21.8908 31.8867L21.4297 31.8867Z" fill="#BBBBC9"/>
<path d="M21.4297 30.042L21.4297 30.5032L21.8908 30.5032L21.8908 30.042L21.4297 30.042Z" fill="#BBBBC9"/>
<path d="M21.4297 29.5808L21.4297 30.042L21.8908 30.042L21.8908 29.5808L21.4297 29.5808Z" fill="#BBBBC9"/>
<path d="M21.4297 29.1196L21.4297 29.5808L21.8908 29.5808L21.8908 29.1196L21.4297 29.1196Z" fill="#BBBBC9"/>
<path d="M21.4297 28.1973L21.4297 28.6584L21.8908 28.6584L21.8908 28.1973L21.4297 28.1973Z" fill="#BBBBC9"/>
<path d="M21.4297 27.2749L21.4297 27.7361L21.8908 27.7361L21.8908 27.2749L21.4297 27.2749Z" fill="#BBBBC9"/>
<path d="M21.4297 26.8137L21.4297 27.2749L21.8908 27.2749L21.8908 26.8137L21.4297 26.8137Z" fill="#BBBBC9"/>
<path d="M21.8984 37.4207L21.8984 37.8818L22.3596 37.8818L22.3596 37.4207L21.8984 37.4207Z" fill="#BBBBC9"/>
<path d="M21.8984 35.1148L21.8984 35.5759L22.3596 35.5759L22.3596 35.1148L21.8984 35.1148Z" fill="#BBBBC9"/>
<path d="M21.8984 34.1924L21.8984 34.6536L22.3596 34.6536L22.3596 34.1924L21.8984 34.1924Z" fill="#BBBBC9"/>
<path d="M21.8984 33.7315L21.8984 34.1926L22.3596 34.1926L22.3596 33.7315L21.8984 33.7315Z" fill="#BBBBC9"/>
<path d="M21.8984 32.8089L21.8984 33.27L22.3596 33.27L22.3596 32.8089L21.8984 32.8089Z" fill="#BBBBC9"/>
<path d="M21.8984 31.8865L21.8984 32.3477L22.3596 32.3477L22.3596 31.8865L21.8984 31.8865Z" fill="#BBBBC9"/>
<path d="M21.8984 30.9641L21.8984 31.4253L22.3596 31.4253L22.3596 30.9641L21.8984 30.9641Z" fill="#BBBBC9"/>
<path d="M21.8984 30.042L21.8984 30.5032L22.3596 30.5032L22.3596 30.042L21.8984 30.042Z" fill="#BBBBC9"/>
<path d="M21.8984 28.6585L21.8984 29.1196L22.3596 29.1196L22.3596 28.6585L21.8984 28.6585Z" fill="#BBBBC9"/>
<path d="M21.8984 28.1973L21.8984 28.6584L22.3596 28.6584L22.3596 28.1973L21.8984 28.1973Z" fill="#BBBBC9"/>
<path d="M21.8984 26.3526L21.8984 26.8137L22.3596 26.8137L22.3596 26.3526L21.8984 26.3526Z" fill="#BBBBC9"/>
<path d="M22.3594 36.0371L22.3594 36.4983L22.8205 36.4983L22.8205 36.0371L22.3594 36.0371Z" fill="#BBBBC9"/>
<path d="M22.3594 35.1148L22.3594 35.5759L22.8205 35.5759L22.8205 35.1148L22.3594 35.1148Z" fill="#BBBBC9"/>
<path d="M22.3594 34.6536L22.3594 35.1147L22.8205 35.1147L22.8205 34.6536L22.3594 34.6536Z" fill="#BBBBC9"/>
<path d="M22.3594 34.1926L22.3594 34.6538L22.8205 34.6538L22.8205 34.1926L22.3594 34.1926Z" fill="#BBBBC9"/>
<path d="M22.3594 33.2703L22.3594 33.7314L22.8205 33.7314L22.8205 33.2703L22.3594 33.2703Z" fill="#BBBBC9"/>
<path d="M22.3594 32.8089L22.3594 33.27L22.8205 33.27L22.8205 32.8089L22.3594 32.8089Z" fill="#BBBBC9"/>
<path d="M22.3594 32.3479L22.3594 32.8091L22.8205 32.8091L22.8205 32.3479L22.3594 32.3479Z" fill="#BBBBC9"/>
<path d="M22.3594 31.4253L22.3594 31.8865L22.8205 31.8865L22.8205 31.4253L22.3594 31.4253Z" fill="#BBBBC9"/>
<path d="M22.3594 30.042L22.3594 30.5032L22.8205 30.5032L22.8205 30.042L22.3594 30.042Z" fill="#BBBBC9"/>
<path d="M22.3594 29.5808L22.3594 30.042L22.8205 30.042L22.8205 29.5808L22.3594 29.5808Z" fill="#BBBBC9"/>
<path d="M22.3594 29.1196L22.3594 29.5808L22.8205 29.5808L22.8205 29.1196L22.3594 29.1196Z" fill="#BBBBC9"/>
<path d="M22.3594 28.6585L22.3594 29.1196L22.8205 29.1196L22.8205 28.6585L22.3594 28.6585Z" fill="#BBBBC9"/>
<path d="M22.3594 28.1973L22.3594 28.6584L22.8205 28.6584L22.8205 28.1973L22.3594 28.1973Z" fill="#BBBBC9"/>
<path d="M22.3594 27.7361L22.3594 28.1973L22.8205 28.1973L22.8205 27.7361L22.3594 27.7361Z" fill="#BBBBC9"/>
<path d="M22.3594 27.2749L22.3594 27.7361L22.8205 27.7361L22.8205 27.2749L22.3594 27.2749Z" fill="#BBBBC9"/>
<path d="M22.3594 26.8137L22.3594 27.2749L22.8205 27.2749L22.8205 26.8137L22.3594 26.8137Z" fill="#BBBBC9"/>
<path d="M22.3594 26.3526L22.3594 26.8137L22.8205 26.8137L22.8205 26.3526L22.3594 26.3526Z" fill="#BBBBC9"/>
<path d="M22.8125 33.7312L22.8125 34.1924L23.2737 34.1924L23.2737 33.7312L22.8125 33.7312Z" fill="#BBBBC9"/>
<path d="M22.8125 31.8865L22.8125 32.3477L23.2737 32.3477L23.2737 31.8865L22.8125 31.8865Z" fill="#BBBBC9"/>
<path d="M22.8125 30.503L22.8125 30.9641L23.2737 30.9641L23.2737 30.503L22.8125 30.503Z" fill="#BBBBC9"/>
<path d="M22.8125 30.042L22.8125 30.5032L23.2737 30.5032L23.2737 30.042L22.8125 30.042Z" fill="#BBBBC9"/>
<path d="M22.8125 28.197L22.8125 28.6582L23.2737 28.6582L23.2737 28.197L22.8125 28.197Z" fill="#BBBBC9"/>
<path d="M22.8125 27.2749L22.8125 27.7361L23.2737 27.7361L23.2737 27.2749L22.8125 27.2749Z" fill="#BBBBC9"/>
<path d="M22.8125 26.3526L22.8125 26.8137L23.2737 26.8137L23.2737 26.3526L22.8125 26.3526Z" fill="#BBBBC9"/>
<path d="M23.2734 37.4207L23.2734 37.8818L23.7346 37.8818L23.7346 37.4207L23.2734 37.4207Z" fill="#BBBBC9"/>
<path d="M23.2734 36.9595L23.2734 37.4207L23.7346 37.4207L23.7346 36.9595L23.2734 36.9595Z" fill="#BBBBC9"/>
<path d="M23.2734 36.4983L23.2734 36.9595L23.7346 36.9595L23.7346 36.4983L23.2734 36.4983Z" fill="#BBBBC9"/>
<path d="M23.2734 36.0371L23.2734 36.4983L23.7346 36.4983L23.7346 36.0371L23.2734 36.0371Z" fill="#BBBBC9"/>
<path d="M23.2734 35.5759L23.2734 36.0371L23.7346 36.0371L23.7346 35.5759L23.2734 35.5759Z" fill="#BBBBC9"/>
<path d="M23.2734 35.1148L23.2734 35.5759L23.7346 35.5759L23.7346 35.1148L23.2734 35.1148Z" fill="#BBBBC9"/>
<path d="M23.2734 34.6538L23.2734 35.115L23.7346 35.115L23.7346 34.6538L23.2734 34.6538Z" fill="#BBBBC9"/>
<path d="M23.2734 33.27L23.2734 33.7312L23.7346 33.7312L23.7346 33.27L23.2734 33.27Z" fill="#BBBBC9"/>
<path d="M23.2734 32.3479L23.2734 32.8091L23.7346 32.8091L23.7346 32.3479L23.2734 32.3479Z" fill="#BBBBC9"/>
<path d="M23.2734 31.8865L23.2734 32.3477L23.7346 32.3477L23.7346 31.8865L23.2734 31.8865Z" fill="#BBBBC9"/>
<path d="M23.2734 31.4256L23.2734 31.8867L23.7346 31.8867L23.7346 31.4256L23.2734 31.4256Z" fill="#BBBBC9"/>
<path d="M23.2734 30.9641L23.2734 31.4253L23.7346 31.4253L23.7346 30.9641L23.2734 30.9641Z" fill="#BBBBC9"/>
<path d="M23.2734 30.042L23.2734 30.5032L23.7346 30.5032L23.7346 30.042L23.2734 30.042Z" fill="#BBBBC9"/>
<path d="M23.2734 29.1196L23.2734 29.5808L23.7346 29.5808L23.7346 29.1196L23.2734 29.1196Z" fill="#BBBBC9"/>
<path d="M23.2734 28.1973L23.2734 28.6584L23.7346 28.6584L23.7346 28.1973L23.2734 28.1973Z" fill="#BBBBC9"/>
<path d="M23.2734 27.2749L23.2734 27.7361L23.7346 27.7361L23.7346 27.2749L23.2734 27.2749Z" fill="#BBBBC9"/>
<path d="M23.2734 26.8137L23.2734 27.2749L23.7346 27.2749L23.7346 26.8137L23.2734 26.8137Z" fill="#BBBBC9"/>
<path d="M23.2734 26.3526L23.2734 26.8137L23.7346 26.8137L23.7346 26.3526L23.2734 26.3526Z" fill="#BBBBC9"/>
<path d="M23.7344 37.4207L23.7344 37.8818L24.1955 37.8818L24.1955 37.4207L23.7344 37.4207Z" fill="#BBBBC9"/>
<path d="M23.7344 34.6538L23.7344 35.115L24.1955 35.115L24.1955 34.6538L23.7344 34.6538Z" fill="#BBBBC9"/>
<path d="M23.7344 33.27L23.7344 33.7312L24.1955 33.7312L24.1955 33.27L23.7344 33.27Z" fill="#BBBBC9"/>
<path d="M23.7344 32.8089L23.7344 33.27L24.1955 33.27L24.1955 32.8089L23.7344 32.8089Z" fill="#BBBBC9"/>
<path d="M23.7344 31.8865L23.7344 32.3477L24.1955 32.3477L24.1955 31.8865L23.7344 31.8865Z" fill="#BBBBC9"/>
<path d="M23.7344 30.5032L23.7344 30.9644L24.1955 30.9644L24.1955 30.5032L23.7344 30.5032Z" fill="#BBBBC9"/>
<path d="M23.7344 30.042L23.7344 30.5032L24.1955 30.5032L24.1955 30.042L23.7344 30.042Z" fill="#BBBBC9"/>
<path d="M23.7344 28.1973L23.7344 28.6584L24.1955 28.6584L24.1955 28.1973L23.7344 28.1973Z" fill="#BBBBC9"/>
<path d="M23.7344 26.8137L23.7344 27.2749L24.1955 27.2749L24.1955 26.8137L23.7344 26.8137Z" fill="#BBBBC9"/>
<path d="M24.2031 37.4207L24.2031 37.8818L24.6643 37.8818L24.6643 37.4207L24.2031 37.4207Z" fill="#BBBBC9"/>
<path d="M24.2031 36.4983L24.2031 36.9595L24.6643 36.9595L24.6643 36.4983L24.2031 36.4983Z" fill="#BBBBC9"/>
<path d="M24.2031 36.0371L24.2031 36.4983L24.6643 36.4983L24.6643 36.0371L24.2031 36.0371Z" fill="#BBBBC9"/>
<path d="M24.2031 35.5759L24.2031 36.0371L24.6643 36.0371L24.6643 35.5759L24.2031 35.5759Z" fill="#BBBBC9"/>
<path d="M24.2031 34.6538L24.2031 35.115L24.6643 35.115L24.6643 34.6538L24.2031 34.6538Z" fill="#BBBBC9"/>
<path d="M24.2031 32.8089L24.2031 33.27L24.6643 33.27L24.6643 32.8089L24.2031 32.8089Z" fill="#BBBBC9"/>
<path d="M24.2031 32.3479L24.2031 32.8091L24.6643 32.8091L24.6643 32.3479L24.2031 32.3479Z" fill="#BBBBC9"/>
<path d="M24.2031 30.9641L24.2031 31.4253L24.6643 31.4253L24.6643 30.9641L24.2031 30.9641Z" fill="#BBBBC9"/>
<path d="M24.2031 30.042L24.2031 30.5032L24.6643 30.5032L24.6643 30.042L24.2031 30.042Z" fill="#BBBBC9"/>
<path d="M24.2031 29.5808L24.2031 30.042L24.6643 30.042L24.6643 29.5808L24.2031 29.5808Z" fill="#BBBBC9"/>
<path d="M24.2031 29.1196L24.2031 29.5808L24.6643 29.5808L24.6643 29.1196L24.2031 29.1196Z" fill="#BBBBC9"/>
<path d="M24.2031 28.6585L24.2031 29.1196L24.6643 29.1196L24.6643 28.6585L24.2031 28.6585Z" fill="#BBBBC9"/>
<path d="M24.2031 28.1973L24.2031 28.6584L24.6643 28.6584L24.6643 28.1973L24.2031 28.1973Z" fill="#BBBBC9"/>
<path d="M24.2031 27.7361L24.2031 28.1973L24.6643 28.1973L24.6643 27.7361L24.2031 27.7361Z" fill="#BBBBC9"/>
<path d="M24.2031 26.3526L24.2031 26.8137L24.6643 26.8137L24.6643 26.3526L24.2031 26.3526Z" fill="#BBBBC9"/>
<path d="M24.6641 37.4207L24.6641 37.8818L25.1252 37.8818L25.1252 37.4207L24.6641 37.4207Z" fill="#BBBBC9"/>
<path d="M24.6641 36.4983L24.6641 36.9595L25.1252 36.9595L25.1252 36.4983L24.6641 36.4983Z" fill="#BBBBC9"/>
<path d="M24.6641 36.0371L24.6641 36.4983L25.1252 36.4983L25.1252 36.0371L24.6641 36.0371Z" fill="#BBBBC9"/>
<path d="M24.6641 35.5759L24.6641 36.0371L25.1252 36.0371L25.1252 35.5759L24.6641 35.5759Z" fill="#BBBBC9"/>
<path d="M24.6641 34.6538L24.6641 35.115L25.1252 35.115L25.1252 34.6538L24.6641 34.6538Z" fill="#BBBBC9"/>
<path d="M24.6641 33.7315L24.6641 34.1926L25.1252 34.1926L25.1252 33.7315L24.6641 33.7315Z" fill="#BBBBC9"/>
<path d="M24.6641 33.27L24.6641 33.7312L25.1252 33.7312L25.1252 33.27L24.6641 33.27Z" fill="#BBBBC9"/>
<path d="M24.6641 32.8089L24.6641 33.27L25.1252 33.27L25.1252 32.8089L24.6641 32.8089Z" fill="#BBBBC9"/>
<path d="M24.6641 31.8865L24.6641 32.3477L25.1252 32.3477L25.1252 31.8865L24.6641 31.8865Z" fill="#BBBBC9"/>
<path d="M24.6641 31.4256L24.6641 31.8867L25.1252 31.8867L25.1252 31.4256L24.6641 31.4256Z" fill="#BBBBC9"/>
<path d="M24.6641 29.5808L24.6641 30.042L25.1252 30.042L25.1252 29.5808L24.6641 29.5808Z" fill="#BBBBC9"/>
<path d="M24.6641 29.1196L24.6641 29.5808L25.1252 29.5808L25.1252 29.1196L24.6641 29.1196Z" fill="#BBBBC9"/>
<path d="M24.6641 28.1973L24.6641 28.6584L25.1252 28.6584L25.1252 28.1973L24.6641 28.1973Z" fill="#BBBBC9"/>
<path d="M24.6641 27.7361L24.6641 28.1973L25.1252 28.1973L25.1252 27.7361L24.6641 27.7361Z" fill="#BBBBC9"/>
<path d="M24.6641 27.2749L24.6641 27.7361L25.1252 27.7361L25.1252 27.2749L24.6641 27.2749Z" fill="#BBBBC9"/>
<path d="M24.6641 26.8137L24.6641 27.2749L25.1252 27.2749L25.1252 26.8137L24.6641 26.8137Z" fill="#BBBBC9"/>
<path d="M24.6641 26.3526L24.6641 26.8137L25.1252 26.8137L25.1252 26.3526L24.6641 26.3526Z" fill="#BBBBC9"/>
<path d="M25.1172 37.4207L25.1172 37.8818L25.5783 37.8818L25.5783 37.4207L25.1172 37.4207Z" fill="#BBBBC9"/>
<path d="M25.1172 36.4983L25.1172 36.9595L25.5783 36.9595L25.5783 36.4983L25.1172 36.4983Z" fill="#BBBBC9"/>
<path d="M25.1172 36.0371L25.1172 36.4983L25.5783 36.4983L25.5783 36.0371L25.1172 36.0371Z" fill="#BBBBC9"/>
<path d="M25.1172 35.5759L25.1172 36.0371L25.5783 36.0371L25.5783 35.5759L25.1172 35.5759Z" fill="#BBBBC9"/>
<path d="M25.1172 34.6538L25.1172 35.115L25.5783 35.115L25.5783 34.6538L25.1172 34.6538Z" fill="#BBBBC9"/>
<path d="M25.1172 33.7315L25.1172 34.1926L25.5783 34.1926L25.5783 33.7315L25.1172 33.7315Z" fill="#BBBBC9"/>
<path d="M25.1172 33.27L25.1172 33.7312L25.5783 33.7312L25.5783 33.27L25.1172 33.27Z" fill="#BBBBC9"/>
<path d="M25.1172 32.3479L25.1172 32.8091L25.5783 32.8091L25.5783 32.3479L25.1172 32.3479Z" fill="#BBBBC9"/>
<path d="M25.1172 31.8865L25.1172 32.3477L25.5783 32.3477L25.5783 31.8865L25.1172 31.8865Z" fill="#BBBBC9"/>
<path d="M25.1172 30.5032L25.1172 30.9644L25.5783 30.9644L25.5783 30.5032L25.1172 30.5032Z" fill="#BBBBC9"/>
<path d="M25.1172 29.5808L25.1172 30.042L25.5783 30.042L25.5783 29.5808L25.1172 29.5808Z" fill="#BBBBC9"/>
<path d="M25.1172 29.1196L25.1172 29.5808L25.5783 29.5808L25.5783 29.1196L25.1172 29.1196Z" fill="#BBBBC9"/>
<path d="M25.1172 28.1973L25.1172 28.6584L25.5783 28.6584L25.5783 28.1973L25.1172 28.1973Z" fill="#BBBBC9"/>
<path d="M25.1172 27.2749L25.1172 27.7361L25.5783 27.7361L25.5783 27.2749L25.1172 27.2749Z" fill="#BBBBC9"/>
<path d="M25.1172 26.8137L25.1172 27.2749L25.5783 27.2749L25.5783 26.8137L25.1172 26.8137Z" fill="#BBBBC9"/>
<path d="M25.5781 37.4207L25.5781 37.8818L26.0393 37.8818L26.0393 37.4207L25.5781 37.4207Z" fill="#BBBBC9"/>
<path d="M25.5781 34.6538L25.5781 35.115L26.0393 35.115L26.0393 34.6538L25.5781 34.6538Z" fill="#BBBBC9"/>
<path d="M25.5781 33.7315L25.5781 34.1926L26.0393 34.1926L26.0393 33.7315L25.5781 33.7315Z" fill="#BBBBC9"/>
<path d="M25.5781 32.3479L25.5781 32.8091L26.0393 32.8091L26.0393 32.3479L25.5781 32.3479Z" fill="#BBBBC9"/>
<path d="M25.5781 31.8865L25.5781 32.3477L26.0393 32.3477L26.0393 31.8865L25.5781 31.8865Z" fill="#BBBBC9"/>
<path d="M25.5781 31.4256L25.5781 31.8867L26.0393 31.8867L26.0393 31.4256L25.5781 31.4256Z" fill="#BBBBC9"/>
<path d="M25.5781 30.9641L25.5781 31.4253L26.0393 31.4253L26.0393 30.9641L25.5781 30.9641Z" fill="#BBBBC9"/>
<path d="M25.5781 29.1196L25.5781 29.5808L26.0393 29.5808L26.0393 29.1196L25.5781 29.1196Z" fill="#BBBBC9"/>
<path d="M25.5781 28.1973L25.5781 28.6584L26.0393 28.6584L26.0393 28.1973L25.5781 28.1973Z" fill="#BBBBC9"/>
<path d="M25.5781 27.2749L25.5781 27.7361L26.0393 27.7361L26.0393 27.2749L25.5781 27.2749Z" fill="#BBBBC9"/>
<path d="M26.0469 37.4209L26.0469 37.8821L26.508 37.8821L26.508 37.4209L26.0469 37.4209Z" fill="#BBBBC9"/>
<path d="M26.0469 36.9597L26.0469 37.4209L26.508 37.4209L26.508 36.9597L26.0469 36.9597Z" fill="#BBBBC9"/>
<path d="M26.0469 36.4986L26.0469 36.9597L26.508 36.9597L26.508 36.4986L26.0469 36.4986Z" fill="#BBBBC9"/>
<path d="M26.0469 36.0374L26.0469 36.4985L26.508 36.4985L26.508 36.0374L26.0469 36.0374Z" fill="#BBBBC9"/>
<path d="M26.0469 35.5762L26.0469 36.0374L26.508 36.0374L26.508 35.5762L26.0469 35.5762Z" fill="#BBBBC9"/>
<path d="M26.0469 35.115L26.0469 35.5762L26.508 35.5762L26.508 35.115L26.0469 35.115Z" fill="#BBBBC9"/>
<path d="M26.0469 34.6541L26.0469 35.1152L26.508 35.1152L26.508 34.6541L26.0469 34.6541Z" fill="#BBBBC9"/>
<path d="M26.0469 33.7317L26.0469 34.1929L26.508 34.1929L26.508 33.7317L26.0469 33.7317Z" fill="#BBBBC9"/>
<path d="M26.0469 33.2703L26.0469 33.7314L26.508 33.7314L26.508 33.2703L26.0469 33.2703Z" fill="#BBBBC9"/>
<path d="M26.0469 32.3482L26.0469 32.8093L26.508 32.8093L26.508 32.3482L26.0469 32.3482Z" fill="#BBBBC9"/>
<path d="M26.0469 31.8867L26.0469 32.3479L26.508 32.3479L26.508 31.8867L26.0469 31.8867Z" fill="#BBBBC9"/>
<path d="M26.0469 31.4258L26.0469 31.887L26.508 31.887L26.508 31.4258L26.0469 31.4258Z" fill="#BBBBC9"/>
<path d="M26.0469 29.5811L26.0469 30.0422L26.508 30.0422L26.508 29.5811L26.0469 29.5811Z" fill="#BBBBC9"/>
<path d="M26.0469 28.6587L26.0469 29.1199L26.508 29.1199L26.508 28.6587L26.0469 28.6587Z" fill="#BBBBC9"/>
<path d="M26.0469 28.1975L26.0469 28.6587L26.508 28.6587L26.508 28.1975L26.0469 28.1975Z" fill="#BBBBC9"/>
<path d="M26.0469 27.7363L26.0469 28.1975L26.508 28.1975L26.508 27.7363L26.0469 27.7363Z" fill="#BBBBC9"/>
<path d="M26.0469 27.2752L26.0469 27.7363L26.508 27.7363L26.508 27.2752L26.0469 27.2752Z" fill="#BBBBC9"/>
<path d="M26.0469 26.814L26.0469 27.2751L26.508 27.2751L26.508 26.814L26.0469 26.814Z" fill="#BBBBC9"/>
<path d="M26.0469 26.3528L26.0469 26.814L26.508 26.814L26.508 26.3528L26.0469 26.3528Z" fill="#BBBBC9"/>
</g>
<rect opacity="0.1" x="67.6797" y="46.1169" width="26.3525" height="19.7644" rx="3" fill="#D1D1D7"/>
<rect opacity="0.67" x="67.6797" y="69.999" width="26.3525" height="19.7644" rx="3" fill="#D1D1D7"/>
</g>
<g filter="url(#filter0_d_4474_22759)">
<g clip-path="url(#clip3_4474_22759)">
<rect x="70" y="26.3525" width="46.9404" height="38.0838" rx="5.07279" fill="white"/>
<path d="M90.3736 44.3406C90.4663 44.8223 90.4585 45.318 90.3506 45.7966L94.8144 48.0435C95.3705 47.3846 96.1478 46.9511 97.0007 46.8243C97.8535 46.6975 98.7234 46.8861 99.4471 47.3547C100.171 47.8233 100.699 48.5398 100.932 49.3699C101.166 50.2 101.088 51.0867 100.714 51.8637C100.341 52.6408 99.6965 53.2549 98.9025 53.591C98.1084 53.927 97.2191 53.962 96.4011 53.6892C95.5831 53.4165 94.8927 52.8548 94.4592 52.1094C94.0258 51.3641 93.879 50.4862 94.0465 49.6404L89.5384 47.3713C89.0574 47.9108 88.423 48.2902 87.7201 48.4587C87.0173 48.6272 86.2798 48.5767 85.6065 48.3139C84.9332 48.0512 84.3563 47.5889 83.9533 46.9889C83.5504 46.3889 83.3405 45.68 83.352 44.9574C83.3635 44.2347 83.5957 43.5329 84.0175 42.946C84.4393 42.3591 85.0306 41.9153 85.7119 41.6741C86.3932 41.4329 87.1319 41.4058 87.8291 41.5965C88.5262 41.7872 89.1483 42.1866 89.6119 42.741L94.0722 40.5074C93.8755 39.6679 93.9918 38.7855 94.3992 38.0255C94.8066 37.2656 95.4771 36.6804 96.2851 36.3795C97.0932 36.0786 97.9832 36.0827 98.7884 36.391C99.5936 36.6994 100.259 37.2908 100.659 38.0545C101.059 38.8181 101.168 39.7016 100.963 40.5392C100.759 41.3769 100.256 42.1112 99.5488 42.6047C98.8417 43.0981 97.9789 43.3167 97.1222 43.2195C96.2655 43.1223 95.4736 42.7161 94.895 42.0768L90.3736 44.3406Z" fill="#436EAD"/>
<rect x="70" y="61.7637" width="46.9404" height="2.47055" fill="#436EAD"/>
</g>
</g>
</g>
<defs>
<filter id="filter0_d_4474_22759" x="61.3962" y="22.0507" width="64.147" height="55.2913" filterUnits="userSpaceOnUse" color-interpolation-filters="sRGB">
<feFlood flood-opacity="0" result="BackgroundImageFix"/>
<feColorMatrix in="SourceAlpha" type="matrix" values="0 0 0 0 0 0 0 0 0 0 0 0 0 0 0 0 0 0 127 0" result="hardAlpha"/>
<feOffset dy="4.30189"/>
<feGaussianBlur stdDeviation="4.30189"/>
<feComposite in2="hardAlpha" operator="out"/>
<feColorMatrix type="matrix" values="0 0 0 0 0.789167 0 0 0 0 0.810833 0 0 0 0 0.80914 0 0 0 0.6 0"/>
<feBlend mode="normal" in2="BackgroundImageFix" result="effect1_dropShadow_4474_22759"/>
<feBlend mode="normal" in="SourceGraphic" in2="effect1_dropShadow_4474_22759" result="shape"/>
</filter>
<clipPath id="clip0_4474_22759">
<rect width="124" height="83" fill="white"/>
</clipPath>
<clipPath id="clip1_4474_22759">
<rect y="2.72705" width="102.894" height="77.7211" rx="5" fill="white"/>
</clipPath>
<clipPath id="clip2_4474_22759">
<rect width="11.5292" height="11.5292" fill="white" transform="translate(14.9766 37.8818) rotate(-90)"/>
</clipPath>
<clipPath id="clip3_4474_22759">
<rect x="70" y="26.3525" width="46.9404" height="38.0838" rx="5.07279" fill="white"/>
</clipPath>
</defs>
</svg>
