<svg width="14" height="14" viewBox="0 0 14 14" fill="none" xmlns="http://www.w3.org/2000/svg">
<path d="M11.9619 4.84371C11.9939 4.69137 12.0105 4.5361 12.0105 4.37982C12.0105 3.66824 11.669 2.99068 11.097 2.56739C10.9446 2.45456 10.7296 2.4867 10.6168 2.63914C10.504 2.79155 10.5361 3.00659 10.6886 3.1194C11.0863 3.41376 11.3238 3.88495 11.3238 4.37982C11.3238 4.42313 11.3218 4.4663 11.3183 4.50929C11.3152 4.50835 11.3123 4.50725 11.3092 4.50634C10.3864 4.23077 9.40632 4.66122 8.979 5.51168C8.99498 5.52638 9.00986 5.54268 9.02321 5.56078C9.28437 5.91505 9.68612 6.11823 10.1254 6.11823C10.3218 6.11823 10.5112 6.07765 10.6883 5.99755C10.7849 5.95392 10.8961 5.95726 10.9898 6.00666C11.0836 6.05604 11.1492 6.14595 11.1678 6.25027C11.284 6.90306 11.8505 7.37687 12.5149 7.37687L12.5207 7.37675C12.5259 7.37669 12.5309 7.37714 12.536 7.3773C12.601 7.16787 12.6526 6.95553 12.6902 6.74104C12.8194 6.00394 12.5211 5.28178 11.9619 4.84371Z" fill="#D92D20"/>
<path d="M10.5974 6.75074C10.4439 6.78689 10.2861 6.80509 10.1253 6.80509C9.56769 6.80509 9.03334 6.5748 8.64883 6.17871C7.80016 7.66223 6.25074 8.81177 4.39038 9.31023C3.40138 9.57526 2.36495 9.64014 1.3931 9.49787C1.24911 9.47687 1.10762 9.54871 1.03972 9.67731C0.971828 9.80592 0.992316 9.96336 1.09086 10.0703C2.21183 11.2866 3.91511 11.9518 5.73312 11.9518C6.38618 11.9518 7.05445 11.8658 7.71528 11.6888C9.00404 11.3435 10.1565 10.6873 11.048 9.79117C11.5729 9.2635 11.9868 8.67504 12.2766 8.05003C11.5147 7.96218 10.8697 7.45767 10.5974 6.75074Z" fill="#D92D20"/>
</svg>
