<svg width="14" height="14" viewBox="0 0 14 14" fill="none" xmlns="http://www.w3.org/2000/svg">
<path d="M4.8876 6.72746L8.54147 10.3813C8.55831 10.0571 8.57286 9.34158 8.44992 8.48424C8.22836 6.93909 7.65852 5.66958 6.80197 4.81308C5.94545 3.95656 4.67597 3.3867 3.13081 3.16514C1.98111 3.00026 1.08586 3.08263 1.04832 3.08626C0.864402 3.10384 0.718812 3.24943 0.701228 3.43335C0.697622 3.47089 0.615257 4.36611 0.780111 5.51584C1.00167 7.061 1.57151 8.3305 2.42805 9.187C3.28458 10.0435 4.55406 10.6134 6.09922 10.8349C6.66829 10.9165 7.17485 10.9376 7.54605 10.9376C7.73405 10.9376 7.88724 10.9322 7.99625 10.9265L4.34241 7.27265C4.19185 7.12212 4.19185 6.87801 4.34241 6.72743C4.49294 6.57693 4.73704 6.57693 4.8876 6.72746Z" fill="#128F50"/>
<path d="M13.3054 5.76021C13.2878 5.57629 13.1422 5.4307 12.9583 5.41312C12.8552 5.40329 10.4182 5.18828 8.99908 6.60743C8.94383 6.66267 8.89113 6.71955 8.8407 6.77771C9.00684 7.27452 9.13203 7.80852 9.21318 8.37466C9.23916 8.55593 9.25939 8.73091 9.27512 8.89811L10.2824 7.89079C10.433 7.74026 10.6771 7.74026 10.8277 7.89079C10.9782 8.04132 10.9782 8.28543 10.8277 8.436L9.32402 9.93964C9.32365 10.3326 9.30128 10.5888 9.29639 10.64C9.28774 10.7304 9.2685 10.8178 9.24025 10.901C10.0966 10.8218 11.2788 10.5517 12.111 9.71939C13.5302 8.30029 13.3152 5.8633 13.3054 5.76021Z" fill="#128F50"/>
</svg>
