<svg width="37" height="34" viewBox="0 0 37 34" fill="none" xmlns="http://www.w3.org/2000/svg">
<path d="M18.6316 33.9753C27.9569 33.9753 35.5165 26.3697 35.5165 16.9877C35.5165 7.60563 27.9569 0 18.6316 0C9.30635 0 1.74671 7.60563 1.74671 16.9877C1.74671 19.7581 2.40592 22.3737 3.57513 24.6843C3.8786 25.284 3.91331 25.992 3.61748 26.5955L0.596346 32.7587C0.391857 33.1759 0.817217 33.6221 1.24368 33.4378L7.17863 30.8727C7.85101 30.5821 8.62312 30.6904 9.23006 31.1005C11.9172 32.916 15.1515 33.9753 18.6316 33.9753Z" fill="#2F8733"/>
<g clip-path="url(#clip0_5808_60710)">
<path d="M8.43076 10.4193L7.7334 10.6062L7.92026 11.3036L8.61762 11.1167L8.43076 10.4193Z" fill="white"/>
<path d="M9.12803 10.2326L8.43066 10.4194L8.61752 11.1168L9.31488 10.9299L9.12803 10.2326Z" fill="white"/>
<path d="M9.82529 10.0456L9.12793 10.2324L9.31479 10.9298L10.0121 10.7429L9.82529 10.0456Z" fill="white"/>
<path d="M10.5226 9.8588L9.8252 10.0457L10.0121 10.743L10.7094 10.5562L10.5226 9.8588Z" fill="white"/>
<path d="M11.2198 9.67179L10.5225 9.85864L10.7093 10.556L11.4067 10.3691L11.2198 9.67179Z" fill="white"/>
<path d="M11.9181 9.48502L11.2207 9.67188L11.4076 10.3692L12.1049 10.1824L11.9181 9.48502Z" fill="white"/>
<path d="M12.6153 9.29825L11.918 9.48511L12.1048 10.1825L12.8022 9.99561L12.6153 9.29825Z" fill="white"/>
<path d="M14.0099 8.92447L13.3125 9.11133L13.4994 9.80869L14.1967 9.62183L14.0099 8.92447Z" fill="white"/>
<path d="M14.7071 8.7377L14.0098 8.92456L14.1966 9.62192L14.894 9.43506L14.7071 8.7377Z" fill="white"/>
<path d="M19.589 7.4296L18.8916 7.61646L19.0785 8.31382L19.7758 8.12696L19.589 7.4296Z" fill="white"/>
<path d="M20.9835 7.05582L20.2861 7.24268L20.473 7.94004L21.1704 7.75318L20.9835 7.05582Z" fill="white"/>
<path d="M21.6808 6.86905L20.9834 7.05591L21.1703 7.75327L21.8676 7.56641L21.6808 6.86905Z" fill="white"/>
<path d="M22.378 6.68204L21.6807 6.8689L21.8675 7.56626L22.5649 7.3794L22.378 6.68204Z" fill="white"/>
<path d="M23.0753 6.49527L22.3779 6.68213L22.5648 7.37949L23.2621 7.19263L23.0753 6.49527Z" fill="white"/>
<path d="M23.7726 6.3085L23.0752 6.49536L23.2621 7.19272L23.9594 7.00587L23.7726 6.3085Z" fill="white"/>
<path d="M24.4708 6.12149L23.7734 6.30835L23.9603 7.00571L24.6577 6.81885L24.4708 6.12149Z" fill="white"/>
<path d="M25.1681 5.93472L24.4707 6.12158L24.6576 6.81894L25.3549 6.63209L25.1681 5.93472Z" fill="white"/>
<path d="M8.61728 11.1166L7.91992 11.3035L8.10678 12.0008L8.80414 11.814L8.61728 11.1166Z" fill="white"/>
<path d="M12.8019 9.99552L12.1045 10.1824L12.2913 10.8797L12.9887 10.6929L12.8019 9.99552Z" fill="white"/>
<path d="M17.6827 8.68741L16.9854 8.87427L17.1722 9.57163L17.8696 9.38477L17.6827 8.68741Z" fill="white"/>
<path d="M19.7755 8.12686L19.0781 8.31372L19.265 9.01108L19.9623 8.82422L19.7755 8.12686Z" fill="white"/>
<path d="M21.17 7.75308L20.4727 7.93994L20.6595 8.6373L21.3569 8.45045L21.17 7.75308Z" fill="white"/>
<path d="M25.3546 6.63199L24.6572 6.81885L24.8441 7.51621L25.5414 7.32935L25.3546 6.63199Z" fill="white"/>
<path d="M8.80478 11.8141L8.10742 12.001L8.29428 12.6983L8.99164 12.5115L8.80478 11.8141Z" fill="white"/>
<path d="M10.1993 11.4403L9.50195 11.6272L9.68881 12.3246L10.3862 12.1377L10.1993 11.4403Z" fill="white"/>
<path d="M10.8966 11.2536L10.1992 11.4404L10.3861 12.1378L11.0834 11.9509L10.8966 11.2536Z" fill="white"/>
<path d="M11.5938 11.0666L10.8965 11.2534L11.0833 11.9508L11.7807 11.7639L11.5938 11.0666Z" fill="white"/>
<path d="M12.9894 10.693L12.292 10.8799L12.4788 11.5772L13.1762 11.3904L12.9894 10.693Z" fill="white"/>
<path d="M14.3839 10.3192L13.6865 10.5061L13.8734 11.2035L14.5707 11.0166L14.3839 10.3192Z" fill="white"/>
<path d="M16.4757 9.7587L15.7783 9.94556L15.9652 10.6429L16.6625 10.4561L16.4757 9.7587Z" fill="white"/>
<path d="M17.1729 9.57169L16.4756 9.75854L16.6624 10.4559L17.3598 10.269L17.1729 9.57169Z" fill="white"/>
<path d="M17.8702 9.38492L17.1729 9.57178L17.3597 10.2691L18.0571 10.0823L17.8702 9.38492Z" fill="white"/>
<path d="M19.2657 9.01114L18.5684 9.198L18.7552 9.89536L19.4526 9.7085L19.2657 9.01114Z" fill="white"/>
<path d="M21.3575 8.45059L20.6602 8.63745L20.847 9.33481L21.5444 9.14795L21.3575 8.45059Z" fill="white"/>
<path d="M22.752 8.07681L22.0547 8.26367L22.2415 8.96103L22.9389 8.77418L22.752 8.07681Z" fill="white"/>
<path d="M23.4493 7.89005L22.752 8.0769L22.9388 8.77427L23.6362 8.58741L23.4493 7.89005Z" fill="white"/>
<path d="M24.1466 7.70328L23.4492 7.89014L23.6361 8.5875L24.3334 8.40064L24.1466 7.70328Z" fill="white"/>
<path d="M25.5421 7.3295L24.8447 7.51636L25.0316 8.21372L25.7289 8.02686L25.5421 7.3295Z" fill="white"/>
<path d="M8.99131 12.5114L8.29395 12.6982L8.4808 13.3956L9.17816 13.2087L8.99131 12.5114Z" fill="white"/>
<path d="M10.3858 12.1376L9.68848 12.3245L9.87533 13.0218L10.5727 12.835L10.3858 12.1376Z" fill="white"/>
<path d="M11.0831 11.9508L10.3857 12.1377L10.5726 12.8351L11.27 12.6482L11.0831 11.9508Z" fill="white"/>
<path d="M11.7804 11.7638L11.083 11.9507L11.2699 12.648L11.9672 12.4612L11.7804 11.7638Z" fill="white"/>
<path d="M13.1759 11.3903L12.4785 11.5771L12.6654 12.2745L13.3627 12.0877L13.1759 11.3903Z" fill="white"/>
<path d="M14.5704 11.0165L13.873 11.2034L14.0599 11.9007L14.7573 11.7139L14.5704 11.0165Z" fill="white"/>
<path d="M15.2677 10.8297L14.5703 11.0166L14.7572 11.714L15.4545 11.5271L15.2677 10.8297Z" fill="white"/>
<path d="M16.6622 10.456L15.9648 10.6428L16.1517 11.3402L16.8491 11.1533L16.6622 10.456Z" fill="white"/>
<path d="M18.0567 10.0822L17.3594 10.269L17.5462 10.9664L18.2436 10.7795L18.0567 10.0822Z" fill="white"/>
<path d="M18.755 9.89542L18.0576 10.0823L18.2445 10.7796L18.9418 10.5928L18.755 9.89542Z" fill="white"/>
<path d="M21.544 9.14786L20.8467 9.33472L21.0335 10.0321L21.7309 9.84522L21.544 9.14786Z" fill="white"/>
<path d="M22.9386 8.77408L22.2412 8.96094L22.4281 9.6583L23.1254 9.47144L22.9386 8.77408Z" fill="white"/>
<path d="M23.6358 8.58731L22.9385 8.77417L23.1253 9.47153L23.8227 9.28467L23.6358 8.58731Z" fill="white"/>
<path d="M24.3331 8.40055L23.6357 8.5874L23.8226 9.28476L24.52 9.09791L24.3331 8.40055Z" fill="white"/>
<path d="M25.7286 8.02677L25.0312 8.21362L25.2181 8.91098L25.9155 8.72413L25.7286 8.02677Z" fill="white"/>
<path d="M9.17783 13.2089L8.48047 13.3958L8.66733 14.0931L9.36469 13.9063L9.17783 13.2089Z" fill="white"/>
<path d="M10.5724 12.8351L9.875 13.022L10.0619 13.7193L10.7592 13.5325L10.5724 12.8351Z" fill="white"/>
<path d="M11.2696 12.6483L10.5723 12.8352L10.7591 13.5326L11.4565 13.3457L11.2696 12.6483Z" fill="white"/>
<path d="M11.9669 12.4613L11.2695 12.6482L11.4564 13.3456L12.1537 13.1587L11.9669 12.4613Z" fill="white"/>
<path d="M13.3624 12.0878L12.665 12.2747L12.8519 12.972L13.5493 12.7852L13.3624 12.0878Z" fill="white"/>
<path d="M14.7569 11.714L14.0596 11.9009L14.2464 12.5982L14.9438 12.4114L14.7569 11.714Z" fill="white"/>
<path d="M15.4542 11.5273L14.7568 11.7141L14.9437 12.4115L15.6411 12.2246L15.4542 11.5273Z" fill="white"/>
<path d="M16.1515 11.3402L15.4541 11.5271L15.641 12.2245L16.3383 12.0376L16.1515 11.3402Z" fill="white"/>
<path d="M16.8487 11.1535L16.1514 11.3403L16.3382 12.0377L17.0356 11.8508L16.8487 11.1535Z" fill="white"/>
<path d="M19.6388 10.4059L18.9414 10.5928L19.1283 11.2901L19.8256 11.1033L19.6388 10.4059Z" fill="white"/>
<path d="M20.336 10.2191L19.6387 10.406L19.8255 11.1034L20.5229 10.9165L20.336 10.2191Z" fill="white"/>
<path d="M21.7306 9.84537L21.0332 10.0322L21.2201 10.7296L21.9174 10.5427L21.7306 9.84537Z" fill="white"/>
<path d="M23.1251 9.47159L22.4277 9.65845L22.6146 10.3558L23.312 10.169L23.1251 9.47159Z" fill="white"/>
<path d="M23.8224 9.28482L23.125 9.47168L23.3119 10.169L24.0092 9.98218L23.8224 9.28482Z" fill="white"/>
<path d="M24.5196 9.09806L23.8223 9.28491L24.0091 9.98227L24.7065 9.79542L24.5196 9.09806Z" fill="white"/>
<path d="M25.9151 8.72428L25.2178 8.91113L25.4046 9.60849L26.102 9.42164L25.9151 8.72428Z" fill="white"/>
<path d="M9.36533 13.9062L8.66797 14.093L8.85483 14.7904L9.55219 14.6035L9.36533 13.9062Z" fill="white"/>
<path d="M13.5499 12.7851L12.8525 12.9719L13.0394 13.6693L13.7368 13.4824L13.5499 12.7851Z" fill="white"/>
<path d="M15.6417 12.2245L14.9443 12.4114L15.1312 13.1087L15.8286 12.9219L15.6417 12.2245Z" fill="white"/>
<path d="M17.7335 11.6637L17.0361 11.8506L17.223 12.5479L17.9204 12.3611L17.7335 11.6637Z" fill="white"/>
<path d="M18.4308 11.477L17.7334 11.6638L17.9203 12.3612L18.6176 12.1743L18.4308 11.477Z" fill="white"/>
<path d="M19.129 11.2902L18.4316 11.4771L18.6185 12.1744L19.3159 11.9876L19.129 11.2902Z" fill="white"/>
<path d="M21.9181 10.5426L21.2207 10.7295L21.4076 11.4269L22.1049 11.24L21.9181 10.5426Z" fill="white"/>
<path d="M26.1026 9.42154L25.4053 9.6084L25.5921 10.3058L26.2895 10.1189L26.1026 9.42154Z" fill="white"/>
<path d="M9.55185 14.6037L8.85449 14.7905L9.04135 15.4879L9.73871 15.301L9.55185 14.6037Z" fill="white"/>
<path d="M10.2491 14.4169L9.55176 14.6038L9.73862 15.3011L10.436 15.1143L10.2491 14.4169Z" fill="white"/>
<path d="M10.9464 14.2299L10.249 14.4167L10.4359 15.1141L11.1332 14.9273L10.9464 14.2299Z" fill="white"/>
<path d="M11.6437 14.0431L10.9463 14.23L11.1331 14.9273L11.8305 14.7405L11.6437 14.0431Z" fill="white"/>
<path d="M12.3409 13.8561L11.6436 14.043L11.8304 14.7403L12.5278 14.5535L12.3409 13.8561Z" fill="white"/>
<path d="M13.0392 13.6693L12.3418 13.8562L12.5287 14.5536L13.226 14.3667L13.0392 13.6693Z" fill="white"/>
<path d="M13.7364 13.4826L13.0391 13.6694L13.2259 14.3668L13.9233 14.1799L13.7364 13.4826Z" fill="white"/>
<path d="M15.131 13.1088L14.4336 13.2957L14.6205 13.993L15.3178 13.8062L15.131 13.1088Z" fill="white"/>
<path d="M16.5255 12.735L15.8281 12.9219L16.015 13.6192L16.7123 13.4324L16.5255 12.735Z" fill="white"/>
<path d="M17.92 12.3612L17.2227 12.5481L17.4095 13.2455L18.1069 13.0586L17.92 12.3612Z" fill="white"/>
<path d="M19.3155 11.9877L18.6182 12.1746L18.805 12.8719L19.5024 12.6851L19.3155 11.9877Z" fill="white"/>
<path d="M20.7101 11.6139L20.0127 11.8008L20.1996 12.4981L20.8969 12.3113L20.7101 11.6139Z" fill="white"/>
<path d="M22.1046 11.2401L21.4072 11.427L21.5941 12.1244L22.2914 11.9375L22.1046 11.2401Z" fill="white"/>
<path d="M22.8019 11.0534L22.1045 11.2402L22.2913 11.9376L22.9887 11.7507L22.8019 11.0534Z" fill="white"/>
<path d="M23.4991 10.8664L22.8018 11.0532L22.9886 11.7506L23.686 11.5637L23.4991 10.8664Z" fill="white"/>
<path d="M24.1964 10.6796L23.499 10.8665L23.6859 11.5638L24.3832 11.377L24.1964 10.6796Z" fill="white"/>
<path d="M24.8936 10.4928L24.1963 10.6797L24.3831 11.377L25.0805 11.1902L24.8936 10.4928Z" fill="white"/>
<path d="M25.5919 10.3058L24.8945 10.4927L25.0814 11.19L25.7787 11.0032L25.5919 10.3058Z" fill="white"/>
<path d="M26.2892 10.1191L25.5918 10.3059L25.7787 11.0033L26.476 10.8164L26.2892 10.1191Z" fill="white"/>
<path d="M16.0147 13.6193L15.3174 13.8062L15.5042 14.5035L16.2016 14.3167L16.0147 13.6193Z" fill="white"/>
<path d="M17.4093 13.2455L16.7119 13.4324L16.8988 14.1297L17.5961 13.9429L17.4093 13.2455Z" fill="white"/>
<path d="M19.502 12.685L18.8047 12.8718L18.9915 13.5692L19.6889 13.3823L19.502 12.685Z" fill="white"/>
<path d="M20.1993 12.4982L19.502 12.6851L19.6888 13.3824L20.3862 13.1956L20.1993 12.4982Z" fill="white"/>
<path d="M9.92588 15.9984L9.22852 16.1853L9.41537 16.8827L10.1127 16.6958L9.92588 15.9984Z" fill="white"/>
<path d="M10.6231 15.8117L9.92578 15.9985L10.1126 16.6959L10.81 16.509L10.6231 15.8117Z" fill="white"/>
<path d="M11.3204 15.6247L10.623 15.8115L10.8099 16.5089L11.5073 16.322L11.3204 15.6247Z" fill="white"/>
<path d="M12.0177 15.4379L11.3203 15.6248L11.5072 16.3221L12.2045 16.1353L12.0177 15.4379Z" fill="white"/>
<path d="M14.1104 14.8774L13.4131 15.0642L13.5999 15.7616L14.2973 15.5747L14.1104 14.8774Z" fill="white"/>
<path d="M15.505 14.5036L14.8076 14.6904L14.9945 15.3878L15.6918 15.2009L15.505 14.5036Z" fill="white"/>
<path d="M21.7813 12.8219L21.084 13.0088L21.2708 13.7062L21.9682 13.5193L21.7813 12.8219Z" fill="white"/>
<path d="M23.8731 12.2611L23.1758 12.448L23.3626 13.1454L24.06 12.9585L23.8731 12.2611Z" fill="white"/>
<path d="M24.5704 12.0744L23.873 12.2612L24.0599 12.9586L24.7573 12.7717L24.5704 12.0744Z" fill="white"/>
<path d="M25.2677 11.8876L24.5703 12.0745L24.7572 12.7718L25.4545 12.585L25.2677 11.8876Z" fill="white"/>
<path d="M26.6632 11.5138L25.9658 11.7007L26.1527 12.398L26.85 12.2112L26.6632 11.5138Z" fill="white"/>
<path d="M13.5997 15.7614L12.9023 15.9482L13.0892 16.6456L13.7866 16.4587L13.5997 15.7614Z" fill="white"/>
<path d="M14.9942 15.3876L14.2969 15.5745L14.4837 16.2718L15.1811 16.085L14.9942 15.3876Z" fill="white"/>
<path d="M15.6915 15.2008L14.9941 15.3877L15.181 16.0851L15.8784 15.8982L15.6915 15.2008Z" fill="white"/>
<path d="M16.3888 15.0138L15.6914 15.2007L15.8783 15.898L16.5756 15.7112L16.3888 15.0138Z" fill="white"/>
<path d="M19.1788 14.2665L18.4814 14.4534L18.6683 15.1507L19.3657 14.9639L19.1788 14.2665Z" fill="white"/>
<path d="M21.2706 13.706L20.5732 13.8928L20.7601 14.5902L21.4575 14.4033L21.2706 13.706Z" fill="white"/>
<path d="M23.3634 13.1454L22.666 13.3323L22.8529 14.0296L23.5502 13.8428L23.3634 13.1454Z" fill="white"/>
<path d="M26.1524 12.3979L25.4551 12.5847L25.6419 13.2821L26.3393 13.0952L26.1524 12.3979Z" fill="white"/>
<path d="M10.2989 17.393L9.60156 17.5798L9.78842 18.2772L10.4858 18.0903L10.2989 17.393Z" fill="white"/>
<path d="M10.9962 17.2062L10.2988 17.3931L10.4857 18.0904L11.183 17.9036L10.9962 17.2062Z" fill="white"/>
<path d="M12.3907 16.8324L11.6934 17.0193L11.8802 17.7166L12.5776 17.5298L12.3907 16.8324Z" fill="white"/>
<path d="M14.4835 16.2719L13.7861 16.4587L13.973 17.1561L14.6704 16.9692L14.4835 16.2719Z" fill="white"/>
<path d="M15.878 15.8981L15.1807 16.085L15.3675 16.7823L16.0649 16.5955L15.878 15.8981Z" fill="white"/>
<path d="M19.3644 14.9638L18.667 15.1506L18.8538 15.848L19.5512 15.6611L19.3644 14.9638Z" fill="white"/>
<path d="M21.4571 14.4032L20.7598 14.5901L20.9466 15.2874L21.644 15.1006L21.4571 14.4032Z" fill="white"/>
<path d="M22.8517 14.0295L22.1543 14.2163L22.3412 14.9137L23.0385 14.7268L22.8517 14.0295Z" fill="white"/>
<path d="M23.5489 13.8427L22.8516 14.0295L23.0384 14.7269L23.7358 14.54L23.5489 13.8427Z" fill="white"/>
<path d="M24.2462 13.6557L23.5488 13.8425L23.7357 14.5399L24.433 14.353L24.2462 13.6557Z" fill="white"/>
<path d="M11.1837 17.9035L10.4863 18.0903L10.6732 18.7877L11.3705 18.6008L11.1837 17.9035Z" fill="white"/>
<path d="M11.881 17.7167L11.1836 17.9036L11.3705 18.6009L12.0678 18.4141L11.881 17.7167Z" fill="white"/>
<path d="M13.2755 17.3429L12.5781 17.5298L12.765 18.2271L13.4623 18.0403L13.2755 17.3429Z" fill="white"/>
<path d="M13.9728 17.1559L13.2754 17.3428L13.4622 18.0401L14.1596 17.8533L13.9728 17.1559Z" fill="white"/>
<path d="M15.3683 16.7824L14.6709 16.9692L14.8578 17.6666L15.5551 17.4797L15.3683 16.7824Z" fill="white"/>
<path d="M16.0655 16.5954L15.3682 16.7822L15.555 17.4796L16.2524 17.2927L16.0655 16.5954Z" fill="white"/>
<path d="M18.1573 16.0348L17.46 16.2217L17.6468 16.919L18.3442 16.7322L18.1573 16.0348Z" fill="white"/>
<path d="M18.8546 15.8481L18.1572 16.0349L18.3441 16.7323L19.0414 16.5454L18.8546 15.8481Z" fill="white"/>
<path d="M19.5519 15.661L18.8545 15.8479L19.0413 16.5453L19.7387 16.3584L19.5519 15.661Z" fill="white"/>
<path d="M22.3419 14.9137L21.6445 15.1006L21.8314 15.7979L22.5287 15.6111L22.3419 14.9137Z" fill="white"/>
<path d="M23.7364 14.5399L23.0391 14.7268L23.2259 15.4242L23.9233 15.2373L23.7364 14.5399Z" fill="white"/>
<path d="M25.131 14.1662L24.4336 14.353L24.6205 15.0504L25.3178 14.8635L25.131 14.1662Z" fill="white"/>
<path d="M25.8282 13.9794L25.1309 14.1663L25.3177 14.8636L26.0151 14.6768L25.8282 13.9794Z" fill="white"/>
<path d="M10.6729 18.7878L9.97559 18.9746L10.1624 19.672L10.8598 19.4851L10.6729 18.7878Z" fill="white"/>
<path d="M11.3702 18.601L10.6729 18.7878L10.8597 19.4852L11.5571 19.2983L11.3702 18.601Z" fill="white"/>
<path d="M12.0675 18.414L11.3701 18.6008L11.557 19.2982L12.2543 19.1113L12.0675 18.414Z" fill="white"/>
<path d="M12.7647 18.2272L12.0674 18.4141L12.2542 19.1114L12.9516 18.9246L12.7647 18.2272Z" fill="white"/>
<path d="M14.1603 17.8534L13.4629 18.0403L13.6497 18.7376L14.3471 18.5508L14.1603 17.8534Z" fill="white"/>
<path d="M14.8575 17.6667L14.1602 17.8535L14.347 18.5509L15.0444 18.364L14.8575 17.6667Z" fill="white"/>
<path d="M15.5548 17.4796L14.8574 17.6665L15.0443 18.3639L15.7416 18.177L15.5548 17.4796Z" fill="white"/>
<path d="M16.252 17.2929L15.5547 17.4797L15.7415 18.1771L16.4389 17.9902L16.252 17.2929Z" fill="white"/>
<path d="M16.9493 17.1061L16.252 17.293L16.4388 17.9903L17.1362 17.8035L16.9493 17.1061Z" fill="white"/>
<path d="M18.3438 16.7323L17.6465 16.9192L17.8333 17.6166L18.5307 17.4297L18.3438 16.7323Z" fill="white"/>
<path d="M19.7384 16.3586L19.041 16.5454L19.2279 17.2428L19.9252 17.0559L19.7384 16.3586Z" fill="white"/>
<path d="M20.4366 16.1718L19.7393 16.3586L19.9261 17.056L20.6235 16.8691L20.4366 16.1718Z" fill="white"/>
<path d="M23.2257 15.4242L22.5283 15.6111L22.7152 16.3084L23.4125 16.1216L23.2257 15.4242Z" fill="white"/>
<path d="M23.9229 15.2375L23.2256 15.4243L23.4124 16.1217L24.1098 15.9348L23.9229 15.2375Z" fill="white"/>
<path d="M24.6202 15.0504L23.9229 15.2373L24.1097 15.9347L24.8071 15.7478L24.6202 15.0504Z" fill="white"/>
<path d="M26.0147 14.6769L25.3174 14.8638L25.5042 15.5611L26.2016 15.3743L26.0147 14.6769Z" fill="white"/>
<path d="M26.713 14.4899L26.0156 14.6768L26.2025 15.3741L26.8998 15.1873L26.713 14.4899Z" fill="white"/>
<path d="M27.4103 14.3031L26.7129 14.49L26.8997 15.1874L27.5971 15.0005L27.4103 14.3031Z" fill="white"/>
<path d="M11.5577 19.2985L10.8604 19.4854L11.0472 20.1827L11.7446 19.9959L11.5577 19.2985Z" fill="white"/>
<path d="M12.255 19.1117L11.5576 19.2986L11.7445 19.9959L12.4418 19.8091L12.255 19.1117Z" fill="white"/>
<path d="M16.4395 17.9904L15.7422 18.1772L15.929 18.8746L16.6264 18.6877L16.4395 17.9904Z" fill="white"/>
<path d="M17.1368 17.8036L16.4395 17.9905L16.6263 18.6878L17.3237 18.501L17.1368 17.8036Z" fill="white"/>
<path d="M17.8341 17.6169L17.1367 17.8037L17.3236 18.5011L18.0209 18.3142L17.8341 17.6169Z" fill="white"/>
<path d="M18.5313 17.4298L17.834 17.6167L18.0208 18.3141L18.7182 18.1272L18.5313 17.4298Z" fill="white"/>
<path d="M20.6231 16.8693L19.9258 17.0562L20.1126 17.7535L20.81 17.5667L20.6231 16.8693Z" fill="white"/>
<path d="M21.3214 16.6825L20.624 16.8694L20.8109 17.5667L21.5082 17.3799L21.3214 16.6825Z" fill="white"/>
<path d="M22.7159 16.3087L22.0186 16.4956L22.2054 17.193L22.9028 17.0061L22.7159 16.3087Z" fill="white"/>
<path d="M23.4132 16.1217L22.7158 16.3086L22.9027 17.006L23.6 16.8191L23.4132 16.1217Z" fill="white"/>
<path d="M24.1104 15.935L23.4131 16.1218L23.5999 16.8192L24.2973 16.6323L24.1104 15.935Z" fill="white"/>
<path d="M24.8077 15.7482L24.1104 15.9351L24.2972 16.6324L24.9946 16.4456L24.8077 15.7482Z" fill="white"/>
<path d="M27.5978 15.0006L26.9004 15.1875L27.0872 15.8849L27.7846 15.698L27.5978 15.0006Z" fill="white"/>
<path d="M11.7442 19.9958L11.0469 20.1826L11.2337 20.88L11.9311 20.6931L11.7442 19.9958Z" fill="white"/>
<path d="M13.836 19.4352L13.1387 19.6221L13.3255 20.3194L14.0229 20.1326L13.836 19.4352Z" fill="white"/>
<path d="M14.5333 19.2482L13.8359 19.4351L14.0228 20.1324L14.7202 19.9456L14.5333 19.2482Z" fill="white"/>
<path d="M15.2315 19.0614L14.5342 19.2483L14.721 19.9457L15.4184 19.7588L15.2315 19.0614Z" fill="white"/>
<path d="M19.4151 17.9403L18.7178 18.1272L18.9046 18.8246L19.602 18.6377L19.4151 17.9403Z" fill="white"/>
<path d="M22.2052 17.1928L21.5078 17.3796L21.6947 18.077L22.392 17.8901L22.2052 17.1928Z" fill="white"/>
<path d="M22.9024 17.006L22.2051 17.1929L22.3919 17.8902L23.0893 17.7034L22.9024 17.006Z" fill="white"/>
<path d="M23.5997 16.819L22.9023 17.0059L23.0892 17.7032L23.7866 17.5164L23.5997 16.819Z" fill="white"/>
<path d="M24.9942 16.4455L24.2969 16.6323L24.4837 17.3297L25.1811 17.1428L24.9942 16.4455Z" fill="white"/>
<path d="M26.3888 16.0717L25.6914 16.2585L25.8783 16.9559L26.5756 16.769L26.3888 16.0717Z" fill="white"/>
<path d="M27.086 15.8849L26.3887 16.0718L26.5755 16.7691L27.2729 16.5823L27.086 15.8849Z" fill="white"/>
<path d="M11.2335 20.88L10.5361 21.0669L10.723 21.7643L11.4204 21.5774L11.2335 20.88Z" fill="white"/>
<path d="M14.7208 19.9457L14.0234 20.1326L14.2103 20.8299L14.9077 20.6431L14.7208 19.9457Z" fill="white"/>
<path d="M16.1153 19.5719L15.418 19.7588L15.6048 20.4561L16.3022 20.2693L16.1153 19.5719Z" fill="white"/>
<path d="M16.8126 19.3852L16.1152 19.572L16.3021 20.2694L16.9995 20.0825L16.8126 19.3852Z" fill="white"/>
<path d="M18.2071 19.0114L17.5098 19.1982L17.6966 19.8956L18.394 19.7087L18.2071 19.0114Z" fill="white"/>
<path d="M19.6017 18.6376L18.9043 18.8245L19.0912 19.5218L19.7885 19.335L19.6017 18.6376Z" fill="white"/>
<path d="M20.9972 18.2641L20.2998 18.4509L20.4867 19.1483L21.184 18.9614L20.9972 18.2641Z" fill="white"/>
<path d="M22.3917 17.8903L21.6943 18.0771L21.8812 18.7745L22.5786 18.5877L22.3917 17.8903Z" fill="white"/>
<path d="M24.4835 17.3297L23.7861 17.5166L23.973 18.214L24.6704 18.0271L24.4835 17.3297Z" fill="white"/>
<path d="M25.1808 17.1427L24.4834 17.3296L24.6703 18.027L25.3676 17.8401L25.1808 17.1427Z" fill="white"/>
<path d="M27.9708 16.3954L27.2734 16.5823L27.4603 17.2796L28.1577 17.0928L27.9708 16.3954Z" fill="white"/>
<path d="M13.5128 21.0168L12.8154 21.2036L13.0023 21.901L13.6996 21.7141L13.5128 21.0168Z" fill="white"/>
<path d="M14.9073 20.643L14.21 20.8298L14.3968 21.5272L15.0942 21.3403L14.9073 20.643Z" fill="white"/>
<path d="M15.6046 20.4562L14.9072 20.6431L15.0941 21.3404L15.7914 21.1536L15.6046 20.4562Z" fill="white"/>
<path d="M16.3019 20.2694L15.6045 20.4563L15.7913 21.1537L16.4887 20.9668L16.3019 20.2694Z" fill="white"/>
<path d="M17.6974 19.8957L17 20.0825L17.1869 20.7799L17.8842 20.593L17.6974 19.8957Z" fill="white"/>
<path d="M18.3946 19.7087L17.6973 19.8955L17.8841 20.5929L18.5815 20.406L18.3946 19.7087Z" fill="white"/>
<path d="M19.0919 19.5219L18.3945 19.7087L18.5814 20.4061L19.2787 20.2192L19.0919 19.5219Z" fill="white"/>
<path d="M20.4864 19.1481L19.7891 19.335L19.9759 20.0323L20.6733 19.8455L20.4864 19.1481Z" fill="white"/>
<path d="M22.5782 18.5876L21.8809 18.7744L22.0677 19.4718L22.7651 19.2849L22.5782 18.5876Z" fill="white"/>
<path d="M23.2765 18.4008L22.5791 18.5876L22.766 19.285L23.4633 19.0982L23.2765 18.4008Z" fill="white"/>
<path d="M23.9737 18.2138L23.2764 18.4006L23.4632 19.098L24.1606 18.9111L23.9737 18.2138Z" fill="white"/>
<path d="M24.671 18.027L23.9736 18.2139L24.1605 18.9112L24.8579 18.7244L24.671 18.027Z" fill="white"/>
<path d="M25.3683 17.8402L24.6709 18.0271L24.8578 18.7245L25.5551 18.5376L25.3683 17.8402Z" fill="white"/>
<path d="M26.0655 17.6532L25.3682 17.8401L25.555 18.5374L26.2524 18.3506L26.0655 17.6532Z" fill="white"/>
<path d="M26.7628 17.4665L26.0654 17.6533L26.2523 18.3507L26.9496 18.1638L26.7628 17.4665Z" fill="white"/>
<path d="M27.4601 17.2795L26.7627 17.4663L26.9496 18.1637L27.6469 17.9768L27.4601 17.2795Z" fill="white"/>
<path d="M28.1573 17.0927L27.46 17.2795L27.6468 17.9769L28.3442 17.79L28.1573 17.0927Z" fill="white"/>
<path d="M17.1866 20.7797L16.4893 20.9666L16.6761 21.6639L17.3735 21.4771L17.1866 20.7797Z" fill="white"/>
<path d="M19.9757 20.0324L19.2783 20.2192L19.4652 20.9166L20.1625 20.7297L19.9757 20.0324Z" fill="white"/>
<path d="M22.0685 19.4716L21.3711 19.6584L21.558 20.3558L22.2553 20.169L22.0685 19.4716Z" fill="white"/>
<path d="M22.7657 19.2848L22.0684 19.4717L22.2552 20.169L22.9526 19.9822L22.7657 19.2848Z" fill="white"/>
<path d="M25.5548 18.5373L24.8574 18.7241L25.0443 19.4215L25.7416 19.2346L25.5548 18.5373Z" fill="white"/>
<path d="M26.9503 18.1637L26.2529 18.3506L26.4398 19.0479L27.1371 18.8611L26.9503 18.1637Z" fill="white"/>
<path d="M28.3448 17.7899L27.6475 17.9768L27.8343 18.6742L28.5317 18.4873L28.3448 17.7899Z" fill="white"/>
<path d="M11.794 22.9721L11.0967 23.1589L11.2835 23.8563L11.9809 23.6694L11.794 22.9721Z" fill="white"/>
<path d="M12.4913 22.7853L11.7939 22.9722L11.9808 23.6695L12.6782 23.4827L12.4913 22.7853Z" fill="white"/>
<path d="M13.1886 22.5983L12.4912 22.7852L12.6781 23.4825L13.3754 23.2957L13.1886 22.5983Z" fill="white"/>
<path d="M13.8858 22.4115L13.1885 22.5984L13.3753 23.2957L14.0727 23.1089L13.8858 22.4115Z" fill="white"/>
<path d="M14.5831 22.2245L13.8857 22.4114L14.0726 23.1087L14.77 22.9219L14.5831 22.2245Z" fill="white"/>
<path d="M15.2813 22.0378L14.584 22.2246L14.7708 22.922L15.4682 22.7351L15.2813 22.0378Z" fill="white"/>
<path d="M15.9786 21.851L15.2812 22.0378L15.4681 22.7352L16.1655 22.5483L15.9786 21.851Z" fill="white"/>
<path d="M18.0704 21.2904L17.373 21.4773L17.5599 22.1747L18.2573 21.9878L18.0704 21.2904Z" fill="white"/>
<path d="M19.4649 20.9167L18.7676 21.1035L18.9544 21.8009L19.6518 21.614L19.4649 20.9167Z" fill="white"/>
<path d="M20.1622 20.7296L19.4648 20.9165L19.6517 21.6139L20.3491 21.427L20.1622 20.7296Z" fill="white"/>
<path d="M20.8595 20.5429L20.1621 20.7297L20.349 21.4271L21.0463 21.2402L20.8595 20.5429Z" fill="white"/>
<path d="M21.5577 20.3561L20.8604 20.543L21.0472 21.2403L21.7446 21.0535L21.5577 20.3561Z" fill="white"/>
<path d="M22.9522 19.9823L22.2549 20.1692L22.4417 20.8666L23.1391 20.6797L22.9522 19.9823Z" fill="white"/>
<path d="M24.3468 19.6086L23.6494 19.7954L23.8363 20.4928L24.5336 20.3059L24.3468 19.6086Z" fill="white"/>
<path d="M25.7413 19.2348L25.0439 19.4216L25.2308 20.119L25.9282 19.9321L25.7413 19.2348Z" fill="white"/>
<path d="M27.1358 18.8612L26.4385 19.0481L26.6253 19.7455L27.3227 19.5586L27.1358 18.8612Z" fill="white"/>
<path d="M27.8341 18.6742L27.1367 18.8611L27.3236 19.5584L28.0209 19.3716L27.8341 18.6742Z" fill="white"/>
<path d="M28.5313 18.4875L27.834 18.6743L28.0208 19.3717L28.7182 19.1848L28.5313 18.4875Z" fill="white"/>
<path d="M11.9815 23.6696L11.2842 23.8564L11.471 24.5538L12.1684 24.3669L11.9815 23.6696Z" fill="white"/>
<path d="M16.1661 22.5485L15.4688 22.7354L15.6556 23.4327L16.353 23.2459L16.1661 22.5485Z" fill="white"/>
<path d="M18.2579 21.9879L17.5605 22.1748L17.7474 22.8722L18.4448 22.6853L18.2579 21.9879Z" fill="white"/>
<path d="M18.9552 21.8009L18.2578 21.9878L18.4447 22.6852L19.142 22.4983L18.9552 21.8009Z" fill="white"/>
<path d="M20.3497 21.4272L19.6523 21.614L19.8392 22.3114L20.5366 22.1245L20.3497 21.4272Z" fill="white"/>
<path d="M22.4425 20.8666L21.7451 21.0535L21.932 21.7508L22.6293 21.564L22.4425 20.8666Z" fill="white"/>
<path d="M23.1397 20.6798L22.4424 20.8667L22.6292 21.5641L23.3266 21.3772L23.1397 20.6798Z" fill="white"/>
<path d="M25.9288 19.9323L25.2314 20.1191L25.4183 20.8165L26.1157 20.6296L25.9288 19.9323Z" fill="white"/>
<path d="M28.0216 19.3717L27.3242 19.5586L27.5111 20.256L28.2084 20.0691L28.0216 19.3717Z" fill="white"/>
<path d="M12.1681 24.3669L11.4707 24.5537L11.6576 25.2511L12.3549 25.0642L12.1681 24.3669Z" fill="white"/>
<path d="M13.5626 23.9931L12.8652 24.1799L13.0521 24.8773L13.7495 24.6904L13.5626 23.9931Z" fill="white"/>
<path d="M14.2599 23.8063L13.5625 23.9932L13.7494 24.6905L14.4467 24.5037L14.2599 23.8063Z" fill="white"/>
<path d="M14.9571 23.6193L14.2598 23.8062L14.4466 24.5035L15.144 24.3167L14.9571 23.6193Z" fill="white"/>
<path d="M16.3526 23.2458L15.6553 23.4326L15.8421 24.13L16.5395 23.9431L16.3526 23.2458Z" fill="white"/>
<path d="M19.1417 22.4982L18.4443 22.6851L18.6312 23.3824L19.3286 23.1956L19.1417 22.4982Z" fill="white"/>
<path d="M19.839 22.3114L19.1416 22.4983L19.3285 23.1957L20.0258 23.0088L19.839 22.3114Z" fill="white"/>
<path d="M21.9317 21.7509L21.2344 21.9377L21.4212 22.6351L22.1186 22.4482L21.9317 21.7509Z" fill="white"/>
<path d="M23.3263 21.3771L22.6289 21.564L22.8158 22.2613L23.5131 22.0745L23.3263 21.3771Z" fill="white"/>
<path d="M24.0235 21.1903L23.3262 21.3772L23.513 22.0746L24.2104 21.8877L24.0235 21.1903Z" fill="white"/>
<path d="M24.7208 21.0033L24.0234 21.1902L24.2103 21.8875L24.9077 21.7007L24.7208 21.0033Z" fill="white"/>
<path d="M25.4181 20.8166L24.7207 21.0034L24.9076 21.7008L25.6049 21.5139L25.4181 20.8166Z" fill="white"/>
<path d="M26.1153 20.6295L25.418 20.8164L25.6048 21.5138L26.3022 21.3269L26.1153 20.6295Z" fill="white"/>
<path d="M26.8126 20.4428L26.1152 20.6296L26.3021 21.327L26.9995 21.1401L26.8126 20.4428Z" fill="white"/>
<path d="M28.9054 19.8822L28.208 20.0691L28.3949 20.7665L29.0922 20.5796L28.9054 19.8822Z" fill="white"/>
<path d="M12.3546 25.0641L11.6572 25.251L11.8441 25.9483L12.5414 25.7615L12.3546 25.0641Z" fill="white"/>
<path d="M13.7491 24.6903L13.0518 24.8772L13.2386 25.5746L13.936 25.3877L13.7491 24.6903Z" fill="white"/>
<path d="M14.4464 24.5036L13.749 24.6904L13.9359 25.3878L14.6332 25.2009L14.4464 24.5036Z" fill="white"/>
<path d="M15.1437 24.3166L14.4463 24.5034L14.6331 25.2008L15.3305 25.0139L15.1437 24.3166Z" fill="white"/>
<path d="M16.5392 23.943L15.8418 24.1299L16.0287 24.8272L16.726 24.6404L16.5392 23.943Z" fill="white"/>
<path d="M17.9337 23.5692L17.2363 23.7561L17.4232 24.4535L18.1205 24.2666L17.9337 23.5692Z" fill="white"/>
<path d="M18.631 23.3825L17.9336 23.5693L18.1205 24.2667L18.8178 24.0798L18.631 23.3825Z" fill="white"/>
<path d="M19.3282 23.1955L18.6309 23.3823L18.8177 24.0797L19.5151 23.8928L19.3282 23.1955Z" fill="white"/>
<path d="M20.7228 22.8217L20.0254 23.0085L20.2122 23.7059L20.9096 23.519L20.7228 22.8217Z" fill="white"/>
<path d="M21.42 22.6349L20.7227 22.8218L20.9095 23.5191L21.6069 23.3323L21.42 22.6349Z" fill="white"/>
<path d="M24.2101 21.8876L23.5127 22.0745L23.6996 22.7718L24.3969 22.585L24.2101 21.8876Z" fill="white"/>
<path d="M24.9073 21.7006L24.21 21.8875L24.3968 22.5848L25.0942 22.398L24.9073 21.7006Z" fill="white"/>
<path d="M26.3019 21.3268L25.6045 21.5137L25.7913 22.211L26.4887 22.0242L26.3019 21.3268Z" fill="white"/>
<path d="M26.9991 21.14L26.3018 21.3269L26.4886 22.0243L27.186 21.8374L26.9991 21.14Z" fill="white"/>
<path d="M27.6964 20.9533L26.999 21.1401L27.1859 21.8375L27.8832 21.6506L27.6964 20.9533Z" fill="white"/>
<path d="M28.3946 20.7663L27.6973 20.9531L27.8841 21.6505L28.5815 21.4636L28.3946 20.7663Z" fill="white"/>
<path d="M29.0919 20.5795L28.3945 20.7664L28.5814 21.4637L29.2787 21.2769L29.0919 20.5795Z" fill="white"/>
<path d="M12.5421 25.7616L11.8447 25.9485L12.0316 26.6458L12.7289 26.459L12.5421 25.7616Z" fill="white"/>
<path d="M13.9366 25.3878L13.2393 25.5747L13.4261 26.2721L14.1235 26.0852L13.9366 25.3878Z" fill="white"/>
<path d="M14.6339 25.2011L13.9365 25.3879L14.1234 26.0853L14.8207 25.8984L14.6339 25.2011Z" fill="white"/>
<path d="M15.3312 25.0141L14.6338 25.2009L14.8206 25.8983L15.518 25.7114L15.3312 25.0141Z" fill="white"/>
<path d="M16.7267 24.6405L16.0293 24.8274L16.2162 25.5248L16.9135 25.3379L16.7267 24.6405Z" fill="white"/>
<path d="M18.1212 24.2668L17.4238 24.4536L17.6107 25.151L18.308 24.9641L18.1212 24.2668Z" fill="white"/>
<path d="M18.8185 24.08L18.1211 24.2668L18.308 24.9642L19.0053 24.7773L18.8185 24.08Z" fill="white"/>
<path d="M20.213 23.7062L19.5156 23.8931L19.7025 24.5904L20.3998 24.4036L20.213 23.7062Z" fill="white"/>
<path d="M20.9103 23.5192L20.2129 23.7061L20.3997 24.4034L21.0971 24.2166L20.9103 23.5192Z" fill="white"/>
<path d="M23.003 22.9587L22.3057 23.1455L22.4925 23.8429L23.1899 23.656L23.003 22.9587Z" fill="white"/>
<path d="M24.3976 22.5851L23.7002 22.772L23.8871 23.4693L24.5844 23.2825L24.3976 22.5851Z" fill="white"/>
<path d="M25.0948 22.3981L24.3975 22.585L24.5843 23.2823L25.2817 23.0955L25.0948 22.3981Z" fill="white"/>
<path d="M26.4894 22.0243L25.792 22.2112L25.9788 22.9085L26.6762 22.7217L26.4894 22.0243Z" fill="white"/>
<path d="M27.8839 21.6508L27.1865 21.8376L27.3734 22.535L28.0707 22.3481L27.8839 21.6508Z" fill="white"/>
<path d="M28.5821 21.4638L27.8848 21.6506L28.0716 22.348L28.769 22.1611L28.5821 21.4638Z" fill="white"/>
<path d="M12.7286 26.4589L12.0312 26.6458L12.2181 27.3431L12.9155 27.1563L12.7286 26.4589Z" fill="white"/>
<path d="M16.9132 25.3378L16.2158 25.5247L16.4027 26.222L17.1 26.0352L16.9132 25.3378Z" fill="white"/>
<path d="M18.3077 24.964L17.6104 25.1509L17.7972 25.8482L18.4946 25.6614L18.3077 24.964Z" fill="white"/>
<path d="M20.3995 24.4035L19.7021 24.5903L19.889 25.2877L20.5864 25.1008L20.3995 24.4035Z" fill="white"/>
<path d="M21.0968 24.2165L20.3994 24.4033L20.5863 25.1007L21.2836 24.9138L21.0968 24.2165Z" fill="white"/>
<path d="M21.794 24.0297L21.0967 24.2166L21.2835 24.9139L21.9809 24.7271L21.794 24.0297Z" fill="white"/>
<path d="M22.4923 23.8429L21.7949 24.0298L21.9818 24.7271L22.6791 24.5403L22.4923 23.8429Z" fill="white"/>
<path d="M25.2813 23.0954L24.584 23.2822L24.7708 23.9796L25.4682 23.7927L25.2813 23.0954Z" fill="white"/>
<path d="M26.6759 22.7216L25.9785 22.9084L26.1654 23.6058L26.8627 23.419L26.6759 22.7216Z" fill="white"/>
<path d="M28.0704 22.3481L27.373 22.5349L27.5599 23.2323L28.2573 23.0454L28.0704 22.3481Z" fill="white"/>
<path d="M12.9151 27.1564L12.2178 27.3433L12.4046 28.0406L13.102 27.8538L12.9151 27.1564Z" fill="white"/>
<path d="M13.6124 26.9696L12.915 27.1565L13.1019 27.8539L13.7993 27.667L13.6124 26.9696Z" fill="white"/>
<path d="M14.3097 26.7826L13.6123 26.9695L13.7992 27.6668L14.4965 27.48L14.3097 26.7826Z" fill="white"/>
<path d="M15.0069 26.5959L14.3096 26.7827L14.4964 27.4801L15.1938 27.2932L15.0069 26.5959Z" fill="white"/>
<path d="M15.7042 26.4088L15.0068 26.5957L15.1937 27.2931L15.8911 27.1062L15.7042 26.4088Z" fill="white"/>
<path d="M16.4024 26.2221L15.7051 26.4089L15.8919 27.1063L16.5893 26.9194L16.4024 26.2221Z" fill="white"/>
<path d="M17.0997 26.0353L16.4023 26.2222L16.5892 26.9195L17.2866 26.7327L17.0997 26.0353Z" fill="white"/>
<path d="M18.4942 25.6615L17.7969 25.8484L17.9837 26.5457L18.6811 26.3589L18.4942 25.6615Z" fill="white"/>
<path d="M19.1915 25.4748L18.4941 25.6616L18.681 26.359L19.3784 26.1721L19.1915 25.4748Z" fill="white"/>
<path d="M20.586 25.101L19.8887 25.2878L20.0755 25.9852L20.7729 25.7983L20.586 25.101Z" fill="white"/>
<path d="M21.2833 24.914L20.5859 25.1008L20.7728 25.7982L21.4702 25.6113L21.2833 24.914Z" fill="white"/>
<path d="M21.9806 24.7272L21.2832 24.9141L21.4701 25.6114L22.1674 25.4246L21.9806 24.7272Z" fill="white"/>
<path d="M24.7706 23.9799L24.0732 24.1667L24.2601 24.8641L24.9575 24.6773L24.7706 23.9799Z" fill="white"/>
<path d="M26.1651 23.6061L25.4678 23.793L25.6546 24.4903L26.352 24.3035L26.1651 23.6061Z" fill="white"/>
<path d="M26.8624 23.4191L26.165 23.606L26.3519 24.3033L27.0493 24.1165L26.8624 23.4191Z" fill="white"/>
<path d="M27.5597 23.2323L26.8623 23.4192L27.0492 24.1166L27.7465 23.9297L27.5597 23.2323Z" fill="white"/>
<path d="M28.2569 23.0456L27.5596 23.2324L27.7464 23.9298L28.4438 23.7429L28.2569 23.0456Z" fill="white"/>
<path d="M28.9552 22.8586L28.2578 23.0454L28.4447 23.7428L29.142 23.5559L28.9552 22.8586Z" fill="white"/>
<path d="M29.6524 22.6718L28.9551 22.8586L29.1419 23.556L29.8393 23.3691L29.6524 22.6718Z" fill="white"/>
</g>
<defs>
<clipPath id="clip0_5808_60710">
<rect width="18.0494" height="18.0494" fill="white" transform="translate(7.7334 10.6062) rotate(-15)"/>
</clipPath>
</defs>
</svg>
