<svg width="195" height="32" viewBox="0 0 195 32" fill="none" xmlns="http://www.w3.org/2000/svg">
<path d="M8.38159 23.4108C7.29579 23.4108 6.28283 23.2321 5.34269 22.8745C4.41579 22.517 3.60807 22.0138 2.91952 21.365C2.24421 20.7162 1.71455 19.9548 1.33055 19.0809C0.959793 18.2069 0.774414 17.2536 0.774414 16.2207C0.774414 15.1879 0.959793 14.2345 1.33055 13.3606C1.71455 12.4867 2.25083 11.7253 2.93938 11.0765C3.62793 10.4276 4.43566 9.92446 5.36255 9.56695C6.28945 9.20943 7.29579 9.03067 8.38159 9.03067C9.48062 9.03067 10.487 9.20943 11.4006 9.56695C12.3275 9.92446 13.1286 10.4276 13.8039 11.0765C14.4925 11.7121 15.0288 12.4668 15.4128 13.3407C15.7968 14.2147 15.9888 15.1747 15.9888 16.2207C15.9888 17.2536 15.7968 18.2136 15.4128 19.1007C15.0288 19.9747 14.4925 20.7361 13.8039 21.3849C13.1286 22.0205 12.3275 22.517 11.4006 22.8745C10.487 23.2321 9.48062 23.4108 8.38159 23.4108ZM12.93 26.3703C12.3871 26.3703 11.8707 26.3107 11.3808 26.1915C10.9041 26.0723 10.4274 25.8803 9.95069 25.6155C9.48724 25.3507 8.99731 24.9932 8.4809 24.5429C7.97772 24.0927 7.42821 23.5366 6.83235 22.8745L10.2089 22.0205C10.5664 22.5104 10.8974 22.901 11.202 23.1923C11.5066 23.4836 11.7979 23.6889 12.0759 23.8081C12.3672 23.9272 12.6718 23.9868 12.9896 23.9868C13.837 23.9868 14.5918 23.6425 15.2539 22.954L16.6839 24.6621C15.7438 25.8009 14.4925 26.3703 12.93 26.3703ZM8.38159 20.6698C9.00393 20.6698 9.57331 20.5639 10.0897 20.3521C10.6194 20.1402 11.0828 19.8356 11.4801 19.4384C11.8773 19.0412 12.1819 18.5711 12.3937 18.0282C12.6188 17.4721 12.7314 16.8696 12.7314 16.2207C12.7314 15.5587 12.6188 14.9562 12.3937 14.4133C12.1819 13.8704 11.8773 13.4003 11.4801 13.0031C11.0828 12.6058 10.6194 12.3013 10.0897 12.0894C9.57331 11.8776 9.00393 11.7716 8.38159 11.7716C7.75924 11.7716 7.18324 11.8776 6.65359 12.0894C6.12393 12.3013 5.66048 12.6058 5.26324 13.0031C4.87924 13.4003 4.57469 13.8704 4.34959 14.4133C4.13772 14.9562 4.03179 15.5587 4.03179 16.2207C4.03179 16.8696 4.13772 17.4721 4.34959 18.0282C4.57469 18.5711 4.87924 19.0412 5.26324 19.4384C5.66048 19.8356 6.12393 20.1402 6.65359 20.3521C7.18324 20.5639 7.75924 20.6698 8.38159 20.6698Z" fill="white"/>
<path d="M22.6972 23.3314C21.81 23.3314 21.0155 23.1592 20.3137 22.8149C19.6252 22.4707 19.0889 21.9476 18.7049 21.2458C18.3209 20.5308 18.1289 19.6238 18.1289 18.5247V12.4867H21.2274V18.0679C21.2274 18.9551 21.4128 19.6105 21.7835 20.0343C22.1675 20.4447 22.7038 20.65 23.3923 20.65C23.869 20.65 24.2928 20.5507 24.6635 20.3521C25.0343 20.1402 25.3256 19.8224 25.5375 19.3987C25.7493 18.9617 25.8552 18.4188 25.8552 17.77V12.4867H28.9537V23.1725H26.0141V20.2329L26.5504 21.0869C26.1929 21.8285 25.6632 22.3912 24.9614 22.7752C24.2729 23.146 23.5181 23.3314 22.6972 23.3314Z" fill="white"/>
<path d="M38.3787 23.1725V21.0869L38.1801 20.6301V16.8961C38.1801 16.234 37.9749 15.7176 37.5644 15.3468C37.1672 14.9761 36.5514 14.7907 35.7172 14.7907C35.1478 14.7907 34.5851 14.8834 34.0289 15.0687C33.4861 15.2409 33.0226 15.4792 32.6386 15.7838L31.5263 13.6188C32.1089 13.2083 32.8107 12.8905 33.6317 12.6654C34.4527 12.4403 35.2869 12.3278 36.1343 12.3278C37.763 12.3278 39.0276 12.7118 39.928 13.4798C40.8284 14.2478 41.2786 15.4461 41.2786 17.0748V23.1725H38.3787ZM35.1214 23.3314C34.2872 23.3314 33.5721 23.1923 32.9763 22.9143C32.3804 22.6229 31.9236 22.2323 31.6058 21.7424C31.288 21.2525 31.1291 20.7029 31.1291 20.0938C31.1291 19.4583 31.2814 18.9021 31.5859 18.4254C31.9037 17.9487 32.4003 17.578 33.0756 17.3132C33.7509 17.0351 34.6314 16.8961 35.7172 16.8961H38.5575V18.7035H36.0549C35.3266 18.7035 34.8234 18.8227 34.5454 19.061C34.2805 19.2994 34.1481 19.5973 34.1481 19.9548C34.1481 20.3521 34.3004 20.6698 34.6049 20.9082C34.9227 21.1333 35.3531 21.2458 35.896 21.2458C36.4124 21.2458 36.8758 21.1267 37.2863 20.8883C37.6968 20.6367 37.9947 20.2726 38.1801 19.7959L38.6568 21.226C38.4317 21.9145 38.0212 22.4376 37.4254 22.7951C36.8295 23.1526 36.0615 23.3314 35.1214 23.3314Z" fill="white"/>
<path d="M44.0829 23.1725V8.43481H47.1814V23.1725H44.0829Z" fill="white"/>
<path d="M50.057 23.1725V12.4867H53.1555V23.1725H50.057ZM51.6063 10.997C51.0369 10.997 50.5734 10.8315 50.2159 10.5005C49.8584 10.1694 49.6796 9.75895 49.6796 9.26902C49.6796 8.77908 49.8584 8.3686 50.2159 8.03757C50.5734 7.70653 51.0369 7.54102 51.6063 7.54102C52.1756 7.54102 52.6391 7.69991 52.9966 8.01771C53.3541 8.32226 53.5329 8.7195 53.5329 9.20943C53.5329 9.72584 53.3541 10.1562 52.9966 10.5005C52.6523 10.8315 52.1889 10.997 51.6063 10.997Z" fill="white"/>
<path d="M60.4008 23.3314C59.1429 23.3314 58.163 23.0136 57.4612 22.378C56.7594 21.7292 56.4085 20.7692 56.4085 19.498V10.1231H59.507V19.4583C59.507 19.9085 59.6262 20.2594 59.8645 20.5109C60.1029 20.7493 60.4273 20.8685 60.8378 20.8685C61.3277 20.8685 61.7448 20.7361 62.0891 20.4712L62.9233 22.6561C62.6055 22.8812 62.2215 23.0533 61.7713 23.1725C61.3343 23.2784 60.8775 23.3314 60.4008 23.3314ZM54.76 15.1085V12.725H62.1685V15.1085H54.76Z" fill="white"/>
<path d="M65.8193 27.1846C65.2631 27.1846 64.7136 27.0985 64.1707 26.9264C63.6278 26.7543 63.1842 26.5159 62.84 26.2114L63.9721 24.0067C64.2104 24.2185 64.4819 24.3841 64.7864 24.5032C65.1042 24.6224 65.4154 24.682 65.72 24.682C66.1569 24.682 66.5012 24.5761 66.7528 24.3642C67.0176 24.1656 67.256 23.8279 67.4678 23.3512L68.024 22.0403L68.2623 21.7027L72.0957 12.4867H75.075L70.2485 23.8279C69.9042 24.6886 69.507 25.3639 69.0568 25.8538C68.6198 26.3438 68.1299 26.688 67.587 26.8867C67.0574 27.0853 66.4681 27.1846 65.8193 27.1846ZM67.6466 23.5896L62.8797 12.4867H66.0775L69.7718 21.4246L67.6466 23.5896Z" fill="white"/>
<path d="M88.8366 23.4108C87.7641 23.4108 86.7643 23.2387 85.8374 22.8944C84.9238 22.5369 84.1293 22.0337 83.454 21.3849C82.7787 20.7361 82.249 19.9747 81.865 19.1007C81.4943 18.2268 81.3089 17.2668 81.3089 16.2207C81.3089 15.1747 81.4943 14.2147 81.865 13.3407C82.249 12.4668 82.7787 11.7054 83.454 11.0566C84.1426 10.4078 84.9436 9.91122 85.8573 9.56695C86.771 9.20943 87.7707 9.03067 88.8565 9.03067C90.0614 9.03067 91.1472 9.24253 92.1139 9.66626C93.0937 10.0767 93.9147 10.6858 94.5768 11.4936L92.5111 13.4003C92.0344 12.8574 91.5048 12.4536 90.9221 12.1887C90.3395 11.9107 89.7039 11.7716 89.0154 11.7716C88.3665 11.7716 87.7707 11.8776 87.2278 12.0894C86.6849 12.3013 86.2148 12.6058 85.8176 13.0031C85.4203 13.4003 85.1092 13.8704 84.8841 14.4133C84.6722 14.9562 84.5663 15.5587 84.5663 16.2207C84.5663 16.8828 84.6722 17.4853 84.8841 18.0282C85.1092 18.5711 85.4203 19.0412 85.8176 19.4384C86.2148 19.8356 86.6849 20.1402 87.2278 20.3521C87.7707 20.5639 88.3665 20.6698 89.0154 20.6698C89.7039 20.6698 90.3395 20.5374 90.9221 20.2726C91.5048 19.9945 92.0344 19.5774 92.5111 19.0213L94.5768 20.9281C93.9147 21.7358 93.0937 22.3515 92.1139 22.7752C91.1472 23.1989 90.0548 23.4108 88.8366 23.4108Z" fill="white"/>
<path d="M101.247 23.3314C100.109 23.3314 99.0956 23.093 98.2084 22.6163C97.3345 22.1396 96.6393 21.4908 96.1229 20.6698C95.6197 19.8356 95.3681 18.8889 95.3681 17.8296C95.3681 16.757 95.6197 15.8103 96.1229 14.9893C96.6393 14.1551 97.3345 13.5063 98.2084 13.0428C99.0956 12.5661 100.109 12.3278 101.247 12.3278C102.373 12.3278 103.379 12.5661 104.266 13.0428C105.154 13.5063 105.849 14.1485 106.352 14.9694C106.855 15.7904 107.107 16.7438 107.107 17.8296C107.107 18.8889 106.855 19.8356 106.352 20.6698C105.849 21.4908 105.154 22.1396 104.266 22.6163C103.379 23.093 102.373 23.3314 101.247 23.3314ZM101.247 20.789C101.764 20.789 102.227 20.6698 102.638 20.4315C103.048 20.1932 103.373 19.8555 103.611 19.4185C103.849 18.9683 103.968 18.4387 103.968 17.8296C103.968 17.2072 103.849 16.6776 103.611 16.2406C103.373 15.8036 103.048 15.466 102.638 15.2276C102.227 14.9893 101.764 14.8701 101.247 14.8701C100.731 14.8701 100.267 14.9893 99.857 15.2276C99.4465 15.466 99.1154 15.8036 98.8639 16.2406C98.6255 16.6776 98.5063 17.2072 98.5063 17.8296C98.5063 18.4387 98.6255 18.9683 98.8639 19.4185C99.1154 19.8555 99.4465 20.1932 99.857 20.4315C100.267 20.6698 100.731 20.789 101.247 20.789Z" fill="white"/>
<path d="M115.673 12.3278C116.52 12.3278 117.275 12.4999 117.937 12.8442C118.612 13.1752 119.142 13.6916 119.526 14.3934C119.91 15.082 120.102 15.9692 120.102 17.0549V23.1725H117.003V17.5316C117.003 16.6709 116.811 16.0354 116.427 15.6249C116.057 15.2144 115.527 15.0092 114.838 15.0092C114.348 15.0092 113.905 15.1151 113.508 15.3269C113.124 15.5256 112.819 15.8367 112.594 16.2605C112.382 16.6842 112.276 17.2271 112.276 17.8892V23.1725H109.178V12.4867H112.137V15.4461L111.581 14.5523C111.965 13.8373 112.515 13.2878 113.23 12.9038C113.945 12.5198 114.759 12.3278 115.673 12.3278Z" fill="white"/>
<path d="M127.28 23.3314C126.022 23.3314 125.042 23.0136 124.341 22.378C123.639 21.7292 123.288 20.7692 123.288 19.498V10.1231H126.386V19.4583C126.386 19.9085 126.505 20.2594 126.744 20.5109C126.982 20.7493 127.307 20.8685 127.717 20.8685C128.207 20.8685 128.624 20.7361 128.968 20.4712L129.803 22.6561C129.485 22.8812 129.101 23.0533 128.651 23.1725C128.214 23.2784 127.757 23.3314 127.28 23.3314ZM121.639 15.1085V12.725H129.048V15.1085H121.639Z" fill="white"/>
<path d="M131.542 23.1725V12.4867H134.501V15.5057L134.084 14.6318C134.402 13.877 134.912 13.3076 135.614 12.9236C136.315 12.5264 137.17 12.3278 138.176 12.3278V15.1879C138.043 15.1747 137.924 15.1681 137.818 15.1681C137.712 15.1548 137.6 15.1482 137.481 15.1482C136.633 15.1482 135.945 15.3932 135.415 15.8831C134.899 16.3598 134.64 17.1079 134.64 18.1275V23.1725H131.542Z" fill="white"/>
<path d="M145.006 23.3314C143.867 23.3314 142.854 23.093 141.967 22.6163C141.093 22.1396 140.398 21.4908 139.882 20.6698C139.378 19.8356 139.127 18.8889 139.127 17.8296C139.127 16.757 139.378 15.8103 139.882 14.9893C140.398 14.1551 141.093 13.5063 141.967 13.0428C142.854 12.5661 143.867 12.3278 145.006 12.3278C146.131 12.3278 147.138 12.5661 148.025 13.0428C148.912 13.5063 149.607 14.1485 150.11 14.9694C150.614 15.7904 150.865 16.7438 150.865 17.8296C150.865 18.8889 150.614 19.8356 150.11 20.6698C149.607 21.4908 148.912 22.1396 148.025 22.6163C147.138 23.093 146.131 23.3314 145.006 23.3314ZM145.006 20.789C145.522 20.789 145.986 20.6698 146.396 20.4315C146.807 20.1932 147.131 19.8555 147.37 19.4185C147.608 18.9683 147.727 18.4387 147.727 17.8296C147.727 17.2072 147.608 16.6776 147.37 16.2406C147.131 15.8036 146.807 15.466 146.396 15.2276C145.986 14.9893 145.522 14.8701 145.006 14.8701C144.49 14.8701 144.026 14.9893 143.616 15.2276C143.205 15.466 142.874 15.8036 142.622 16.2406C142.384 16.6776 142.265 17.2072 142.265 17.8296C142.265 18.4387 142.384 18.9683 142.622 19.4185C142.874 19.8555 143.205 20.1932 143.616 20.4315C144.026 20.6698 144.49 20.789 145.006 20.789Z" fill="white"/>
<path d="M152.936 23.1725V8.43481H156.035V23.1725H152.936Z" fill="white"/>
<path d="M177.655 32C186.492 32 193.655 24.8366 193.655 16C193.655 7.16344 186.492 0 177.655 0C168.819 0 161.655 7.16344 161.655 16C161.655 18.5853 162.268 21.0274 163.357 23.1888C163.661 23.7922 163.697 24.5042 163.398 25.1102L160.599 30.7845C160.394 31.2012 160.818 31.6485 161.245 31.4651L166.751 29.1C167.42 28.8123 168.188 28.9203 168.794 29.3244C171.331 31.0148 174.378 32 177.655 32Z" fill="#2F8733"/>
<g clip-path="url(#clip0_1500_69003)">
<path d="M167.899 10.5193L167.725 9.86963L168.374 9.69554L168.548 10.3452L167.899 10.5193Z" fill="white"/>
<path d="M168.074 11.1687L167.899 10.519L168.549 10.345L168.723 10.9947L168.074 11.1687Z" fill="white"/>
<path d="M168.247 11.8186L168.073 11.1689L168.723 10.9949L168.897 11.6446L168.247 11.8186Z" fill="white"/>
<path d="M168.422 12.4686L168.248 11.8188L168.898 11.6448L169.072 12.2945L168.422 12.4686Z" fill="white"/>
<path d="M168.595 13.118L168.421 12.4683L169.071 12.2942L169.245 12.9439L168.595 13.118Z" fill="white"/>
<path d="M168.77 13.7679L168.596 13.1182L169.245 12.9441L169.419 13.5938L168.77 13.7679Z" fill="white"/>
<path d="M168.944 14.4173L168.77 13.7676L169.419 13.5935L169.593 14.2432L168.944 14.4173Z" fill="white"/>
<path d="M169.291 15.7171L169.117 15.0674L169.767 14.8933L169.941 15.543L169.291 15.7171Z" fill="white"/>
<path d="M169.466 16.3665L169.292 15.7168L169.942 15.5427L170.116 16.1924L169.466 16.3665Z" fill="white"/>
<path d="M170.685 20.9148L170.511 20.2651L171.16 20.091L171.335 20.7408L170.685 20.9148Z" fill="white"/>
<path d="M171.032 22.2142L170.858 21.5645L171.508 21.3904L171.682 22.0401L171.032 22.2142Z" fill="white"/>
<path d="M171.207 22.8641L171.033 22.2144L171.683 22.0403L171.857 22.69L171.207 22.8641Z" fill="white"/>
<path d="M171.381 23.5135L171.207 22.8638L171.857 22.6897L172.031 23.3394L171.381 23.5135Z" fill="white"/>
<path d="M171.555 24.1634L171.381 23.5137L172.031 23.3396L172.205 23.9893L171.555 24.1634Z" fill="white"/>
<path d="M171.729 24.8128L171.555 24.1631L172.204 23.989L172.378 24.6387L171.729 24.8128Z" fill="white"/>
<path d="M171.904 25.4627L171.729 24.813L172.379 24.6389L172.553 25.2886L171.904 25.4627Z" fill="white"/>
<path d="M172.076 26.1126L171.902 25.4629L172.552 25.2888L172.726 25.9385L172.076 26.1126Z" fill="white"/>
<path d="M168.548 10.3455L168.374 9.6958L169.024 9.52171L169.198 10.1714L168.548 10.3455Z" fill="white"/>
<path d="M169.593 14.2439L169.419 13.5942L170.069 13.4202L170.243 14.0699L169.593 14.2439Z" fill="white"/>
<path d="M170.812 18.7918L170.638 18.1421L171.287 17.968L171.461 18.6177L170.812 18.7918Z" fill="white"/>
<path d="M171.334 20.741L171.16 20.0913L171.81 19.9172L171.984 20.5669L171.334 20.741Z" fill="white"/>
<path d="M171.682 22.0403L171.508 21.3906L172.158 21.2165L172.332 21.8662L171.682 22.0403Z" fill="white"/>
<path d="M172.726 25.9388L172.552 25.2891L173.201 25.115L173.376 25.7647L172.726 25.9388Z" fill="white"/>
<path d="M169.198 10.1712L169.023 9.52148L169.673 9.3474L169.847 9.9971L169.198 10.1712Z" fill="white"/>
<path d="M169.546 11.4705L169.372 10.8208L170.022 10.6467L170.196 11.2964L169.546 11.4705Z" fill="white"/>
<path d="M169.721 12.1204L169.547 11.4707L170.197 11.2966L170.371 11.9463L169.721 12.1204Z" fill="white"/>
<path d="M169.894 12.7698L169.72 12.1201L170.369 11.946L170.544 12.5957L169.894 12.7698Z" fill="white"/>
<path d="M170.242 14.0691L170.068 13.4194L170.718 13.2453L170.892 13.8951L170.242 14.0691Z" fill="white"/>
<path d="M170.59 15.3689L170.416 14.7192L171.066 14.5452L171.24 15.1949L170.59 15.3689Z" fill="white"/>
<path d="M171.113 17.3182L170.938 16.6685L171.588 16.4944L171.762 17.1441L171.113 17.3182Z" fill="white"/>
<path d="M171.287 17.9676L171.113 17.3179L171.763 17.1438L171.937 17.7935L171.287 17.9676Z" fill="white"/>
<path d="M171.461 18.6175L171.287 17.9678L171.937 17.7937L172.111 18.4434L171.461 18.6175Z" fill="white"/>
<path d="M171.809 19.9168L171.635 19.2671L172.284 19.093L172.459 19.7427L171.809 19.9168Z" fill="white"/>
<path d="M172.331 21.866L172.157 21.2163L172.807 21.0422L172.981 21.6919L172.331 21.866Z" fill="white"/>
<path d="M172.68 23.1653L172.506 22.5156L173.156 22.3415L173.33 22.9912L172.68 23.1653Z" fill="white"/>
<path d="M172.854 23.8152L172.68 23.1655L173.329 22.9914L173.503 23.6411L172.854 23.8152Z" fill="white"/>
<path d="M173.028 24.4646L172.854 23.8149L173.503 23.6409L173.677 24.2906L173.028 24.4646Z" fill="white"/>
<path d="M173.376 25.7645L173.202 25.1147L173.852 24.9407L174.026 25.5904L173.376 25.7645Z" fill="white"/>
<path d="M169.848 9.99736L169.674 9.34766L170.324 9.17357L170.498 9.82327L169.848 9.99736Z" fill="white"/>
<path d="M170.197 11.2967L170.022 10.647L170.672 10.4729L170.846 11.1226L170.197 11.2967Z" fill="white"/>
<path d="M170.371 11.9466L170.197 11.2969L170.847 11.1228L171.021 11.7725L170.371 11.9466Z" fill="white"/>
<path d="M170.544 12.596L170.37 11.9463L171.02 11.7722L171.194 12.4219L170.544 12.596Z" fill="white"/>
<path d="M170.893 13.8953L170.719 13.2456L171.368 13.0715L171.543 13.7212L170.893 13.8953Z" fill="white"/>
<path d="M171.24 15.1951L171.066 14.5454L171.716 14.3713L171.89 15.021L171.24 15.1951Z" fill="white"/>
<path d="M171.415 15.8445L171.241 15.1948L171.891 15.0207L172.065 15.6704L171.415 15.8445Z" fill="white"/>
<path d="M171.763 17.1443L171.589 16.4946L172.239 16.3205L172.413 16.9702L171.763 17.1443Z" fill="white"/>
<path d="M172.112 18.4436L171.938 17.7939L172.587 17.6199L172.761 18.2696L172.112 18.4436Z" fill="white"/>
<path d="M172.285 19.0931L172.111 18.4434L172.761 18.2693L172.935 18.919L172.285 19.0931Z" fill="white"/>
<path d="M172.982 21.6922L172.808 21.0425L173.457 20.8684L173.631 21.5181L172.982 21.6922Z" fill="white"/>
<path d="M173.33 22.9915L173.156 22.3418L173.806 22.1677L173.98 22.8174L173.33 22.9915Z" fill="white"/>
<path d="M173.504 23.6414L173.33 22.9917L173.98 22.8176L174.154 23.4673L173.504 23.6414Z" fill="white"/>
<path d="M173.678 24.2908L173.504 23.6411L174.154 23.467L174.328 24.1167L173.678 24.2908Z" fill="white"/>
<path d="M174.027 25.5906L173.853 24.9409L174.502 24.7668L174.676 25.4165L174.027 25.5906Z" fill="white"/>
<path d="M170.497 9.82304L170.323 9.17334L170.973 8.99925L171.147 9.64896L170.497 9.82304Z" fill="white"/>
<path d="M170.846 11.1224L170.672 10.4727L171.322 10.2986L171.496 10.9483L170.846 11.1224Z" fill="white"/>
<path d="M171.021 11.7723L170.847 11.1226L171.496 10.9485L171.67 11.5982L171.021 11.7723Z" fill="white"/>
<path d="M171.194 12.4217L171.02 11.772L171.669 11.5979L171.843 12.2476L171.194 12.4217Z" fill="white"/>
<path d="M171.542 13.721L171.368 13.0713L172.018 12.8972L172.192 13.5469L171.542 13.721Z" fill="white"/>
<path d="M171.89 15.0208L171.716 14.3711L172.366 14.197L172.54 14.8467L171.89 15.0208Z" fill="white"/>
<path d="M172.065 15.6702L171.891 15.0205L172.54 14.8464L172.714 15.4961L172.065 15.6702Z" fill="white"/>
<path d="M172.24 16.3201L172.065 15.6704L172.715 15.4963L172.889 16.146L172.24 16.3201Z" fill="white"/>
<path d="M172.412 16.97L172.238 16.3203L172.888 16.1462L173.062 16.7959L172.412 16.97Z" fill="white"/>
<path d="M173.109 19.5686L172.935 18.9189L173.584 18.7449L173.758 19.3946L173.109 19.5686Z" fill="white"/>
<path d="M173.283 20.2186L173.109 19.5688L173.759 19.3948L173.933 20.0445L173.283 20.2186Z" fill="white"/>
<path d="M173.631 21.5179L173.457 20.8682L174.107 20.6941L174.281 21.3438L173.631 21.5179Z" fill="white"/>
<path d="M173.98 22.8172L173.806 22.1675L174.455 21.9934L174.629 22.6431L173.98 22.8172Z" fill="white"/>
<path d="M174.154 23.4671L173.979 22.8174L174.629 22.6433L174.803 23.293L174.154 23.4671Z" fill="white"/>
<path d="M174.327 24.1165L174.153 23.4668L174.803 23.2927L174.977 23.9424L174.327 24.1165Z" fill="white"/>
<path d="M174.676 25.4163L174.502 24.7666L175.152 24.5925L175.326 25.2422L174.676 25.4163Z" fill="white"/>
<path d="M171.148 9.64873L170.974 8.99902L171.623 8.82494L171.797 9.47464L171.148 9.64873Z" fill="white"/>
<path d="M172.193 13.5472L172.019 12.8975L172.668 12.7234L172.842 13.3731L172.193 13.5472Z" fill="white"/>
<path d="M172.715 15.4959L172.541 14.8462L173.191 14.6721L173.365 15.3218L172.715 15.4959Z" fill="white"/>
<path d="M173.238 17.4451L173.063 16.7954L173.713 16.6213L173.887 17.271L173.238 17.4451Z" fill="white"/>
<path d="M173.411 18.095L173.237 17.4453L173.887 17.2712L174.061 17.9209L173.411 18.095Z" fill="white"/>
<path d="M173.585 18.7444L173.411 18.0947L174.061 17.9206L174.235 18.5703L173.585 18.7444Z" fill="white"/>
<path d="M174.282 21.3436L174.107 20.6938L174.757 20.5198L174.931 21.1695L174.282 21.3436Z" fill="white"/>
<path d="M175.325 25.242L175.151 24.5923L175.801 24.4182L175.975 25.0679L175.325 25.242Z" fill="white"/>
<path d="M171.797 9.4749L171.623 8.8252L172.273 8.65111L172.447 9.30081L171.797 9.4749Z" fill="white"/>
<path d="M171.972 10.1243L171.798 9.47461L172.448 9.30052L172.622 9.95023L171.972 10.1243Z" fill="white"/>
<path d="M172.146 10.7742L171.972 10.1245L172.621 9.95042L172.795 10.6001L172.146 10.7742Z" fill="white"/>
<path d="M172.321 11.4241L172.146 10.7744L172.796 10.6003L172.97 11.25L172.321 11.4241Z" fill="white"/>
<path d="M172.493 12.0735L172.319 11.4238L172.969 11.2497L173.143 11.8994L172.493 12.0735Z" fill="white"/>
<path d="M172.668 12.7234L172.494 12.0737L173.144 11.8996L173.318 12.5493L172.668 12.7234Z" fill="white"/>
<path d="M172.842 13.3728L172.668 12.7231L173.318 12.5491L173.492 13.1988L172.842 13.3728Z" fill="white"/>
<path d="M173.19 14.6727L173.016 14.0229L173.665 13.8489L173.839 14.4986L173.19 14.6727Z" fill="white"/>
<path d="M173.539 15.972L173.365 15.3223L174.015 15.1482L174.189 15.7979L173.539 15.972Z" fill="white"/>
<path d="M173.887 17.2713L173.713 16.6216L174.363 16.4475L174.537 17.0972L173.887 17.2713Z" fill="white"/>
<path d="M174.235 18.5706L174.061 17.9209L174.71 17.7468L174.884 18.3965L174.235 18.5706Z" fill="white"/>
<path d="M174.583 19.8704L174.409 19.2207L175.059 19.0466L175.233 19.6963L174.583 19.8704Z" fill="white"/>
<path d="M174.931 21.1697L174.757 20.52L175.407 20.3459L175.581 20.9956L174.931 21.1697Z" fill="white"/>
<path d="M175.106 21.8196L174.932 21.1699L175.581 20.9958L175.755 21.6455L175.106 21.8196Z" fill="white"/>
<path d="M175.28 22.469L175.105 21.8193L175.755 21.6452L175.929 22.295L175.28 22.469Z" fill="white"/>
<path d="M175.453 23.1189L175.279 22.4692L175.929 22.2952L176.103 22.9449L175.453 23.1189Z" fill="white"/>
<path d="M175.627 23.7684L175.453 23.1187L176.103 22.9446L176.277 23.5943L175.627 23.7684Z" fill="white"/>
<path d="M175.802 24.4183L175.628 23.7686L176.278 23.5945L176.452 24.2442L175.802 24.4183Z" fill="white"/>
<path d="M175.976 25.0682L175.802 24.4185L176.451 24.2444L176.626 24.8941L175.976 25.0682Z" fill="white"/>
<path d="M174.014 15.1482L173.84 14.4985L174.49 14.3244L174.664 14.9742L174.014 15.1482Z" fill="white"/>
<path d="M174.363 16.4476L174.188 15.7979L174.838 15.6238L175.012 16.2735L174.363 16.4476Z" fill="white"/>
<path d="M174.885 18.3968L174.711 17.7471L175.361 17.573L175.535 18.2227L174.885 18.3968Z" fill="white"/>
<path d="M175.059 19.0467L174.885 18.397L175.534 18.2229L175.709 18.8726L175.059 19.0467Z" fill="white"/>
<path d="M173.097 9.12676L172.923 8.47705L173.573 8.30296L173.747 8.95267L173.097 9.12676Z" fill="white"/>
<path d="M173.272 9.77617L173.098 9.12646L173.747 8.95238L173.921 9.60208L173.272 9.77617Z" fill="white"/>
<path d="M173.446 10.4261L173.271 9.77637L173.921 9.60228L174.095 10.252L173.446 10.4261Z" fill="white"/>
<path d="M173.62 11.076L173.446 10.4263L174.096 10.2522L174.27 10.9019L173.62 11.076Z" fill="white"/>
<path d="M174.142 13.0247L173.968 12.375L174.617 12.2009L174.792 12.8506L174.142 13.0247Z" fill="white"/>
<path d="M174.49 14.3245L174.315 13.6748L174.965 13.5007L175.139 14.1504L174.49 14.3245Z" fill="white"/>
<path d="M176.057 20.1717L175.883 19.522L176.533 19.3479L176.707 19.9976L176.057 20.1717Z" fill="white"/>
<path d="M176.579 22.1209L176.405 21.4712L177.055 21.2971L177.229 21.9468L176.579 22.1209Z" fill="white"/>
<path d="M176.753 22.7708L176.579 22.1211L177.229 21.947L177.403 22.5967L176.753 22.7708Z" fill="white"/>
<path d="M176.927 23.4202L176.753 22.7705L177.403 22.5964L177.577 23.2461L176.927 23.4202Z" fill="white"/>
<path d="M177.276 24.72L177.102 24.0703L177.751 23.8962L177.925 24.5459L177.276 24.72Z" fill="white"/>
<path d="M174.615 12.2015L174.441 11.5518L175.091 11.3777L175.265 12.0274L174.615 12.2015Z" fill="white"/>
<path d="M174.964 13.5008L174.79 12.8511L175.44 12.677L175.614 13.3267L174.964 13.5008Z" fill="white"/>
<path d="M175.139 14.1507L174.965 13.501L175.615 13.3269L175.789 13.9766L175.139 14.1507Z" fill="white"/>
<path d="M175.312 14.8001L175.138 14.1504L175.787 13.9763L175.961 14.626L175.312 14.8001Z" fill="white"/>
<path d="M176.008 17.3992L175.834 16.7495L176.484 16.5754L176.658 17.2251L176.008 17.3992Z" fill="white"/>
<path d="M176.531 19.3484L176.356 18.6987L177.006 18.5246L177.18 19.1743L176.531 19.3484Z" fill="white"/>
<path d="M177.053 21.2972L176.879 20.6475L177.529 20.4734L177.703 21.1231L177.053 21.2972Z" fill="white"/>
<path d="M177.749 23.8963L177.575 23.2466L178.225 23.0725L178.399 23.7222L177.749 23.8963Z" fill="white"/>
<path d="M174.395 8.77861L174.221 8.12891L174.87 7.95482L175.044 8.60452L174.395 8.77861Z" fill="white"/>
<path d="M174.57 9.42802L174.396 8.77832L175.045 8.60423L175.219 9.25394L174.57 9.42802Z" fill="white"/>
<path d="M174.918 10.7278L174.744 10.0781L175.394 9.90404L175.568 10.5537L174.918 10.7278Z" fill="white"/>
<path d="M175.44 12.6766L175.266 12.0269L175.915 11.8528L176.089 12.5025L175.44 12.6766Z" fill="white"/>
<path d="M175.787 13.9764L175.613 13.3267L176.263 13.1526L176.437 13.8023L175.787 13.9764Z" fill="white"/>
<path d="M176.658 17.2249L176.484 16.5752L177.134 16.4011L177.308 17.0508L176.658 17.2249Z" fill="white"/>
<path d="M177.181 19.1741L177.007 18.5244L177.657 18.3503L177.831 19L177.181 19.1741Z" fill="white"/>
<path d="M177.529 20.4734L177.354 19.8237L178.004 19.6496L178.178 20.2993L177.529 20.4734Z" fill="white"/>
<path d="M177.703 21.1233L177.529 20.4736L178.179 20.2995L178.353 20.9492L177.703 21.1233Z" fill="white"/>
<path d="M177.877 21.7728L177.703 21.123L178.353 20.949L178.527 21.5987L177.877 21.7728Z" fill="white"/>
<path d="M175.219 9.2542L175.045 8.60449L175.695 8.4304L175.869 9.08011L175.219 9.2542Z" fill="white"/>
<path d="M175.394 9.90361L175.22 9.25391L175.869 9.07982L176.044 9.72952L175.394 9.90361Z" fill="white"/>
<path d="M175.742 11.2034L175.568 10.5537L176.218 10.3796L176.392 11.0293L175.742 11.2034Z" fill="white"/>
<path d="M175.915 11.8528L175.741 11.2031L176.391 11.029L176.565 11.6787L175.915 11.8528Z" fill="white"/>
<path d="M176.264 13.1526L176.09 12.5029L176.74 12.3288L176.914 12.9785L176.264 13.1526Z" fill="white"/>
<path d="M176.438 13.802L176.264 13.1523L176.913 12.9783L177.087 13.628L176.438 13.802Z" fill="white"/>
<path d="M176.961 15.7513L176.787 15.1016L177.437 14.9275L177.611 15.5772L176.961 15.7513Z" fill="white"/>
<path d="M177.134 16.4012L176.96 15.7515L177.61 15.5774L177.784 16.2271L177.134 16.4012Z" fill="white"/>
<path d="M177.309 17.0506L177.135 16.4009L177.784 16.2268L177.959 16.8765L177.309 17.0506Z" fill="white"/>
<path d="M178.005 19.6497L177.831 19L178.481 18.8259L178.655 19.4756L178.005 19.6497Z" fill="white"/>
<path d="M178.353 20.949L178.179 20.2993L178.828 20.1252L179.003 20.7749L178.353 20.949Z" fill="white"/>
<path d="M178.701 22.2483L178.527 21.5986L179.177 21.4245L179.351 22.0742L178.701 22.2483Z" fill="white"/>
<path d="M178.875 22.8982L178.701 22.2485L179.351 22.0744L179.525 22.7242L178.875 22.8982Z" fill="white"/>
<path d="M175.695 8.43047L175.521 7.78076L176.17 7.60667L176.344 8.25638L175.695 8.43047Z" fill="white"/>
<path d="M175.869 9.07988L175.695 8.43018L176.345 8.25609L176.519 8.90579L175.869 9.07988Z" fill="white"/>
<path d="M176.043 9.72978L175.869 9.08008L176.519 8.90599L176.693 9.55569L176.043 9.72978Z" fill="white"/>
<path d="M176.218 10.3797L176.044 9.72998L176.694 9.55589L176.868 10.2056L176.218 10.3797Z" fill="white"/>
<path d="M176.566 11.679L176.392 11.0293L177.041 10.8552L177.215 11.5049L176.566 11.679Z" fill="white"/>
<path d="M176.74 12.3284L176.565 11.6787L177.215 11.5046L177.389 12.1543L176.74 12.3284Z" fill="white"/>
<path d="M176.913 12.9783L176.739 12.3286L177.389 12.1545L177.563 12.8042L176.913 12.9783Z" fill="white"/>
<path d="M177.087 13.6282L176.913 12.9785L177.563 12.8044L177.737 13.4541L177.087 13.6282Z" fill="white"/>
<path d="M177.262 14.2776L177.088 13.6279L177.738 13.4538L177.912 14.1035L177.262 14.2776Z" fill="white"/>
<path d="M177.61 15.5774L177.436 14.9277L178.085 14.7536L178.259 15.4033L177.61 15.5774Z" fill="white"/>
<path d="M177.958 16.8768L177.784 16.2271L178.434 16.053L178.608 16.7027L177.958 16.8768Z" fill="white"/>
<path d="M178.132 17.5262L177.958 16.8765L178.608 16.7024L178.782 17.3521L178.132 17.5262Z" fill="white"/>
<path d="M178.828 20.1253L178.654 19.4756L179.304 19.3015L179.478 19.9512L178.828 20.1253Z" fill="white"/>
<path d="M179.003 20.7752L178.829 20.1255L179.479 19.9514L179.653 20.6011L179.003 20.7752Z" fill="white"/>
<path d="M179.177 21.4246L179.003 20.7749L179.653 20.6008L179.827 21.2505L179.177 21.4246Z" fill="white"/>
<path d="M179.525 22.7239L179.351 22.0742L180 21.9001L180.174 22.5498L179.525 22.7239Z" fill="white"/>
<path d="M179.699 23.3738L179.525 22.7241L180.175 22.55L180.349 23.1997L179.699 23.3738Z" fill="white"/>
<path d="M179.873 24.0237L179.699 23.374L180.349 23.1999L180.523 23.8496L179.873 24.0237Z" fill="white"/>
<path d="M176.519 8.90605L176.345 8.25635L176.994 8.08226L177.169 8.73196L176.519 8.90605Z" fill="white"/>
<path d="M176.694 9.55547L176.52 8.90576L177.169 8.73167L177.343 9.38138L176.694 9.55547Z" fill="white"/>
<path d="M177.738 13.4539L177.563 12.8042L178.213 12.6301L178.387 13.2798L177.738 13.4539Z" fill="white"/>
<path d="M177.911 14.1038L177.737 13.4541L178.387 13.28L178.561 13.9297L177.911 14.1038Z" fill="white"/>
<path d="M178.086 14.7532L177.912 14.1035L178.562 13.9294L178.736 14.5791L178.086 14.7532Z" fill="white"/>
<path d="M178.261 15.4031L178.087 14.7534L178.737 14.5793L178.911 15.229L178.261 15.4031Z" fill="white"/>
<path d="M178.782 17.3523L178.608 16.7026L179.258 16.5285L179.432 17.1783L178.782 17.3523Z" fill="white"/>
<path d="M178.956 18.0018L178.782 17.3521L179.432 17.178L179.606 17.8277L178.956 18.0018Z" fill="white"/>
<path d="M179.305 19.3016L179.131 18.6519L179.781 18.4778L179.955 19.1275L179.305 19.3016Z" fill="white"/>
<path d="M179.479 19.951L179.305 19.3013L179.954 19.1272L180.128 19.7769L179.479 19.951Z" fill="white"/>
<path d="M179.653 20.6009L179.479 19.9512L180.128 19.7771L180.302 20.4268L179.653 20.6009Z" fill="white"/>
<path d="M179.827 21.2508L179.653 20.6011L180.303 20.427L180.477 21.0767L179.827 21.2508Z" fill="white"/>
<path d="M180.524 23.8494L180.35 23.1997L180.999 23.0256L181.173 23.6753L180.524 23.8494Z" fill="white"/>
<path d="M177.168 8.73174L176.994 8.08203L177.644 7.90794L177.818 8.55765L177.168 8.73174Z" fill="white"/>
<path d="M177.692 10.681L177.518 10.0312L178.167 9.85716L178.341 10.5069L177.692 10.681Z" fill="white"/>
<path d="M177.865 11.3304L177.69 10.6807L178.34 10.5066L178.514 11.1563L177.865 11.3304Z" fill="white"/>
<path d="M178.039 11.9803L177.865 11.3306L178.515 11.1565L178.689 11.8062L178.039 11.9803Z" fill="white"/>
<path d="M179.083 15.8787L178.909 15.229L179.559 15.0549L179.733 15.7046L179.083 15.8787Z" fill="white"/>
<path d="M179.78 18.4773L179.605 17.8276L180.255 17.6535L180.429 18.3033L179.78 18.4773Z" fill="white"/>
<path d="M179.954 19.1272L179.78 18.4775L180.43 18.3035L180.604 18.9532L179.954 19.1272Z" fill="white"/>
<path d="M180.128 19.7767L179.954 19.127L180.604 18.9529L180.778 19.6026L180.128 19.7767Z" fill="white"/>
<path d="M180.477 21.0765L180.303 20.4268L180.952 20.2527L181.127 20.9024L180.477 21.0765Z" fill="white"/>
<path d="M180.824 22.3758L180.65 21.7261L181.3 21.552L181.474 22.2017L180.824 22.3758Z" fill="white"/>
<path d="M180.998 23.0252L180.824 22.3755L181.474 22.2014L181.648 22.8511L180.998 23.0252Z" fill="white"/>
<path d="M177.644 7.90801L177.47 7.2583L178.119 7.08421L178.294 7.73392L177.644 7.90801Z" fill="white"/>
<path d="M178.515 11.1565L178.341 10.5068L178.991 10.3327L179.165 10.9825L178.515 11.1565Z" fill="white"/>
<path d="M178.863 12.4559L178.688 11.8062L179.338 11.6321L179.512 12.2818L178.863 12.4559Z" fill="white"/>
<path d="M179.036 13.1058L178.862 12.4561L179.512 12.282L179.686 12.9317L179.036 13.1058Z" fill="white"/>
<path d="M179.386 14.4051L179.212 13.7554L179.862 13.5813L180.036 14.231L179.386 14.4051Z" fill="white"/>
<path d="M179.734 15.7044L179.56 15.0547L180.209 14.8806L180.383 15.5303L179.734 15.7044Z" fill="white"/>
<path d="M180.081 17.0037L179.907 16.354L180.557 16.1799L180.731 16.8296L180.081 17.0037Z" fill="white"/>
<path d="M180.43 18.3035L180.256 17.6538L180.906 17.4797L181.08 18.1294L180.43 18.3035Z" fill="white"/>
<path d="M180.952 20.2527L180.778 19.603L181.428 19.4289L181.602 20.0786L180.952 20.2527Z" fill="white"/>
<path d="M181.126 20.9021L180.952 20.2524L181.602 20.0784L181.776 20.7281L181.126 20.9021Z" fill="white"/>
<path d="M181.823 23.5013L181.648 22.8516L182.298 22.6775L182.472 23.3272L181.823 23.5013Z" fill="white"/>
<path d="M178.817 9.6834L178.643 9.03369L179.292 8.8596L179.466 9.50931L178.817 9.6834Z" fill="white"/>
<path d="M179.165 10.9827L178.991 10.333L179.641 10.1589L179.815 10.8086L179.165 10.9827Z" fill="white"/>
<path d="M179.34 11.6321L179.166 10.9824L179.816 10.8083L179.99 11.458L179.34 11.6321Z" fill="white"/>
<path d="M179.513 12.282L179.339 11.6323L179.989 11.4582L180.163 12.1079L179.513 12.282Z" fill="white"/>
<path d="M179.862 13.5813L179.688 12.9316L180.337 12.7576L180.511 13.4073L179.862 13.5813Z" fill="white"/>
<path d="M180.035 14.2312L179.861 13.5815L180.511 13.4075L180.685 14.0572L180.035 14.2312Z" fill="white"/>
<path d="M180.209 14.8811L180.035 14.2314L180.685 14.0574L180.859 14.7071L180.209 14.8811Z" fill="white"/>
<path d="M180.559 16.1805L180.385 15.5308L181.034 15.3567L181.209 16.0064L180.559 16.1805Z" fill="white"/>
<path d="M181.08 18.1297L180.906 17.48L181.556 17.3059L181.73 17.9556L181.08 18.1297Z" fill="white"/>
<path d="M181.254 18.7791L181.08 18.1294L181.73 17.9553L181.904 18.605L181.254 18.7791Z" fill="white"/>
<path d="M181.428 19.429L181.254 18.7793L181.904 18.6052L182.078 19.2549L181.428 19.429Z" fill="white"/>
<path d="M181.603 20.0789L181.429 19.4292L182.078 19.2551L182.253 19.9048L181.603 20.0789Z" fill="white"/>
<path d="M181.777 20.7283L181.603 20.0786L182.252 19.9045L182.426 20.5542L181.777 20.7283Z" fill="white"/>
<path d="M181.95 21.3782L181.776 20.7285L182.426 20.5544L182.6 21.2041L181.95 21.3782Z" fill="white"/>
<path d="M182.125 22.0276L181.951 21.3779L182.601 21.2038L182.775 21.8535L182.125 22.0276Z" fill="white"/>
<path d="M182.299 22.6775L182.125 22.0278L182.775 21.8537L182.949 22.5034L182.299 22.6775Z" fill="white"/>
<path d="M182.473 23.3274L182.299 22.6777L182.949 22.5036L183.123 23.1534L182.473 23.3274Z" fill="white"/>
<path d="M180.336 12.7576L180.162 12.1079L180.812 11.9338L180.986 12.5835L180.336 12.7576Z" fill="white"/>
<path d="M181.032 15.3562L180.858 14.7065L181.508 14.5325L181.682 15.1822L181.032 15.3562Z" fill="white"/>
<path d="M181.555 17.3055L181.381 16.6558L182.031 16.4817L182.205 17.1314L181.555 17.3055Z" fill="white"/>
<path d="M181.729 17.9554L181.555 17.3057L182.204 17.1316L182.378 17.7813L181.729 17.9554Z" fill="white"/>
<path d="M182.426 20.554L182.252 19.9043L182.902 19.7302L183.076 20.3799L182.426 20.554Z" fill="white"/>
<path d="M182.774 21.8533L182.6 21.2036L183.249 21.0295L183.423 21.6792L182.774 21.8533Z" fill="white"/>
<path d="M183.122 23.1531L182.948 22.5034L183.598 22.3293L183.772 22.979L183.122 23.1531Z" fill="white"/>
<path d="M179.593 7.38603L179.419 6.73633L180.069 6.56224L180.243 7.21194L179.593 7.38603Z" fill="white"/>
<path d="M179.768 8.03545L179.594 7.38574L180.243 7.21165L180.418 7.86136L179.768 8.03545Z" fill="white"/>
<path d="M179.942 8.68535L179.768 8.03564L180.417 7.86156L180.591 8.51126L179.942 8.68535Z" fill="white"/>
<path d="M180.116 9.33525L179.942 8.68555L180.592 8.51146L180.766 9.16116L180.116 9.33525Z" fill="white"/>
<path d="M180.289 9.98467L180.115 9.33496L180.765 9.16087L180.939 9.81058L180.289 9.98467Z" fill="white"/>
<path d="M180.464 10.6346L180.29 9.98486L180.94 9.81078L181.114 10.4605L180.464 10.6346Z" fill="white"/>
<path d="M180.638 11.2845L180.464 10.6348L181.114 10.4607L181.288 11.1104L180.638 11.2845Z" fill="white"/>
<path d="M181.16 13.2332L180.986 12.5835L181.636 12.4094L181.81 13.0591L181.16 13.2332Z" fill="white"/>
<path d="M181.508 14.533L181.334 13.8833L181.984 13.7092L182.158 14.3589L181.508 14.533Z" fill="white"/>
<path d="M181.683 15.1824L181.509 14.5327L182.158 14.3586L182.333 15.0083L181.683 15.1824Z" fill="white"/>
<path d="M181.857 15.8323L181.683 15.1826L182.332 15.0085L182.506 15.6582L181.857 15.8323Z" fill="white"/>
<path d="M182.031 16.4817L181.856 15.832L182.506 15.6579L182.68 16.3076L182.031 16.4817Z" fill="white"/>
<path d="M182.379 17.7815L182.205 17.1318L182.855 16.9577L183.029 17.6075L182.379 17.7815Z" fill="white"/>
<path d="M182.727 19.0809L182.553 18.4312L183.202 18.2571L183.377 18.9068L182.727 19.0809Z" fill="white"/>
<path d="M183.075 20.3802L182.901 19.7305L183.551 19.5564L183.725 20.2061L183.075 20.3802Z" fill="white"/>
<path d="M183.423 21.6795L183.249 21.0298L183.899 20.8557L184.073 21.5054L183.423 21.6795Z" fill="white"/>
<path d="M183.598 22.3294L183.424 21.6797L184.074 21.5056L184.248 22.1553L183.598 22.3294Z" fill="white"/>
<path d="M183.771 22.9793L183.597 22.3296L184.246 22.1555L184.42 22.8052L183.771 22.9793Z" fill="white"/>
<path d="M180.243 7.21172L180.069 6.56201L180.719 6.38792L180.893 7.03763L180.243 7.21172Z" fill="white"/>
<path d="M181.288 11.1102L181.114 10.4604L181.764 10.2864L181.938 10.9361L181.288 11.1102Z" fill="white"/>
<path d="M181.811 13.0589L181.637 12.4092L182.286 12.2351L182.461 12.8848L181.811 13.0589Z" fill="white"/>
<path d="M181.986 13.7088L181.812 13.0591L182.461 12.885L182.635 13.5347L181.986 13.7088Z" fill="white"/>
<path d="M182.333 15.0081L182.159 14.3584L182.809 14.1843L182.983 14.834L182.333 15.0081Z" fill="white"/>
<path d="M182.855 16.9573L182.681 16.3076L183.33 16.1335L183.504 16.7832L182.855 16.9573Z" fill="white"/>
<path d="M183.03 17.6072L182.855 16.9575L183.505 16.7834L183.679 17.4331L183.03 17.6072Z" fill="white"/>
<path d="M183.726 20.2059L183.552 19.5562L184.201 19.3821L184.376 20.0318L183.726 20.2059Z" fill="white"/>
<path d="M184.248 22.1551L184.074 21.5054L184.724 21.3313L184.898 21.981L184.248 22.1551Z" fill="white"/>
<path d="M180.893 7.0374L180.719 6.3877L181.368 6.21361L181.543 6.86331L180.893 7.0374Z" fill="white"/>
<path d="M181.241 8.33672L181.067 7.68701L181.717 7.51292L181.891 8.16263L181.241 8.33672Z" fill="white"/>
<path d="M181.416 8.98662L181.242 8.33691L181.892 8.16283L182.066 8.81253L181.416 8.98662Z" fill="white"/>
<path d="M181.589 9.63603L181.415 8.98633L182.065 8.81224L182.239 9.46194L181.589 9.63603Z" fill="white"/>
<path d="M181.938 10.9353L181.764 10.2856L182.413 10.1116L182.587 10.7613L181.938 10.9353Z" fill="white"/>
<path d="M182.635 13.5345L182.461 12.8848L183.111 12.7107L183.285 13.3604L182.635 13.5345Z" fill="white"/>
<path d="M182.808 14.1844L182.634 13.5347L183.283 13.3606L183.458 14.0103L182.808 14.1844Z" fill="white"/>
<path d="M183.33 16.1331L183.156 15.4834L183.806 15.3093L183.98 15.959L183.33 16.1331Z" fill="white"/>
<path d="M183.679 17.4329L183.505 16.7832L184.155 16.6091L184.329 17.2588L183.679 17.4329Z" fill="white"/>
<path d="M183.853 18.0823L183.679 17.4326L184.328 17.2585L184.503 17.9082L183.853 18.0823Z" fill="white"/>
<path d="M184.027 18.7322L183.853 18.0825L184.502 17.9084L184.676 18.5581L184.027 18.7322Z" fill="white"/>
<path d="M184.201 19.3821L184.027 18.7324L184.677 18.5583L184.851 19.208L184.201 19.3821Z" fill="white"/>
<path d="M184.375 20.0315L184.201 19.3818L184.851 19.2077L185.025 19.8575L184.375 20.0315Z" fill="white"/>
<path d="M184.549 20.6814L184.375 20.0317L185.025 19.8577L185.199 20.5074L184.549 20.6814Z" fill="white"/>
<path d="M185.072 22.6307L184.897 21.981L185.547 21.8069L185.721 22.4566L185.072 22.6307Z" fill="white"/>
<path d="M181.542 6.86357L181.368 6.21387L182.018 6.03978L182.192 6.68948L181.542 6.86357Z" fill="white"/>
<path d="M181.891 8.16289L181.717 7.51318L182.367 7.3391L182.541 7.9888L181.891 8.16289Z" fill="white"/>
<path d="M182.066 8.81279L181.892 8.16309L182.541 7.989L182.715 8.6387L182.066 8.81279Z" fill="white"/>
<path d="M182.239 9.4622L182.064 8.8125L182.714 8.63841L182.888 9.28812L182.239 9.4622Z" fill="white"/>
<path d="M182.587 10.7615L182.413 10.1118L183.063 9.93773L183.237 10.5874L182.587 10.7615Z" fill="white"/>
<path d="M182.935 12.0613L182.761 11.4116L183.41 11.2375L183.585 11.8872L182.935 12.0613Z" fill="white"/>
<path d="M183.11 12.7107L182.936 12.061L183.585 11.8869L183.759 12.5367L183.11 12.7107Z" fill="white"/>
<path d="M183.284 13.3606L183.11 12.7109L183.76 12.5368L183.934 13.1866L183.284 13.3606Z" fill="white"/>
<path d="M183.632 14.66L183.458 14.0103L184.108 13.8362L184.282 14.4859L183.632 14.66Z" fill="white"/>
<path d="M183.806 15.3099L183.632 14.6602L184.282 14.4861L184.456 15.1358L183.806 15.3099Z" fill="white"/>
<path d="M184.502 17.9085L184.328 17.2588L184.978 17.0847L185.152 17.7344L184.502 17.9085Z" fill="white"/>
<path d="M184.676 18.5584L184.502 17.9087L185.152 17.7346L185.326 18.3843L184.676 18.5584Z" fill="white"/>
<path d="M185.025 19.8577L184.851 19.208L185.5 19.0339L185.674 19.6836L185.025 19.8577Z" fill="white"/>
<path d="M185.199 20.5076L185.024 19.8579L185.674 19.6838L185.848 20.3335L185.199 20.5076Z" fill="white"/>
<path d="M185.372 21.157L185.198 20.5073L185.848 20.3332L186.022 20.9829L185.372 21.157Z" fill="white"/>
<path d="M185.547 21.8069L185.373 21.1572L186.023 20.9831L186.197 21.6328L185.547 21.8069Z" fill="white"/>
<path d="M185.721 22.4568L185.547 21.8071L186.197 21.633L186.371 22.2827L185.721 22.4568Z" fill="white"/>
<path d="M182.193 6.68926L182.019 6.03955L182.668 5.86546L182.842 6.51517L182.193 6.68926Z" fill="white"/>
<path d="M182.541 7.98857L182.367 7.33887L183.017 7.16478L183.191 7.81448L182.541 7.98857Z" fill="white"/>
<path d="M182.716 8.63847L182.542 7.98877L183.192 7.81468L183.366 8.46439L182.716 8.63847Z" fill="white"/>
<path d="M182.889 9.28789L182.715 8.63818L183.365 8.4641L183.539 9.1138L182.889 9.28789Z" fill="white"/>
<path d="M183.238 10.5872L183.063 9.9375L183.713 9.76341L183.887 10.4131L183.238 10.5872Z" fill="white"/>
<path d="M183.585 11.887L183.411 11.2373L184.061 11.0632L184.235 11.7129L183.585 11.887Z" fill="white"/>
<path d="M183.76 12.5364L183.586 11.8867L184.236 11.7126L184.41 12.3623L183.76 12.5364Z" fill="white"/>
<path d="M184.108 13.8362L183.934 13.1865L184.583 13.0124L184.757 13.6621L184.108 13.8362Z" fill="white"/>
<path d="M184.282 14.4856L184.108 13.8359L184.758 13.6619L184.932 14.3116L184.282 14.4856Z" fill="white"/>
<path d="M184.804 16.4349L184.63 15.7852L185.28 15.6111L185.454 16.2608L184.804 16.4349Z" fill="white"/>
<path d="M185.153 17.7342L184.979 17.0845L185.628 16.9104L185.802 17.5601L185.153 17.7342Z" fill="white"/>
<path d="M185.326 18.3841L185.152 17.7344L185.802 17.5603L185.976 18.21L185.326 18.3841Z" fill="white"/>
<path d="M185.675 19.6834L185.501 19.0337L186.151 18.8596L186.325 19.5093L185.675 19.6834Z" fill="white"/>
<path d="M186.023 20.9827L185.849 20.333L186.498 20.1589L186.672 20.8086L186.023 20.9827Z" fill="white"/>
<path d="M186.198 21.6326L186.023 20.9829L186.673 20.8088L186.847 21.4585L186.198 21.6326Z" fill="white"/>
<path d="M182.842 6.51543L182.668 5.86572L183.318 5.69164L183.492 6.34134L182.842 6.51543Z" fill="white"/>
<path d="M183.887 10.4134L183.713 9.76367L184.363 9.58958L184.537 10.2393L183.887 10.4134Z" fill="white"/>
<path d="M184.235 11.7132L184.061 11.0635L184.71 10.8894L184.884 11.5391L184.235 11.7132Z" fill="white"/>
<path d="M184.757 13.6624L184.583 13.0127L185.233 12.8386L185.407 13.4883L184.757 13.6624Z" fill="white"/>
<path d="M184.932 14.3118L184.758 13.6621L185.408 13.488L185.582 14.1377L184.932 14.3118Z" fill="white"/>
<path d="M185.106 14.9617L184.932 14.312L185.581 14.1379L185.755 14.7876L185.106 14.9617Z" fill="white"/>
<path d="M185.28 15.6111L185.105 14.9614L185.755 14.7873L185.929 15.437L185.28 15.6111Z" fill="white"/>
<path d="M185.976 18.2103L185.802 17.5605L186.451 17.3865L186.626 18.0362L185.976 18.2103Z" fill="white"/>
<path d="M186.324 19.5096L186.15 18.8599L186.8 18.6858L186.974 19.3355L186.324 19.5096Z" fill="white"/>
<path d="M186.672 20.8089L186.498 20.1592L187.148 19.9851L187.322 20.6348L186.672 20.8089Z" fill="white"/>
<path d="M183.49 6.34111L183.316 5.69141L183.966 5.51732L184.14 6.16702L183.49 6.34111Z" fill="white"/>
<path d="M183.665 6.99052L183.491 6.34082L184.141 6.16673L184.315 6.81644L183.665 6.99052Z" fill="white"/>
<path d="M183.839 7.64043L183.665 6.99072L184.315 6.81664L184.489 7.46634L183.839 7.64043Z" fill="white"/>
<path d="M184.014 8.29033L183.84 7.64062L184.49 7.46654L184.664 8.11624L184.014 8.29033Z" fill="white"/>
<path d="M184.187 8.93974L184.013 8.29004L184.662 8.11595L184.836 8.76566L184.187 8.93974Z" fill="white"/>
<path d="M184.362 9.58965L184.188 8.93994L184.837 8.76585L185.011 9.41556L184.362 9.58965Z" fill="white"/>
<path d="M184.535 10.2391L184.361 9.58936L185.011 9.41527L185.185 10.065L184.535 10.2391Z" fill="white"/>
<path d="M184.883 11.5389L184.709 10.8892L185.359 10.7151L185.533 11.3648L184.883 11.5389Z" fill="white"/>
<path d="M185.058 12.1883L184.884 11.5386L185.533 11.3645L185.708 12.0142L185.058 12.1883Z" fill="white"/>
<path d="M185.406 13.4881L185.231 12.8384L185.881 12.6643L186.055 13.314L185.406 13.4881Z" fill="white"/>
<path d="M185.58 14.1375L185.406 13.4878L186.056 13.3137L186.23 13.9634L185.58 14.1375Z" fill="white"/>
<path d="M185.754 14.7874L185.58 14.1377L186.23 13.9636L186.404 14.6133L185.754 14.7874Z" fill="white"/>
<path d="M186.45 17.386L186.276 16.7363L186.926 16.5622L187.1 17.2119L186.45 17.386Z" fill="white"/>
<path d="M186.799 18.6858L186.625 18.0361L187.275 17.862L187.449 18.5117L186.799 18.6858Z" fill="white"/>
<path d="M186.973 19.3353L186.799 18.6855L187.449 18.5115L187.623 19.1612L186.973 19.3353Z" fill="white"/>
<path d="M187.147 19.9852L186.973 19.3354L187.622 19.1614L187.796 19.8111L187.147 19.9852Z" fill="white"/>
<path d="M187.321 20.6346L187.146 19.9849L187.796 19.8108L187.97 20.4605L187.321 20.6346Z" fill="white"/>
<path d="M187.495 21.2845L187.321 20.6348L187.971 20.4607L188.145 21.1104L187.495 21.2845Z" fill="white"/>
<path d="M187.669 21.9344L187.495 21.2847L188.145 21.1106L188.319 21.7603L187.669 21.9344Z" fill="white"/>
</g>
<defs>
<clipPath id="clip0_1500_69003">
<rect width="16.8159" height="16.8159" fill="white" transform="matrix(0.258819 0.965926 0.965926 -0.258819 167.725 9.86963)"/>
</clipPath>
</defs>
</svg>
