<svg width="472" height="36" viewBox="0 0 472 36" fill="none" xmlns="http://www.w3.org/2000/svg">
<path d="M18.6316 34.9753C27.9569 34.9753 35.5165 27.3697 35.5165 17.9877C35.5165 8.60563 27.9569 1 18.6316 1C9.30635 1 1.74671 8.60563 1.74671 17.9877C1.74671 20.7581 2.40592 23.3737 3.57513 25.6843C3.8786 26.284 3.91331 26.992 3.61748 27.5955L0.596346 33.7587C0.391857 34.1759 0.817217 34.6221 1.24368 34.4378L7.17863 31.8727C7.85101 31.5821 8.62312 31.6904 9.23006 32.1005C11.9172 33.916 15.1515 34.9753 18.6316 34.9753Z" fill="#2F8733"/>
<g clip-path="url(#clip0_5824_34424)">
<path d="M8.43076 11.4193L7.7334 11.6062L7.92026 12.3036L8.61762 12.1167L8.43076 11.4193Z" fill="white"/>
<path d="M9.12803 11.2326L8.43066 11.4194L8.61752 12.1168L9.31488 11.9299L9.12803 11.2326Z" fill="white"/>
<path d="M9.82529 11.0456L9.12793 11.2324L9.31479 11.9298L10.0121 11.7429L9.82529 11.0456Z" fill="white"/>
<path d="M10.5226 10.8588L9.8252 11.0457L10.0121 11.743L10.7094 11.5562L10.5226 10.8588Z" fill="white"/>
<path d="M11.2198 10.6718L10.5225 10.8586L10.7093 11.556L11.4067 11.3691L11.2198 10.6718Z" fill="white"/>
<path d="M11.9181 10.485L11.2207 10.6719L11.4076 11.3692L12.1049 11.1824L11.9181 10.485Z" fill="white"/>
<path d="M12.6153 10.2983L11.918 10.4851L12.1048 11.1825L12.8022 10.9956L12.6153 10.2983Z" fill="white"/>
<path d="M14.0099 9.92447L13.3125 10.1113L13.4994 10.8087L14.1967 10.6218L14.0099 9.92447Z" fill="white"/>
<path d="M14.7071 9.7377L14.0098 9.92456L14.1966 10.6219L14.894 10.4351L14.7071 9.7377Z" fill="white"/>
<path d="M19.589 8.4296L18.8916 8.61646L19.0785 9.31382L19.7758 9.12696L19.589 8.4296Z" fill="white"/>
<path d="M20.9835 8.05582L20.2861 8.24268L20.473 8.94004L21.1704 8.75318L20.9835 8.05582Z" fill="white"/>
<path d="M21.6808 7.86905L20.9834 8.05591L21.1703 8.75327L21.8676 8.56641L21.6808 7.86905Z" fill="white"/>
<path d="M22.378 7.68204L21.6807 7.8689L21.8675 8.56626L22.5649 8.3794L22.378 7.68204Z" fill="white"/>
<path d="M23.0753 7.49527L22.3779 7.68213L22.5648 8.37949L23.2621 8.19263L23.0753 7.49527Z" fill="white"/>
<path d="M23.7726 7.3085L23.0752 7.49536L23.2621 8.19272L23.9594 8.00587L23.7726 7.3085Z" fill="white"/>
<path d="M24.4708 7.12149L23.7734 7.30835L23.9603 8.00571L24.6577 7.81885L24.4708 7.12149Z" fill="white"/>
<path d="M25.1681 6.93472L24.4707 7.12158L24.6576 7.81894L25.3549 7.63209L25.1681 6.93472Z" fill="white"/>
<path d="M8.61728 12.1166L7.91992 12.3035L8.10678 13.0008L8.80414 12.814L8.61728 12.1166Z" fill="white"/>
<path d="M12.8019 10.9955L12.1045 11.1824L12.2913 11.8797L12.9887 11.6929L12.8019 10.9955Z" fill="white"/>
<path d="M17.6827 9.68741L16.9854 9.87427L17.1722 10.5716L17.8696 10.3848L17.6827 9.68741Z" fill="white"/>
<path d="M19.7755 9.12686L19.0781 9.31372L19.265 10.0111L19.9623 9.82422L19.7755 9.12686Z" fill="white"/>
<path d="M21.17 8.75308L20.4727 8.93994L20.6595 9.6373L21.3569 9.45045L21.17 8.75308Z" fill="white"/>
<path d="M25.3546 7.63199L24.6572 7.81885L24.8441 8.51621L25.5414 8.32935L25.3546 7.63199Z" fill="white"/>
<path d="M8.80478 12.8141L8.10742 13.001L8.29428 13.6983L8.99164 13.5115L8.80478 12.8141Z" fill="white"/>
<path d="M10.1993 12.4403L9.50195 12.6272L9.68881 13.3246L10.3862 13.1377L10.1993 12.4403Z" fill="white"/>
<path d="M10.8966 12.2536L10.1992 12.4404L10.3861 13.1378L11.0834 12.9509L10.8966 12.2536Z" fill="white"/>
<path d="M11.5938 12.0666L10.8965 12.2534L11.0833 12.9508L11.7807 12.7639L11.5938 12.0666Z" fill="white"/>
<path d="M12.9894 11.693L12.292 11.8799L12.4788 12.5772L13.1762 12.3904L12.9894 11.693Z" fill="white"/>
<path d="M14.3839 11.3192L13.6865 11.5061L13.8734 12.2035L14.5707 12.0166L14.3839 11.3192Z" fill="white"/>
<path d="M16.4757 10.7587L15.7783 10.9456L15.9652 11.6429L16.6625 11.4561L16.4757 10.7587Z" fill="white"/>
<path d="M17.1729 10.5717L16.4756 10.7585L16.6624 11.4559L17.3598 11.269L17.1729 10.5717Z" fill="white"/>
<path d="M17.8702 10.3849L17.1729 10.5718L17.3597 11.2691L18.0571 11.0823L17.8702 10.3849Z" fill="white"/>
<path d="M19.2657 10.0111L18.5684 10.198L18.7552 10.8954L19.4526 10.7085L19.2657 10.0111Z" fill="white"/>
<path d="M21.3575 9.45059L20.6602 9.63745L20.847 10.3348L21.5444 10.148L21.3575 9.45059Z" fill="white"/>
<path d="M22.752 9.07681L22.0547 9.26367L22.2415 9.96103L22.9389 9.77418L22.752 9.07681Z" fill="white"/>
<path d="M23.4493 8.89005L22.752 9.0769L22.9388 9.77427L23.6362 9.58741L23.4493 8.89005Z" fill="white"/>
<path d="M24.1466 8.70328L23.4492 8.89014L23.6361 9.5875L24.3334 9.40064L24.1466 8.70328Z" fill="white"/>
<path d="M25.5421 8.3295L24.8447 8.51636L25.0316 9.21372L25.7289 9.02686L25.5421 8.3295Z" fill="white"/>
<path d="M8.99131 13.5114L8.29395 13.6982L8.4808 14.3956L9.17816 14.2087L8.99131 13.5114Z" fill="white"/>
<path d="M10.3858 13.1376L9.68848 13.3245L9.87533 14.0218L10.5727 13.835L10.3858 13.1376Z" fill="white"/>
<path d="M11.0831 12.9508L10.3857 13.1377L10.5726 13.8351L11.27 13.6482L11.0831 12.9508Z" fill="white"/>
<path d="M11.7804 12.7638L11.083 12.9507L11.2699 13.648L11.9672 13.4612L11.7804 12.7638Z" fill="white"/>
<path d="M13.1759 12.3903L12.4785 12.5771L12.6654 13.2745L13.3627 13.0877L13.1759 12.3903Z" fill="white"/>
<path d="M14.5704 12.0165L13.873 12.2034L14.0599 12.9007L14.7573 12.7139L14.5704 12.0165Z" fill="white"/>
<path d="M15.2677 11.8297L14.5703 12.0166L14.7572 12.714L15.4545 12.5271L15.2677 11.8297Z" fill="white"/>
<path d="M16.6622 11.456L15.9648 11.6428L16.1517 12.3402L16.8491 12.1533L16.6622 11.456Z" fill="white"/>
<path d="M18.0567 11.0822L17.3594 11.269L17.5462 11.9664L18.2436 11.7795L18.0567 11.0822Z" fill="white"/>
<path d="M18.755 10.8954L18.0576 11.0823L18.2445 11.7796L18.9418 11.5928L18.755 10.8954Z" fill="white"/>
<path d="M21.544 10.1479L20.8467 10.3347L21.0335 11.0321L21.7309 10.8452L21.544 10.1479Z" fill="white"/>
<path d="M22.9386 9.77408L22.2412 9.96094L22.4281 10.6583L23.1254 10.4714L22.9386 9.77408Z" fill="white"/>
<path d="M23.6358 9.58731L22.9385 9.77417L23.1253 10.4715L23.8227 10.2847L23.6358 9.58731Z" fill="white"/>
<path d="M24.3331 9.40055L23.6357 9.5874L23.8226 10.2848L24.52 10.0979L24.3331 9.40055Z" fill="white"/>
<path d="M25.7286 9.02677L25.0312 9.21362L25.2181 9.91098L25.9155 9.72413L25.7286 9.02677Z" fill="white"/>
<path d="M9.17783 14.2089L8.48047 14.3958L8.66733 15.0931L9.36469 14.9063L9.17783 14.2089Z" fill="white"/>
<path d="M10.5724 13.8351L9.875 14.022L10.0619 14.7193L10.7592 14.5325L10.5724 13.8351Z" fill="white"/>
<path d="M11.2696 13.6483L10.5723 13.8352L10.7591 14.5326L11.4565 14.3457L11.2696 13.6483Z" fill="white"/>
<path d="M11.9669 13.4613L11.2695 13.6482L11.4564 14.3456L12.1537 14.1587L11.9669 13.4613Z" fill="white"/>
<path d="M13.3624 13.0878L12.665 13.2747L12.8519 13.972L13.5493 13.7852L13.3624 13.0878Z" fill="white"/>
<path d="M14.7569 12.714L14.0596 12.9009L14.2464 13.5982L14.9438 13.4114L14.7569 12.714Z" fill="white"/>
<path d="M15.4542 12.5273L14.7568 12.7141L14.9437 13.4115L15.6411 13.2246L15.4542 12.5273Z" fill="white"/>
<path d="M16.1515 12.3402L15.4541 12.5271L15.641 13.2245L16.3383 13.0376L16.1515 12.3402Z" fill="white"/>
<path d="M16.8487 12.1535L16.1514 12.3403L16.3382 13.0377L17.0356 12.8508L16.8487 12.1535Z" fill="white"/>
<path d="M19.6388 11.4059L18.9414 11.5928L19.1283 12.2901L19.8256 12.1033L19.6388 11.4059Z" fill="white"/>
<path d="M20.336 11.2191L19.6387 11.406L19.8255 12.1034L20.5229 11.9165L20.336 11.2191Z" fill="white"/>
<path d="M21.7306 10.8454L21.0332 11.0322L21.2201 11.7296L21.9174 11.5427L21.7306 10.8454Z" fill="white"/>
<path d="M23.1251 10.4716L22.4277 10.6584L22.6146 11.3558L23.312 11.169L23.1251 10.4716Z" fill="white"/>
<path d="M23.8224 10.2848L23.125 10.4717L23.3119 11.169L24.0092 10.9822L23.8224 10.2848Z" fill="white"/>
<path d="M24.5196 10.0981L23.8223 10.2849L24.0091 10.9823L24.7065 10.7954L24.5196 10.0981Z" fill="white"/>
<path d="M25.9151 9.72428L25.2178 9.91113L25.4046 10.6085L26.102 10.4216L25.9151 9.72428Z" fill="white"/>
<path d="M9.36533 14.9062L8.66797 15.093L8.85483 15.7904L9.55219 15.6035L9.36533 14.9062Z" fill="white"/>
<path d="M13.5499 13.7851L12.8525 13.9719L13.0394 14.6693L13.7368 14.4824L13.5499 13.7851Z" fill="white"/>
<path d="M15.6417 13.2245L14.9443 13.4114L15.1312 14.1087L15.8286 13.9219L15.6417 13.2245Z" fill="white"/>
<path d="M17.7335 12.6637L17.0361 12.8506L17.223 13.5479L17.9204 13.3611L17.7335 12.6637Z" fill="white"/>
<path d="M18.4308 12.477L17.7334 12.6638L17.9203 13.3612L18.6176 13.1743L18.4308 12.477Z" fill="white"/>
<path d="M19.129 12.2902L18.4316 12.4771L18.6185 13.1744L19.3159 12.9876L19.129 12.2902Z" fill="white"/>
<path d="M21.9181 11.5426L21.2207 11.7295L21.4076 12.4269L22.1049 12.24L21.9181 11.5426Z" fill="white"/>
<path d="M26.1026 10.4215L25.4053 10.6084L25.5921 11.3058L26.2895 11.1189L26.1026 10.4215Z" fill="white"/>
<path d="M9.55185 15.6037L8.85449 15.7905L9.04135 16.4879L9.73871 16.301L9.55185 15.6037Z" fill="white"/>
<path d="M10.2491 15.4169L9.55176 15.6038L9.73862 16.3011L10.436 16.1143L10.2491 15.4169Z" fill="white"/>
<path d="M10.9464 15.2299L10.249 15.4167L10.4359 16.1141L11.1332 15.9273L10.9464 15.2299Z" fill="white"/>
<path d="M11.6437 15.0431L10.9463 15.23L11.1331 15.9273L11.8305 15.7405L11.6437 15.0431Z" fill="white"/>
<path d="M12.3409 14.8561L11.6436 15.043L11.8304 15.7403L12.5278 15.5535L12.3409 14.8561Z" fill="white"/>
<path d="M13.0392 14.6693L12.3418 14.8562L12.5287 15.5536L13.226 15.3667L13.0392 14.6693Z" fill="white"/>
<path d="M13.7364 14.4826L13.0391 14.6694L13.2259 15.3668L13.9233 15.1799L13.7364 14.4826Z" fill="white"/>
<path d="M15.131 14.1088L14.4336 14.2957L14.6205 14.993L15.3178 14.8062L15.131 14.1088Z" fill="white"/>
<path d="M16.5255 13.735L15.8281 13.9219L16.015 14.6192L16.7123 14.4324L16.5255 13.735Z" fill="white"/>
<path d="M17.92 13.3612L17.2227 13.5481L17.4095 14.2455L18.1069 14.0586L17.92 13.3612Z" fill="white"/>
<path d="M19.3155 12.9877L18.6182 13.1746L18.805 13.8719L19.5024 13.6851L19.3155 12.9877Z" fill="white"/>
<path d="M20.7101 12.6139L20.0127 12.8008L20.1996 13.4981L20.8969 13.3113L20.7101 12.6139Z" fill="white"/>
<path d="M22.1046 12.2401L21.4072 12.427L21.5941 13.1244L22.2914 12.9375L22.1046 12.2401Z" fill="white"/>
<path d="M22.8019 12.0534L22.1045 12.2402L22.2913 12.9376L22.9887 12.7507L22.8019 12.0534Z" fill="white"/>
<path d="M23.4991 11.8664L22.8018 12.0532L22.9886 12.7506L23.686 12.5637L23.4991 11.8664Z" fill="white"/>
<path d="M24.1964 11.6796L23.499 11.8665L23.6859 12.5638L24.3832 12.377L24.1964 11.6796Z" fill="white"/>
<path d="M24.8936 11.4928L24.1963 11.6797L24.3831 12.377L25.0805 12.1902L24.8936 11.4928Z" fill="white"/>
<path d="M25.5919 11.3058L24.8945 11.4927L25.0814 12.19L25.7787 12.0032L25.5919 11.3058Z" fill="white"/>
<path d="M26.2892 11.1191L25.5918 11.3059L25.7787 12.0033L26.476 11.8164L26.2892 11.1191Z" fill="white"/>
<path d="M16.0147 14.6193L15.3174 14.8062L15.5042 15.5035L16.2016 15.3167L16.0147 14.6193Z" fill="white"/>
<path d="M17.4093 14.2455L16.7119 14.4324L16.8988 15.1297L17.5961 14.9429L17.4093 14.2455Z" fill="white"/>
<path d="M19.502 13.685L18.8047 13.8718L18.9915 14.5692L19.6889 14.3823L19.502 13.685Z" fill="white"/>
<path d="M20.1993 13.4982L19.502 13.6851L19.6888 14.3824L20.3862 14.1956L20.1993 13.4982Z" fill="white"/>
<path d="M9.92588 16.9984L9.22852 17.1853L9.41537 17.8827L10.1127 17.6958L9.92588 16.9984Z" fill="white"/>
<path d="M10.6231 16.8117L9.92578 16.9985L10.1126 17.6959L10.81 17.509L10.6231 16.8117Z" fill="white"/>
<path d="M11.3204 16.6247L10.623 16.8115L10.8099 17.5089L11.5073 17.322L11.3204 16.6247Z" fill="white"/>
<path d="M12.0177 16.4379L11.3203 16.6248L11.5072 17.3221L12.2045 17.1353L12.0177 16.4379Z" fill="white"/>
<path d="M14.1104 15.8774L13.4131 16.0642L13.5999 16.7616L14.2973 16.5747L14.1104 15.8774Z" fill="white"/>
<path d="M15.505 15.5036L14.8076 15.6904L14.9945 16.3878L15.6918 16.2009L15.505 15.5036Z" fill="white"/>
<path d="M21.7813 13.8219L21.084 14.0088L21.2708 14.7062L21.9682 14.5193L21.7813 13.8219Z" fill="white"/>
<path d="M23.8731 13.2611L23.1758 13.448L23.3626 14.1454L24.06 13.9585L23.8731 13.2611Z" fill="white"/>
<path d="M24.5704 13.0744L23.873 13.2612L24.0599 13.9586L24.7573 13.7717L24.5704 13.0744Z" fill="white"/>
<path d="M25.2677 12.8876L24.5703 13.0745L24.7572 13.7718L25.4545 13.585L25.2677 12.8876Z" fill="white"/>
<path d="M26.6632 12.5138L25.9658 12.7007L26.1527 13.398L26.85 13.2112L26.6632 12.5138Z" fill="white"/>
<path d="M13.5997 16.7614L12.9023 16.9482L13.0892 17.6456L13.7866 17.4587L13.5997 16.7614Z" fill="white"/>
<path d="M14.9942 16.3876L14.2969 16.5745L14.4837 17.2718L15.1811 17.085L14.9942 16.3876Z" fill="white"/>
<path d="M15.6915 16.2008L14.9941 16.3877L15.181 17.0851L15.8784 16.8982L15.6915 16.2008Z" fill="white"/>
<path d="M16.3888 16.0138L15.6914 16.2007L15.8783 16.898L16.5756 16.7112L16.3888 16.0138Z" fill="white"/>
<path d="M19.1788 15.2665L18.4814 15.4534L18.6683 16.1507L19.3657 15.9639L19.1788 15.2665Z" fill="white"/>
<path d="M21.2706 14.706L20.5732 14.8928L20.7601 15.5902L21.4575 15.4033L21.2706 14.706Z" fill="white"/>
<path d="M23.3634 14.1454L22.666 14.3323L22.8529 15.0296L23.5502 14.8428L23.3634 14.1454Z" fill="white"/>
<path d="M26.1524 13.3979L25.4551 13.5847L25.6419 14.2821L26.3393 14.0952L26.1524 13.3979Z" fill="white"/>
<path d="M10.2989 18.393L9.60156 18.5798L9.78842 19.2772L10.4858 19.0903L10.2989 18.393Z" fill="white"/>
<path d="M10.9962 18.2062L10.2988 18.3931L10.4857 19.0904L11.183 18.9036L10.9962 18.2062Z" fill="white"/>
<path d="M12.3907 17.8324L11.6934 18.0193L11.8802 18.7166L12.5776 18.5298L12.3907 17.8324Z" fill="white"/>
<path d="M14.4835 17.2719L13.7861 17.4587L13.973 18.1561L14.6704 17.9692L14.4835 17.2719Z" fill="white"/>
<path d="M15.878 16.8981L15.1807 17.085L15.3675 17.7823L16.0649 17.5955L15.878 16.8981Z" fill="white"/>
<path d="M19.3644 15.9638L18.667 16.1506L18.8538 16.848L19.5512 16.6611L19.3644 15.9638Z" fill="white"/>
<path d="M21.4571 15.4032L20.7598 15.5901L20.9466 16.2874L21.644 16.1006L21.4571 15.4032Z" fill="white"/>
<path d="M22.8517 15.0295L22.1543 15.2163L22.3412 15.9137L23.0385 15.7268L22.8517 15.0295Z" fill="white"/>
<path d="M23.5489 14.8427L22.8516 15.0295L23.0384 15.7269L23.7358 15.54L23.5489 14.8427Z" fill="white"/>
<path d="M24.2462 14.6557L23.5488 14.8425L23.7357 15.5399L24.433 15.353L24.2462 14.6557Z" fill="white"/>
<path d="M11.1837 18.9035L10.4863 19.0903L10.6732 19.7877L11.3705 19.6008L11.1837 18.9035Z" fill="white"/>
<path d="M11.881 18.7167L11.1836 18.9036L11.3705 19.6009L12.0678 19.4141L11.881 18.7167Z" fill="white"/>
<path d="M13.2755 18.3429L12.5781 18.5298L12.765 19.2271L13.4623 19.0403L13.2755 18.3429Z" fill="white"/>
<path d="M13.9728 18.1559L13.2754 18.3428L13.4622 19.0401L14.1596 18.8533L13.9728 18.1559Z" fill="white"/>
<path d="M15.3683 17.7824L14.6709 17.9692L14.8578 18.6666L15.5551 18.4797L15.3683 17.7824Z" fill="white"/>
<path d="M16.0655 17.5954L15.3682 17.7822L15.555 18.4796L16.2524 18.2927L16.0655 17.5954Z" fill="white"/>
<path d="M18.1573 17.0348L17.46 17.2217L17.6468 17.919L18.3442 17.7322L18.1573 17.0348Z" fill="white"/>
<path d="M18.8546 16.8481L18.1572 17.0349L18.3441 17.7323L19.0414 17.5454L18.8546 16.8481Z" fill="white"/>
<path d="M19.5519 16.661L18.8545 16.8479L19.0413 17.5453L19.7387 17.3584L19.5519 16.661Z" fill="white"/>
<path d="M22.3419 15.9137L21.6445 16.1006L21.8314 16.7979L22.5287 16.6111L22.3419 15.9137Z" fill="white"/>
<path d="M23.7364 15.5399L23.0391 15.7268L23.2259 16.4242L23.9233 16.2373L23.7364 15.5399Z" fill="white"/>
<path d="M25.131 15.1662L24.4336 15.353L24.6205 16.0504L25.3178 15.8635L25.131 15.1662Z" fill="white"/>
<path d="M25.8282 14.9794L25.1309 15.1663L25.3177 15.8636L26.0151 15.6768L25.8282 14.9794Z" fill="white"/>
<path d="M10.6729 19.7878L9.97559 19.9746L10.1624 20.672L10.8598 20.4851L10.6729 19.7878Z" fill="white"/>
<path d="M11.3702 19.601L10.6729 19.7878L10.8597 20.4852L11.5571 20.2983L11.3702 19.601Z" fill="white"/>
<path d="M12.0675 19.414L11.3701 19.6008L11.557 20.2982L12.2543 20.1113L12.0675 19.414Z" fill="white"/>
<path d="M12.7647 19.2272L12.0674 19.4141L12.2542 20.1114L12.9516 19.9246L12.7647 19.2272Z" fill="white"/>
<path d="M14.1603 18.8534L13.4629 19.0403L13.6497 19.7376L14.3471 19.5508L14.1603 18.8534Z" fill="white"/>
<path d="M14.8575 18.6667L14.1602 18.8535L14.347 19.5509L15.0444 19.364L14.8575 18.6667Z" fill="white"/>
<path d="M15.5548 18.4796L14.8574 18.6665L15.0443 19.3639L15.7416 19.177L15.5548 18.4796Z" fill="white"/>
<path d="M16.252 18.2929L15.5547 18.4797L15.7415 19.1771L16.4389 18.9902L16.252 18.2929Z" fill="white"/>
<path d="M16.9493 18.1061L16.252 18.293L16.4388 18.9903L17.1362 18.8035L16.9493 18.1061Z" fill="white"/>
<path d="M18.3438 17.7323L17.6465 17.9192L17.8333 18.6166L18.5307 18.4297L18.3438 17.7323Z" fill="white"/>
<path d="M19.7384 17.3586L19.041 17.5454L19.2279 18.2428L19.9252 18.0559L19.7384 17.3586Z" fill="white"/>
<path d="M20.4366 17.1718L19.7393 17.3586L19.9261 18.056L20.6235 17.8691L20.4366 17.1718Z" fill="white"/>
<path d="M23.2257 16.4242L22.5283 16.6111L22.7152 17.3084L23.4125 17.1216L23.2257 16.4242Z" fill="white"/>
<path d="M23.9229 16.2375L23.2256 16.4243L23.4124 17.1217L24.1098 16.9348L23.9229 16.2375Z" fill="white"/>
<path d="M24.6202 16.0504L23.9229 16.2373L24.1097 16.9347L24.8071 16.7478L24.6202 16.0504Z" fill="white"/>
<path d="M26.0147 15.6769L25.3174 15.8638L25.5042 16.5611L26.2016 16.3743L26.0147 15.6769Z" fill="white"/>
<path d="M26.713 15.4899L26.0156 15.6768L26.2025 16.3741L26.8998 16.1873L26.713 15.4899Z" fill="white"/>
<path d="M27.4103 15.3031L26.7129 15.49L26.8997 16.1874L27.5971 16.0005L27.4103 15.3031Z" fill="white"/>
<path d="M11.5577 20.2985L10.8604 20.4854L11.0472 21.1827L11.7446 20.9959L11.5577 20.2985Z" fill="white"/>
<path d="M12.255 20.1117L11.5576 20.2986L11.7445 20.9959L12.4418 20.8091L12.255 20.1117Z" fill="white"/>
<path d="M16.4395 18.9904L15.7422 19.1772L15.929 19.8746L16.6264 19.6877L16.4395 18.9904Z" fill="white"/>
<path d="M17.1368 18.8036L16.4395 18.9905L16.6263 19.6878L17.3237 19.501L17.1368 18.8036Z" fill="white"/>
<path d="M17.8341 18.6169L17.1367 18.8037L17.3236 19.5011L18.0209 19.3142L17.8341 18.6169Z" fill="white"/>
<path d="M18.5313 18.4298L17.834 18.6167L18.0208 19.3141L18.7182 19.1272L18.5313 18.4298Z" fill="white"/>
<path d="M20.6231 17.8693L19.9258 18.0562L20.1126 18.7535L20.81 18.5667L20.6231 17.8693Z" fill="white"/>
<path d="M21.3214 17.6825L20.624 17.8694L20.8109 18.5667L21.5082 18.3799L21.3214 17.6825Z" fill="white"/>
<path d="M22.7159 17.3087L22.0186 17.4956L22.2054 18.193L22.9028 18.0061L22.7159 17.3087Z" fill="white"/>
<path d="M23.4132 17.1217L22.7158 17.3086L22.9027 18.006L23.6 17.8191L23.4132 17.1217Z" fill="white"/>
<path d="M24.1104 16.935L23.4131 17.1218L23.5999 17.8192L24.2973 17.6323L24.1104 16.935Z" fill="white"/>
<path d="M24.8077 16.7482L24.1104 16.9351L24.2972 17.6324L24.9946 17.4456L24.8077 16.7482Z" fill="white"/>
<path d="M27.5978 16.0006L26.9004 16.1875L27.0872 16.8849L27.7846 16.698L27.5978 16.0006Z" fill="white"/>
<path d="M11.7442 20.9958L11.0469 21.1826L11.2337 21.88L11.9311 21.6931L11.7442 20.9958Z" fill="white"/>
<path d="M13.836 20.4352L13.1387 20.6221L13.3255 21.3194L14.0229 21.1326L13.836 20.4352Z" fill="white"/>
<path d="M14.5333 20.2482L13.8359 20.4351L14.0228 21.1324L14.7202 20.9456L14.5333 20.2482Z" fill="white"/>
<path d="M15.2315 20.0614L14.5342 20.2483L14.721 20.9457L15.4184 20.7588L15.2315 20.0614Z" fill="white"/>
<path d="M19.4151 18.9403L18.7178 19.1272L18.9046 19.8246L19.602 19.6377L19.4151 18.9403Z" fill="white"/>
<path d="M22.2052 18.1928L21.5078 18.3796L21.6947 19.077L22.392 18.8901L22.2052 18.1928Z" fill="white"/>
<path d="M22.9024 18.006L22.2051 18.1929L22.3919 18.8902L23.0893 18.7034L22.9024 18.006Z" fill="white"/>
<path d="M23.5997 17.819L22.9023 18.0059L23.0892 18.7032L23.7866 18.5164L23.5997 17.819Z" fill="white"/>
<path d="M24.9942 17.4455L24.2969 17.6323L24.4837 18.3297L25.1811 18.1428L24.9942 17.4455Z" fill="white"/>
<path d="M26.3888 17.0717L25.6914 17.2585L25.8783 17.9559L26.5756 17.769L26.3888 17.0717Z" fill="white"/>
<path d="M27.086 16.8849L26.3887 17.0718L26.5755 17.7691L27.2729 17.5823L27.086 16.8849Z" fill="white"/>
<path d="M11.2335 21.88L10.5361 22.0669L10.723 22.7643L11.4204 22.5774L11.2335 21.88Z" fill="white"/>
<path d="M14.7208 20.9457L14.0234 21.1326L14.2103 21.8299L14.9077 21.6431L14.7208 20.9457Z" fill="white"/>
<path d="M16.1153 20.5719L15.418 20.7588L15.6048 21.4561L16.3022 21.2693L16.1153 20.5719Z" fill="white"/>
<path d="M16.8126 20.3852L16.1152 20.572L16.3021 21.2694L16.9995 21.0825L16.8126 20.3852Z" fill="white"/>
<path d="M18.2071 20.0114L17.5098 20.1982L17.6966 20.8956L18.394 20.7087L18.2071 20.0114Z" fill="white"/>
<path d="M19.6017 19.6376L18.9043 19.8245L19.0912 20.5218L19.7885 20.335L19.6017 19.6376Z" fill="white"/>
<path d="M20.9972 19.2641L20.2998 19.4509L20.4867 20.1483L21.184 19.9614L20.9972 19.2641Z" fill="white"/>
<path d="M22.3917 18.8903L21.6943 19.0771L21.8812 19.7745L22.5786 19.5877L22.3917 18.8903Z" fill="white"/>
<path d="M24.4835 18.3297L23.7861 18.5166L23.973 19.214L24.6704 19.0271L24.4835 18.3297Z" fill="white"/>
<path d="M25.1808 18.1427L24.4834 18.3296L24.6703 19.027L25.3676 18.8401L25.1808 18.1427Z" fill="white"/>
<path d="M27.9708 17.3954L27.2734 17.5823L27.4603 18.2796L28.1577 18.0928L27.9708 17.3954Z" fill="white"/>
<path d="M13.5128 22.0168L12.8154 22.2036L13.0023 22.901L13.6996 22.7141L13.5128 22.0168Z" fill="white"/>
<path d="M14.9073 21.643L14.21 21.8298L14.3968 22.5272L15.0942 22.3403L14.9073 21.643Z" fill="white"/>
<path d="M15.6046 21.4562L14.9072 21.6431L15.0941 22.3404L15.7914 22.1536L15.6046 21.4562Z" fill="white"/>
<path d="M16.3019 21.2694L15.6045 21.4563L15.7913 22.1537L16.4887 21.9668L16.3019 21.2694Z" fill="white"/>
<path d="M17.6974 20.8957L17 21.0825L17.1869 21.7799L17.8842 21.593L17.6974 20.8957Z" fill="white"/>
<path d="M18.3946 20.7087L17.6973 20.8955L17.8841 21.5929L18.5815 21.406L18.3946 20.7087Z" fill="white"/>
<path d="M19.0919 20.5219L18.3945 20.7087L18.5814 21.4061L19.2787 21.2192L19.0919 20.5219Z" fill="white"/>
<path d="M20.4864 20.1481L19.7891 20.335L19.9759 21.0323L20.6733 20.8455L20.4864 20.1481Z" fill="white"/>
<path d="M22.5782 19.5876L21.8809 19.7744L22.0677 20.4718L22.7651 20.2849L22.5782 19.5876Z" fill="white"/>
<path d="M23.2765 19.4008L22.5791 19.5876L22.766 20.285L23.4633 20.0982L23.2765 19.4008Z" fill="white"/>
<path d="M23.9737 19.2138L23.2764 19.4006L23.4632 20.098L24.1606 19.9111L23.9737 19.2138Z" fill="white"/>
<path d="M24.671 19.027L23.9736 19.2139L24.1605 19.9112L24.8579 19.7244L24.671 19.027Z" fill="white"/>
<path d="M25.3683 18.8402L24.6709 19.0271L24.8578 19.7245L25.5551 19.5376L25.3683 18.8402Z" fill="white"/>
<path d="M26.0655 18.6532L25.3682 18.8401L25.555 19.5374L26.2524 19.3506L26.0655 18.6532Z" fill="white"/>
<path d="M26.7628 18.4665L26.0654 18.6533L26.2523 19.3507L26.9496 19.1638L26.7628 18.4665Z" fill="white"/>
<path d="M27.4601 18.2795L26.7627 18.4663L26.9496 19.1637L27.6469 18.9768L27.4601 18.2795Z" fill="white"/>
<path d="M28.1573 18.0927L27.46 18.2795L27.6468 18.9769L28.3442 18.79L28.1573 18.0927Z" fill="white"/>
<path d="M17.1866 21.7797L16.4893 21.9666L16.6761 22.6639L17.3735 22.4771L17.1866 21.7797Z" fill="white"/>
<path d="M19.9757 21.0324L19.2783 21.2192L19.4652 21.9166L20.1625 21.7297L19.9757 21.0324Z" fill="white"/>
<path d="M22.0685 20.4716L21.3711 20.6584L21.558 21.3558L22.2553 21.169L22.0685 20.4716Z" fill="white"/>
<path d="M22.7657 20.2848L22.0684 20.4717L22.2552 21.169L22.9526 20.9822L22.7657 20.2848Z" fill="white"/>
<path d="M25.5548 19.5373L24.8574 19.7241L25.0443 20.4215L25.7416 20.2346L25.5548 19.5373Z" fill="white"/>
<path d="M26.9503 19.1637L26.2529 19.3506L26.4398 20.0479L27.1371 19.8611L26.9503 19.1637Z" fill="white"/>
<path d="M28.3448 18.7899L27.6475 18.9768L27.8343 19.6742L28.5317 19.4873L28.3448 18.7899Z" fill="white"/>
<path d="M11.794 23.9721L11.0967 24.1589L11.2835 24.8563L11.9809 24.6694L11.794 23.9721Z" fill="white"/>
<path d="M12.4913 23.7853L11.7939 23.9722L11.9808 24.6695L12.6782 24.4827L12.4913 23.7853Z" fill="white"/>
<path d="M13.1886 23.5983L12.4912 23.7852L12.6781 24.4825L13.3754 24.2957L13.1886 23.5983Z" fill="white"/>
<path d="M13.8858 23.4115L13.1885 23.5984L13.3753 24.2957L14.0727 24.1089L13.8858 23.4115Z" fill="white"/>
<path d="M14.5831 23.2245L13.8857 23.4114L14.0726 24.1087L14.77 23.9219L14.5831 23.2245Z" fill="white"/>
<path d="M15.2813 23.0378L14.584 23.2246L14.7708 23.922L15.4682 23.7351L15.2813 23.0378Z" fill="white"/>
<path d="M15.9786 22.851L15.2812 23.0378L15.4681 23.7352L16.1655 23.5483L15.9786 22.851Z" fill="white"/>
<path d="M18.0704 22.2904L17.373 22.4773L17.5599 23.1747L18.2573 22.9878L18.0704 22.2904Z" fill="white"/>
<path d="M19.4649 21.9167L18.7676 22.1035L18.9544 22.8009L19.6518 22.614L19.4649 21.9167Z" fill="white"/>
<path d="M20.1622 21.7296L19.4648 21.9165L19.6517 22.6139L20.3491 22.427L20.1622 21.7296Z" fill="white"/>
<path d="M20.8595 21.5429L20.1621 21.7297L20.349 22.4271L21.0463 22.2402L20.8595 21.5429Z" fill="white"/>
<path d="M21.5577 21.3561L20.8604 21.543L21.0472 22.2403L21.7446 22.0535L21.5577 21.3561Z" fill="white"/>
<path d="M22.9522 20.9823L22.2549 21.1692L22.4417 21.8666L23.1391 21.6797L22.9522 20.9823Z" fill="white"/>
<path d="M24.3468 20.6086L23.6494 20.7954L23.8363 21.4928L24.5336 21.3059L24.3468 20.6086Z" fill="white"/>
<path d="M25.7413 20.2348L25.0439 20.4216L25.2308 21.119L25.9282 20.9321L25.7413 20.2348Z" fill="white"/>
<path d="M27.1358 19.8612L26.4385 20.0481L26.6253 20.7455L27.3227 20.5586L27.1358 19.8612Z" fill="white"/>
<path d="M27.8341 19.6742L27.1367 19.8611L27.3236 20.5584L28.0209 20.3716L27.8341 19.6742Z" fill="white"/>
<path d="M28.5313 19.4875L27.834 19.6743L28.0208 20.3717L28.7182 20.1848L28.5313 19.4875Z" fill="white"/>
<path d="M11.9815 24.6696L11.2842 24.8564L11.471 25.5538L12.1684 25.3669L11.9815 24.6696Z" fill="white"/>
<path d="M16.1661 23.5485L15.4688 23.7354L15.6556 24.4327L16.353 24.2459L16.1661 23.5485Z" fill="white"/>
<path d="M18.2579 22.9879L17.5605 23.1748L17.7474 23.8722L18.4448 23.6853L18.2579 22.9879Z" fill="white"/>
<path d="M18.9552 22.8009L18.2578 22.9878L18.4447 23.6852L19.142 23.4983L18.9552 22.8009Z" fill="white"/>
<path d="M20.3497 22.4272L19.6523 22.614L19.8392 23.3114L20.5366 23.1245L20.3497 22.4272Z" fill="white"/>
<path d="M22.4425 21.8666L21.7451 22.0535L21.932 22.7508L22.6293 22.564L22.4425 21.8666Z" fill="white"/>
<path d="M23.1397 21.6798L22.4424 21.8667L22.6292 22.5641L23.3266 22.3772L23.1397 21.6798Z" fill="white"/>
<path d="M25.9288 20.9323L25.2314 21.1191L25.4183 21.8165L26.1157 21.6296L25.9288 20.9323Z" fill="white"/>
<path d="M28.0216 20.3717L27.3242 20.5586L27.5111 21.256L28.2084 21.0691L28.0216 20.3717Z" fill="white"/>
<path d="M12.1681 25.3669L11.4707 25.5537L11.6576 26.2511L12.3549 26.0642L12.1681 25.3669Z" fill="white"/>
<path d="M13.5626 24.9931L12.8652 25.1799L13.0521 25.8773L13.7495 25.6904L13.5626 24.9931Z" fill="white"/>
<path d="M14.2599 24.8063L13.5625 24.9932L13.7494 25.6905L14.4467 25.5037L14.2599 24.8063Z" fill="white"/>
<path d="M14.9571 24.6193L14.2598 24.8062L14.4466 25.5035L15.144 25.3167L14.9571 24.6193Z" fill="white"/>
<path d="M16.3526 24.2458L15.6553 24.4326L15.8421 25.13L16.5395 24.9431L16.3526 24.2458Z" fill="white"/>
<path d="M19.1417 23.4982L18.4443 23.6851L18.6312 24.3824L19.3286 24.1956L19.1417 23.4982Z" fill="white"/>
<path d="M19.839 23.3114L19.1416 23.4983L19.3285 24.1957L20.0258 24.0088L19.839 23.3114Z" fill="white"/>
<path d="M21.9317 22.7509L21.2344 22.9377L21.4212 23.6351L22.1186 23.4482L21.9317 22.7509Z" fill="white"/>
<path d="M23.3263 22.3771L22.6289 22.564L22.8158 23.2613L23.5131 23.0745L23.3263 22.3771Z" fill="white"/>
<path d="M24.0235 22.1903L23.3262 22.3772L23.513 23.0746L24.2104 22.8877L24.0235 22.1903Z" fill="white"/>
<path d="M24.7208 22.0033L24.0234 22.1902L24.2103 22.8875L24.9077 22.7007L24.7208 22.0033Z" fill="white"/>
<path d="M25.4181 21.8166L24.7207 22.0034L24.9076 22.7008L25.6049 22.5139L25.4181 21.8166Z" fill="white"/>
<path d="M26.1153 21.6295L25.418 21.8164L25.6048 22.5138L26.3022 22.3269L26.1153 21.6295Z" fill="white"/>
<path d="M26.8126 21.4428L26.1152 21.6296L26.3021 22.327L26.9995 22.1401L26.8126 21.4428Z" fill="white"/>
<path d="M28.9054 20.8822L28.208 21.0691L28.3949 21.7665L29.0922 21.5796L28.9054 20.8822Z" fill="white"/>
<path d="M12.3546 26.0641L11.6572 26.251L11.8441 26.9483L12.5414 26.7615L12.3546 26.0641Z" fill="white"/>
<path d="M13.7491 25.6903L13.0518 25.8772L13.2386 26.5746L13.936 26.3877L13.7491 25.6903Z" fill="white"/>
<path d="M14.4464 25.5036L13.749 25.6904L13.9359 26.3878L14.6332 26.2009L14.4464 25.5036Z" fill="white"/>
<path d="M15.1437 25.3166L14.4463 25.5034L14.6331 26.2008L15.3305 26.0139L15.1437 25.3166Z" fill="white"/>
<path d="M16.5392 24.943L15.8418 25.1299L16.0287 25.8272L16.726 25.6404L16.5392 24.943Z" fill="white"/>
<path d="M17.9337 24.5692L17.2363 24.7561L17.4232 25.4535L18.1205 25.2666L17.9337 24.5692Z" fill="white"/>
<path d="M18.631 24.3825L17.9336 24.5693L18.1205 25.2667L18.8178 25.0798L18.631 24.3825Z" fill="white"/>
<path d="M19.3282 24.1955L18.6309 24.3823L18.8177 25.0797L19.5151 24.8928L19.3282 24.1955Z" fill="white"/>
<path d="M20.7228 23.8217L20.0254 24.0085L20.2122 24.7059L20.9096 24.519L20.7228 23.8217Z" fill="white"/>
<path d="M21.42 23.6349L20.7227 23.8218L20.9095 24.5191L21.6069 24.3323L21.42 23.6349Z" fill="white"/>
<path d="M24.2101 22.8876L23.5127 23.0745L23.6996 23.7718L24.3969 23.585L24.2101 22.8876Z" fill="white"/>
<path d="M24.9073 22.7006L24.21 22.8875L24.3968 23.5848L25.0942 23.398L24.9073 22.7006Z" fill="white"/>
<path d="M26.3019 22.3268L25.6045 22.5137L25.7913 23.211L26.4887 23.0242L26.3019 22.3268Z" fill="white"/>
<path d="M26.9991 22.14L26.3018 22.3269L26.4886 23.0243L27.186 22.8374L26.9991 22.14Z" fill="white"/>
<path d="M27.6964 21.9533L26.999 22.1401L27.1859 22.8375L27.8832 22.6506L27.6964 21.9533Z" fill="white"/>
<path d="M28.3946 21.7663L27.6973 21.9531L27.8841 22.6505L28.5815 22.4636L28.3946 21.7663Z" fill="white"/>
<path d="M29.0919 21.5795L28.3945 21.7664L28.5814 22.4637L29.2787 22.2769L29.0919 21.5795Z" fill="white"/>
<path d="M12.5421 26.7616L11.8447 26.9485L12.0316 27.6458L12.7289 27.459L12.5421 26.7616Z" fill="white"/>
<path d="M13.9366 26.3878L13.2393 26.5747L13.4261 27.2721L14.1235 27.0852L13.9366 26.3878Z" fill="white"/>
<path d="M14.6339 26.2011L13.9365 26.3879L14.1234 27.0853L14.8207 26.8984L14.6339 26.2011Z" fill="white"/>
<path d="M15.3312 26.0141L14.6338 26.2009L14.8206 26.8983L15.518 26.7114L15.3312 26.0141Z" fill="white"/>
<path d="M16.7267 25.6405L16.0293 25.8274L16.2162 26.5248L16.9135 26.3379L16.7267 25.6405Z" fill="white"/>
<path d="M18.1212 25.2668L17.4238 25.4536L17.6107 26.151L18.308 25.9641L18.1212 25.2668Z" fill="white"/>
<path d="M18.8185 25.08L18.1211 25.2668L18.308 25.9642L19.0053 25.7773L18.8185 25.08Z" fill="white"/>
<path d="M20.213 24.7062L19.5156 24.8931L19.7025 25.5904L20.3998 25.4036L20.213 24.7062Z" fill="white"/>
<path d="M20.9103 24.5192L20.2129 24.7061L20.3997 25.4034L21.0971 25.2166L20.9103 24.5192Z" fill="white"/>
<path d="M23.003 23.9587L22.3057 24.1455L22.4925 24.8429L23.1899 24.656L23.003 23.9587Z" fill="white"/>
<path d="M24.3976 23.5851L23.7002 23.772L23.8871 24.4693L24.5844 24.2825L24.3976 23.5851Z" fill="white"/>
<path d="M25.0948 23.3981L24.3975 23.585L24.5843 24.2823L25.2817 24.0955L25.0948 23.3981Z" fill="white"/>
<path d="M26.4894 23.0243L25.792 23.2112L25.9788 23.9085L26.6762 23.7217L26.4894 23.0243Z" fill="white"/>
<path d="M27.8839 22.6508L27.1865 22.8376L27.3734 23.535L28.0707 23.3481L27.8839 22.6508Z" fill="white"/>
<path d="M28.5821 22.4638L27.8848 22.6506L28.0716 23.348L28.769 23.1611L28.5821 22.4638Z" fill="white"/>
<path d="M12.7286 27.4589L12.0312 27.6458L12.2181 28.3431L12.9155 28.1563L12.7286 27.4589Z" fill="white"/>
<path d="M16.9132 26.3378L16.2158 26.5247L16.4027 27.222L17.1 27.0352L16.9132 26.3378Z" fill="white"/>
<path d="M18.3077 25.964L17.6104 26.1509L17.7972 26.8482L18.4946 26.6614L18.3077 25.964Z" fill="white"/>
<path d="M20.3995 25.4035L19.7021 25.5903L19.889 26.2877L20.5864 26.1008L20.3995 25.4035Z" fill="white"/>
<path d="M21.0968 25.2165L20.3994 25.4033L20.5863 26.1007L21.2836 25.9138L21.0968 25.2165Z" fill="white"/>
<path d="M21.794 25.0297L21.0967 25.2166L21.2835 25.9139L21.9809 25.7271L21.794 25.0297Z" fill="white"/>
<path d="M22.4923 24.8429L21.7949 25.0298L21.9818 25.7271L22.6791 25.5403L22.4923 24.8429Z" fill="white"/>
<path d="M25.2813 24.0954L24.584 24.2822L24.7708 24.9796L25.4682 24.7927L25.2813 24.0954Z" fill="white"/>
<path d="M26.6759 23.7216L25.9785 23.9084L26.1654 24.6058L26.8627 24.419L26.6759 23.7216Z" fill="white"/>
<path d="M28.0704 23.3481L27.373 23.5349L27.5599 24.2323L28.2573 24.0454L28.0704 23.3481Z" fill="white"/>
<path d="M12.9151 28.1564L12.2178 28.3433L12.4046 29.0406L13.102 28.8538L12.9151 28.1564Z" fill="white"/>
<path d="M13.6124 27.9696L12.915 28.1565L13.1019 28.8539L13.7993 28.667L13.6124 27.9696Z" fill="white"/>
<path d="M14.3097 27.7826L13.6123 27.9695L13.7992 28.6668L14.4965 28.48L14.3097 27.7826Z" fill="white"/>
<path d="M15.0069 27.5959L14.3096 27.7827L14.4964 28.4801L15.1938 28.2932L15.0069 27.5959Z" fill="white"/>
<path d="M15.7042 27.4088L15.0068 27.5957L15.1937 28.2931L15.8911 28.1062L15.7042 27.4088Z" fill="white"/>
<path d="M16.4024 27.2221L15.7051 27.4089L15.8919 28.1063L16.5893 27.9194L16.4024 27.2221Z" fill="white"/>
<path d="M17.0997 27.0353L16.4023 27.2222L16.5892 27.9195L17.2866 27.7327L17.0997 27.0353Z" fill="white"/>
<path d="M18.4942 26.6615L17.7969 26.8484L17.9837 27.5457L18.6811 27.3589L18.4942 26.6615Z" fill="white"/>
<path d="M19.1915 26.4748L18.4941 26.6616L18.681 27.359L19.3784 27.1721L19.1915 26.4748Z" fill="white"/>
<path d="M20.586 26.101L19.8887 26.2878L20.0755 26.9852L20.7729 26.7983L20.586 26.101Z" fill="white"/>
<path d="M21.2833 25.914L20.5859 26.1008L20.7728 26.7982L21.4702 26.6113L21.2833 25.914Z" fill="white"/>
<path d="M21.9806 25.7272L21.2832 25.9141L21.4701 26.6114L22.1674 26.4246L21.9806 25.7272Z" fill="white"/>
<path d="M24.7706 24.9799L24.0732 25.1667L24.2601 25.8641L24.9575 25.6773L24.7706 24.9799Z" fill="white"/>
<path d="M26.1651 24.6061L25.4678 24.793L25.6546 25.4903L26.352 25.3035L26.1651 24.6061Z" fill="white"/>
<path d="M26.8624 24.4191L26.165 24.606L26.3519 25.3033L27.0493 25.1165L26.8624 24.4191Z" fill="white"/>
<path d="M27.5597 24.2323L26.8623 24.4192L27.0492 25.1166L27.7465 24.9297L27.5597 24.2323Z" fill="white"/>
<path d="M28.2569 24.0456L27.5596 24.2324L27.7464 24.9298L28.4438 24.7429L28.2569 24.0456Z" fill="white"/>
<path d="M28.9552 23.8586L28.2578 24.0454L28.4447 24.7428L29.142 24.5559L28.9552 23.8586Z" fill="white"/>
<path d="M29.6524 23.6718L28.9551 23.8586L29.1419 24.556L29.8393 24.3691L29.6524 23.6718Z" fill="white"/>
</g>
<path d="M49.56 9.7H52.872V26.5H49.56V9.7ZM62.5099 14.164C63.8219 14.164 64.9019 14.604 65.7499 15.484C66.6139 16.364 67.0459 17.58 67.0459 19.132V26.5H63.9499V19.516C63.9499 18.716 63.7339 18.108 63.3019 17.692C62.8699 17.26 62.2939 17.044 61.5739 17.044C60.7739 17.044 60.1339 17.292 59.6539 17.788C59.1739 18.284 58.9339 19.028 58.9339 20.02V26.5H55.8379V14.5H58.9339V15.844C59.6859 14.724 60.8779 14.164 62.5099 14.164ZM76.5534 17.476H73.8414V22.468C73.8414 22.884 73.9454 23.188 74.1534 23.38C74.3614 23.572 74.6654 23.684 75.0654 23.716C75.4654 23.732 75.9614 23.724 76.5534 23.692V26.5C74.4254 26.74 72.9214 26.54 72.0414 25.9C71.1774 25.26 70.7454 24.116 70.7454 22.468V17.476H68.6574V14.5H70.7454V12.076L73.8414 11.14V14.5H76.5534V17.476ZM80.9773 21.772C81.3933 23.276 82.5213 24.028 84.3613 24.028C85.5453 24.028 86.4413 23.628 87.0493 22.828L89.5453 24.268C88.3613 25.98 86.6173 26.836 84.3133 26.836C82.3293 26.836 80.7373 26.236 79.5373 25.036C78.3373 23.836 77.7373 22.324 77.7373 20.5C77.7373 18.692 78.3293 17.188 79.5133 15.988C80.6973 14.772 82.2173 14.164 84.0733 14.164C85.8333 14.164 87.2813 14.772 88.4173 15.988C89.5693 17.204 90.1453 18.708 90.1453 20.5C90.1453 20.9 90.1053 21.324 90.0253 21.772H80.9773ZM80.9293 19.372H87.0493C86.8733 18.556 86.5053 17.948 85.9453 17.548C85.4013 17.148 84.7773 16.948 84.0733 16.948C83.2413 16.948 82.5533 17.164 82.0093 17.596C81.4653 18.012 81.1053 18.604 80.9293 19.372ZM95.4026 16.564C95.6906 15.796 96.1626 15.22 96.8186 14.836C97.4906 14.452 98.2346 14.26 99.0506 14.26V17.716C98.1066 17.604 97.2586 17.796 96.5066 18.292C95.7706 18.788 95.4026 19.612 95.4026 20.764V26.5H92.3066V14.5H95.4026V16.564ZM109.536 14.5H112.632V26.5H109.536V25.084C108.608 26.252 107.304 26.836 105.624 26.836C104.024 26.836 102.648 26.228 101.496 25.012C100.36 23.78 99.792 22.276 99.792 20.5C99.792 18.724 100.36 17.228 101.496 16.012C102.648 14.78 104.024 14.164 105.624 14.164C107.304 14.164 108.608 14.748 109.536 15.916V14.5ZM103.824 22.948C104.448 23.572 105.24 23.884 106.2 23.884C107.16 23.884 107.952 23.572 108.576 22.948C109.216 22.308 109.536 21.492 109.536 20.5C109.536 19.508 109.216 18.7 108.576 18.076C107.952 17.436 107.16 17.116 106.2 17.116C105.24 17.116 104.448 17.436 103.824 18.076C103.2 18.7 102.888 19.508 102.888 20.5C102.888 21.492 103.2 22.308 103.824 22.948ZM121.151 26.836C119.343 26.836 117.831 26.228 116.615 25.012C115.415 23.796 114.815 22.292 114.815 20.5C114.815 18.708 115.415 17.204 116.615 15.988C117.831 14.772 119.343 14.164 121.151 14.164C122.319 14.164 123.383 14.444 124.343 15.004C125.303 15.564 126.031 16.316 126.527 17.26L123.863 18.82C123.623 18.324 123.255 17.932 122.759 17.644C122.279 17.356 121.735 17.212 121.127 17.212C120.199 17.212 119.431 17.524 118.823 18.148C118.215 18.756 117.911 19.54 117.911 20.5C117.911 21.444 118.215 22.228 118.823 22.852C119.431 23.46 120.199 23.764 121.127 23.764C121.751 23.764 122.303 23.628 122.783 23.356C123.279 23.068 123.647 22.676 123.887 22.18L126.575 23.716C126.047 24.66 125.303 25.42 124.343 25.996C123.383 26.556 122.319 26.836 121.151 26.836ZM135.077 17.476H132.365V22.468C132.365 22.884 132.469 23.188 132.677 23.38C132.885 23.572 133.189 23.684 133.589 23.716C133.989 23.732 134.485 23.724 135.077 23.692V26.5C132.949 26.74 131.445 26.54 130.565 25.9C129.701 25.26 129.269 24.116 129.269 22.468V17.476H127.181V14.5H129.269V12.076L132.365 11.14V14.5H135.077V17.476ZM138.796 13.06C138.284 13.06 137.836 12.876 137.452 12.508C137.084 12.124 136.9 11.676 136.9 11.164C136.9 10.652 137.084 10.204 137.452 9.82C137.836 9.436 138.284 9.244 138.796 9.244C139.324 9.244 139.772 9.436 140.14 9.82C140.524 10.204 140.716 10.652 140.716 11.164C140.716 11.676 140.524 12.124 140.14 12.508C139.772 12.876 139.324 13.06 138.796 13.06ZM137.26 26.5V14.5H140.356V26.5H137.26ZM153.413 25.012C152.181 26.228 150.677 26.836 148.901 26.836C147.125 26.836 145.621 26.228 144.389 25.012C143.173 23.78 142.565 22.276 142.565 20.5C142.565 18.724 143.173 17.228 144.389 16.012C145.621 14.78 147.125 14.164 148.901 14.164C150.677 14.164 152.181 14.78 153.413 16.012C154.645 17.228 155.261 18.724 155.261 20.5C155.261 22.276 154.645 23.78 153.413 25.012ZM146.573 22.876C147.197 23.5 147.973 23.812 148.901 23.812C149.829 23.812 150.605 23.5 151.229 22.876C151.853 22.252 152.165 21.46 152.165 20.5C152.165 19.54 151.853 18.748 151.229 18.124C150.605 17.5 149.829 17.188 148.901 17.188C147.973 17.188 147.197 17.5 146.573 18.124C145.965 18.748 145.661 19.54 145.661 20.5C145.661 21.46 145.965 22.252 146.573 22.876ZM164.111 14.164C165.423 14.164 166.503 14.604 167.351 15.484C168.215 16.364 168.647 17.58 168.647 19.132V26.5H165.551V19.516C165.551 18.716 165.335 18.108 164.903 17.692C164.471 17.26 163.895 17.044 163.175 17.044C162.375 17.044 161.735 17.292 161.255 17.788C160.775 18.284 160.535 19.028 160.535 20.02V26.5H157.439V14.5H160.535V15.844C161.287 14.724 162.479 14.164 164.111 14.164ZM181.467 12.868H174.747V16.852H181.275V20.02H174.747V26.5H171.435V9.7H181.467V12.868ZM200.56 18.1C200.56 20.276 199.872 22.164 198.496 23.764L200.224 25.564L197.872 27.652L196.048 25.756C194.752 26.476 193.344 26.836 191.824 26.836C189.408 26.836 187.352 25.996 185.656 24.316C183.96 22.62 183.112 20.548 183.112 18.1C183.112 15.652 183.96 13.588 185.656 11.908C187.352 10.212 189.408 9.364 191.824 9.364C194.24 9.364 196.296 10.212 197.992 11.908C199.704 13.588 200.56 15.652 200.56 18.1ZM191.824 23.596C192.448 23.596 193.072 23.492 193.696 23.284L190.936 20.404L193.288 18.316L196.24 21.388C196.912 20.428 197.248 19.332 197.248 18.1C197.248 16.5 196.728 15.18 195.688 14.14C194.648 13.1 193.36 12.58 191.824 12.58C190.288 12.58 189 13.1 187.96 14.14C186.92 15.18 186.4 16.5 186.4 18.1C186.4 19.684 186.92 20.996 187.96 22.036C189 23.076 190.288 23.596 191.824 23.596ZM219.445 9.7V26.5H216.157V15.604L211.429 23.404H211.045L206.317 15.628V26.5H203.005V9.7H206.413L211.237 17.644L216.037 9.7H219.445Z" fill="#1C2229"/>
<rect x="233" y="6" width="1" height="24" fill="#1C2229"/>
<path d="M252.227 14.977C251.457 15.7543 250.515 16.143 249.4 16.143C248.285 16.143 247.343 15.7543 246.573 14.977C245.803 14.1997 245.418 13.2573 245.418 12.15C245.418 11.0353 245.803 10.093 246.573 9.323C247.343 8.54567 248.285 8.157 249.4 8.157C250.515 8.157 251.457 8.54567 252.227 9.323C253.004 10.093 253.393 11.0353 253.393 12.15C253.393 13.2573 253.004 14.1997 252.227 14.977ZM247.277 14.284C247.849 14.856 248.557 15.142 249.4 15.142C250.243 15.142 250.947 14.856 251.512 14.284C252.084 13.7047 252.37 12.9933 252.37 12.15C252.37 11.2993 252.084 10.588 251.512 10.016C250.947 9.43667 250.243 9.147 249.4 9.147C248.557 9.147 247.849 9.43667 247.277 10.016C246.712 10.588 246.43 11.2993 246.43 12.15C246.43 12.9933 246.712 13.7047 247.277 14.284ZM257.263 10.357C257.908 10.357 258.425 10.5623 258.814 10.973C259.203 11.3763 259.397 11.9263 259.397 12.623V16H258.44V12.678C258.44 12.2307 258.319 11.886 258.077 11.644C257.835 11.3947 257.501 11.27 257.076 11.27C256.599 11.27 256.214 11.4203 255.921 11.721C255.628 12.0143 255.481 12.469 255.481 13.085V16H254.524V10.5H255.481V11.292C255.87 10.6687 256.464 10.357 257.263 10.357ZM260.733 16V7.97H261.69V16H260.733ZM263.634 9.499C263.45 9.499 263.296 9.43667 263.172 9.312C263.047 9.18733 262.985 9.037 262.985 8.861C262.985 8.685 263.047 8.53467 263.172 8.41C263.296 8.278 263.45 8.212 263.634 8.212C263.81 8.212 263.96 8.278 264.085 8.41C264.209 8.53467 264.272 8.685 264.272 8.861C264.272 9.037 264.209 9.18733 264.085 9.312C263.96 9.43667 263.81 9.499 263.634 9.499ZM263.15 16V10.5H264.107V16H263.15ZM268.306 10.357C268.951 10.357 269.468 10.5623 269.857 10.973C270.245 11.3763 270.44 11.9263 270.44 12.623V16H269.483V12.678C269.483 12.2307 269.362 11.886 269.12 11.644C268.878 11.3947 268.544 11.27 268.119 11.27C267.642 11.27 267.257 11.4203 266.964 11.721C266.67 12.0143 266.524 12.469 266.524 13.085V16H265.567V10.5H266.524V11.292C266.912 10.6687 267.506 10.357 268.306 10.357ZM272.447 13.69C272.542 14.1813 272.766 14.5627 273.118 14.834C273.477 15.1053 273.917 15.241 274.438 15.241C275.164 15.241 275.692 14.9733 276.022 14.438L276.836 14.9C276.3 15.7287 275.494 16.143 274.416 16.143C273.543 16.143 272.832 15.8717 272.282 15.329C271.739 14.779 271.468 14.086 271.468 13.25C271.468 12.4213 271.735 11.732 272.271 11.182C272.806 10.632 273.499 10.357 274.35 10.357C275.156 10.357 275.813 10.643 276.319 11.215C276.832 11.7797 277.089 12.4617 277.089 13.261C277.089 13.4003 277.078 13.5433 277.056 13.69H272.447ZM274.35 11.259C273.836 11.259 273.411 11.4057 273.074 11.699C272.736 11.985 272.527 12.37 272.447 12.854H276.121C276.04 12.3333 275.835 11.9373 275.505 11.666C275.175 11.3947 274.79 11.259 274.35 11.259ZM283.975 10.357C284.745 10.357 285.401 10.6393 285.944 11.204C286.487 11.7613 286.758 12.4433 286.758 13.25C286.758 14.0567 286.487 14.7423 285.944 15.307C285.401 15.8643 284.745 16.143 283.975 16.143C283.066 16.143 282.373 15.78 281.896 15.054V18.2H280.939V10.5H281.896V11.446C282.373 10.72 283.066 10.357 283.975 10.357ZM283.854 15.219C284.404 15.219 284.866 15.032 285.24 14.658C285.614 14.2767 285.801 13.8073 285.801 13.25C285.801 12.6927 285.614 12.227 285.24 11.853C284.866 11.4717 284.404 11.281 283.854 11.281C283.297 11.281 282.831 11.4717 282.457 11.853C282.083 12.227 281.896 12.6927 281.896 13.25C281.896 13.8073 282.083 14.2767 282.457 14.658C282.831 15.032 283.297 15.219 283.854 15.219ZM287.9 16V7.97H288.857V16H287.9ZM294.871 10.5H295.828V16H294.871V15.054C294.394 15.78 293.701 16.143 292.792 16.143C292.022 16.143 291.365 15.8643 290.823 15.307C290.28 14.7423 290.009 14.0567 290.009 13.25C290.009 12.4433 290.28 11.7613 290.823 11.204C291.365 10.6393 292.022 10.357 292.792 10.357C293.701 10.357 294.394 10.72 294.871 11.446V10.5ZM292.913 15.219C293.47 15.219 293.936 15.032 294.31 14.658C294.684 14.2767 294.871 13.8073 294.871 13.25C294.871 12.6927 294.684 12.227 294.31 11.853C293.936 11.4717 293.47 11.281 292.913 11.281C292.363 11.281 291.901 11.4717 291.527 11.853C291.153 12.227 290.966 12.6927 290.966 13.25C290.966 13.8073 291.153 14.2767 291.527 14.658C291.901 15.032 292.363 15.219 292.913 15.219ZM300.27 11.424H298.807V14.405C298.807 14.6763 298.858 14.8707 298.961 14.988C299.071 15.098 299.236 15.1567 299.456 15.164C299.676 15.164 299.947 15.1567 300.27 15.142V16C299.434 16.11 298.821 16.044 298.433 15.802C298.044 15.5527 297.85 15.087 297.85 14.405V11.424H296.761V10.5H297.85V9.246L298.807 8.96V10.5H300.27V11.424ZM303.95 9.081C302.982 9.00033 302.498 9.41833 302.498 10.335V10.5H303.95V11.424H302.498V16H301.541V11.424H300.661V10.5H301.541V10.335C301.541 9.59433 301.747 9.03333 302.157 8.652C302.575 8.27067 303.173 8.10567 303.95 8.157V9.081ZM309.02 15.307C308.456 15.8643 307.77 16.143 306.963 16.143C306.157 16.143 305.471 15.8643 304.906 15.307C304.349 14.7497 304.07 14.064 304.07 13.25C304.07 12.436 304.349 11.7503 304.906 11.193C305.471 10.6357 306.157 10.357 306.963 10.357C307.77 10.357 308.456 10.6357 309.02 11.193C309.585 11.7503 309.867 12.436 309.867 13.25C309.867 14.064 309.585 14.7497 309.02 15.307ZM306.963 15.208C307.513 15.208 307.975 15.021 308.349 14.647C308.723 14.273 308.91 13.8073 308.91 13.25C308.91 12.6927 308.723 12.227 308.349 11.853C307.975 11.479 307.513 11.292 306.963 11.292C306.421 11.292 305.962 11.479 305.588 11.853C305.214 12.227 305.027 12.6927 305.027 13.25C305.027 13.8073 305.214 14.273 305.588 14.647C305.962 15.021 306.421 15.208 306.963 15.208ZM311.953 11.424C312.268 10.742 312.84 10.401 313.669 10.401V11.402C313.199 11.38 312.796 11.5047 312.459 11.776C312.121 12.0473 311.953 12.4837 311.953 13.085V16H310.996V10.5H311.953V11.424ZM320.545 10.357C321.161 10.357 321.66 10.5587 322.041 10.962C322.422 11.358 322.613 11.897 322.613 12.579V16H321.656V12.612C321.656 12.1867 321.546 11.8567 321.326 11.622C321.106 11.3873 320.813 11.27 320.446 11.27C320.035 11.27 319.705 11.4093 319.456 11.688C319.214 11.9593 319.093 12.3773 319.093 12.942V16H318.136V12.612C318.136 12.1867 318.03 11.8567 317.817 11.622C317.612 11.3873 317.329 11.27 316.97 11.27C316.567 11.27 316.229 11.4093 315.958 11.688C315.694 11.9667 315.562 12.3847 315.562 12.942V16H314.605V10.5H315.562V11.237C315.936 10.6503 316.482 10.357 317.201 10.357C317.942 10.357 318.481 10.6687 318.818 11.292C319.199 10.6687 319.775 10.357 320.545 10.357ZM329.517 9.081C328.549 9.00033 328.065 9.41833 328.065 10.335V10.5H329.517V11.424H328.065V16H327.108V11.424H326.228V10.5H327.108V10.335C327.108 9.59433 327.313 9.03333 327.724 8.652C328.142 8.27067 328.74 8.10567 329.517 8.157V9.081ZM334.587 15.307C334.022 15.8643 333.336 16.143 332.53 16.143C331.723 16.143 331.037 15.8643 330.473 15.307C329.915 14.7497 329.637 14.064 329.637 13.25C329.637 12.436 329.915 11.7503 330.473 11.193C331.037 10.6357 331.723 10.357 332.53 10.357C333.336 10.357 334.022 10.6357 334.587 11.193C335.151 11.7503 335.434 12.436 335.434 13.25C335.434 14.064 335.151 14.7497 334.587 15.307ZM332.53 15.208C333.08 15.208 333.542 15.021 333.916 14.647C334.29 14.273 334.477 13.8073 334.477 13.25C334.477 12.6927 334.29 12.227 333.916 11.853C333.542 11.479 333.08 11.292 332.53 11.292C331.987 11.292 331.529 11.479 331.155 11.853C330.781 12.227 330.594 12.6927 330.594 13.25C330.594 13.8073 330.781 14.273 331.155 14.647C331.529 15.021 331.987 15.208 332.53 15.208ZM337.519 11.424C337.834 10.742 338.406 10.401 339.235 10.401V11.402C338.766 11.38 338.362 11.5047 338.025 11.776C337.688 12.0473 337.519 12.4837 337.519 13.085V16H336.562V10.5H337.519V11.424ZM343.405 9.499C343.222 9.499 343.068 9.43667 342.943 9.312C342.819 9.18733 342.756 9.037 342.756 8.861C342.756 8.685 342.819 8.53467 342.943 8.41C343.068 8.278 343.222 8.212 343.405 8.212C343.581 8.212 343.732 8.278 343.856 8.41C343.981 8.53467 344.043 8.685 344.043 8.861C344.043 9.037 343.981 9.18733 343.856 9.312C343.732 9.43667 343.581 9.499 343.405 9.499ZM342.921 16V10.5H343.878V16H342.921ZM348.077 10.357C348.723 10.357 349.24 10.5623 349.628 10.973C350.017 11.3763 350.211 11.9263 350.211 12.623V16H349.254V12.678C349.254 12.2307 349.133 11.886 348.891 11.644C348.649 11.3947 348.316 11.27 347.89 11.27C347.414 11.27 347.029 11.4203 346.735 11.721C346.442 12.0143 346.295 12.469 346.295 13.085V16H345.338V10.5H346.295V11.292C346.684 10.6687 347.278 10.357 348.077 10.357ZM354.539 11.424H353.076V14.405C353.076 14.6763 353.128 14.8707 353.23 14.988C353.34 15.098 353.505 15.1567 353.725 15.164C353.945 15.164 354.217 15.1567 354.539 15.142V16C353.703 16.11 353.091 16.044 352.702 15.802C352.314 15.5527 352.119 15.087 352.119 14.405V11.424H351.03V10.5H352.119V9.246L353.076 8.96V10.5H354.539V11.424ZM356.064 13.69C356.159 14.1813 356.383 14.5627 356.735 14.834C357.094 15.1053 357.534 15.241 358.055 15.241C358.781 15.241 359.309 14.9733 359.639 14.438L360.453 14.9C359.918 15.7287 359.111 16.143 358.033 16.143C357.16 16.143 356.449 15.8717 355.899 15.329C355.356 14.779 355.085 14.086 355.085 13.25C355.085 12.4213 355.353 11.732 355.888 11.182C356.423 10.632 357.116 10.357 357.967 10.357C358.774 10.357 359.43 10.643 359.936 11.215C360.449 11.7797 360.706 12.4617 360.706 13.261C360.706 13.4003 360.695 13.5433 360.673 13.69H356.064ZM357.967 11.259C357.454 11.259 357.028 11.4057 356.691 11.699C356.354 11.985 356.145 12.37 356.064 12.854H359.738C359.657 12.3333 359.452 11.9373 359.122 11.666C358.792 11.3947 358.407 11.259 357.967 11.259ZM362.763 11.424C363.078 10.742 363.65 10.401 364.479 10.401V11.402C364.01 11.38 363.606 11.5047 363.269 11.776C362.932 12.0473 362.763 12.4837 362.763 13.085V16H361.806V10.5H362.763V11.424ZM369.669 10.5H370.626V16H369.669V15.054C369.192 15.78 368.499 16.143 367.59 16.143C366.82 16.143 366.163 15.8643 365.621 15.307C365.078 14.7423 364.807 14.0567 364.807 13.25C364.807 12.4433 365.078 11.7613 365.621 11.204C366.163 10.6393 366.82 10.357 367.59 10.357C368.499 10.357 369.192 10.72 369.669 11.446V10.5ZM367.711 15.219C368.268 15.219 368.734 15.032 369.108 14.658C369.482 14.2767 369.669 13.8073 369.669 13.25C369.669 12.6927 369.482 12.227 369.108 11.853C368.734 11.4717 368.268 11.281 367.711 11.281C367.161 11.281 366.699 11.4717 366.325 11.853C365.951 12.227 365.764 12.6927 365.764 13.25C365.764 13.8073 365.951 14.2767 366.325 14.658C366.699 15.032 367.161 15.219 367.711 15.219ZM374.661 16.143C373.832 16.143 373.143 15.868 372.593 15.318C372.043 14.7607 371.768 14.0713 371.768 13.25C371.768 12.4287 372.043 11.743 372.593 11.193C373.143 10.6357 373.832 10.357 374.661 10.357C375.203 10.357 375.691 10.489 376.124 10.753C376.556 11.0097 376.879 11.358 377.092 11.798L376.289 12.26C376.149 11.9667 375.933 11.732 375.64 11.556C375.354 11.38 375.027 11.292 374.661 11.292C374.111 11.292 373.649 11.479 373.275 11.853C372.908 12.227 372.725 12.6927 372.725 13.25C372.725 13.8 372.908 14.262 373.275 14.636C373.649 15.01 374.111 15.197 374.661 15.197C375.027 15.197 375.357 15.1127 375.651 14.944C375.944 14.768 376.168 14.5333 376.322 14.24L377.136 14.713C376.901 15.1457 376.564 15.494 376.124 15.758C375.684 16.0147 375.196 16.143 374.661 16.143ZM381.072 11.424H379.609V14.405C379.609 14.6763 379.661 14.8707 379.763 14.988C379.873 15.098 380.038 15.1567 380.258 15.164C380.478 15.164 380.75 15.1567 381.072 15.142V16C380.236 16.11 379.624 16.044 379.235 15.802C378.847 15.5527 378.652 15.087 378.652 14.405V11.424H377.563V10.5H378.652V9.246L379.609 8.96V10.5H381.072V11.424ZM382.689 9.499C382.506 9.499 382.352 9.43667 382.227 9.312C382.103 9.18733 382.04 9.037 382.04 8.861C382.04 8.685 382.103 8.53467 382.227 8.41C382.352 8.278 382.506 8.212 382.689 8.212C382.865 8.212 383.016 8.278 383.14 8.41C383.265 8.53467 383.327 8.685 383.327 8.861C383.327 9.037 383.265 9.18733 383.14 9.312C383.016 9.43667 382.865 9.499 382.689 9.499ZM382.205 16V10.5H383.162V16H382.205ZM389.264 15.307C388.7 15.8643 388.014 16.143 387.207 16.143C386.401 16.143 385.715 15.8643 385.15 15.307C384.593 14.7497 384.314 14.064 384.314 13.25C384.314 12.436 384.593 11.7503 385.15 11.193C385.715 10.6357 386.401 10.357 387.207 10.357C388.014 10.357 388.7 10.6357 389.264 11.193C389.829 11.7503 390.111 12.436 390.111 13.25C390.111 14.064 389.829 14.7497 389.264 15.307ZM387.207 15.208C387.757 15.208 388.219 15.021 388.593 14.647C388.967 14.273 389.154 13.8073 389.154 13.25C389.154 12.6927 388.967 12.227 388.593 11.853C388.219 11.479 387.757 11.292 387.207 11.292C386.665 11.292 386.206 11.479 385.832 11.853C385.458 12.227 385.271 12.6927 385.271 13.25C385.271 13.8073 385.458 14.273 385.832 14.647C386.206 15.021 386.665 15.208 387.207 15.208ZM393.979 10.357C394.624 10.357 395.141 10.5623 395.53 10.973C395.918 11.3763 396.113 11.9263 396.113 12.623V16H395.156V12.678C395.156 12.2307 395.035 11.886 394.793 11.644C394.551 11.3947 394.217 11.27 393.792 11.27C393.315 11.27 392.93 11.4203 392.637 11.721C392.343 12.0143 392.197 12.469 392.197 13.085V16H391.24V10.5H392.197V11.292C392.585 10.6687 393.179 10.357 393.979 10.357ZM398.879 14.867L398.164 17.54H397.339L397.779 14.867H398.879ZM405.808 9.081C404.84 9.00033 404.356 9.41833 404.356 10.335V10.5H405.808V11.424H404.356V16H403.399V11.424H402.519V10.5H403.399V10.335C403.399 9.59433 403.604 9.03333 404.015 8.652C404.433 8.27067 405.031 8.10567 405.808 8.157V9.081ZM406.907 13.69C407.002 14.1813 407.226 14.5627 407.578 14.834C407.937 15.1053 408.377 15.241 408.898 15.241C409.624 15.241 410.152 14.9733 410.482 14.438L411.296 14.9C410.76 15.7287 409.954 16.143 408.876 16.143C408.003 16.143 407.292 15.8717 406.742 15.329C406.199 14.779 405.928 14.086 405.928 13.25C405.928 12.4213 406.195 11.732 406.731 11.182C407.266 10.632 407.959 10.357 408.81 10.357C409.616 10.357 410.273 10.643 410.779 11.215C411.292 11.7797 411.549 12.4617 411.549 13.261C411.549 13.4003 411.538 13.5433 411.516 13.69H406.907ZM408.81 11.259C408.296 11.259 407.871 11.4057 407.534 11.699C407.196 11.985 406.987 12.37 406.907 12.854H410.581C410.5 12.3333 410.295 11.9373 409.965 11.666C409.635 11.3947 409.25 11.259 408.81 11.259ZM413.309 13.69C413.404 14.1813 413.628 14.5627 413.98 14.834C414.339 15.1053 414.779 15.241 415.3 15.241C416.026 15.241 416.554 14.9733 416.884 14.438L417.698 14.9C417.163 15.7287 416.356 16.143 415.278 16.143C414.405 16.143 413.694 15.8717 413.144 15.329C412.601 14.779 412.33 14.086 412.33 13.25C412.33 12.4213 412.598 11.732 413.133 11.182C413.668 10.632 414.361 10.357 415.212 10.357C416.019 10.357 416.675 10.643 417.181 11.215C417.694 11.7797 417.951 12.4617 417.951 13.261C417.951 13.4003 417.94 13.5433 417.918 13.69H413.309ZM415.212 11.259C414.699 11.259 414.273 11.4057 413.936 11.699C413.599 11.985 413.39 12.37 413.309 12.854H416.983C416.902 12.3333 416.697 11.9373 416.367 11.666C416.037 11.3947 415.652 11.259 415.212 11.259ZM423.594 8.3H424.551V16H423.594V15.054C423.118 15.78 422.425 16.143 421.515 16.143C420.745 16.143 420.089 15.8643 419.546 15.307C419.004 14.7423 418.732 14.0567 418.732 13.25C418.732 12.4433 419.004 11.7613 419.546 11.204C420.089 10.6393 420.745 10.357 421.515 10.357C422.425 10.357 423.118 10.72 423.594 11.446V8.3ZM421.636 15.219C422.194 15.219 422.659 15.032 423.033 14.658C423.407 14.2767 423.594 13.8073 423.594 13.25C423.594 12.6927 423.407 12.227 423.033 11.853C422.659 11.4717 422.194 11.281 421.636 11.281C421.086 11.281 420.624 11.4717 420.25 11.853C419.876 12.227 419.689 12.6927 419.689 13.25C419.689 13.8073 419.876 14.2767 420.25 14.658C420.624 15.032 421.086 15.219 421.636 15.219ZM429.037 10.357C429.807 10.357 430.464 10.6393 431.006 11.204C431.549 11.7613 431.82 12.4433 431.82 13.25C431.82 14.0567 431.549 14.7423 431.006 15.307C430.464 15.8643 429.807 16.143 429.037 16.143C428.128 16.143 427.435 15.78 426.958 15.054V16H426.001V8.3H426.958V11.446C427.435 10.72 428.128 10.357 429.037 10.357ZM428.916 15.219C429.466 15.219 429.928 15.032 430.302 14.658C430.676 14.2767 430.863 13.8073 430.863 13.25C430.863 12.6927 430.676 12.227 430.302 11.853C429.928 11.4717 429.466 11.281 428.916 11.281C428.359 11.281 427.893 11.4717 427.519 11.853C427.145 12.227 426.958 12.6927 426.958 13.25C426.958 13.8073 427.145 14.2767 427.519 14.658C427.893 15.032 428.359 15.219 428.916 15.219ZM437.516 10.5H438.473V16H437.516V15.054C437.04 15.78 436.347 16.143 435.437 16.143C434.667 16.143 434.011 15.8643 433.468 15.307C432.926 14.7423 432.654 14.0567 432.654 13.25C432.654 12.4433 432.926 11.7613 433.468 11.204C434.011 10.6393 434.667 10.357 435.437 10.357C436.347 10.357 437.04 10.72 437.516 11.446V10.5ZM435.558 15.219C436.116 15.219 436.581 15.032 436.955 14.658C437.329 14.2767 437.516 13.8073 437.516 13.25C437.516 12.6927 437.329 12.227 436.955 11.853C436.581 11.4717 436.116 11.281 435.558 11.281C435.008 11.281 434.546 11.4717 434.172 11.853C433.798 12.227 433.611 12.6927 433.611 13.25C433.611 13.8073 433.798 14.2767 434.172 14.658C434.546 15.032 435.008 15.219 435.558 15.219ZM442.508 16.143C441.68 16.143 440.99 15.868 440.44 15.318C439.89 14.7607 439.615 14.0713 439.615 13.25C439.615 12.4287 439.89 11.743 440.44 11.193C440.99 10.6357 441.68 10.357 442.508 10.357C443.051 10.357 443.539 10.489 443.971 10.753C444.404 11.0097 444.727 11.358 444.939 11.798L444.136 12.26C443.997 11.9667 443.781 11.732 443.487 11.556C443.201 11.38 442.875 11.292 442.508 11.292C441.958 11.292 441.496 11.479 441.122 11.853C440.756 12.227 440.572 12.6927 440.572 13.25C440.572 13.8 440.756 14.262 441.122 14.636C441.496 15.01 441.958 15.197 442.508 15.197C442.875 15.197 443.205 15.1127 443.498 14.944C443.792 14.768 444.015 14.5333 444.169 14.24L444.983 14.713C444.749 15.1457 444.411 15.494 443.971 15.758C443.531 16.0147 443.044 16.143 442.508 16.143ZM450.581 16H449.393L446.885 13.393V16H445.928V8.3H446.885V12.931L449.261 10.5H450.493L447.864 13.162L450.581 16ZM452.901 14.867L452.186 17.54H451.361L451.801 14.867H452.901ZM250.28 23.5H251.237V29H250.28V28.054C249.803 28.78 249.11 29.143 248.201 29.143C247.431 29.143 246.775 28.8643 246.232 28.307C245.689 27.7423 245.418 27.0567 245.418 26.25C245.418 25.4433 245.689 24.7613 246.232 24.204C246.775 23.6393 247.431 23.357 248.201 23.357C249.11 23.357 249.803 23.72 250.28 24.446V23.5ZM248.322 28.219C248.879 28.219 249.345 28.032 249.719 27.658C250.093 27.2767 250.28 26.8073 250.28 26.25C250.28 25.6927 250.093 25.227 249.719 24.853C249.345 24.4717 248.879 24.281 248.322 24.281C247.772 24.281 247.31 24.4717 246.936 24.853C246.562 25.227 246.375 25.6927 246.375 26.25C246.375 26.8073 246.562 27.2767 246.936 27.658C247.31 28.032 247.772 28.219 248.322 28.219ZM255.426 23.357C256.071 23.357 256.588 23.5623 256.977 23.973C257.366 24.3763 257.56 24.9263 257.56 25.623V29H256.603V25.678C256.603 25.2307 256.482 24.886 256.24 24.644C255.998 24.3947 255.664 24.27 255.239 24.27C254.762 24.27 254.377 24.4203 254.084 24.721C253.791 25.0143 253.644 25.469 253.644 26.085V29H252.687V23.5H253.644V24.292C254.033 23.6687 254.627 23.357 255.426 23.357ZM263.45 21.3H264.407V29H263.45V28.054C262.973 28.78 262.28 29.143 261.371 29.143C260.601 29.143 259.945 28.8643 259.402 28.307C258.859 27.7423 258.588 27.0567 258.588 26.25C258.588 25.4433 258.859 24.7613 259.402 24.204C259.945 23.6393 260.601 23.357 261.371 23.357C262.28 23.357 262.973 23.72 263.45 24.446V21.3ZM261.492 28.219C262.049 28.219 262.515 28.032 262.889 27.658C263.263 27.2767 263.45 26.8073 263.45 26.25C263.45 25.6927 263.263 25.227 262.889 24.853C262.515 24.4717 262.049 24.281 261.492 24.281C260.942 24.281 260.48 24.4717 260.106 24.853C259.732 25.227 259.545 25.6927 259.545 26.25C259.545 26.8073 259.732 27.2767 260.106 27.658C260.48 28.032 260.942 28.219 261.492 28.219ZM273.161 23.5H274.118V31.2H273.161V28.054C272.684 28.78 271.991 29.143 271.082 29.143C270.312 29.143 269.656 28.8643 269.113 28.307C268.57 27.7423 268.299 27.0567 268.299 26.25C268.299 25.4433 268.57 24.7613 269.113 24.204C269.656 23.6393 270.312 23.357 271.082 23.357C271.991 23.357 272.684 23.72 273.161 24.446V23.5ZM271.203 28.219C271.76 28.219 272.226 28.032 272.6 27.658C272.974 27.2767 273.161 26.8073 273.161 26.25C273.161 25.6927 272.974 25.227 272.6 24.853C272.226 24.4717 271.76 24.281 271.203 24.281C270.653 24.281 270.191 24.4717 269.817 24.853C269.443 25.227 269.256 25.6927 269.256 26.25C269.256 26.8073 269.443 27.2767 269.817 27.658C270.191 28.032 270.653 28.219 271.203 28.219ZM279.363 23.5H280.32V29H279.363V28.208C278.974 28.8313 278.38 29.143 277.581 29.143C276.935 29.143 276.418 28.9413 276.03 28.538C275.641 28.1273 275.447 27.5737 275.447 26.877V23.5H276.404V26.822C276.404 27.2693 276.525 27.6177 276.767 27.867C277.009 28.109 277.342 28.23 277.768 28.23C278.244 28.23 278.629 28.0833 278.923 27.79C279.216 27.4893 279.363 27.031 279.363 26.415V23.5ZM286.331 23.5H287.288V29H286.331V28.054C285.854 28.78 285.161 29.143 284.252 29.143C283.482 29.143 282.825 28.8643 282.283 28.307C281.74 27.7423 281.469 27.0567 281.469 26.25C281.469 25.4433 281.74 24.7613 282.283 24.204C282.825 23.6393 283.482 23.357 284.252 23.357C285.161 23.357 285.854 23.72 286.331 24.446V23.5ZM284.373 28.219C284.93 28.219 285.396 28.032 285.77 27.658C286.144 27.2767 286.331 26.8073 286.331 26.25C286.331 25.6927 286.144 25.227 285.77 24.853C285.396 24.4717 284.93 24.281 284.373 24.281C283.823 24.281 283.361 24.4717 282.987 24.853C282.613 25.227 282.426 25.6927 282.426 26.25C282.426 26.8073 282.613 27.2767 282.987 27.658C283.361 28.032 283.823 28.219 284.373 28.219ZM288.738 29V20.97H289.695V29H288.738ZM291.639 22.499C291.455 22.499 291.301 22.4367 291.177 22.312C291.052 22.1873 290.99 22.037 290.99 21.861C290.99 21.685 291.052 21.5347 291.177 21.41C291.301 21.278 291.455 21.212 291.639 21.212C291.815 21.212 291.965 21.278 292.09 21.41C292.214 21.5347 292.277 21.685 292.277 21.861C292.277 22.037 292.214 22.1873 292.09 22.312C291.965 22.4367 291.815 22.499 291.639 22.499ZM291.155 29V23.5H292.112V29H291.155ZM296.564 24.424H295.101V27.405C295.101 27.6763 295.152 27.8707 295.255 27.988C295.365 28.098 295.53 28.1567 295.75 28.164C295.97 28.164 296.241 28.1567 296.564 28.142V29C295.728 29.11 295.115 29.044 294.727 28.802C294.338 28.5527 294.144 28.087 294.144 27.405V24.424H293.055V23.5H294.144V22.246L295.101 21.96V23.5H296.564V24.424ZM301.654 23.5H302.677L300.433 29.341C300.198 29.9643 299.868 30.4373 299.443 30.76C299.025 31.09 298.541 31.2367 297.991 31.2V30.309C298.666 30.3603 299.161 29.9863 299.476 29.187L299.575 28.978L297.177 23.5H298.2L300.07 27.812L301.654 23.5ZM312.166 23.357C312.782 23.357 313.281 23.5587 313.662 23.962C314.043 24.358 314.234 24.897 314.234 25.579V29H313.277V25.612C313.277 25.1867 313.167 24.8567 312.947 24.622C312.727 24.3873 312.434 24.27 312.067 24.27C311.656 24.27 311.326 24.4093 311.077 24.688C310.835 24.9593 310.714 25.3773 310.714 25.942V29H309.757V25.612C309.757 25.1867 309.651 24.8567 309.438 24.622C309.233 24.3873 308.95 24.27 308.591 24.27C308.188 24.27 307.85 24.4093 307.579 24.688C307.315 24.9667 307.183 25.3847 307.183 25.942V29H306.226V23.5H307.183V24.237C307.557 23.6503 308.103 23.357 308.822 23.357C309.563 23.357 310.102 23.6687 310.439 24.292C310.82 23.6687 311.396 23.357 312.166 23.357ZM320.115 23.5H321.072V29H320.115V28.054C319.638 28.78 318.945 29.143 318.036 29.143C317.266 29.143 316.61 28.8643 316.067 28.307C315.524 27.7423 315.253 27.0567 315.253 26.25C315.253 25.4433 315.524 24.7613 316.067 24.204C316.61 23.6393 317.266 23.357 318.036 23.357C318.945 23.357 319.638 23.72 320.115 24.446V23.5ZM318.157 28.219C318.714 28.219 319.18 28.032 319.554 27.658C319.928 27.2767 320.115 26.8073 320.115 26.25C320.115 25.6927 319.928 25.227 319.554 24.853C319.18 24.4717 318.714 24.281 318.157 24.281C317.607 24.281 317.145 24.4717 316.771 24.853C316.397 25.227 316.21 25.6927 316.21 26.25C316.21 26.8073 316.397 27.2767 316.771 27.658C317.145 28.032 317.607 28.219 318.157 28.219ZM325.261 23.357C325.906 23.357 326.423 23.5623 326.812 23.973C327.201 24.3763 327.395 24.9263 327.395 25.623V29H326.438V25.678C326.438 25.2307 326.317 24.886 326.075 24.644C325.833 24.3947 325.499 24.27 325.074 24.27C324.597 24.27 324.212 24.4203 323.919 24.721C323.626 25.0143 323.479 25.469 323.479 26.085V29H322.522V23.5H323.479V24.292C323.868 23.6687 324.462 23.357 325.261 23.357ZM333.285 23.5H334.242V29H333.285V28.054C332.808 28.78 332.115 29.143 331.206 29.143C330.436 29.143 329.78 28.8643 329.237 28.307C328.694 27.7423 328.423 27.0567 328.423 26.25C328.423 25.4433 328.694 24.7613 329.237 24.204C329.78 23.6393 330.436 23.357 331.206 23.357C332.115 23.357 332.808 23.72 333.285 24.446V23.5ZM331.327 28.219C331.884 28.219 332.35 28.032 332.724 27.658C333.098 27.2767 333.285 26.8073 333.285 26.25C333.285 25.6927 333.098 25.227 332.724 24.853C332.35 24.4717 331.884 24.281 331.327 24.281C330.777 24.281 330.315 24.4717 329.941 24.853C329.567 25.227 329.38 25.6927 329.38 26.25C329.38 26.8073 329.567 27.2767 329.941 27.658C330.315 28.032 330.777 28.219 331.327 28.219ZM340.257 23.5H341.203V28.769C341.203 29.583 340.928 30.2137 340.378 30.661C339.828 31.1157 339.168 31.343 338.398 31.343C337.782 31.343 337.25 31.2257 336.803 30.991C336.355 30.7637 336.018 30.4337 335.791 30.001L336.627 29.528C336.927 30.144 337.525 30.452 338.42 30.452C338.992 30.452 339.439 30.3017 339.762 30.001C340.092 29.7003 340.257 29.2897 340.257 28.769V27.988C339.773 28.7213 339.083 29.088 338.189 29.088C337.404 29.088 336.74 28.8093 336.198 28.252C335.655 27.6947 335.384 27.0163 335.384 26.217C335.384 25.4177 335.655 24.743 336.198 24.193C336.74 23.6357 337.404 23.357 338.189 23.357C339.091 23.357 339.78 23.72 340.257 24.446V23.5ZM336.902 27.614C337.276 27.988 337.741 28.175 338.299 28.175C338.856 28.175 339.322 27.988 339.696 27.614C340.07 27.24 340.257 26.7743 340.257 26.217C340.257 25.667 340.07 25.205 339.696 24.831C339.322 24.457 338.856 24.27 338.299 24.27C337.741 24.27 337.276 24.457 336.902 24.831C336.528 25.205 336.341 25.667 336.341 26.217C336.341 26.7743 336.528 27.24 336.902 27.614ZM343.324 26.69C343.419 27.1813 343.643 27.5627 343.995 27.834C344.354 28.1053 344.794 28.241 345.315 28.241C346.041 28.241 346.569 27.9733 346.899 27.438L347.713 27.9C347.177 28.7287 346.371 29.143 345.293 29.143C344.42 29.143 343.709 28.8717 343.159 28.329C342.616 27.779 342.345 27.086 342.345 26.25C342.345 25.4213 342.612 24.732 343.148 24.182C343.683 23.632 344.376 23.357 345.227 23.357C346.033 23.357 346.69 23.643 347.196 24.215C347.709 24.7797 347.966 25.4617 347.966 26.261C347.966 26.4003 347.955 26.5433 347.933 26.69H343.324ZM345.227 24.259C344.713 24.259 344.288 24.4057 343.951 24.699C343.613 24.985 343.404 25.37 343.324 25.854H346.998C346.917 25.3333 346.712 24.9373 346.382 24.666C346.052 24.3947 345.667 24.259 345.227 24.259ZM355.006 23.357C355.622 23.357 356.121 23.5587 356.502 23.962C356.883 24.358 357.074 24.897 357.074 25.579V29H356.117V25.612C356.117 25.1867 356.007 24.8567 355.787 24.622C355.567 24.3873 355.274 24.27 354.907 24.27C354.496 24.27 354.166 24.4093 353.917 24.688C353.675 24.9593 353.554 25.3773 353.554 25.942V29H352.597V25.612C352.597 25.1867 352.491 24.8567 352.278 24.622C352.073 24.3873 351.79 24.27 351.431 24.27C351.028 24.27 350.69 24.4093 350.419 24.688C350.155 24.9667 350.023 25.3847 350.023 25.942V29H349.066V23.5H350.023V24.237C350.397 23.6503 350.943 23.357 351.662 23.357C352.403 23.357 352.942 23.6687 353.279 24.292C353.66 23.6687 354.236 23.357 355.006 23.357ZM359.072 26.69C359.167 27.1813 359.391 27.5627 359.743 27.834C360.102 28.1053 360.542 28.241 361.063 28.241C361.789 28.241 362.317 27.9733 362.647 27.438L363.461 27.9C362.925 28.7287 362.119 29.143 361.041 29.143C360.168 29.143 359.457 28.8717 358.907 28.329C358.364 27.779 358.093 27.086 358.093 26.25C358.093 25.4213 358.36 24.732 358.896 24.182C359.431 23.632 360.124 23.357 360.975 23.357C361.781 23.357 362.438 23.643 362.944 24.215C363.457 24.7797 363.714 25.4617 363.714 26.261C363.714 26.4003 363.703 26.5433 363.681 26.69H359.072ZM360.975 24.259C360.461 24.259 360.036 24.4057 359.699 24.699C359.361 24.985 359.152 25.37 359.072 25.854H362.746C362.665 25.3333 362.46 24.9373 362.13 24.666C361.8 24.3947 361.415 24.259 360.975 24.259ZM367.553 23.357C368.198 23.357 368.715 23.5623 369.104 23.973C369.493 24.3763 369.687 24.9263 369.687 25.623V29H368.73V25.678C368.73 25.2307 368.609 24.886 368.367 24.644C368.125 24.3947 367.791 24.27 367.366 24.27C366.889 24.27 366.504 24.4203 366.211 24.721C365.918 25.0143 365.771 25.469 365.771 26.085V29H364.814V23.5H365.771V24.292C366.16 23.6687 366.754 23.357 367.553 23.357ZM374.015 24.424H372.552V27.405C372.552 27.6763 372.603 27.8707 372.706 27.988C372.816 28.098 372.981 28.1567 373.201 28.164C373.421 28.164 373.692 28.1567 374.015 28.142V29C373.179 29.11 372.567 29.044 372.178 28.802C371.789 28.5527 371.595 28.087 371.595 27.405V24.424H370.506V23.5H371.595V22.246L372.552 21.96V23.5H374.015V24.424ZM384.409 23.5H385.41L383.705 29H382.726L381.439 24.93L380.152 29H379.173L377.468 23.5H378.469L379.679 27.68L380.977 23.5H381.901L383.199 27.691L384.409 23.5ZM386.879 22.499C386.696 22.499 386.542 22.4367 386.417 22.312C386.292 22.1873 386.23 22.037 386.23 21.861C386.23 21.685 386.292 21.5347 386.417 21.41C386.542 21.278 386.696 21.212 386.879 21.212C387.055 21.212 387.205 21.278 387.33 21.41C387.455 21.5347 387.517 21.685 387.517 21.861C387.517 22.037 387.455 22.1873 387.33 22.312C387.205 22.4367 387.055 22.499 386.879 22.499ZM386.395 29V23.5H387.352V29H386.395ZM391.804 24.424H390.341V27.405C390.341 27.6763 390.392 27.8707 390.495 27.988C390.605 28.098 390.77 28.1567 390.99 28.164C391.21 28.164 391.481 28.1567 391.804 28.142V29C390.968 29.11 390.356 29.044 389.967 28.802C389.578 28.5527 389.384 28.087 389.384 27.405V24.424H388.295V23.5H389.384V22.246L390.341 21.96V23.5H391.804V24.424ZM395.676 23.357C396.321 23.357 396.838 23.5623 397.227 23.973C397.616 24.3763 397.81 24.9263 397.81 25.623V29H396.853V25.678C396.853 25.2307 396.732 24.886 396.49 24.644C396.248 24.3947 395.914 24.27 395.489 24.27C395.012 24.27 394.627 24.4203 394.334 24.721C394.041 25.0143 393.894 25.469 393.894 26.085V29H392.937V21.3H393.894V24.292C394.283 23.6687 394.877 23.357 395.676 23.357ZM404.481 29.143C403.652 29.143 402.963 28.868 402.413 28.318C401.863 27.7607 401.588 27.0713 401.588 26.25C401.588 25.4287 401.863 24.743 402.413 24.193C402.963 23.6357 403.652 23.357 404.481 23.357C405.024 23.357 405.511 23.489 405.944 23.753C406.377 24.0097 406.699 24.358 406.912 24.798L406.109 25.26C405.97 24.9667 405.753 24.732 405.46 24.556C405.174 24.38 404.848 24.292 404.481 24.292C403.931 24.292 403.469 24.479 403.095 24.853C402.728 25.227 402.545 25.6927 402.545 26.25C402.545 26.8 402.728 27.262 403.095 27.636C403.469 28.01 403.931 28.197 404.481 28.197C404.848 28.197 405.178 28.1127 405.471 27.944C405.764 27.768 405.988 27.5333 406.142 27.24L406.956 27.713C406.721 28.1457 406.384 28.494 405.944 28.758C405.504 29.0147 405.016 29.143 404.481 29.143ZM411.707 23.5H412.664V29H411.707V28.208C411.318 28.8313 410.724 29.143 409.925 29.143C409.279 29.143 408.762 28.9413 408.374 28.538C407.985 28.1273 407.791 27.5737 407.791 26.877V23.5H408.748V26.822C408.748 27.2693 408.869 27.6177 409.111 27.867C409.353 28.109 409.686 28.23 410.112 28.23C410.588 28.23 410.973 28.0833 411.267 27.79C411.56 27.4893 411.707 27.031 411.707 26.415V23.5ZM414.935 24.985C414.935 25.1977 415.041 25.37 415.254 25.502C415.466 25.6267 415.723 25.7293 416.024 25.81C416.324 25.8833 416.625 25.9713 416.926 26.074C417.226 26.1693 417.483 26.338 417.696 26.58C417.908 26.8147 418.015 27.119 418.015 27.493C418.015 27.9917 417.82 28.3913 417.432 28.692C417.05 28.9927 416.559 29.143 415.958 29.143C415.422 29.143 414.964 29.0257 414.583 28.791C414.201 28.5563 413.93 28.2447 413.769 27.856L414.594 27.383C414.682 27.647 414.847 27.856 415.089 28.01C415.331 28.164 415.62 28.241 415.958 28.241C416.273 28.241 416.533 28.1823 416.739 28.065C416.944 27.9403 417.047 27.7497 417.047 27.493C417.047 27.2803 416.94 27.1117 416.728 26.987C416.515 26.855 416.258 26.7523 415.958 26.679C415.657 26.5983 415.356 26.5067 415.056 26.404C414.755 26.3013 414.498 26.1327 414.286 25.898C414.073 25.6633 413.967 25.3627 413.967 24.996C413.967 24.5193 414.15 24.127 414.517 23.819C414.891 23.511 415.356 23.357 415.914 23.357C416.361 23.357 416.757 23.4597 417.102 23.665C417.454 23.863 417.718 24.1417 417.894 24.501L417.091 24.952C416.893 24.4827 416.5 24.248 415.914 24.248C415.642 24.248 415.411 24.314 415.221 24.446C415.03 24.5707 414.935 24.7503 414.935 24.985ZM421.925 24.424H420.462V27.405C420.462 27.6763 420.513 27.8707 420.616 27.988C420.726 28.098 420.891 28.1567 421.111 28.164C421.331 28.164 421.602 28.1567 421.925 28.142V29C421.089 29.11 420.477 29.044 420.088 28.802C419.699 28.5527 419.505 28.087 419.505 27.405V24.424H418.416V23.5H419.505V22.246L420.462 21.96V23.5H421.925V24.424ZM427.421 28.307C426.856 28.8643 426.17 29.143 425.364 29.143C424.557 29.143 423.871 28.8643 423.307 28.307C422.749 27.7497 422.471 27.064 422.471 26.25C422.471 25.436 422.749 24.7503 423.307 24.193C423.871 23.6357 424.557 23.357 425.364 23.357C426.17 23.357 426.856 23.6357 427.421 24.193C427.985 24.7503 428.268 25.436 428.268 26.25C428.268 27.064 427.985 27.7497 427.421 28.307ZM425.364 28.208C425.914 28.208 426.376 28.021 426.75 27.647C427.124 27.273 427.311 26.8073 427.311 26.25C427.311 25.6927 427.124 25.227 426.75 24.853C426.376 24.479 425.914 24.292 425.364 24.292C424.821 24.292 424.363 24.479 423.989 24.853C423.615 25.227 423.428 25.6927 423.428 26.25C423.428 26.8073 423.615 27.273 423.989 27.647C424.363 28.021 424.821 28.208 425.364 28.208ZM435.336 23.357C435.952 23.357 436.451 23.5587 436.832 23.962C437.213 24.358 437.404 24.897 437.404 25.579V29H436.447V25.612C436.447 25.1867 436.337 24.8567 436.117 24.622C435.897 24.3873 435.604 24.27 435.237 24.27C434.826 24.27 434.496 24.4093 434.247 24.688C434.005 24.9593 433.884 25.3773 433.884 25.942V29H432.927V25.612C432.927 25.1867 432.821 24.8567 432.608 24.622C432.403 24.3873 432.12 24.27 431.761 24.27C431.358 24.27 431.02 24.4093 430.749 24.688C430.485 24.9667 430.353 25.3847 430.353 25.942V29H429.396V23.5H430.353V24.237C430.727 23.6503 431.273 23.357 431.992 23.357C432.733 23.357 433.272 23.6687 433.609 24.292C433.99 23.6687 434.566 23.357 435.336 23.357ZM439.402 26.69C439.497 27.1813 439.721 27.5627 440.073 27.834C440.432 28.1053 440.872 28.241 441.393 28.241C442.119 28.241 442.647 27.9733 442.977 27.438L443.791 27.9C443.256 28.7287 442.449 29.143 441.371 29.143C440.498 29.143 439.787 28.8717 439.237 28.329C438.694 27.779 438.423 27.086 438.423 26.25C438.423 25.4213 438.691 24.732 439.226 24.182C439.761 23.632 440.454 23.357 441.305 23.357C442.112 23.357 442.768 23.643 443.274 24.215C443.787 24.7797 444.044 25.4617 444.044 26.261C444.044 26.4003 444.033 26.5433 444.011 26.69H439.402ZM441.305 24.259C440.792 24.259 440.366 24.4057 440.029 24.699C439.692 24.985 439.483 25.37 439.402 25.854H443.076C442.995 25.3333 442.79 24.9373 442.46 24.666C442.13 24.3947 441.745 24.259 441.305 24.259ZM446.101 24.424C446.416 23.742 446.988 23.401 447.817 23.401V24.402C447.348 24.38 446.944 24.5047 446.607 24.776C446.27 25.0473 446.101 25.4837 446.101 26.085V29H445.144V23.5H446.101V24.424ZM449.374 24.985C449.374 25.1977 449.481 25.37 449.693 25.502C449.906 25.6267 450.163 25.7293 450.463 25.81C450.764 25.8833 451.065 25.9713 451.365 26.074C451.666 26.1693 451.923 26.338 452.135 26.58C452.348 26.8147 452.454 27.119 452.454 27.493C452.454 27.9917 452.26 28.3913 451.871 28.692C451.49 28.9927 450.999 29.143 450.397 29.143C449.862 29.143 449.404 29.0257 449.022 28.791C448.641 28.5563 448.37 28.2447 448.208 27.856L449.033 27.383C449.121 27.647 449.286 27.856 449.528 28.01C449.77 28.164 450.06 28.241 450.397 28.241C450.713 28.241 450.973 28.1823 451.178 28.065C451.384 27.9403 451.486 27.7497 451.486 27.493C451.486 27.2803 451.38 27.1117 451.167 26.987C450.955 26.855 450.698 26.7523 450.397 26.679C450.097 26.5983 449.796 26.5067 449.495 26.404C449.195 26.3013 448.938 26.1327 448.725 25.898C448.513 25.6633 448.406 25.3627 448.406 24.996C448.406 24.5193 448.59 24.127 448.956 23.819C449.33 23.511 449.796 23.357 450.353 23.357C450.801 23.357 451.197 23.4597 451.541 23.665C451.893 23.863 452.157 24.1417 452.333 24.501L451.53 24.952C451.332 24.4827 450.94 24.248 450.353 24.248C450.082 24.248 449.851 24.314 449.66 24.446C449.47 24.5707 449.374 24.7503 449.374 24.985Z" fill="black"/>
<defs>
<clipPath id="clip0_5824_34424">
<rect width="18.0494" height="18.0494" fill="white" transform="translate(7.7334 11.6062) rotate(-15)"/>
</clipPath>
</defs>
</svg>
