<svg width="157" height="22" viewBox="0 0 157 22" fill="none" xmlns="http://www.w3.org/2000/svg">
<path d="M11.224 20.7777C16.5915 20.7777 20.9427 16.4001 20.9427 10.9999C20.9427 5.59983 16.5915 1.22217 11.224 1.22217C5.85656 1.22217 1.50538 5.59983 1.50538 10.9999C1.50538 12.4319 1.81134 13.792 2.3611 15.0176C2.63617 15.6309 2.67688 16.3368 2.38104 16.9403L1.09635 19.5612C0.891857 19.9783 1.31722 20.4245 1.74368 20.2402L4.1689 19.192C4.84128 18.9014 5.61034 19.0164 6.23774 19.3944C7.69553 20.2728 9.40117 20.7777 11.224 20.7777Z" fill="#2F8733"/>
<g clip-path="url(#clip0_3242_477429)">
<path d="M5.35256 7.21935L4.95117 7.3269L5.05872 7.72829L5.46011 7.62074L5.35256 7.21935Z" fill="white"/>
<path d="M5.75393 7.11169L5.35254 7.21924L5.46009 7.62063L5.86148 7.51307L5.75393 7.11169Z" fill="white"/>
<path d="M6.15529 7.00426L5.75391 7.11182L5.86146 7.5132L6.26285 7.40565L6.15529 7.00426Z" fill="white"/>
<path d="M6.55666 6.8966L6.15527 7.00415L6.26283 7.40554L6.66421 7.29799L6.55666 6.8966Z" fill="white"/>
<path d="M6.95803 6.78918L6.55664 6.89673L6.66419 7.29812L7.06558 7.19057L6.95803 6.78918Z" fill="white"/>
<path d="M7.3594 6.68151L6.95801 6.78906L7.06556 7.19045L7.46695 7.0829L7.3594 6.68151Z" fill="white"/>
<path d="M7.76076 6.57409L7.35938 6.68164L7.46693 7.08303L7.86832 6.97548L7.76076 6.57409Z" fill="white"/>
<path d="M8.5635 6.359L8.16211 6.46655L8.26966 6.86794L8.67105 6.76039L8.5635 6.359Z" fill="white"/>
<path d="M8.96486 6.25134L8.56348 6.35889L8.67103 6.76028L9.07242 6.65272L8.96486 6.25134Z" fill="white"/>
<path d="M11.7744 5.49841L11.373 5.60596L11.4806 6.00735L11.882 5.89979L11.7744 5.49841Z" fill="white"/>
<path d="M12.5781 5.28332L12.1768 5.39087L12.2843 5.79226L12.6857 5.68471L12.5781 5.28332Z" fill="white"/>
<path d="M12.9795 5.1759L12.5781 5.28345L12.6857 5.68484L13.0871 5.57728L12.9795 5.1759Z" fill="white"/>
<path d="M13.3809 5.06823L12.9795 5.17578L13.087 5.57717L13.4884 5.46962L13.3809 5.06823Z" fill="white"/>
<path d="M13.7822 4.96081L13.3809 5.06836L13.4884 5.46975L13.8898 5.3622L13.7822 4.96081Z" fill="white"/>
<path d="M14.1836 4.85314L13.7822 4.96069L13.8898 5.36208L14.2912 5.25453L14.1836 4.85314Z" fill="white"/>
<path d="M14.585 4.74572L14.1836 4.85327L14.2911 5.25466L14.6925 5.14711L14.585 4.74572Z" fill="white"/>
<path d="M14.9863 4.63805L14.585 4.74561L14.6925 5.14699L15.0939 5.03944L14.9863 4.63805Z" fill="white"/>
<path d="M5.45998 7.62072L5.05859 7.72827L5.16615 8.12966L5.56753 8.02211L5.45998 7.62072Z" fill="white"/>
<path d="M7.86819 6.97546L7.4668 7.08301L7.57435 7.4844L7.97574 7.37684L7.86819 6.97546Z" fill="white"/>
<path d="M10.6778 6.22253L10.2764 6.33008L10.3839 6.73147L10.7853 6.62391L10.6778 6.22253Z" fill="white"/>
<path d="M11.8819 5.89977L11.4805 6.00732L11.588 6.40871L11.9894 6.30116L11.8819 5.89977Z" fill="white"/>
<path d="M12.6856 5.68468L12.2842 5.79224L12.3917 6.19362L12.7931 6.08607L12.6856 5.68468Z" fill="white"/>
<path d="M15.0938 5.03942L14.6924 5.14697L14.7999 5.54836L15.2013 5.44081L15.0938 5.03942Z" fill="white"/>
<path d="M5.5674 8.02209L5.16602 8.12964L5.27357 8.53103L5.67496 8.42348L5.5674 8.02209Z" fill="white"/>
<path d="M6.37014 7.807L5.96875 7.91455L6.0763 8.31594L6.47769 8.20839L6.37014 7.807Z" fill="white"/>
<path d="M6.77151 7.69933L6.37012 7.80688L6.47767 8.20827L6.87906 8.10072L6.77151 7.69933Z" fill="white"/>
<path d="M7.17287 7.59191L6.77148 7.69946L6.87904 8.10085L7.28042 7.9933L7.17287 7.59191Z" fill="white"/>
<path d="M7.97561 7.37682L7.57422 7.48438L7.68177 7.88576L8.08316 7.77821L7.97561 7.37682Z" fill="white"/>
<path d="M8.77834 7.16174L8.37695 7.26929L8.4845 7.67068L8.88589 7.56312L8.77834 7.16174Z" fill="white"/>
<path d="M9.98244 6.83898L9.58105 6.94653L9.68861 7.34792L10.09 7.24037L9.98244 6.83898Z" fill="white"/>
<path d="M10.3838 6.73156L9.98242 6.83911L10.09 7.2405L10.4914 7.13295L10.3838 6.73156Z" fill="white"/>
<path d="M10.7852 6.62389L10.3838 6.73145L10.4913 7.13283L10.8927 7.02528L10.7852 6.62389Z" fill="white"/>
<path d="M11.5879 6.40881L11.1865 6.51636L11.2941 6.91775L11.6955 6.81019L11.5879 6.40881Z" fill="white"/>
<path d="M12.793 6.08605L12.3916 6.1936L12.4992 6.59499L12.9005 6.48744L12.793 6.08605Z" fill="white"/>
<path d="M13.5957 5.87096L13.1943 5.97852L13.3019 6.3799L13.7033 6.27235L13.5957 5.87096Z" fill="white"/>
<path d="M13.9971 5.76354L13.5957 5.87109L13.7033 6.27248L14.1046 6.16493L13.9971 5.76354Z" fill="white"/>
<path d="M14.3985 5.65588L13.9971 5.76343L14.1046 6.16482L14.506 6.05726L14.3985 5.65588Z" fill="white"/>
<path d="M15.2012 5.44079L14.7998 5.54834L14.9074 5.94973L15.3087 5.84218L15.2012 5.44079Z" fill="white"/>
<path d="M5.67483 8.42345L5.27344 8.53101L5.38099 8.93239L5.78238 8.82484L5.67483 8.42345Z" fill="white"/>
<path d="M6.47756 8.20837L6.07617 8.31592L6.18372 8.71731L6.58511 8.60975L6.47756 8.20837Z" fill="white"/>
<path d="M6.87893 8.1007L6.47754 8.20825L6.58509 8.60964L6.98648 8.50209L6.87893 8.1007Z" fill="white"/>
<path d="M7.28029 7.99328L6.87891 8.10083L6.98646 8.50222L7.38785 8.39467L7.28029 7.99328Z" fill="white"/>
<path d="M8.08303 7.77819L7.68164 7.88574L7.78919 8.28713L8.19058 8.17958L8.08303 7.77819Z" fill="white"/>
<path d="M8.88576 7.5631L8.48438 7.67065L8.59193 8.07204L8.99332 7.96449L8.88576 7.5631Z" fill="white"/>
<path d="M9.28713 7.45544L8.88574 7.56299L8.99329 7.96438L9.39468 7.85683L9.28713 7.45544Z" fill="white"/>
<path d="M10.0899 7.24035L9.68848 7.3479L9.79603 7.74929L10.1974 7.64174L10.0899 7.24035Z" fill="white"/>
<path d="M10.8926 7.02526L10.4912 7.13281L10.5988 7.5342L11.0002 7.42665L10.8926 7.02526Z" fill="white"/>
<path d="M11.294 6.91759L10.8926 7.02515L11.0001 7.42653L11.4015 7.31898L11.294 6.91759Z" fill="white"/>
<path d="M12.9004 6.48742L12.499 6.59497L12.6066 6.99636L13.008 6.88881L12.9004 6.48742Z" fill="white"/>
<path d="M13.7031 6.27233L13.3018 6.37988L13.4093 6.78127L13.8107 6.67372L13.7031 6.27233Z" fill="white"/>
<path d="M14.1045 6.16491L13.7031 6.27246L13.8107 6.67385L14.2121 6.5663L14.1045 6.16491Z" fill="white"/>
<path d="M14.5059 6.05724L14.1045 6.16479L14.212 6.56618L14.6134 6.45863L14.5059 6.05724Z" fill="white"/>
<path d="M15.3086 5.84216L14.9072 5.94971L15.0148 6.3511L15.4162 6.24354L15.3086 5.84216Z" fill="white"/>
<path d="M5.78322 8.82507L5.38184 8.93262L5.48939 9.33401L5.89078 9.22645L5.78322 8.82507Z" fill="white"/>
<path d="M6.58596 8.60998L6.18457 8.71753L6.29212 9.11892L6.69351 9.01137L6.58596 8.60998Z" fill="white"/>
<path d="M6.98733 8.50231L6.58594 8.60986L6.69349 9.01125L7.09488 8.9037L6.98733 8.50231Z" fill="white"/>
<path d="M7.38869 8.39489L6.9873 8.50244L7.09486 8.90383L7.49624 8.79628L7.38869 8.39489Z" fill="white"/>
<path d="M8.19143 8.1798L7.79004 8.28735L7.89759 8.68874L8.29898 8.58119L8.19143 8.1798Z" fill="white"/>
<path d="M8.99416 7.96471L8.59277 8.07227L8.70033 8.47365L9.10171 8.3661L8.99416 7.96471Z" fill="white"/>
<path d="M9.39553 7.85705L8.99414 7.9646L9.10169 8.36599L9.50308 8.25844L9.39553 7.85705Z" fill="white"/>
<path d="M9.7969 7.74963L9.39551 7.85718L9.50306 8.25857L9.90445 8.15101L9.7969 7.74963Z" fill="white"/>
<path d="M10.1983 7.64196L9.79688 7.74951L9.90443 8.1509L10.3058 8.04335L10.1983 7.64196Z" fill="white"/>
<path d="M11.8037 7.21178L11.4023 7.31934L11.5099 7.72072L11.9113 7.61317L11.8037 7.21178Z" fill="white"/>
<path d="M12.2051 7.10412L11.8037 7.21167L11.9113 7.61306L12.3127 7.50551L12.2051 7.10412Z" fill="white"/>
<path d="M13.0088 6.88903L12.6074 6.99658L12.715 7.39797L13.1164 7.29042L13.0088 6.88903Z" fill="white"/>
<path d="M13.8115 6.67394L13.4102 6.78149L13.5177 7.18288L13.9191 7.07533L13.8115 6.67394Z" fill="white"/>
<path d="M14.2129 6.56652L13.8115 6.67407L13.9191 7.07546L14.3205 6.96791L14.2129 6.56652Z" fill="white"/>
<path d="M14.6143 6.45885L14.2129 6.56641L14.3204 6.96779L14.7218 6.86024L14.6143 6.45885Z" fill="white"/>
<path d="M15.417 6.24377L15.0156 6.35132L15.1232 6.75271L15.5246 6.64515L15.417 6.24377Z" fill="white"/>
<path d="M5.89065 9.22643L5.48926 9.33398L5.59681 9.73537L5.9982 9.62782L5.89065 9.22643Z" fill="white"/>
<path d="M8.29885 8.58117L7.89746 8.68872L8.00501 9.09011L8.4064 8.98256L8.29885 8.58117Z" fill="white"/>
<path d="M9.50295 8.25842L9.10156 8.36597L9.20911 8.76735L9.6105 8.6598L9.50295 8.25842Z" fill="white"/>
<path d="M10.7071 7.93591L10.3057 8.04346L10.4132 8.44485L10.8146 8.33729L10.7071 7.93591Z" fill="white"/>
<path d="M11.1084 7.82824L10.707 7.93579L10.8146 8.33718L11.216 8.22963L11.1084 7.82824Z" fill="white"/>
<path d="M11.5098 7.72057L11.1084 7.82812L11.216 8.22951L11.6173 8.12196L11.5098 7.72057Z" fill="white"/>
<path d="M13.1162 7.2904L12.7148 7.39795L12.8224 7.79934L13.2238 7.69179L13.1162 7.2904Z" fill="white"/>
<path d="M15.5244 6.64513L15.123 6.75269L15.2306 7.15407L15.632 7.04652L15.5244 6.64513Z" fill="white"/>
<path d="M5.99807 9.6278L5.59668 9.73535L5.70423 10.1367L6.10562 10.0292L5.99807 9.6278Z" fill="white"/>
<path d="M6.39944 9.52013L5.99805 9.62769L6.1056 10.0291L6.50699 9.92152L6.39944 9.52013Z" fill="white"/>
<path d="M6.8008 9.41271L6.39941 9.52026L6.50697 9.92165L6.90835 9.8141L6.8008 9.41271Z" fill="white"/>
<path d="M7.20217 9.30505L6.80078 9.4126L6.90833 9.81399L7.30972 9.70643L7.20217 9.30505Z" fill="white"/>
<path d="M7.60354 9.19762L7.20215 9.30518L7.3097 9.70656L7.71109 9.59901L7.60354 9.19762Z" fill="white"/>
<path d="M8.0049 9.08996L7.60352 9.19751L7.71107 9.5989L8.11246 9.49135L8.0049 9.08996Z" fill="white"/>
<path d="M8.40627 8.98254L8.00488 9.09009L8.11243 9.49148L8.51382 9.38392L8.40627 8.98254Z" fill="white"/>
<path d="M9.20901 8.76745L8.80762 8.875L8.91517 9.27639L9.31656 9.16884L9.20901 8.76745Z" fill="white"/>
<path d="M10.0117 8.55236L9.61035 8.65991L9.7179 9.0613L10.1193 8.95375L10.0117 8.55236Z" fill="white"/>
<path d="M10.8145 8.33727L10.4131 8.44482L10.5206 8.84621L10.922 8.73866L10.8145 8.33727Z" fill="white"/>
<path d="M11.6172 8.12194L11.2158 8.22949L11.3234 8.63088L11.7248 8.52333L11.6172 8.12194Z" fill="white"/>
<path d="M12.4199 7.90685L12.0186 8.0144L12.1261 8.41579L12.5275 8.30824L12.4199 7.90685Z" fill="white"/>
<path d="M13.2237 7.69176L12.8223 7.79932L12.9298 8.2007L13.3312 8.09315L13.2237 7.69176Z" fill="white"/>
<path d="M13.625 7.58434L13.2236 7.69189L13.3312 8.09328L13.7326 7.98573L13.625 7.58434Z" fill="white"/>
<path d="M14.0264 7.47668L13.625 7.58423L13.7326 7.98562L14.1339 7.87806L14.0264 7.47668Z" fill="white"/>
<path d="M14.4278 7.36925L14.0264 7.47681L14.1339 7.87819L14.5353 7.77064L14.4278 7.36925Z" fill="white"/>
<path d="M14.8291 7.26159L14.4277 7.36914L14.5353 7.77053L14.9367 7.66298L14.8291 7.26159Z" fill="white"/>
<path d="M15.2305 7.15417L14.8291 7.26172L14.9367 7.66311L15.338 7.55556L15.2305 7.15417Z" fill="white"/>
<path d="M15.6319 7.0465L15.2305 7.15405L15.338 7.55544L15.7394 7.44789L15.6319 7.0465Z" fill="white"/>
<path d="M9.71779 9.06115L9.31641 9.1687L9.42396 9.57009L9.82535 9.46254L9.71779 9.06115Z" fill="white"/>
<path d="M10.5205 8.84606L10.1191 8.95361L10.2267 9.355L10.6281 9.24745L10.5205 8.84606Z" fill="white"/>
<path d="M11.7246 8.52331L11.3232 8.63086L11.4308 9.03225L11.8322 8.9247L11.7246 8.52331Z" fill="white"/>
<path d="M12.126 8.41589L11.7246 8.52344L11.8322 8.92483L12.2335 8.81727L12.126 8.41589Z" fill="white"/>
<path d="M6.21291 10.4305L5.81152 10.5381L5.91908 10.9395L6.32046 10.8319L6.21291 10.4305Z" fill="white"/>
<path d="M6.61428 10.3229L6.21289 10.4304L6.32044 10.8318L6.72183 10.7243L6.61428 10.3229Z" fill="white"/>
<path d="M7.01565 10.2154L6.61426 10.323L6.72181 10.7244L7.1232 10.6168L7.01565 10.2154Z" fill="white"/>
<path d="M7.41701 10.1078L7.01562 10.2153L7.12318 10.6167L7.52457 10.5092L7.41701 10.1078Z" fill="white"/>
<path d="M8.62112 9.78527L8.21973 9.89282L8.32728 10.2942L8.72867 10.1867L8.62112 9.78527Z" fill="white"/>
<path d="M9.42385 9.57018L9.02246 9.67773L9.13001 10.0791L9.5314 9.97157L9.42385 9.57018Z" fill="white"/>
<path d="M13.0362 8.60217L12.6348 8.70972L12.7423 9.11111L13.1437 9.00355L13.0362 8.60217Z" fill="white"/>
<path d="M14.2412 8.27941L13.8398 8.38696L13.9474 8.78835L14.3488 8.6808L14.2412 8.27941Z" fill="white"/>
<path d="M14.6426 8.17199L14.2412 8.27954L14.3488 8.68093L14.7502 8.57338L14.6426 8.17199Z" fill="white"/>
<path d="M15.044 8.06432L14.6426 8.17188L14.7501 8.57326L15.1515 8.46571L15.044 8.06432Z" fill="white"/>
<path d="M15.8467 7.84924L15.4453 7.95679L15.5529 8.35818L15.9543 8.25062L15.8467 7.84924Z" fill="white"/>
<path d="M8.32717 10.2941L7.92578 10.4016L8.03333 10.803L8.43472 10.6954L8.32717 10.2941Z" fill="white"/>
<path d="M9.1299 10.079L8.72852 10.1865L8.83607 10.5879L9.23746 10.4804L9.1299 10.079Z" fill="white"/>
<path d="M9.53127 9.97131L9.12988 10.0789L9.23743 10.4802L9.63882 10.3727L9.53127 9.97131Z" fill="white"/>
<path d="M9.93264 9.86388L9.53125 9.97144L9.6388 10.3728L10.0402 10.2653L9.93264 9.86388Z" fill="white"/>
<path d="M11.5381 9.43371L11.1367 9.54126L11.2443 9.94265L11.6457 9.8351L11.5381 9.43371Z" fill="white"/>
<path d="M12.7422 9.11095L12.3408 9.21851L12.4484 9.61989L12.8498 9.51234L12.7422 9.11095Z" fill="white"/>
<path d="M13.9463 8.7882L13.5449 8.89575L13.6525 9.29714L14.0539 9.18959L13.9463 8.7882Z" fill="white"/>
<path d="M15.5528 8.35802L15.1514 8.46558L15.2589 8.86696L15.6603 8.75941L15.5528 8.35802Z" fill="white"/>
<path d="M6.42776 11.2333L6.02637 11.3408L6.13392 11.7422L6.53531 11.6347L6.42776 11.2333Z" fill="white"/>
<path d="M6.82912 11.1256L6.42773 11.2332L6.53529 11.6345L6.93667 11.527L6.82912 11.1256Z" fill="white"/>
<path d="M7.63186 10.9105L7.23047 11.0181L7.33802 11.4195L7.73941 11.3119L7.63186 10.9105Z" fill="white"/>
<path d="M8.83596 10.588L8.43457 10.6956L8.54212 11.0969L8.94351 10.9894L8.83596 10.588Z" fill="white"/>
<path d="M9.63869 10.3729L9.2373 10.4805L9.34486 10.8819L9.74624 10.7743L9.63869 10.3729Z" fill="white"/>
<path d="M11.6455 9.83508L11.2441 9.94263L11.3517 10.344L11.7531 10.2365L11.6455 9.83508Z" fill="white"/>
<path d="M12.8496 9.51232L12.4482 9.61987L12.5558 10.0213L12.9572 9.91371L12.8496 9.51232Z" fill="white"/>
<path d="M13.6533 9.29723L13.252 9.40479L13.3595 9.80617L13.7609 9.69862L13.6533 9.29723Z" fill="white"/>
<path d="M14.0547 9.18981L13.6533 9.29736L13.7609 9.69875L14.1623 9.5912L14.0547 9.18981Z" fill="white"/>
<path d="M14.4561 9.08215L14.0547 9.1897L14.1622 9.59109L14.5636 9.48353L14.4561 9.08215Z" fill="white"/>
<path d="M6.93752 11.5272L6.53613 11.6348L6.64368 12.0362L7.04507 11.9286L6.93752 11.5272Z" fill="white"/>
<path d="M7.33889 11.4195L6.9375 11.5271L7.04505 11.9285L7.44644 11.8209L7.33889 11.4195Z" fill="white"/>
<path d="M8.14162 11.2045L7.74023 11.312L7.84779 11.7134L8.24917 11.6058L8.14162 11.2045Z" fill="white"/>
<path d="M8.54299 11.097L8.1416 11.2046L8.24915 11.606L8.65054 11.4984L8.54299 11.097Z" fill="white"/>
<path d="M9.34572 10.882L8.94434 10.9895L9.05189 11.3909L9.45328 11.2833L9.34572 10.882Z" fill="white"/>
<path d="M9.74709 10.7743L9.3457 10.8818L9.45325 11.2832L9.85464 11.1757L9.74709 10.7743Z" fill="white"/>
<path d="M10.9512 10.4518L10.5498 10.5593L10.6574 10.9607L11.0587 10.8532L10.9512 10.4518Z" fill="white"/>
<path d="M11.3526 10.3441L10.9512 10.4517L11.0587 10.853L11.4601 10.7455L11.3526 10.3441Z" fill="white"/>
<path d="M11.7539 10.2364L11.3525 10.344L11.4601 10.7454L11.8615 10.6378L11.7539 10.2364Z" fill="white"/>
<path d="M13.3594 9.80627L12.958 9.91382L13.0656 10.3152L13.4669 10.2077L13.3594 9.80627Z" fill="white"/>
<path d="M14.1631 9.59118L13.7617 9.69873L13.8693 10.1001L14.2707 9.99257L14.1631 9.59118Z" fill="white"/>
<path d="M14.9658 9.37609L14.5645 9.48364L14.672 9.88503L15.0734 9.77748L14.9658 9.37609Z" fill="white"/>
<path d="M15.3672 9.26867L14.9658 9.37622L15.0734 9.77761L15.4748 9.67006L15.3672 9.26867Z" fill="white"/>
<path d="M6.64358 12.036L6.24219 12.1436L6.34974 12.5449L6.75113 12.4374L6.64358 12.036Z" fill="white"/>
<path d="M7.04494 11.9283L6.64355 12.0359L6.75111 12.4373L7.15249 12.3297L7.04494 11.9283Z" fill="white"/>
<path d="M7.44631 11.8209L7.04492 11.9285L7.15247 12.3299L7.55386 12.2223L7.44631 11.8209Z" fill="white"/>
<path d="M7.84768 11.7132L7.44629 11.8208L7.55384 12.2222L7.95523 12.1146L7.84768 11.7132Z" fill="white"/>
<path d="M8.65041 11.4982L8.24902 11.6057L8.35658 12.0071L8.75796 11.8995L8.65041 11.4982Z" fill="white"/>
<path d="M9.05178 11.3907L8.65039 11.4983L8.75794 11.8997L9.15933 11.7921L9.05178 11.3907Z" fill="white"/>
<path d="M9.45315 11.2831L9.05176 11.3906L9.15931 11.792L9.5607 11.6845L9.45315 11.2831Z" fill="white"/>
<path d="M9.85451 11.1757L9.45312 11.2832L9.56068 11.6846L9.96207 11.577L9.85451 11.1757Z" fill="white"/>
<path d="M10.2559 11.068L9.85449 11.1755L9.96204 11.5769L10.3634 11.4694L10.2559 11.068Z" fill="white"/>
<path d="M11.0586 10.8529L10.6572 10.9604L10.7648 11.3618L11.1662 11.2543L11.0586 10.8529Z" fill="white"/>
<path d="M11.8613 10.6378L11.46 10.7454L11.5675 11.1467L11.9689 11.0392L11.8613 10.6378Z" fill="white"/>
<path d="M12.2627 10.5301L11.8613 10.6377L11.9689 11.0391L12.3703 10.9315L12.2627 10.5301Z" fill="white"/>
<path d="M13.8692 10.1L13.4678 10.2075L13.5753 10.6089L13.9767 10.5014L13.8692 10.1Z" fill="white"/>
<path d="M14.2705 9.99255L13.8691 10.1001L13.9767 10.5015L14.3781 10.3939L14.2705 9.99255Z" fill="white"/>
<path d="M14.6719 9.88488L14.2705 9.99243L14.3781 10.3938L14.7794 10.2863L14.6719 9.88488Z" fill="white"/>
<path d="M15.4746 9.66979L15.0732 9.77734L15.1808 10.1787L15.5822 10.0712L15.4746 9.66979Z" fill="white"/>
<path d="M15.876 9.56237L15.4746 9.66992L15.5822 10.0713L15.9835 9.96376L15.876 9.56237Z" fill="white"/>
<path d="M16.2774 9.4547L15.876 9.56226L15.9835 9.96364L16.3849 9.85609L16.2774 9.4547Z" fill="white"/>
<path d="M7.15237 12.3299L6.75098 12.4375L6.85853 12.8389L7.25992 12.7313L7.15237 12.3299Z" fill="white"/>
<path d="M7.55373 12.2223L7.15234 12.3298L7.2599 12.7312L7.66128 12.6237L7.55373 12.2223Z" fill="white"/>
<path d="M9.96194 11.577L9.56055 11.6846L9.6681 12.086L10.0695 11.9784L9.96194 11.577Z" fill="white"/>
<path d="M10.3633 11.4696L9.96191 11.5771L10.0695 11.9785L10.4709 11.871L10.3633 11.4696Z" fill="white"/>
<path d="M10.7647 11.3619L10.3633 11.4695L10.4708 11.8709L10.8722 11.7633L10.7647 11.3619Z" fill="white"/>
<path d="M11.166 11.2545L10.7646 11.3621L10.8722 11.7634L11.2736 11.6559L11.166 11.2545Z" fill="white"/>
<path d="M12.3701 10.9318L11.9688 11.0393L12.0763 11.4407L12.4777 11.3331L12.3701 10.9318Z" fill="white"/>
<path d="M12.7715 10.8241L12.3701 10.9316L12.4777 11.333L12.8791 11.2255L12.7715 10.8241Z" fill="white"/>
<path d="M13.5742 10.609L13.1729 10.7166L13.2804 11.1179L13.6818 11.0104L13.5742 10.609Z" fill="white"/>
<path d="M13.9766 10.5016L13.5752 10.6091L13.6827 11.0105L14.0841 10.903L13.9766 10.5016Z" fill="white"/>
<path d="M14.378 10.3939L13.9766 10.5015L14.0841 10.9029L14.4855 10.7953L14.378 10.3939Z" fill="white"/>
<path d="M14.7793 10.2865L14.3779 10.394L14.4855 10.7954L14.8869 10.6879L14.7793 10.2865Z" fill="white"/>
<path d="M16.3848 9.85632L15.9834 9.96387L16.091 10.3653L16.4923 10.2577L16.3848 9.85632Z" fill="white"/>
<path d="M7.25979 12.7313L6.8584 12.8389L6.96595 13.2403L7.36734 13.1327L7.25979 12.7313Z" fill="white"/>
<path d="M8.46389 12.4086L8.0625 12.5161L8.17005 12.9175L8.57144 12.81L8.46389 12.4086Z" fill="white"/>
<path d="M8.86526 12.3011L8.46387 12.4087L8.57142 12.8101L8.97281 12.7025L8.86526 12.3011Z" fill="white"/>
<path d="M9.26662 12.1935L8.86523 12.301L8.97279 12.7024L9.37417 12.5949L9.26662 12.1935Z" fill="white"/>
<path d="M11.6748 11.5482L11.2734 11.6558L11.381 12.0572L11.7824 11.9496L11.6748 11.5482Z" fill="white"/>
<path d="M13.2803 11.118L12.8789 11.2256L12.9865 11.627L13.3878 11.5194L13.2803 11.118Z" fill="white"/>
<path d="M13.6817 11.0104L13.2803 11.1179L13.3878 11.5193L13.7892 11.4118L13.6817 11.0104Z" fill="white"/>
<path d="M14.084 10.9029L13.6826 11.0105L13.7902 11.4119L14.1916 11.3043L14.084 10.9029Z" fill="white"/>
<path d="M14.8867 10.6879L14.4854 10.7954L14.5929 11.1968L14.9943 11.0892L14.8867 10.6879Z" fill="white"/>
<path d="M15.6895 10.4728L15.2881 10.5803L15.3956 10.9817L15.797 10.8742L15.6895 10.4728Z" fill="white"/>
<path d="M16.0908 10.3651L15.6895 10.4727L15.797 10.874L16.1984 10.7665L16.0908 10.3651Z" fill="white"/>
<path d="M6.96584 13.2403L6.56445 13.3479L6.672 13.7493L7.07339 13.6417L6.96584 13.2403Z" fill="white"/>
<path d="M8.97268 12.7025L8.57129 12.8101L8.67884 13.2114L9.08023 13.1039L8.97268 12.7025Z" fill="white"/>
<path d="M9.77541 12.4874L9.37402 12.595L9.48158 12.9964L9.88296 12.8888L9.77541 12.4874Z" fill="white"/>
<path d="M10.1768 12.38L9.77539 12.4875L9.88294 12.8889L10.2843 12.7814L10.1768 12.38Z" fill="white"/>
<path d="M10.9795 12.1649L10.5781 12.2725L10.6857 12.6738L11.0871 12.5663L10.9795 12.1649Z" fill="white"/>
<path d="M11.7822 11.9498L11.3809 12.0574L11.4884 12.4588L11.8898 12.3512L11.7822 11.9498Z" fill="white"/>
<path d="M12.585 11.7345L12.1836 11.842L12.2911 12.2434L12.6925 12.1359L12.585 11.7345Z" fill="white"/>
<path d="M13.3877 11.5194L12.9863 11.627L13.0939 12.0283L13.4953 11.9208L13.3877 11.5194Z" fill="white"/>
<path d="M14.5928 11.1969L14.1914 11.3044L14.299 11.7058L14.7003 11.5983L14.5928 11.1969Z" fill="white"/>
<path d="M14.9942 11.0892L14.5928 11.1968L14.7003 11.5982L15.1017 11.4906L14.9942 11.0892Z" fill="white"/>
<path d="M16.5996 10.659L16.1982 10.7666L16.3058 11.168L16.7072 11.0604L16.5996 10.659Z" fill="white"/>
<path d="M8.27737 13.319L7.87598 13.4265L7.98353 13.8279L8.38492 13.7203L8.27737 13.319Z" fill="white"/>
<path d="M9.0801 13.1039L8.67871 13.2114L8.78626 13.6128L9.18765 13.5053L9.0801 13.1039Z" fill="white"/>
<path d="M9.48147 12.9962L9.08008 13.1038L9.18763 13.5051L9.58902 13.3976L9.48147 12.9962Z" fill="white"/>
<path d="M9.88283 12.8888L9.48145 12.9963L9.589 13.3977L9.99039 13.2902L9.88283 12.8888Z" fill="white"/>
<path d="M10.6856 12.6737L10.2842 12.7812L10.3917 13.1826L10.7931 13.0751L10.6856 12.6737Z" fill="white"/>
<path d="M11.0869 12.566L10.6855 12.6736L10.7931 13.075L11.1945 12.9674L11.0869 12.566Z" fill="white"/>
<path d="M11.4883 12.4586L11.0869 12.5662L11.1945 12.9676L11.5959 12.86L11.4883 12.4586Z" fill="white"/>
<path d="M12.291 12.2435L11.8896 12.3511L11.9972 12.7525L12.3986 12.6449L12.291 12.2435Z" fill="white"/>
<path d="M13.4951 11.9208L13.0938 12.0283L13.2013 12.4297L13.6027 12.3222L13.4951 11.9208Z" fill="white"/>
<path d="M13.8965 11.8131L13.4951 11.9207L13.6027 12.322L14.0041 12.2145L13.8965 11.8131Z" fill="white"/>
<path d="M14.2979 11.7057L13.8965 11.8132L14.004 12.2146L14.4054 12.1071L14.2979 11.7057Z" fill="white"/>
<path d="M14.6992 11.598L14.2979 11.7056L14.4054 12.107L14.8068 11.9994L14.6992 11.598Z" fill="white"/>
<path d="M15.1006 11.4906L14.6992 11.5981L14.8068 11.9995L15.2082 11.892L15.1006 11.4906Z" fill="white"/>
<path d="M15.503 11.3829L15.1016 11.4905L15.2091 11.8919L15.6105 11.7843L15.503 11.3829Z" fill="white"/>
<path d="M15.9043 11.2755L15.5029 11.3831L15.6105 11.7844L16.0119 11.6769L15.9043 11.2755Z" fill="white"/>
<path d="M16.3057 11.1678L15.9043 11.2754L16.0118 11.6768L16.4132 11.5692L16.3057 11.1678Z" fill="white"/>
<path d="M16.7071 11.0604L16.3057 11.168L16.4132 11.5694L16.8146 11.4618L16.7071 11.0604Z" fill="white"/>
<path d="M10.3926 13.1827L9.99121 13.2903L10.0988 13.6917L10.5002 13.5841L10.3926 13.1827Z" fill="white"/>
<path d="M11.9981 12.7526L11.5967 12.8601L11.7042 13.2615L12.1056 13.1539L11.9981 12.7526Z" fill="white"/>
<path d="M13.2022 12.4298L12.8008 12.5374L12.9083 12.9387L13.3097 12.8312L13.2022 12.4298Z" fill="white"/>
<path d="M13.6035 12.3224L13.2021 12.4299L13.3097 12.8313L13.7111 12.7238L13.6035 12.3224Z" fill="white"/>
<path d="M15.209 11.8922L14.8076 11.9998L14.9152 12.4011L15.3166 12.2936L15.209 11.8922Z" fill="white"/>
<path d="M16.0117 11.6769L15.6104 11.7844L15.7179 12.1858L16.1193 12.0783L16.0117 11.6769Z" fill="white"/>
<path d="M16.8145 11.4618L16.4131 11.5693L16.5206 11.9707L16.922 11.8632L16.8145 11.4618Z" fill="white"/>
<path d="M7.28811 14.4445L6.88672 14.552L6.99427 14.9534L7.39566 14.8458L7.28811 14.4445Z" fill="white"/>
<path d="M7.68947 14.3368L7.28809 14.4443L7.39564 14.8457L7.79703 14.7382L7.68947 14.3368Z" fill="white"/>
<path d="M8.09084 14.2294L7.68945 14.3369L7.797 14.7383L8.19839 14.6308L8.09084 14.2294Z" fill="white"/>
<path d="M8.49221 14.1217L8.09082 14.2292L8.19837 14.6306L8.59976 14.5231L8.49221 14.1217Z" fill="white"/>
<path d="M8.89358 14.0143L8.49219 14.1218L8.59974 14.5232L9.00113 14.4157L8.89358 14.0143Z" fill="white"/>
<path d="M9.29494 13.9066L8.89355 14.0142L9.00111 14.4155L9.40249 14.308L9.29494 13.9066Z" fill="white"/>
<path d="M9.69631 13.7992L9.29492 13.9067L9.40247 14.3081L9.80386 14.2006L9.69631 13.7992Z" fill="white"/>
<path d="M10.9004 13.4764L10.499 13.584L10.6066 13.9854L11.008 13.8778L10.9004 13.4764Z" fill="white"/>
<path d="M11.7031 13.2613L11.3018 13.3689L11.4093 13.7703L11.8107 13.6627L11.7031 13.2613Z" fill="white"/>
<path d="M12.1045 13.1539L11.7031 13.2615L11.8107 13.6629L12.2121 13.5553L12.1045 13.1539Z" fill="white"/>
<path d="M12.5059 13.0463L12.1045 13.1538L12.212 13.5552L12.6134 13.4476L12.5059 13.0463Z" fill="white"/>
<path d="M12.9072 12.9386L12.5059 13.0461L12.6134 13.4475L13.0148 13.34L12.9072 12.9386Z" fill="white"/>
<path d="M13.71 12.7235L13.3086 12.8311L13.4161 13.2324L13.8175 13.1249L13.71 12.7235Z" fill="white"/>
<path d="M14.5137 12.5084L14.1123 12.616L14.2199 13.0174L14.6212 12.9098L14.5137 12.5084Z" fill="white"/>
<path d="M15.3164 12.2933L14.915 12.4009L15.0226 12.8023L15.424 12.6947L15.3164 12.2933Z" fill="white"/>
<path d="M16.1192 12.0782L15.7178 12.1858L15.8253 12.5872L16.2267 12.4796L16.1192 12.0782Z" fill="white"/>
<path d="M16.5205 11.9708L16.1191 12.0784L16.2267 12.4798L16.6281 12.3722L16.5205 11.9708Z" fill="white"/>
<path d="M16.9219 11.8632L16.5205 11.9707L16.6281 12.3721L17.0294 12.2645L16.9219 11.8632Z" fill="white"/>
<path d="M7.39651 14.8458L6.99512 14.9534L7.10267 15.3548L7.50406 15.2472L7.39651 14.8458Z" fill="white"/>
<path d="M9.80471 14.2006L9.40332 14.3081L9.51087 14.7095L9.91226 14.6019L9.80471 14.2006Z" fill="white"/>
<path d="M11.0088 13.8778L10.6074 13.9854L10.715 14.3867L11.1164 14.2792L11.0088 13.8778Z" fill="white"/>
<path d="M11.4102 13.7704L11.0088 13.8779L11.1163 14.2793L11.5177 14.1718L11.4102 13.7704Z" fill="white"/>
<path d="M12.2129 13.5553L11.8115 13.6628L11.9191 14.0642L12.3205 13.9567L12.2129 13.5553Z" fill="white"/>
<path d="M13.417 13.2325L13.0156 13.3401L13.1232 13.7415L13.5246 13.6339L13.417 13.2325Z" fill="white"/>
<path d="M13.8184 13.1249L13.417 13.2324L13.5245 13.6338L13.9259 13.5263L13.8184 13.1249Z" fill="white"/>
<path d="M15.4248 12.6947L15.0234 12.8022L15.131 13.2036L15.5324 13.0961L15.4248 12.6947Z" fill="white"/>
<path d="M16.6289 12.3722L16.2275 12.4797L16.3351 12.8811L16.7365 12.7736L16.6289 12.3722Z" fill="white"/>
<path d="M7.50393 15.2472L7.10254 15.3547L7.21009 15.7561L7.61148 15.6486L7.50393 15.2472Z" fill="white"/>
<path d="M8.30666 15.0321L7.90527 15.1396L8.01283 15.541L8.41421 15.4335L8.30666 15.0321Z" fill="white"/>
<path d="M8.70803 14.9244L8.30664 15.032L8.41419 15.4334L8.81558 15.3258L8.70803 14.9244Z" fill="white"/>
<path d="M9.1094 14.817L8.70801 14.9246L8.81556 15.3259L9.21695 15.2184L9.1094 14.817Z" fill="white"/>
<path d="M9.91213 14.6019L9.51074 14.7095L9.61829 15.1109L10.0197 15.0033L9.91213 14.6019Z" fill="white"/>
<path d="M11.5176 14.1717L11.1162 14.2793L11.2238 14.6807L11.6252 14.5731L11.5176 14.1717Z" fill="white"/>
<path d="M11.919 14.0641L11.5176 14.1716L11.6251 14.573L12.0265 14.4655L11.919 14.0641Z" fill="white"/>
<path d="M13.1231 13.7413L12.7217 13.8489L12.8292 14.2503L13.2306 14.1427L13.1231 13.7413Z" fill="white"/>
<path d="M13.9258 13.5262L13.5244 13.6338L13.632 14.0352L14.0334 13.9276L13.9258 13.5262Z" fill="white"/>
<path d="M14.3272 13.4188L13.9258 13.5264L14.0333 13.9278L14.4347 13.8202L14.3272 13.4188Z" fill="white"/>
<path d="M14.7295 13.3111L14.3281 13.4187L14.4357 13.8201L14.8371 13.7125L14.7295 13.3111Z" fill="white"/>
<path d="M15.1309 13.2037L14.7295 13.3113L14.837 13.7127L15.2384 13.6051L15.1309 13.2037Z" fill="white"/>
<path d="M15.5322 13.0961L15.1309 13.2036L15.2384 13.605L15.6398 13.4974L15.5322 13.0961Z" fill="white"/>
<path d="M15.9336 12.9886L15.5322 13.0962L15.6398 13.4976L16.0412 13.39L15.9336 12.9886Z" fill="white"/>
<path d="M17.1377 12.6659L16.7363 12.7734L16.8439 13.1748L17.2453 13.0673L17.1377 12.6659Z" fill="white"/>
<path d="M7.61135 15.6486L7.20996 15.7561L7.31751 16.1575L7.7189 16.0499L7.61135 15.6486Z" fill="white"/>
<path d="M8.41408 15.4335L8.0127 15.541L8.12025 15.9424L8.52164 15.8349L8.41408 15.4335Z" fill="white"/>
<path d="M8.81545 15.3258L8.41406 15.4333L8.52161 15.8347L8.923 15.7272L8.81545 15.3258Z" fill="white"/>
<path d="M9.21682 15.2184L8.81543 15.3259L8.92298 15.7273L9.32437 15.6198L9.21682 15.2184Z" fill="white"/>
<path d="M10.0196 15.0033L9.61816 15.1108L9.72572 15.5122L10.1271 15.4047L10.0196 15.0033Z" fill="white"/>
<path d="M10.8223 14.7882L10.4209 14.8958L10.5285 15.2971L10.9298 15.1896L10.8223 14.7882Z" fill="white"/>
<path d="M11.2237 14.6805L10.8223 14.7881L10.9298 15.1895L11.3312 15.0819L11.2237 14.6805Z" fill="white"/>
<path d="M11.625 14.5731L11.2236 14.6807L11.3312 15.0821L11.7326 14.9745L11.625 14.5731Z" fill="white"/>
<path d="M12.4278 14.358L12.0264 14.4656L12.1339 14.867L12.5353 14.7594L12.4278 14.358Z" fill="white"/>
<path d="M12.8291 14.2504L12.4277 14.3579L12.5353 14.7593L12.9367 14.6517L12.8291 14.2504Z" fill="white"/>
<path d="M14.4346 13.8202L14.0332 13.9277L14.1408 14.3291L14.5421 14.2216L14.4346 13.8202Z" fill="white"/>
<path d="M14.8369 13.7125L14.4355 13.8201L14.5431 14.2215L14.9445 14.1139L14.8369 13.7125Z" fill="white"/>
<path d="M15.6397 13.4974L15.2383 13.605L15.3458 14.0064L15.7472 13.8988L15.6397 13.4974Z" fill="white"/>
<path d="M16.041 13.39L15.6396 13.4976L15.7472 13.8989L16.1486 13.7914L16.041 13.39Z" fill="white"/>
<path d="M16.4424 13.2823L16.041 13.3899L16.1486 13.7913L16.55 13.6837L16.4424 13.2823Z" fill="white"/>
<path d="M16.8438 13.1749L16.4424 13.2825L16.5499 13.6839L16.9513 13.5763L16.8438 13.1749Z" fill="white"/>
<path d="M17.2451 13.0673L16.8438 13.1748L16.9513 13.5762L17.3527 13.4686L17.2451 13.0673Z" fill="white"/>
<path d="M7.71877 16.0502L7.31738 16.1577L7.42493 16.5591L7.82632 16.4516L7.71877 16.0502Z" fill="white"/>
<path d="M8.52151 15.8351L8.12012 15.9426L8.22767 16.344L8.62906 16.2365L8.52151 15.8351Z" fill="white"/>
<path d="M8.92287 15.7274L8.52148 15.835L8.62904 16.2363L9.03042 16.1288L8.92287 15.7274Z" fill="white"/>
<path d="M9.32424 15.62L8.92285 15.7275L9.0304 16.1289L9.43179 16.0214L9.32424 15.62Z" fill="white"/>
<path d="M10.127 15.4049L9.72559 15.5125L9.83314 15.9138L10.2345 15.8063L10.127 15.4049Z" fill="white"/>
<path d="M10.9297 15.1898L10.5283 15.2974L10.6359 15.6988L11.0373 15.5912L10.9297 15.1898Z" fill="white"/>
<path d="M11.3311 15.0821L10.9297 15.1897L11.0372 15.5911L11.4386 15.4835L11.3311 15.0821Z" fill="white"/>
<path d="M12.1338 14.8671L11.7324 14.9746L11.84 15.376L12.2414 15.2684L12.1338 14.8671Z" fill="white"/>
<path d="M12.5352 14.7596L12.1338 14.8672L12.2413 15.2686L12.6427 15.161L12.5352 14.7596Z" fill="white"/>
<path d="M13.7393 14.4369L13.3379 14.5444L13.4454 14.9458L13.8468 14.8383L13.7393 14.4369Z" fill="white"/>
<path d="M14.542 14.2218L14.1406 14.3293L14.2482 14.7307L14.6496 14.6232L14.542 14.2218Z" fill="white"/>
<path d="M14.9444 14.1141L14.543 14.2217L14.6505 14.6231L15.0519 14.5155L14.9444 14.1141Z" fill="white"/>
<path d="M15.7471 13.899L15.3457 14.0066L15.4533 14.408L15.8546 14.3004L15.7471 13.899Z" fill="white"/>
<path d="M16.5498 13.684L16.1484 13.7915L16.256 14.1929L16.6574 14.0853L16.5498 13.684Z" fill="white"/>
<path d="M16.9512 13.5765L16.5498 13.6841L16.6574 14.0855L17.0587 13.9779L16.9512 13.5765Z" fill="white"/>
<path d="M7.82619 16.4515L7.4248 16.5591L7.53236 16.9605L7.93374 16.8529L7.82619 16.4515Z" fill="white"/>
<path d="M10.2344 15.8063L9.83301 15.9138L9.94056 16.3152L10.3419 16.2077L10.2344 15.8063Z" fill="white"/>
<path d="M11.0371 15.5912L10.6357 15.6987L10.7433 16.1001L11.1447 15.9926L11.0371 15.5912Z" fill="white"/>
<path d="M12.2412 15.2684L11.8398 15.376L11.9474 15.7774L12.3488 15.6698L12.2412 15.2684Z" fill="white"/>
<path d="M12.6426 15.161L12.2412 15.2686L12.3488 15.6699L12.7502 15.5624L12.6426 15.161Z" fill="white"/>
<path d="M13.044 15.0533L12.6426 15.1609L12.7501 15.5623L13.1515 15.4547L13.044 15.0533Z" fill="white"/>
<path d="M13.4453 14.9457L13.0439 15.0532L13.1515 15.4546L13.5529 15.3471L13.4453 14.9457Z" fill="white"/>
<path d="M15.0518 14.5155L14.6504 14.623L14.7579 15.0244L15.1593 14.9169L15.0518 14.5155Z" fill="white"/>
<path d="M15.8545 14.3004L15.4531 14.408L15.5607 14.8093L15.9621 14.7018L15.8545 14.3004Z" fill="white"/>
<path d="M16.6572 14.0853L16.2559 14.1929L16.3634 14.5943L16.7648 14.4867L16.6572 14.0853Z" fill="white"/>
<path d="M7.93362 16.8529L7.53223 16.9604L7.63978 17.3618L8.04117 17.2543L7.93362 16.8529Z" fill="white"/>
<path d="M8.33498 16.7452L7.93359 16.8528L8.04115 17.2542L8.44253 17.1466L8.33498 16.7452Z" fill="white"/>
<path d="M8.73635 16.6378L8.33496 16.7454L8.44251 17.1467L8.8439 17.0392L8.73635 16.6378Z" fill="white"/>
<path d="M9.13772 16.5301L8.73633 16.6377L8.84388 17.0391L9.24527 16.9315L9.13772 16.5301Z" fill="white"/>
<path d="M9.53908 16.4227L9.1377 16.5303L9.24525 16.9317L9.64664 16.8241L9.53908 16.4227Z" fill="white"/>
<path d="M9.94045 16.3151L9.53906 16.4226L9.64661 16.824L10.048 16.7164L9.94045 16.3151Z" fill="white"/>
<path d="M10.3418 16.2076L9.94043 16.3152L10.048 16.7166L10.4494 16.609L10.3418 16.2076Z" fill="white"/>
<path d="M11.1446 15.9925L10.7432 16.1001L10.8507 16.5015L11.2521 16.3939L11.1446 15.9925Z" fill="white"/>
<path d="M11.5459 15.8849L11.1445 15.9924L11.2521 16.3938L11.6535 16.2863L11.5459 15.8849Z" fill="white"/>
<path d="M12.3487 15.6698L11.9473 15.7773L12.0548 16.1787L12.4562 16.0712L12.3487 15.6698Z" fill="white"/>
<path d="M12.75 15.5624L12.3486 15.6699L12.4562 16.0713L12.8576 15.9638L12.75 15.5624Z" fill="white"/>
<path d="M13.1514 15.4547L12.75 15.5623L12.8576 15.9636L13.2589 15.8561L13.1514 15.4547Z" fill="white"/>
<path d="M14.7569 15.0245L14.3555 15.1321L14.463 15.5335L14.8644 15.4259L14.7569 15.0245Z" fill="white"/>
<path d="M15.5606 14.8094L15.1592 14.917L15.2667 15.3184L15.6681 15.2108L15.5606 14.8094Z" fill="white"/>
<path d="M15.9619 14.7018L15.5605 14.8093L15.6681 15.2107L16.0695 15.1032L15.9619 14.7018Z" fill="white"/>
<path d="M16.3633 14.5944L15.9619 14.7019L16.0695 15.1033L16.4709 14.9957L16.3633 14.5944Z" fill="white"/>
<path d="M16.7647 14.4867L16.3633 14.5942L16.4708 14.9956L16.8722 14.8881L16.7647 14.4867Z" fill="white"/>
<path d="M17.166 14.3793L16.7646 14.4868L16.8722 14.8882L17.2736 14.7807L17.166 14.3793Z" fill="white"/>
<path d="M17.5674 14.2716L17.166 14.3792L17.2736 14.7805L17.675 14.673L17.5674 14.2716Z" fill="white"/>
</g>
<path d="M32.7598 13.875L34.3887 8.66016H35.1035L34.9629 9.69727L33.3047 15H32.6074L32.7598 13.875ZM31.6641 8.66016L33.0527 13.9336L33.1523 15H32.4199L30.5801 8.66016H31.6641ZM36.6621 13.8926L37.9863 8.66016H39.0645L37.2246 15H36.498L36.6621 13.8926ZM35.2617 8.66016L36.8555 13.7871L37.0371 15H36.3457L34.6406 9.68555L34.5 8.66016H35.2617ZM41.7832 13.875L43.4121 8.66016H44.127L43.9863 9.69727L42.3281 15H41.6309L41.7832 13.875ZM40.6875 8.66016L42.0762 13.9336L42.1758 15H41.4434L39.6035 8.66016H40.6875ZM45.6855 13.8926L47.0098 8.66016H48.0879L46.248 15H45.5215L45.6855 13.8926ZM44.2852 8.66016L45.8789 13.7871L46.0605 15H45.3691L43.6641 9.68555L43.5234 8.66016H44.2852ZM50.8066 13.875L52.4355 8.66016H53.1504L53.0098 9.69727L51.3516 15H50.6543L50.8066 13.875ZM49.7109 8.66016L51.0996 13.9336L51.1992 15H50.4668L48.627 8.66016H49.7109ZM54.709 13.8926L56.0332 8.66016H57.1113L55.2715 15H54.5449L54.709 13.8926ZM53.3086 8.66016L54.9023 13.7871L55.084 15H54.3926L52.6875 9.68555L52.5469 8.66016H53.3086ZM57.5156 14.4258C57.5156 14.2422 57.5723 14.0879 57.6855 13.9629C57.8027 13.834 57.9707 13.7695 58.1895 13.7695C58.4082 13.7695 58.5742 13.834 58.6875 13.9629C58.8047 14.0879 58.8633 14.2422 58.8633 14.4258C58.8633 14.6055 58.8047 14.7578 58.6875 14.8828C58.5742 15.0078 58.4082 15.0703 58.1895 15.0703C57.9707 15.0703 57.8027 15.0078 57.6855 14.8828C57.5723 14.7578 57.5156 14.6055 57.5156 14.4258ZM64.6523 17.4375V9.87891L64.7461 8.66016H65.7422V17.4375H64.6523ZM60.3926 11.9004V11.7773C60.3926 11.293 60.4492 10.8535 60.5625 10.459C60.6758 10.0605 60.8418 9.71875 61.0605 9.43359C61.2793 9.14844 61.543 8.92969 61.8516 8.77734C62.1641 8.62109 62.5195 8.54297 62.918 8.54297C63.3164 8.54297 63.666 8.61328 63.9668 8.75391C64.2715 8.89062 64.5293 9.0918 64.7402 9.35742C64.9551 9.61914 65.125 9.93555 65.25 10.3066C65.375 10.6777 65.4609 11.0977 65.5078 11.5664V12.1055C65.4648 12.5703 65.3809 12.9883 65.2559 13.3594C65.1309 13.7305 64.9609 14.0469 64.7461 14.3086C64.5352 14.5703 64.2754 14.7715 63.9668 14.9121C63.6621 15.0488 63.3086 15.1172 62.9062 15.1172C62.5156 15.1172 62.1641 15.0371 61.8516 14.877C61.543 14.7168 61.2793 14.4922 61.0605 14.2031C60.8457 13.9141 60.6797 13.5742 60.5625 13.1836C60.4492 12.7891 60.3926 12.3613 60.3926 11.9004ZM61.4824 11.7773V11.9004C61.4824 12.2168 61.5156 12.5156 61.582 12.7969C61.6484 13.0742 61.75 13.3203 61.8867 13.5352C62.0273 13.75 62.2031 13.9199 62.4141 14.0449C62.6289 14.166 62.8828 14.2266 63.1758 14.2266C63.5352 14.2266 63.834 14.1484 64.0723 13.9922C64.3145 13.8359 64.5078 13.6309 64.6523 13.377C64.7969 13.1191 64.9082 12.8438 64.9863 12.5508V11.1387C64.9434 10.9238 64.875 10.7148 64.7812 10.5117C64.6914 10.3086 64.5742 10.127 64.4297 9.9668C64.2852 9.80273 64.1094 9.67383 63.9023 9.58008C63.6992 9.48242 63.4609 9.43359 63.1875 9.43359C62.8906 9.43359 62.6348 9.49609 62.4199 9.62109C62.2051 9.74609 62.0273 9.91797 61.8867 10.1367C61.75 10.3516 61.6484 10.5996 61.582 10.8809C61.5156 11.1621 61.4824 11.4609 61.4824 11.7773ZM68.5605 9.91992V15H67.4707V8.66016H68.502L68.5605 9.91992ZM68.3379 11.5898L67.834 11.5723C67.8379 11.1387 67.8945 10.7383 68.0039 10.3711C68.1133 10 68.2754 9.67773 68.4902 9.4043C68.7051 9.13086 68.9727 8.91992 69.293 8.77148C69.6133 8.61914 69.9844 8.54297 70.4062 8.54297C70.7031 8.54297 70.9766 8.58594 71.2266 8.67188C71.4766 8.75391 71.6934 8.88477 71.877 9.06445C72.0605 9.24414 72.2031 9.47461 72.3047 9.75586C72.4062 10.0371 72.457 10.377 72.457 10.7754V15H71.373V10.8281C71.373 10.4961 71.3164 10.2305 71.2031 10.0312C71.0938 9.83203 70.9375 9.6875 70.7344 9.59766C70.5312 9.50391 70.293 9.45703 70.0195 9.45703C69.6992 9.45703 69.4316 9.51367 69.2168 9.62695C69.002 9.74023 68.8301 9.89648 68.7012 10.0957C68.5723 10.2949 68.4785 10.5234 68.4199 10.7812C68.3652 11.0352 68.3379 11.3047 68.3379 11.5898ZM72.4453 10.9922L71.7188 11.2148C71.7227 10.8672 71.7793 10.5332 71.8887 10.2129C72.002 9.89258 72.1641 9.60742 72.375 9.35742C72.5898 9.10742 72.8535 8.91016 73.166 8.76562C73.4785 8.61719 73.8359 8.54297 74.2383 8.54297C74.5781 8.54297 74.8789 8.58789 75.1406 8.67773C75.4062 8.76758 75.6289 8.90625 75.8086 9.09375C75.9922 9.27734 76.1309 9.51367 76.2246 9.80273C76.3184 10.0918 76.3652 10.4355 76.3652 10.834V15H75.2754V10.8223C75.2754 10.4668 75.2188 10.1914 75.1055 9.99609C74.9961 9.79688 74.8398 9.6582 74.6367 9.58008C74.4375 9.49805 74.1992 9.45703 73.9219 9.45703C73.6836 9.45703 73.4727 9.49805 73.2891 9.58008C73.1055 9.66211 72.9512 9.77539 72.8262 9.91992C72.7012 10.0605 72.6055 10.2227 72.5391 10.4062C72.4766 10.5898 72.4453 10.7852 72.4453 10.9922ZM78.0234 14.4258C78.0234 14.2422 78.0801 14.0879 78.1934 13.9629C78.3105 13.834 78.4785 13.7695 78.6973 13.7695C78.916 13.7695 79.082 13.834 79.1953 13.9629C79.3125 14.0879 79.3711 14.2422 79.3711 14.4258C79.3711 14.6055 79.3125 14.7578 79.1953 14.8828C79.082 15.0078 78.916 15.0703 78.6973 15.0703C78.4785 15.0703 78.3105 15.0078 78.1934 14.8828C78.0801 14.7578 78.0234 14.6055 78.0234 14.4258ZM82.2598 6V15H81.1699V6H82.2598ZM86.1328 8.66016L83.3672 11.6191L81.8203 13.2246L81.7324 12.0703L82.8398 10.7461L84.8086 8.66016H86.1328ZM85.1426 15L82.8809 11.9766L83.4434 11.0098L86.4199 15H85.1426ZM89.7656 15.1172C89.3242 15.1172 88.9238 15.043 88.5645 14.8945C88.209 14.7422 87.9023 14.5293 87.6445 14.2559C87.3906 13.9824 87.1953 13.6582 87.0586 13.2832C86.9219 12.9082 86.8535 12.498 86.8535 12.0527V11.8066C86.8535 11.291 86.9297 10.832 87.082 10.4297C87.2344 10.0234 87.4414 9.67969 87.7031 9.39844C87.9648 9.11719 88.2617 8.9043 88.5938 8.75977C88.9258 8.61523 89.2695 8.54297 89.625 8.54297C90.0781 8.54297 90.4688 8.62109 90.7969 8.77734C91.1289 8.93359 91.4004 9.15234 91.6113 9.43359C91.8223 9.71094 91.9785 10.0391 92.0801 10.418C92.1816 10.793 92.2324 11.2031 92.2324 11.6484V12.1348H87.498V11.25H91.1484V11.168C91.1328 10.8867 91.0742 10.6133 90.9727 10.3477C90.875 10.082 90.7188 9.86328 90.5039 9.69141C90.2891 9.51953 89.9961 9.43359 89.625 9.43359C89.3789 9.43359 89.1523 9.48633 88.9453 9.5918C88.7383 9.69336 88.5605 9.8457 88.4121 10.0488C88.2637 10.252 88.1484 10.5 88.0664 10.793C87.9844 11.0859 87.9434 11.4238 87.9434 11.8066V12.0527C87.9434 12.3535 87.9844 12.6367 88.0664 12.9023C88.1523 13.1641 88.2754 13.3945 88.4355 13.5938C88.5996 13.793 88.7969 13.9492 89.0273 14.0625C89.2617 14.1758 89.5273 14.2324 89.8242 14.2324C90.207 14.2324 90.5312 14.1543 90.7969 13.998C91.0625 13.8418 91.2949 13.6328 91.4941 13.3711L92.1504 13.8926C92.0137 14.0996 91.8398 14.2969 91.6289 14.4844C91.418 14.6719 91.1582 14.8242 90.8496 14.9414C90.5449 15.0586 90.1836 15.1172 89.7656 15.1172ZM95.3438 14.0215L97.0781 8.66016H98.1855L95.9062 15H95.1797L95.3438 14.0215ZM93.8965 8.66016L95.6836 14.0508L95.8066 15H95.0801L92.7832 8.66016H93.8965ZM101.484 10.9277V11.8184H98.625V10.9277H101.484ZM106.236 13.3184C106.236 13.1621 106.201 13.0176 106.131 12.8848C106.064 12.748 105.926 12.625 105.715 12.5156C105.508 12.4023 105.195 12.3047 104.777 12.2227C104.426 12.1484 104.107 12.0605 103.822 11.959C103.541 11.8574 103.301 11.7344 103.102 11.5898C102.906 11.4453 102.756 11.2754 102.65 11.0801C102.545 10.8848 102.492 10.6562 102.492 10.3945C102.492 10.1445 102.547 9.9082 102.656 9.68555C102.77 9.46289 102.928 9.26562 103.131 9.09375C103.338 8.92188 103.586 8.78711 103.875 8.68945C104.164 8.5918 104.486 8.54297 104.842 8.54297C105.35 8.54297 105.783 8.63281 106.143 8.8125C106.502 8.99219 106.777 9.23242 106.969 9.5332C107.16 9.83008 107.256 10.1602 107.256 10.5234H106.172C106.172 10.3477 106.119 10.1777 106.014 10.0137C105.912 9.8457 105.762 9.70703 105.562 9.59766C105.367 9.48828 105.127 9.43359 104.842 9.43359C104.541 9.43359 104.297 9.48047 104.109 9.57422C103.926 9.66406 103.791 9.7793 103.705 9.91992C103.623 10.0605 103.582 10.209 103.582 10.3652C103.582 10.4824 103.602 10.5879 103.641 10.6816C103.684 10.7715 103.758 10.8555 103.863 10.9336C103.969 11.0078 104.117 11.0781 104.309 11.1445C104.5 11.2109 104.744 11.2773 105.041 11.3438C105.561 11.4609 105.988 11.6016 106.324 11.7656C106.66 11.9297 106.91 12.1309 107.074 12.3691C107.238 12.6074 107.32 12.8965 107.32 13.2363C107.32 13.5137 107.262 13.7676 107.145 13.998C107.031 14.2285 106.865 14.4277 106.646 14.5957C106.432 14.7598 106.174 14.8887 105.873 14.9824C105.576 15.0723 105.242 15.1172 104.871 15.1172C104.312 15.1172 103.84 15.0176 103.453 14.8184C103.066 14.6191 102.773 14.3613 102.574 14.0449C102.375 13.7285 102.275 13.3945 102.275 13.043H103.365C103.381 13.3398 103.467 13.5762 103.623 13.752C103.779 13.9238 103.971 14.0469 104.197 14.1211C104.424 14.1914 104.648 14.2266 104.871 14.2266C105.168 14.2266 105.416 14.1875 105.615 14.1094C105.818 14.0312 105.973 13.9238 106.078 13.7871C106.184 13.6504 106.236 13.4941 106.236 13.3184ZM108.457 11.9004V11.7656C108.457 11.3086 108.523 10.8848 108.656 10.4941C108.789 10.0996 108.98 9.75781 109.23 9.46875C109.48 9.17578 109.783 8.94922 110.139 8.78906C110.494 8.625 110.893 8.54297 111.334 8.54297C111.779 8.54297 112.18 8.625 112.535 8.78906C112.895 8.94922 113.199 9.17578 113.449 9.46875C113.703 9.75781 113.896 10.0996 114.029 10.4941C114.162 10.8848 114.229 11.3086 114.229 11.7656V11.9004C114.229 12.3574 114.162 12.7812 114.029 13.1719C113.896 13.5625 113.703 13.9043 113.449 14.1973C113.199 14.4863 112.896 14.7129 112.541 14.877C112.189 15.0371 111.791 15.1172 111.346 15.1172C110.9 15.1172 110.5 15.0371 110.145 14.877C109.789 14.7129 109.484 14.4863 109.23 14.1973C108.98 13.9043 108.789 13.5625 108.656 13.1719C108.523 12.7812 108.457 12.3574 108.457 11.9004ZM109.541 11.7656V11.9004C109.541 12.2168 109.578 12.5156 109.652 12.7969C109.727 13.0742 109.838 13.3203 109.986 13.5352C110.139 13.75 110.328 13.9199 110.555 14.0449C110.781 14.166 111.045 14.2266 111.346 14.2266C111.643 14.2266 111.902 14.166 112.125 14.0449C112.352 13.9199 112.539 13.75 112.688 13.5352C112.836 13.3203 112.947 13.0742 113.021 12.7969C113.1 12.5156 113.139 12.2168 113.139 11.9004V11.7656C113.139 11.4531 113.1 11.1582 113.021 10.8809C112.947 10.5996 112.834 10.3516 112.682 10.1367C112.533 9.91797 112.346 9.74609 112.119 9.62109C111.896 9.49609 111.635 9.43359 111.334 9.43359C111.037 9.43359 110.775 9.49609 110.549 9.62109C110.326 9.74609 110.139 9.91797 109.986 10.1367C109.838 10.3516 109.727 10.5996 109.652 10.8809C109.578 11.1582 109.541 11.4531 109.541 11.7656ZM117.205 15H116.121V7.99219C116.121 7.53516 116.203 7.15039 116.367 6.83789C116.535 6.52148 116.775 6.2832 117.088 6.12305C117.4 5.95898 117.771 5.87695 118.201 5.87695C118.326 5.87695 118.451 5.88477 118.576 5.90039C118.705 5.91602 118.83 5.93945 118.951 5.9707L118.893 6.85547C118.811 6.83594 118.717 6.82227 118.611 6.81445C118.51 6.80664 118.408 6.80273 118.307 6.80273C118.076 6.80273 117.877 6.84961 117.709 6.94336C117.545 7.0332 117.42 7.16602 117.334 7.3418C117.248 7.51758 117.205 7.73438 117.205 7.99219V15ZM118.553 8.66016V9.49219H115.119V8.66016H118.553ZM122.414 8.66016V9.49219H118.986V8.66016H122.414ZM120.146 7.11914H121.23V13.4297C121.23 13.6445 121.264 13.8066 121.33 13.916C121.396 14.0254 121.482 14.0977 121.588 14.1328C121.693 14.168 121.807 14.1855 121.928 14.1855C122.018 14.1855 122.111 14.1777 122.209 14.1621C122.311 14.1426 122.387 14.127 122.438 14.1152L122.443 15C122.357 15.0273 122.244 15.0527 122.104 15.0762C121.967 15.1035 121.801 15.1172 121.605 15.1172C121.34 15.1172 121.096 15.0645 120.873 14.959C120.65 14.8535 120.473 14.6777 120.34 14.4316C120.211 14.1816 120.146 13.8457 120.146 13.4238V7.11914ZM123.703 14.4258C123.703 14.2422 123.76 14.0879 123.873 13.9629C123.99 13.834 124.158 13.7695 124.377 13.7695C124.596 13.7695 124.762 13.834 124.875 13.9629C124.992 14.0879 125.051 14.2422 125.051 14.4258C125.051 14.6055 124.992 14.7578 124.875 14.8828C124.762 15.0078 124.596 15.0703 124.377 15.0703C124.158 15.0703 123.99 15.0078 123.873 14.8828C123.76 14.7578 123.703 14.6055 123.703 14.4258ZM129.387 14.2266C129.645 14.2266 129.883 14.1738 130.102 14.0684C130.32 13.9629 130.5 13.8184 130.641 13.6348C130.781 13.4473 130.861 13.2344 130.881 12.9961H131.912C131.893 13.3711 131.766 13.7207 131.531 14.0449C131.301 14.3652 130.998 14.625 130.623 14.8242C130.248 15.0195 129.836 15.1172 129.387 15.1172C128.91 15.1172 128.494 15.0332 128.139 14.8652C127.787 14.6973 127.494 14.4668 127.26 14.1738C127.029 13.8809 126.855 13.5449 126.738 13.166C126.625 12.7832 126.568 12.3789 126.568 11.9531V11.707C126.568 11.2812 126.625 10.8789 126.738 10.5C126.855 10.1172 127.029 9.7793 127.26 9.48633C127.494 9.19336 127.787 8.96289 128.139 8.79492C128.494 8.62695 128.91 8.54297 129.387 8.54297C129.883 8.54297 130.316 8.64453 130.688 8.84766C131.059 9.04688 131.35 9.32031 131.561 9.66797C131.775 10.0117 131.893 10.4023 131.912 10.8398H130.881C130.861 10.5781 130.787 10.3418 130.658 10.1309C130.533 9.91992 130.361 9.75195 130.143 9.62695C129.928 9.49805 129.676 9.43359 129.387 9.43359C129.055 9.43359 128.775 9.5 128.549 9.63281C128.326 9.76172 128.148 9.9375 128.016 10.1602C127.887 10.3789 127.793 10.623 127.734 10.8926C127.68 11.1582 127.652 11.4297 127.652 11.707V11.9531C127.652 12.2305 127.68 12.5039 127.734 12.7734C127.789 13.043 127.881 13.2871 128.01 13.5059C128.143 13.7246 128.32 13.9004 128.543 14.0332C128.77 14.1621 129.051 14.2266 129.387 14.2266ZM132.844 11.9004V11.7656C132.844 11.3086 132.91 10.8848 133.043 10.4941C133.176 10.0996 133.367 9.75781 133.617 9.46875C133.867 9.17578 134.17 8.94922 134.525 8.78906C134.881 8.625 135.279 8.54297 135.721 8.54297C136.166 8.54297 136.566 8.625 136.922 8.78906C137.281 8.94922 137.586 9.17578 137.836 9.46875C138.09 9.75781 138.283 10.0996 138.416 10.4941C138.549 10.8848 138.615 11.3086 138.615 11.7656V11.9004C138.615 12.3574 138.549 12.7812 138.416 13.1719C138.283 13.5625 138.09 13.9043 137.836 14.1973C137.586 14.4863 137.283 14.7129 136.928 14.877C136.576 15.0371 136.178 15.1172 135.732 15.1172C135.287 15.1172 134.887 15.0371 134.531 14.877C134.176 14.7129 133.871 14.4863 133.617 14.1973C133.367 13.9043 133.176 13.5625 133.043 13.1719C132.91 12.7812 132.844 12.3574 132.844 11.9004ZM133.928 11.7656V11.9004C133.928 12.2168 133.965 12.5156 134.039 12.7969C134.113 13.0742 134.225 13.3203 134.373 13.5352C134.525 13.75 134.715 13.9199 134.941 14.0449C135.168 14.166 135.432 14.2266 135.732 14.2266C136.029 14.2266 136.289 14.166 136.512 14.0449C136.738 13.9199 136.926 13.75 137.074 13.5352C137.223 13.3203 137.334 13.0742 137.408 12.7969C137.486 12.5156 137.525 12.2168 137.525 11.9004V11.7656C137.525 11.4531 137.486 11.1582 137.408 10.8809C137.334 10.5996 137.221 10.3516 137.068 10.1367C136.92 9.91797 136.732 9.74609 136.506 9.62109C136.283 9.49609 136.021 9.43359 135.721 9.43359C135.424 9.43359 135.162 9.49609 134.936 9.62109C134.713 9.74609 134.525 9.91797 134.373 10.1367C134.225 10.3516 134.113 10.5996 134.039 10.8809C133.965 11.1582 133.928 11.4531 133.928 11.7656ZM141.053 9.91992V15H139.963V8.66016H140.994L141.053 9.91992ZM140.83 11.5898L140.326 11.5723C140.33 11.1387 140.387 10.7383 140.496 10.3711C140.605 10 140.768 9.67773 140.982 9.4043C141.197 9.13086 141.465 8.91992 141.785 8.77148C142.105 8.61914 142.477 8.54297 142.898 8.54297C143.195 8.54297 143.469 8.58594 143.719 8.67188C143.969 8.75391 144.186 8.88477 144.369 9.06445C144.553 9.24414 144.695 9.47461 144.797 9.75586C144.898 10.0371 144.949 10.377 144.949 10.7754V15H143.865V10.8281C143.865 10.4961 143.809 10.2305 143.695 10.0312C143.586 9.83203 143.43 9.6875 143.227 9.59766C143.023 9.50391 142.785 9.45703 142.512 9.45703C142.191 9.45703 141.924 9.51367 141.709 9.62695C141.494 9.74023 141.322 9.89648 141.193 10.0957C141.064 10.2949 140.971 10.5234 140.912 10.7812C140.857 11.0352 140.83 11.3047 140.83 11.5898ZM144.938 10.9922L144.211 11.2148C144.215 10.8672 144.271 10.5332 144.381 10.2129C144.494 9.89258 144.656 9.60742 144.867 9.35742C145.082 9.10742 145.346 8.91016 145.658 8.76562C145.971 8.61719 146.328 8.54297 146.73 8.54297C147.07 8.54297 147.371 8.58789 147.633 8.67773C147.898 8.76758 148.121 8.90625 148.301 9.09375C148.484 9.27734 148.623 9.51367 148.717 9.80273C148.811 10.0918 148.857 10.4355 148.857 10.834V15H147.768V10.8223C147.768 10.4668 147.711 10.1914 147.598 9.99609C147.488 9.79688 147.332 9.6582 147.129 9.58008C146.93 9.49805 146.691 9.45703 146.414 9.45703C146.176 9.45703 145.965 9.49805 145.781 9.58008C145.598 9.66211 145.443 9.77539 145.318 9.91992C145.193 10.0605 145.098 10.2227 145.031 10.4062C144.969 10.5898 144.938 10.7852 144.938 10.9922Z" fill="black"/>
<defs>
<clipPath id="clip0_3242_477429">
<rect width="10.3889" height="10.3889" fill="white" transform="translate(4.95117 7.3269) rotate(-15)"/>
</clipPath>
</defs>
</svg>
