<svg width="370" height="344" viewBox="0 0 370 344" fill="none" xmlns="http://www.w3.org/2000/svg">
<g clip-path="url(#clip0_2512_217332)">
<path d="M0.929688 230.464C0.929688 230.045 0.980518 229.651 1.06711 229.379C1.06926 229.372 1.0714 229.365 1.07354 229.359C1.07568 229.365 1.07782 229.372 1.07996 229.379C1.16656 229.651 1.21739 230.045 1.21739 230.464V283.527C1.21739 283.945 1.16656 284.339 1.07996 284.612C1.07782 284.618 1.07568 284.625 1.07354 284.631C1.0714 284.625 1.06926 284.618 1.06711 284.612C0.980518 284.339 0.929688 283.945 0.929688 283.527V276.781V238.783V230.464Z" fill="#DADDE1" stroke="#DADDE1"/>
<path d="M1.96834 284.825C2.12297 284.445 2.21784 283.985 2.21784 283.527V230.464C2.21784 230.005 2.12297 229.546 1.96834 229.165H3.84617C3.86193 229.173 3.92653 229.212 4.01072 229.374C4.11001 229.564 4.19617 229.864 4.21745 230.269L4.14619 230.343L4.00787 230.488V230.689V283.527C4.00787 283.904 3.91619 284.28 3.78835 284.548C3.72417 284.682 3.66098 284.768 3.61505 284.813C3.61012 284.818 3.60579 284.822 3.60205 284.825H1.96834ZM3.58472 284.838C3.58472 284.838 3.5855 284.838 3.58707 284.837C3.5855 284.838 3.58472 284.839 3.58472 284.838Z" fill="#DADDE1" stroke="#DADDE1"/>
<path d="M0.5 159.864C0.5 159.446 0.550831 159.051 0.637426 158.779C0.639571 158.772 0.641713 158.766 0.643852 158.759C0.64599 158.766 0.648132 158.772 0.650277 158.779C0.736872 159.051 0.787703 159.446 0.787703 159.864V212.927C0.787703 213.345 0.736872 213.74 0.650276 214.012C0.648132 214.019 0.645989 214.025 0.643851 214.032C0.641713 214.025 0.639571 214.019 0.637427 214.012C0.550831 213.74 0.5 213.345 0.5 212.927V206.182V168.183V159.864Z" fill="#DADDE1" stroke="#DADDE1"/>
<path d="M1.7535 214.226C1.90813 213.845 2.003 213.385 2.003 212.927V159.864C2.003 159.406 1.90813 158.946 1.7535 158.565H3.41671C3.43247 158.573 3.49707 158.612 3.58126 158.774C3.6959 158.994 3.79302 159.36 3.79302 159.864V160.089V212.927C3.79302 213.305 3.70135 213.68 3.57351 213.948C3.50932 214.083 3.44613 214.169 3.40021 214.214C3.39527 214.218 3.39094 214.222 3.38721 214.226H1.7535ZM3.36988 214.239C3.36988 214.239 3.37069 214.238 3.37234 214.237C3.37069 214.239 3.36987 214.239 3.36988 214.239Z" fill="#DADDE1" stroke="#DADDE1"/>
<path d="M369.134 170.919C369.148 170.873 369.163 170.833 369.177 170.801C369.245 171.064 369.284 171.413 369.284 171.779V180.098V252.273V259.018C369.284 259.436 369.233 259.831 369.146 260.103C369.144 260.11 369.142 260.116 369.14 260.123C369.138 260.116 369.136 260.11 369.134 260.103C369.047 259.831 368.996 259.436 368.996 259.018V172.004C368.996 171.586 369.047 171.191 369.134 170.919Z" fill="#DADDE1" stroke="#DADDE1"/>
<path d="M366.207 172.003C366.207 171.499 366.304 171.133 366.419 170.913C366.503 170.751 366.568 170.712 366.583 170.704H368.247C368.092 171.085 367.997 171.544 367.997 172.003V259.017C367.997 259.475 368.092 259.935 368.247 260.316H366.613C366.609 260.312 366.605 260.308 366.6 260.304C366.554 260.259 366.491 260.173 366.427 260.038C366.299 259.77 366.207 259.394 366.207 259.017V172.003ZM366.63 260.329C366.63 260.329 366.629 260.328 366.628 260.327C366.629 260.328 366.63 260.329 366.63 260.329Z" fill="#DADDE1" stroke="#DADDE1"/>
<path d="M0.5 100.055C0.5 99.6362 0.550831 99.2417 0.637427 98.9696C0.639571 98.9628 0.641713 98.9562 0.643852 98.9498C0.64599 98.9562 0.648132 98.9628 0.650276 98.9696C0.736872 99.2417 0.787703 99.6362 0.787703 100.055V127.036C0.787703 127.454 0.736872 127.849 0.650276 128.121C0.648132 128.127 0.645989 128.134 0.643851 128.14C0.641713 128.134 0.639571 128.127 0.637427 128.121C0.550831 127.849 0.5 127.454 0.5 127.036V120.29V108.374V100.055Z" fill="#DADDE1" stroke="#DADDE1"/>
<path d="M1.7535 128.334C1.90813 127.954 2.003 127.494 2.003 127.036V100.055C2.003 99.5962 1.90813 99.1365 1.7535 98.7559H3.41671C3.43247 98.7638 3.49707 98.8028 3.58126 98.9646C3.6959 99.1847 3.79302 99.5503 3.79302 100.055V127.036C3.79302 127.413 3.70135 127.789 3.57351 128.057C3.50932 128.191 3.44613 128.277 3.40021 128.322C3.39528 128.327 3.39094 128.331 3.38721 128.334H1.7535ZM3.36988 128.348C3.36988 128.348 3.37066 128.347 3.37224 128.346C3.37067 128.347 3.36988 128.348 3.36988 128.348Z" fill="#DADDE1" stroke="#DADDE1"/>
<path d="M56.4429 2.5H311.837C340.218 2.5 363.421 26.6375 363.421 56.6603V697.686C363.421 727.709 340.218 751.846 311.837 751.846H56.4429C28.0625 751.846 4.85938 727.709 4.85938 697.686V56.6603C4.85938 26.6375 28.0625 2.5 56.4429 2.5Z" stroke="#DADDE1" stroke-width="5"/>
<path d="M153.274 26.4653C151.187 25.0739 150.523 22.3194 151.883 20.2785C153.275 18.1914 156.029 17.5276 158.07 18.8882C160.157 20.2796 160.821 23.0341 159.46 25.075C158.069 27.1621 155.315 27.8259 153.274 26.4653Z" fill="#DADDE1" stroke="#DADDE1"/>
<path d="M274.376 18.5704L274.377 18.5666C275.174 13.972 278.946 10.8691 283.295 10.8691H311.41C334.786 10.8691 353.798 30.7359 353.798 55.3125V693.415C353.798 717.992 334.786 737.858 311.41 737.858H58.5912C35.2154 737.858 16.2031 717.992 16.2031 693.415V55.3125C16.2031 30.7334 35.2178 10.8691 58.3766 10.8691H86.4914C90.8255 10.8691 94.6126 14.1821 95.4111 18.5715C95.4112 18.5718 95.4112 18.5721 95.4113 18.5725L96.0548 22.1679L96.0547 22.1679L96.0569 22.1795C98.0523 32.3994 106.711 39.8738 116.752 39.8738H253.034C263.076 39.8738 271.734 32.3994 273.73 22.1795L273.732 22.1679L274.376 18.5704Z" fill="white" stroke="#DADDE1" stroke-width="1.5"/>
<path d="M212.397 20.085H172.478C171.19 20.085 170.117 21.2092 170.117 22.5582C170.117 23.9073 171.19 25.0315 172.478 25.0315H212.397C213.684 25.0315 214.758 23.9073 214.758 22.5582C214.758 21.2092 213.684 20.085 212.397 20.085Z" fill="#DADDE1"/>
</g>
<defs>
<clipPath id="clip0_2512_217332">
<rect width="370" height="344" fill="white"/>
</clipPath>
</defs>
</svg>
