<svg width="40" height="40" viewBox="0 0 40 40" fill="none" xmlns="http://www.w3.org/2000/svg">
<path d="M1.0782 14.8491H34.9235V33.0693C34.9235 34.7568 33.5422 36.1381 31.8528 36.1381H4.14888C2.46131 36.1381 1.07812 34.7568 1.07812 33.0692L1.0782 14.8491Z" fill="#E5ECE4"/>
<path d="M34.9235 14.8493L19.8743 4.42339C18.8436 3.70866 17.212 3.6721 16.2469 4.34049L1.07812 14.8493L16.2468 25.3637C17.2119 26.0322 18.8436 25.9955 19.8742 25.2828L34.9235 14.8493Z" fill="#F9F9FB"/>
<path d="M33.6768 35.5351L19.6544 23.9091C18.8029 23.2041 17.2541 23.1771 16.4565 23.8359L2.32812 35.5351C2.84056 35.9146 3.47049 36.1381 4.15055 36.1381H31.8545C32.5345 36.138 33.1663 35.9146 33.6768 35.5351Z" fill="#F9F9FB"/>
<path d="M29.7581 9.68821C29.7581 8.7501 28.9914 7.98145 28.0533 7.98145H25.0134H10.987H7.94902C7.01091 7.98145 6.24219 8.7501 6.24219 9.68821V18.4303L15.3562 24.7451L16.4542 23.8359C17.2517 23.177 18.8006 23.204 19.6521 23.9091L20.652 24.7394L29.7582 18.4303C29.7581 15.5156 29.7581 12.6029 29.7581 9.68821Z" fill="#D4E1F4"/>
<path d="M35.9648 14.6832C35.9648 14.5221 35.8858 14.3713 35.7533 14.2794L30.6316 10.7311V9.35413C30.6316 8.11135 29.6215 7.10026 28.3798 7.10026H25.3322C25.2992 7.05181 25.2574 7.00829 25.2063 6.97292L20.2135 3.51362C18.9719 2.65271 17.0814 2.61509 15.91 3.42805L10.6092 7.10019H7.62012C6.37847 7.10019 5.36836 8.11135 5.36836 9.35405V10.7321L0.246727 14.2793C0.114258 14.3711 0.0352266 14.522 0.0351562 14.6831C0.0351562 14.6975 0.0364922 14.7118 0.0377578 14.726C0.036 14.7427 0.0351562 14.7597 0.0351562 14.7768V33.4975C0.0351562 35.5158 1.67801 37.1577 3.69738 37.1577H32.3027C34.3221 37.1577 35.9648 35.5158 35.9648 33.4975V14.7211C35.9648 14.7142 35.9641 14.7074 35.9638 14.7005C35.9641 14.6946 35.9648 14.689 35.9648 14.6832ZM34.611 14.6835L30.6317 17.4422V11.9266L34.611 14.6835ZM16.4699 4.23566C17.299 3.66029 18.7569 3.69966 19.6537 4.32144L23.6647 7.1004H12.3349L16.4699 4.23566ZM5.36836 11.9276V17.4423L1.38916 14.6835L5.36836 11.9276ZM3.69738 36.175C3.33485 36.175 2.98905 36.1024 2.67335 35.9714L16.7161 24.3435C17.3572 23.8123 18.7071 23.8493 19.3911 24.417L33.3271 35.9713C33.0112 36.1023 32.6654 36.1751 32.3025 36.1751H3.69738V36.175ZM34.1821 35.4036L20.0186 23.6606C18.9679 22.7886 17.095 22.7534 16.0893 23.5866L1.81807 35.4038C1.32448 34.9179 1.01777 34.243 1.01777 33.4975V15.6219L5.57726 18.783C5.58141 18.7859 5.58548 18.7889 5.58984 18.7917L13.479 24.2615C13.5645 24.3207 13.662 24.349 13.7585 24.349C13.9142 24.349 14.0673 24.2752 14.1628 24.1376C14.3175 23.9146 14.262 23.6085 14.039 23.4538L6.35105 18.1236V9.35413C6.35105 8.65318 6.92037 8.08295 7.62019 8.08295H28.38C29.0798 8.08295 29.6491 8.65318 29.6491 9.35413V18.1235L21.9691 23.448C21.7461 23.6026 21.6907 23.9087 21.8453 24.1318C21.9407 24.2694 22.0939 24.3432 22.2496 24.3432C22.3462 24.3432 22.4438 24.3149 22.5291 24.2557L30.4083 18.7931C30.4144 18.7891 30.4202 18.785 30.426 18.7808L34.9824 15.6219V33.4977C34.9822 34.2429 34.6756 34.9178 34.1821 35.4036ZM11.5092 11.6397C11.5092 11.3684 11.7292 11.1484 12.0005 11.1484H23.9996C24.271 11.1484 24.491 11.3684 24.491 11.6397C24.491 11.911 24.271 12.131 23.9996 12.131H12.0004C11.729 12.1312 11.5092 11.9112 11.5092 11.6397ZM11.5092 15.4552C11.5092 15.1839 11.7292 14.9639 12.0005 14.9639H23.9996C24.271 14.9639 24.491 15.1839 24.491 15.4552C24.491 15.7265 24.271 15.9466 23.9996 15.9466H12.0004C11.729 15.9466 11.5092 15.7265 11.5092 15.4552ZM23.9996 19.7619H12.0004C11.7291 19.7619 11.5091 19.5418 11.5091 19.2705C11.5091 18.9992 11.7291 18.7792 12.0004 18.7792H23.9996C24.2709 18.7792 24.4909 18.9992 24.4909 19.2705C24.4909 19.5418 24.271 19.7619 23.9996 19.7619Z" fill="#233460"/>
<circle cx="32.5" cy="31.5" r="7" fill="#70B0AB" stroke="#233460"/>
<path d="M32.5 28V32L37 33" stroke="#233460" stroke-linecap="round" stroke-linejoin="round"/>
</svg>
