<svg width="150" height="76" viewBox="0 0 150 76" fill="none" xmlns="http://www.w3.org/2000/svg">
<g clip-path="url(#clip0_4255_159792)">
<path d="M88.7226 51.5494C82.8226 55.8584 74.2709 58.1574 66.9081 58.1574C56.5842 58.1574 47.29 54.3739 40.2587 48.0812C39.7062 47.5863 40.2012 46.9119 40.8641 47.2973C48.4524 51.672 57.8349 54.3038 67.5268 54.3038C74.0632 54.3038 81.2537 52.9638 87.8652 50.1831C88.864 49.7627 89.6993 50.8312 88.7226 51.5494Z" fill="#FF9900"/>
<path d="M91.1756 48.7686C90.4243 47.814 86.1904 48.3176 84.2901 48.5409C83.7111 48.611 83.6227 48.1118 84.1442 47.7527C87.5163 45.4011 93.0494 46.0799 93.6947 46.8681C94.3399 47.6607 93.5268 53.1565 90.358 55.7796C89.8718 56.1824 89.4078 55.9679 89.6244 55.4336C90.3359 53.6732 91.9313 49.7277 91.1756 48.7686Z" fill="#FF9900"/>
<path d="M84.4228 31.1516V28.8658C84.4228 28.5198 84.6879 28.2877 85.0061 28.2877H95.3344C95.6659 28.2877 95.9311 28.5242 95.9311 28.8658V30.8232C95.9266 31.1516 95.6482 31.5808 95.1532 32.2595L89.8012 39.831C91.79 39.7828 93.8893 40.0762 95.6924 41.0834C96.099 41.3111 96.2095 41.6439 96.2404 41.9723V44.4115C96.2404 44.7443 95.8692 45.134 95.4803 44.9326C92.3027 43.2817 88.0821 43.1021 84.5686 44.9501C84.2106 45.1428 83.835 44.7574 83.835 44.4246V42.1081C83.835 41.7359 83.8394 41.1009 84.215 40.536L90.4156 31.7253H85.0194C84.6879 31.7253 84.4228 31.4932 84.4228 31.1516Z" fill="#221F1F"/>
<path d="M46.7465 45.4144H43.6042C43.3037 45.3925 43.0651 45.1691 43.043 44.8845V28.9052C43.043 28.5856 43.3126 28.3316 43.6484 28.3316H46.5785C46.8835 28.3447 47.1266 28.5768 47.1487 28.8658V30.9546H47.2061C47.9707 28.9359 49.407 27.9944 51.3427 27.9944C53.3094 27.9944 54.538 28.9359 55.4219 30.9546C56.1821 28.9359 57.9101 27.9944 59.7618 27.9944C61.0788 27.9944 62.5196 28.533 63.3991 29.7416C64.3934 31.086 64.1901 33.0391 64.1901 34.7513L64.1857 44.8363C64.1857 45.156 63.9161 45.4144 63.5803 45.4144H60.4424C60.1287 45.3925 59.8767 45.1429 59.8767 44.8363V36.3672C59.8767 35.6928 59.9386 34.0112 59.7884 33.3719C59.5541 32.299 58.8514 31.9969 57.941 31.9969C57.1809 31.9969 56.3854 32.5005 56.0627 33.3062C55.7401 34.112 55.7711 35.4607 55.7711 36.3672V44.8363C55.7711 45.156 55.5015 45.4144 55.1656 45.4144H52.0278C51.7096 45.3925 51.4621 45.1429 51.4621 44.8363L51.4576 36.3672C51.4576 34.5849 51.7537 31.9618 49.5219 31.9618C47.2636 31.9618 47.352 34.5192 47.352 36.3672V44.8363C47.352 45.156 47.0824 45.4144 46.7465 45.4144Z" fill="#221F1F"/>
<path d="M104.823 27.9944C109.485 27.9944 112.009 31.9618 112.009 37.0065C112.009 41.8804 109.22 45.7472 104.823 45.7472C100.244 45.7472 97.7515 41.7797 97.7515 36.8357C97.7515 31.8611 100.275 27.9944 104.823 27.9944ZM104.849 31.2568C102.533 31.2568 102.387 34.3835 102.387 36.3321C102.387 38.2852 102.357 42.4541 104.823 42.4541C107.258 42.4541 107.373 39.091 107.373 37.0416C107.373 35.6928 107.315 34.0813 106.904 32.8026C106.551 31.6903 105.848 31.2568 104.849 31.2568Z" fill="#221F1F"/>
<path d="M118.055 45.4144H114.926C114.612 45.3925 114.36 45.1429 114.36 44.8363L114.355 28.8527C114.382 28.5593 114.643 28.3316 114.961 28.3316H117.873C118.147 28.3447 118.373 28.5286 118.435 28.7782V31.2218H118.492C119.372 29.0366 120.605 27.9944 122.775 27.9944C124.184 27.9944 125.559 28.498 126.443 29.8774C127.265 31.1561 127.265 33.3062 127.265 34.852V44.9108C127.229 45.191 126.969 45.4144 126.659 45.4144H123.508C123.221 45.3925 122.982 45.1823 122.951 44.9108V36.2314C122.951 34.4842 123.155 31.9268 120.985 31.9268C120.22 31.9268 119.517 32.4348 119.168 33.2055C118.726 34.182 118.669 35.1542 118.669 36.2314V44.8363C118.664 45.156 118.39 45.4144 118.055 45.4144Z" fill="#221F1F"/>
<path d="M76.189 37.7816V37.1072C73.9174 37.1072 71.5176 37.5889 71.5176 40.2426C71.5176 41.587 72.2203 42.4978 73.4268 42.4978C74.3107 42.4978 75.1018 41.9592 75.6012 41.0834C76.2199 40.0061 76.189 38.9946 76.189 37.7816ZM79.3577 45.3705C79.15 45.5544 78.8495 45.5676 78.6153 45.445C77.5723 44.5867 77.3866 44.1882 76.8121 43.3693C75.0885 45.1121 73.8687 45.6333 71.6325 45.6333C68.9896 45.6333 66.9302 44.0174 66.9302 40.7812C66.9302 38.2545 68.3135 36.5335 70.2801 35.6928C71.9861 34.9483 74.3681 34.8169 76.189 34.6111V34.2082C76.189 33.4682 76.2464 32.5924 75.8089 31.953C75.4244 31.3794 74.6908 31.1429 74.0455 31.1429C72.8479 31.1429 71.7783 31.7516 71.5176 33.0128C71.4646 33.293 71.2568 33.5689 70.974 33.582L67.9246 33.258C67.6682 33.2011 67.3854 32.9952 67.4561 32.6055C68.1588 28.9446 71.4955 27.8411 74.4831 27.8411C76.0122 27.8411 78.0098 28.2439 79.2163 29.3913C80.7454 30.8057 80.5996 32.6931 80.5996 34.7469V39.5989C80.5996 41.0571 81.2095 41.6965 81.784 42.4847C81.9873 42.765 82.0315 43.1021 81.7752 43.3123C81.1344 43.8422 79.9941 44.8275 79.3666 45.3793L79.3577 45.3705Z" fill="#221F1F"/>
<path d="M34.9951 37.7816V37.1072C32.7235 37.1072 30.3237 37.5889 30.3237 40.2426C30.3237 41.587 31.0264 42.4978 32.233 42.4978C33.1168 42.4978 33.9079 41.9592 34.4073 41.0834C35.0261 40.0061 34.9951 38.9946 34.9951 37.7816ZM38.1639 45.3705C37.9562 45.5544 37.6556 45.5676 37.4214 45.445C36.3784 44.5867 36.1928 44.1882 35.6183 43.3693C33.8947 45.1121 32.6749 45.6333 30.4386 45.6333C27.7958 45.6333 25.7363 44.0174 25.7363 40.7812C25.7363 38.2545 27.1196 36.5335 29.0863 35.6928C30.7922 34.9483 33.1743 34.8169 34.9951 34.6111V34.2082C34.9951 33.4682 35.0526 32.5924 34.615 31.953C34.2306 31.3794 33.4969 31.1429 32.8517 31.1429C31.654 31.1429 30.5845 31.7516 30.3237 33.0128C30.2707 33.293 30.063 33.5689 29.7801 33.582L26.7307 33.258C26.4744 33.2011 26.1915 32.9952 26.2622 32.6055C26.9649 28.9446 30.3016 27.8411 33.2892 27.8411C34.8183 27.8411 36.8159 28.2439 38.0225 29.3913C39.5516 30.8057 39.4058 32.6931 39.4058 34.7469V39.5989C39.4058 41.0571 40.0156 41.6965 40.5902 42.4847C40.7935 42.765 40.8377 43.1021 40.5813 43.3123C39.9405 43.8422 38.8003 44.8275 38.1727 45.3793L38.1639 45.3705Z" fill="#221F1F"/>
</g>
<defs>
<clipPath id="clip0_4255_159792">
<rect width="101.65" height="30.4" fill="white" transform="translate(25.6748 27.8)"/>
</clipPath>
</defs>
</svg>
