<svg width="150" height="76" viewBox="0 0 150 76" fill="none" xmlns="http://www.w3.org/2000/svg">
<g clip-path="url(#clip0_4255_159820)">
<path d="M45.13 42.7462C45.1149 42.4449 45.1903 42.3696 45.2355 42.2491C45.2506 42.219 45.2657 42.2491 45.2808 42.219C45.2959 42.1738 45.326 42.0985 45.3109 42.0533C45.2959 41.9478 45.2808 41.8424 45.2506 41.7671C45.1903 41.5863 45.1752 41.3001 45.2205 41.1194C45.2506 40.9838 45.2506 40.8633 45.2205 40.7277C45.1903 40.5469 45.145 40.4114 45.0847 40.3059C45.0545 40.2457 45.0093 40.1553 44.9942 40.0649C44.9791 40.0348 44.9791 39.9143 44.9942 39.8992C45.0395 39.8239 45.0998 39.7637 45.1601 39.7034C45.1903 39.6733 45.2355 39.7185 45.2506 39.6733C45.2959 39.5829 45.2205 39.4774 45.2355 39.372C45.2355 39.3569 45.2355 39.3268 45.2355 39.3118C45.2355 39.1461 45.2355 38.9653 45.1752 38.8297C45.145 38.7695 45.1601 38.6188 45.2054 38.6038C45.2808 38.5736 45.2506 38.4682 45.2205 38.3477C45.2054 38.2573 45.1752 38.1669 45.1601 38.0765C45.145 38.0163 45.0847 37.8205 45.1149 37.7602C45.13 37.7301 45.145 37.7753 45.1601 37.7753C45.1752 37.7753 45.1903 37.7602 45.1903 37.715C45.2054 37.6397 45.2205 37.5192 45.2506 37.5041C45.3109 37.4891 45.3109 37.1426 45.3562 37.0522C45.4316 36.9016 45.4316 36.6907 45.4165 36.4497C45.4014 36.1183 45.4014 36.1183 45.4618 35.9074C45.4768 35.8773 45.4768 35.8472 45.4919 35.817C45.507 35.6965 45.5372 35.6664 45.5824 35.6815C45.5975 35.6965 45.6277 35.6965 45.6427 35.6815C45.7031 35.6664 45.7031 35.5911 45.6729 35.4856C45.6277 35.3501 45.5673 35.2748 45.507 35.1542C45.4768 35.0789 45.4316 35.0187 45.4165 34.9283C45.4014 34.8379 45.4014 34.7174 45.4014 34.612C45.4014 34.5818 45.4467 34.5668 45.4618 34.5818C45.4919 34.5969 45.5221 34.7023 45.5372 34.5668C45.5523 34.4463 45.5221 34.4011 45.4919 34.3408C45.4919 34.3258 45.4768 34.3107 45.4768 34.2956C45.4165 34.1149 45.4165 34.0245 45.4919 33.9492C45.5523 33.8889 45.5824 33.7684 45.5673 33.5575C45.5673 33.437 45.5673 33.3014 45.5523 33.196C45.5372 33.0454 45.5523 33.0454 45.5824 33.0454C45.5975 33.0454 45.6427 33.0152 45.6427 32.9851C45.6427 32.9098 45.6277 32.8345 45.6126 32.7742C45.5975 32.6989 45.5673 32.6387 45.5523 32.5633C45.5523 32.5332 45.5523 32.488 45.5523 32.4428C45.5673 32.4579 45.5673 32.473 45.5824 32.488C45.6126 32.5181 45.6578 32.5784 45.688 32.5935C45.7031 32.5935 45.7483 32.5332 45.7483 32.5031C45.7483 32.4127 45.7332 32.2621 45.7031 32.247C45.6126 32.1416 45.5975 31.8855 45.5824 31.6897C45.5673 31.4486 45.5372 31.3131 45.4618 31.2528C45.3864 31.1926 45.4316 31.1323 45.4467 31.0721C45.4919 30.9666 45.5221 30.831 45.4919 30.6202C45.4768 30.5298 45.4768 30.3791 45.5221 30.3641C45.5824 30.334 45.5824 30.1833 45.5673 30.0477C45.5221 29.8369 45.5673 29.882 45.6126 29.882C45.6427 29.882 45.6729 29.867 45.688 29.8218C45.7182 29.7314 45.6578 29.4301 45.6277 29.385C45.5824 29.3247 45.5372 29.2795 45.507 29.2193C45.4919 29.1891 45.4919 29.0988 45.4768 29.0385C45.4919 29.0385 45.507 29.0084 45.5221 29.0385C45.5975 29.159 45.6427 28.9632 45.7182 28.9331C45.7332 28.9331 45.7332 28.8427 45.7332 28.7975C45.7182 28.7222 45.7031 28.6469 45.688 28.5866C45.6578 28.4661 45.6126 28.3757 45.688 28.2853C45.7332 28.2251 45.7182 28.0744 45.6729 27.9841C45.6427 27.9389 45.6126 27.8636 45.5975 27.8033C45.5824 27.7581 45.5824 27.6828 45.5673 27.6225C45.5824 27.6075 45.6126 27.5773 45.6277 27.5623C45.6427 27.5472 45.6729 27.5773 45.7031 27.5623C45.7182 27.5472 45.7483 27.5171 45.7483 27.4719C45.7483 27.4116 45.7483 27.2761 45.7332 27.246C45.6427 27.0953 45.6578 26.8392 45.6729 26.6585C45.688 26.5078 45.688 26.4325 45.6427 26.3271C45.6277 26.297 45.6277 26.2216 45.6277 26.1614C45.6427 26.1614 45.6578 26.1614 45.6729 26.1764C45.688 26.1915 45.7031 26.2216 45.7031 26.2367L45.7182 26.1915C45.688 26.0559 45.7031 25.83 45.6126 25.7547C45.5523 25.6944 45.507 25.4835 45.5221 25.3028C45.5221 25.122 45.5673 25.0618 45.6126 25.0467C45.688 25.0316 45.7182 24.8961 45.7031 24.6701C45.7031 24.4291 45.7182 24.399 45.7936 24.399C45.8841 24.399 45.8841 24.3387 45.8388 24.0977C45.8237 24.0374 45.8087 23.9923 45.7785 23.9471C45.7483 23.8717 45.7332 23.8266 45.7634 23.7211C45.7936 23.5705 45.7785 23.4349 45.7182 23.3144C45.7031 23.2692 45.6729 23.209 45.6578 23.1487C45.6427 23.1035 45.6427 23.0433 45.6277 22.9981C45.6126 22.9227 45.6277 22.8324 45.6427 22.8022C45.6729 22.7571 45.688 22.7269 45.7182 22.6667C45.7332 22.6365 45.7483 22.5914 45.7332 22.516C45.7332 22.4859 45.7332 22.4407 45.7332 22.4106C45.7182 22.2901 45.7031 22.1696 45.7182 22.0641C45.7332 21.9738 45.7332 21.8532 45.7483 21.7779C45.7634 21.7478 45.7483 21.7177 45.7332 21.6574C45.7332 21.6424 45.7182 21.6273 45.7182 21.6122C45.7483 21.5369 45.7483 21.4164 45.7785 21.3863C45.7785 21.3863 45.7936 21.3712 45.7936 21.3562C45.8087 21.311 45.8237 21.2507 45.8237 21.1754C45.8087 21.085 45.8087 20.9796 45.7936 20.8892C45.8087 20.844 45.8087 20.7837 45.8087 20.6934C45.8237 20.6632 45.8237 20.618 45.8087 20.5729C45.8087 20.5578 45.8087 20.5427 45.7936 20.5126C45.7936 20.4222 45.7785 20.3469 45.7785 20.2867C45.7634 20.1963 45.7634 20.1059 45.7634 20.0155C45.7634 19.8197 45.9746 19.5636 45.9293 19.428C45.9142 19.3678 45.8841 19.3075 45.869 19.2473C45.8237 19.0665 45.8237 19.0665 45.8841 18.9761C45.8991 18.946 45.9293 18.8858 45.9142 18.8406C45.9142 18.7652 45.8991 18.6749 45.8841 18.6297C45.8237 18.4941 45.7634 18.3736 45.7031 18.238C45.6729 18.1627 45.8539 17.9217 45.869 17.7861C45.8841 17.5903 45.8841 17.3041 45.8388 17.1987C45.7785 17.033 45.8087 17.0781 45.7483 16.9124C45.7483 16.9124 45.9444 16.5057 45.9293 16.3702C45.9293 16.3551 45.9595 16.2948 45.9896 16.2647C46.0047 16.2497 46.0198 16.2346 46.0198 16.1894C46.0198 16.1894 46.0801 16.0388 45.9444 15.9183C45.9444 15.9183 45.6578 15.391 45.9746 15.2856L46.0349 15.1651L46.0801 14.9843C46.0801 14.9843 46.1706 14.6379 46.2309 14.5927L46.2611 14.5626C46.2913 14.5475 46.3365 14.5324 46.3667 14.5324C46.3968 14.5324 46.4119 14.5174 46.4421 14.5023C46.4873 14.4722 46.5326 14.4571 46.5778 14.442C46.6532 14.4119 46.7136 14.4119 46.7739 14.442C46.789 14.442 46.8041 14.4571 46.8342 14.4571C46.8342 14.4571 47.0001 14.4872 47.2414 14.5475C55.5215 16.7467 84.298 14.3215 103.618 8.9439C104.116 8.80833 104.915 8.6125 105.096 8.58238C105.262 8.53719 105.156 8.71795 104.975 8.86858C104.855 8.97403 104.252 9.06441 104.221 9.09453C104.206 9.1096 104.176 9.15479 104.176 9.16985C104.297 9.45605 105.051 9.15479 105.352 9.12466C105.654 9.09453 105.639 9.21504 105.458 9.33555C105.187 9.50125 105.126 9.7272 105.247 9.83264C105.277 9.86277 105.322 9.8477 105.352 9.87783C105.383 9.92302 105.443 9.98327 105.428 10.0134C105.398 10.0887 105.352 10.164 105.292 10.2092C105.156 10.3297 105.111 10.5406 105.217 10.6913C105.292 10.7967 105.277 10.8871 105.217 10.9925C105.141 11.113 104.282 11.4595 104.146 11.5197C104.071 11.5499 103.92 11.6252 103.844 11.6854C103.814 11.7005 103.799 11.7909 103.814 11.8059C103.935 11.8813 104.825 11.4896 104.96 11.5348C105.021 11.5649 106.092 11.2185 105.624 11.5499C105.518 11.6252 105.187 11.9265 105.187 12.0018C105.187 12.0168 105.187 12.0319 105.187 12.047C105.172 12.1675 105.172 12.303 105.051 12.3934C104.991 12.4386 105.006 12.5441 105.111 12.5742C105.262 12.6194 105.217 12.6796 105.141 12.77C104.991 12.9357 104.478 13.1617 104.342 13.3274C104.327 13.3424 104.327 13.3725 104.327 13.4027C104.357 13.4027 104.402 13.4177 104.417 13.4027C104.493 13.3123 104.598 13.3575 104.704 13.3123C104.93 13.2068 105.533 12.996 105.609 12.9206C105.745 12.7851 105.986 12.8604 105.835 13.1014C105.79 13.1767 105.745 13.1315 105.699 13.2671C105.684 13.2972 105.654 13.3424 105.533 13.4629C105.428 13.5684 105.352 13.6889 105.458 13.7793C105.624 13.9148 105.624 14.0805 105.579 14.2613C105.533 14.5023 105.533 14.5023 105.684 14.6831C105.699 14.7132 105.73 14.7283 105.73 14.7584C105.775 14.8638 105.85 14.8939 105.941 14.8939C105.986 14.8939 106.031 14.8939 106.076 14.909C106.197 14.9391 106.227 14.9994 106.122 15.0747C106.001 15.15 105.865 15.1952 105.745 15.2705C105.669 15.3157 105.564 15.3459 105.518 15.4061C105.473 15.4664 105.413 15.5869 105.473 15.6471C105.579 15.7224 105.941 15.5567 105.986 15.5567C106.046 15.5567 106.122 15.4814 106.152 15.6019C106.182 15.6923 105.368 15.9484 105.307 15.9785C105.292 15.9785 105.277 15.9936 105.277 16.0086C105.141 16.1291 105.398 16.1593 105.564 16.2045C105.714 16.2346 106.167 16.0538 106.092 16.1593C106.061 16.1894 105.79 16.325 105.76 16.4154C105.714 16.5509 105.609 16.5057 105.609 16.5359C105.594 16.6262 105.609 16.7317 105.564 16.807C105.518 16.9124 105.564 16.9124 105.639 16.9275C105.684 16.9426 105.624 17.033 105.624 17.048C105.624 17.0932 105.594 17.1535 105.549 17.1987C105.503 17.2438 105.443 17.289 105.413 17.3342C105.398 17.3493 105.413 17.3945 105.413 17.4246C105.443 17.4246 106.016 17.2589 106.046 17.2438C106.122 17.2288 106.242 17.1836 106.318 17.1836C106.363 17.1836 106.544 17.1535 106.438 17.289C106.393 17.3493 106.423 17.3192 106.227 17.4095C106.031 17.4999 106.046 17.4849 105.503 17.8614C105.202 18.0723 105.307 17.9819 105.141 18.1175C105.081 18.1778 105.156 18.2832 105.292 18.2079C105.684 18.0271 106.514 17.8163 106.453 17.9518C106.378 18.1175 106.227 18.238 106.167 18.3887C106.107 18.5845 105.971 18.5242 105.911 18.5694C105.85 18.6146 105.85 18.7652 105.971 18.7954C106.122 18.8406 106.031 18.9611 105.971 19.0665C105.88 19.2171 105.971 19.187 106.061 19.2021C106.122 19.2171 106.559 19.1268 106.589 19.172C106.634 19.2473 106.257 19.428 106.137 19.4732C106.107 19.4883 105.971 19.5034 105.76 19.6992C105.745 19.7594 105.669 19.8649 105.699 19.8799C105.805 19.895 105.88 19.8498 106.061 19.8347C106.408 19.8046 106.438 19.6691 106.604 19.6841C106.74 19.6992 106.363 19.7896 106.257 19.9854C106.182 20.136 106.122 20.1059 106.092 20.136C106.016 20.2113 105.926 20.2716 106.092 20.362C106.197 20.4222 106.348 20.4975 106.242 20.5427C106.182 20.5729 106.152 20.6482 106.152 20.7235C106.152 20.7687 106.257 20.7235 106.378 20.7837C106.423 20.7988 106.544 20.7988 106.589 20.8139C106.634 20.8289 106.68 20.8289 106.725 20.844C106.77 20.8591 106.921 20.8591 106.936 20.9043C106.951 20.9494 106.725 21.07 106.695 21.085C106.529 21.1453 106.257 21.326 106.272 21.4917C106.272 21.5369 106.785 21.2507 106.906 21.326C107.042 21.4013 106.725 21.3863 106.65 21.552C106.574 21.7629 106.257 21.7327 106.242 21.7629C106.227 21.793 106.197 21.8231 106.152 21.8532C106.122 21.8683 106.122 21.9286 106.107 21.9587C106.137 21.9587 106.182 21.9738 106.212 21.9587C106.242 21.9587 106.272 21.9286 106.303 21.9286C106.318 21.9286 106.348 21.9738 106.333 21.9738C106.242 22.0641 106.031 22.1696 106.092 22.26C106.107 22.2901 106.303 22.1846 106.438 22.1545C106.665 22.1093 106.634 22.034 106.74 22.034C106.846 22.034 106.951 21.9436 106.906 22.034C106.891 22.0641 106.846 22.1093 106.755 22.1244C106.665 22.1395 106.619 22.2298 106.65 22.2298C106.74 22.2298 106.876 22.26 106.876 22.2901C106.876 22.3503 106.966 22.3202 107.012 22.3654C107.057 22.4106 107.313 22.2148 107.298 22.3955C107.283 22.4859 107.117 22.6817 106.906 22.7721C106.815 22.8173 106.559 22.9228 106.544 23.0433C106.544 23.224 107.313 23.0282 107.494 23.0583C107.69 23.0884 107.72 23.1336 107.585 23.2993C107.554 23.3445 107.509 23.3747 107.464 23.4048C107.389 23.45 107.373 23.4801 107.419 23.5705C107.494 23.691 107.434 23.7814 107.328 23.8567C107.253 23.9169 107.177 23.9772 107.102 24.0374C107.072 24.0676 107.072 24.1128 107.057 24.158C107.102 24.173 107.147 24.1881 107.192 24.1881C107.283 24.173 107.358 24.1278 107.449 24.1278C107.6 24.1278 107.6 24.158 107.554 24.3086C107.524 24.3688 107.509 24.4442 107.509 24.5044C107.509 24.655 107.434 24.7454 107.343 24.8358C107.298 24.881 107.253 24.9111 107.208 24.9563C107.102 25.0768 107.102 25.0768 107.238 25.1672C107.283 25.1973 107.328 25.2425 107.313 25.2877C107.313 25.3329 107.268 25.4082 107.223 25.4383C107.087 25.5287 107.69 25.363 107.826 25.8149C107.841 25.9656 108.339 26.0559 108.248 26.1162C108.097 26.2066 107.932 26.2668 107.781 26.3572C107.705 26.4175 107.66 26.5229 107.615 26.6133C107.615 26.6284 107.69 26.6735 107.735 26.7037C107.766 26.7187 107.796 26.7338 107.796 26.7639C107.856 26.9146 107.977 26.9447 108.128 26.9597C108.203 26.9597 108.278 27.02 108.339 27.0501C108.278 27.1104 108.218 27.1857 108.143 27.2309C108.052 27.2761 107.947 27.2761 107.871 27.3213C107.796 27.3665 107.962 27.3966 107.916 27.4568C107.886 27.5171 107.886 27.6075 107.901 27.6677C107.901 27.6828 108.007 27.6828 108.052 27.6828C108.082 27.6828 108.128 27.6979 108.143 27.728C108.158 27.7581 108.158 27.8184 108.128 27.8485C108.097 27.8937 107.781 27.9389 107.735 27.9841C107.645 28.0744 107.66 28.1648 107.781 28.21C108.067 28.3155 108.429 28.5113 108.293 28.7523C108.233 28.8577 108.278 28.8427 108.339 28.8577C108.369 28.8728 108.414 28.8577 108.459 28.8728C108.565 28.9029 108.565 28.9331 108.49 29.0234C108.444 29.0837 108.113 29.1891 108.067 29.2494C108.052 29.2645 106.981 29.7615 108.082 29.4301C108.097 29.4301 108.218 29.385 108.324 29.3398C108.399 29.3096 108.535 29.2946 108.61 29.2645C108.655 29.2494 108.731 29.3096 108.746 29.3548C108.761 29.4301 108.731 29.4753 108.64 29.5055C108.595 29.5205 108.535 29.5507 108.52 29.5808C108.459 29.7164 108.324 29.8067 108.324 29.9724C108.324 30.0176 108.218 30.0929 108.158 30.1381C108.128 30.1532 108.097 30.1833 108.082 30.1984C108.082 30.2285 108.067 30.2586 108.067 30.2888C108.082 30.3038 108.082 30.3189 108.112 30.3189C108.263 30.3942 108.218 30.4997 108.203 30.6202C108.188 30.7105 108.58 30.5298 108.716 30.5599C108.836 30.59 108.836 30.7105 108.776 30.7708C108.686 30.8762 108.731 30.8762 108.836 30.8913C108.897 30.9064 109.002 30.9365 109.002 30.9666C109.002 31.057 108.972 31.1474 108.942 31.2227C108.927 31.2528 108.867 31.2679 108.821 31.2829C108.731 31.3131 108.64 31.3432 108.55 31.3733C108.535 31.3884 108.505 31.4185 108.52 31.4486C108.52 31.4637 108.565 31.4938 108.58 31.4938C108.731 31.4185 108.836 31.524 108.957 31.5842C109.017 31.6143 108.58 31.765 108.746 31.8403C108.882 31.9005 108.882 31.7951 108.957 31.8102C109.138 31.8102 108.912 31.9608 108.625 31.9759C108.459 31.9909 108.399 32.1566 108.369 32.1868C108.309 32.2319 108.324 32.3525 108.655 32.2319C108.806 32.1717 109.289 32.4127 109.123 32.473C109.108 32.473 108.867 32.6236 108.867 32.6387C108.806 32.714 108.716 32.714 108.821 32.8044C108.882 32.8345 108.836 32.9098 108.912 32.9399C108.942 32.955 109.078 32.955 109.108 32.955C109.153 32.9851 109.364 32.729 109.425 32.8646C109.455 32.9098 109.093 33.1809 109.048 33.2111C108.942 33.2864 108.686 33.3918 108.595 33.5123C108.565 33.5425 108.821 33.4671 108.867 33.437C108.987 33.3466 109.123 33.437 109.123 33.4521C109.138 33.4822 108.716 33.6027 108.61 33.7533C108.565 33.8136 108.565 33.8739 108.505 33.9341C108.414 33.9944 108.414 34.0245 108.52 34.0546C108.55 34.0697 109.123 33.8739 109.334 33.904C109.56 33.919 109.349 34.0396 109.319 34.0697C109.289 34.0998 109.274 34.3559 109.244 34.3709C109.183 34.4161 109.017 34.5216 109.002 34.5818C108.927 34.7475 110.088 34.8982 109.892 34.9735C75.7465 49.3892 45.8237 43.1077 45.1149 42.8065C45.1149 42.8065 45.13 42.7763 45.13 42.7462Z" fill="#F5F200"/>
<path d="M95.7756 60.039C96.1375 59.7528 96.4995 59.4666 96.8766 59.1954C100.27 56.5895 103.769 53.8931 103.769 49.9616C103.769 46.8736 101.537 44.7195 98.3546 44.7195C95.5493 44.7195 92.5329 46.5873 92.5329 50.7147C92.5329 50.9106 92.548 51.1365 92.5631 51.2721L94.8556 50.3984C94.8556 48.1389 96.5447 46.9489 98.2038 46.9489C99.8175 46.9489 101.461 47.9732 101.461 50.2779C101.461 53.2454 98.43 55.5802 94.2221 58.7887C93.6188 59.2406 93.0005 59.7226 92.3519 60.2348L92.3218 60.2649V62.4642H104.267V60.0691H95.7756V60.039Z" fill="#333333"/>
<path d="M38.871 52.3566L38.6599 52.2813C36.7746 51.5281 35.4474 50.8653 35.4474 49.1782C35.4474 47.5212 36.7746 46.6475 38.0717 46.6475C39.1274 46.6475 40.4546 47.2049 40.9825 48.425L43.1996 47.5664L43.1694 47.4911C42.2946 45.322 40.0022 44.3579 38.1018 44.3579C35.6284 44.3579 32.9589 45.9245 32.9589 49.3439C32.9589 52.688 35.5228 53.7274 37.589 54.5709L37.8454 54.6764C39.9569 55.55 41.3294 56.2429 41.3294 57.9602C41.3294 59.7377 39.8363 60.536 38.3582 60.536C36.8953 60.536 35.1457 59.7527 34.633 57.5685L34.6028 57.4781L32.25 58.3518C32.9589 61.0934 35.2966 62.8407 38.2526 62.8407C39.7458 62.8407 41.1182 62.3888 42.1438 61.5603C43.3051 60.6264 43.9235 59.3008 43.9235 57.7192C43.9235 54.36 41.2389 53.2905 38.871 52.3566Z" fill="#333333"/>
<path d="M63.7261 49.2687C60.0612 49.2687 57.4067 52.1006 57.4067 56.002C57.4067 59.9034 60.0612 62.7354 63.7261 62.7354C67.391 62.7354 70.0455 59.9034 70.0455 56.002C70.0455 52.1006 67.391 49.2687 63.7261 49.2687ZM67.7228 56.002C67.7228 58.9846 65.7169 60.5512 63.7412 60.5512C61.7353 60.5512 59.7143 58.9846 59.7143 56.002C59.7143 53.381 61.4035 51.483 63.7412 51.483C66.0638 51.483 67.7228 53.381 67.7228 56.002Z" fill="#333333"/>
<path d="M79.7282 56.9811C79.7282 59.346 77.9938 60.6264 76.3499 60.6264C75.0981 60.6264 73.7708 59.8883 73.7708 57.8095V49.6H71.5085V57.8095C71.5085 61.4549 73.8764 62.7503 75.8974 62.7503C77.5263 62.7503 78.9591 61.967 79.7132 60.7017L80.1505 62.4491H82.0056V49.6H79.7433V56.9811H79.7282Z" fill="#333333"/>
<path d="M87.9179 45.9246L85.6556 46.7982V49.585H83.5139V51.6637H85.6556V58.6983C85.6556 62.2081 87.6615 62.7353 88.853 62.7353C89.3808 62.7353 89.9389 62.645 90.5271 62.4793L90.6025 62.4642V60.2197L90.4516 60.3101C90.1048 60.5361 89.6975 60.6716 89.3507 60.6716C88.4457 60.6716 87.9179 60.0089 87.9179 58.8791V51.6637H90.5874V49.6H87.9179V45.9246Z" fill="#333333"/>
<path d="M111.008 44.9906L104.282 56.3936V58.141H112.441V62.434H114.749V58.141H117.75V55.8061H114.749V50.5791L112.441 51.4829V55.8061H107.238L113.572 44.9906H111.008Z" fill="#333333"/>
<path d="M54.6921 58.5477C54.0285 59.7829 52.7918 60.5361 51.4042 60.5361C49.4737 60.5361 47.5281 59.1352 47.5281 55.9869C47.5281 53.8178 48.6895 51.498 51.2534 51.498C52.5354 51.498 53.6665 52.1759 54.2698 53.2906L56.4265 52.4621L56.3813 52.3868C55.4764 50.4737 53.5157 49.2837 51.2383 49.2837C49.6396 49.2837 48.1616 49.8712 47.0757 50.9557C45.854 52.1759 45.1904 53.9232 45.1904 56.017C45.1904 60.6415 48.3577 62.7504 51.2836 62.7504C53.561 62.7504 55.5819 61.5152 56.698 59.4214L56.7433 59.3461L56.7282 59.331L54.6921 58.5477Z" fill="#333333"/>
<path d="M59.6088 18.6296H57.2258L49.5491 36.4045H52.3543L54.1793 32.006H62.6554L64.4803 36.4045H67.2855L59.6088 18.6296ZM61.7052 29.7163H55.1143L58.4173 21.7478L61.7052 29.7163Z" fill="#333333"/>
<path d="M75.8219 23.4951V30.9063C75.8219 33.2562 74.0875 34.5366 72.4587 34.5366C71.2219 34.5366 69.8947 33.7985 69.8947 31.7348V23.4951H67.5872V31.7348C67.5872 33.3014 68.0547 34.6119 68.9445 35.4856C69.7288 36.2689 70.8147 36.6907 72.0213 36.6907C73.6351 36.6907 75.0678 35.9224 75.837 34.6722L76.2593 36.3894H78.1446V23.4951H75.8219Z" fill="#333333"/>
<path d="M86.8469 25.6041V23.4952H84.1774V19.8197L81.8699 20.7084V23.4952H79.7131V25.6041H81.8699V32.6236C81.8699 36.1635 83.8909 36.6907 85.0974 36.6907C85.6253 36.6907 86.1833 36.6004 86.7866 36.4347L86.8771 36.4045V34.0998L86.6961 34.2203C86.3492 34.4463 85.942 34.5819 85.6102 34.5819C84.7204 34.5819 84.2076 33.9341 84.2076 32.8044V25.6041H86.8469Z" fill="#333333"/>
<path d="M94.1164 23.1788C92.2462 23.1788 90.6475 23.8717 89.4711 25.1672C88.3701 26.4024 87.7668 28.0895 87.7668 29.9423C87.7668 31.7951 88.3701 33.4973 89.4711 34.7174C90.6324 36.0129 92.2462 36.7058 94.1013 36.7058C97.7813 36.7058 100.451 33.8588 100.451 29.9423C100.451 26.0258 97.7964 23.1788 94.1164 23.1788ZM94.1465 34.4613C92.1557 34.4613 90.1347 32.9098 90.1347 29.9272C90.1347 27.3213 91.8239 25.4233 94.1465 25.4233C96.439 25.4233 98.098 27.3213 98.098 29.9272C98.098 32.9098 96.1072 34.4613 94.1465 34.4613Z" fill="#333333"/>
</g>
<defs>
<clipPath id="clip0_4255_159820">
<rect width="85.5" height="54.4091" fill="white" transform="translate(32.25 8.43176)"/>
</clipPath>
</defs>
</svg>
