<svg width="150" height="76" viewBox="0 0 150 76" fill="none" xmlns="http://www.w3.org/2000/svg">
<g id="Booking">
<g id="layer1">
<path id="path4191" d="M60.2844 28.1333C60.2844 26.9539 61.2113 26 62.3523 26C63.4971 26 64.4276 26.9539 64.4276 28.1333C64.4276 29.3112 63.4971 30.2661 62.3523 30.2661C61.2113 30.2661 60.2844 29.3112 60.2844 28.1333Z" fill="#273B7D"/>
<path id="path4193" d="M92.9734 42.3229C92.9734 41.1431 93.8998 40.1881 95.0408 40.1881C96.1852 40.1881 97.1155 41.1431 97.1155 42.3229C97.1155 43.4998 96.1852 44.4557 95.0408 44.4557C93.8998 44.4557 92.9734 43.4998 92.9734 42.3229Z" fill="#499FDD"/>
<path id="path4195" d="M26.2819 41.4008C24.4976 41.4008 23.2576 39.9454 23.2576 37.8657C23.2576 35.7865 24.4976 34.332 26.2819 34.332C28.0765 34.332 29.3301 35.7865 29.3301 37.8657C29.3301 39.9783 28.1026 41.4008 26.2819 41.4008ZM26.2819 31.2251C22.5069 31.2251 19.7673 34.0186 19.7673 37.8657C19.7673 41.7127 22.5069 44.5057 26.2819 44.5057C30.071 44.5057 32.822 41.7127 32.822 37.8657C32.822 34.0186 30.071 31.2251 26.2819 31.2251Z" fill="#273B7D"/>
<path id="path4197" d="M56.2718 38.1978C56.1251 37.9142 55.9569 37.6741 55.7777 37.4835L55.6636 37.3591L55.7836 37.2408C55.9569 37.0533 56.1341 36.8308 56.3049 36.573L59.6362 31.4869H55.5921L53.0892 35.4654C52.9475 35.6787 52.6614 35.7864 52.2331 35.7864H51.6627V28.2647C51.6627 26.7603 50.7501 26.5555 49.7642 26.5555H48.0764L48.0793 44.3101H51.6627V38.9844H51.9984C52.4069 38.9844 52.685 39.0329 52.8126 39.2609L54.7894 43.0928C55.3415 44.1326 55.8918 44.3101 56.927 44.3101H59.6731L57.6279 40.8356L56.2718 38.1978Z" fill="#273B7D"/>
<path id="path4199" d="M73.6678 31.1968C71.8451 31.1968 70.682 32.0284 70.0303 32.7315L69.8128 32.9575L69.736 32.6502C69.5445 31.8969 68.8992 31.4824 67.928 31.4824H66.322L66.3321 44.3056H69.8911V38.3955C69.8911 37.8176 69.9642 37.3162 70.113 36.8587C70.5092 35.474 71.6142 34.6131 72.9954 34.6131C74.1064 34.6131 74.5405 35.2152 74.5405 36.7712V42.3562C74.5405 43.6843 75.1386 44.3056 76.4326 44.3056H78.1263L78.1205 36.1499C78.1205 32.9095 76.5818 31.1968 73.6688 31.1968" fill="#273B7D"/>
<path id="path4201" d="M62.3993 31.4879H60.7124L60.7239 41.4028H60.7228V44.3085H62.5235C62.5461 44.3085 62.5643 44.3111 62.5869 44.3111L63.4257 44.3085H64.2605V44.3035H64.2662L64.2735 33.4347C64.2735 32.1234 63.663 31.4879 62.4006 31.4879" fill="#273B7D"/>
<path id="path4203" d="M40.2613 41.4008C38.4771 41.4008 37.2347 39.9454 37.2347 37.8657C37.2347 35.7865 38.4771 34.332 40.2613 34.332C42.0521 34.332 43.3092 35.7865 43.3092 37.8657C43.3092 39.9783 42.0821 41.4008 40.2613 41.4008ZM40.2613 31.2251C36.4826 31.2251 33.7424 34.0186 33.7424 37.8657C33.7424 41.7127 36.4826 44.5057 40.2613 44.5057C44.0465 44.5057 46.802 41.7127 46.802 37.8657C46.802 34.0186 44.0465 31.2251 40.2613 31.2251Z" fill="#273B7D"/>
<path id="path4225" d="M116.549 41.4008C114.766 41.4008 113.522 39.9454 113.522 37.8657C113.522 35.7865 114.766 34.332 116.549 34.332C118.34 34.332 119.598 35.7865 119.598 37.8657C119.598 39.9783 118.37 41.4008 116.549 41.4008ZM116.549 31.2251C112.771 31.2251 110.031 34.0186 110.031 37.8657C110.031 41.7127 112.771 44.5057 116.549 44.5057C120.335 44.5057 123.09 41.7127 123.09 37.8657C123.09 34.0186 120.335 31.2251 116.549 31.2251Z" fill="#499FDD"/>
<path id="path4227" d="M85.6251 40.8366C83.6793 40.8366 82.9867 39.0931 82.9867 37.4592C82.9867 36.7394 83.1639 34.3932 85.4381 34.3932C86.5682 34.3932 88.0744 34.7258 88.0744 37.58C88.0744 40.272 86.7415 40.8366 85.6251 40.8366ZM89.9222 31.4536C89.2468 31.4536 88.7271 31.7301 88.4667 32.2351L88.3683 32.4313L88.2034 32.2842C87.6288 31.7736 86.5988 31.168 84.9262 31.168C81.5982 31.168 79.3577 33.735 79.3577 37.5553C79.3577 41.371 81.676 44.0376 84.9931 44.0376C86.1262 44.0376 87.0216 43.7661 87.7313 43.2141L88.006 43.0023V43.3587C88.006 45.0714 86.9275 46.0162 84.9725 46.0162C84.0224 46.0162 83.1576 45.7786 82.5793 45.5633C81.8241 45.3292 81.3816 45.5229 81.0755 46.3009L80.793 47.0187L80.3933 48.0672L80.6409 48.2026C81.8921 48.8846 83.5209 49.2915 84.9931 49.2915C88.0242 49.2915 91.5632 47.6981 91.5632 43.2141L91.5762 31.4536H89.9227" fill="#273B7D"/>
<path id="path4243" d="M13.0272 41.2537L10.13 41.2507V37.6934C10.13 36.9331 10.417 36.5377 11.0514 36.4467H13.0272C14.4374 36.4467 15.3485 37.3602 15.3495 38.8379C15.3485 40.3544 14.46 41.2527 13.0272 41.2537ZM10.13 31.6573V30.7211C10.13 29.9016 10.4677 29.5119 11.2085 29.4618H12.691C13.9624 29.4618 14.7239 30.2434 14.7239 31.5507C14.7239 32.5476 14.2027 33.7108 12.7378 33.7108H10.13V31.6573ZM16.7273 35.2076L16.2035 34.9053L16.6608 34.5039C17.1924 34.0343 18.0838 32.9788 18.0838 31.1548C18.0838 28.3643 15.9761 26.5631 12.7141 26.5631H8.99153V26.562H8.56763C7.60052 26.5984 6.82674 27.4062 6.81592 28.4057V44.2453H8.52434C8.52867 44.2464 8.53012 44.2453 8.53156 44.2464L12.7877 44.2453C16.4139 44.2453 18.7544 42.2181 18.7544 39.0783C18.7544 37.3878 17.998 35.9425 16.7266 35.2075" fill="#273B7D"/>
<path id="path4245" d="M138.988 31.2383C137.511 31.2383 136.084 31.9485 135.167 33.1396L134.909 33.4752L134.707 33.0996C134.048 31.8651 132.913 31.2383 131.336 31.2383C129.681 31.2383 128.572 32.1861 128.056 32.7498L127.719 33.1249L127.589 32.6315C127.401 31.9212 126.786 31.53 125.853 31.53H124.357L124.343 44.3036H127.741V38.665C127.741 38.1711 127.801 37.6822 127.921 37.1711C128.246 35.8087 129.138 34.3432 130.637 34.4898C131.561 34.5808 132.012 35.3143 132.012 36.7313V44.3036H135.435V38.665C135.435 38.0477 135.491 37.5856 135.627 37.1221C135.902 35.8214 136.833 34.4878 138.279 34.4878C139.326 34.4878 139.713 35.0964 139.713 36.7313V42.4362C139.713 43.7268 140.273 44.3036 141.529 44.3036H143.129L143.132 36.149C143.132 32.8913 141.735 31.2383 138.987 31.2383" fill="#499FDD"/>
<path id="path4247" d="M108.063 39.8685C108.053 39.8811 106.59 41.465 104.665 41.465C102.91 41.465 101.138 40.3594 101.138 37.8914C101.138 35.7606 102.512 34.2714 104.479 34.2714C105.118 34.2714 105.845 34.5064 105.958 34.9017L105.975 34.9685C106.237 35.8648 107.03 35.9128 107.186 35.9128L109.048 35.9148V34.243C109.048 32.0379 106.317 31.2382 104.479 31.2382C100.549 31.2382 97.6978 34.0484 97.6978 37.9182C97.6978 41.7865 100.518 44.5926 104.407 44.5926C107.782 44.5926 109.616 42.3147 109.634 42.292L109.732 42.1686L108.257 39.6562L108.063 39.8685Z" fill="#499FDD"/>
</g>
</g>
</svg>
