<svg width="150" height="76" viewBox="0 0 150 76" fill="none" xmlns="http://www.w3.org/2000/svg">
<g clip-path="url(#clip0_4255_159900)">
<path d="M16 34.6114H26.7286H33.2437V28.0725L16 34.6114Z" fill="#FF9D28"/>
<path d="M33.2437 28.0725V51.1161L41.3974 25L33.2437 28.0725Z" fill="#68C5ED"/>
<path d="M33.2437 34.6113H26.7285L33.2437 51.1161V34.6113Z" fill="#044D80"/>
<path d="M16 34.6113L28.4061 38.8655L26.7286 34.6113H16Z" fill="#E54747"/>
<path d="M55.5203 45.0499C55.4422 45.1286 55.2862 45.2468 55.0521 45.4044C54.818 45.5619 54.5449 45.6801 54.1938 45.8377C53.8427 45.9952 53.4136 46.1134 52.9064 46.1922C52.3992 46.3104 51.814 46.3498 51.1508 46.3498C49.8634 46.3498 48.771 46.1528 47.8347 45.7195C46.8984 45.3256 46.1571 44.7347 45.5329 43.9863C44.9087 43.2379 44.4796 42.3713 44.2065 41.3471C43.9334 40.323 43.7773 39.22 43.7773 38.0383C43.7773 36.8566 43.9334 35.7142 44.2455 34.6901C44.5576 33.6659 45.0258 32.7599 45.611 32.0115C46.2352 31.2631 46.9764 30.6722 47.9127 30.2783C48.849 29.845 49.9024 29.6481 51.1508 29.6481C52.3992 29.6481 52.3212 29.6875 52.8284 29.8056C53.3355 29.9238 53.7647 30.042 54.1158 30.1995C54.4669 30.3571 54.779 30.5147 55.0521 30.6722C55.2862 30.8298 55.4812 30.9874 55.5983 31.1055C55.7543 31.2237 55.8714 31.3813 55.9494 31.5782C56.0664 31.7358 56.1055 31.9327 56.1055 32.1691C56.1055 32.4842 55.9884 32.7993 55.7543 33.1145C55.5203 33.4296 55.2472 33.7447 54.9741 33.9811C54.779 33.7841 54.584 33.5871 54.3499 33.3902C54.1158 33.1932 53.8427 33.0357 53.5696 32.8781C53.2965 32.7206 52.9454 32.6024 52.5943 32.4842C52.2432 32.366 51.814 32.3266 51.3459 32.3266C50.5266 32.3266 49.8634 32.4842 49.3172 32.7993C48.771 33.1145 48.3419 33.5478 47.9908 34.0598C47.6786 34.5719 47.4056 35.2022 47.2885 35.8718C47.1325 36.5415 47.0934 37.2505 47.0934 37.9201C47.0934 38.5898 47.1715 39.3776 47.2885 40.0472C47.4446 40.7169 47.6786 41.3471 48.0298 41.8592C48.3809 42.3713 48.81 42.8046 49.3952 43.1197C49.9414 43.4348 50.6436 43.5924 51.5019 43.5924C52.3602 43.5924 52.3602 43.553 52.7113 43.4348C53.0624 43.3167 53.4136 43.1985 53.6866 43.0409C53.9597 42.8834 54.2328 42.7258 54.4279 42.5288C54.623 42.3713 54.818 42.2137 54.9741 42.0562C55.0521 42.1743 55.1691 42.2925 55.2862 42.4501C55.4032 42.6076 55.5203 42.7652 55.6373 42.9621C55.7543 43.1197 55.8324 43.3167 55.9104 43.4742C55.9884 43.6318 56.0274 43.7894 56.0274 43.9469C56.0274 44.1439 55.9884 44.3408 55.9104 44.459C55.8324 44.6166 55.7153 44.7741 55.5203 44.9317V45.0499ZM67.6923 43.2379C67.6923 44.4984 67.8874 45.4044 68.2385 45.9952C67.9654 46.1134 67.6923 46.1922 67.4582 46.2316C67.2242 46.271 66.9511 46.3104 66.678 46.3104C66.0928 46.3104 65.6636 46.1922 65.3906 45.9558C65.0784 45.7195 64.9224 45.4044 64.8444 45.0105C64.4933 45.365 64.0251 45.6801 63.4789 45.9558C62.8937 46.1922 62.2305 46.3498 61.3722 46.3498C60.5139 46.3498 60.5139 46.271 60.0848 46.1528C59.6556 46.0346 59.2655 45.8377 58.9144 45.5619C58.5633 45.2862 58.2902 44.9317 58.0561 44.459C57.822 43.9863 57.705 43.4348 57.705 42.8046C57.705 42.1743 57.9001 41.3471 58.2902 40.835C58.6803 40.323 59.1485 39.9291 59.7337 39.6139C60.3189 39.3382 60.9431 39.1019 61.6453 39.0231C62.3085 38.9049 62.9327 38.8261 63.5179 38.8261C63.713 38.8261 63.9081 38.8261 64.0641 38.8261H64.5713V38.3928C64.5713 37.7626 64.4152 37.3293 64.1031 37.0929C63.791 36.8172 63.2448 36.699 62.5036 36.699C61.7623 36.699 61.2162 36.8172 60.67 37.0535C60.1238 37.2899 59.6166 37.5262 59.1095 37.802C58.8754 37.5262 58.7193 37.2111 58.5633 36.896C58.4462 36.5808 58.3682 36.3051 58.3682 36.1475C58.3682 35.99 58.4853 35.7142 58.7193 35.5173C58.9534 35.3203 59.3045 35.1234 59.7337 34.9658C60.1628 34.8083 60.67 34.6507 61.2162 34.5719C61.7623 34.4537 62.3475 34.4144 62.9717 34.4144C63.596 34.4144 64.5713 34.4931 65.1565 34.6901C65.7417 34.8477 66.2488 35.1234 66.6 35.5173C66.9901 35.8718 67.2242 36.3445 67.3802 36.896C67.5363 37.4474 67.6143 38.0777 67.6143 38.8261V43.3561L67.6923 43.2379ZM64.6493 40.4411H64.2982C64.1812 40.4411 64.0641 40.4411 63.9471 40.4411C63.5569 40.4411 63.1668 40.5199 62.7767 40.5987C62.3866 40.6775 62.0354 40.7563 61.7623 40.9532C61.4502 41.1108 61.2162 41.3077 61.0211 41.5835C60.826 41.8592 60.748 42.1743 60.748 42.5682C60.748 42.9621 60.865 43.3954 61.1381 43.7106C61.3722 44.0257 61.8014 44.1833 62.4256 44.1833C63.0498 44.1833 63.0108 44.1439 63.2838 44.0651C63.5569 43.9863 63.791 43.8681 63.9861 43.75C64.1812 43.6318 64.3372 43.4742 64.4542 43.3167C64.5713 43.1591 64.6493 43.0409 64.6493 42.8834V40.4411ZM73.6223 35.7142C73.8564 35.3991 74.2855 35.084 74.7927 34.8083C75.2999 34.5325 76.0021 34.3356 76.8214 34.3356C77.6406 34.3356 77.9527 34.4537 78.4989 34.6507C79.0451 34.8477 79.5133 35.1628 79.9034 35.6355C80.3325 36.0688 80.6446 36.6596 80.8787 37.4081C81.1128 38.1565 81.2298 39.0625 81.2298 40.126C81.2298 41.1896 81.0738 42.4107 80.8007 43.1985C80.5276 44.0257 80.1375 44.6559 79.7083 45.1286C79.2402 45.6013 78.772 45.9165 78.1868 46.1134C77.6406 46.3104 77.0945 46.3891 76.5483 46.3891C76.0021 46.3891 75.69 46.3498 75.3389 46.2316C74.9878 46.1134 74.7147 45.9952 74.4806 45.8771C74.2465 45.7589 74.0514 45.6407 73.9344 45.4832C73.8174 45.365 73.7393 45.2862 73.7003 45.2074V51.116H70.4622V34.6507C70.5403 34.6507 70.6183 34.6507 70.7353 34.6113C70.8134 34.6113 70.9304 34.6113 71.0865 34.6113C71.2035 34.6113 71.3595 34.6113 71.5546 34.6113C72.0618 34.6113 72.5299 34.6901 72.8811 34.887C73.2322 35.0446 73.4662 35.3597 73.5833 35.793L73.6223 35.7142ZM77.9137 40.1654C77.9137 39.6927 77.8747 39.22 77.7967 38.8261C77.7187 38.3928 77.6016 38.0383 77.4066 37.7626C77.2115 37.4474 76.9774 37.2111 76.6653 37.0535C76.3532 36.896 76.0021 36.8172 75.5339 36.8172C74.8707 36.8172 74.4026 36.9354 74.1685 37.2111C73.8954 37.4474 73.7784 37.7626 73.7784 38.0383V43.1197C73.8954 43.2379 74.1295 43.3954 74.4416 43.5924C74.7537 43.75 75.1438 43.8681 75.573 43.8681C76.3922 43.8681 76.9774 43.553 77.3285 42.9228C77.7187 42.2925 77.9137 41.3865 77.9137 40.2442V40.1654ZM83.7657 44.3014C83.6486 43.9863 83.5706 43.6318 83.5706 43.2773C83.5706 42.9228 83.5316 42.5682 83.5316 42.2137V31.0661C83.6486 31.0661 83.7657 31.0661 83.8827 31.0267C83.9998 31.0267 84.1168 31.0267 84.2338 31.0267C84.3509 31.0267 84.4679 31.0267 84.624 31.0267C84.858 31.0267 85.1311 31.0267 85.4042 31.1055C85.6383 31.1449 85.8724 31.2631 86.1065 31.3813C86.3015 31.5388 86.4966 31.7358 86.6136 31.9721C86.7307 32.2085 86.8087 32.563 86.8087 32.9569V34.6507H90.1248V37.0929H86.8087V42.2137C86.8087 43.3167 87.2769 43.8681 88.1742 43.8681C89.0715 43.8681 88.6033 43.8681 88.7984 43.75C88.9934 43.6712 89.1885 43.5924 89.3445 43.5136C89.5006 43.4348 89.6567 43.3167 89.7737 43.2379C89.8907 43.1591 89.9688 43.0803 90.0078 43.0409C90.2418 43.3954 90.4369 43.7106 90.554 43.9469C90.671 44.2227 90.749 44.459 90.749 44.6559C90.749 44.8529 90.671 45.0892 90.5149 45.2862C90.3589 45.4832 90.1248 45.6801 89.8127 45.8377C89.5006 45.9952 89.1495 46.1528 88.7203 46.2316C88.2912 46.3498 87.823 46.3891 87.3159 46.3891C86.3405 46.3891 85.5603 46.1922 85.0141 45.7983C84.4679 45.4044 84.0778 44.8923 83.8437 44.3014H83.7657ZM98.2395 43.9863C98.6296 43.9863 98.9808 43.9469 99.2929 43.8681C99.605 43.7894 99.8781 43.6712 100.112 43.553C100.346 43.4348 100.541 43.2773 100.736 43.1197C100.892 42.9621 101.087 42.844 101.204 42.6864C101.4 42.9228 101.595 43.2379 101.79 43.5924C101.985 43.9863 102.102 44.262 102.102 44.4984C102.102 44.8529 101.907 45.168 101.517 45.4438C101.165 45.7195 100.697 45.9165 100.112 46.1134C99.4879 46.3104 98.7857 46.3891 97.9664 46.3891C97.1471 46.3891 96.4839 46.3104 95.7817 46.1134C95.0795 45.9165 94.4162 45.6013 93.8701 45.0892C93.3239 44.6166 92.8557 43.9469 92.5046 43.1591C92.1535 42.3713 91.9974 41.3471 91.9974 40.0866C91.9974 38.8261 92.1535 38.1959 92.4656 37.4868C92.7777 36.7778 93.1678 36.1475 93.714 35.6749C94.2212 35.2022 94.8064 34.8477 95.4696 34.6113C96.1328 34.375 96.796 34.2568 97.4593 34.2568C98.1225 34.2568 99.0978 34.4144 99.722 34.6901C100.346 34.9658 100.853 35.3597 101.244 35.8324C101.634 36.3051 101.907 36.8566 102.102 37.4474C102.258 38.0383 102.375 38.7079 102.375 39.3776V39.7321C102.375 39.8503 102.375 40.0078 102.375 40.126C102.375 40.2836 102.375 40.4017 102.375 40.5593C102.375 40.6775 102.375 40.7957 102.375 40.8744H95.3525C95.4306 41.741 95.7037 42.4895 96.1718 43.0803C96.64 43.6712 97.4202 43.9469 98.4346 43.9469L98.2395 43.9863ZM99.3319 39.1019C99.3319 38.3534 99.1758 37.7232 98.9027 37.2111C98.5906 36.7384 98.0835 36.5021 97.3032 36.5021C96.5229 36.5021 96.1328 36.7384 95.7427 37.1717C95.3525 37.6444 95.1575 38.2746 95.1575 39.0625H99.3319V39.1019ZM107.876 35.793C107.954 35.6355 108.11 35.4779 108.266 35.3203C108.422 35.1628 108.617 35.0052 108.851 34.8477C109.085 34.6901 109.319 34.5719 109.592 34.4931C109.865 34.4144 110.177 34.3356 110.49 34.3356C110.802 34.3356 110.88 34.3356 111.114 34.375C111.309 34.375 111.543 34.4537 111.699 34.5719C111.894 34.6507 112.011 34.7689 112.128 34.9264C112.245 35.084 112.284 35.2809 112.284 35.4779C112.284 35.8324 112.206 36.2263 112.011 36.699C111.855 37.1323 111.66 37.5262 111.504 37.8413C111.231 37.605 110.958 37.4474 110.685 37.3293C110.412 37.2111 110.099 37.1323 109.748 37.1323C109.397 37.1323 108.851 37.2899 108.5 37.5656C108.149 37.8413 107.993 38.1959 107.993 38.5898V46.3498H104.755V34.6507C104.833 34.6507 104.911 34.6507 105.028 34.6113C105.106 34.6113 105.223 34.6113 105.379 34.6113C105.496 34.6113 105.652 34.6113 105.847 34.6113C106.354 34.6113 106.783 34.7295 107.173 34.9264C107.564 35.1234 107.798 35.4385 107.876 35.8324V35.793ZM117.083 35.793C117.161 35.6355 117.317 35.4779 117.473 35.3203C117.629 35.1628 117.824 35.0052 118.058 34.8477C118.292 34.6901 118.526 34.5719 118.799 34.4931C119.072 34.4144 119.385 34.3356 119.697 34.3356C120.009 34.3356 120.087 34.3356 120.321 34.375C120.516 34.375 120.75 34.4537 120.906 34.5719C121.101 34.6507 121.218 34.7689 121.335 34.9264C121.452 35.084 121.491 35.2809 121.491 35.4779C121.491 35.8324 121.413 36.2263 121.218 36.699C121.062 37.1323 120.867 37.5262 120.711 37.8413C120.438 37.605 120.165 37.4474 119.892 37.3293C119.619 37.2111 119.307 37.1323 118.955 37.1323C118.604 37.1323 118.058 37.2899 117.707 37.5656C117.356 37.8413 117.2 38.1959 117.2 38.5898V46.3498H113.962V34.6507C114.04 34.6507 114.118 34.6507 114.235 34.6113C114.313 34.6113 114.43 34.6113 114.586 34.6113C114.703 34.6113 114.859 34.6113 115.054 34.6113C115.561 34.6113 115.99 34.7295 116.381 34.9264C116.771 35.1234 117.005 35.4385 117.083 35.8324V35.793ZM132.493 43.2379C132.493 44.4984 132.688 45.4044 133.039 45.9952C132.766 46.1134 132.493 46.1922 132.259 46.2316C132.025 46.271 131.752 46.3104 131.479 46.3104C130.893 46.3104 130.464 46.1922 130.191 45.9558C129.879 45.7195 129.723 45.4044 129.645 45.0105C129.294 45.365 128.826 45.6801 128.28 45.9558C127.694 46.1922 127.031 46.3498 126.173 46.3498C125.315 46.3498 125.315 46.271 124.885 46.1528C124.456 46.0346 124.066 45.8377 123.715 45.5619C123.364 45.2862 123.091 44.9317 122.857 44.459C122.623 43.9863 122.506 43.4348 122.506 42.8046C122.506 42.1743 122.701 41.3471 123.091 40.835C123.481 40.323 123.949 39.9291 124.534 39.6139C125.119 39.3382 125.744 39.1019 126.446 39.0231C127.109 38.9049 127.733 38.8261 128.319 38.8261C128.514 38.8261 128.709 38.8261 128.865 38.8261H129.372V38.3928C129.372 37.7626 129.216 37.3293 128.904 37.0929C128.592 36.8172 128.045 36.699 127.343 36.699C126.641 36.699 126.056 36.8172 125.51 37.0535C124.963 37.2899 124.456 37.5262 123.949 37.802C123.715 37.5262 123.559 37.2111 123.403 36.896C123.286 36.5808 123.208 36.3051 123.208 36.1475C123.208 35.99 123.325 35.7142 123.559 35.5173C123.793 35.3203 124.144 35.1234 124.573 34.9658C125.002 34.8083 125.51 34.6507 126.056 34.5719C126.602 34.4537 127.187 34.4144 127.811 34.4144C128.436 34.4144 129.372 34.4931 129.996 34.6901C130.581 34.8477 131.088 35.1234 131.44 35.5173C131.83 35.8718 132.064 36.3445 132.22 36.896C132.376 37.4474 132.454 38.0777 132.454 38.8261V43.3561L132.493 43.2379ZM129.45 40.4411H129.099C128.982 40.4411 128.865 40.4411 128.748 40.4411C128.358 40.4411 127.967 40.5199 127.577 40.5987C127.187 40.6775 126.836 40.7563 126.563 40.9532C126.251 41.1108 126.017 41.3077 125.822 41.5835C125.627 41.8592 125.549 42.1743 125.549 42.5682C125.549 42.9621 125.666 43.3954 125.939 43.7106C126.212 44.0257 126.602 44.1833 127.226 44.1833C127.85 44.1833 127.811 44.1439 128.084 44.0651C128.358 43.9863 128.592 43.8681 128.787 43.75C128.982 43.6318 129.138 43.4742 129.255 43.3167C129.372 43.1591 129.45 43.0409 129.45 42.8834V40.4411Z" fill="#044D80"/>
</g>
<defs>
<clipPath id="clip0_4255_159900">
<rect width="117" height="26.1161" fill="white" transform="translate(16 25)"/>
</clipPath>
</defs>
</svg>
