<svg width="150" height="76" viewBox="0 0 150 76" fill="none" xmlns="http://www.w3.org/2000/svg">
<g clip-path="url(#clip0_4255_159854)">
<path d="M61.8019 21.154C63.9786 20.2526 66.7188 21.9169 66.8025 24.2991C67.0891 26.4431 65.1668 28.4647 63.0223 28.3295C60.9261 28.3552 59.1712 26.3046 59.432 24.2508C59.5737 22.8827 60.5011 21.624 61.8019 21.154Z" fill="#333333"/>
<path d="M37.8582 27.0966C40.3054 24.4311 43.9697 23.0212 47.5664 23.1338C51.3435 23.0405 55.3362 24.5985 57.5226 27.7887C58.6528 29.3017 59.1905 31.1463 59.4513 32.9973C57.5 33.007 55.5423 32.9876 53.5878 33.0102C53.2175 31.2686 52.0615 29.7363 50.4676 28.9347C47.8884 27.6181 44.4109 28.1686 42.4982 30.3866C40.8077 32.2987 40.2571 34.9545 40.2475 37.4429C40.2281 40.0086 40.8238 42.7513 42.6302 44.6731C44.4914 46.6239 47.5503 47.1294 50.0297 46.2119C52.3288 45.3299 53.4558 42.8479 53.7906 40.5559C55.758 40.5591 57.7254 40.5462 59.696 40.5655C59.3644 43.437 58.3759 46.3568 56.2732 48.4202C54.045 50.7477 50.7478 51.7714 47.5825 51.7327C44.1597 51.781 40.6403 50.5964 38.1931 48.1466C35.3756 45.3749 34.0716 41.3317 34.1746 37.4365C34.1231 33.7055 35.3209 29.8812 37.8582 27.0966Z" fill="#333333"/>
<path d="M78.501 46.7011C77.1872 48.124 74.9461 48.2141 73.2138 47.6122C71.4331 46.9168 71.4557 44.1033 73.1011 43.2534C75.1007 42.1976 77.5157 42.6225 79.5442 41.6117C79.4895 43.3243 79.7407 45.3169 78.501 46.7011ZM85.0278 46.9619C85.031 43.4562 85.031 39.9506 85.0343 36.4482C85.0439 35.286 84.796 34.0724 83.9974 33.1872C82.5517 31.5003 80.2365 30.9692 78.1146 30.8243C75.0814 30.6537 71.7004 30.7728 69.2275 32.7655C67.772 33.8761 67.0765 35.6595 66.9252 37.4364H72.4217C72.6438 36.7089 72.7501 35.8752 73.3522 35.3408C74.0928 34.6519 75.1554 34.4362 76.1407 34.4619C77.1131 34.4813 78.2273 34.5617 78.9357 35.3247C79.5313 36.0361 79.702 37.1016 79.3575 37.9676C78.7457 38.7627 77.7088 39.0106 76.7718 39.1683C74.3762 39.5096 71.9065 39.6319 69.6299 40.5172C68.0135 41.1481 66.7223 42.6289 66.4679 44.364C66.1975 46.1539 66.4035 48.1659 67.6529 49.5726C68.9409 51.0663 70.9856 51.5717 72.8821 51.6361C75.3164 51.6425 77.9278 51.1017 79.7213 49.3376C79.8405 49.9428 79.9693 50.5512 80.1077 51.1532C81.9689 51.1532 83.8236 51.1307 85.6847 51.1693C85.1824 49.8269 85.0246 48.388 85.0278 46.9619Z" fill="#333333"/>
<path d="M87.9547 34.1594C89.8512 31.8223 92.9231 30.6827 95.8855 30.7697C98.5387 30.6924 101.272 31.5551 103.217 33.3997C104.94 35.0543 105.906 37.385 106.118 39.7446C106.463 42.8962 105.768 46.3664 103.485 48.6906C101.324 51.0084 97.972 51.8261 94.9001 51.5879C94.43 51.6362 93.8118 51.3175 93.4512 51.7392C92.2984 52.8723 91.1199 53.9765 89.9607 55.1C89.9575 53.4614 89.951 51.8261 89.9671 50.1875C88.0803 48.9192 86.7085 47.0038 86.1451 44.7955C85.1984 41.2415 85.5526 37.0824 87.9547 34.1594Z" fill="#333333"/>
<path d="M60.3919 31.2717C62.2241 31.2782 64.0562 31.2717 65.8916 31.275V51.15C64.0562 51.15 62.2241 51.1468 60.3919 51.1532C60.3887 44.525 60.3855 37.8967 60.3919 31.2717Z" fill="#333333"/>
<path d="M110.189 40.8166C110.154 34.1787 110.144 27.5473 110.195 20.9126C112.021 20.9384 113.844 20.9255 115.669 20.9287V40.8037C113.844 40.8069 112.018 40.7908 110.189 40.8166Z" fill="#FFCB04"/>
<path d="M91.1945 38.0128C93.1812 34.4974 99.209 34.5876 101.019 38.222C102.2 40.6686 101.891 44.0776 99.6372 45.8128C98.3235 46.8525 96.5847 46.9362 94.9876 46.904C94.2116 47.696 93.4066 48.4557 92.5887 49.1993C92.5887 48.1724 92.5919 47.1519 92.5694 46.1282C90.2736 44.1903 89.7906 40.6042 91.1945 38.0128Z" fill="#FFCB04"/>
<path d="M111.783 43.8909C114.002 43.1119 116.61 44.8856 116.584 47.2581C116.816 49.5147 114.543 51.501 112.343 51.0889C110.408 50.8571 108.94 48.8999 109.22 46.9813C109.365 45.5584 110.434 44.319 111.783 43.8909Z" fill="#FFCB04"/>
</g>
<defs>
<clipPath id="clip0_4255_159854">
<rect width="82.4306" height="34.2" fill="white" transform="translate(34.1694 20.9)"/>
</clipPath>
</defs>
</svg>
