<svg width="150" height="76" viewBox="0 0 150 76" fill="none" xmlns="http://www.w3.org/2000/svg">
<g clip-path="url(#clip0_4255_159834)">
<path fill-rule="evenodd" clip-rule="evenodd" d="M31.2979 37.5208L31.2814 37.5302L28.3302 38.7338L28.2398 38.7755L27.5205 42.0615C27.4726 42.1739 27.3287 42.2006 27.232 42.1071L25.082 39.5647L25.0717 39.5569L12.9473 44.7595C12.9292 44.7673 12.9088 44.7683 12.89 44.7622C12.8713 44.7562 12.8554 44.7434 12.8453 44.7264C12.8353 44.7094 12.8318 44.6893 12.8355 44.6699C12.8392 44.6505 12.8499 44.6332 12.8655 44.6211L23.347 36.7756L22.0208 33.7474C21.9548 33.6098 22.0766 33.4628 22.2385 33.5037H22.2401L25.4522 34.2945L27.9458 32.0753C28.0535 31.9912 28.1997 32.0517 28.2273 32.1854L28.471 35.5193L31.3466 37.2024C31.47 37.281 31.452 37.4634 31.2979 37.5208ZM29.8325 27.989C26.111 26.5284 22.0184 27.625 19.4934 30.4315L9.64007 40.9876C9.50721 41.1299 9.56932 41.3084 9.73047 41.332L12.3561 41.4931C12.566 41.5065 12.592 41.6873 12.4866 41.8107L6.06791 48.7333C5.95628 48.8528 6.09149 49.0415 6.244 48.9943L15.4071 46.099C15.6005 46.0322 15.7499 46.2052 15.6681 46.3569L14.4417 48.5235C14.3788 48.6469 14.4976 48.8159 14.6516 48.8049L27.8617 45.8624C31.018 45.3624 33.8363 43.2556 35.0886 40.0655C36.9753 35.278 34.6185 29.8718 29.8325 27.989Z" fill="#D61F26"/>
<path fill-rule="evenodd" clip-rule="evenodd" d="M65.2445 44.0511H62.2344L64.5904 33.0202L67.8733 31.8135L65.2452 44.0495" fill="#D61F26"/>
<path fill-rule="evenodd" clip-rule="evenodd" d="M58.7795 37.7331C58.0586 37.7331 57.6443 38.3298 57.4761 39.0208C58.9014 39.0208 59.3329 38.5758 59.3329 38.2064C59.3329 37.9469 59.101 37.7331 58.7795 37.7331ZM57.1389 40.9531C57.1231 41.0286 57.1074 41.1685 57.1074 41.244C57.1074 41.7353 57.4439 41.9043 58.3353 41.9043C59.1317 41.9043 60.2661 41.7038 60.9272 41.4751V43.7297C60.0837 44.0363 58.763 44.2037 57.7041 44.2037C55.2199 44.2037 54.0234 43.5284 54.0234 41.2754C54.0234 39.0632 55.0509 35.6145 59.0106 35.6145C61.5247 35.6145 62.2754 36.7505 62.2754 37.9477C62.2754 39.4964 60.9421 40.8147 57.1389 40.9531Z" fill="#D61F26"/>
<path fill-rule="evenodd" clip-rule="evenodd" d="M70.7111 35.219C69.6853 35.219 69.0249 34.5595 69.0249 33.6547C69.0249 32.4731 69.8535 31.8143 70.8794 31.8143C71.9234 31.8143 72.568 32.4731 72.568 33.363C72.568 34.5595 71.7551 35.219 70.7111 35.219Z" fill="#D61F26"/>
<path fill-rule="evenodd" clip-rule="evenodd" d="M68.5994 35.8911H71.6967L70.1307 43.9285H67.002L68.1041 38.2841" fill="#D61F26"/>
<path fill-rule="evenodd" clip-rule="evenodd" d="M80.6237 35.8911C79.549 38.5915 78.3675 41.2289 76.866 43.9285H73.0297C72.5399 41.3814 72.3237 38.6976 72.3866 35.8911H75.5162C75.4566 37.1993 75.466 38.5098 75.5445 39.817C75.561 40.1551 75.5924 40.4758 75.6223 40.8005H75.6396C75.7764 40.4758 75.9289 40.1559 76.068 39.817C76.6042 38.4963 77.0947 37.0577 77.465 35.8911H80.6237Z" fill="#D61F26"/>
<path fill-rule="evenodd" clip-rule="evenodd" d="M84.8109 37.7331C84.0916 37.7331 83.675 38.3298 83.5052 39.0208C84.9336 39.0208 85.3628 38.5758 85.3628 38.2064C85.3628 37.9469 85.1348 37.7331 84.8109 37.7331ZM83.1711 40.9531C83.1523 41.049 83.1413 41.1463 83.1381 41.244C83.1381 41.7353 83.4769 41.9043 84.3652 41.9043C85.1639 41.9043 86.2991 41.7038 86.9586 41.4751V43.7297C86.1143 44.0363 84.7952 44.2037 83.7379 44.2037C81.2514 44.2037 80.0557 43.5284 80.0557 41.2754C80.0557 39.0632 81.0823 35.6145 85.0405 35.6145C87.5561 35.6145 88.3069 36.7505 88.3069 37.9477C88.3069 39.4964 86.9752 40.8147 83.1711 40.9531Z" fill="#D61F26"/>
<path fill-rule="evenodd" clip-rule="evenodd" d="M94.3223 38.7291C94.0757 38.6702 93.8234 38.6386 93.57 38.6348C92.8789 38.6348 92.3271 39.3266 92.0802 40.6001L91.4388 43.9294H88.3076L89.8744 35.892H92.2225L92.298 36.9635C93.0181 36.0752 93.5872 35.6145 94.4614 35.6145C94.8592 35.6145 95.0746 35.6452 95.1807 35.6758L94.3231 38.7284" fill="#D61F26"/>
<path fill-rule="evenodd" clip-rule="evenodd" d="M104.108 35.8911C102.726 39.4814 101.5 42.1031 100.272 43.9151C98.4935 46.5691 96.9276 47.183 95.316 47.183C94.8404 47.183 94.3357 47.0573 94.0889 46.9362L94.581 44.6195H95.6548C96.1918 44.6195 96.4205 44.4033 96.7743 43.9285C96.176 41.7666 95.8836 38.7448 95.9143 35.8911H99.0603C98.9995 37.1841 99.0097 38.4795 99.091 39.7714C99.1067 40.1236 99.135 40.4617 99.1657 40.8005H99.1814C99.3205 40.4758 99.4723 40.1559 99.6114 39.8021C100.135 38.5233 100.59 37.2178 100.976 35.8911H104.108Z" fill="#D61F26"/>
<path fill-rule="evenodd" clip-rule="evenodd" d="M116.137 43.9285H112.835L113.619 39.8776H110.826L110.042 43.9285H106.747L108.831 33.2214H112.131L111.38 37.042H114.172L114.924 33.2214H118.22L116.136 43.9285" fill="#D61F26"/>
<path fill-rule="evenodd" clip-rule="evenodd" d="M122.638 37.7331C121.916 37.7331 121.505 38.3298 121.335 39.0208C122.762 39.0208 123.193 38.5758 123.193 38.2064C123.193 37.9469 122.96 37.7331 122.638 37.7331ZM120.997 40.9531C120.979 41.0491 120.969 41.1464 120.968 41.244C120.968 41.7353 121.306 41.9043 122.193 41.9043C122.992 41.9043 124.127 41.7038 124.787 41.4751V43.7297C123.943 44.0363 122.623 44.2037 121.563 44.2037C119.079 44.2037 117.883 43.5284 117.883 41.2754C117.883 39.0632 118.91 35.6145 122.868 35.6145C125.384 35.6145 126.137 36.7505 126.137 37.9477C126.137 39.4964 124.801 40.8147 120.997 40.9531Z" fill="#D61F26"/>
<path fill-rule="evenodd" clip-rule="evenodd" d="M132.148 38.7291C131.902 38.67 131.651 38.6383 131.398 38.6348C130.709 38.6348 130.155 39.3266 129.91 40.6001L129.265 43.9294H126.137L127.7 35.892H130.047L130.125 36.9635C130.845 36.0752 131.412 35.6145 132.286 35.6145C132.686 35.6145 132.9 35.6452 133.009 35.6758L132.148 38.7284" fill="#D61F26"/>
<path fill-rule="evenodd" clip-rule="evenodd" d="M137.288 38.0845C136.03 38.0845 135.692 40.0027 135.692 40.8619C135.692 41.5513 135.983 41.7502 136.553 41.7502C137.793 41.7502 138.116 39.8321 138.116 38.9595C138.116 38.285 137.841 38.0845 137.288 38.0845ZM136.121 44.2037C133.682 44.2037 132.487 43.1605 132.487 41.0749C132.487 38.7582 133.637 35.6145 137.688 35.6145C140.112 35.6145 141.323 36.6884 141.323 38.7449C141.323 41.1072 140.172 44.2037 136.121 44.2037Z" fill="#D61F26"/>
<path fill-rule="evenodd" clip-rule="evenodd" d="M47.3055 41.3814H46.6916L47.7953 35.7355H48.6561C49.9587 35.7355 50.4343 36.5059 50.4343 37.5616C50.4343 39.696 49.252 41.3814 47.3055 41.3814ZM50.2291 35.9359L52.314 33.9352C51.5003 33.4455 50.384 33.2214 48.991 33.2214H45.003L42.9189 43.9293H47.0768C51.9067 43.9293 53.8383 40.5544 53.8383 37.0428C53.8383 36.1301 53.6417 35.3998 53.2628 34.8338L50.2291 35.9359Z" fill="#D61F26"/>
</g>
<defs>
<clipPath id="clip0_4255_159834">
<rect width="136" height="22.0116" fill="white" transform="translate(6 27)"/>
</clipPath>
</defs>
</svg>
