<svg width="150" height="76" viewBox="0 0 150 76" fill="none" xmlns="http://www.w3.org/2000/svg">
<g clip-path="url(#clip0_4255_159802)">
<path d="M40.1781 28.1744C33.5524 28.1744 28.0312 30.9619 28.0312 39.3715C28.0312 46.0337 31.7438 50.2292 40.3492 50.2292C50.478 50.2292 51.1273 43.6127 51.1273 43.6127H46.2194C46.2194 43.6127 45.1671 47.1754 40.0498 47.1754C35.8818 47.1754 32.8841 44.3834 32.8841 40.47H51.6406V38.0142C51.6406 34.1426 49.1621 28.1744 40.1781 28.1744ZM40.007 31.313C43.9744 31.313 46.6792 33.7232 46.6792 37.3356H32.9926C32.9926 33.5006 36.523 31.313 40.007 31.313Z" fill="#E53238"/>
<path d="M51.6374 20.0311V46.0059C51.6374 47.4803 51.5312 49.5505 51.5312 49.5505H56.2124C56.2124 49.5505 56.3804 48.0636 56.3804 46.7048C56.3804 46.7048 58.6932 50.2927 64.9818 50.2927C71.6039 50.2927 76.1021 45.7336 76.1021 39.2018C76.1021 33.1253 71.9704 28.238 64.9925 28.238C58.4581 28.238 56.4277 31.7371 56.4277 31.7371V20.0311H51.6374ZM63.7842 31.4508C68.2811 31.4508 71.1407 34.7604 71.1407 39.2018C71.1407 43.9643 67.838 47.08 63.8163 47.08C59.0167 47.08 56.4277 43.3638 56.4277 39.2442C56.4277 35.4055 58.7509 31.4508 63.7842 31.4508Z" fill="#0064D2"/>
<path d="M87.7357 28.1744C77.7679 28.1744 77.1286 33.5867 77.1286 34.4516H82.09C82.09 34.4516 82.3502 31.2918 87.3935 31.2918C90.6708 31.2918 93.2103 32.7793 93.2103 35.6391V36.657H87.3935C79.6713 36.657 75.5889 38.8972 75.5889 43.4431C75.5889 47.9169 79.3609 50.3511 84.4584 50.3511C91.4055 50.3511 93.6434 46.5445 93.6434 46.5445C93.6434 48.0586 93.7611 49.5506 93.7611 49.5506H98.1717C98.1717 49.5506 98.0006 47.7012 98.0006 46.518V36.2912C98.0006 29.5856 92.5463 28.1744 87.7357 28.1744ZM93.2103 39.7108V41.068C93.2103 42.8381 92.1088 47.239 85.6239 47.239C82.0728 47.239 80.5502 45.4816 80.5502 43.4431C80.5502 39.7346 85.6776 39.7108 93.2103 39.7108Z" fill="#F5AF02"/>
<path d="M95.3286 29.0234H100.91L108.92 44.9374L116.912 29.0234H121.969L107.411 57.3553H102.108L106.308 49.4574L95.3286 29.0234Z" fill="#86B817"/>
</g>
<defs>
<clipPath id="clip0_4255_159802">
<rect width="94" height="37.3864" fill="white" transform="translate(28 20)"/>
</clipPath>
</defs>
</svg>
