<svg width="150" height="104" viewBox="0 0 150 104" fill="none" xmlns="http://www.w3.org/2000/svg">
<path d="M85.2407 46.5927V64.5853H90.7438V49.0172C91.7487 48.5387 94.0935 48.427 95.1143 49.3043C95.5929 49.7031 95.9119 50.2614 95.9278 51.1546C95.9438 52.0319 95.9278 52.9411 95.9278 53.8344C95.9278 57.4074 95.8959 60.9963 95.9278 64.5853H101.431L101.447 49.6233C101.495 49.4798 101.893 49.2086 102.069 49.097C103.441 48.3154 106.2 48.4111 106.551 50.724C106.647 51.2982 106.599 54.4884 106.599 55.3338C106.599 58.4123 106.583 61.5068 106.599 64.5853H112.102C112.15 60.3583 112.102 55.9399 112.102 51.681C112.102 50.1976 111.959 49.2724 111.32 48.1399C110.347 46.4332 108.338 45.2528 105.674 45.189C104.334 45.1571 102.994 45.2847 101.814 45.6197C101.255 45.7792 100.729 45.9865 100.266 46.2258C99.9794 46.3694 99.8039 46.481 99.5965 46.6246C99.4211 46.7362 99.0861 47.0233 98.9585 47.0712C98.4002 46.4013 97.1242 45.827 96.2309 45.5718C93.4873 44.8062 88.8137 45.173 86.0223 46.2736C85.7512 46.3694 85.48 46.497 85.2407 46.5927Z" fill="#299F0A"/>
<path d="M118.418 37.5166C116.823 37.7718 115.659 39.0479 115.994 40.5792C116.297 41.935 117.732 42.8442 119.407 42.6049C120.795 42.4135 122.199 41.2172 121.832 39.5583C121.561 38.2822 120.093 37.2454 118.418 37.5166Z" fill="#299F0A"/>
<path d="M116.153 64.5853H121.688V45.5718H116.137L116.153 64.5853Z" fill="#299F0A"/>
<path d="M42.2048 63.5644L40.9926 60.1509C40.7054 60.2147 39.8919 60.7251 38.1533 60.9963C35.4895 61.411 32.7778 61.2515 31.7889 58.4761C31.6932 58.2049 31.4061 57.2638 31.4699 56.9926L42.8269 55.3816C43.0183 54.8552 42.7153 52.2711 42.6036 51.681C42.0294 48.6343 40.2748 46.0662 36.8613 45.3963C32.3312 44.519 28.2159 46.3374 26.7803 50.8994C26.1422 52.9411 25.9827 55.8282 26.4932 57.9975C27.6097 62.6871 30.7521 64.9362 35.5533 64.9362C36.8134 64.9362 38.0257 64.8245 39.2061 64.5853C40.3705 64.346 41.2478 64.011 42.2048 63.5644Z" fill="#299F0A"/>
<path d="M31.0712 54.281L37.7068 53.308C37.8025 50.9472 37.0209 47.9804 33.9583 48.4908C31.3583 48.9215 30.9914 52.0797 31.0712 54.281Z" fill="white"/>
<path d="M72.8784 45.2049C71.4269 45.3485 70.406 45.5878 69.3373 46.2258C66.1631 48.092 65.0146 51.8724 65.1901 55.7644C65.4294 61.2835 68.4919 65.2393 74.314 64.9043C79.5938 64.6012 82.2576 59.9276 81.9705 54.3129C81.779 50.6601 80.3754 47.1509 76.8024 45.7632C75.7336 45.3325 74.2024 45.0773 72.8784 45.2049Z" fill="#299F0A"/>
<path d="M73.1658 48.6503C70.7254 49.065 70.6456 52.7656 70.6615 55.3497C70.6775 57.4711 70.9327 61.6662 74.0112 61.1398C76.4836 60.7251 76.5155 57.0405 76.4996 54.4564C76.4996 51.9681 76.0689 48.1558 73.1658 48.6503Z" fill="white"/>
<path d="M46.3682 64.5693L52.0467 64.5852V52.5582C52.2062 52.6221 53.4185 55.1901 53.578 55.5092C54.0884 56.53 54.5829 57.5349 55.0933 58.5398C55.9706 60.2625 56.8479 62.1128 57.7252 63.8196C57.8369 64.0429 58.0283 64.3779 58.108 64.6012H64.5363C64.4565 64.3779 64.2491 64.027 64.1215 63.8196C63.9939 63.5963 63.8504 63.3251 63.6909 63.0539L61.0909 58.4122C60.7878 57.8699 57.2307 51.5533 57.2307 51.4736C57.2307 51.3619 62.5903 42.7644 63.1645 41.7914C63.3559 41.4724 63.962 40.5472 64.0737 40.3079L58.2197 40.292C57.8209 41.0895 57.135 42.2061 56.6884 43.0355C56.178 43.9607 55.6676 44.8221 55.1571 45.7791C54.6626 46.6883 54.1363 47.5975 53.6258 48.5227L52.4774 50.5963C52.3976 50.7558 52.1903 51.1865 52.0467 51.2503V40.292H46.3682V64.5693Z" fill="#299F0A"/>
</svg>
