<svg width="150" height="76" viewBox="0 0 150 76" fill="none" xmlns="http://www.w3.org/2000/svg">
<g clip-path="url(#clip0_4255_159720)">
<path d="M25.2325 27.5988C23.8432 27.5988 23.4416 28.2187 23.4416 29.5858V31.8536H27.1472L26.7758 35.5176H23.443V46.6368H18.9959V35.5176H16V31.8536H18.9959V29.648C18.9959 25.9522 20.4773 24.0001 24.6105 24.0001C25.4766 23.998 26.3422 24.0497 27.2019 24.155V27.6032L25.2325 27.5988Z" fill="#1877F2"/>
<path d="M27.4553 38.779C27.4553 34.6487 29.4003 31.538 33.4759 31.538C35.6988 31.538 37.0563 32.6878 37.7056 34.1158V31.8537H41.9656V46.6369H37.7056V44.4009C37.088 45.8302 35.6988 46.9482 33.4759 46.9482C29.4003 46.9482 27.4553 43.8419 27.4553 39.7072V38.779ZM31.901 39.7739C31.901 41.978 32.7028 43.4378 34.7716 43.4378C36.5942 43.4378 37.5199 42.1026 37.5199 39.9911V38.5067C37.5199 36.3952 36.5942 35.06 34.7716 35.06C32.7028 35.06 31.901 36.5198 31.901 38.7239V39.7739Z" fill="#1877F2"/>
<path d="M51.2282 31.5422C52.9557 31.5422 54.5926 31.9159 55.4881 32.5357L54.5005 35.7044C53.5742 35.2606 52.5621 35.0272 51.5362 35.0208C49.1277 35.0208 48.0811 36.4183 48.0811 38.8107V39.6797C48.0811 42.0721 49.1306 43.4696 51.5362 43.4696C52.5621 43.4631 53.5742 43.2298 54.5005 42.786L55.4881 45.9532C54.5926 46.5745 52.9572 46.9482 51.2282 46.9482C46.0094 46.9482 43.6326 44.1213 43.6326 39.587V38.9034C43.6326 34.3691 46.0094 31.5422 51.2282 31.5422Z" fill="#1877F2"/>
<path d="M56.074 39.81V38.5066C56.074 34.3141 58.4508 31.5553 63.2996 31.5553C67.869 31.5553 69.8759 34.3503 69.8759 38.4502V40.8107H60.5182C60.6118 42.8295 61.5072 43.7303 63.9733 43.7303C65.6419 43.7303 67.4011 43.3885 68.6983 42.8295L69.5117 45.8925C68.3384 46.5152 65.9298 46.9801 63.8006 46.9801C58.173 46.9786 56.074 44.1546 56.074 39.81ZM60.5196 37.8839H65.8924V37.5117C65.8924 35.897 65.2445 34.6153 63.301 34.6153C61.2927 34.6168 60.5196 35.8912 60.5196 37.8781V37.8839Z" fill="#1877F2"/>
<path d="M86.3556 39.7115C86.3556 43.8418 84.3804 46.9525 80.309 46.9525C78.0862 46.9525 76.5429 45.8345 75.9253 44.4051V46.6412H71.7273V24.4302L76.1729 24.0247V33.9014C76.8208 32.598 78.2417 31.5408 80.3105 31.5408C84.3861 31.5408 86.357 34.6472 86.357 38.7818L86.3556 39.7115ZM81.9099 38.6862C81.9099 36.6051 81.1081 35.0527 78.9774 35.0527C77.1548 35.0527 76.1672 36.3561 76.1672 38.469V40.0214C76.1672 42.1329 77.1548 43.4377 78.9774 43.4377C81.1081 43.4377 81.9099 41.8853 81.9099 39.8042V38.6862Z" fill="#1877F2"/>
<path d="M87.8428 39.6174V38.873C87.8428 34.6168 90.2513 31.5422 95.1605 31.5422C100.07 31.5422 102.48 34.6168 102.48 38.873V39.6174C102.48 43.8722 100.071 46.9482 95.162 46.9482C90.2528 46.9482 87.8428 43.8722 87.8428 39.6174ZM98.0326 38.5617C98.0326 36.6051 97.2293 35.0527 95.1533 35.0527C93.0773 35.0527 92.2812 36.6051 92.2812 38.5617V39.9287C92.2812 41.8853 93.0845 43.4377 95.1533 43.4377C97.2221 43.4377 98.0326 41.8853 98.0326 39.9287V38.5617Z" fill="#1877F2"/>
<path d="M103.958 39.6174V38.873C103.958 34.6168 106.367 31.5422 111.276 31.5422C116.185 31.5422 118.594 34.6168 118.594 38.873V39.6174C118.594 43.8722 116.185 46.9482 111.276 46.9482C106.367 46.9482 103.958 43.8722 103.958 39.6174ZM114.148 38.5617C114.148 36.6051 113.345 35.0527 111.276 35.0527C109.207 35.0527 108.406 36.6051 108.406 38.5617V39.9287C108.406 41.8853 109.207 43.4377 111.276 43.4377C113.345 43.4377 114.148 41.8853 114.148 39.9287V38.5617Z" fill="#1877F2"/>
<path d="M124.706 38.9034L129.09 31.8536H133.814L129.214 39.1525L133.999 46.6368H129.276L124.706 39.3958V46.6368H120.259V24.4302L124.706 24.0247V38.9034Z" fill="#1877F2"/>
</g>
<defs>
<clipPath id="clip0_4255_159720">
<rect width="118" height="22.9735" fill="white" transform="translate(16 24)"/>
</clipPath>
</defs>
</svg>
