<svg width="150" height="110" viewBox="0 0 150 110" fill="none" xmlns="http://www.w3.org/2000/svg">
<path d="M53.5877 58.8466V58.2899C53.5877 51.9126 49.8591 47.9647 44.3929 47.9647C42.0647 47.9647 39.7871 48.9095 38.0662 50.6472C36.3622 52.3512 35.4512 54.5445 35.4512 56.9402C35.4512 59.3696 36.3116 61.546 37.965 63.2837C39.7196 65.1396 41.8285 66.0337 44.4435 66.0337C48.2733 66.0337 51.1076 64.2117 52.7779 60.635H47.2272C46.468 61.3098 45.6245 61.5798 44.6122 61.5798C42.419 61.5798 41.0861 60.635 40.6475 58.796L53.5877 58.8466ZM48.5095 55.2699H40.4956C40.8499 53.6334 42.3515 52.5537 44.4604 52.5537C46.468 52.5706 47.9021 53.5153 48.5095 55.2699Z" fill="#494545"/>
<path d="M72.6858 58.8466V58.2899C72.6858 51.9126 68.9573 47.9647 63.491 47.9647C61.1628 47.9647 58.8852 48.9095 57.1643 50.6472C55.4604 52.3512 54.5493 54.5445 54.5493 56.9402C54.5493 59.3696 55.4097 61.546 57.0631 63.2837C58.8177 65.1396 60.9266 66.0337 63.5416 66.0337C67.3714 66.0337 70.2058 64.2117 71.876 60.635H66.3254C65.5662 61.3098 64.7226 61.5798 63.7104 61.5798C61.5171 61.5798 60.1843 60.635 59.7456 58.796L72.6858 58.8466ZM67.5907 55.2699H59.5769C59.9312 53.6334 61.4328 52.5537 63.5416 52.5537C65.5493 52.5706 67.0002 53.5153 67.5907 55.2699Z" fill="#494545"/>
<path d="M28.2977 52.3344V65.6626H33.2578V52.3344H35.2824V48.5046H33.241V48.0829C33.241 46.5138 33.5953 46.0077 35.1305 46.0077H35.2655V42.5491C34.9787 42.5491 34.7088 42.5154 34.4726 42.5154C30.2379 42.5323 28.264 44.2025 28.264 47.8635C28.264 48.0491 28.2977 48.2853 28.2977 48.5046H26.4419V52.3344H28.2977Z" fill="#494545"/>
<path d="M74.5924 52.3344V65.6626H79.5525V52.3344H81.577V48.5046H79.5525V48.0828C79.5525 46.5138 79.9068 46.0077 81.4421 46.0077H81.577V42.566C81.2902 42.566 81.0203 42.5322 80.7841 42.5322C76.5494 42.5322 74.5755 44.2025 74.5755 47.8635C74.5755 48.0491 74.6092 48.2853 74.6092 48.5046H72.7534V52.3344H74.5924Z" fill="#494545"/>
<path d="M99.646 56.974C99.646 54.6458 98.6675 52.2669 96.8285 50.5629C95.1077 48.9264 92.965 48.0829 90.4681 48.0829C88.1399 48.0829 85.8623 49.0277 84.1414 50.7654C82.4374 52.4694 81.5264 54.6626 81.5264 57.0583C81.5264 59.4541 82.3868 61.6642 84.0402 63.385C85.7948 65.2409 87.9037 66.135 90.5187 66.135C93.1 66.135 95.2764 65.2071 97.031 63.4525C98.7856 61.6979 99.646 59.5553 99.646 56.974ZM94.6353 57.109C94.6353 59.4372 92.8132 61.3267 90.5862 61.3267C88.3929 61.3267 86.5371 59.4372 86.5371 57.109C86.5371 54.747 88.3592 52.8574 90.5862 52.8574C92.8132 52.8574 94.6353 54.7301 94.6353 57.109Z" fill="#494545"/>
<path d="M107.407 54.1733C104.977 54.0215 103.037 52.0813 102.885 49.635H112.502H113.514V49.5169C113.514 45.3497 110.848 42.5491 107.171 42.5491C103.273 42.5491 100.625 45.4003 100.625 49.112C100.625 52.6212 103.358 55.7086 107.086 55.7086C109.802 55.7086 111.945 54.207 113.109 51.4064H112.046C111.27 53.0429 109.617 54.1733 107.71 54.1733C107.575 54.1902 107.491 54.1902 107.407 54.1733Z" fill="#FFDD00"/>
<path d="M120.887 54.1733C123.316 54.0215 125.256 52.0813 125.408 49.635H115.792H114.779V49.5169C114.779 45.3497 117.445 42.5491 121.123 42.5491C125.02 42.5491 127.669 45.4003 127.669 49.112C127.669 52.6212 124.936 55.7086 121.207 55.7086C118.491 55.7086 116.348 54.207 115.184 51.4064H116.264C117.04 53.0429 118.693 54.1733 120.6 54.1733C120.684 54.1902 120.785 54.1902 120.887 54.1733Z" fill="#FFDD00"/>
</svg>
