<svg width="150" height="76" viewBox="0 0 150 76" fill="none" xmlns="http://www.w3.org/2000/svg">
<g id="Holiday check">
<path id="Vector" d="M138 50.5C138 51.8843 136.867 53 135.461 53C134.055 53 132.922 51.8843 132.922 50.5C132.922 49.1157 134.055 48 135.461 48C136.867 48 138 49.1157 138 50.5ZM127.845 50.5C127.845 51.8843 126.712 53 125.306 53C123.9 53 122.767 51.8843 122.767 50.5C122.767 49.1157 123.9 48 125.306 48C126.712 48 127.845 49.1157 127.845 50.5ZM117.648 50.5C117.648 51.8843 116.515 53 115.109 53C113.703 53 112.57 51.8843 112.57 50.5C112.57 49.1157 113.703 48 115.109 48C116.515 48 117.648 49.1157 117.648 50.5ZM107.472 50.5C107.472 51.8843 106.339 53 104.933 53C103.527 53 102.394 51.8843 102.394 50.5C102.394 49.1157 103.527 48 104.933 48C106.339 48 107.472 49.1157 107.472 50.5ZM97.2956 50.5C97.2956 51.8843 96.1626 53 94.7568 53C93.3511 53 92.2181 51.8843 92.2181 50.5C92.2181 49.1157 93.3511 48 94.7568 48C96.1626 48 97.2956 49.1157 97.2956 50.5ZM87.0776 50.5C87.0776 51.8843 85.9445 53 84.5388 53C83.133 53 82 51.8843 82 50.5C82 49.1157 83.133 48 84.5388 48C85.9445 48 87.0776 49.1157 87.0776 50.5Z" fill="#FAD73C"/>
<path id="Vector_2" d="M23.424 42.0125C23.424 42.2359 23.214 42.4391 22.983 42.4391H21.723C21.492 42.4391 21.303 42.2359 21.303 42.0125V35.8978H14.142V42.0125C14.142 42.2359 13.953 42.4188 13.722 42.4391H12.483C12.21 42.4391 12 42.2359 12 42.0125V28.5236C12 28.2595 12.21 28.097 12.441 28.097H13.701C13.932 28.097 14.142 28.3001 14.142 28.5033V34.0695H21.282V28.483C21.282 28.2595 21.492 28.0767 21.723 28.0767H22.962C23.235 28.0767 23.445 28.2798 23.445 28.5033V42.0125H23.424ZM39.552 42.4188H39.531C39.3 42.4188 39.09 42.2156 39.09 41.9922V27.4469C39.09 27.2235 39.3 27.0203 39.531 27.0203H40.665C40.896 27.0203 41.106 27.2235 41.106 27.4469V42.4391C41.106 42.4188 39.552 42.4188 39.552 42.4188ZM44.151 42.4188H44.13C43.899 42.4188 43.689 42.2156 43.689 41.9922V32.3631C43.689 32.1396 43.899 31.9364 44.13 31.9364H45.264C45.495 31.9364 45.705 32.1396 45.705 32.3631V42.4188C45.726 42.4188 44.151 42.4188 44.151 42.4188ZM45.81 27.4063V29.1737C45.81 29.3971 45.6 29.58 45.369 29.58H43.542V27.8126C43.542 27.5891 43.752 27.386 43.983 27.386H45.81C45.81 27.3657 45.81 27.4063 45.81 27.4063ZM28.002 37.1979C28.002 39.0872 29.052 41.1186 31.425 41.1186C33.798 41.1186 34.806 39.0669 34.806 37.1979C34.806 35.2071 33.546 33.2772 31.425 33.2772C29.262 33.2569 28.002 35.2071 28.002 37.1979ZM25.881 37.1979C25.881 34.0085 28.107 31.713 31.425 31.713C34.743 31.713 36.969 34.0085 36.969 37.1979C36.969 40.1842 34.701 42.6829 31.425 42.6829C28.128 42.6829 25.881 40.1842 25.881 37.1979ZM69.225 42.0125C69.225 42.2359 69.015 42.4391 68.784 42.4391H67.86C67.587 42.4391 67.377 42.2562 67.377 42.0125V41.078H67.356C66.873 41.7078 65.823 42.6625 63.975 42.6625C61.644 42.6625 59.985 41.6671 59.985 39.3919C59.985 36.751 62.988 35.9384 65.046 35.9384C65.823 35.9384 66.39 35.9384 67.167 35.9587C67.167 34.171 66.474 33.2366 64.479 33.2366C63.618 33.2366 62.673 33.46 61.938 33.907C61.875 33.9273 61.791 33.9679 61.707 33.9679C61.476 33.9679 61.287 33.7851 61.266 33.5616L61.203 32.81C61.203 32.7287 61.224 32.6271 61.329 32.6068C62.316 32.0583 63.45 31.6724 64.815 31.6724C67.923 31.6724 69.183 33.1553 69.183 36.0197V40.367C69.162 41.139 69.183 41.6265 69.225 42.0125ZM67.146 38.3558V37.4214L65.865 37.4011C64.794 37.4011 62.085 37.5839 62.085 39.3919C62.085 40.4889 63.198 41.0983 64.122 41.0983C66.096 41.1186 67.146 39.9201 67.146 38.3558ZM55.911 41.9922V40.9358H55.89C55.344 41.7281 54.126 42.6829 52.173 42.6829C48.876 42.6829 47.49 39.8794 47.49 36.9948C47.49 34.1914 49.023 31.6927 52.194 31.6927C54.084 31.6927 55.197 32.424 55.827 33.3788H55.848V27.4266C55.848 27.2031 56.037 27 56.268 27H57.402C57.633 27 57.843 27.1828 57.843 27.4266V41.9718C57.843 42.1953 57.654 42.3781 57.423 42.3985H56.352C56.121 42.4188 55.911 42.2156 55.911 41.9922ZM49.611 37.137C49.59 38.7825 50.472 41.1186 52.635 41.1186C54.903 41.1186 55.848 38.9653 55.848 37.1979C55.848 35.2477 54.798 33.2569 52.614 33.2569C50.43 33.2569 49.548 35.2274 49.611 37.137ZM73.971 41.7281L70.38 32.2412L70.359 32.1599C70.359 32.038 70.443 31.9568 70.59 31.9568H72.144C72.333 31.9568 72.501 32.0786 72.564 32.2412L75.42 40.6108H75.441L78.318 32.2615V32.2412C78.381 32.099 78.528 31.9771 78.717 31.9771H80.124C80.25 31.9771 80.355 32.0583 80.355 32.1802V32.2412L76.638 42.1344L74.244 48.8382L74.223 48.9194C74.139 49.0007 74.013 49.0413 73.887 48.9397L72.69 48.0053C72.501 47.8631 72.459 47.6802 72.543 47.5177L74.37 42.9469C74.391 42.8251 74.097 42.0734 73.971 41.7281ZM93.186 41.8703C93.186 42.0734 93.06 42.2156 92.913 42.2766C91.842 42.6219 90.603 42.6829 89.805 42.6829C85.08 42.6829 81.951 39.7576 81.951 35.2071C81.951 30.7988 85.269 27.8329 89.826 27.8329C90.876 27.8329 91.884 27.9751 92.85 28.3204H92.871C93.018 28.3814 93.144 28.5236 93.144 28.7064L93.018 30.1081C93.018 30.23 92.892 30.3113 92.808 30.3113C92.787 30.3113 92.745 30.3113 92.724 30.291C91.863 29.8644 90.897 29.6612 89.931 29.6612C86.487 29.6612 84.198 32.038 84.198 35.2477C84.198 38.6199 86.718 40.8749 89.826 40.8749C90.75 40.8749 91.989 40.6717 92.787 40.3264L92.871 40.3061C92.997 40.3061 93.081 40.3873 93.081 40.5295L93.186 41.8703ZM105.303 41.9922C105.303 42.2156 105.093 42.4188 104.862 42.4188H103.728C103.497 42.4188 103.287 42.2156 103.287 41.9922V37.0151C103.287 34.5773 102.72 33.3991 100.977 33.2772C98.709 33.2772 97.659 35.0446 97.659 37.6042V42.0328C97.659 42.2562 97.47 42.4391 97.239 42.4594H96.105C95.874 42.4594 95.664 42.2562 95.664 42.0328V27.4876C95.664 27.2235 95.874 27.0203 96.105 27.0203H97.239C97.47 27.0203 97.68 27.2235 97.68 27.4469V33.4397H97.701C98.415 32.3427 99.675 31.6927 101.208 31.6927C104.022 31.6927 105.282 33.3788 105.282 36.1822V41.9718H105.303V41.9922ZM126.723 41.9515C126.723 42.175 126.576 42.3375 126.387 42.3781C125.631 42.6422 124.854 42.6625 124.224 42.6625C120.927 42.6625 118.68 40.1638 118.68 37.1776C118.68 33.9882 120.906 31.6927 124.224 31.6927C124.875 31.6927 125.694 31.8146 126.282 31.9771C126.492 32.038 126.618 32.1802 126.618 32.3834V32.4037L126.534 33.3991C126.534 33.521 126.45 33.6022 126.303 33.6022H126.24C125.547 33.3788 124.896 33.2569 124.329 33.2569C122.082 33.2569 120.822 35.2071 120.822 37.1776C120.822 39.0669 121.872 41.0983 124.455 41.0983C125.022 41.0983 125.736 40.9561 126.303 40.6717C126.324 40.6514 126.366 40.6514 126.429 40.6514C126.555 40.6514 126.639 40.7327 126.639 40.8545L126.723 41.9515ZM135.627 42.4188C135.48 42.4188 135.354 42.3578 135.27 42.2766L130.545 37.0354V41.9922C130.545 42.2156 130.335 42.4188 130.104 42.4188H128.991C128.76 42.4188 128.55 42.2156 128.55 41.9922V27.4469C128.55 27.2235 128.76 27.0203 128.991 27.0203H130.104C130.377 27.0203 130.545 27.2235 130.545 27.4469V36.2025L134.766 32.1193C134.85 32.038 134.976 31.9771 135.102 31.9771H137.118C137.244 31.9771 137.328 32.0583 137.328 32.2005C137.328 32.2615 137.307 32.3224 137.265 32.3427L132.582 36.6291L137.916 42.0734C137.979 42.0937 138 42.1547 138 42.2563C138 42.3781 137.916 42.4594 137.79 42.4594L135.627 42.4188ZM116.538 41.6874C116.538 41.8906 116.412 42.0328 116.265 42.0937C115.551 42.3578 114.669 42.6829 113.094 42.6829C109.23 42.6829 107.466 40.4279 107.466 36.9948C107.466 33.8866 109.503 31.6927 112.59 31.6927C116.118 31.6927 117.357 34.1304 117.378 37.4011C117.378 37.523 117.294 37.6245 117.168 37.6245H109.608C109.608 39.7169 111.288 41.1389 113.199 41.1389C114.312 41.1389 115.53 40.6717 116.223 40.3061C116.244 40.2857 116.286 40.2857 116.349 40.2857C116.475 40.2857 116.58 40.367 116.58 40.4889V41.7078H116.538V41.6874ZM109.587 36.1822H115.215C115.215 34.5977 114.228 33.2569 112.485 33.2569C110.553 33.2569 109.734 34.8211 109.587 36.1822Z" fill="black"/>
</g>
</svg>
