<svg width="150" height="76" viewBox="0 0 150 76" fill="none" xmlns="http://www.w3.org/2000/svg">
<g clip-path="url(#clip0_4255_159932)">
<path d="M33.2491 49.4985H41.8027V35.0264L24.6753 30.101V24H19V49.4985H27.5535V41.4719H33.2491V49.4985Z" fill="#4DBC15"/>
<path d="M82.4219 37.0127C79.4424 34.0332 74.5981 34.0332 71.6185 37.0127C70.9294 37.7019 70.3821 38.5127 69.997 39.4045C69.5916 40.3369 69.4092 41.3301 69.4092 42.3435C69.4092 44.3501 70.1997 46.2554 71.6185 47.6743C72.3077 48.3634 73.1387 48.8904 74.0305 49.2755C75.9358 50.066 78.0843 50.066 80.0099 49.2755C80.9017 48.8904 81.7328 48.3634 82.4219 47.6743C83.8407 46.2757 84.6312 44.3501 84.6312 42.3435C84.6312 41.3301 84.4286 40.3369 84.0434 39.4045C83.6583 38.5127 83.1111 37.7019 82.4219 37.0127ZM80.9625 44.1677C80.7801 44.6947 80.4964 45.1812 80.1315 45.5866C79.7667 45.9919 79.3005 46.296 78.7938 46.5189C77.6587 46.9649 76.3817 46.9649 75.2467 46.5189C74.7399 46.3162 74.294 45.9919 73.9089 45.5866C73.5441 45.1812 73.24 44.6947 73.0576 44.1677C72.6522 42.9718 72.6522 41.6746 73.0576 40.499C73.24 39.972 73.5238 39.4856 73.9089 39.0802C74.2738 38.6748 74.7399 38.3708 75.2467 38.1478C76.3817 37.7019 77.6587 37.7019 78.7938 38.1478C79.3005 38.3505 79.7464 38.6748 80.1315 39.0802C80.4964 39.4856 80.8004 39.972 80.9625 40.499C81.3679 41.6949 81.3679 42.9921 80.9625 44.1677Z" fill="black"/>
<path d="M116.575 37.8843V35.1682H105.265V38.0059H112.501L105.001 46.7621V49.4984H116.98V46.681H109.035L116.575 37.8843Z" fill="black"/>
<path d="M124.034 46.681L131.594 37.8843V35.1682H120.264V38.0059H127.5L120 46.7621V49.4984H132V46.681H124.034Z" fill="black"/>
<path d="M62.7408 35.3101C60.6328 34.4385 58.0384 34.8034 56.3561 36.1411V30.101H53.1738V49.4984H56.3561V41.8773C56.3561 40.4179 56.7817 37.9856 59.5586 37.9856C62.3354 37.9856 63.0246 40.0733 63.0246 41.8773V49.4984H66.1866V40.8233C66.1866 38.2086 64.9299 36.2019 62.7206 35.2898L62.7408 35.3101Z" fill="black"/>
<path d="M98.2114 42.9921C98.2114 43.438 98.1506 43.8839 98.029 44.3298C97.9074 44.7758 97.7047 45.1811 97.4412 45.546C97.1574 45.9108 96.7926 46.2351 96.3669 46.4378C95.313 46.904 94.1171 46.904 93.0834 46.4378C92.6577 46.2149 92.2929 45.9108 92.0091 45.546C91.7456 45.1811 91.5429 44.7758 91.4213 44.3298C91.2997 43.9042 91.2389 43.4583 91.2389 42.9921V35.1479H88.0972V43.3164C88.0972 46.3567 89.4349 48.3836 92.151 49.3971C93.8536 50.0052 95.6981 50.0052 97.4007 49.3971C100.725 48.1404 101.414 45.4041 101.414 43.3164V35.1885H98.252V43.0123L98.2114 42.9921Z" fill="black"/>
</g>
<defs>
<clipPath id="clip0_4255_159932">
<rect width="113" height="25.8633" fill="white" transform="translate(19 24)"/>
</clipPath>
</defs>
</svg>
