<svg width="150" height="76" viewBox="0 0 150 76" fill="none" xmlns="http://www.w3.org/2000/svg">
<path d="M38.5248 52.3303C36.9947 52.3303 35.9099 51.8882 35.6251 51.7576C35.8312 50.2048 36.0145 48.8729 36.0491 48.6251L36.4684 48.2279C36.6439 48.2538 37.1804 48.323 37.6185 48.323C38.3281 48.323 38.7663 48.0336 38.9236 47.4593L39.0613 46.8433H38.0182L34.0266 33.6226H38.9016L40.1186 37.9367L40.412 40.6106H40.9611L41.2301 37.9154L42.2662 33.6218H47.1695L43.2755 48.2239C42.5069 51.144 41.1302 52.3303 38.5248 52.3303ZM120.661 47.1548C116.53 47.1548 114.438 44.9585 114.438 40.6216V39.6917C114.438 35.8166 116.666 33.3127 120.118 33.3127H120.713C123.958 33.3127 125.537 35.0771 125.537 38.7068V39.1474C125.537 39.9191 125.374 41.0676 125.322 41.4114H119.378V41.7866C119.378 42.604 119.719 43.1484 121.385 43.1484C122.769 43.1484 124.335 42.7023 124.633 42.6158L124.897 42.7652C124.923 43.0799 125.045 44.5659 125.07 46.2462C124.753 46.4122 123.187 47.1548 120.661 47.1548ZM120.377 36.5435C119.878 36.5435 119.377 36.94 119.377 37.8258V39.1096H121.167V37.5158C121.168 36.8613 120.909 36.5435 120.377 36.5435ZM71.2312 47.1548C69.6799 47.1548 68.8995 46.3021 68.6352 45.9371L68.5998 45.8867H68.282L68.2466 45.9229C67.6283 46.5633 66.8393 47.1548 65.2533 47.1548C62.9862 47.1548 61.4632 45.6232 61.4632 43.3395V42.8219C61.4632 40.6192 62.9327 39.1537 65.3942 38.9035L68.1923 38.6069V38.4221C68.1923 37.5984 67.6149 37.3199 65.9 37.3199C64.3597 37.3199 63.0861 37.6079 62.817 37.6739L62.4536 37.4324C62.6526 35.3902 62.9287 33.964 62.9972 33.6305C63.3244 33.5652 64.7027 33.3127 66.5458 33.3127C71.1612 33.3127 73.1302 34.8254 73.1302 38.3709V42.1501C73.1302 42.368 73.1302 42.884 73.795 43.0186L74.3039 43.109L74.4731 43.5118C74.348 44.2583 73.9499 45.8875 73.8925 46.129C73.7517 46.2738 72.8289 47.1548 71.2312 47.1548ZM67.0784 41.2076C66.6568 41.3319 66.4027 41.741 66.4027 42.3035V42.6677C66.4027 43.1782 66.6922 43.511 67.1413 43.511C67.6133 43.511 68.1192 43.1664 68.1404 43.1531L68.1915 43.1161V40.8474L67.0784 41.2076ZM126.904 46.8433V33.6226H129.762L131.133 35.0709H131.3L131.336 35.0166C131.867 34.1929 132.575 33.3119 134.237 33.3119C134.483 33.3119 134.709 33.3339 134.836 33.3481L134.514 37.8793L134.046 38.1129C133.907 38.0736 133.48 37.9666 132.996 37.9666C132.272 37.9666 131.913 38.1806 131.899 38.19L131.842 38.2254V46.8418H126.904V46.8433ZM108.433 46.8433V38.0342C108.433 37.7683 108.33 37.3199 107.641 37.3199C107.233 37.3199 106.859 37.4781 106.844 37.4844L106.771 37.5158V46.8433H101.833V38.0342C101.833 37.7683 101.73 37.3199 101.042 37.3199C100.633 37.3199 100.261 37.4781 100.245 37.4844L100.171 37.5158V46.8433H95.2332V33.6226H98.0927L99.6244 35.2101L99.7093 35.1086C100.477 34.1748 101.434 33.3119 103.241 33.3119C104.523 33.3119 105.629 33.8956 106.272 34.9135L106.356 35.0488L106.462 34.9285C107.157 34.1292 108.103 33.3119 109.839 33.3119C111.986 33.3119 113.371 34.7585 113.371 36.999V46.8433H108.433ZM88.6307 46.8433V38.0342C88.6307 37.5795 88.3436 37.3199 87.8393 37.3199C87.4303 37.3199 87.0582 37.4781 87.0424 37.4844L86.9701 37.5158V46.8433H82.0306V38.0342C82.0306 37.7683 81.9291 37.3199 81.2392 37.3199C80.8301 37.3199 80.458 37.4781 80.4415 37.4844L80.3699 37.5158V46.8433H75.4312V33.6226H78.2908L79.8224 35.2101L79.9066 35.1086C80.6744 34.1748 81.6333 33.3119 83.4379 33.3119C84.7233 33.3119 85.8278 33.8956 86.4689 34.9135L86.5547 35.0488L86.6593 34.9285C87.3555 34.1292 88.3019 33.3119 90.0381 33.3119C92.1833 33.3119 93.5694 34.7585 93.5694 36.999V46.8433H88.6307ZM55.2642 46.8433V40.4517H53.2158V46.8433H48.2763V30H53.2158V36.4444H55.2642V30H60.2029V46.8433H55.2642ZM28.1801 46.8433V43.548C28.1801 41.811 28.4098 37.8981 28.413 37.8588L28.4193 37.762L27.9968 37.6566L27.9709 37.777C27.9622 37.8171 27.1401 41.767 26.8357 42.7361L25.8744 46.3281H24.2444L23.2847 42.7409C22.9787 41.7662 22.1566 37.8163 22.1472 37.7762L22.122 37.6558L21.7011 37.7613L21.7066 37.858C21.709 37.8981 21.9395 41.8102 21.9395 43.5472V46.8425H17V30H23.2595L24.5567 35.0355C24.7085 35.5916 24.8627 36.7685 24.8643 36.7811L24.8777 36.8833H25.2411L25.2553 36.7811C25.2561 36.7685 25.411 35.5916 25.5629 35.0362L26.8601 30H33.1196V46.8433H28.1801Z" fill="#002F48"/>
<path d="M38.5248 52.3303C36.9947 52.3303 35.9099 51.8882 35.6251 51.7576C35.8312 50.2048 36.0145 48.8729 36.0491 48.6251L36.4684 48.2279C36.6439 48.2538 37.1804 48.323 37.6185 48.323C38.3281 48.323 38.7663 48.0336 38.9236 47.4593L39.0613 46.8433H38.0182L34.0266 33.6226H38.9016L40.1186 37.9367L40.412 40.6106H40.9611L41.2301 37.9154L42.2662 33.6218H47.1695L43.2755 48.2239C42.5069 51.144 41.1302 52.3303 38.5248 52.3303ZM120.661 47.1548C116.53 47.1548 114.438 44.9585 114.438 40.6216V39.6917C114.438 35.8166 116.666 33.3127 120.118 33.3127H120.713C123.958 33.3127 125.537 35.0771 125.537 38.7068V39.1474C125.537 39.9191 125.374 41.0676 125.322 41.4114H119.378V41.7866C119.378 42.604 119.719 43.1484 121.385 43.1484C122.769 43.1484 124.335 42.7023 124.633 42.6158L124.897 42.7652C124.923 43.0799 125.045 44.5659 125.07 46.2462C124.753 46.4122 123.187 47.1548 120.661 47.1548ZM120.377 36.5435C119.878 36.5435 119.377 36.94 119.377 37.8258V39.1096H121.167V37.5158C121.168 36.8613 120.909 36.5435 120.377 36.5435ZM71.2312 47.1548C69.6799 47.1548 68.8995 46.3021 68.6352 45.9371L68.5998 45.8867H68.282L68.2466 45.9229C67.6283 46.5633 66.8393 47.1548 65.2533 47.1548C62.9862 47.1548 61.4632 45.6232 61.4632 43.3395V42.8219C61.4632 40.6192 62.9327 39.1537 65.3942 38.9035L68.1923 38.6069V38.4221C68.1923 37.5984 67.6149 37.3199 65.9 37.3199C64.3597 37.3199 63.0861 37.6079 62.817 37.6739L62.4536 37.4324C62.6526 35.3902 62.9287 33.964 62.9972 33.6305C63.3244 33.5652 64.7027 33.3127 66.5458 33.3127C71.1612 33.3127 73.1302 34.8254 73.1302 38.3709V42.1501C73.1302 42.368 73.1302 42.884 73.795 43.0186L74.3039 43.109L74.4731 43.5118C74.348 44.2583 73.9499 45.8875 73.8925 46.129C73.7517 46.2738 72.8289 47.1548 71.2312 47.1548ZM67.0784 41.2076C66.6568 41.3319 66.4027 41.741 66.4027 42.3035V42.6677C66.4027 43.1782 66.6922 43.511 67.1413 43.511C67.6133 43.511 68.1192 43.1664 68.1404 43.1531L68.1915 43.1161V40.8474L67.0784 41.2076ZM126.904 46.8433V33.6226H129.762L131.133 35.0709H131.3L131.336 35.0166C131.867 34.1929 132.575 33.3119 134.237 33.3119C134.483 33.3119 134.709 33.3339 134.836 33.3481L134.514 37.8793L134.046 38.1129C133.907 38.0736 133.48 37.9666 132.996 37.9666C132.272 37.9666 131.913 38.1806 131.899 38.19L131.842 38.2254V46.8418H126.904V46.8433ZM108.433 46.8433V38.0342C108.433 37.7683 108.33 37.3199 107.641 37.3199C107.233 37.3199 106.859 37.4781 106.844 37.4844L106.771 37.5158V46.8433H101.833V38.0342C101.833 37.7683 101.73 37.3199 101.042 37.3199C100.633 37.3199 100.261 37.4781 100.245 37.4844L100.171 37.5158V46.8433H95.2332V33.6226H98.0927L99.6244 35.2101L99.7093 35.1086C100.477 34.1748 101.434 33.3119 103.241 33.3119C104.523 33.3119 105.629 33.8956 106.272 34.9135L106.356 35.0488L106.462 34.9285C107.157 34.1292 108.103 33.3119 109.839 33.3119C111.986 33.3119 113.371 34.7585 113.371 36.999V46.8433H108.433ZM88.6307 46.8433V38.0342C88.6307 37.5795 88.3436 37.3199 87.8393 37.3199C87.4303 37.3199 87.0582 37.4781 87.0424 37.4844L86.9701 37.5158V46.8433H82.0306V38.0342C82.0306 37.7683 81.9291 37.3199 81.2392 37.3199C80.8301 37.3199 80.458 37.4781 80.4415 37.4844L80.3699 37.5158V46.8433H75.4312V33.6226H78.2908L79.8224 35.2101L79.9066 35.1086C80.6744 34.1748 81.6333 33.3119 83.4379 33.3119C84.7233 33.3119 85.8278 33.8956 86.4689 34.9135L86.5547 35.0488L86.6593 34.9285C87.3555 34.1292 88.3019 33.3119 90.0381 33.3119C92.1833 33.3119 93.5694 34.7585 93.5694 36.999V46.8433H88.6307ZM55.2642 46.8433V40.4517H53.2158V46.8433H48.2763V30H53.2158V36.4444H55.2642V30H60.2029V46.8433H55.2642ZM28.1801 46.8433V43.548C28.1801 41.811 28.4098 37.8981 28.413 37.8588L28.4193 37.762L27.9968 37.6566L27.9709 37.777C27.9622 37.8171 27.1401 41.767 26.8357 42.7361L25.8744 46.3281H24.2444L23.2847 42.7409C22.9787 41.7662 22.1566 37.8163 22.1472 37.7762L22.122 37.6558L21.7011 37.7613L21.7066 37.858C21.709 37.8981 21.9395 41.8102 21.9395 43.5472V46.8425H17V30H23.2595L24.5567 35.0355C24.7085 35.5916 24.8627 36.7685 24.8643 36.7811L24.8777 36.8833H25.2411L25.2553 36.7811C25.2561 36.7685 25.411 35.5916 25.5629 35.0362L26.8601 30H33.1196V46.8433H28.1801Z" fill="#002F48"/>
</svg>
