<svg width="150" height="76" viewBox="0 0 150 76" fill="none" xmlns="http://www.w3.org/2000/svg">
<g clip-path="url(#clip0_4255_159751)">
<path fill-rule="evenodd" clip-rule="evenodd" d="M85.4522 59.2857H75.4358V17H85.4522V59.2857ZM71.8589 38.1942C71.8589 47.8195 64.0541 55.6084 54.4387 55.6084C44.8225 55.6084 37.0049 47.8066 37.0049 38.1942C37.0049 28.5818 44.8096 20.7793 54.4251 20.7793C64.0413 20.7793 71.8589 28.5682 71.8589 38.1942ZM59.6957 38.1942C59.6963 37.5029 59.5605 36.8183 59.2962 36.1796C59.0318 35.5408 58.6441 34.9605 58.1551 34.4719C57.6662 33.9832 57.0856 33.5958 56.4467 33.3318C55.8078 33.0678 55.1232 32.9324 54.4319 32.9334C53.7406 32.9324 53.0559 33.0678 52.417 33.3318C51.7781 33.5958 51.1976 33.9832 50.7087 34.4719C50.2197 34.9605 49.832 35.5408 49.5676 36.1796C49.3032 36.8183 49.1675 37.5029 49.1681 38.1942C49.1676 38.8854 49.3034 39.5698 49.5677 40.2084C49.8321 40.847 50.2198 41.4272 50.7087 41.9158C51.1975 42.4044 51.7779 42.7917 52.4167 43.0557C53.0554 43.3197 53.74 43.4551 54.4311 43.4542C55.1224 43.4553 55.8071 43.3201 56.446 43.0562C57.085 42.7923 57.6656 42.4049 58.1546 41.9163C58.6436 41.4277 59.0314 40.8475 59.2959 40.2088C59.5603 39.5701 59.6962 38.8855 59.6957 38.1942ZM110.877 27.6228H104.22L100.311 31.5259L96.4027 27.622H89.7442V34.3877L93.6005 38.2388L89.7442 42.0905V48.7656H96.5062L100.323 44.9531L104.14 48.7656H110.902V42.0905L107.046 38.2395L110.902 34.3885V27.6228H110.877Z" fill="#002F34"/>
</g>
<defs>
<clipPath id="clip0_4255_159751">
<rect width="74" height="42.2857" fill="white" transform="translate(37 17)"/>
</clipPath>
</defs>
</svg>
