<svg width="150" height="76" viewBox="0 0 150 76" fill="none" xmlns="http://www.w3.org/2000/svg">
<path d="M68.9854 51.8931V53.4501C68.9854 53.5353 68.9267 53.5945 68.8275 53.5945H68.4595C68.4212 53.5939 68.3847 53.5784 68.3577 53.5514C68.3308 53.5245 68.3156 53.4881 68.3154 53.4501V49.1406C68.3154 49.0677 68.3809 48.9963 68.4601 48.9963H68.6236C68.6891 48.9963 68.729 49.0207 68.7553 49.0943L68.8337 49.2914C69.0938 49.0559 69.4343 48.9269 69.7864 48.9305C70.6206 48.9305 71.2175 49.6466 71.2175 50.5136C71.2175 51.4008 70.5878 52.1031 69.7603 52.1031C69.3661 52.1031 69.0377 51.9262 68.9854 51.8931ZM68.973 51.2556C68.973 51.2556 69.2682 51.4794 69.6763 51.4794C70.1686 51.4794 70.5628 51.0585 70.5628 50.5143C70.5628 49.975 70.2209 49.5541 69.7016 49.5541C69.2617 49.5541 68.9991 49.8891 68.973 49.9815V51.2556ZM71.7248 51.0919C71.7248 50.5332 72.1582 50.1131 72.94 50.1131C73.2556 50.1131 73.5508 50.2048 73.5508 50.2048C73.5632 49.7255 73.4454 49.509 73.0651 49.509C72.7167 49.509 72.3749 49.607 72.2179 49.6533C72.1255 49.6717 72.0667 49.6134 72.046 49.5282L71.9873 49.2785C71.9688 49.173 72.0152 49.1277 72.0853 49.101C72.1385 49.0826 72.5719 48.9306 73.1304 48.9306C74.1027 48.9306 74.1943 49.5145 74.1943 50.2703V51.8865C74.1929 51.9242 74.1773 51.9601 74.1505 51.9868C74.1237 52.0136 74.0877 52.0293 74.0497 52.031H73.833C73.7743 52.031 73.7415 52.0065 73.7087 51.9255L73.6358 51.7229C73.4723 51.8802 73.1697 52.1041 72.7035 52.1041C72.1319 52.1041 71.7248 51.7228 71.7248 51.0919ZM72.3684 51.0858C72.3684 51.355 72.5263 51.5651 72.8419 51.5651C73.1435 51.5651 73.4519 51.3487 73.5443 51.1977V50.6917C73.5051 50.6641 73.2686 50.5862 72.9923 50.5862C72.6382 50.5862 72.3684 50.7705 72.3684 51.0858ZM75.0875 51.8871V49.1411C75.0875 49.0681 75.153 48.9967 75.2321 48.9967H75.39C75.4205 48.9977 75.4497 49.0086 75.4733 49.0276C75.4969 49.0467 75.5136 49.0728 75.5208 49.1022L75.6067 49.378C75.7149 49.2384 75.8541 49.1254 76.0135 49.0479C76.1729 48.9704 76.3483 48.9304 76.5258 48.9312C76.8154 48.9312 77.176 49.0099 77.0779 49.2135L76.9199 49.5419C76.8807 49.6271 76.8021 49.6473 76.736 49.6148C76.6488 49.5776 76.5552 49.5572 76.4603 49.5548C76.0138 49.5548 75.7709 49.91 75.7439 49.9627V51.8871C75.7439 52.0186 75.659 52.0315 75.5338 52.0315H75.2321C75.1937 52.0311 75.1571 52.0157 75.13 51.9887C75.1029 51.9617 75.0877 51.9252 75.0875 51.8871ZM77.827 51.1977V49.5547H77.4786C77.4402 49.5543 77.4035 49.5389 77.3765 49.5119C77.3494 49.4849 77.3341 49.4484 77.3339 49.4104V49.1413C77.333 49.1221 77.3361 49.103 77.343 49.0851C77.35 49.0673 77.3606 49.051 77.3742 49.0374C77.3878 49.0238 77.4041 49.0133 77.4221 49.0063C77.4401 48.9993 77.4593 48.996 77.4786 48.9968H77.8261V48.1494C77.8261 48.0706 77.8917 48.005 77.9708 48.005H78.3453C78.4238 48.005 78.4835 48.07 78.4835 48.1494V48.9968H79.2849C79.3634 48.9968 79.4289 49.056 79.4289 49.1413V49.4104C79.4289 49.4833 79.3634 49.5547 79.2842 49.5547H78.4829V51.171C78.4829 51.4272 78.5818 51.4792 78.7264 51.4792C78.9171 51.4792 79.1009 51.4013 79.2121 51.3357C79.3045 51.283 79.3633 51.3357 79.3896 51.4007L79.5083 51.7097C79.541 51.789 79.5083 51.8411 79.4356 51.888C79.3114 51.9659 78.9564 52.1038 78.5949 52.1038C77.9906 52.1038 77.827 51.7362 77.827 51.1977ZM81.5044 50.5076C81.5044 49.6536 82.2003 48.9311 83.0549 48.9311C83.9021 48.9311 84.598 49.6528 84.598 50.5076C84.598 51.3753 83.9021 52.1035 83.0549 52.1035C82.2003 52.1035 81.5044 51.3745 81.5044 50.5076ZM82.148 50.5076C82.148 51.0663 82.5422 51.4799 83.0549 51.4799C83.5603 51.4799 83.9544 51.0663 83.9544 50.5076C83.9544 49.9626 83.5603 49.5547 83.0549 49.5547C82.5422 49.5547 82.148 49.9626 82.148 50.5076ZM85.5826 51.8871V49.6082H85.1893C85.1506 49.6078 85.1137 49.5922 85.0866 49.5649C85.0595 49.5376 85.0444 49.5007 85.0446 49.4624V49.1412C85.0437 49.122 85.0468 49.103 85.0537 49.0851C85.0606 49.0673 85.0712 49.051 85.0848 49.0374C85.0984 49.0238 85.1148 49.0132 85.1328 49.0062C85.1507 48.9992 85.17 48.996 85.1893 48.9968H85.5834V48.6481C85.5834 47.8339 85.9711 47.3668 86.7062 47.3668C87.1135 47.3668 87.4283 47.5452 87.5665 47.6693C87.6187 47.7156 87.6252 47.7943 87.5912 47.8403L87.4008 48.1163C87.3551 48.1892 87.2831 48.1956 87.2046 48.1438C87.0635 48.0419 86.8925 47.9886 86.718 47.992C86.3762 47.992 86.2388 48.2679 86.2388 48.649V48.9977H87.0991C87.1776 48.9977 87.2437 49.0568 87.2437 49.142V49.464C87.2437 49.5369 87.1782 49.6084 87.0991 49.6084H86.2388V51.888C86.2374 51.9257 86.2217 51.9615 86.1949 51.9882C86.1681 52.015 86.1321 52.0307 86.0941 52.0324H85.7261C85.6883 52.0306 85.6525 52.0148 85.6258 51.988C85.5991 51.9613 85.584 51.9247 85.5826 51.8871Z" fill="#141A26"/>
<path fill-rule="evenodd" clip-rule="evenodd" d="M106.105 47.3289C106.105 46.9843 106.383 46.7045 106.726 46.7045C107.07 46.7045 107.349 46.9843 107.349 47.3289C107.349 47.6736 107.069 47.9534 106.726 47.9534C106.644 47.9529 106.563 47.9362 106.487 47.9046C106.411 47.8729 106.343 47.8267 106.285 47.7688C106.227 47.7108 106.182 47.6421 106.151 47.5666C106.12 47.4911 106.104 47.4104 106.105 47.3289ZM95.8842 51.2127C95.3477 51.2127 94.9756 50.7869 94.9756 50.1779C94.9756 49.5696 95.3477 49.1439 95.8842 49.1439C96.4239 49.1439 96.8 49.5696 96.8 50.1779C96.8 50.7966 96.4321 51.2127 95.8842 51.2127ZM95.8842 48.2348C94.7499 48.2348 93.9264 49.0522 93.9264 50.1779C93.9264 51.3043 94.7499 52.1218 95.8842 52.1218C97.0233 52.1218 97.85 51.3043 97.85 50.1779C97.85 49.0522 97.0233 48.2348 95.8842 48.2348ZM104.898 50.2751C104.859 50.1991 104.809 50.129 104.749 50.0667L104.715 50.0302L104.751 49.9954C104.809 49.9345 104.861 49.8691 104.908 49.7998L105.909 48.3108H104.694L103.942 49.4754C103.899 49.5379 103.812 49.5695 103.684 49.5695H103.512V47.3677C103.512 46.9273 103.238 46.8673 102.942 46.8673H102.435V52.0648H103.512V50.5053H103.614C103.736 50.5053 103.82 50.5206 103.859 50.5865L104.453 51.7082C104.619 52.0122 104.784 52.065 105.096 52.065H105.921L105.306 51.0472L104.898 50.2751ZM110.126 48.2258C109.578 48.2258 109.229 48.4691 109.033 48.6751L108.968 48.7416L108.946 48.6515C108.889 48.4308 108.695 48.3092 108.403 48.3092H107.92L107.923 52.0632H108.993V50.3334C108.993 50.163 109.014 50.0172 109.06 49.8834C109.178 49.4779 109.511 49.2265 109.926 49.2265C110.26 49.2265 110.39 49.4024 110.39 49.8574V51.4923C110.39 51.8815 110.57 52.0632 110.958 52.0632H111.468L111.466 49.6757C111.466 48.7269 111.002 48.2258 110.126 48.2258ZM106.74 48.3109H106.233L106.237 51.2142V52.0641H106.777L106.796 52.0649L107.048 52.0641H107.298L107.302 48.881C107.302 48.4975 107.12 48.3109 106.74 48.3109ZM100.085 51.2126C99.5493 51.2126 99.1755 50.7868 99.1755 50.1778C99.1755 49.5695 99.5493 49.1438 100.085 49.1438C100.624 49.1438 101.001 49.5695 101.001 50.1778C101.001 50.7965 100.633 51.2126 100.085 51.2126ZM100.085 48.2347C98.949 48.2347 98.1255 49.0521 98.1255 50.1778C98.1255 51.3042 98.949 52.1217 100.085 52.1217C101.222 52.1217 102.051 51.3042 102.051 50.1778C102.051 49.0521 101.222 48.2347 100.085 48.2347ZM113.72 51.048C113.135 51.048 112.926 50.5371 112.926 50.0586C112.926 49.8486 112.98 49.1616 113.663 49.1616C114.003 49.1616 114.456 49.2591 114.456 50.0942C114.456 50.8825 114.055 51.048 113.72 51.048ZM115.012 48.3012C114.808 48.3012 114.652 48.3825 114.573 48.5299L114.542 48.5866L114.493 48.5443C114.32 48.3944 114.011 48.2175 113.508 48.2175C112.508 48.2175 111.835 48.9684 111.835 50.0867C111.835 51.2042 112.531 51.9844 113.528 51.9844C113.868 51.9844 114.137 51.905 114.351 51.7435L114.433 51.6809V51.7855C114.433 52.2875 114.11 52.564 113.522 52.564C113.235 52.564 112.976 52.4936 112.802 52.431C112.575 52.363 112.442 52.4188 112.351 52.6468L112.266 52.8577L112.145 53.1642L112.22 53.204C112.596 53.4036 113.086 53.5227 113.528 53.5227C114.439 53.5227 115.503 53.0564 115.503 51.7434L115.506 48.3009L115.012 48.3012ZM91.8999 51.1696H91.029V50.1275C91.029 49.9044 91.1149 49.7894 91.3053 49.7626H91.8998C92.3234 49.7626 92.5974 50.0301 92.5974 50.4624C92.5974 50.9068 92.3301 51.1696 91.8999 51.1696ZM91.029 48.3604V48.0864C91.029 47.847 91.1304 47.7328 91.3529 47.7182H91.7985C92.1812 47.7182 92.4094 47.9469 92.4094 48.3297C92.4094 48.6218 92.2533 48.9622 91.8124 48.9622H91.029V48.3604ZM93.0121 49.4001L92.8541 49.3108L92.9914 49.1941C93.1518 49.0562 93.4191 48.7481 93.4191 48.2129C93.4191 47.397 92.7853 46.8698 91.8056 46.8698H90.5594C90.4185 46.8753 90.2851 46.9344 90.187 47.0348C90.0889 47.1353 90.0337 47.2694 90.0327 47.4092V52.0455H91.8277C92.9178 52.0455 93.6211 51.4518 93.6211 50.533C93.6211 50.0383 93.3939 49.615 93.0121 49.4001ZM115.928 51.4826C115.928 51.1371 116.206 50.8582 116.55 50.8582C116.893 50.8582 117.173 51.1371 117.173 51.4826C117.173 51.8273 116.893 52.1071 116.55 52.1071C116.468 52.1066 116.386 52.09 116.311 52.0584C116.235 52.0267 116.166 51.9805 116.109 51.9225C116.051 51.8646 116.005 51.7959 115.974 51.7204C115.943 51.6449 115.928 51.5641 115.928 51.4826ZM123.014 51.2126C122.478 51.2126 122.104 50.7869 122.104 50.1779C122.104 49.5696 122.478 49.1439 123.014 49.1439C123.552 49.1439 123.93 49.5696 123.93 50.1779C123.93 50.7966 123.561 51.2126 123.014 51.2126ZM123.014 48.2348C121.878 48.2348 121.055 49.0522 121.055 50.1779C121.055 51.3043 121.878 52.1217 123.014 52.1217C124.152 52.1217 124.98 51.3043 124.98 50.1779C124.98 49.0522 124.152 48.2348 123.014 48.2348ZM129.758 48.2378C129.315 48.2378 128.886 48.4462 128.61 48.7941L128.533 48.8931L128.472 48.7828C128.273 48.4211 127.932 48.2378 127.458 48.2378C126.961 48.2378 126.628 48.5152 126.473 48.6806L126.371 48.79L126.333 48.6457C126.276 48.4382 126.091 48.3229 125.81 48.3229H125.36L125.357 52.0615H126.38V50.412C126.38 50.2676 126.398 50.1242 126.434 49.974C126.532 49.5758 126.799 49.1468 127.25 49.1898C127.528 49.2174 127.663 49.4307 127.663 49.8459V52.0623H128.692V50.412C128.692 50.2311 128.707 50.0956 128.749 49.9602C128.832 49.579 129.112 49.1898 129.547 49.1898C129.861 49.1898 129.978 49.3673 129.978 49.8459V51.5157C129.978 51.8936 130.146 52.0623 130.523 52.0623H131.004L131.005 49.6755C131.005 48.7218 130.584 48.2378 129.758 48.2378ZM120.465 50.7639C120.462 50.7669 120.022 51.231 119.443 51.231C118.916 51.231 118.383 50.9083 118.383 50.1857C118.383 49.5613 118.796 49.1257 119.388 49.1257C119.58 49.1257 119.797 49.1948 119.832 49.31L119.838 49.3314C119.86 49.4109 119.907 49.481 119.973 49.5308C120.039 49.5807 120.12 49.6076 120.203 49.6073L120.762 49.6081V49.1191C120.762 48.4735 119.941 48.2392 119.388 48.2392C118.207 48.2392 117.35 49.0615 117.35 50.1944C117.35 51.3273 118.198 52.1488 119.367 52.1488C120.381 52.1488 120.933 51.4823 120.938 51.4758L120.969 51.4393L120.526 50.7029L120.468 50.7655" fill="#141A26"/>
<path fill-rule="evenodd" clip-rule="evenodd" d="M9.40869 34.5042C9.40869 32.5579 10.9886 30.9797 12.9365 30.9797C14.8852 30.9797 16.4652 32.5579 16.4652 34.5042C16.4652 36.4513 14.8852 38.0295 12.9365 38.0295C10.9886 38.0295 9.40869 36.4522 9.40869 34.5042ZM34.191 38.0295C32.2423 38.0295 30.6632 36.4513 30.6632 34.5042C30.6632 32.5579 32.2423 30.9797 34.191 30.9797C36.139 30.9797 37.7196 32.5579 37.7196 34.5042C37.7196 36.4513 36.139 38.0295 34.191 38.0295ZM34.191 20.4055C26.3977 20.4055 20.0789 26.7181 20.0789 34.5042C20.0789 42.2919 26.3969 48.6038 34.191 48.6038C41.986 48.6038 48.304 42.2919 48.304 34.5042C48.304 26.7189 41.986 20.4055 34.191 20.4055Z" fill="#DA3743"/>
<path fill-rule="evenodd" clip-rule="evenodd" d="M135.057 33.4136C135.28 33.4136 135.412 33.3136 135.412 33.1328C135.412 32.9682 135.322 32.8603 135.073 32.8603H134.842V33.4134L135.057 33.4136ZM134.503 32.5807H135.13C135.477 32.5807 135.775 32.7211 135.775 33.1159C135.775 33.2132 135.747 33.3084 135.692 33.3893C135.638 33.4703 135.56 33.5333 135.47 33.5701L135.849 34.2553H135.47L135.179 33.6779H134.842V34.2553H134.503L134.503 32.5807ZM136.327 33.4379C136.327 32.6634 135.791 32.1103 135.098 32.1103C134.404 32.1103 133.876 32.6634 133.876 33.4379C133.876 34.2221 134.404 34.7573 135.098 34.7573C135.791 34.7573 136.327 34.2221 136.327 33.4379ZM133.546 33.4379C133.546 32.4728 134.247 31.8135 135.098 31.8135C135.956 31.8135 136.658 32.4728 136.658 33.4379C136.658 34.403 135.956 35.063 135.098 35.063C134.247 35.063 133.546 34.403 133.546 33.4379ZM123.189 40.0335C123.291 40.0325 123.388 39.9918 123.46 39.9202C123.532 39.8487 123.573 39.7519 123.575 39.6507V38.2356C123.574 38.1347 123.533 38.0381 123.462 37.9665C123.39 37.8949 123.293 37.854 123.191 37.8527H123.129C122.956 37.8527 122.784 37.6808 122.784 37.5073V29.1219C122.784 28.9306 122.591 28.739 122.4 28.739H120.989C120.798 28.739 120.607 28.9304 120.607 29.1219V38.4115L120.613 38.6531C120.613 39.3448 121.306 40.0358 121.997 40.0358L123.189 40.0335ZM61.0998 30.9539C63.0191 30.9539 64.6391 32.5782 64.6391 34.5042C64.6398 35.4363 64.2674 36.3305 63.6038 36.9906C62.9402 37.6506 62.0397 38.0225 61.0998 38.0247C59.1576 38.0247 57.5786 36.4473 57.5786 34.5042C57.5786 32.5466 59.1576 30.9539 61.0998 30.9539ZM61.0998 28.718C57.9245 28.718 55.3403 31.313 55.3403 34.5042C55.3403 37.7319 57.8688 40.2614 61.0998 40.2614C64.3398 40.2614 66.8773 37.7319 66.8773 34.5035C66.8773 31.3139 64.285 28.718 61.0998 28.718ZM107.06 37.7409C106.956 38.037 106.329 38.5932 105.615 38.5932C104.866 38.5932 104.448 38.1407 104.448 37.4619C104.448 36.7483 104.952 36.3136 105.876 36.3136C106.52 36.3136 107.06 36.5569 107.06 36.5569V37.7409ZM106.119 31.807C104.813 31.807 103.542 32.1371 103.368 32.2068C103.193 32.2586 103.036 32.398 103.106 32.6942L103.281 33.5992C103.315 33.8426 103.472 34.0339 103.733 33.9471C104.204 33.8076 105.266 33.6511 105.998 33.6511C106.851 33.6511 107.147 34.1385 107.112 35.1652C107.112 35.1652 106.381 34.9389 105.562 34.9389C103.524 34.9389 102.357 36.0353 102.357 37.4618C102.357 39.1851 103.472 40.211 105.074 40.211C105.542 40.2182 106.006 40.1326 106.44 39.9593C106.873 39.7861 107.268 39.5287 107.6 39.2022V39.6345C107.6 39.8438 107.774 40.0172 107.984 40.0172H108.125C108.141 40.0198 108.158 40.0209 108.174 40.0203H108.767C108.869 40.019 108.966 39.9783 109.038 39.9067C109.11 39.8351 109.15 39.7384 109.151 39.6375V35.3045C109.151 33.1116 108.627 31.807 106.119 31.807ZM91.4977 31.807C89.9554 31.807 89.2072 32.6333 88.9079 32.9666V32.3633C88.9072 32.2624 88.8667 32.1658 88.795 32.0942C88.7233 32.0226 88.6261 31.9818 88.5244 31.9805H87.6133C87.5115 31.9816 87.4143 32.0224 87.3425 32.094C87.2707 32.1656 87.2303 32.2623 87.2298 32.3633V39.6377C87.2334 39.7377 87.2749 39.8326 87.346 39.9036C87.4171 39.9745 87.5126 40.0163 87.6133 40.0205H88.9022C89.2857 40.0205 89.4075 39.9329 89.4075 39.6377V35.0436C89.5989 34.4864 90.1042 33.7906 91.1494 33.7906C92.1241 33.7906 92.542 34.4346 92.542 35.4783V39.6377C92.542 39.8462 92.717 40.0205 92.9264 40.0205H94.3362C94.437 40.0163 94.5324 39.9745 94.6035 39.9036C94.6746 39.8326 94.7161 39.7377 94.7197 39.6377V35.4783C94.7197 33.5295 94.0573 31.807 91.4977 31.807ZM72.3196 38.2283C71.3088 38.2283 70.6472 37.7758 70.6472 37.7758V34.9033C70.8215 34.4508 71.3791 33.7898 72.4242 33.7898C73.6779 33.7898 74.3223 34.8863 74.3223 36.0168C74.3223 37.148 73.6444 38.2283 72.3196 38.2283ZM72.7202 31.807C71.0651 31.807 70.1476 32.9342 70.0928 33.0048V32.3641C70.0924 32.2631 70.0519 32.1662 69.9802 32.0945C69.9084 32.0227 69.8112 31.9818 69.7093 31.9805H68.8531C68.7515 31.982 68.6545 32.0229 68.5829 32.0945C68.5114 32.166 68.4709 32.2625 68.4703 32.3633V42.9083C68.4737 43.0083 68.5151 43.1034 68.586 43.1745C68.6569 43.2456 68.7523 43.2875 68.8531 43.2919H70.2645C70.4558 43.2919 70.6472 43.0997 70.6472 42.9083V39.881C71.0128 40.0205 71.7798 40.2119 72.5804 40.2119C74.9846 40.2119 76.5695 38.3669 76.5695 36.0175C76.5695 33.5813 74.9143 31.807 72.7202 31.807ZM130.16 34.9908C130.126 34.2074 129.498 33.5984 128.61 33.5984C127.635 33.5984 127.007 34.1904 126.904 34.9908H130.16ZM128.663 31.8062C130.753 31.8062 132.355 33.3551 132.355 35.5302C132.355 35.6518 132.336 35.9299 132.321 36.0524C132.311 36.1485 132.267 36.2381 132.197 36.3049C132.126 36.3718 132.034 36.4117 131.937 36.4174H126.782C126.8 37.4092 127.618 38.2794 128.785 38.2794C129.586 38.2794 130.143 37.9833 130.509 37.6874C130.701 37.5307 130.91 37.5139 131.032 37.6874L131.71 38.5924C131.85 38.749 131.867 38.9411 131.676 39.1147C130.845 39.8292 129.78 40.219 128.68 40.211C126.276 40.211 124.604 38.2972 124.604 35.9997C124.604 33.7379 126.277 31.8062 128.663 31.8062ZM115.031 38.2283C113.986 38.2283 113.429 37.5665 113.254 37.114V34.2432C113.254 34.2432 113.917 33.7906 114.927 33.7906C116.251 33.7906 116.93 34.8692 116.93 36.0006C116.93 37.1319 116.285 38.2283 115.031 38.2283ZM115.223 31.807C114.421 31.807 113.62 31.9983 113.254 32.1549V29.0919C113.251 28.9919 113.209 28.897 113.138 28.826C113.067 28.7551 112.971 28.7133 112.871 28.7091H111.46C111.269 28.7091 111.077 28.9004 111.077 29.0919V39.6377C111.081 39.7376 111.122 39.8324 111.193 39.9033C111.264 39.9742 111.359 40.0161 111.46 40.0205H112.07C112.083 40.0205 112.092 40.0205 112.105 40.0174H112.268C112.37 40.0166 112.468 39.976 112.54 39.9043C112.612 39.8327 112.652 39.7358 112.653 39.6347V39.0402L112.662 39.0095C112.662 39.0095 113.587 40.2097 115.345 40.2097C117.54 40.2097 119.125 38.2959 119.125 35.9993C119.125 33.6499 117.609 31.807 115.223 31.807ZM102.899 28.7091H94.7065C94.6629 28.7093 94.6199 28.718 94.5797 28.7347C94.5395 28.7515 94.503 28.7759 94.4723 28.8067C94.4417 28.8374 94.4173 28.8738 94.4008 28.9139C94.3844 28.9539 94.376 28.9967 94.3762 29.04V30.4673C94.3762 30.6408 94.5153 30.7974 94.7065 30.7974H97.6619V39.6897C97.6644 39.7762 97.7 39.8586 97.7616 39.92C97.8231 39.9815 97.9059 40.0175 97.9932 40.0205H99.6123C99.6998 40.0177 99.7828 39.9818 99.8445 39.9203C99.9062 39.8588 99.9419 39.7764 99.9444 39.6897V30.7974H102.899C102.943 30.7973 102.986 30.7885 103.026 30.7718C103.066 30.7551 103.103 30.7307 103.134 30.7C103.165 30.6693 103.189 30.6329 103.205 30.5928C103.222 30.5527 103.23 30.5097 103.23 30.4664V29.04C103.23 28.9966 103.222 28.9538 103.205 28.9137C103.189 28.8736 103.165 28.8371 103.134 28.8064C103.103 28.7757 103.066 28.7512 103.026 28.7345C102.986 28.7179 102.943 28.7092 102.899 28.7091ZM83.3969 34.9908C83.3617 34.2074 82.7345 33.5984 81.8464 33.5984C80.8717 33.5984 80.2436 34.1904 80.1397 34.9908H83.3969ZM81.8988 31.8062C83.989 31.8062 85.591 33.3551 85.591 35.5302C85.591 35.6518 85.5755 35.9299 85.5567 36.0524C85.5468 36.1484 85.5028 36.2379 85.4325 36.3048C85.3623 36.3716 85.2703 36.4115 85.1731 36.4174H80.0179C80.0365 37.4092 80.8537 38.2794 82.0214 38.2794C82.8228 38.2794 83.379 37.9833 83.7453 37.6874C83.9366 37.5307 84.146 37.5139 84.2679 37.6874L84.9466 38.5924C85.0863 38.749 85.1036 38.9411 84.9123 39.1147C84.0812 39.8292 83.016 40.219 81.916 40.211C79.5126 40.211 77.8411 38.2972 77.8411 35.9997C77.8411 33.7379 79.5125 31.8062 81.8988 31.8062Z" fill="#141A26"/>
</svg>
