<svg width="150" height="76" viewBox="0 0 150 76" fill="none" xmlns="http://www.w3.org/2000/svg">
<rect width="103.281" height="37.72" transform="translate(23.4902 19.64)" fill="#3874CB"/>
<path d="M30.1685 26.1604V25.6228H34.7639C36.5181 25.6228 37.6546 25.6961 38.1735 25.8427C38.9888 26.0627 39.6806 26.5026 40.2242 27.2113C40.7677 27.92 41.0394 28.8242 41.0394 29.9484C41.0394 30.8037 40.8912 31.5369 40.57 32.1234C40.2488 32.7099 39.8535 33.1742 39.3594 33.5164C38.8652 33.8585 38.3711 34.0785 37.877 34.1762C37.1852 34.2984 36.1969 34.3717 34.9122 34.3717H33.0344V39.6749H30.1685V26.1604ZM33.0344 27.9933V31.9768H34.6157C35.7522 31.9768 36.4934 31.9034 36.8887 31.7568C37.2593 31.6102 37.5805 31.3902 37.7781 31.0725C38.0005 30.7549 38.0993 30.3883 38.0993 29.9728C38.0993 29.4596 37.9511 29.0442 37.6546 28.702C37.3581 28.3599 36.9628 28.1644 36.4934 28.0666C36.1475 27.9933 35.4557 27.9689 34.418 27.9689H33.0344V27.9933Z" fill="white"/>
<path d="M42.917 39.6749V25.6228H48.9455C50.4526 25.6228 51.5644 25.745 52.2562 25.9894C52.9479 26.2338 53.4915 26.6981 53.9115 27.3335C54.3315 27.9689 54.5292 28.7265 54.5292 29.5574C54.5292 30.6082 54.208 31.488 53.5903 32.1723C52.9727 32.8565 52.0338 33.2965 50.7737 33.4675C51.3914 33.8341 51.9103 34.2251 52.3056 34.6405C52.7009 35.0805 53.2444 35.838 53.9363 36.9133L55.6657 39.6504H52.2562L50.1808 36.6201C49.4396 35.5203 48.9455 34.8361 48.6737 34.5428C48.4019 34.2495 48.1054 34.054 47.809 33.9562C47.5125 33.8585 47.0183 33.8097 46.3759 33.8097H45.783V39.6749H42.917ZM45.783 31.5613H47.9078C49.2914 31.5613 50.1314 31.5125 50.4773 31.3902C50.8232 31.2681 51.0949 31.0725 51.2926 30.8037C51.4903 30.5105 51.5891 30.1683 51.5891 29.7529C51.5891 29.2885 51.4656 28.8975 51.2185 28.6043C50.9714 28.311 50.6008 28.1399 50.1314 28.0422C49.909 28.0178 49.1925 27.9933 48.0313 27.9933H45.783V31.5613Z" fill="white"/>
<path d="M56.6543 39.6749V25.6228H59.5203V39.6749H56.6543Z" fill="white"/>
<path d="M70.8602 34.4939L73.652 35.3736C73.232 36.9133 72.5155 38.0375 71.5273 38.795C70.539 39.5282 69.2789 39.9192 67.7471 39.9192C65.8694 39.9192 64.3129 39.2838 63.1023 38.013C61.8916 36.7422 61.2739 34.9827 61.2739 32.7832C61.2739 30.4371 61.8916 28.6287 63.1023 27.3335C64.3129 26.0382 65.9188 25.4028 67.9201 25.4028C69.6496 25.4028 71.0578 25.916 72.1449 26.918C72.7873 27.529 73.2815 28.3843 73.6026 29.5085L70.7614 30.1683C70.5884 29.4352 70.2425 28.8731 69.699 28.4332C69.1554 28.0177 68.5131 27.7978 67.7471 27.7978C66.6847 27.7978 65.8447 28.1644 65.1776 28.9219C64.5105 29.6795 64.1894 30.877 64.1894 32.5632C64.1894 34.3472 64.5105 35.5936 65.1529 36.3512C65.7953 37.1088 66.6353 37.4754 67.673 37.4754C68.4389 37.4754 69.0813 37.231 69.6496 36.7667C70.2178 36.2779 70.6131 35.5447 70.8602 34.4939Z" fill="white"/>
<path d="M75.604 39.6749V25.6228H86.1289V27.9933H78.47V31.097H85.6104V33.4675H78.47V37.3043H86.4007V39.6749H75.604Z" fill="white"/>
<path d="M88.3286 39.6752V36.9869H91.0462V39.6752H88.3286Z" fill="white"/>
<path d="M93.3438 25.6228H96.2097V33.2231C96.2097 34.4206 96.2346 35.2026 96.3087 35.5692C96.4321 36.1557 96.7287 36.5956 97.198 36.9622C97.6672 37.3043 98.2853 37.4754 99.1005 37.4754C99.9156 37.4754 100.533 37.3043 100.953 36.9866C101.374 36.6689 101.621 36.2534 101.695 35.7647C101.769 35.2759 101.818 34.4939 101.818 33.3697V25.6228H104.684V33.0032C104.684 34.6894 104.61 35.8869 104.462 36.5712C104.314 37.2799 104.017 37.8664 103.597 38.3307C103.177 38.8195 102.634 39.1861 101.917 39.4793C101.225 39.7726 100.311 39.8948 99.1746 39.8948C97.8155 39.8948 96.778 39.7481 96.0863 39.4305C95.3945 39.1128 94.8262 38.7217 94.4306 38.233C94.0355 37.7442 93.7638 37.2066 93.6155 36.6689C93.4179 35.8625 93.3438 34.665 93.3438 33.1009V25.6228Z" fill="white"/>
<path d="M120.027 39.6749H116.89L115.654 36.4734H109.972L108.811 39.6749H105.771L111.306 25.6228H114.345L120.027 39.6749ZM114.74 34.1029L112.788 28.8975L110.861 34.1029H114.74Z" fill="white"/>
<path d="M34.0482 45.8574C34.0482 46.193 33.9355 46.4676 33.7101 46.6812C33.4871 46.8947 33.1775 47.0308 32.7813 47.0895V47.1106C33.2368 47.1646 33.5832 47.2984 33.8204 47.5119C34.0601 47.7231 34.1799 48.0001 34.1799 48.3427C34.1799 48.8214 33.9901 49.1957 33.6105 49.4656C33.2332 49.7355 32.7113 49.8704 32.0446 49.8704C31.3518 49.8704 30.7978 49.7777 30.3826 49.5923V48.8566C30.6127 48.9645 30.8702 49.0479 31.1549 49.1066C31.442 49.1652 31.7041 49.1945 31.9414 49.1945C32.8548 49.1945 33.3115 48.8988 33.3115 48.3075C33.3115 48.0352 33.1739 47.8275 32.8987 47.6844C32.6259 47.5412 32.2202 47.4697 31.6816 47.4697H31.0552V46.7938H31.6424C32.6792 46.7938 33.1976 46.5204 33.1976 45.9736C33.1976 45.7554 33.1087 45.5828 32.9307 45.4561C32.7552 45.3294 32.5084 45.266 32.1905 45.266C31.939 45.266 31.6994 45.2989 31.4716 45.3646C31.2438 45.4303 31.0078 45.5418 30.7634 45.699L30.3755 45.1287C30.9093 44.7626 31.538 44.5796 32.2617 44.5796C32.8121 44.5796 33.2475 44.6958 33.5678 44.9281C33.8881 45.1604 34.0482 45.4702 34.0482 45.8574Z" fill="white"/>
<path d="M35.9736 45.9067V47.4697H37.8277V45.9067H38.664V49.8001H37.8277V48.121H35.9736V49.8001H35.1372V45.9067H35.9736Z" fill="white"/>
<path d="M42.3263 49.8L42.159 49.2579H42.1305C41.9407 49.4949 41.7497 49.6569 41.5575 49.7437C41.3654 49.8282 41.1186 49.8704 40.8173 49.8704C40.4306 49.8704 40.1281 49.7671 39.9098 49.5606C39.6939 49.3541 39.5859 49.0619 39.5859 48.6841C39.5859 48.2828 39.7366 47.9801 40.0379 47.7759C40.3393 47.5717 40.7983 47.4603 41.4152 47.4415L42.095 47.4204V47.2127C42.095 46.9639 42.0357 46.7786 41.917 46.6565C41.8008 46.5321 41.6192 46.4699 41.3725 46.4699C41.1708 46.4699 40.9775 46.4993 40.7924 46.558C40.6074 46.6166 40.4294 46.6858 40.2586 46.7656L39.9881 46.1743C40.2016 46.0639 40.4353 45.9806 40.6892 45.9243C40.943 45.8656 41.1827 45.8363 41.4081 45.8363C41.9087 45.8363 42.286 45.9443 42.5398 46.1602C42.7961 46.3761 42.9242 46.7152 42.9242 47.1775V49.8H42.3263ZM41.0807 49.2368C41.3843 49.2368 41.6276 49.1535 41.8102 48.9869C41.9953 48.8179 42.0878 48.5821 42.0878 48.2793V47.9414L41.5825 47.9625C41.1886 47.9766 40.9015 48.0423 40.7212 48.1596C40.5433 48.2746 40.4543 48.4518 40.4543 48.6912C40.4543 48.8649 40.5065 48.9998 40.6109 49.096C40.7153 49.1899 40.8719 49.2368 41.0807 49.2368Z" fill="white"/>
<path d="M44.892 45.9067V47.9027C44.892 48.135 44.8731 48.4765 44.8351 48.9271L46.8102 45.9067H47.8317V49.8001H47.0273V47.8393C47.0273 47.7313 47.0333 47.5565 47.0451 47.3148C47.0594 47.0731 47.0713 46.8971 47.0807 46.7868L45.1127 49.8001H44.0913V45.9067H44.892ZM45.9348 45.4315C45.4318 45.4315 45.0629 45.3423 44.828 45.164C44.5955 44.9833 44.4661 44.6829 44.4401 44.2628H45.1981C45.2124 44.4318 45.2443 44.5632 45.2942 44.6571C45.3464 44.7509 45.4199 44.819 45.5148 44.8613C45.6121 44.9011 45.7592 44.9211 45.9561 44.9211C46.1887 44.9211 46.3654 44.8706 46.4864 44.7697C46.6074 44.6665 46.681 44.4975 46.7071 44.2628H47.4793C47.4437 44.6665 47.3002 44.9622 47.0487 45.1499C46.7972 45.3376 46.4259 45.4315 45.9348 45.4315Z" fill="white"/>
<path d="M52.7995 51.1764H52.0202V49.8001H49.3226V51.1764H48.5503V49.1594H48.8706C49.1505 48.7628 49.3724 48.284 49.5361 47.7232C49.7022 47.1599 49.8006 46.5545 49.8315 45.9067H52.223V49.1594H52.7995V51.1764ZM51.4009 49.1594V46.5404H50.5539C50.5088 47.0238 50.4139 47.5002 50.2692 47.9696C50.1268 48.4389 49.9525 48.8355 49.746 49.1594H51.4009Z" fill="white"/>
<path d="M54.33 45.9067V47.9027C54.33 48.135 54.3111 48.4765 54.2731 48.9271L56.2482 45.9067H57.2696V49.8001H56.4653V47.8393C56.4653 47.7313 56.4713 47.5565 56.4831 47.3148C56.4974 47.0731 56.5092 46.8971 56.5187 46.7868L54.5507 49.8001H53.5293V45.9067H54.33Z" fill="white"/>
<path d="M59.1844 48.237H58.5652L58.3801 44.6534H59.3659L59.1844 48.237ZM58.3374 49.3599C58.3374 49.1863 58.3837 49.0548 58.4762 48.9657C58.5688 48.8742 58.7004 48.8284 58.8712 48.8284C59.0397 48.8284 59.169 48.8753 59.2591 48.9692C59.3493 49.0631 59.3944 49.1933 59.3944 49.3599C59.3944 49.5266 59.3481 49.6591 59.2556 49.7577C59.1654 49.8539 59.0373 49.902 58.8712 49.902C58.7028 49.902 58.5711 49.8551 58.4762 49.7612C58.3837 49.6674 58.3374 49.5336 58.3374 49.3599Z" fill="white"/>
<path d="M66.4586 49.8H65.6045V45.3751H63.3091V49.8H62.4585V44.6534H66.4586V49.8Z" fill="white"/>
<path d="M71.2344 47.8463C71.2344 48.4823 71.0695 48.9786 70.7397 49.3354C70.4099 49.6921 69.9509 49.8704 69.3624 49.8704C68.9947 49.8704 68.6697 49.7883 68.3873 49.624C68.105 49.4597 67.8879 49.2239 67.736 48.9165C67.5842 48.609 67.5083 48.2523 67.5083 47.8463C67.5083 47.2151 67.672 46.7222 67.9994 46.3678C68.3268 46.0135 68.7883 45.8363 69.3838 45.8363C69.9532 45.8363 70.404 46.0182 70.7362 46.3819C71.0683 46.7434 71.2344 47.2315 71.2344 47.8463ZM68.3695 47.8463C68.3695 48.7451 68.7052 49.1945 69.3767 49.1945C70.041 49.1945 70.3732 48.7451 70.3732 47.8463C70.3732 46.9569 70.0386 46.5122 69.3696 46.5122C69.0184 46.5122 68.7633 46.6272 68.6044 46.8572C68.4478 47.0871 68.3695 47.4169 68.3695 47.8463Z" fill="white"/>
<path d="M74.1957 49.8704C73.6975 49.8704 73.3108 49.6932 73.0355 49.3389H72.9857C73.019 49.6675 73.0355 49.8669 73.0355 49.9373V51.532H72.1992V45.9067H72.8754C72.8944 45.9795 72.9335 46.1532 72.9928 46.4277H73.0355C73.2965 46.0334 73.688 45.8363 74.21 45.8363C74.7011 45.8363 75.0831 46.0123 75.3559 46.3643C75.6312 46.7164 75.7688 47.2104 75.7688 47.8463C75.7688 48.4823 75.6288 48.9786 75.3488 49.3354C75.0712 49.6921 74.6869 49.8704 74.1957 49.8704ZM73.9929 46.5122C73.6607 46.5122 73.4176 46.6084 73.2633 46.8008C73.1115 46.9933 73.0355 47.3007 73.0355 47.7231V47.8463C73.0355 48.3204 73.1115 48.6642 73.2633 48.8777C73.4152 49.089 73.6631 49.1945 74.0071 49.1945C74.2966 49.1945 74.5196 49.0772 74.6762 48.8425C74.8328 48.6079 74.9111 48.2734 74.9111 47.8393C74.9111 47.4028 74.8328 47.073 74.6762 46.8501C74.522 46.6248 74.2942 46.5122 73.9929 46.5122Z" fill="white"/>
<path d="M77.5761 49.8001H76.7397V45.9067H77.5761V49.8001ZM76.6899 44.8754C76.6899 44.7275 76.7302 44.6137 76.8109 44.5339C76.894 44.4541 77.0114 44.4142 77.1632 44.4142C77.3104 44.4142 77.4242 44.4541 77.5049 44.5339C77.588 44.6137 77.6295 44.7275 77.6295 44.8754C77.6295 45.0161 77.588 45.1276 77.5049 45.2098C77.4242 45.2896 77.3104 45.3294 77.1632 45.3294C77.0114 45.3294 76.894 45.2896 76.8109 45.2098C76.7302 45.1276 76.6899 45.0161 76.6899 44.8754Z" fill="white"/>
<path d="M82.1924 46.903C82.1924 47.3629 81.9207 47.641 81.3774 47.7372V47.7654C81.6811 47.8006 81.9136 47.8956 82.0749 48.0505C82.2363 48.2054 82.3169 48.4061 82.3169 48.6525C82.3169 49.0209 82.1746 49.3049 81.8899 49.5043C81.6075 49.7015 81.1959 49.8001 80.655 49.8001H78.7759V45.9067H80.6478C81.6775 45.9067 82.1924 46.2388 82.1924 46.903ZM81.4592 48.6032C81.4592 48.4154 81.3857 48.2828 81.2386 48.2054C81.0915 48.1256 80.8708 48.0857 80.5766 48.0857H79.6122V49.1875H80.598C81.1722 49.1875 81.4592 48.9928 81.4592 48.6032ZM81.356 46.9734C81.356 46.8185 81.2943 46.707 81.171 46.6389C81.05 46.5685 80.8685 46.5333 80.6265 46.5333H79.6122V47.4697H80.5019C80.7819 47.4697 80.9942 47.4345 81.1389 47.3641C81.2836 47.2913 81.356 47.1611 81.356 46.9734Z" fill="white"/>
<path d="M84.018 45.9067V47.4697H85.8722V45.9067H86.7085V49.8001H85.8722V48.121H84.018V49.8001H83.1816V45.9067H84.018Z" fill="white"/>
<path d="M88.3099 49.8001H87.374L88.4704 48.2054C88.2045 48.1303 87.9958 47.9965 87.8438 47.8041C87.6923 47.6093 87.6161 47.3688 87.6161 47.0825C87.6161 46.714 87.749 46.4265 88.0149 46.22C88.2802 46.0112 88.6436 45.9067 89.1038 45.9067H90.8972V49.8001H90.0577V48.3004H89.2638L88.3099 49.8001ZM88.4312 47.0895C88.4312 47.289 88.5069 47.4392 88.6589 47.5401C88.8131 47.6387 89.0196 47.688 89.2781 47.688H90.0577V46.5333H89.1467C88.9185 46.5333 88.7421 46.5815 88.616 46.6776C88.4926 46.7739 88.4312 46.9112 88.4312 47.0895Z" fill="white"/>
<path d="M92.8936 45.9067V47.9027C92.8936 48.135 92.8745 48.4765 92.8364 48.9271L94.812 45.9067H95.8331V49.8001H95.0291V47.8393C95.0291 47.7313 95.0349 47.5565 95.0466 47.3148C95.0609 47.0731 95.0726 46.8971 95.0821 46.7868L93.1145 49.8001H92.0928V45.9067H92.8936ZM93.9365 45.4315C93.4333 45.4315 93.0641 45.3423 92.8295 45.164C92.597 44.9833 92.4678 44.6829 92.4418 44.2628H93.1997C93.214 44.4318 93.2458 44.5632 93.2956 44.6571C93.348 44.7509 93.4217 44.819 93.5165 44.8613C93.6134 44.9011 93.7606 44.9211 93.9577 44.9211C94.1902 44.9211 94.3671 44.8706 94.4878 44.7697C94.6091 44.6665 94.6827 44.4975 94.7087 44.2628H95.4809C95.4454 44.6665 95.3019 44.9622 95.0503 45.1499C94.7987 45.3376 94.4275 45.4315 93.9365 45.4315Z" fill="white"/>
<path d="M97.7478 48.237H97.1286L96.9438 44.6534H97.9295L97.7478 48.237ZM96.9009 49.3599C96.9009 49.1863 96.947 49.0548 97.0396 48.9657C97.1323 48.8742 97.2637 48.8284 97.4348 48.8284C97.6032 48.8284 97.7324 48.8753 97.8225 48.9692C97.9125 49.0631 97.9581 49.1933 97.9581 49.3599C97.9581 49.5266 97.9114 49.6591 97.8188 49.7577C97.7287 49.8539 97.6005 49.902 97.4348 49.902C97.2663 49.902 97.1345 49.8551 97.0396 49.7612C96.947 49.6674 96.9009 49.5336 96.9009 49.3599Z" fill="white"/>
<path d="M105.015 49.8H104.015L101.873 47.1915V49.8H101.022V44.6534H101.873V47.1457L103.98 44.6534H104.912L102.812 47.1387L105.015 49.8Z" fill="white"/>
<path d="M105.019 45.9067H105.93L106.731 48.1139C106.852 48.4284 106.932 48.7241 106.972 49.001H107.001C107.023 48.8719 107.061 48.7158 107.119 48.5328C107.175 48.3474 107.477 47.4721 108.023 45.9067H108.926L107.243 50.3175C106.937 51.1271 106.427 51.532 105.713 51.532C105.528 51.532 105.347 51.512 105.172 51.4721V50.8174C105.298 50.8455 105.441 50.8596 105.603 50.8596C106.006 50.8596 106.289 50.6284 106.453 50.1662L106.599 49.8001L105.019 45.9067Z" fill="white"/>
<path d="M112.966 45.9067V49.8001H112.126V46.5615H110.36V49.8001H109.524V45.9067H112.966Z" fill="white"/>
<path d="M114.966 45.9067V47.9027C114.966 48.135 114.947 48.4765 114.909 48.9271L116.884 45.9067H117.905V49.8001H117.101V47.8393C117.101 47.7313 117.107 47.5565 117.119 47.3148C117.133 47.0731 117.145 46.8971 117.154 46.7868L115.187 49.8001H114.165V45.9067H114.966Z" fill="white"/>
<path d="M119.82 48.237H119.2L119.016 44.6534H120.001L119.82 48.237ZM118.973 49.3599C118.973 49.1863 119.019 49.0548 119.111 48.9657C119.204 48.8742 119.335 48.8284 119.507 48.8284C119.675 48.8284 119.804 48.8753 119.894 48.9692C119.984 49.0631 120.03 49.1933 120.03 49.3599C120.03 49.5266 119.983 49.6591 119.891 49.7577C119.8 49.8539 119.672 49.902 119.507 49.902C119.338 49.902 119.206 49.8551 119.111 49.7612C119.019 49.6674 118.973 49.5336 118.973 49.3599Z" fill="white"/>
</svg>
