<svg width="150" height="76" viewBox="0 0 150 76" fill="none" xmlns="http://www.w3.org/2000/svg">
<g clip-path="url(#clip0_4255_159740)">
<path d="M30.2478 38.2134C30.2222 44.3801 24.9863 49.3529 18.5728 49.3282C12.1591 49.3036 6.97449 44.2816 7.00009 38.1149C7.0257 31.9482 12.2615 26.9755 18.6751 27.0001C25.1015 27.0247 30.2734 32.0467 30.2478 38.2134Z" fill="#221F1F"/>
<path d="M22.8104 43.6908C21.5814 45.8079 20.058 47.5434 18.3554 47.5065C17.2928 47.4819 16.2815 47.1003 15.3598 46.4972C15.6543 45.9802 17.5105 43.3954 22.8104 43.6908ZM29.9408 38.2134C29.9152 44.2077 24.8202 49.0574 18.573 49.0205C12.3258 48.9959 7.30762 44.1093 7.30762 38.1149C7.30762 34.2253 9.33027 31.4312 11.2505 29.9295C13.606 28.0955 15.2062 29.4987 15.7695 30.5696C15.7054 30.1142 15.5134 28.8094 14.9885 27.874C16.1407 27.4924 17.3825 27.2831 18.6754 27.2954C24.9226 27.3324 29.9664 32.2067 29.9408 38.2134ZM18.0225 31.9605C19.6612 30.8896 22.4903 30.2988 23.9881 32.539C23.0792 27.4185 19.1491 30.3603 18.0225 31.9605ZM15.7439 36.7978C16.0895 36.4286 16.4864 36.0593 16.9472 35.727C18.9954 34.213 21.2358 33.8314 21.9655 34.8899C22.2471 35.2962 22.2598 35.8623 22.0422 36.4778C22.7719 35.3208 23.0023 34.2499 22.5543 33.6591C21.799 32.6744 19.4563 33.3514 17.3185 35.1731C16.6912 35.6777 16.1663 36.2439 15.7439 36.7978ZM12.1722 37.7087C13.2092 37.8933 14.3357 36.6255 14.6814 34.853C15.027 33.0806 14.4765 31.505 13.4396 31.3081C12.4026 31.1235 11.2761 32.3913 10.9305 34.1638C10.5848 35.9239 11.1353 37.5117 12.1722 37.7087ZM26.5868 35.5669C16.6656 41.9553 9.81673 38.718 9.81673 38.718C9.71432 40.9336 13.67 47.7404 18.381 47.8265C23.1048 47.9127 26.5868 35.5669 26.5868 35.5669ZM11.2121 34.2007C11.5321 32.5759 12.5051 31.3943 13.3884 31.5666C14.2717 31.7266 14.7325 33.179 14.4253 34.8038C14.1053 36.4286 13.1323 37.6102 12.249 37.4379C11.3529 37.2779 10.8921 35.8254 11.2121 34.2007ZM13.094 35.5793C13.4908 35.6654 13.926 35.1977 14.0797 34.5453C14.2333 33.893 14.0284 33.2898 13.6316 33.216C13.3628 33.1544 13.0811 33.3514 12.8763 33.6837C13.0555 33.7698 13.1451 33.9915 13.0555 34.1761C12.9787 34.3484 12.7995 34.4346 12.6203 34.3976C12.5435 34.9761 12.7355 35.4931 13.094 35.5793Z" fill="#05BC52"/>
<path fill-rule="evenodd" clip-rule="evenodd" d="M55.0972 38.2257C55.0972 34.2376 58.1986 32.3544 63.1509 32.3544C68.128 32.3544 71.2169 34.2499 71.2169 38.2257C71.2169 42.2014 68.128 44.1093 63.1509 44.1093C58.1861 44.1093 55.0972 42.2137 55.0972 38.2257ZM59.1615 38.2134C59.1615 40.3305 60.6747 41.1675 63.1509 41.1675C65.6143 41.1675 67.1528 40.3428 67.1528 38.2134C67.1528 36.0839 65.6143 35.2716 63.1509 35.2716C60.6747 35.2716 59.1615 36.0839 59.1615 38.2134Z" fill="#221F1F"/>
<path d="M84.5109 34.6193V32.6252H71.9547V35.4932H78.7082L71.855 41.8322V43.814H84.5483V40.9337H77.7324L84.5109 34.6193Z" fill="#221F1F"/>
<path d="M96.5662 39.3336H89.9005V41.0445H97.9795V43.814H86.1616V32.6252H97.704V35.444H89.9005V37.0934H96.5662V39.3336Z" fill="#221F1F"/>
<path d="M98.9424 35.4932H103.657V43.814H107.534V35.4932H112.249V32.6252H98.9424V35.4932Z" fill="#221F1F"/>
<path fill-rule="evenodd" clip-rule="evenodd" d="M137.71 32.6252H132.658L127.355 43.814H131.582L132.495 41.623H137.848L138.761 43.814H143L137.71 32.6252ZM133.433 39.3828L135.184 35.1978L136.922 39.3828H133.433Z" fill="#221F1F"/>
<path fill-rule="evenodd" clip-rule="evenodd" d="M53.9465 36.6749C53.9465 34.3116 52.4082 32.6252 48.7441 32.6252H40.8154V43.814H44.6422V40.6506H47.1058L49.8571 43.814H54.6343L51.4328 40.1829C53.0336 39.4936 53.9465 38.0412 53.9465 36.6749ZM44.6422 35.2594H48.4064C49.5695 35.2594 50.0322 35.8748 50.0322 36.6625C50.0322 37.1918 49.707 38.1642 48.3439 38.1642H44.6422V35.2594Z" fill="#221F1F"/>
<path d="M117.451 36.7118L122.153 32.6252H127.131L121.665 37.1918L126.943 43.814H122.165L118.889 39.5182L117.451 40.7245V43.814H113.624V32.6252H117.451V36.7118Z" fill="#221F1F"/>
</g>
<defs>
<clipPath id="clip0_4255_159740">
<rect width="136" height="22.3284" fill="white" transform="translate(7 27)"/>
</clipPath>
</defs>
</svg>
