<svg width="150" height="76" viewBox="0 0 150 76" fill="none" xmlns="http://www.w3.org/2000/svg">
<path d="M20.5967 32.596H25.7784V45.3914H28.7167V32.596H33.9182V30.3923H20.5967V32.596Z" fill="#00665C"/>
<path d="M38.1025 30.4H35.2437V45.3915H38.1025V39.912C38.1025 37.212 39.9489 35.5641 41.6165 35.5641C42.7482 35.5641 43.582 36.2987 43.582 37.7877V45.3915H46.4409V36.8745C46.4409 34.4524 44.8328 33.281 42.9269 33.281C40.9613 33.281 38.8966 34.5914 38.1025 37.0134V30.4Z" fill="#00665C"/>
<path fill-rule="evenodd" clip-rule="evenodd" d="M47.8359 39.356C47.8359 36.3185 49.7816 33.281 53.7125 33.281C56.889 33.281 58.5765 35.2068 58.5765 38.82V39.3759H50.2382C50.5559 41.262 52.0051 42.7509 54.4471 42.7509C55.9162 42.7509 57.4846 42.2149 58.7751 41.1825V43.9818C57.306 45.0738 55.6383 45.6098 53.9904 45.6098C50.1389 45.6098 47.8359 42.7708 47.8359 39.356ZM55.678 37.9862C55.678 35.981 54.864 34.9883 53.3353 34.9883C51.5088 34.9883 50.4367 36.3781 50.2183 37.9862H55.678Z" fill="#00665C"/>
<path d="M70.8936 30.3923H60.2324V45.3914H63.1906V38.5123H69.9009V36.3086H63.1906V32.596H70.8936V30.3923Z" fill="#00665C"/>
<path fill-rule="evenodd" clip-rule="evenodd" d="M71.1611 39.4752C71.1611 36.398 73.3649 33.281 77.6135 33.281C81.7826 33.281 83.9466 36.3384 83.9466 39.4156C83.9466 42.5127 81.743 45.6098 77.4943 45.6098C73.345 45.6098 71.1611 42.5326 71.1611 39.4752ZM77.6929 43.4061C79.8767 43.4061 81.0282 41.659 81.0282 39.5943C81.0282 37.4303 79.7775 35.4847 77.4149 35.4847C75.231 35.4847 74.0795 37.2317 74.0795 39.2766C74.0795 41.4605 75.3303 43.4061 77.6929 43.4061Z" fill="#00665C"/>
<path d="M87.9823 33.4796H85.3418V45.3916H88.2007V38.2046C88.7963 36.7355 90.2058 35.9414 91.6551 35.9414C92.4294 35.9414 93.2434 36.1598 93.8589 36.5965V33.7972C93.3824 33.4995 92.7669 33.3208 92.1515 33.3208C90.3647 33.3208 88.6176 34.4524 87.9823 37.1524V33.4796Z" fill="#00665C"/>
<path d="M100.691 38.2887L106.36 32.2527H103.118L98.1753 37.3502L98.1739 30.3923H95.3164V45.3914H98.1946L98.1739 39.2744C98.1739 39.2744 102.911 39.158 102.911 45.3914H106.01C106.01 39.3561 100.691 38.2887 100.691 38.2887Z" fill="#00665C"/>
<path d="M108.838 38.103C108.844 32.5528 112.923 26.9678 120.951 26.9678C128.77 26.9678 132.841 32.6151 132.749 37.9634C132.643 44.1632 128.51 47.3704 124.808 48.5234L124.386 46.6748C124.166 45.7057 124.427 44.8412 125.113 44.2301C125.999 43.44 126.527 42.4629 126.801 41.1119C127.091 39.6836 126.955 38.116 126.311 36.5503L124.121 30.3926H121.925L123.68 37.4267C123.841 38.1274 123.309 38.7956 122.59 38.7956L120.457 29.4427H118.461L120.381 40.985C119.179 41.093 118.733 40.3129 118.634 39.7484L117.409 31.0312H115.381C115.381 31.0312 115.394 35.7274 115.394 38.9347C115.394 43.6487 117.913 45.052 119.653 45.4706C120.637 45.7073 121.295 46.4728 121.474 47.5474L121.721 49.0321C117.994 49.0417 108.828 47.6546 108.838 38.103Z" fill="#00665C"/>
</svg>
