<svg width="150" height="76" viewBox="0 0 150 76" fill="none" xmlns="http://www.w3.org/2000/svg">
<g clip-path="url(#clip0_4255_159808)">
<path d="M141.252 43.9051C140.84 43.9051 140.505 44.2402 140.505 44.6527C140.505 45.0653 140.84 45.4003 141.252 45.4003C141.665 45.4003 142 45.0653 142 44.6527C142 44.2402 141.665 43.9051 141.252 43.9051ZM141.252 45.2818C140.905 45.2818 140.623 44.9988 140.623 44.6527C140.623 44.305 140.906 44.0237 141.252 44.0237C141.6 44.0237 141.883 44.3066 141.883 44.6527C141.883 44.9989 141.6 45.2818 141.252 45.2818ZM141.496 44.5247C141.496 44.3888 141.399 44.3081 141.257 44.3081H141.018V44.9894H141.135V44.7428H141.263L141.387 44.9894H141.513L141.377 44.7176C141.45 44.6843 141.496 44.6179 141.496 44.5247ZM141.252 44.6369H141.137V44.4109H141.252C141.331 44.4109 141.379 44.4504 141.379 44.5231C141.379 44.5974 141.33 44.6369 141.252 44.6369ZM51.1711 36.3389V34.5307H48.3988V45.2881H51.1711V38.8378C51.1711 37.6698 51.9203 37.096 53.0883 37.096H54.6057V34.5308H53.3096C52.2949 34.5307 51.4129 35.0602 51.1711 36.3389ZM57.2025 30.2759C56.2542 30.2759 55.5271 31.0251 55.5271 31.9734C55.5271 32.8996 56.2542 33.6488 57.2025 33.6488C58.1509 33.6488 58.878 32.8996 58.878 31.9734C58.8779 31.025 58.1509 30.2759 57.2025 30.2759ZM55.8195 45.2881H58.5856V34.5307H55.8195V45.2881ZM71.7611 39.9094C71.7611 42.9804 69.2718 45.4699 66.2007 45.4699C64.9615 45.4699 63.8377 45.0637 62.9368 44.3777V48.4461H60.1708V34.5307H62.9368V35.4411C63.8377 34.7552 64.9615 34.349 66.2007 34.349C69.2718 34.349 71.7611 36.8384 71.7611 39.9094ZM68.9778 39.9094C68.9778 38.2419 67.6248 36.8889 65.9573 36.8889C64.2898 36.8889 62.9368 38.2419 62.9368 39.9094C62.9368 41.5769 64.2898 42.9299 65.9573 42.9299C67.6248 42.9299 68.9778 41.5785 68.9778 39.9094ZM119.836 38.9658L118.222 38.5233C117.16 38.2467 116.747 37.9211 116.747 37.36C116.747 36.8131 117.329 36.4306 118.16 36.4306C118.952 36.4306 119.573 36.949 119.573 37.6128V37.6745H122.123V37.6128C122.123 35.6608 120.531 34.3489 118.16 34.3489C115.813 34.3489 114.108 35.6592 114.108 37.4658C114.108 38.8709 115.039 39.9299 116.663 40.3693L118.209 40.7913C119.384 41.1169 119.82 41.4773 119.82 42.1238C119.82 42.805 119.189 43.2634 118.25 43.2634C117.272 43.2634 116.613 42.6438 116.613 41.7239V41.6622H113.907V41.7239C113.907 43.9304 115.684 45.473 118.228 45.473C120.68 45.473 122.459 43.9667 122.459 41.893C122.459 40.8751 122.004 39.5443 119.836 38.9658ZM81.5733 34.5307H84.3393V45.2881H81.5733V44.3777C80.6724 45.0636 79.5486 45.4699 78.3094 45.4699C75.2384 45.4699 72.749 42.9804 72.749 39.9094C72.749 36.8383 75.2384 34.3489 78.3094 34.3489C79.5486 34.3489 80.6724 34.7551 81.5733 35.4411V34.5307ZM81.5733 39.9094C81.5733 38.2403 80.2203 36.8889 78.5528 36.8889C76.8853 36.8889 75.5324 38.2419 75.5324 39.9094C75.5324 41.5769 76.8853 42.9299 78.5528 42.9299C80.2219 42.9299 81.5733 41.5785 81.5733 39.9094ZM94.3269 30.7026H97.0929V45.2897H94.3269V44.3792C93.426 45.0652 92.3022 45.4714 91.0631 45.4714C87.992 45.4714 85.5026 42.982 85.5026 39.911C85.5026 36.8399 87.9919 34.3505 91.0631 34.3505C92.3022 34.3505 93.426 34.7567 94.3269 35.4427V30.7026ZM94.3269 39.9094C94.3269 38.2419 92.9739 36.8889 91.3064 36.8889C89.639 36.8889 88.286 38.2419 88.286 39.9094C88.286 41.5769 89.6373 42.9299 91.3064 42.9299C92.9739 42.9299 94.3269 41.5785 94.3269 39.9094ZM109.935 45.2881H112.701V34.5307H109.935V45.2881ZM111.318 30.2759C110.37 30.2759 109.643 31.0251 109.643 31.9734C109.643 32.8996 110.37 33.6488 111.318 33.6488C112.266 33.6488 112.993 32.8996 112.993 31.9734C112.993 31.025 112.266 30.2759 111.318 30.2759ZM134.415 39.9094C134.415 42.9804 131.925 45.4699 128.854 45.4699C125.783 45.4699 123.294 42.9805 123.294 39.9094C123.294 36.8383 125.783 34.349 128.854 34.349C131.925 34.349 134.415 36.8384 134.415 39.9094ZM131.875 39.9094C131.875 38.2419 130.522 36.8889 128.854 36.8889C127.187 36.8889 125.834 38.2419 125.834 39.9094C125.834 41.5769 127.185 42.9299 128.854 42.9299C130.522 42.9299 131.875 41.5785 131.875 39.9094ZM49.7549 30.7026H39.1445V33.1699H43.0723V45.2881H45.8288V33.1699H49.7565V30.7026H49.7549ZM103.414 42.3419L100.953 34.5308H98.0475L101.738 45.2881H105.067L108.78 34.5308H105.874L103.414 42.3419ZM138.467 36.3389V34.5307H135.695V45.2881H138.467V38.8378C138.467 37.6698 139.217 37.096 140.385 37.096H141.902V34.5308H140.606C139.591 34.5307 138.711 35.0602 138.467 36.3389Z" fill="black"/>
<path d="M23.1461 53.2921C30.9587 53.2921 37.2921 46.9587 37.2921 39.1461C37.2921 31.3334 30.9587 25 23.1461 25C15.3334 25 9 31.3334 9 39.1461C9 46.9587 15.3334 53.2921 23.1461 53.2921Z" fill="#34E0A1"/>
<path d="M31.8832 36.3864L33.5902 34.5293H29.8048C27.9097 33.2348 25.621 32.4808 23.1458 32.4808C20.6738 32.4808 18.3915 33.2364 16.4995 34.5293H12.7046L14.4116 36.3864C13.3653 37.3411 12.7093 38.7162 12.7093 40.243C12.7093 43.1244 15.0455 45.4605 17.9268 45.4605C19.2956 45.4605 20.5426 44.9326 21.4736 44.0696L23.1459 45.8904L24.8181 44.0712C25.7491 44.9342 26.9945 45.4605 28.3633 45.4605C31.2447 45.4605 33.5839 43.1244 33.5839 40.243C33.5854 38.7146 32.9296 37.3395 31.8832 36.3864ZM17.9284 43.774C15.9779 43.774 14.3974 42.1935 14.3974 40.243C14.3974 38.2926 15.978 36.712 17.9284 36.712C19.8788 36.712 21.4593 38.2926 21.4593 40.243C21.4593 42.1935 19.8788 43.774 17.9284 43.774ZM23.1474 40.1403C23.1474 37.8168 21.4578 35.8222 19.2276 34.9702C20.4336 34.466 21.7565 34.1863 23.1458 34.1863C24.5351 34.1863 25.8596 34.466 27.0656 34.9702C24.837 35.8238 23.1474 37.8169 23.1474 40.1403ZM28.3649 43.774C26.4144 43.774 24.8339 42.1935 24.8339 40.243C24.8339 38.2926 26.4144 36.712 28.3649 36.712C30.3153 36.712 31.8958 38.2926 31.8958 40.243C31.8958 42.1935 30.3153 43.774 28.3649 43.774ZM28.3649 38.3906C27.3422 38.3906 26.514 39.2188 26.514 40.2414C26.514 41.2641 27.3422 42.0923 28.3649 42.0923C29.3875 42.0923 30.2157 41.2641 30.2157 40.2414C30.2157 39.2204 29.3875 38.3906 28.3649 38.3906ZM19.7792 40.243C19.7792 41.2656 18.951 42.0939 17.9284 42.0939C16.9058 42.0939 16.0775 41.2656 16.0775 40.243C16.0775 39.2204 16.9058 38.3922 17.9284 38.3922C18.951 38.3906 19.7792 39.2204 19.7792 40.243Z" fill="black"/>
</g>
<defs>
<clipPath id="clip0_4255_159808">
<rect width="133" height="28.2921" fill="white" transform="translate(9 25)"/>
</clipPath>
</defs>
</svg>
