<svg width="117" height="29" viewBox="0 0 117 29" fill="none" xmlns="http://www.w3.org/2000/svg">
<g id="Trip.com_logo 1" clip-path="url(#clip0_4255_159885)">
<g id="Layer 2">
<g id="Layer 1">
<path id="Vector" d="M44.5523 6.59229C43.7397 6.59451 42.9374 6.77393 42.2013 7.11804C41.4652 7.46215 40.813 7.96267 40.2902 8.58471V7.30263H36.0195V28.1538H40.7667V20.8511C41.8275 21.7408 43.1678 22.2285 44.5523 22.2285C46.5918 22.1988 48.5362 21.3612 49.9589 19.8996C51.3816 18.4379 52.1663 16.4716 52.1408 14.432C52.1663 12.3925 51.3816 10.4261 49.9589 8.96448C48.5362 7.50282 46.5918 6.66527 44.5523 6.6356M52.1408 14.432C52.1663 12.3925 51.3816 10.4261 49.9589 8.96448C48.5362 7.50282 46.5918 6.66527 44.5523 6.6356M44.0845 17.8971C43.3937 17.9265 42.7098 17.7485 42.121 17.3861C41.5321 17.0236 41.0651 16.4933 40.7801 15.8633C40.4952 15.2333 40.4052 14.5324 40.5218 13.8508C40.6384 13.1693 40.9562 12.5382 41.4344 12.0387C41.9127 11.5393 42.5294 11.1944 43.2052 11.0483C43.8811 10.9022 44.5852 10.9617 45.227 11.2191C45.8688 11.4764 46.4189 11.9199 46.8065 12.4925C47.1942 13.0651 47.4017 13.7406 47.4023 14.432C47.4127 14.8776 47.335 15.3208 47.1737 15.7363C47.0125 16.1517 46.7708 16.5313 46.4626 16.8532C46.1544 17.1751 45.7857 17.433 45.3776 17.6121C44.9695 17.7913 44.5301 17.8881 44.0845 17.8971Z" fill="#047BC1"/>
<path id="Vector_2" d="M59.9632 19.3872C59.9649 19.9512 59.7992 20.5031 59.4871 20.9729C59.175 21.4427 58.7305 21.8094 58.2099 22.0264C57.6893 22.2435 57.1159 22.3011 56.5625 22.1921C56.0091 22.0832 55.5005 21.8124 55.101 21.4142C54.7016 21.0159 54.4293 20.5081 54.3186 19.955C54.2079 19.4019 54.2638 18.8285 54.4793 18.3072C54.6948 17.7859 55.06 17.3403 55.5289 17.0267C55.9978 16.7132 56.5491 16.5458 57.1132 16.5458C57.4871 16.5446 57.8575 16.6173 58.2032 16.7596C58.5489 16.9019 58.8632 17.111 59.1279 17.3749C59.3927 17.6389 59.6028 17.9525 59.7461 18.2978C59.8894 18.6431 59.9632 19.0133 59.9632 19.3872Z" fill="#FCAF17"/>
<path id="Vector_3" fill-rule="evenodd" clip-rule="evenodd" d="M30.3195 5.31022C29.7931 5.31193 29.2781 5.15742 28.8396 4.86624C28.4011 4.57506 28.0589 4.16031 27.8563 3.67451C27.6537 3.18872 27.5998 2.65372 27.7014 2.13727C27.8031 1.62082 28.0557 1.14614 28.4272 0.773339C28.7988 0.400541 29.2727 0.146392 29.7888 0.0430722C30.3049 -0.0602473 30.8401 -0.00808964 31.3265 0.192941C31.813 0.393971 32.2289 0.734832 32.5215 1.17236C32.8141 1.60989 32.9703 2.12441 32.9703 2.65077C32.9714 2.9996 32.9037 3.34523 32.771 3.66784C32.6383 3.99045 32.4432 4.2837 32.1969 4.53076C31.9507 4.77783 31.6581 4.97386 31.3359 5.10762C31.0137 5.24137 30.6683 5.31022 30.3195 5.31022Z" fill="#047BC1"/>
<path id="Vector_4" d="M32.7016 7.30261H27.9631V21.5268H32.7016V7.30261Z" fill="#047BC1"/>
<path id="Vector_5" fill-rule="evenodd" clip-rule="evenodd" d="M0 0.666992V4.64317H6.15918V21.5181H10.9063V4.64317H17.0655V0.666992H0Z" fill="#047BC1"/>
<path id="Vector_6" d="M69.9166 17.8712C68.9976 17.8712 68.1162 17.5061 67.4664 16.8563C66.8166 16.2065 66.4515 15.3251 66.4515 14.4061C66.4515 13.4871 66.8166 12.6058 67.4664 11.9559C68.1162 11.3061 68.9976 10.941 69.9166 10.941C70.3673 10.9426 70.8128 11.0381 71.2244 11.2216C71.6361 11.4051 72.005 11.6724 72.3075 12.0065L75.4434 8.87065C74.351 7.78546 72.9617 7.04805 71.4508 6.7514C69.9398 6.45476 68.3749 6.61216 66.9533 7.20377C65.5317 7.79537 64.3171 8.79469 63.4627 10.0757C62.6083 11.3567 62.1523 12.862 62.1523 14.4018C62.1523 15.9416 62.6083 17.4469 63.4627 18.7279C64.3171 20.0089 65.5317 21.0082 66.9533 21.5998C68.3749 22.1914 69.9398 22.3488 71.4508 22.0522C72.9617 21.7555 74.351 21.0181 75.4434 19.9329L72.3075 16.8057C72.0037 17.1382 71.6345 17.4044 71.2231 17.5877C70.8118 17.7711 70.367 17.8676 69.9166 17.8712Z" fill="#047BC1"/>
<path id="Vector_7" fill-rule="evenodd" clip-rule="evenodd" d="M111.402 6.58361C110.523 6.52808 109.645 6.71624 108.866 7.12737C108.086 7.5385 107.435 8.15667 106.984 8.91387C106.552 8.17902 105.93 7.57454 105.183 7.16435C104.436 6.75416 103.591 6.5535 102.74 6.58361C101.902 6.55964 101.073 6.76378 100.342 7.17422C99.6114 7.58465 99.0058 8.18596 98.5902 8.91387V7.30261H94.3281V21.5181H99.0666V12.6475C99.0482 12.3626 99.0885 12.077 99.1849 11.8083C99.2813 11.5395 99.4317 11.2934 99.627 11.0852C99.8223 10.8769 100.058 10.7109 100.32 10.5974C100.582 10.4839 100.865 10.4254 101.15 10.4254C101.435 10.4254 101.718 10.4839 101.98 10.5974C102.242 10.7109 102.478 10.8769 102.673 11.0852C102.868 11.2934 103.019 11.5395 103.115 11.8083C103.212 12.077 103.252 12.3626 103.233 12.6475V21.5181H107.695V12.6475C107.676 12.3626 107.717 12.077 107.813 11.8083C107.909 11.5395 108.06 11.2934 108.255 11.0852C108.45 10.8769 108.686 10.7109 108.948 10.5974C109.21 10.4839 109.493 10.4254 109.778 10.4254C110.064 10.4254 110.346 10.4839 110.608 10.5974C110.87 10.7109 111.106 10.8769 111.301 11.0852C111.496 11.2934 111.647 11.5395 111.743 11.8083C111.84 12.077 111.88 12.3626 111.861 12.6475V21.5181H116.6V11.7552C116.6 8.55004 114.59 6.55762 111.402 6.55762" fill="#047BC1"/>
<path id="Vector_8" d="M84.1321 6.59229C82.5901 6.59229 81.0828 7.04954 79.8007 7.90622C78.5185 8.7629 77.5193 9.98054 76.9292 11.4052C76.3391 12.8298 76.1847 14.3974 76.4855 15.9097C76.7863 17.4221 77.5289 18.8113 78.6192 19.9016C79.7096 20.992 81.0988 21.7345 82.6111 22.0353C84.1235 22.3362 85.6911 22.1818 87.1157 21.5917C88.5403 21.0016 89.7579 20.0023 90.6146 18.7202C91.4713 17.4381 91.9286 15.9307 91.9286 14.3887C91.9286 12.321 91.1072 10.3379 89.645 8.87581C88.1829 7.41369 86.1999 6.59229 84.1321 6.59229ZM84.1321 17.8538C83.4413 17.8832 82.7574 17.7052 82.1686 17.3428C81.5797 16.9803 81.1128 16.45 80.8278 15.82C80.5428 15.19 80.4528 14.4891 80.5694 13.8075C80.686 13.126 81.0039 12.4949 81.4821 11.9954C81.9603 11.496 82.577 11.151 83.2529 11.005C83.9287 10.8589 84.6328 10.9184 85.2746 11.1757C85.9164 11.4331 86.4665 11.8766 86.8542 12.4492C87.2418 13.0218 87.4493 13.6973 87.4499 14.3887C87.4685 15.2879 87.1296 16.1578 86.5076 16.8074C85.8856 17.457 85.0313 17.8333 84.1321 17.8538Z" fill="#047BC1"/>
<path id="Vector_9" d="M24.6453 7.22462C23.7991 7.22305 22.966 7.43303 22.2216 7.83547C21.4773 8.2379 20.8453 8.82002 20.3833 9.5289V7.30258H16.1125V21.5181H20.877V15.5928C20.855 15.0647 20.9428 14.5379 21.1348 14.0455C21.3268 13.5531 21.6189 13.1059 21.9926 12.7322C22.3663 12.3585 22.8135 12.0664 23.3059 11.8744C23.7983 11.6824 24.3252 11.5946 24.8532 11.6166C25.1034 11.6207 25.3526 11.6468 25.5982 11.6946V7.36322C25.2828 7.31505 24.9644 7.289 24.6453 7.28526" fill="#047BC1"/>
</g>
</g>
</g>
<defs>
<clipPath id="clip0_4255_159885">
<rect width="116.6" height="28.1538" fill="white"/>
</clipPath>
</defs>
</svg>
