<svg width="150" height="76" viewBox="0 0 150 76" fill="none" xmlns="http://www.w3.org/2000/svg">
<g clip-path="url(#clip0_4255_159735)">
<path d="M43.6383 30.9871H56.5987V33.3717H51.5027V46.7768H48.7004V33.3717H43.627V30.9871H43.6383ZM56.045 35.344H58.4405V37.5503H58.4857C58.5648 37.2383 58.7117 36.9375 58.9264 36.6477C59.1411 36.358 59.401 36.0794 59.706 35.8454C60.0111 35.6003 60.3501 35.4109 60.723 35.2549C61.0959 35.11 61.4801 35.032 61.8642 35.032C62.158 35.032 62.3727 35.0431 62.4857 35.0543C62.5987 35.0654 62.7117 35.0877 62.836 35.0989V37.528C62.6552 37.4946 62.4744 37.4723 62.2823 37.45C62.0902 37.4278 61.9094 37.4166 61.7286 37.4166C61.2993 37.4166 60.8925 37.5058 60.5083 37.6729C60.1241 37.84 59.7964 38.0963 59.514 38.4195C59.2315 38.7538 59.0055 39.1549 58.836 39.6452C58.6665 40.1355 58.5874 40.6927 58.5874 41.3278V46.7656H56.0337V35.344H56.045ZM74.5761 46.7768H72.0676V45.1833H72.0224C71.706 45.7628 71.2428 46.2196 70.6213 46.5651C69.9998 46.9105 69.3671 47.0888 68.723 47.0888C67.1976 47.0888 66.0902 46.7211 65.4123 45.9745C64.7343 45.2279 64.3953 44.1024 64.3953 42.5981V35.344H66.949V42.353C66.949 43.3559 67.1411 44.069 67.5366 44.4813C67.9207 44.8936 68.4744 45.1053 69.175 45.1053C69.7173 45.1053 70.158 45.0273 70.5196 44.8602C70.8812 44.693 71.175 44.4813 71.3897 44.2027C71.6157 43.9353 71.7738 43.601 71.8755 43.2221C71.9772 42.8433 72.0224 42.431 72.0224 41.9853V35.3551H74.5761V46.7768ZM78.9264 43.1107C79.0055 43.8462 79.288 44.3587 79.7738 44.6596C80.271 44.9493 80.8586 45.1053 81.5479 45.1053C81.7851 45.1053 82.0563 45.083 82.3614 45.0496C82.6665 45.0162 82.9603 44.9382 83.2202 44.8379C83.4914 44.7376 83.706 44.5816 83.8868 44.381C84.0563 44.1804 84.1354 43.9242 84.1241 43.601C84.1128 43.2779 83.9885 43.0104 83.7625 42.8098C83.5366 42.5981 83.2541 42.4421 82.9038 42.3084C82.5535 42.1858 82.158 42.0744 81.706 41.9853C81.2541 41.8961 80.8021 41.7958 80.3388 41.6955C79.8642 41.5953 79.401 41.4615 78.9603 41.3167C78.5196 41.1718 78.1241 40.9712 77.7738 40.715C77.4236 40.4698 77.1411 40.1467 76.9377 39.7567C76.723 39.3666 76.6213 38.8875 76.6213 38.3081C76.6213 37.684 76.7795 37.1715 77.0846 36.748C77.3897 36.3246 77.7851 35.9903 78.2484 35.734C78.723 35.4777 79.2428 35.2994 79.819 35.188C80.3953 35.0877 80.949 35.032 81.4688 35.032C82.0676 35.032 82.6439 35.0989 83.1863 35.2214C83.7286 35.344 84.2258 35.5446 84.6665 35.8343C85.1072 36.1129 85.4688 36.4806 85.7625 36.9263C86.0563 37.372 86.2371 37.918 86.3162 38.5532H83.6495C83.5253 37.9515 83.2541 37.5392 82.8134 37.3386C82.3727 37.1269 81.8642 37.0266 81.2993 37.0266C81.1185 37.0266 80.9038 37.0377 80.6552 37.0712C80.4066 37.1046 80.1806 37.1603 79.9546 37.2383C79.7399 37.3163 79.5592 37.4389 79.401 37.5949C79.2541 37.7509 79.175 37.9515 79.175 38.2078C79.175 38.5198 79.288 38.7649 79.5027 38.9544C79.7173 39.1438 79.9998 39.2998 80.3501 39.4335C80.7004 39.5561 81.0959 39.6675 81.5479 39.7567C81.9998 39.8458 82.4631 39.9461 82.9377 40.0464C83.401 40.1467 83.8529 40.2804 84.3049 40.4252C84.7569 40.5701 85.1524 40.7707 85.5027 41.027C85.8529 41.2832 86.1354 41.5953 86.3501 41.9741C86.5648 42.353 86.6778 42.8321 86.6778 43.3893C86.6778 44.069 86.5196 44.6373 86.2032 45.1165C85.8868 45.5845 85.4801 45.9745 84.9829 46.2642C84.4857 46.5539 83.9207 46.7768 83.3106 46.9105C82.7004 47.0442 82.0902 47.1111 81.4914 47.1111C80.7569 47.1111 80.0789 47.0331 79.4575 46.8659C78.836 46.6988 78.2936 46.4536 77.8416 46.1305C77.3897 45.7962 77.0281 45.3839 76.7682 44.8936C76.5083 44.4033 76.3727 43.8127 76.3501 43.133H78.9264V43.1107ZM87.3558 35.344H89.288V31.9119H91.8416V35.344H94.1467V37.2272H91.8416V43.3336C91.8416 43.601 91.8529 43.8239 91.8755 44.0244C91.8981 44.2139 91.9546 44.381 92.0337 44.5147C92.1128 44.6485 92.2371 44.7487 92.4066 44.8156C92.5761 44.8825 92.7908 44.9159 93.0846 44.9159C93.2654 44.9159 93.4462 44.9159 93.6269 44.9047C93.8077 44.8936 93.9885 44.8713 94.1693 44.8267V46.7768C93.8868 46.8102 93.6043 46.8325 93.3445 46.8659C93.0733 46.8994 92.8021 46.9105 92.5196 46.9105C91.8416 46.9105 91.2993 46.8436 90.8925 46.7211C90.4857 46.5985 90.158 46.4091 89.932 46.1639C89.6947 45.9188 89.5479 45.6179 89.4575 45.2502C89.3784 44.8825 89.3219 44.459 89.3106 43.991V37.2495H87.3784V35.344H87.3558ZM95.9546 35.344H98.3727V36.8929H98.4179C98.7795 36.2243 99.2767 35.7563 99.9207 35.4666C100.565 35.1769 101.254 35.032 102.011 35.032C102.926 35.032 103.717 35.188 104.395 35.5111C105.073 35.8231 105.638 36.2577 106.09 36.8149C106.542 37.372 106.87 38.0183 107.096 38.7538C107.322 39.4892 107.435 40.2804 107.435 41.1161C107.435 41.885 107.333 42.6316 107.13 43.3447C106.926 44.069 106.621 44.7042 106.215 45.2613C105.808 45.8185 105.288 46.2531 104.655 46.5873C104.022 46.9216 103.288 47.0888 102.429 47.0888C102.056 47.0888 101.683 47.0554 101.311 46.9885C100.938 46.9216 100.576 46.8102 100.237 46.6653C99.8981 46.5205 99.5705 46.3311 99.288 46.0971C98.9942 45.863 98.7569 45.5956 98.5535 45.2948H98.5083V51H95.9546V35.344ZM104.881 41.0715C104.881 40.559 104.813 40.0575 104.678 39.5672C104.542 39.0769 104.339 38.6535 104.068 38.2746C103.796 37.8958 103.457 37.5949 103.062 37.372C102.655 37.1492 102.192 37.0266 101.672 37.0266C100.599 37.0266 99.7851 37.3943 99.2428 38.1298C98.7004 38.8652 98.4292 39.8458 98.4292 41.0715C98.4292 41.651 98.497 42.1858 98.6439 42.6761C98.7908 43.1664 98.9942 43.5899 99.288 43.9464C99.5705 44.303 99.9094 44.5816 100.305 44.7822C100.7 44.9939 101.164 45.0942 101.683 45.0942C102.271 45.0942 102.757 44.9716 103.164 44.7376C103.57 44.5036 103.898 44.1916 104.158 43.8239C104.418 43.445 104.61 43.0216 104.723 42.5424C104.825 42.0633 104.881 41.573 104.881 41.0715ZM109.39 30.9871H111.943V33.3717H109.39V30.9871ZM109.39 35.344H111.943V46.7768H109.39V35.344ZM114.226 30.9871H116.779V46.7768H114.226V30.9871ZM124.61 47.0888C123.683 47.0888 122.859 46.9328 122.135 46.6319C121.412 46.3311 120.802 45.9076 120.294 45.3839C119.796 44.849 119.412 44.2139 119.152 43.4784C118.892 42.743 118.757 41.9295 118.757 41.0492C118.757 40.1801 118.892 39.3778 119.152 38.6423C119.412 37.9069 119.796 37.2717 120.294 36.7369C120.791 36.202 121.412 35.7897 122.135 35.4889C122.859 35.188 123.683 35.032 124.61 35.032C125.537 35.032 126.361 35.188 127.085 35.4889C127.808 35.7897 128.418 36.2132 128.926 36.7369C129.424 37.2717 129.808 37.9069 130.068 38.6423C130.328 39.3778 130.463 40.1801 130.463 41.0492C130.463 41.9295 130.328 42.743 130.068 43.4784C129.808 44.2139 129.424 44.849 128.926 45.3839C128.429 45.9188 127.808 46.3311 127.085 46.6319C126.361 46.9328 125.537 47.0888 124.61 47.0888ZM124.61 45.0942C125.175 45.0942 125.672 44.9716 126.09 44.7376C126.508 44.5036 126.847 44.1916 127.118 43.8127C127.39 43.4339 127.582 42.9993 127.717 42.5201C127.842 42.041 127.909 41.5507 127.909 41.0492C127.909 40.5589 127.842 40.0798 127.717 39.5895C127.593 39.0992 127.39 38.6758 127.118 38.2969C126.847 37.918 126.508 37.6172 126.09 37.3832C125.672 37.1492 125.175 37.0266 124.61 37.0266C124.045 37.0266 123.548 37.1492 123.13 37.3832C122.712 37.6172 122.373 37.9292 122.102 38.2969C121.83 38.6758 121.638 39.0992 121.503 39.5895C121.378 40.0798 121.311 40.5589 121.311 41.0492C121.311 41.5507 121.378 42.041 121.503 42.5201C121.627 42.9993 121.83 43.4339 122.102 43.8127C122.373 44.1916 122.712 44.5036 123.13 44.7376C123.548 44.9827 124.045 45.0942 124.61 45.0942ZM131.209 35.344H133.141V31.9119H135.695V35.344H138V37.2272H135.695V43.3336C135.695 43.601 135.706 43.8239 135.729 44.0244C135.751 44.2139 135.808 44.381 135.887 44.5147C135.966 44.6485 136.09 44.7487 136.26 44.8156C136.429 44.8825 136.644 44.9159 136.938 44.9159C137.118 44.9159 137.299 44.9159 137.48 44.9047C137.661 44.8936 137.842 44.8713 138.022 44.8267V46.7768C137.74 46.8102 137.457 46.8325 137.198 46.8659C136.926 46.8994 136.655 46.9105 136.373 46.9105C135.695 46.9105 135.152 46.8436 134.746 46.7211C134.339 46.5985 134.011 46.4091 133.785 46.1639C133.548 45.9188 133.401 45.6179 133.311 45.2502C133.231 44.8825 133.175 44.459 133.164 43.991V37.2495H131.231V35.344H131.209Z" fill="#191919"/>
<path d="M40.6554 30.9871H28.9492L25.3333 20L21.7062 30.9871L10 30.9759L19.4802 37.7732L15.8531 48.7491L25.3333 41.963L34.8023 48.7491L31.1864 37.7732L40.6554 30.9871Z" fill="#00B67A"/>
<path d="M32.0002 40.2581L31.1866 37.7732L25.3335 41.963L32.0002 40.2581Z" fill="#005128"/>
</g>
<defs>
<clipPath id="clip0_4255_159735">
<rect width="128" height="31" fill="white" transform="translate(10 20)"/>
</clipPath>
</defs>
</svg>
