<svg width="150" height="76" viewBox="0 0 150 76" fill="none" xmlns="http://www.w3.org/2000/svg">
<path d="M101.576 38.7199L102.969 38.3974C103.015 38.3872 103.061 38.375 103.106 38.3609C103.491 38.2575 103.82 38.0088 104.025 37.6673C104.23 37.3259 104.294 36.9182 104.205 36.5301L104.198 36.5054C104.152 36.3195 104.072 36.1437 103.962 35.9873C103.806 35.7895 103.612 35.6241 103.393 35.5003C103.135 35.3529 102.864 35.2278 102.585 35.1262L101.058 34.5693C100.201 34.2511 99.3434 33.9405 98.4781 33.6373C97.918 33.4384 97.4428 33.2632 97.029 33.1364C96.9516 33.1116 96.8656 33.088 96.7957 33.0643C96.2958 32.9106 95.9464 32.8472 95.6487 32.8461C95.4505 32.8388 95.2532 32.8748 95.0703 32.9515C94.8793 33.0336 94.7078 33.1552 94.5672 33.3084C94.4974 33.388 94.4317 33.4713 94.3705 33.5578C94.2513 33.7408 94.1529 33.9366 94.077 34.1415C93.7938 34.9793 93.6528 35.8586 93.6599 36.743C93.6664 37.5428 93.6879 38.5683 94.1275 39.2639C94.2329 39.4423 94.3748 39.5971 94.5446 39.7164C94.8575 39.9325 95.1735 39.9615 95.5036 39.9852C95.9948 40.0196 96.471 39.8992 96.9462 39.7895L101.573 38.7188L101.576 38.7199ZM117.111 31.3218C116.731 30.5239 116.22 29.7953 115.599 29.1664C115.518 29.0868 115.432 29.0131 115.341 28.946C115.257 28.8828 115.169 28.8239 115.079 28.7697C114.986 28.7191 114.89 28.6735 114.792 28.6332C114.599 28.5571 114.392 28.5226 114.185 28.5321C113.987 28.5441 113.793 28.5988 113.618 28.6923C113.353 28.8245 113.066 29.0363 112.683 29.3911C112.63 29.4448 112.565 29.5039 112.505 29.5588C112.19 29.8555 111.838 30.222 111.421 30.6477C110.776 31.2992 110.142 31.9549 109.511 32.6171L108.382 33.7889C108.176 34.0039 107.988 34.2339 107.82 34.4801C107.677 34.6876 107.576 34.9209 107.522 35.1681C107.49 35.3571 107.495 35.5505 107.535 35.7379L107.541 35.7626C107.631 36.1501 107.867 36.4879 108.201 36.7046C108.534 36.9214 108.939 37.0003 109.329 36.9247C109.39 36.9161 109.439 36.9053 109.469 36.8989L115.489 35.5057C115.964 35.396 116.446 35.295 116.871 35.0477C117.157 34.8811 117.429 34.7166 117.615 34.3855C117.715 34.203 117.776 34.0016 117.793 33.7943C117.885 32.974 117.456 32.042 117.111 31.3218ZM106.335 33.8566C106.772 33.3084 106.77 32.4914 106.808 31.8227C106.939 29.591 107.077 27.3593 107.186 25.1255C107.229 24.2805 107.319 23.4463 107.267 22.5938C107.226 21.8908 107.221 21.0835 106.777 20.5062C105.992 19.4892 104.322 19.5731 103.182 19.7322C102.833 19.7806 102.484 19.8451 102.136 19.9289C101.789 20.0128 101.446 20.1031 101.11 20.2116C100.016 20.5696 98.4781 21.2275 98.2179 22.4885C98.0717 23.2012 98.42 23.929 98.6898 24.5804C99.0166 25.3684 99.4638 26.0779 99.8723 26.8197C100.948 28.7794 102.046 30.7251 103.14 32.6741C103.467 33.2546 103.823 33.9921 104.455 34.2931C104.497 34.3113 104.539 34.3275 104.583 34.3414C104.866 34.4489 105.174 34.4704 105.47 34.4006L105.524 34.3887C105.796 34.3135 106.042 34.1662 106.235 33.9598C106.271 33.9276 106.304 33.8932 106.335 33.8566ZM105.815 39.8325C105.645 39.5928 105.403 39.4131 105.124 39.3192C104.846 39.2254 104.544 39.2222 104.264 39.3101C104.197 39.3316 104.134 39.3585 104.07 39.3896C103.975 39.4392 103.883 39.4967 103.797 39.5616C103.547 39.7465 103.335 39.9884 103.144 40.2303C103.094 40.2926 103.05 40.3743 102.992 40.4281L102.024 41.7611C101.475 42.5071 100.933 43.2553 100.397 44.0154C100.046 44.5066 99.7444 44.9205 99.5047 45.2871C99.4595 45.357 99.4122 45.4344 99.3692 45.4956C99.0822 45.9396 98.9199 46.2632 98.8371 46.5513C98.7744 46.7432 98.7546 46.9465 98.7791 47.1468C98.8059 47.3554 98.8758 47.5553 98.9855 47.7349C99.0435 47.8252 99.1059 47.9122 99.1725 47.9961C99.3176 48.1629 99.4809 48.3129 99.6595 48.4433C100.328 48.9088 101.06 49.2431 101.831 49.5011C102.472 49.7134 103.137 49.8402 103.811 49.8784C103.925 49.8838 104.04 49.8816 104.155 49.8709C104.261 49.8617 104.366 49.847 104.47 49.8268C104.575 49.8022 104.677 49.7721 104.779 49.7365C104.973 49.6678 105.149 49.5571 105.295 49.4123C105.441 49.2675 105.554 49.0923 105.625 48.8991C105.736 48.6196 105.81 48.2648 105.858 47.7402C105.862 47.665 105.873 47.5747 105.881 47.493C105.918 47.0565 105.936 46.5438 105.964 45.9407C106.011 45.014 106.048 44.0917 106.077 43.165L106.139 41.5203C106.153 41.1397 106.141 40.7205 106.035 40.3432C105.989 40.1623 105.915 39.9899 105.815 39.8325ZM116.748 42.405C116.546 42.1836 116.26 41.9621 115.807 41.6891C115.743 41.6525 115.665 41.6041 115.595 41.5622C115.219 41.3365 114.765 41.0978 114.236 40.8097C113.424 40.3656 112.608 39.9284 111.788 39.4982L110.336 38.7285C110.261 38.707 110.185 38.6533 110.114 38.6189C109.835 38.476 109.539 38.3701 109.232 38.3039C109.127 38.2839 109.02 38.2731 108.912 38.2716C108.843 38.2696 108.773 38.2736 108.705 38.2835C108.414 38.3282 108.145 38.4635 107.937 38.6701C107.728 38.8766 107.589 39.1439 107.541 39.4337C107.52 39.6186 107.526 39.8057 107.562 39.9873C107.633 40.3743 107.806 40.756 107.984 41.0903L108.759 42.5426C109.19 43.3618 109.628 44.1766 110.075 44.9882C110.364 45.5171 110.604 45.9708 110.829 46.346C110.872 46.4169 110.92 46.4932 110.958 46.5577C111.231 47.0092 111.451 47.2941 111.674 47.4973C111.819 47.637 111.992 47.7435 112.182 47.809C112.381 47.8746 112.593 47.8983 112.801 47.8778C112.908 47.8649 113.013 47.8462 113.117 47.8219C113.221 47.7951 113.322 47.7617 113.422 47.7241C113.529 47.6833 113.633 47.6349 113.733 47.579C114.322 47.2485 114.865 46.8419 115.348 46.3696C115.927 45.7999 116.439 45.1774 116.837 44.4669C116.893 44.3659 116.941 44.261 116.981 44.153C117.019 44.0537 117.051 43.9525 117.078 43.8498C117.101 43.7445 117.12 43.6391 117.131 43.5327C117.151 43.3236 117.127 43.1126 117.061 42.9135C116.995 42.7232 116.888 42.5497 116.748 42.405Z" fill="#FF1A1A"/>
<path fill-rule="evenodd" clip-rule="evenodd" d="M66.7784 28.2784C66.7784 27.0819 67.7545 26.1036 68.9306 26.1036C70.0916 26.1036 71.0322 27.0819 71.0827 28.2956V45.2698C71.0827 46.4674 70.1077 47.4445 68.9306 47.4445C68.6461 47.4446 68.3643 47.3881 68.1017 47.2786C67.8392 47.169 67.6009 47.0085 67.4008 46.8062C67.2006 46.604 67.0426 46.3641 66.9357 46.1003C66.8289 45.8366 66.7755 45.5543 66.7784 45.2698V28.2784ZM64.7789 38.7639C64.7617 39.1004 64.6779 39.7239 64.2414 40.1797C63.7695 40.6688 63.131 40.786 62.7612 40.786C61.2228 40.7946 59.6845 40.7989 58.1462 40.8032C56.6089 40.8075 55.0695 40.8118 53.5312 40.8204C53.6667 41.2418 53.9354 41.8825 54.5406 42.4716C54.9104 42.8263 55.263 43.0284 55.4146 43.1123C55.5995 43.2305 56.2381 43.5681 57.0282 43.5681C57.8688 43.5681 58.6084 43.2983 59.3319 42.9274L59.3921 42.8951C59.8941 42.6361 60.4134 42.3673 60.9616 42.2695C61.5002 42.1856 62.0721 42.2867 62.4924 42.6565C62.9966 43.0962 63.1987 43.7369 63.0138 44.3937C62.7945 45.1354 62.1731 45.7761 61.5174 46.1642C61.1476 46.3824 60.7434 46.5684 60.3403 46.72C59.2997 47.0888 58.1994 47.2601 57.0959 47.2252C56.8272 47.2252 56.5412 47.2252 56.2553 47.193C55.9551 47.1543 55.6575 47.0976 55.3641 47.0231C54.9002 46.9225 54.449 46.77 54.0193 46.5684C53.5889 46.3777 53.1778 46.1463 52.7916 45.8772C52.4065 45.6004 52.0468 45.2899 51.7166 44.9495C51.388 44.6051 51.0895 44.2333 50.8244 43.8379C49.9171 42.4555 49.4967 40.7527 49.5806 39.1004C49.6483 37.4825 50.1858 35.8646 51.1608 34.5488C51.2644 34.3946 51.3794 34.2484 51.5048 34.1113C51.5543 34.0543 51.6027 33.9984 51.6489 33.9425C52.8529 32.4698 54.4622 32.0043 55.1254 31.8119L55.162 31.8011C56.5085 31.4188 57.9349 31.4188 59.2814 31.8011C59.6007 31.8861 61.3991 32.4418 62.7945 33.9425C62.8622 34.0103 63.0471 34.2285 63.2825 34.5488C63.8794 35.3616 64.3178 36.2795 64.5747 37.2546L64.5768 37.2632C64.6779 37.6341 64.7789 38.1393 64.7789 38.7639ZM54.9104 35.9818C54.2463 36.5218 53.7842 37.2704 53.5989 38.106H60.9283C60.7305 37.2716 60.264 36.5253 59.6007 35.9818C58.9322 35.4456 58.1033 35.1488 57.2464 35.139C56.9271 35.139 55.8855 35.1895 54.9104 35.9818ZM82.783 31.5152C80.8674 31.5152 79.1184 32.3752 77.8746 33.7738V33.7232C77.8589 33.1547 77.618 32.6157 77.2049 32.2248C76.7919 31.8339 76.2404 31.6231 75.6719 31.6388C75.1034 31.6545 74.5644 31.8954 74.1735 32.3085C73.7826 32.7215 73.5718 33.273 73.5875 33.8415V50.0417C73.5875 51.2382 74.5464 52.1982 75.7396 52.1982C76.9329 52.1982 77.8918 51.2382 77.8918 50.0407V44.9839C79.1356 46.3663 80.8674 47.2424 82.8002 47.2424C86.6498 47.2424 89.777 43.753 89.777 39.4046C89.7598 35.0552 86.6326 31.5152 82.783 31.5152ZM81.8413 43.7197C79.6569 43.7197 77.8746 41.8148 77.8746 39.4379C77.8746 37.0439 79.6397 35.139 81.8413 35.139C84.0279 35.139 85.8092 37.0439 85.8092 39.4379C85.793 41.8137 84.0279 43.7197 81.8424 43.7197H81.8413ZM46.3534 40.5334L45.6472 42.0846C45.3279 42.7586 45.0086 43.4498 44.7055 44.1411C44.6087 44.3528 44.512 44.5689 44.4131 44.7893C43.0693 47.7778 41.4751 51.3264 37.9985 52.081C36.3172 52.4519 33.7781 51.9456 32.8375 50.361C31.8958 48.7593 33.2911 46.9221 35.0896 47.3435C35.3734 47.408 35.6529 47.5467 35.9335 47.6864C36.4022 47.9197 36.8784 48.1573 37.3933 48.0519C37.8803 47.9681 38.1834 47.6133 38.5694 47.1586C38.9836 46.6756 39.2825 46.1047 39.4433 45.4891C39.4343 45.4697 39.426 45.45 39.4186 45.43C39.4111 45.4103 39.4029 45.391 39.3939 45.3719C38.9553 44.5549 38.5737 43.825 38.2544 43.2155C38.0458 42.8177 37.8652 42.4716 37.7126 42.1856L36.9784 40.7946C36.4409 39.7755 36.3527 39.6078 36.1151 39.1681C35.5926 38.1813 35.0434 37.2087 34.4682 36.2516C33.8447 35.2067 33.2073 34.0436 33.7276 32.8127C33.9233 32.3356 34.2913 31.9494 34.7584 31.7308C35.2255 31.5121 35.7577 31.477 36.2495 31.6324C37.332 31.9613 37.8104 32.9912 38.2598 33.9544C38.3404 34.1274 38.421 34.2994 38.5027 34.465C39.2251 35.898 39.9314 37.3309 40.6377 38.7628C40.7 38.9058 40.7946 39.1004 40.9096 39.3358C41.0128 39.5465 41.1322 39.7905 41.259 40.0614C41.3257 40.2012 41.388 40.3323 41.4461 40.4506C41.5192 40.6011 41.5826 40.7322 41.6288 40.8376C41.9567 40.0195 42.2889 39.2057 42.621 38.393C42.9532 37.5793 43.2854 36.7655 43.6133 35.9485C43.6219 35.9023 43.7003 35.7281 43.8175 35.4647C43.9936 35.0758 44.1635 34.6841 44.3271 34.2898C44.7635 33.2266 45.2881 31.9484 46.4545 31.599C46.868 31.4795 47.3085 31.4915 47.715 31.6334C48.1214 31.7754 48.4736 32.0402 48.7227 32.3913C48.9764 32.7461 49.0775 33.1503 49.0936 33.5545C49.1076 34.4489 48.6744 35.4088 48.3035 36.2334C48.2132 36.4344 48.1272 36.6268 48.0509 36.8085L48.0068 36.9074C47.9036 37.1374 47.6252 37.7652 47.1436 38.7972C46.9694 39.167 46.8028 39.5379 46.634 39.912C46.5416 40.1173 46.4491 40.3248 46.3534 40.5334Z" fill="black"/>
</svg>
