<svg width="150" height="76" viewBox="0 0 150 76" fill="none" xmlns="http://www.w3.org/2000/svg">
<g clip-path="url(#clip0_4255_159754)">
<mask id="mask0_4255_159754" style="mask-type:luminance" maskUnits="userSpaceOnUse" x="19" y="22" width="113" height="32">
<path d="M131.264 22.36H19.3145V53.64H131.264V22.36Z" fill="white"/>
</mask>
<g mask="url(#mask0_4255_159754)">
<path fill-rule="evenodd" clip-rule="evenodd" d="M21.3841 24.4453H129.195V51.5547H21.3841V24.4453ZM131.264 22.36H129.195H21.3841H19.3145V24.4453V51.5547V53.64H21.3841H129.195H131.264V51.5547V24.4453V22.36ZM95.9468 43.524H95.8628C94.9958 43.524 94.2911 44.2543 94.2911 45.1574C94.2911 46.0608 94.9958 46.791 95.8628 46.791H95.9468C96.8137 46.791 97.5183 46.0608 97.5183 45.1574C97.5183 44.2543 96.8137 43.524 95.9468 43.524ZM98.3023 31.7297V40.6588C98.3023 42.3458 98.9039 43.7817 100.103 44.9521C101.302 46.1214 102.771 46.7073 104.497 46.7073C106.213 46.7073 107.656 46.1275 108.861 44.9521C110.075 43.7667 110.691 42.324 110.691 40.6588V31.7297H108.044V40.6588C108.044 41.6065 107.692 42.4417 107.011 43.1056C106.33 43.7705 105.471 44.1155 104.497 44.1155C103.522 44.1155 102.663 43.7705 101.982 43.1056C101.302 42.4417 100.949 41.6065 100.949 40.6588V31.7297H98.3023ZM38.1822 44.091H28.821V43.2715L38.535 36.4784V31.6916L26.1989 31.685L26.1976 34.2674L35.9975 34.2726L36.014 35.1262L26.1971 41.925L26.2335 46.6734H38.1822V44.091ZM92.8223 44.1136H83.461V43.2939L93.175 36.5009V31.7139L80.8388 31.7074L80.8374 34.2898L90.6375 34.2951L90.6539 35.1486L80.8371 41.9475L80.8734 46.696H92.8223V44.1136ZM44.1326 46.6625C44.8349 46.6625 45.4834 46.4924 46.1052 46.1457L49.6434 44.1449V46.6892H52.1983V31.685H40.8609V34.2767H49.57V35.2264L49.5691 35.2268L42.1281 39.4042C40.8955 40.0754 40.1228 41.3795 40.1228 42.7743C40.1228 43.8827 40.5249 44.8099 41.3299 45.5665C42.164 46.2934 43.1082 46.6625 44.1326 46.6625ZM44.7816 44.019C44.5496 44.1485 44.3206 44.208 44.0407 44.208C43.273 44.208 42.5874 43.5589 42.5874 42.7906C42.5874 42.2634 42.8416 41.8473 43.3287 41.5621L49.6269 38.0295V41.276L49.565 41.3111L44.7816 44.019ZM71.1791 46.6625C71.8813 46.6625 72.5296 46.4924 73.1517 46.1457L76.6899 44.1449V46.6892H79.2445V31.685H67.9073V34.2767H76.6163V35.2264L76.6155 35.2268L69.1746 39.4042C67.9418 40.0754 67.1692 41.3795 67.1692 42.7743C67.1692 43.8827 67.5712 44.8099 68.3765 45.5665C69.2105 46.2934 70.1545 46.6625 71.1791 46.6625ZM71.828 44.019C71.5961 44.1485 71.3671 44.208 71.087 44.208C70.3194 44.208 69.6338 43.5589 69.6338 42.7906C69.6338 42.2634 69.888 41.8473 70.3752 41.5621L76.6733 38.0295V41.276L76.6112 41.3111L71.828 44.019ZM116.29 46.6625C116.992 46.6625 117.641 46.4924 118.262 46.1457L121.8 44.1449V46.6892H124.355V31.685H113.018V34.2767H121.727V35.2264L121.726 35.2268L114.285 39.4042C113.053 40.0754 112.28 41.3795 112.28 42.7743C112.28 43.8827 112.682 44.8099 113.487 45.5665C114.321 46.2934 115.265 46.6625 116.29 46.6625ZM116.939 44.019C116.707 44.1485 116.478 44.208 116.198 44.208C115.43 44.208 114.744 43.5589 114.744 42.7906C114.744 42.2634 114.998 41.8473 115.486 41.5621L121.784 38.0295V41.276L121.722 41.3111L116.939 44.019ZM61.3505 37.382L66.3393 31.7088H63.1308L56.8793 38.8562V26.7793H54.3093V46.6701H56.8793V42.3877L59.4985 39.3747L63.4997 46.6701H66.3393L61.3505 37.382Z" fill="#1EB763"/>
</g>
</g>
<defs>
<clipPath id="clip0_4255_159754">
<rect width="112.773" height="31.28" fill="white" transform="translate(18.9033 22.36)"/>
</clipPath>
</defs>
</svg>
