<svg width="150" height="76" viewBox="0 0 150 76" fill="none" xmlns="http://www.w3.org/2000/svg">
<g clip-path="url(#clip0_4255_159897)">
<path d="M37.4804 31.8332L37.3833 34.9557L29.2393 43.8082C32.6412 43.8082 34.7983 43.7749 36.0422 43.7059C35.6817 45.3859 35.3885 46.7593 35.0932 48.8184C33.4573 48.6802 30.9068 48.6457 28.3551 48.6457C25.5106 48.6457 23.0245 48.6798 21.0293 48.8184L21.0958 45.6605L29.2393 36.8434C25.6742 36.8434 24.3656 36.877 22.8945 36.9116C23.2205 35.333 23.4498 33.584 23.6786 31.8332C26.2623 31.9359 27.2761 31.9696 30.6452 31.9696C33.7526 31.97 35.5176 31.9359 37.4804 31.8332ZM46.7371 30.9057C41.4372 30.9057 37.3833 35.6409 37.3833 41.3044C37.3833 45.5586 39.8357 48.8184 44.6106 48.8184C49.9421 48.8184 53.9648 44.0824 53.9648 38.3856C53.9653 34.1673 51.5767 30.9057 46.7371 30.9057ZM45.1339 44.2671C43.9561 44.2671 43.27 43.202 43.27 41.1092C43.27 37.9867 44.5454 35.4824 46.1162 35.4824C47.26 35.4824 47.9469 36.5126 47.9469 38.6386C47.9465 41.7266 46.7047 44.2671 45.1339 44.2671ZM121.647 30.6708C116.279 30.6708 112.171 35.4686 112.171 41.2033C112.171 45.5154 114.656 48.8184 119.494 48.8184C124.895 48.8184 128.97 44.0202 128.97 38.2496C128.971 33.9743 126.553 30.6708 121.647 30.6708ZM119.922 44.249C118.744 44.249 118.058 43.1838 118.058 41.0911C118.058 37.9685 119.334 35.4647 120.905 35.4647C122.048 35.4647 122.736 36.4941 122.736 38.6205C122.735 41.7098 121.492 44.249 119.922 44.249ZM81.4701 37.083C81.8958 34.1673 81.667 31.5244 78.4296 31.5244C76.0743 31.5244 73.5234 33.5149 71.7247 36.8434C72.1176 34.0973 71.8879 31.5244 68.6829 31.5244C66.2628 31.5244 63.6463 33.6172 61.8467 37.083C62.3048 34.8184 62.2073 32.2442 62.076 31.6954C60.2121 32.0046 58.5774 32.1755 56.2873 32.2442C56.3529 33.8232 56.2545 35.8805 55.96 37.8382L55.2079 42.9844C54.9134 45.0098 54.5862 47.343 54.2589 48.8188H60.3425C60.3757 47.9255 60.605 46.5192 60.7682 45.284L61.2915 41.7504C61.7163 39.4499 63.5475 36.7406 64.9537 36.7406C65.7715 36.7406 65.7395 37.5294 65.5103 39.0048L64.9213 42.9839C64.626 45.0094 64.3 47.3426 63.9723 48.8184H70.1211C70.1543 47.9251 70.3504 46.5188 70.5136 45.2835L71.0364 41.75C71.4622 39.4495 73.2946 36.7402 74.7 36.7402C75.5186 36.7402 75.4862 37.494 75.3541 38.5242L73.8852 48.818H79.4969L81.4701 37.083ZM110.852 43.4312L110.198 47.4808C109.184 48.0296 107.287 48.8193 105.095 48.8193C101.367 48.8193 100.615 46.8288 101.203 42.6083L102.152 35.814H100.317L100.835 31.4161L102.839 31.3194L103.591 28.1282L109.249 26L108.53 31.3189H112.422C112.292 31.8677 111.832 34.8883 111.704 35.8136H107.908L107.057 42.0932C106.828 43.7059 106.96 44.2896 108.07 44.2896C108.89 44.2887 110.099 43.8082 110.852 43.4312ZM89.3917 45.6186C91.4508 45.3634 92.8678 43.3786 93.2085 41.3981L93.2659 40.8674C92.3812 40.6697 91.1023 40.519 89.8623 40.6705C88.6814 40.8143 87.6987 41.3052 87.1702 42.0159C86.7717 42.5263 86.5714 43.1368 86.6603 43.8647C86.7946 44.955 88.0005 45.7883 89.3917 45.6186ZM87.6391 48.7549C84.7329 49.112 82.8189 47.9583 82.2442 45.3345C81.8837 43.6834 82.3841 41.8026 83.2593 40.6805C84.4316 39.2129 86.3417 38.2708 88.6728 37.9862C90.5488 37.7535 92.1295 37.8684 93.6079 38.1482L93.6692 37.8947C93.7115 37.4893 93.7542 37.0847 93.6951 36.6003C93.5418 35.3564 92.5608 34.6155 90.1386 34.9134C88.5044 35.1141 86.9496 35.7044 85.7424 36.3762L84.568 32.8275C86.2044 31.888 88.2669 31.173 90.6274 30.8833C95.1363 30.3302 98.3046 31.768 98.7105 35.0736C98.818 35.9526 98.8309 36.8844 98.72 37.7298C98.141 41.8169 97.7701 44.8923 97.6073 46.9536C97.581 47.2727 97.5831 47.821 97.6116 48.5982L92.0164 48.593C92.1356 48.2709 92.2422 47.834 92.3372 47.2861C92.4002 46.9255 92.4451 46.4709 92.4732 45.9199C91.2906 47.5425 89.665 48.5062 87.6391 48.7549Z" fill="#E23744"/>
</g>
<defs>
<clipPath id="clip0_4255_159897">
<rect width="108" height="23.112" fill="white" transform="translate(21 26)"/>
</clipPath>
</defs>
</svg>
