<svg width="40" height="40" viewBox="0 0 40 40" fill="none" xmlns="http://www.w3.org/2000/svg">
<rect width="40" height="40" rx="3" fill="#A6D864"/>
<g clip-path="url(#clip0_8194_104431)">
<path d="M22.3867 31.4288C23.1509 31.4288 23.8174 30.7623 23.8174 29.9981V26.6568H24.7727C25.346 26.6568 25.728 26.2746 25.728 25.7015V16.1582H14.2734V25.7016C14.2734 26.2747 14.6556 26.6569 15.2287 26.6569H16.1841V29.9982C16.1841 30.7624 16.8504 31.4289 17.6149 31.4289C18.379 31.4289 19.0454 30.7624 19.0454 29.9982V26.6569H20.9561V29.9982C20.956 30.7623 21.6225 31.4288 22.3867 31.4288Z" fill="white"/>
<path d="M28.1143 25.7016C28.8785 25.7016 29.5449 25.0352 29.5449 24.2709V17.5883C29.5449 16.8281 28.8786 16.1582 28.1143 16.1582C27.35 16.1582 26.6836 16.8281 26.6836 17.5883V24.2709C26.6836 25.0351 27.3499 25.7016 28.1143 25.7016Z" fill="white"/>
<path d="M11.8876 25.7016C12.6519 25.7016 13.3183 25.0352 13.3183 24.2709V17.5883C13.3183 16.8281 12.652 16.1582 11.8876 16.1582C11.1234 16.1582 10.457 16.8281 10.457 17.5883V24.2709C10.4571 25.0351 11.1234 25.7016 11.8876 25.7016Z" fill="white"/>
<path d="M24.5815 8.71543C24.3905 8.52324 24.1062 8.52324 23.9152 8.71543L22.6339 9.99243L22.5748 10.0515C21.8151 9.67101 20.9633 9.48101 20.0147 9.47918C20.0101 9.47918 20.0055 9.47904 20.0008 9.47904H20.0007C19.9959 9.47904 19.9915 9.47918 19.9867 9.47918C19.0382 9.48101 18.1864 9.67101 17.4267 10.0515L17.3674 9.99243L16.0862 8.71543C15.895 8.52324 15.6108 8.52324 15.4199 8.71543C15.2287 8.90654 15.2287 9.1902 15.4199 9.38119L16.6593 10.6208C16.2599 10.8875 15.8978 11.2138 15.5829 11.587C14.8289 12.4806 14.348 13.6437 14.2819 14.9039C14.2813 14.917 14.28 14.93 14.2794 14.9431C14.2753 15.0289 14.2734 15.1151 14.2734 15.2017H25.728C25.728 15.1152 25.7259 15.0289 25.7221 14.9431C25.7214 14.93 25.7201 14.917 25.7194 14.9039C25.6534 13.6437 25.1724 12.4806 24.4184 11.5871C24.1036 11.2139 23.7413 10.8876 23.342 10.6209L24.5815 9.38127C24.7727 9.1902 24.7727 8.90659 24.5815 8.71543ZM17.613 13.5338C17.2178 13.5338 16.8973 13.2134 16.8973 12.8181C16.8973 12.4228 17.2177 12.1024 17.613 12.1024C18.0082 12.1024 18.3286 12.4228 18.3286 12.8181C18.3286 13.2134 18.0082 13.5338 17.613 13.5338ZM22.3884 13.5338C21.9932 13.5338 21.6727 13.2134 21.6727 12.8181C21.6727 12.4228 21.9931 12.1024 22.3884 12.1024C22.7836 12.1024 23.1041 12.4228 23.1041 12.8181C23.1041 13.2134 22.7837 13.5338 22.3884 13.5338Z" fill="white"/>
</g>
<defs>
<clipPath id="clip0_8194_104431">
<rect width="22.8571" height="22.8571" fill="white" transform="translate(8.57227 8.57129)"/>
</clipPath>
</defs>
</svg>
