<svg width="40" height="40" viewBox="0 0 40 40" fill="none" xmlns="http://www.w3.org/2000/svg">
<rect width="40" height="40" rx="3" fill="#475467"/>
<g clip-path="url(#clip0_8194_104405)">
<path d="M31.229 13.1123L24.2969 19.9998L31.229 26.8872C31.3543 26.6253 31.4303 26.3357 31.4303 26.0265V13.973C31.4303 13.6637 31.3543 13.3742 31.229 13.1123Z" fill="white"/>
<path d="M29.4207 11.9639H10.5814C10.2721 11.9639 9.98262 12.0399 9.7207 12.1652L18.5807 20.9805C19.3641 21.7639 20.638 21.7639 21.4214 20.9805L30.2813 12.1652C30.0194 12.0399 29.7299 11.9639 29.4207 11.9639Z" fill="white"/>
<path d="M8.7736 13.1123C8.64829 13.3742 8.57227 13.6637 8.57227 13.973V26.0265C8.57227 26.3358 8.64829 26.6253 8.7736 26.8872L15.7057 19.9998L8.7736 13.1123Z" fill="white"/>
<path d="M23.3492 20.9473L22.3683 21.9282C21.063 23.2335 18.939 23.2335 17.6337 21.9282L16.6528 20.9473L9.7207 27.8347C9.98262 27.96 10.2721 28.0361 10.5814 28.0361H29.4207C29.7299 28.0361 30.0194 27.96 30.2813 27.8347L23.3492 20.9473Z" fill="white"/>
</g>
<defs>
<clipPath id="clip0_8194_104405">
<rect width="22.8571" height="22.8571" fill="white" transform="translate(8.57227 8.57129)"/>
</clipPath>
</defs>
</svg>
