<svg width="40" height="40" viewBox="0 0 40 40" fill="none" xmlns="http://www.w3.org/2000/svg">
<rect width="40" height="40" rx="3" fill="#1C2229"/>
<g clip-path="url(#clip0_8194_104450)">
<path d="M24.3989 7.85693C24.4521 7.85693 24.5053 7.85693 24.5615 7.85693C24.6919 9.46887 24.0767 10.6733 23.3289 11.5455C22.5952 12.4117 21.5905 13.2518 19.9655 13.1243C19.8571 11.5355 20.4734 10.4204 21.2202 9.55017C21.9127 8.73918 23.1824 8.01752 24.3989 7.85693Z" fill="white"/>
<path d="M29.3182 24.6346C29.3182 24.6507 29.3182 24.6647 29.3182 24.6798C28.8615 26.0629 28.2101 27.2483 27.4152 28.3483C26.6895 29.347 25.8002 30.6909 24.2124 30.6909C22.8403 30.6909 21.929 29.8087 20.5228 29.7846C19.0353 29.7605 18.2173 30.5223 16.8573 30.714C16.7017 30.714 16.5462 30.714 16.3936 30.714C15.3949 30.5695 14.589 29.7786 14.0018 29.0659C12.2704 26.9602 10.9325 24.2402 10.6836 20.7594C10.6836 20.4181 10.6836 20.0779 10.6836 19.7366C10.789 17.2454 11.9994 15.22 13.6084 14.2384C14.4575 13.7164 15.6248 13.2718 16.9246 13.4705C17.4816 13.5568 18.0507 13.7475 18.5495 13.9362C19.0223 14.1179 19.6135 14.4401 20.1735 14.423C20.5529 14.412 20.9303 14.2143 21.3127 14.0748C22.4328 13.6703 23.5309 13.2066 24.9782 13.4244C26.7176 13.6873 27.9522 14.4602 28.715 15.6526C27.2436 16.589 26.0803 18.0002 26.279 20.4101C26.4557 22.5991 27.7283 23.8798 29.3182 24.6346Z" fill="white"/>
</g>
<defs>
<clipPath id="clip0_8194_104450">
<rect width="22.8571" height="22.8571" fill="white" transform="translate(8.57227 7.85693)"/>
</clipPath>
</defs>
</svg>
