<svg width="40" height="40" viewBox="0 0 40 40" fill="none" xmlns="http://www.w3.org/2000/svg">
<g id="Social Media">
<rect id="Logo Container" width="40" height="40" rx="3" fill="#BB4744"/>
<path id="Shape" d="M21.3644 10.0933C18.972 9.7642 16.5414 10.3119 14.5213 11.6353C12.5012 12.9586 11.0281 14.9683 10.3739 17.2933C9.71979 19.6182 9.92881 22.1013 10.9624 24.2841C11.996 26.4669 13.7843 28.202 15.9972 29.1689C15.9374 28.4008 15.9923 27.628 16.1602 26.876C16.3452 26.037 17.456 21.4131 17.456 21.4131C17.2348 20.9172 17.1243 20.3791 17.132 19.8361C17.132 18.3512 17.9889 17.2432 19.0547 17.2432C19.2462 17.2404 19.436 17.2789 19.6113 17.356C19.7866 17.4332 19.9432 17.5471 20.0705 17.6902C20.1978 17.8333 20.2928 18.0021 20.3491 18.1852C20.4053 18.3682 20.4215 18.5613 20.3965 18.7512C20.3965 19.6511 19.8186 21.0131 19.5167 22.2911C19.457 22.5255 19.4532 22.7706 19.5056 23.0067C19.558 23.2428 19.6652 23.4633 19.8184 23.6504C19.9716 23.8375 20.1666 23.986 20.3878 24.0839C20.6089 24.1818 20.8499 24.2264 21.0914 24.214C22.9891 24.214 24.2609 21.7831 24.2609 18.9132C24.2609 16.7132 22.8041 15.0652 20.1186 15.0652C19.476 15.0403 18.8352 15.1462 18.2348 15.3765C17.6345 15.6068 17.0872 15.9568 16.6262 16.4051C16.1652 16.8534 15.8001 17.3908 15.5531 17.9845C15.3061 18.5783 15.1824 19.2161 15.1894 19.8591C15.1607 20.5724 15.3908 21.2721 15.8373 21.8291C15.9207 21.8914 15.9816 21.9791 16.0108 22.079C16.04 22.1789 16.036 22.2857 15.9992 22.3831C15.9532 22.5671 15.8373 23.0061 15.7913 23.1671C15.7817 23.2217 15.7594 23.2732 15.7263 23.3177C15.6931 23.3621 15.65 23.3981 15.6004 23.4228C15.5508 23.4475 15.4961 23.4603 15.4407 23.4599C15.3853 23.4596 15.3307 23.4463 15.2813 23.4211C13.8976 22.8671 13.2457 21.3441 13.2457 19.6051C13.2457 16.7582 15.6293 13.3503 20.3985 13.3503C24.1939 13.3503 26.7175 16.1272 26.7175 19.0971C26.7175 23.0061 24.5409 25.945 21.3244 25.945C20.8436 25.9604 20.3668 25.8543 19.9379 25.6365C19.5091 25.4187 19.142 25.0963 18.8708 24.699C18.8708 24.699 18.2929 27.015 18.1789 27.453C17.9462 28.2097 17.6029 28.9277 17.16 29.5839C18.0829 29.8639 19.0417 30.0039 20.0056 29.9999C21.319 30.001 22.6196 29.7429 23.8331 29.2405C25.0467 28.7381 26.1492 28.0012 27.0775 27.0721C28.0059 26.1429 28.7419 25.0398 29.2434 23.8257C29.7448 22.6117 30.002 21.3107 30 19.9971C29.9987 17.5822 29.1239 15.2492 27.537 13.4291C25.9501 11.6089 23.7583 10.4244 21.3664 10.0943L21.3644 10.0933Z" fill="white"/>
</g>
</svg>
