<svg width="40" height="40" viewBox="0 0 40 40" fill="none" xmlns="http://www.w3.org/2000/svg">
<g id="Social Media / Telegram">
<rect id="Logo Container" width="40" height="40" rx="3" fill="#34AADF"/>
<path id="Vector" d="M11.1281 19.2911C11.1281 19.2911 19.266 15.8636 22.0883 14.6566C23.1702 14.1739 26.8393 12.629 26.8393 12.629C26.8393 12.629 28.5328 11.9532 28.3916 13.5946C28.3446 14.2704 27.9683 16.6359 27.592 19.1945C27.0275 22.8152 26.416 26.7738 26.416 26.7738C26.416 26.7738 26.3219 27.8842 25.5222 28.0773C24.7226 28.2704 23.4054 27.4014 23.1703 27.2083C22.982 27.0635 19.6423 24.8911 18.4192 23.829C18.0899 23.5394 17.7136 22.9601 18.4662 22.2842C20.1597 20.6911 22.1824 18.7118 23.4054 17.4567C23.9699 16.8773 24.5344 15.5256 22.1824 17.167C18.8426 19.5325 15.5498 21.7532 15.5498 21.7532C15.5498 21.7532 14.7972 22.2359 13.386 21.8014C11.9747 21.367 10.3283 20.7876 10.3283 20.7876C10.3283 20.7876 9.19946 20.0635 11.1281 19.2911Z" fill="white"/>
</g>
</svg>
