<svg width="40" height="40" viewBox="0 0 40 40" fill="none" xmlns="http://www.w3.org/2000/svg">
<rect width="40" height="40" rx="3" fill="#754A91"/>
<path d="M15.3322 28.1776C15.3322 27.8423 15.3322 27.507 15.3322 27.1717C15.3345 27.158 15.3341 27.144 15.3307 27.1304C15.3274 27.1169 15.3213 27.1042 15.3129 27.0931C15.3044 27.082 15.2937 27.0728 15.2815 27.0659C15.2693 27.0591 15.2558 27.0548 15.2418 27.0534C14.4031 26.8173 13.629 26.3967 12.9771 25.8229C12.5022 25.3948 12.1067 24.8875 11.8088 24.324C11.3888 23.5099 11.1093 22.632 10.9819 21.7266C10.824 20.5908 10.7692 19.4432 10.8181 18.2977C10.8288 17.7637 10.8563 17.2357 10.9176 16.7017C11.0153 15.6868 11.2736 14.6935 11.6832 13.7583C12.189 12.6085 13.1064 11.6848 14.2588 11.1655C15.0437 10.8096 15.8695 10.5497 16.7179 10.3917C17.5499 10.2356 18.3923 10.1397 19.2383 10.105C20.001 10.0782 20.7645 10.0894 21.526 10.1383C22.6159 10.1839 23.696 10.3628 24.7416 10.6709C25.5169 10.8923 26.2544 11.2272 26.9297 11.6646C27.5878 12.1122 28.12 12.7184 28.4763 13.4261C28.8952 14.2526 29.1799 15.1394 29.32 16.0538C29.411 16.5967 29.4708 17.1443 29.4992 17.6939C29.539 18.3751 29.5344 19.0594 29.5083 19.7375C29.4823 20.4157 29.4241 21.0742 29.3399 21.7387C29.2335 22.7361 28.924 23.7017 28.4304 24.5773C27.7878 25.685 26.7584 26.5214 25.5363 26.929C24.7007 27.2189 23.8379 27.4253 22.9608 27.5449C22.3192 27.6329 21.6761 27.6966 21.0299 27.7224C20.5353 27.7452 20.0407 27.7391 19.5461 27.7315C19.2659 27.7315 18.9872 27.7042 18.7085 27.68C18.6812 27.6748 18.6529 27.6779 18.6273 27.6887C18.6017 27.6995 18.5798 27.7176 18.5646 27.7406C18.0011 28.4112 17.4162 29.0636 16.8266 29.713C16.7193 29.8314 16.5949 29.9337 16.4576 30.0164C16.3675 30.075 16.2647 30.1118 16.1576 30.1238C16.0505 30.1357 15.942 30.1226 15.8409 30.0854C15.7399 30.0482 15.6491 29.9879 15.5759 29.9095C15.5027 29.8311 15.4491 29.7368 15.4194 29.6341C15.3611 29.4516 15.3321 29.2611 15.3337 29.0697C15.3322 28.7693 15.3322 28.4734 15.3322 28.1776ZM16.0136 29.4505L16.0855 29.3837L17.3641 27.9773C17.8561 27.4362 18.3477 26.8946 18.8387 26.3524C18.8628 26.3194 18.8954 26.2932 18.933 26.2767C18.9707 26.2602 19.0121 26.2538 19.0531 26.2584C19.22 26.2751 19.3869 26.2811 19.5553 26.2826C20.1372 26.2826 20.719 26.2826 21.3009 26.2417C21.8292 26.2007 22.3559 26.137 22.8796 26.0551C23.4435 25.9578 24.0016 25.8307 24.5517 25.6742C25.7767 25.3481 26.7246 24.6502 27.3202 23.5199C27.6719 22.8249 27.8924 22.0722 27.971 21.2987C28.0641 20.5697 28.1198 19.8364 28.1379 19.1018C28.165 18.179 28.1014 17.2557 27.948 16.3451C27.8416 15.6854 27.6502 15.0419 27.3784 14.4304C27.0323 13.6719 26.5423 13.0437 25.7874 12.6402C24.6298 12.0212 23.3773 11.745 22.0864 11.6039C21.7205 11.5645 21.3545 11.5433 20.987 11.5296C20.2345 11.4912 19.4805 11.4952 18.7284 11.5417C18.1876 11.5815 17.6497 11.6534 17.1176 11.7572C16.335 11.8985 15.578 12.1542 14.8713 12.5158C14.4615 12.7209 14.0898 12.9933 13.7718 13.3214C13.2565 13.8921 12.8785 14.5711 12.6663 15.3074C12.4145 16.1649 12.277 17.0514 12.2574 17.9442C12.2082 18.8371 12.2194 19.7322 12.2911 20.6236C12.3357 21.154 12.4254 21.6798 12.5591 22.1954C12.758 22.9988 13.144 23.7449 13.6861 24.374C14.2713 25.0159 15.0277 25.4808 15.8681 25.7152C15.9737 25.7471 16.0212 25.7835 16.0212 25.9018C16.012 26.3388 16.0212 26.7757 16.0212 27.2127L16.0136 29.4505Z" fill="white"/>
<path d="M14.9424 15.8996C14.9317 15.5674 15.1139 15.3261 15.3344 15.1092C15.6252 14.8332 15.9456 14.5895 16.2899 14.3824C16.4469 14.2865 16.6335 14.25 16.8156 14.2795C16.9976 14.3091 17.1627 14.4027 17.2806 14.5433C17.6971 14.9771 18.07 15.4502 18.3938 15.9558C18.5542 16.1832 18.6752 16.4354 18.7521 16.7022C18.7828 16.8063 18.7848 16.9167 18.7579 17.0218C18.731 17.1269 18.6761 17.223 18.599 17.3C18.4223 17.4718 18.2341 17.6315 18.0355 17.7779C17.9354 17.8569 17.861 17.9633 17.8216 18.0839C17.7821 18.2045 17.7793 18.3339 17.8135 18.4561C17.9361 19.0297 18.214 19.5594 18.6174 19.9884C19.1075 20.5813 19.739 21.0438 20.4549 21.3342C20.6307 21.4238 20.8323 21.4511 21.026 21.4115C21.1321 21.3829 21.2264 21.3218 21.2955 21.2371C21.4027 21.102 21.5191 20.9716 21.6155 20.8274C21.7406 20.6476 21.9317 20.5234 22.1479 20.4812C22.3642 20.4389 22.5885 20.4821 22.7731 20.6014C23.2922 20.8997 23.7822 21.2451 24.237 21.633C24.3442 21.7241 24.456 21.8121 24.5632 21.9046C24.69 22.0005 24.7816 22.1349 24.8239 22.2872C24.8662 22.4396 24.8569 22.6015 24.7974 22.7482C24.7028 22.9948 24.5649 23.2228 24.3901 23.4218C24.1729 23.7209 23.8962 23.9729 23.577 24.1622C23.4245 24.2509 23.253 24.3031 23.0765 24.3144C22.8999 24.3257 22.7231 24.2959 22.5603 24.2274C21.3214 23.7332 20.1638 23.0587 19.1257 22.2263C18.1104 21.3981 17.223 20.4269 16.492 19.3436C15.8769 18.4469 15.3875 17.4715 15.0373 16.4443C15 16.3201 14.9694 16.194 14.9455 16.0665C14.9387 16.0111 14.9376 15.9552 14.9424 15.8996Z" fill="white"/>
<path d="M20.2288 14.2847C21.2653 14.3037 22.2623 14.6825 23.0458 15.3551C23.8293 16.0277 24.3497 16.9515 24.5163 17.9653C24.5833 18.3339 24.6192 18.7075 24.6235 19.082C24.6235 19.17 24.6005 19.2337 24.5056 19.2428C24.4106 19.2519 24.3861 19.1715 24.3861 19.0911C24.4004 18.3335 24.2434 17.5824 23.9268 16.8927C23.6601 16.326 23.2651 15.8279 22.7724 15.4371C22.2798 15.0463 21.7028 14.7734 21.0863 14.6397C20.7604 14.5649 20.4271 14.5262 20.0925 14.5244C20.06 14.5249 20.0275 14.5208 19.9961 14.5122C19.9693 14.5048 19.9466 14.4873 19.9326 14.4635C19.9186 14.4398 19.9144 14.4115 19.921 14.3848C19.9212 14.3721 19.924 14.3596 19.9291 14.348C19.9342 14.3364 19.9416 14.3259 19.9509 14.3171C19.9602 14.3083 19.9711 14.3015 19.9831 14.297C19.995 14.2925 20.0078 14.2903 20.0206 14.2907C20.0895 14.2816 20.1599 14.2847 20.2288 14.2847Z" fill="white"/>
<path d="M23.1841 18.3994C23.1789 17.9779 23.0742 17.5635 22.8782 17.1893C22.6822 16.8152 22.4005 16.4918 22.0555 16.245C21.653 15.9648 21.185 15.7909 20.6958 15.7398C20.6131 15.7292 20.5304 15.7246 20.4462 15.7155C20.362 15.7064 20.3115 15.6715 20.3191 15.5865C20.3268 15.5016 20.3804 15.4712 20.4722 15.4773C21.8289 15.5592 22.9835 16.3193 23.3387 17.7349C23.4037 18.0078 23.4361 18.2874 23.4352 18.5678C23.4352 18.5936 23.4352 18.6194 23.4352 18.6437C23.4352 18.7195 23.3862 18.7696 23.3112 18.7681C23.2945 18.7675 23.2782 18.7636 23.2631 18.7566C23.248 18.7496 23.2346 18.7396 23.2235 18.7272C23.2125 18.7149 23.2041 18.7004 23.1989 18.6847C23.1937 18.6691 23.1918 18.6525 23.1933 18.6361C23.181 18.5648 23.1841 18.4919 23.1841 18.3994Z" fill="white"/>
<path d="M20.8077 16.7097C21.5519 16.7598 22.071 17.1209 22.2134 17.9052C22.2307 18.0057 22.243 18.107 22.2502 18.2087C22.2502 18.2906 22.2318 18.3604 22.1414 18.3604C22.0511 18.3604 22.0205 18.2997 22.0174 18.2087C22.0166 17.908 21.9231 17.6148 21.7495 17.3682C21.567 17.1448 21.305 16.9993 21.0175 16.9616C20.9532 16.9497 20.8883 16.9415 20.8231 16.9373C20.7159 16.9373 20.6561 16.8842 20.6699 16.8023C20.6837 16.7203 20.748 16.7052 20.8077 16.7097Z" fill="white"/>
</svg>
