<svg width="40" height="40" viewBox="0 0 40 40" fill="none" xmlns="http://www.w3.org/2000/svg">
<g id="Social Media / Whatsapp">
<rect id="Logo Container" width="40" height="40" rx="3" fill="#3DC24D"/>
<path id="Vector" d="M10 29.259L11.435 23.9235C10.2777 21.845 9.91003 19.4197 10.3994 17.0924C10.8888 14.7652 12.2024 12.6922 14.0992 11.2538C15.996 9.81545 18.3487 9.10821 20.7256 9.26187C23.1026 9.41553 25.3443 10.4198 27.0394 12.0904C28.7346 13.7609 29.7694 15.9857 29.9541 18.3566C30.1387 20.7274 29.4608 23.0852 28.0447 24.9972C26.6286 26.9093 24.5694 28.2475 22.2448 28.7661C19.9202 29.2848 17.4863 28.9491 15.3896 27.8208L10 29.259ZM15.6494 25.8242L15.9827 26.0216C17.5014 26.9203 19.2752 27.2921 21.0277 27.0793C22.7802 26.8664 24.4129 26.0808 25.6715 24.8448C26.9301 23.6088 27.7437 21.9919 27.9857 20.2461C28.2277 18.5002 27.8844 16.7235 27.0093 15.1928C26.1342 13.662 24.7765 12.4633 23.1478 11.7833C21.519 11.1034 19.7108 10.9804 18.0047 11.4336C16.2986 11.8868 14.7907 12.8907 13.7158 14.2888C12.6409 15.6869 12.0594 17.4008 12.062 19.1633C12.0606 20.6247 12.4654 22.0578 13.2315 23.3031L13.4405 23.6471L12.6383 26.6251L15.6494 25.8242Z" fill="white"/>
<path id="Vector_2" fill-rule="evenodd" clip-rule="evenodd" d="M23.7384 20.5339C23.543 20.3765 23.3142 20.2658 23.0695 20.2101C22.8247 20.1544 22.5705 20.1552 22.3261 20.2124C21.9588 20.3647 21.7216 20.94 21.4843 21.2276C21.4343 21.2965 21.3607 21.3449 21.2775 21.3636C21.1943 21.3823 21.1071 21.37 21.0323 21.3291C19.688 20.8034 18.5611 19.8394 17.8348 18.5937C17.7728 18.5159 17.7435 18.4172 17.753 18.3184C17.7625 18.2195 17.81 18.1281 17.8856 18.0635C18.1502 17.802 18.3446 17.478 18.4505 17.1216C18.4741 16.7285 18.3839 16.337 18.1907 15.9936C18.0413 15.5123 17.7571 15.0837 17.3715 14.7584C17.1726 14.6692 16.9522 14.6392 16.7366 14.6722C16.5211 14.7053 16.3198 14.7998 16.1569 14.9446C15.8741 15.1881 15.6497 15.4919 15.5001 15.8335C15.3505 16.1752 15.2796 16.546 15.2925 16.9186C15.2934 17.1278 15.32 17.3362 15.3716 17.539C15.5028 18.0262 15.7045 18.4918 15.9705 18.9208C16.1623 19.2495 16.3716 19.5676 16.5975 19.874C17.3317 20.8802 18.2546 21.7345 19.3149 22.3894C19.847 22.7223 20.4157 22.9929 21.0097 23.196C21.6268 23.4752 22.3082 23.5824 22.9814 23.5062C23.365 23.4482 23.7284 23.297 24.0397 23.0659C24.351 22.8348 24.6006 22.5308 24.7666 22.1808C24.8641 21.9693 24.8937 21.7329 24.8513 21.504C24.7497 21.0358 24.1226 20.7595 23.7384 20.5339Z" fill="white"/>
</g>
</svg>
