<svg width="132" height="78" viewBox="0 0 132 78" fill="none" xmlns="http://www.w3.org/2000/svg">
<rect width="132" height="78" rx="4" fill="#B1CEE7"/>
<path d="M58.1073 23.3881V32.3684H56.5715V23.3881H58.1073ZM60.926 23.3881V24.6217H53.7775V23.3881H60.926ZM64.3121 32.4918C63.8187 32.4918 63.3725 32.4116 62.9737 32.2512C62.5789 32.0867 62.2418 31.8585 61.9622 31.5666C61.6867 31.2747 61.4749 30.9313 61.3269 30.5366C61.1789 30.1418 61.1049 29.7163 61.1049 29.2599V29.0131C61.1049 28.4909 61.1809 28.0181 61.3331 27.5946C61.4852 27.171 61.697 26.8092 61.9683 26.509C62.2397 26.2048 62.5604 25.9724 62.9305 25.8121C63.3006 25.6517 63.7015 25.5715 64.1332 25.5715C64.6102 25.5715 65.0275 25.6517 65.3853 25.8121C65.743 25.9724 66.0391 26.1986 66.2734 26.4905C66.5119 26.7784 66.6887 27.1217 66.8039 27.5205C66.9231 27.9194 66.9827 28.3594 66.9827 28.8404V29.4757H61.8265V28.4087H65.5148V28.2915C65.5066 28.0242 65.4531 27.7734 65.3544 27.539C65.2599 27.3047 65.1139 27.1155 64.9165 26.9716C64.7192 26.8277 64.456 26.7557 64.1271 26.7557C63.8803 26.7557 63.6604 26.8092 63.4671 26.9161C63.278 27.0189 63.1197 27.169 62.9922 27.3664C62.8647 27.5637 62.766 27.8022 62.6961 28.0818C62.6303 28.3573 62.5975 28.6678 62.5975 29.0131V29.2599C62.5975 29.5518 62.6365 29.8232 62.7146 30.074C62.7969 30.3207 62.9161 30.5366 63.0724 30.7216C63.2286 30.9066 63.4178 31.0526 63.6398 31.1595C63.8618 31.2623 64.1147 31.3137 64.3984 31.3137C64.7562 31.3137 65.0748 31.2418 65.3544 31.0978C65.634 30.9539 65.8766 30.7504 66.0822 30.4872L66.8655 31.2459C66.7216 31.4556 66.5345 31.6571 66.3043 31.8503C66.074 32.0395 65.7924 32.1937 65.4593 32.3129C65.1303 32.4321 64.7479 32.4918 64.3121 32.4918ZM69.2771 25.6949L70.5477 27.9091L71.8429 25.6949H73.4774L71.4544 28.97L73.5576 32.3684H71.9231L70.5662 30.0617L69.2093 32.3684H67.5687L69.6657 28.97L67.6488 25.6949H69.2771ZM77.5543 25.6949V26.7804H73.7919V25.6949H77.5543ZM74.8775 24.0604H76.3639V30.5242C76.3639 30.7298 76.3927 30.8881 76.4502 30.9992C76.5119 31.1061 76.5962 31.178 76.7031 31.215C76.81 31.252 76.9354 31.2705 77.0794 31.2705C77.1822 31.2705 77.2808 31.2644 77.3754 31.252C77.47 31.2397 77.5461 31.2274 77.6036 31.215L77.6098 32.3499C77.4864 32.3869 77.3425 32.4198 77.178 32.4486C77.0177 32.4774 76.8326 32.4918 76.6229 32.4918C76.2817 32.4918 75.9794 32.4321 75.7163 32.3129C75.4531 32.1895 75.2475 31.9901 75.0995 31.7146C74.9515 31.4391 74.8775 31.0732 74.8775 30.6168V24.0604Z" fill="white"/>
<rect x="36.5" y="41.3684" width="59" height="6.63158" rx="3.15789" fill="#F0F7FE"/>
<rect x="36.5" y="52" width="59" height="6.63158" rx="3.15789" fill="#F0F7FE"/>
</svg>
