<svg width="132" height="78" viewBox="0 0 132 78" fill="none" xmlns="http://www.w3.org/2000/svg">
<rect width="132" height="78" rx="4" fill="#F0F7FE"/>
<rect x="16" y="14.1042" width="100" height="30.6316" rx="3.15789" fill="#B1CEE7"/>
<path d="M59.8236 30.0709H57.486V28.8436H59.8236C60.2307 28.8436 60.5596 28.7778 60.8104 28.6462C61.0613 28.5146 61.2442 28.3337 61.3594 28.1034C61.4786 27.8691 61.5382 27.6018 61.5382 27.3016C61.5382 27.0179 61.4786 26.7527 61.3594 26.506C61.2442 26.2552 61.0613 26.0537 60.8104 25.9015C60.5596 25.7494 60.2307 25.6733 59.8236 25.6733H57.9609V33.42H56.4128V24.4398H59.8236C60.5185 24.4398 61.1086 24.5631 61.5938 24.8098C62.0831 25.0524 62.4552 25.3896 62.7101 25.8214C62.965 26.249 63.0925 26.7383 63.0925 27.2893C63.0925 27.8691 62.965 28.3666 62.7101 28.7819C62.4552 29.1972 62.0831 29.5158 61.5938 29.7379C61.1086 29.9599 60.5185 30.0709 59.8236 30.0709ZM68.0206 32.0816V28.8991C68.0206 28.6606 67.9774 28.455 67.891 28.2823C67.8047 28.1096 67.6731 27.976 67.4963 27.8814C67.3236 27.7868 67.1057 27.7395 66.8425 27.7395C66.5999 27.7395 66.3902 27.7807 66.2134 27.8629C66.0366 27.9451 65.8988 28.0561 65.8002 28.1959C65.7015 28.3358 65.6521 28.4941 65.6521 28.6709H64.1719C64.1719 28.4077 64.2356 28.1528 64.3631 27.9061C64.4905 27.6594 64.6756 27.4394 64.9182 27.2461C65.1608 27.0529 65.4507 26.9007 65.7878 26.7897C66.125 26.6787 66.5033 26.6232 66.9227 26.6232C67.4243 26.6232 67.8684 26.7075 68.2549 26.876C68.6456 27.0446 68.9519 27.2996 69.1739 27.6408C69.4001 27.978 69.5132 28.4015 69.5132 28.9114V31.8781C69.5132 32.1824 69.5337 32.4558 69.5748 32.6984C69.6201 32.9369 69.6838 33.1446 69.766 33.3214V33.42H68.2426C68.1727 33.2597 68.1172 33.0561 68.0761 32.8094C68.0391 32.5586 68.0206 32.316 68.0206 32.0816ZM68.2364 29.3617L68.2488 30.2807H67.1817C66.9063 30.2807 66.6637 30.3074 66.4539 30.3608C66.2442 30.4102 66.0695 30.4842 65.9297 30.5829C65.7899 30.6816 65.685 30.8008 65.6151 30.9406C65.5452 31.0804 65.5103 31.2387 65.5103 31.4155C65.5103 31.5923 65.5514 31.7547 65.6336 31.9028C65.7159 32.0467 65.8351 32.1598 65.9914 32.242C66.1517 32.3242 66.345 32.3654 66.5711 32.3654C66.8754 32.3654 67.1406 32.3037 67.3668 32.1803C67.597 32.0529 67.778 31.8987 67.9095 31.7177C68.0411 31.5327 68.111 31.358 68.1192 31.1935L68.6003 31.8534C68.551 32.022 68.4667 32.2029 68.3475 32.3962C68.2282 32.5895 68.072 32.7745 67.8787 32.9513C67.6896 33.124 67.4613 33.2658 67.1941 33.3769C66.9309 33.4879 66.6266 33.5434 66.2813 33.5434C65.8454 33.5434 65.4568 33.4571 65.1155 33.2844C64.7743 33.1075 64.507 32.8711 64.3137 32.5751C64.1205 32.2749 64.0238 31.9357 64.0238 31.5574C64.0238 31.2038 64.0896 30.8913 64.2212 30.6199C64.3569 30.3444 64.5543 30.1141 64.8133 29.9291C65.0765 29.7441 65.3972 29.6043 65.7755 29.5097C66.1538 29.411 66.5855 29.3617 67.0707 29.3617H68.2364ZM72.9054 32.6922L74.7188 26.7465H76.31L73.6332 34.4377C73.5715 34.6022 73.4914 34.7811 73.3927 34.9743C73.294 35.1676 73.1645 35.3506 73.0041 35.5233C72.8479 35.7001 72.6526 35.8419 72.4182 35.9488C72.1838 36.0598 71.9001 36.1154 71.567 36.1154C71.4354 36.1154 71.308 36.103 71.1846 36.0783C71.0654 36.0578 70.9523 36.0352 70.8454 36.0105L70.8392 34.8756C70.8803 34.8797 70.9297 34.8839 70.9873 34.888C71.0489 34.8921 71.0983 34.8941 71.1353 34.8941C71.382 34.8941 71.5876 34.8633 71.7521 34.8016C71.9165 34.7441 72.0502 34.6495 72.153 34.5179C72.2599 34.3863 72.3503 34.2095 72.4243 33.9875L72.9054 32.6922ZM71.8816 26.7465L73.4667 31.7424L73.7319 33.309L72.7019 33.5742L70.278 26.7465H71.8816Z" fill="white"/>
<path d="M29.1917 54.7358C28.0093 54.7362 26.9321 55.1844 26.1202 55.9198C25.3077 55.1847 24.2312 54.7368 23.0503 54.7368C23.0405 54.7368 23.0307 54.7368 23.0209 54.7368C20.507 54.7532 18.4717 56.7983 18.4717 59.3157C18.4717 61.8435 20.5231 63.8943 23.0503 63.8943C24.2312 63.8943 25.3074 63.4463 26.1199 62.7112C25.9503 62.558 26.2649 62.8787 26.1199 62.7011C25.9771 62.8761 26.299 62.5495 26.1325 62.7011H26.1316L26.1319 62.7018C26.1281 62.7052 26.1237 62.7074 26.1199 62.7112C26.9321 63.4476 28.0109 63.8962 29.1936 63.8958C31.7227 63.8952 33.7713 61.8444 33.7707 59.316V59.3138C33.77 56.7854 31.7195 54.7358 29.1917 54.7358Z" fill="#B1CEE7"/>
<path d="M48.363 56.3033L45.832 62.3427H44.18L42.9354 57.5234C42.8588 57.2262 42.7933 57.1181 42.5635 56.9918C42.1872 56.7884 41.5681 56.5975 41.0215 56.4786L41.0597 56.3033H43.7176C44.0565 56.3033 44.3613 56.5294 44.4379 56.9192L45.096 60.4147L46.7216 56.3033L48.363 56.3033ZM54.8338 60.37C54.8411 58.7769 52.6293 58.6902 52.6452 57.9775C52.6495 57.7599 52.8557 57.5297 53.3073 57.4716C53.5316 57.4418 54.1487 57.4199 54.8481 57.741L55.1222 56.4609C54.7459 56.3243 54.2622 56.1935 53.661 56.1935C52.1168 56.1935 51.0298 57.0148 51.0206 58.19C51.0105 59.059 51.7962 59.544 52.3888 59.8334C52.9974 60.1295 53.2008 60.3186 53.1987 60.5842C53.1947 60.9896 52.7131 61.1667 52.264 61.1747C51.4783 61.1869 51.0226 60.9624 50.6586 60.7929L50.3758 62.117C50.7403 62.2844 51.4153 62.4297 52.1137 62.4383C53.7549 62.4382 54.8286 61.6256 54.8338 60.37ZM58.9115 62.3428H60.3568L59.0957 56.3033H57.7614C57.4616 56.3033 57.2089 56.4782 57.0963 56.746L54.7533 62.3428H56.3932L56.7188 61.4408H58.7234L58.9115 62.3428ZM57.1682 60.2029L57.9909 57.9353L58.4642 60.2029H57.1682ZM50.5957 56.3033L49.303 62.3427H47.7404L49.0333 56.3033H50.5957Z" fill="#B1CEE7"/>
<path d="M76.6307 59.2126V61.4493H75.9209V55.926H77.8027C78.2796 55.926 78.6862 56.085 79.019 56.4029C79.3591 56.7209 79.5292 57.1091 79.5292 57.5675C79.5292 58.037 79.3591 58.4252 79.019 58.7394C78.6899 59.0536 78.2833 59.2089 77.8027 59.2089H76.6307V59.2126ZM76.6307 56.6063V58.5324H77.8175C78.0984 58.5324 78.3351 58.4363 78.5199 58.2477C78.7084 58.0592 78.8045 57.83 78.8045 57.5712C78.8045 57.3161 78.7084 57.0905 78.5199 56.902C78.335 56.7061 78.1021 56.61 77.8175 56.61H76.6307V56.6063Z" fill="#B1CEE7"/>
<path d="M81.3852 57.5453C81.9102 57.5453 82.3242 57.6858 82.6274 57.9667C82.9306 58.2477 83.0821 58.6322 83.0821 59.1202V61.4493H82.4056V60.9243H82.376C82.0839 61.3569 81.692 61.5713 81.204 61.5713C80.7863 61.5713 80.4387 61.4493 80.1578 61.2016C79.8768 60.9539 79.7363 60.647 79.7363 60.2774C79.7363 59.8855 79.8842 59.5749 80.18 59.3457C80.4758 59.1128 80.8713 58.9982 81.363 58.9982C81.7845 58.9982 82.132 59.0759 82.4019 59.2311V59.0685C82.4019 58.8208 82.3058 58.6137 82.1098 58.44C81.9139 58.2662 81.6847 58.1812 81.4222 58.1812C81.0266 58.1812 80.7123 58.3475 80.4831 58.684L79.8583 58.2921C80.2022 57.793 80.7123 57.5453 81.3852 57.5453ZM80.4684 60.2884C80.4684 60.4733 80.546 60.6286 80.7049 60.7505C80.8602 60.8725 81.0451 60.9354 81.2558 60.9354C81.5553 60.9354 81.8214 60.8245 82.0544 60.6027C82.2873 60.3808 82.4056 60.122 82.4056 59.8226C82.1838 59.6488 81.8769 59.5601 81.4813 59.5601C81.193 59.5601 80.9527 59.6303 80.7604 59.7671C80.5645 59.9113 80.4684 60.0851 80.4684 60.2884Z" fill="#B1CEE7"/>
<path d="M86.9414 57.6669L84.5754 63.1088H83.8433L84.7232 61.2049L83.1631 57.6669H83.9357L85.0597 60.3804H85.0745L86.1688 57.6669H86.9414Z" fill="#B1CEE7"/>
<path d="M73.7488 58.0958H70.7734V59.3158L72.487 59.3162C72.4175 59.7221 72.1938 60.0682 71.8511 60.2989V60.2991C71.8512 60.299 71.8514 60.2989 71.8515 60.2989L71.8206 61.028L72.8715 61.09C72.8714 61.0901 72.8712 61.0903 72.8711 61.0904C73.4667 60.5392 73.808 59.7244 73.808 58.7617C73.8079 58.5302 73.7872 58.3088 73.7488 58.0958Z" fill="#B1CEE7"/>
<path d="M71.8519 60.2988C71.8518 60.2989 71.8516 60.2989 71.8515 60.299C71.5676 60.4904 71.2021 60.6023 70.7746 60.6023C69.9483 60.6023 69.2474 60.0455 68.9963 59.295H68.9962C68.9963 59.2952 68.9963 59.2953 68.9963 59.2954L68.119 59.1565L67.9443 60.1116C68.4657 61.1459 69.537 61.8556 70.7746 61.8556C71.6299 61.8556 72.3484 61.5744 72.8715 61.0903C72.8717 61.0902 72.8718 61.09 72.8719 61.0899L71.8519 60.2988Z" fill="#B1CEE7"/>
<path d="M68.8973 58.6894C68.8973 58.4787 68.9324 58.275 68.9964 58.0835L68.7225 57.2672H67.9442C67.7287 57.695 67.6074 58.1778 67.6074 58.6894C67.6074 59.2011 67.7291 59.6839 67.9442 60.1117L67.9444 60.1115L68.9964 59.2954C68.9964 59.2952 68.9963 59.2951 68.9963 59.295C68.9324 59.1036 68.8973 58.9 68.8973 58.6894Z" fill="#B1CEE7"/>
<path d="M70.7748 55.5229C69.5374 55.5229 68.4656 56.2328 67.9443 57.2672L68.9965 58.0835C69.2475 57.333 69.9485 56.7763 70.7747 56.7763C71.2417 56.7763 71.6598 56.9371 71.99 57.2513L72.8939 56.3482C72.3449 55.8368 71.6292 55.5229 70.7748 55.5229Z" fill="#B1CEE7"/>
<path d="M97.8459 56.2727C98.0736 55.9879 98.228 55.6056 98.1873 55.215C97.8541 55.2315 97.4474 55.4348 97.212 55.7198C97.0006 55.9638 96.8135 56.3621 96.8623 56.7364C97.2363 56.7688 97.6101 56.5494 97.8459 56.2727Z" fill="#B1CEE7"/>
<path d="M98.1838 56.8095C97.6406 56.7772 97.1787 57.1178 96.9192 57.1178C96.6597 57.1178 96.2624 56.8259 95.8327 56.8337C95.2735 56.8419 94.7546 57.1581 94.4708 57.661C93.887 58.6671 94.3167 60.1595 94.8844 60.9788C95.16 61.3842 95.4922 61.8305 95.93 61.8145C96.3436 61.7983 96.5057 61.5467 97.0084 61.5467C97.5108 61.5467 97.6568 61.8145 98.0946 61.8064C98.5487 61.7983 98.8325 61.4008 99.1081 60.995C99.4244 60.5329 99.5538 60.0867 99.562 60.0622C99.5538 60.0541 98.6865 59.7214 98.6784 58.7237C98.6702 57.8883 99.3594 57.4909 99.3918 57.4663C99.0027 56.8908 98.3946 56.8259 98.1838 56.8095Z" fill="#B1CEE7"/>
<path d="M102.914 55.6787C104.095 55.6787 104.917 56.4926 104.917 57.6776C104.917 58.8667 104.078 59.6849 102.885 59.6849H101.577V61.7638H100.633V55.6787H102.914ZM101.577 58.892H102.661C103.483 58.892 103.951 58.4493 103.951 57.6818C103.951 56.9143 103.483 56.4758 102.665 56.4758H101.577V58.892Z" fill="#B1CEE7"/>
<path d="M105.164 60.5032C105.164 59.7272 105.759 59.2507 106.813 59.1917L108.027 59.12V58.7785C108.027 58.2851 107.694 57.9899 107.138 57.9899C106.61 57.9899 106.282 58.2429 106.202 58.6393H105.341C105.392 57.838 106.075 57.2477 107.171 57.2477C108.247 57.2477 108.934 57.817 108.934 58.7067V61.764H108.061V61.0345H108.04C107.783 61.5279 107.222 61.8399 106.64 61.8399C105.771 61.8399 105.164 61.3001 105.164 60.5032ZM108.027 60.1026V59.7526L106.935 59.82C106.391 59.858 106.083 60.0984 106.083 60.4779C106.083 60.8658 106.404 61.1189 106.893 61.1189C107.53 61.1188 108.027 60.6803 108.027 60.1026Z" fill="#B1CEE7"/>
<path d="M109.758 63.3958V62.6578C109.825 62.6746 109.977 62.6746 110.053 62.6746C110.475 62.6746 110.702 62.4975 110.842 62.0421C110.842 62.0336 110.922 61.7722 110.922 61.768L109.319 57.3275H110.306L111.428 60.9372H111.445L112.567 57.3275H113.528L111.866 61.9957C111.487 63.0711 111.048 63.4168 110.129 63.4168C110.053 63.4168 109.825 63.4084 109.758 63.3958Z" fill="#B1CEE7"/>
<path d="M22.9287 59.0353C22.706 59.0353 22.5494 59.1756 22.4834 59.4313L23.2504 59.4328C23.2504 59.3846 23.2504 59.3473 23.2504 59.3186C23.2504 59.1394 23.1348 59.0353 22.9287 59.0353Z" fill="#B1CEE7"/>
<path d="M20.6954 59.7998C20.3084 59.7994 20.1104 59.9125 20.1104 60.1356C20.1104 60.2727 20.2013 60.3606 20.3576 60.3606C20.6382 60.3606 20.8359 60.1344 20.8524 59.808C20.7779 59.8006 20.7449 59.7998 20.6954 59.7998Z" fill="#B1CEE7"/>
</svg>
