<svg width="132" height="78" viewBox="0 0 132 78" fill="none" xmlns="http://www.w3.org/2000/svg">
<rect width="132" height="78" rx="4" fill="#B1CEE7"/>
<path d="M58.1073 11.2039V20.1842H56.5715V11.2039H58.1073ZM60.926 11.2039V12.4375H53.7775V11.2039H60.926ZM64.3121 20.3076C63.8187 20.3076 63.3725 20.2274 62.9737 20.067C62.5789 19.9025 62.2418 19.6743 61.9622 19.3824C61.6867 19.0905 61.4749 18.7471 61.3269 18.3524C61.1789 17.9576 61.1049 17.5321 61.1049 17.0757V16.8289C61.1049 16.3067 61.1809 15.8339 61.3331 15.4104C61.4852 14.9868 61.697 14.625 61.9683 14.3248C62.2397 14.0206 62.5604 13.7882 62.9305 13.6279C63.3006 13.4675 63.7015 13.3873 64.1332 13.3873C64.6102 13.3873 65.0275 13.4675 65.3853 13.6279C65.743 13.7882 66.0391 14.0144 66.2734 14.3063C66.5119 14.5942 66.6887 14.9375 66.8039 15.3363C66.9231 15.7352 66.9827 16.1752 66.9827 16.6562V17.2915H61.8265V16.2245H65.5148V16.1073C65.5066 15.84 65.4531 15.5892 65.3544 15.3548C65.2599 15.1205 65.1139 14.9313 64.9165 14.7874C64.7192 14.6435 64.456 14.5715 64.1271 14.5715C63.8803 14.5715 63.6604 14.625 63.4671 14.7319C63.278 14.8347 63.1197 14.9848 62.9922 15.1821C62.8647 15.3795 62.766 15.618 62.6961 15.8976C62.6303 16.1731 62.5975 16.4835 62.5975 16.8289V17.0757C62.5975 17.3676 62.6365 17.639 62.7146 17.8898C62.7969 18.1365 62.9161 18.3524 63.0724 18.5374C63.2286 18.7224 63.4178 18.8684 63.6398 18.9753C63.8618 19.0781 64.1147 19.1295 64.3984 19.1295C64.7562 19.1295 65.0748 19.0576 65.3544 18.9136C65.634 18.7697 65.8766 18.5662 66.0822 18.303L66.8655 19.0617C66.7216 19.2714 66.5345 19.4729 66.3043 19.6661C66.074 19.8553 65.7924 20.0095 65.4593 20.1287C65.1303 20.2479 64.7479 20.3076 64.3121 20.3076ZM69.2771 13.5107L70.5477 15.7249L71.8429 13.5107H73.4774L71.4544 16.7858L73.5576 20.1842H71.9231L70.5662 17.8775L69.2093 20.1842H67.5687L69.6657 16.7858L67.6488 13.5107H69.2771ZM77.5543 13.5107V14.5962H73.7919V13.5107H77.5543ZM74.8775 11.8762H76.3639V18.34C76.3639 18.5456 76.3927 18.7039 76.4502 18.815C76.5119 18.9219 76.5962 18.9938 76.7031 19.0308C76.81 19.0678 76.9354 19.0863 77.0794 19.0863C77.1822 19.0863 77.2808 19.0802 77.3754 19.0678C77.47 19.0555 77.5461 19.0432 77.6036 19.0308L77.6098 20.1657C77.4864 20.2027 77.3425 20.2356 77.178 20.2644C77.0177 20.2932 76.8326 20.3076 76.6229 20.3076C76.2817 20.3076 75.9794 20.2479 75.7163 20.1287C75.4531 20.0053 75.2475 19.8059 75.0995 19.5304C74.9515 19.2549 74.8775 18.889 74.8775 18.4326V11.8762Z" fill="white"/>
<rect x="36.5" y="29.1842" width="59" height="6.63158" rx="3.15789" fill="#F0F7FE"/>
<rect x="16.2513" y="40.0671" width="99.4975" height="30.4975" rx="5.27638" fill="#F0F7FE"/>
<rect x="16.2513" y="40.0671" width="99.4975" height="30.4975" rx="5.27638" stroke="#EDEEF0" stroke-width="0.502513"/>
<path opacity="0.4" d="M76.001 51.1258V59.5058C76.001 63.1458 73.831 65.3158 70.191 65.3158H61.811C58.171 65.3158 56.001 63.1458 56.001 59.5058V51.1258C56.001 50.6158 56.041 50.1258 56.131 49.6758C56.641 46.9258 58.671 45.3258 61.771 45.3158H70.231C73.331 45.3258 75.361 46.9258 75.871 49.6758C75.961 50.1258 76.001 50.6158 76.001 51.1258Z" fill="#B1CEE7"/>
<path d="M76.001 51.1258V51.1758H56.001V51.1258C56.001 50.6158 56.041 50.1258 56.131 49.6758H61.771V45.3158H63.271V49.6758H68.731V45.3158H70.231V49.6758H75.871C75.961 50.1258 76.001 50.6158 76.001 51.1258Z" fill="#B1CEE7"/>
<path d="M68.4411 56.0367L66.3611 54.8367C65.5911 54.3967 64.8511 54.3367 64.2711 54.6667C63.6911 54.9967 63.3711 55.6767 63.3711 56.5567V58.9567C63.3711 59.8367 63.6911 60.5167 64.2711 60.8467C64.5211 60.9867 64.8011 61.0567 65.0911 61.0567C65.4911 61.0567 65.9211 60.9267 66.3611 60.6767L68.4411 59.4767C69.2111 59.0367 69.6311 58.4167 69.6311 57.7467C69.6311 57.0767 69.2011 56.4867 68.4411 56.0367Z" fill="#B1CEE7"/>
</svg>
