<svg width="132" height="78" viewBox="0 0 132 78" fill="none" xmlns="http://www.w3.org/2000/svg">
<rect width="132" height="78" rx="4" fill="#B1CEE7"/>
<rect x="31.2513" y="13.7513" width="69.4975" height="50.4975" rx="5.27638" fill="#F0F7FE"/>
<rect x="31.2513" y="13.7513" width="69.4975" height="50.4975" rx="5.27638" stroke="#EDEEF0" stroke-width="0.502513"/>
<g clip-path="url(#clip0_13832_15436)">
<path opacity="0.2" fill-rule="evenodd" clip-rule="evenodd" d="M72.9955 49.3749H58.5774C56.59 49.3749 54.9824 47.7673 54.9824 45.7799V31.7796C54.9824 29.8049 56.59 28.1973 58.5774 28.1973H72.9955C74.9702 28.1973 76.5778 29.8049 76.5778 31.7796V45.7799C76.5778 47.7673 74.9702 49.3749 72.9955 49.3749Z" fill="#B1CEE7"/>
<path opacity="0.4" fill-rule="evenodd" clip-rule="evenodd" d="M76.5776 38.5772V45.7799C76.5776 46.8812 76.0966 47.8559 75.3118 48.5141L65.8052 39.8177C65.5521 39.8937 65.3622 39.5772 65.5647 39.3873L69.4003 35.843C70.6028 34.729 72.4889 34.7923 73.7928 35.9949L76.5776 38.5772Z" fill="#B1CEE7"/>
<path fill-rule="evenodd" clip-rule="evenodd" d="M63.0334 34.9188C62.1473 34.9188 61.4131 34.1846 61.4131 33.2859C61.4131 32.3998 62.1473 31.6656 63.0334 31.6656C63.9321 31.6656 64.6537 32.3998 64.6537 33.2859C64.6537 34.1846 63.9321 34.9188 63.0334 34.9188Z" fill="#B1CEE7"/>
<path fill-rule="evenodd" clip-rule="evenodd" d="M63.0341 31.3366C62.6797 31.3366 62.781 30.8049 62.781 30.3113C62.781 29.9695 63.2873 29.9695 63.2873 30.3113C63.2873 30.8049 63.3886 31.3366 63.0341 31.3366Z" fill="#B1CEE7"/>
<path fill-rule="evenodd" clip-rule="evenodd" d="M64.1348 31.6279C63.9449 31.6279 63.8183 31.4253 63.9196 31.2481C64.1601 30.8177 64.35 30.3114 64.6538 30.4886C64.9576 30.6658 64.6032 31.0835 64.3627 31.5013C64.312 31.5899 64.2234 31.6279 64.1348 31.6279Z" fill="#B1CEE7"/>
<path fill-rule="evenodd" clip-rule="evenodd" d="M64.9449 32.4379C64.6918 32.4379 64.5905 32.0961 64.8183 31.9695C65.2487 31.7164 65.6665 31.3619 65.8437 31.6784C66.0462 32.0328 65.0209 32.4379 64.9449 32.4379Z" fill="#B1CEE7"/>
<path fill-rule="evenodd" clip-rule="evenodd" d="M66.0205 33.5392C65.5141 33.5392 64.9951 33.6531 64.9951 33.286C64.9951 32.9316 65.5141 33.0329 66.0205 33.0329C66.3496 33.0329 66.3496 33.5392 66.0205 33.5392Z" fill="#B1CEE7"/>
<path fill-rule="evenodd" clip-rule="evenodd" d="M65.6156 35.033C65.489 35.033 64.9953 34.7165 64.8181 34.6153C64.5396 34.4507 64.7928 34.0076 65.0712 34.1722C65.5016 34.4254 66.0206 34.6026 65.8434 34.9064C65.7928 34.995 65.7042 35.033 65.6156 35.033Z" fill="#B1CEE7"/>
<path fill-rule="evenodd" clip-rule="evenodd" d="M64.5272 36.1342C64.2994 36.1342 64.1348 35.6911 63.9196 35.3367C63.7551 35.0455 64.1854 34.7924 64.3627 35.0835C64.5146 35.3494 65.0969 36.1342 64.5272 36.1342Z" fill="#B1CEE7"/>
<path fill-rule="evenodd" clip-rule="evenodd" d="M63.0341 36.5265C62.6797 36.5265 62.781 36.0075 62.781 35.5012C62.781 35.1721 63.2873 35.1721 63.2873 35.5012C63.2873 35.9949 63.3886 36.5265 63.0341 36.5265Z" fill="#B1CEE7"/>
<path fill-rule="evenodd" clip-rule="evenodd" d="M61.5401 36.1342C61.3502 36.1342 61.2236 35.919 61.3249 35.7545C61.5654 35.3241 61.7553 34.8051 62.0591 34.9823C62.3629 35.1595 62.0084 35.5773 61.7679 36.0076C61.7173 36.0836 61.6287 36.1342 61.5401 36.1342Z" fill="#B1CEE7"/>
<path fill-rule="evenodd" clip-rule="evenodd" d="M60.4508 35.0329C60.1976 35.0329 60.0963 34.6911 60.3242 34.5645C60.7546 34.3114 61.1597 33.9696 61.3369 34.2734C61.5268 34.5772 61.0078 34.7544 60.5774 35.0076C60.5394 35.0203 60.4888 35.0329 60.4508 35.0329Z" fill="#B1CEE7"/>
<path fill-rule="evenodd" clip-rule="evenodd" d="M60.831 33.5392C60.3246 33.5392 59.793 33.6531 59.793 33.286C59.793 32.9316 60.3246 33.0329 60.831 33.0329C61.1601 33.0329 61.1601 33.5392 60.831 33.5392Z" fill="#B1CEE7"/>
<path fill-rule="evenodd" clip-rule="evenodd" d="M61.1227 32.438C60.9961 32.438 60.4898 32.1215 60.3252 32.0202C60.0341 31.8557 60.2872 31.4126 60.5784 31.5772C61.0088 31.8303 61.5151 32.0076 61.3379 32.3114C61.2999 32.4 61.2113 32.438 61.1227 32.438Z" fill="#B1CEE7"/>
<path fill-rule="evenodd" clip-rule="evenodd" d="M61.9325 31.6276C61.7046 31.6276 61.5274 31.1972 61.3249 30.8301C61.1603 30.5517 61.5907 30.2858 61.7679 30.577C61.9198 30.8428 62.5021 31.6276 61.9325 31.6276Z" fill="#B1CEE7"/>
<path fill-rule="evenodd" clip-rule="evenodd" d="M72.9955 49.375H58.5774C56.59 49.375 54.9824 47.7674 54.9824 45.78V43.4761L60.5395 38.3368C61.7421 37.2228 63.6282 37.2861 64.932 38.4887L75.5398 48.3117C74.8942 48.9699 73.9955 49.375 72.9955 49.375Z" fill="#B1CEE7"/>
</g>
<defs>
<clipPath id="clip0_13832_15436">
<rect width="21.608" height="21.608" fill="white" transform="translate(54.9824 27.9822)"/>
</clipPath>
</defs>
</svg>
