<svg width="132" height="78" viewBox="0 0 132 78" fill="none" xmlns="http://www.w3.org/2000/svg">
<rect width="132" height="78" rx="4" fill="#B1CEE7"/>
<path d="M58.1073 11.2039V20.1842H56.5715V11.2039H58.1073ZM60.926 11.2039V12.4375H53.7775V11.2039H60.926ZM64.3121 20.3076C63.8187 20.3076 63.3725 20.2274 62.9737 20.067C62.5789 19.9025 62.2418 19.6743 61.9622 19.3824C61.6867 19.0905 61.4749 18.7471 61.3269 18.3524C61.1789 17.9576 61.1049 17.5321 61.1049 17.0757V16.8289C61.1049 16.3067 61.1809 15.8339 61.3331 15.4104C61.4852 14.9868 61.697 14.625 61.9683 14.3248C62.2397 14.0206 62.5604 13.7882 62.9305 13.6279C63.3006 13.4675 63.7015 13.3873 64.1332 13.3873C64.6102 13.3873 65.0275 13.4675 65.3853 13.6279C65.743 13.7882 66.0391 14.0144 66.2734 14.3063C66.5119 14.5942 66.6887 14.9375 66.8039 15.3363C66.9231 15.7352 66.9827 16.1752 66.9827 16.6562V17.2915H61.8265V16.2245H65.5148V16.1073C65.5066 15.84 65.4531 15.5892 65.3544 15.3548C65.2599 15.1205 65.1139 14.9313 64.9165 14.7874C64.7192 14.6435 64.456 14.5715 64.1271 14.5715C63.8803 14.5715 63.6604 14.625 63.4671 14.7319C63.278 14.8347 63.1197 14.9848 62.9922 15.1821C62.8647 15.3795 62.766 15.618 62.6961 15.8976C62.6303 16.1731 62.5975 16.4835 62.5975 16.8289V17.0757C62.5975 17.3676 62.6365 17.639 62.7146 17.8898C62.7969 18.1365 62.9161 18.3524 63.0724 18.5374C63.2286 18.7224 63.4178 18.8684 63.6398 18.9753C63.8618 19.0781 64.1147 19.1295 64.3984 19.1295C64.7562 19.1295 65.0748 19.0576 65.3544 18.9136C65.634 18.7697 65.8766 18.5662 66.0822 18.303L66.8655 19.0617C66.7216 19.2714 66.5345 19.4729 66.3043 19.6661C66.074 19.8553 65.7924 20.0095 65.4593 20.1287C65.1303 20.2479 64.7479 20.3076 64.3121 20.3076ZM69.2771 13.5107L70.5477 15.7249L71.8429 13.5107H73.4774L71.4544 16.7858L73.5576 20.1842H71.9231L70.5662 17.8775L69.2093 20.1842H67.5687L69.6657 16.7858L67.6488 13.5107H69.2771ZM77.5543 13.5107V14.5962H73.7919V13.5107H77.5543ZM74.8775 11.8762H76.3639V18.34C76.3639 18.5456 76.3927 18.7039 76.4502 18.815C76.5119 18.9219 76.5962 18.9938 76.7031 19.0308C76.81 19.0678 76.9354 19.0863 77.0794 19.0863C77.1822 19.0863 77.2808 19.0802 77.3754 19.0678C77.47 19.0555 77.5461 19.0432 77.6036 19.0308L77.6098 20.1657C77.4864 20.2027 77.3425 20.2356 77.178 20.2644C77.0177 20.2932 76.8326 20.3076 76.6229 20.3076C76.2817 20.3076 75.9794 20.2479 75.7163 20.1287C75.4531 20.0053 75.2475 19.8059 75.0995 19.5304C74.9515 19.2549 74.8775 18.889 74.8775 18.4326V11.8762Z" fill="white"/>
<rect x="36.5" y="29.1842" width="59" height="6.63158" rx="3.15789" fill="#F0F7FE"/>
<rect x="16.2513" y="40.0671" width="99.4975" height="30.4975" rx="5.27638" fill="#F0F7FE"/>
<rect x="16.2513" y="40.0671" width="99.4975" height="30.4975" rx="5.27638" stroke="#EDEEF0" stroke-width="0.502513"/>
<g clip-path="url(#clip0_13832_17660)">
<path opacity="0.2" fill-rule="evenodd" clip-rule="evenodd" d="M72.9955 65.6907H58.5774C56.59 65.6907 54.9824 64.0831 54.9824 62.0957V48.0954C54.9824 46.1207 56.59 44.5131 58.5774 44.5131H72.9955C74.9702 44.5131 76.5778 46.1207 76.5778 48.0954V62.0957C76.5778 64.0831 74.9702 65.6907 72.9955 65.6907Z" fill="#B1CEE7"/>
<path opacity="0.4" fill-rule="evenodd" clip-rule="evenodd" d="M76.5776 54.893V62.0957C76.5776 63.1969 76.0966 64.1717 75.3118 64.8299L65.8052 56.1335C65.5521 56.2095 65.3622 55.893 65.5647 55.7031L69.4003 52.1587C70.6028 51.0448 72.4889 51.1081 73.7928 52.3106L76.5776 54.893Z" fill="#B1CEE7"/>
<path fill-rule="evenodd" clip-rule="evenodd" d="M63.0334 51.2347C62.1473 51.2347 61.4131 50.5005 61.4131 49.6017C61.4131 48.7156 62.1473 47.9814 63.0334 47.9814C63.9321 47.9814 64.6537 48.7156 64.6537 49.6017C64.6537 50.5005 63.9321 51.2347 63.0334 51.2347Z" fill="#B1CEE7"/>
<path fill-rule="evenodd" clip-rule="evenodd" d="M63.0341 47.6524C62.6797 47.6524 62.781 47.1207 62.781 46.6271C62.781 46.2853 63.2873 46.2853 63.2873 46.6271C63.2873 47.1207 63.3886 47.6524 63.0341 47.6524Z" fill="#B1CEE7"/>
<path fill-rule="evenodd" clip-rule="evenodd" d="M64.1348 47.9437C63.9449 47.9437 63.8183 47.7411 63.9196 47.5639C64.1601 47.1335 64.35 46.6272 64.6538 46.8044C64.9576 46.9816 64.6032 47.3993 64.3627 47.8171C64.312 47.9057 64.2234 47.9437 64.1348 47.9437Z" fill="#B1CEE7"/>
<path fill-rule="evenodd" clip-rule="evenodd" d="M64.9449 48.7536C64.6918 48.7536 64.5905 48.4119 64.8183 48.2853C65.2487 48.0321 65.6665 47.6777 65.8437 47.9941C66.0462 48.3486 65.0209 48.7536 64.9449 48.7536Z" fill="#B1CEE7"/>
<path fill-rule="evenodd" clip-rule="evenodd" d="M66.0205 49.8549C65.5141 49.8549 64.9951 49.9689 64.9951 49.6018C64.9951 49.2473 65.5141 49.3486 66.0205 49.3486C66.3496 49.3486 66.3496 49.8549 66.0205 49.8549Z" fill="#B1CEE7"/>
<path fill-rule="evenodd" clip-rule="evenodd" d="M65.6156 51.3488C65.489 51.3488 64.9953 51.0324 64.8181 50.9311C64.5396 50.7666 64.7928 50.3235 65.0712 50.4881C65.5016 50.7412 66.0206 50.9185 65.8434 51.2223C65.7928 51.3109 65.7042 51.3488 65.6156 51.3488Z" fill="#B1CEE7"/>
<path fill-rule="evenodd" clip-rule="evenodd" d="M64.5272 52.45C64.2994 52.45 64.1348 52.0069 63.9196 51.6525C63.7551 51.3613 64.1854 51.1082 64.3627 51.3993C64.5146 51.6651 65.0969 52.45 64.5272 52.45Z" fill="#B1CEE7"/>
<path fill-rule="evenodd" clip-rule="evenodd" d="M63.0341 52.8422C62.6797 52.8422 62.781 52.3232 62.781 51.8169C62.781 51.4878 63.2873 51.4878 63.2873 51.8169C63.2873 52.3106 63.3886 52.8422 63.0341 52.8422Z" fill="#B1CEE7"/>
<path fill-rule="evenodd" clip-rule="evenodd" d="M61.5401 52.45C61.3502 52.45 61.2236 52.2348 61.3249 52.0703C61.5654 51.6399 61.7553 51.1209 62.0591 51.2981C62.3629 51.4753 62.0084 51.8931 61.7679 52.3234C61.7173 52.3994 61.6287 52.45 61.5401 52.45Z" fill="#B1CEE7"/>
<path fill-rule="evenodd" clip-rule="evenodd" d="M60.4508 51.3487C60.1976 51.3487 60.0963 51.0069 60.3242 50.8803C60.7546 50.6272 61.1597 50.2854 61.3369 50.5892C61.5268 50.893 61.0078 51.0702 60.5774 51.3234C60.5394 51.336 60.4888 51.3487 60.4508 51.3487Z" fill="#B1CEE7"/>
<path fill-rule="evenodd" clip-rule="evenodd" d="M60.831 49.8549C60.3246 49.8549 59.793 49.9689 59.793 49.6018C59.793 49.2473 60.3246 49.3486 60.831 49.3486C61.1601 49.3486 61.1601 49.8549 60.831 49.8549Z" fill="#B1CEE7"/>
<path fill-rule="evenodd" clip-rule="evenodd" d="M61.1227 48.7537C60.9961 48.7537 60.4898 48.4373 60.3252 48.336C60.0341 48.1715 60.2872 47.7284 60.5784 47.893C61.0088 48.1461 61.5151 48.3234 61.3379 48.6272C61.2999 48.7158 61.2113 48.7537 61.1227 48.7537Z" fill="#B1CEE7"/>
<path fill-rule="evenodd" clip-rule="evenodd" d="M61.9325 47.9434C61.7046 47.9434 61.5274 47.513 61.3249 47.1459C61.1603 46.8675 61.5907 46.6016 61.7679 46.8928C61.9198 47.1586 62.5021 47.9434 61.9325 47.9434Z" fill="#B1CEE7"/>
<path fill-rule="evenodd" clip-rule="evenodd" d="M72.9955 65.6907H58.5774C56.59 65.6907 54.9824 64.0831 54.9824 62.0957V59.7919L60.5395 54.6525C61.7421 53.5386 63.6282 53.6019 64.932 54.8044L75.5398 64.6274C74.8942 65.2857 73.9955 65.6907 72.9955 65.6907Z" fill="#B1CEE7"/>
</g>
<defs>
<clipPath id="clip0_13832_17660">
<rect width="21.608" height="21.608" fill="white" transform="translate(54.9824 44.298)"/>
</clipPath>
</defs>
</svg>
