<svg width="132" height="78" viewBox="0 0 132 78" fill="none" xmlns="http://www.w3.org/2000/svg">
<rect width="132" height="78" rx="4" fill="#F0F7FE"/>
<rect x="16" y="23.6842" width="100" height="30.6316" rx="3.15789" fill="#B1CEE7"/>
<path d="M51.2804 38.9416H48.9922L48.9799 37.8129H50.9782C51.3154 37.8129 51.6012 37.7636 51.8355 37.6649C52.074 37.5621 52.2549 37.4161 52.3783 37.227C52.5016 37.0337 52.5633 36.8014 52.5633 36.53C52.5633 36.2299 52.5058 35.9852 52.3906 35.7961C52.2755 35.6069 52.0987 35.4692 51.8602 35.3828C51.6258 35.2965 51.3257 35.2533 50.9597 35.2533H49.4609V43H47.9128V34.0197H50.9597C51.4531 34.0197 51.8931 34.067 52.2796 34.1616C52.6702 34.2562 53.0012 34.4042 53.2726 34.6057C53.5481 34.803 53.7558 35.0539 53.8956 35.3581C54.0395 35.6624 54.1114 36.0243 54.1114 36.4437C54.1114 36.8137 54.023 37.153 53.8462 37.4613C53.6694 37.7656 53.4083 38.0144 53.0629 38.2076C52.7175 38.4009 52.2878 38.516 51.7738 38.553L51.2804 38.9416ZM51.2126 43H48.5049L49.2019 41.7726H51.2126C51.5621 41.7726 51.854 41.715 52.0884 41.5999C52.3228 41.4807 52.4975 41.3183 52.6127 41.1127C52.7319 40.903 52.7915 40.6583 52.7915 40.3787C52.7915 40.0868 52.7401 39.8339 52.6373 39.6201C52.5345 39.4021 52.3721 39.2356 52.1501 39.1205C51.928 39.0012 51.6382 38.9416 51.2804 38.9416H49.5411L49.5535 37.8129H51.817L52.1686 38.2385C52.662 38.2549 53.067 38.3639 53.3836 38.5654C53.7044 38.7669 53.9428 39.028 54.0991 39.3487C54.2553 39.6694 54.3335 40.0148 54.3335 40.3849C54.3335 40.9564 54.2081 41.4354 53.9572 41.822C53.7105 42.2085 53.3549 42.5025 52.8902 42.7039C52.4256 42.9013 51.8664 43 51.2126 43ZM59.7611 41.4272V36.3265H61.2537V43H59.8475L59.7611 41.4272ZM59.9708 40.0395L60.4704 40.0271C60.4704 40.4753 60.4211 40.8886 60.3224 41.2669C60.2237 41.641 60.0715 41.9679 59.866 42.2475C59.6604 42.523 59.3972 42.7389 59.0765 42.8951C58.7558 43.0473 58.3713 43.1234 57.9231 43.1234C57.5983 43.1234 57.3002 43.0761 57.0288 42.9815C56.7574 42.8869 56.523 42.741 56.3257 42.5436C56.1324 42.3462 55.9823 42.0892 55.8754 41.7726C55.7685 41.456 55.715 41.0777 55.715 40.6377V36.3265H57.2015V40.6501C57.2015 40.8927 57.2303 41.0962 57.2878 41.2607C57.3454 41.4211 57.4235 41.5506 57.5222 41.6493C57.6209 41.7479 57.736 41.8178 57.8676 41.859C57.9992 41.9001 58.139 41.9206 58.287 41.9206C58.7105 41.9206 59.0436 41.8384 59.2862 41.6739C59.5329 41.5053 59.7076 41.2792 59.8104 40.9955C59.9174 40.7118 59.9708 40.3931 59.9708 40.0395ZM65.8364 36.3265V37.412H62.074V36.3265H65.8364ZM63.1595 34.692H64.646V41.1558C64.646 41.3614 64.6748 41.5197 64.7323 41.6308C64.794 41.7377 64.8783 41.8096 64.9852 41.8466C65.0921 41.8836 65.2175 41.9021 65.3614 41.9021C65.4642 41.9021 65.5629 41.896 65.6575 41.8836C65.7521 41.8713 65.8281 41.859 65.8857 41.8466L65.8919 42.9815C65.7685 43.0185 65.6246 43.0514 65.4601 43.0802C65.2998 43.109 65.1147 43.1234 64.905 43.1234C64.5637 43.1234 64.2615 43.0637 63.9984 42.9445C63.7352 42.8211 63.5296 42.6217 63.3816 42.3462C63.2336 42.0707 63.1595 41.7048 63.1595 41.2484V34.692ZM70.0428 36.3265V37.412H66.2804V36.3265H70.0428ZM67.366 34.692H68.8524V41.1558C68.8524 41.3614 68.8812 41.5197 68.9387 41.6308C69.0004 41.7377 69.0847 41.8096 69.1916 41.8466C69.2985 41.8836 69.4239 41.9021 69.5678 41.9021C69.6706 41.9021 69.7693 41.896 69.8639 41.8836C69.9585 41.8713 70.0345 41.859 70.0921 41.8466L70.0983 42.9815C69.9749 43.0185 69.831 43.0514 69.6665 43.0802C69.5062 43.109 69.3211 43.1234 69.1114 43.1234C68.7701 43.1234 68.4679 43.0637 68.2048 42.9445C67.9416 42.8211 67.736 42.6217 67.588 42.3462C67.44 42.0707 67.366 41.7048 67.366 41.2484V34.692ZM70.7582 39.7373V39.5954C70.7582 39.1143 70.8281 38.6682 70.9679 38.257C71.1077 37.8417 71.3092 37.4819 71.5724 37.1776C71.8396 36.8692 72.1645 36.6308 72.5469 36.4622C72.9334 36.2895 73.3692 36.2031 73.8544 36.2031C74.3438 36.2031 74.7796 36.2895 75.162 36.4622C75.5485 36.6308 75.8754 36.8692 76.1427 37.1776C76.41 37.4819 76.6135 37.8417 76.7533 38.257C76.8931 38.6682 76.963 39.1143 76.963 39.5954V39.7373C76.963 40.2183 76.8931 40.6645 76.7533 41.0757C76.6135 41.4868 76.41 41.8466 76.1427 42.155C75.8754 42.4593 75.5506 42.6978 75.1682 42.8705C74.7858 43.0391 74.352 43.1234 73.8668 43.1234C73.3775 43.1234 72.9396 43.0391 72.553 42.8705C72.1706 42.6978 71.8458 42.4593 71.5785 42.155C71.3113 41.8466 71.1077 41.4868 70.9679 41.0757C70.8281 40.6645 70.7582 40.2183 70.7582 39.7373ZM72.2447 39.5954V39.7373C72.2447 40.0374 72.2755 40.3211 72.3372 40.5884C72.3989 40.8557 72.4955 41.09 72.6271 41.2915C72.7586 41.493 72.9272 41.6513 73.1328 41.7664C73.3384 41.8816 73.5831 41.9391 73.8668 41.9391C74.1423 41.9391 74.3808 41.8816 74.5822 41.7664C74.7878 41.6513 74.9564 41.493 75.088 41.2915C75.2196 41.09 75.3162 40.8557 75.3779 40.5884C75.4437 40.3211 75.4766 40.0374 75.4766 39.7373V39.5954C75.4766 39.2993 75.4437 39.0197 75.3779 38.7566C75.3162 38.4893 75.2175 38.2529 75.0818 38.0473C74.9502 37.8417 74.7817 37.6813 74.5761 37.5662C74.3746 37.447 74.134 37.3873 73.8544 37.3873C73.5748 37.3873 73.3322 37.447 73.1266 37.5662C72.9252 37.6813 72.7586 37.8417 72.6271 38.0473C72.4955 38.2529 72.3989 38.4893 72.3372 38.7566C72.2755 39.0197 72.2447 39.2993 72.2447 39.5954ZM79.683 37.7512V43H78.1965V36.3265H79.5966L79.683 37.7512ZM79.4178 39.4165L78.9367 39.4104C78.9408 38.9375 79.0066 38.5037 79.134 38.109C79.2656 37.7142 79.4465 37.375 79.6768 37.0913C79.9112 36.8076 80.1908 36.5896 80.5156 36.4375C80.8405 36.2812 81.2023 36.2031 81.6012 36.2031C81.9219 36.2031 82.2118 36.2484 82.4708 36.3388C82.734 36.4252 82.9581 36.567 83.1431 36.7644C83.3322 36.9618 83.4762 37.2187 83.5748 37.5354C83.6735 37.8479 83.7229 38.2323 83.7229 38.6887V43H82.2303V38.6826C82.2303 38.3618 82.183 38.109 82.0884 37.9239C81.9979 37.7348 81.8643 37.6012 81.6875 37.523C81.5148 37.4408 81.2989 37.3997 81.0399 37.3997C80.785 37.3997 80.5567 37.4531 80.3553 37.56C80.1538 37.6669 79.9831 37.8129 79.8433 37.9979C79.7076 38.183 79.6028 38.3968 79.5288 38.6394C79.4548 38.882 79.4178 39.141 79.4178 39.4165Z" fill="white"/>
</svg>
