<svg width="80" height="79" viewBox="0 0 80 79" fill="none" xmlns="http://www.w3.org/2000/svg">
<g clip-path="url(#clip0_13840_43500)">
<path opacity="0.2" fill-rule="evenodd" clip-rule="evenodd" d="M66.2996 78.1315H13.6978C6.44719 78.1315 0.582031 72.2664 0.582031 65.0157V13.938C0.582031 6.73357 6.44719 0.868408 13.6978 0.868408H66.2996C73.504 0.868408 79.3692 6.73357 79.3692 13.938V65.0157C79.3692 72.2664 73.504 78.1315 66.2996 78.1315Z" fill="#9198A4"/>
<path opacity="0.4" fill-rule="evenodd" clip-rule="evenodd" d="M79.3686 38.7378V65.0156C79.3686 69.0335 77.6136 72.5895 74.7503 74.991L40.0674 43.2637C39.1437 43.5408 38.451 42.3862 39.1899 41.6935L53.1832 28.7624C57.5705 24.6984 64.4517 24.9293 69.2085 29.3166L79.3686 38.7378Z" fill="#9198A4"/>
<path fill-rule="evenodd" clip-rule="evenodd" d="M29.9602 25.3913C26.7274 25.3913 24.0488 22.7128 24.0488 19.4338C24.0488 16.201 26.7274 13.5225 29.9602 13.5225C33.2391 13.5225 35.8715 16.201 35.8715 19.4338C35.8715 22.7128 33.2391 25.3913 29.9602 25.3913Z" fill="#9198A4"/>
<path fill-rule="evenodd" clip-rule="evenodd" d="M29.9549 12.3217C28.6618 12.3217 29.0313 10.3821 29.0313 8.58095C29.0313 7.33402 30.8786 7.33402 30.8786 8.58095C30.8786 10.3821 31.248 12.3217 29.9549 12.3217Z" fill="#9198A4"/>
<path fill-rule="evenodd" clip-rule="evenodd" d="M33.9783 13.3839C33.2856 13.3839 32.8237 12.645 33.1932 11.9984C34.0707 10.4282 34.7634 8.58094 35.8718 9.22749C36.9801 9.87404 35.687 11.3981 34.8096 12.9221C34.6248 13.2454 34.3016 13.3839 33.9783 13.3839Z" fill="#9198A4"/>
<path fill-rule="evenodd" clip-rule="evenodd" d="M36.9347 16.3395C36.011 16.3395 35.6416 15.0926 36.4729 14.6307C38.0431 13.7071 39.5671 12.414 40.2136 13.5685C40.9526 14.8616 37.2118 16.3395 36.9347 16.3395Z" fill="#9198A4"/>
<path fill-rule="evenodd" clip-rule="evenodd" d="M40.856 20.3576C39.0087 20.3576 37.1152 20.7732 37.1152 19.4339C37.1152 18.1408 39.0087 18.5103 40.856 18.5103C42.0567 18.5103 42.0567 20.3576 40.856 20.3576Z" fill="#9198A4"/>
<path fill-rule="evenodd" clip-rule="evenodd" d="M39.3815 25.8069C38.9197 25.8069 37.1186 24.6524 36.472 24.2829C35.456 23.6825 36.3797 22.0661 37.3957 22.6665C38.9659 23.5902 40.8593 24.2367 40.2128 25.3451C40.0281 25.6684 39.7048 25.8069 39.3815 25.8069Z" fill="#9198A4"/>
<path fill-rule="evenodd" clip-rule="evenodd" d="M35.4076 29.8248C34.5764 29.8248 33.976 28.2084 33.1909 26.9153C32.5905 25.8531 34.1607 24.9294 34.8073 25.9916C35.3615 26.9615 37.4859 29.8248 35.4076 29.8248Z" fill="#9198A4"/>
<path fill-rule="evenodd" clip-rule="evenodd" d="M29.9549 31.2566C28.6618 31.2566 29.0313 29.3631 29.0313 27.5158C29.0313 26.315 30.8786 26.315 30.8786 27.5158C30.8786 29.3169 31.248 31.2566 29.9549 31.2566Z" fill="#9198A4"/>
<path fill-rule="evenodd" clip-rule="evenodd" d="M24.5095 29.8246C23.8168 29.8246 23.355 29.0395 23.7244 28.4391C24.6019 26.8689 25.2946 24.9755 26.403 25.622C27.5114 26.2686 26.2183 27.7926 25.3408 29.3628C25.1561 29.6399 24.8328 29.8246 24.5095 29.8246Z" fill="#9198A4"/>
<path fill-rule="evenodd" clip-rule="evenodd" d="M20.5362 25.807C19.6126 25.807 19.2431 24.5601 20.0744 24.0983C21.6446 23.1746 23.1225 21.9277 23.769 23.0361C24.4617 24.1445 22.5683 24.791 20.9981 25.7147C20.8595 25.7609 20.6748 25.807 20.5362 25.807Z" fill="#9198A4"/>
<path fill-rule="evenodd" clip-rule="evenodd" d="M21.9217 20.3576C20.0744 20.3576 18.1348 20.7732 18.1348 19.4339C18.1348 18.1408 20.0744 18.5103 21.9217 18.5103C23.1225 18.5103 23.1225 20.3576 21.9217 20.3576Z" fill="#9198A4"/>
<path fill-rule="evenodd" clip-rule="evenodd" d="M22.9834 16.3394C22.5216 16.3394 20.6743 15.1848 20.0739 14.8154C19.0117 14.215 19.9354 12.5986 20.9976 13.199C22.5678 14.1226 24.4151 14.7692 23.7685 15.8776C23.63 16.2008 23.3067 16.3394 22.9834 16.3394Z" fill="#9198A4"/>
<path fill-rule="evenodd" clip-rule="evenodd" d="M25.9369 13.3841C25.1057 13.3841 24.4591 11.8139 23.7202 10.4746C23.1198 9.45855 24.69 8.48872 25.3366 9.55092C25.8908 10.5207 28.0152 13.3841 25.9369 13.3841Z" fill="#9198A4"/>
<path fill-rule="evenodd" clip-rule="evenodd" d="M66.2996 78.1317H13.6978C6.44719 78.1317 0.582031 72.2666 0.582031 65.0159V56.6107L20.8561 37.8607C25.2434 33.7966 32.1246 34.0275 36.8814 38.4149L75.5822 74.2524C73.2269 76.6539 69.948 78.1317 66.2996 78.1317Z" fill="#9198A4"/>
</g>
<defs>
<clipPath id="clip0_13840_43500">
<rect width="78.8333" height="78.8333" fill="white" transform="translate(0.583984 0.083374)"/>
</clipPath>
</defs>
</svg>
