<svg width="86" height="87" viewBox="0 0 86 87" fill="none" xmlns="http://www.w3.org/2000/svg">
<path opacity="0.4" d="M78.8327 28.4858V58.5141C78.8327 71.5575 71.0569 79.3333 58.0135 79.3333H27.9852C14.9418 79.3333 7.16602 71.5575 7.16602 58.5141V28.4858C7.16602 26.6583 7.30935 24.9025 7.63185 23.29C9.45935 13.4358 16.7335 7.70246 27.8418 7.66663H58.1568C69.2652 7.70246 76.5394 13.4358 78.3669 23.29C78.6894 24.9025 78.8327 26.6583 78.8327 28.4858Z" fill="#9198A4"/>
<path d="M78.8327 28.4858V28.665H7.16602V28.4858C7.16602 26.6583 7.30935 24.9025 7.63185 23.29H27.8418V7.66663H33.2169V23.29H52.7818V7.66663H58.1568V23.29H78.3669C78.6894 24.9025 78.8327 26.6583 78.8327 28.4858Z" fill="#9198A4"/>
<path d="M51.7476 46.0829L44.2943 41.7829C41.5351 40.2062 38.8834 39.9912 36.8051 41.1737C34.7267 42.3562 33.5801 44.7929 33.5801 47.9462V56.5462C33.5801 59.6995 34.7267 62.1362 36.8051 63.3187C37.7009 63.8204 38.7043 64.0712 39.7434 64.0712C41.1768 64.0712 42.7176 63.6054 44.2943 62.7095L51.7476 58.4095C54.5068 56.8329 56.0118 54.6112 56.0118 52.2104C56.0118 49.8095 54.4709 47.6954 51.7476 46.0829Z" fill="#9198A4"/>
</svg>
