<svg xmlns="http://www.w3.org/2000/svg" viewBox="0 0 88.04 82.13"><defs><style>.cls-1{fill:#7b73b5;}.cls-2{fill:#fff;}.cls-3{fill:#3b5998;}.cls-4{fill:#999;}</style></defs><title>ic-gruop_1</title><g id="Слой_2" data-name="Слой 2"><g id="Слой_2-2" data-name="Слой 2"><g id="_Группа_" data-name="&lt;Группа&gt;"><g id="_Группа_2" data-name="&lt;Группа&gt;"><path id="_Составной_контур_" data-name="&lt;Составной контур&gt;" class="cls-1" d="M15.17,14.84a28.94,28.94,0,0,1,7.38.89A9.48,9.48,0,0,1,30,23.82,29,29,0,0,1,30.25,32a15.92,15.92,0,0,1-1,4.8,9,9,0,0,1-6.39,5.28,31.3,31.3,0,0,1-9.72.89.83.83,0,0,0-.57.25c-.83.9-1.63,1.82-2.45,2.74a3.49,3.49,0,0,1-.45.44c-1.05.82-2.08.44-2.23-.88a22,22,0,0,1-.05-2.92.7.7,0,0,0-.56-.82A9.14,9.14,0,0,1,.55,34.43,26.68,26.68,0,0,1,.77,22.66a8.81,8.81,0,0,1,6-6.58A24.83,24.83,0,0,1,15.17,14.84Z"/><path id="_Контур_" data-name="&lt;Контур&gt;" class="cls-2" d="M9.68,21.4a3.07,3.07,0,0,1,.95.53,28.31,28.31,0,0,1,2.12,2.77c.6.92.44,1.43-.41,2.12S11.28,27.91,11.8,29a7.31,7.31,0,0,0,3.87,3.66c.81.35,1.06.25,1.61-.46.85-1.08,1.41-1.18,2.59-.44.18.11.37.21.53.34.67.51,1.35,1,2,1.54a1.15,1.15,0,0,1,.33,1.54,4.86,4.86,0,0,1-1.94,2.13,1.9,1.9,0,0,1-1.71.1A20.75,20.75,0,0,1,6.92,25.06a1.83,1.83,0,0,1,.64-2.39,12.3,12.3,0,0,1,1.3-.95A4.71,4.71,0,0,1,9.68,21.4Z"/><path id="_Контур_2" data-name="&lt;Контур&gt;" class="cls-2" d="M22.64,28.79l-.43.79a3.06,3.06,0,0,1-.31-.83,6.73,6.73,0,0,0-3.17-5.66,7.37,7.37,0,0,0-3.37-1c-.21,0-.4-.22-.6-.34.22-.1.44-.29.65-.29A7.5,7.5,0,0,1,22.64,28.79Z"/><path id="_Контур_3" data-name="&lt;Контур&gt;" class="cls-2" d="M20.58,27.92c0,.11,0,.17,0,.22-.1.23-.21.45-.32.68a2.2,2.2,0,0,1-.27-.64A4.33,4.33,0,0,0,16,24c-.08,0-.17,0-.22,0s-.28-.24-.42-.36c.15-.08.3-.25.44-.24a5.06,5.06,0,0,1,3.39,1.46A4.58,4.58,0,0,1,20.58,27.92Z"/><path id="_Контур_4" data-name="&lt;Контур&gt;" class="cls-2" d="M18.73,27.89l-.29.3c-.11-.13-.3-.25-.31-.4a1.86,1.86,0,0,0-1.8-1.86c-.13,0-.24-.22-.36-.33.16-.1.32-.28.48-.27A2.46,2.46,0,0,1,18.73,27.89Z"/></g><path id="_Составной_контур_2" data-name="&lt;Составной контур&gt;" class="cls-3" d="M30.2,78.33c0-1,0-2.08,0-3.12a1.15,1.15,0,0,0-.51-1A19.27,19.27,0,0,1,22.25,61c-.75-6.68,1.57-12.27,6.47-16.79,8.39-7.74,22.32-7.59,30.58.28a19.34,19.34,0,0,1-1.65,29.92,22.36,22.36,0,0,1-19.16,4,2.17,2.17,0,0,0-1.7.23c-2,1.14-4,2.21-6,3.32-.5.28-.65.21-.64-.38C30.23,80.51,30.2,79.42,30.2,78.33Zm.16-13.24c.44.17.72-.07,1-.23,2.78-1.52,5.56-3,8.32-4.59.57-.32.91-.35,1.38.19,1.47,1.67,3,3.26,4.53,4.9.32.34.49.38.83,0,2.74-3,5.51-5.9,8.27-8.85l2.76-3a1.18,1.18,0,0,0-.79.26c-2.92,1.62-5.84,3.22-8.74,4.88a.85.85,0,0,1-1.26-.21c-1.51-1.63-3.08-3.21-4.59-4.84-.38-.41-.59-.44-1,0-2.58,2.79-5.18,5.55-7.78,8.32Z"/><g id="_Группа_3" data-name="&lt;Группа&gt;"><path id="_Составной_контур_3" data-name="&lt;Составной контур&gt;" class="cls-4" d="M58.77,21.83a2.37,2.37,0,0,0,1.63-.61l-7.87-7.87-.55.39q-.88.65-1.43,1a8.94,8.94,0,0,1-1.47.74,4.48,4.48,0,0,1-1.71.38h0a4.48,4.48,0,0,1-1.71-.38,8.82,8.82,0,0,1-1.47-.74q-.55-.36-1.43-1l-.54-.39-7.87,7.87a2.37,2.37,0,0,0,1.63.61Zm0,0"/><path id="_Составной_контур_4" data-name="&lt;Составной контур&gt;" class="cls-4" d="M35,8.39A8.25,8.25,0,0,1,33.46,7V19l6.94-6.94Q38.32,10.62,35,8.39Zm0,0"/><path id="_Составной_контур_5" data-name="&lt;Составной контур&gt;" class="cls-4" d="M59.7,8.39q-3.17,2.14-5.38,3.69L61.25,19V7A8.59,8.59,0,0,1,59.7,8.39Zm0,0"/><path id="_Составной_контур_6" data-name="&lt;Составной контур&gt;" class="cls-4" d="M58.77,0H35.94a2.21,2.21,0,0,0-1.84.81,3.12,3.12,0,0,0-.64,2,3.62,3.62,0,0,0,.85,2.12,7.7,7.7,0,0,0,1.81,1.79l3.18,2.21,2.5,1.74,1.56,1.09.23.16.43.31.84.59c.22.15.49.32.81.5a4.66,4.66,0,0,0,.89.42,2.45,2.45,0,0,0,.77.14h0a2.46,2.46,0,0,0,.78-.14,4.66,4.66,0,0,0,.89-.42c.32-.19.58-.35.81-.5l.84-.59.43-.31.23-.16,1.57-1.09L58.6,6.73a7.38,7.38,0,0,0,1.89-1.91,4.1,4.1,0,0,0,.76-2.34A2.38,2.38,0,0,0,60.51.73,2.4,2.4,0,0,0,58.77,0Zm0,0"/></g><path id="_Составной_контур_7" data-name="&lt;Составной контур&gt;" class="cls-4" d="M85.77,14.79,71.9,11a3.09,3.09,0,0,0-3.78,2.17L61.13,39a3.09,3.09,0,0,0,2.17,3.78L77.17,46.5a3.09,3.09,0,0,0,3.78-2.17l7-25.77a3.09,3.09,0,0,0-2.17-3.78ZM74.47,13.32l7.93,2.15-.27,1L74.2,14.31Zm-3.7,29.32a2.05,2.05,0,1,1,2.52-1.44,2.05,2.05,0,0,1-2.52,1.44Zm9.54-3.8-15.86-4.3,5.38-19.82L85.69,19Zm0,0"/></g></g></g></svg>