<svg xmlns="http://www.w3.org/2000/svg" viewBox="0 0 129.52 111.23"><defs><style>.cls-1,.cls-2,.cls-3{fill:#fff;}.cls-1,.cls-10,.cls-3,.cls-4,.cls-6{stroke:#333;}.cls-1,.cls-10,.cls-3,.cls-4,.cls-5,.cls-6{stroke-miterlimit:10;}.cls-1,.cls-4,.cls-6{stroke-width:2px;}.cls-3{stroke-width:3px;}.cls-10,.cls-4{fill:none;}.cls-5,.cls-7{fill:#333;}.cls-5{stroke:#fff;stroke-width:0.75px;}.cls-6{fill:#ccc;}.cls-8{fill:#f2f2f2;}.cls-9{fill:#999;}</style></defs><title>order-3</title><g id="Слой_2" data-name="Слой 2"><g id="Слой_2-2" data-name="Слой 2"><g id="_Группа_" data-name="&lt;Группа&gt;"><path id="_Контур_" data-name="&lt;Контур&gt;" class="cls-1" d="M15.33,39.92C7.44,37,8.7,45,8.7,45a40.92,40.92,0,0,0,.8,7.21c2.66,6.26,5.83,5.65,5.83,5.65"/><path id="_Контур_2" data-name="&lt;Контур&gt;" class="cls-2" d="M31.52,79.38s5.54,2.68,7.73,2.11S48.45,79,48.45,79l0,4.82-2.23,8.08-3.7,3.23-3.68,1.46L33,92.15l-1.48-7.28Z"/><path id="_Контур_3" data-name="&lt;Контур&gt;" class="cls-1" d="M96.49,107.43S94,106.67,94,96.64"/><path id="_Контур_4" data-name="&lt;Контур&gt;" class="cls-1" d="M81.21,107.43s2.5-.76,2.5-10.79"/><rect id="_Прямоугольник_" data-name="&lt;Прямоугольник&gt;" class="cls-1" x="71.92" y="107.43" width="33.56" height="2.8" rx="1.4" ry="1.4"/><path id="_Контур_5" data-name="&lt;Контур&gt;" class="cls-3" d="M46.26,35.48a1.64,1.64,0,0,1,1.6-1.69h77.77a3.34,3.34,0,0,1,2.4,2.48V96.56a3.34,3.34,0,0,1-2.4,2.48H47.85a1.64,1.64,0,0,1-1.6-1.69"/><path id="_Контур_6" data-name="&lt;Контур&gt;" class="cls-3" d="M46.26,91.34a3.31,3.31,0,0,1,1.6-.2h77.77a8.19,8.19,0,0,1,2.4.3v7.31a8.19,8.19,0,0,1-2.4.3H47.85c-.88,0-1.6-.09-1.6-.2"/><path id="_Контур_7" data-name="&lt;Контур&gt;" class="cls-1" d="M38.82,81.13S22,81.75,15.33,57.82c.27-11.15,0-28.2,0-28.2l7.21-10.4H54.25L63.52,30.6V40.72S62.29,58.8,61.87,61C61.12,64.77,54.28,80.8,38.82,81.13Z"/><rect id="_Прямоугольник_2" data-name="&lt;Прямоугольник&gt;" class="cls-2" x="72.65" y="51.86" width="30.89" height="21.48"/><path id="_Контур_8" data-name="&lt;Контур&gt;" class="cls-4" d="M27.61,63.46a19.15,19.15,0,0,0,22.9,0"/><g id="_Группа_2" data-name="&lt;Группа&gt;"><path id="_Составной_контур_" data-name="&lt;Составной контур&gt;" class="cls-5" d="M64.12,43.34h5v5h-5ZM67.52,45h-1.7v1.68h1.7Z"/><path id="_Составной_контур_2" data-name="&lt;Составной контур&gt;" class="cls-5" d="M64.12,75.79h5v5h-5Zm1.69,1.66v1.7h1.7v-1.7Z"/><path id="_Составной_контур_3" data-name="&lt;Составной контур&gt;" class="cls-5" d="M105,50.18V74H71V50.18ZM80.38,62.41l-7.63,7.64a.46.46,0,0,0-.14.28c0,.66,0,1.32,0,2h30.77c0-1.73,0-3.42,0-5.11a1,1,0,0,0-.32-.77q-4.34-4.32-8.67-8.66L94,57.39,82.33,69l-1.19-1.12,2.39-2.37Zm23-10.55H72.65v16L80.49,60l4.34,4.38,9.32-9.33,9.2,9.22Z"/><path id="_Составной_контур_4" data-name="&lt;Составной контур&gt;" class="cls-5" d="M106.81,48.36v-5h5v5ZM110.17,45h-1.7v1.69h1.7Z"/><path id="_Составной_контур_5" data-name="&lt;Составной контур&gt;" class="cls-5" d="M106.81,80.8v-5h5v5Zm1.65-1.66h1.7V77.45h-1.7Z"/><path id="_Контур_9" data-name="&lt;Контур&gt;" class="cls-5" d="M95.32,79.11H93.74V77.5h1.58Z"/><path id="_Контур_10" data-name="&lt;Контур&gt;" class="cls-5" d="M95.32,46.68h-1.6V45.07h1.6Z"/><path id="_Контур_11" data-name="&lt;Контур&gt;" class="cls-5" d="M83.93,77.49h1.58v1.61H83.93Z"/><path id="_Контур_12" data-name="&lt;Контур&gt;" class="cls-5" d="M82.25,45.06v1.61h-1.6V45.06Z"/><path id="_Контур_13" data-name="&lt;Контур&gt;" class="cls-5" d="M85.51,46.68H83.92V45.07h1.59Z"/><path id="_Контур_14" data-name="&lt;Контур&gt;" class="cls-5" d="M87.18,45.05h1.6v1.61h-1.6Z"/><path id="_Контур_15" data-name="&lt;Контур&gt;" class="cls-5" d="M90.47,45.06H92v1.6H90.47Z"/><path id="_Контур_16" data-name="&lt;Контур&gt;" class="cls-5" d="M80.66,77.48h1.58v1.61H80.66Z"/><path id="_Контур_17" data-name="&lt;Контур&gt;" class="cls-5" d="M88.79,77.51V79.1H87.2V77.51Z"/><path id="_Контур_18" data-name="&lt;Контур&gt;" class="cls-5" d="M92.06,77.51v1.59H90.47V77.51Z"/><path id="_Контур_19" data-name="&lt;Контур&gt;" class="cls-5" d="M77.39,45.06H79v1.61H77.39Z"/><path id="_Контур_20" data-name="&lt;Контур&gt;" class="cls-5" d="M75.7,46.68H74.12V45.07H75.7Z"/><path id="_Контур_21" data-name="&lt;Контур&gt;" class="cls-5" d="M98.58,46.68H97V45.05h1.58Z"/><path id="_Контур_22" data-name="&lt;Контур&gt;" class="cls-5" d="M100.28,45.06h1.57v1.61h-1.57Z"/><path id="_Контур_23" data-name="&lt;Контур&gt;" class="cls-5" d="M75.7,77.5v1.61H74.12V77.5Z"/><path id="_Контур_24" data-name="&lt;Контур&gt;" class="cls-5" d="M79,77.5v1.61H77.39V77.5Z"/><path id="_Контур_25" data-name="&lt;Контур&gt;" class="cls-5" d="M97,77.49h1.6V79.1H97Z"/><path id="_Контур_26" data-name="&lt;Контур&gt;" class="cls-5" d="M101.86,77.49v1.62h-1.58V77.49Z"/><path id="_Контур_27" data-name="&lt;Контур&gt;" class="cls-5" d="M70.86,77.49h1.57v1.62H70.86Z"/><path id="_Контур_28" data-name="&lt;Контур&gt;" class="cls-5" d="M103.54,46.67v-1.6h1.59v1.6Z"/><path id="_Контур_29" data-name="&lt;Контур&gt;" class="cls-5" d="M70.85,45.06h1.58v1.61H70.85Z"/><path id="_Контур_30" data-name="&lt;Контур&gt;" class="cls-5" d="M110.14,62.93v1.54h-1.61V62.93Z"/><path id="_Контур_31" data-name="&lt;Контур&gt;" class="cls-5" d="M67.45,67.69H65.85V66.13h1.59Z"/><path id="_Контур_32" data-name="&lt;Контур&gt;" class="cls-5" d="M110.12,67.69h-1.6V66.13h1.6Z"/><path id="_Контур_33" data-name="&lt;Контур&gt;" class="cls-5" d="M67.46,70.91H65.85V69.37h1.61Z"/><path id="_Контур_34" data-name="&lt;Контур&gt;" class="cls-5" d="M110.12,70.92h-1.59V69.37h1.59Z"/><path id="_Контур_35" data-name="&lt;Контур&gt;" class="cls-5" d="M67.46,72.56v1.56H65.85V72.56Z"/><path id="_Контур_36" data-name="&lt;Контур&gt;" class="cls-5" d="M110.13,74.12h-1.6V72.57h1.6Z"/><path id="_Контур_37" data-name="&lt;Контур&gt;" class="cls-5" d="M110.12,54.82h-1.6V53.26h1.6Z"/><path id="_Контур_38" data-name="&lt;Контур&gt;" class="cls-5" d="M67.46,53.27V54.8H65.84V53.27Z"/><path id="_Контур_39" data-name="&lt;Контур&gt;" class="cls-5" d="M110.13,51.6h-1.61V50h1.61Z"/><path id="_Контур_40" data-name="&lt;Контур&gt;" class="cls-5" d="M67.45,51.61H65.85V50h1.61Z"/><path id="_Контур_41" data-name="&lt;Контур&gt;" class="cls-5" d="M67.46,56.5V58H65.86V56.5Z"/><path id="_Контур_42" data-name="&lt;Контур&gt;" class="cls-5" d="M110.13,58h-1.6V56.49h1.6Z"/><path id="_Контур_43" data-name="&lt;Контур&gt;" class="cls-5" d="M65.85,59.69h1.61v1.56H65.85Z"/><path id="_Контур_44" data-name="&lt;Контур&gt;" class="cls-5" d="M108.52,59.69h1.61v1.56h-1.61Z"/><path id="_Контур_45" data-name="&lt;Контур&gt;" class="cls-5" d="M67.44,64.48H65.86V62.94h1.58Z"/><path id="_Контур_46" data-name="&lt;Контур&gt;" class="cls-5" d="M105.13,77.49v1.62h-1.57V77.49Z"/><path id="_Составной_контур_6" data-name="&lt;Составной контур&gt;" class="cls-5" d="M88.47,57a3,3,0,0,1-6.07-.07,3.08,3.08,0,0,1,3.08-3A3,3,0,0,1,88.47,57Zm-3,1.32a1.38,1.38,0,0,0,0-2.76A1.37,1.37,0,0,0,84.07,57,1.39,1.39,0,0,0,85.47,58.32Z"/></g><line id="_Контур_47" data-name="&lt;Контур&gt;" class="cls-4" x1="35.52" y1="71.23" x2="41.52" y2="71.23"/><path id="_Контур_48" data-name="&lt;Контур&gt;" class="cls-4" d="M40.87,48.78s3.09,4,2.33,6.45c-.69,2.18-3.16.32-4.31,2.49"/><path id="_Контур_49" data-name="&lt;Контур&gt;" class="cls-4" d="M20.69,39.92s.8-6.13,11.19-1.86"/><path id="_Контур_50" data-name="&lt;Контур&gt;" class="cls-4" d="M45.46,38.23s6-4.07,12,0"/><path id="_Контур_51" data-name="&lt;Контур&gt;" class="cls-1" d="M62.52,57.87s5-1.38,5.71-7.78c.67-5.78,1.88-11.64-5-10.17"/><path id="_Контур_52" data-name="&lt;Контур&gt;" class="cls-6" d="M63,40.72l-2.2-10.39s-6.59-.4-13.38-8.59c-4.59,3-10.59,8.59-26.77,0a61.42,61.42,0,0,0-5.05,16.49c-2.8-8-4.34-15.09,3.25-22.28a15.9,15.9,0,0,1,.2-5.39s7.39,2.4,10.19,0a14.43,14.43,0,0,1,1.4-8.79s5.59,7,13,7c8.19,2.6,20,5.93,21,19.18A40.83,40.83,0,0,1,63,40.72Z"/><circle id="_Контур_53" data-name="&lt;Контур&gt;" class="cls-7" cx="27.18" cy="44.01" r="2.1"/><circle id="_Контур_54" data-name="&lt;Контур&gt;" class="cls-7" cx="51.15" cy="44.01" r="2.1"/><circle id="_Контур_55" data-name="&lt;Контур&gt;" class="cls-8" cx="25.9" cy="52.31" r="2.41"/><circle id="_Контур_56" data-name="&lt;Контур&gt;" class="cls-8" cx="53.43" cy="52.31" r="2.41"/><g id="_Группа_3" data-name="&lt;Группа&gt;"><path id="_Контур_57" data-name="&lt;Контур&gt;" class="cls-9" d="M43.85,18.24l-.19,0-.57-.12a15.54,15.54,0,0,1-1.84-.56,16.48,16.48,0,0,1-4.93-2.82,11.32,11.32,0,0,1-1.12-1,11.59,11.59,0,0,1-1-1.1,10.42,10.42,0,0,1-.79-1.11,7.53,7.53,0,0,1-.6-1c-.16-.33-.34-.62-.45-.91l-.28-.73-.24-.63.36.57.4.65c.15.25.38.5.6.78A7.08,7.08,0,0,0,34,11a9.65,9.65,0,0,0,.92.88,10.52,10.52,0,0,0,1.07.83,10,10,0,0,0,1.18.73,14.45,14.45,0,0,0,4.74,1.61,12.8,12.8,0,0,0,1.6.17h.57Z"/></g><g id="_Группа_4" data-name="&lt;Группа&gt;"><path id="_Контур_58" data-name="&lt;Контур&gt;" class="cls-9" d="M39,20.14h-.13l-.39,0a10.13,10.13,0,0,1-1.29-.2,10.84,10.84,0,0,1-3.56-1.45,8.06,8.06,0,0,1-.84-.6A8.41,8.41,0,0,1,32,17.2a7.6,7.6,0,0,1-.62-.68,5.42,5.42,0,0,1-.49-.65c-.14-.21-.29-.39-.38-.57l-.25-.46-.22-.4.29.35.33.4c.12.16.3.3.47.48a5.08,5.08,0,0,0,.58.52,7,7,0,0,0,.69.52,7.65,7.65,0,0,0,.79.47,7.17,7.17,0,0,0,.85.39,9.49,9.49,0,0,0,3.31.67,8.31,8.31,0,0,0,1.09,0l.27,0,.1,0Z"/></g><g id="_Группа_5" data-name="&lt;Группа&gt;"><path id="_Контур_59" data-name="&lt;Контур&gt;" class="cls-9" d="M61.54,28.11a.22.22,0,0,0-.13-.08c-.1,0-.23-.07-.39-.11a10.6,10.6,0,0,1-1.24-.42,10.88,10.88,0,0,1-3.29-2,8.1,8.1,0,0,1-.73-.73,8.41,8.41,0,0,1-.63-.77,7.59,7.59,0,0,1-.51-.77,5.42,5.42,0,0,1-.39-.72c-.1-.23-.22-.43-.28-.62l-.18-.49L53.63,21l.23.39.26.45c.1.17.25.35.39.54A5.08,5.08,0,0,0,55,23a7,7,0,0,0,.6.62,7.66,7.66,0,0,0,.7.59,7.17,7.17,0,0,0,.78.52,9.49,9.49,0,0,0,3.16,1.18c.45.09.82.23,1.08.24s.22.12.28.12h.1Z"/></g><g id="_Группа_6" data-name="&lt;Группа&gt;"><path id="_Контур_60" data-name="&lt;Контур&gt;" class="cls-9" d="M42.55,23s-.29.07-.77.16-1.17.19-2,.25A22.77,22.77,0,0,1,37,23.5c-.51,0-1-.08-1.58-.12s-1.08-.14-1.61-.27a14.28,14.28,0,0,1-1.57-.41,10.7,10.7,0,0,1-1.47-.54l-.69-.29-.63-.35a8.08,8.08,0,0,1-1.11-.68l-.89-.64-.62-.57-.54-.49.59.42.68.48.94.52a7.77,7.77,0,0,0,1.15.53l.64.26.69.2a10.06,10.06,0,0,0,1.45.35,13.43,13.43,0,0,0,1.52.21c.51.06,1,0,1.53.07s1,0,1.48-.06a21.24,21.24,0,0,0,2.6-.36c.75-.15,1.36-.32,1.78-.44s.62-.21.64-.21Z"/></g><line id="_Контур_61" data-name="&lt;Контур&gt;" class="cls-4" x1="30.52" y1="79.23" x2="30.52" y2="86.23"/><line id="_Контур_62" data-name="&lt;Контур&gt;" class="cls-4" x1="48.52" y1="78.23" x2="48.52" y2="86.23"/><line id="_Контур_63" data-name="&lt;Контур&gt;" class="cls-3" x1="127.52" y1="90.73" x2="65.52" y2="90.73"/><path id="_Контур_64" data-name="&lt;Контур&gt;" class="cls-3" d="M74.22,109.73H1.51s-1.6-30.38,29.3-25.32C31.08,92,36.35,97,41,96.46c6.87-.73,7.94-12.57,7.94-12.57s23.7-2.6,25.3,16.11C74.81,106.91,74.22,109.73,74.22,109.73Z"/><line id="_Контур_65" data-name="&lt;Контур&gt;" class="cls-1" x1="40.52" y1="96.23" x2="40.52" y2="110.23"/><path id="_Контур_66" data-name="&lt;Контур&gt;" class="cls-3" d="M38.13,96s-5.65-.09-8.05,3.71c-1.52-3-5.35-10.46-5.35-10.46s-.5-7.29,6.35-7.74C31.38,85,31.73,92.63,38.13,96Z"/><path id="_Контур_67" data-name="&lt;Контур&gt;" class="cls-3" d="M41.89,96.06s5.78-.17,8.19,3.63c1.52-3,5.35-10.46,5.35-10.46s.09-7.29-6.77-7.74C48.36,85,48.28,92.71,41.89,96.06Z"/><circle id="_Контур_68" data-name="&lt;Контур&gt;" class="cls-7" cx="44.51" cy="100.99" r="1.05"/><circle id="_Контур_69" data-name="&lt;Контур&gt;" class="cls-7" cx="44.51" cy="105.78" r="1.05"/><circle id="_Контур_70" data-name="&lt;Контур&gt;" class="cls-7" cx="88.7" cy="95.15" r="1.3"/><path id="_Контур_71" data-name="&lt;Контур&gt;" class="cls-4" d="M65.28,49.9l.36-4.34s-.91-2.39-3.12,0"/><line id="_Контур_72" data-name="&lt;Контур&gt;" class="cls-10" x1="67.52" y1="84.73" x2="109.52" y2="84.73"/><path id="_Контур_73" data-name="&lt;Контур&gt;" class="cls-4" d="M12,49.9l-.08-3.58s.56-2.57,3.43-1.08"/></g></g></g></svg>