<svg xmlns="http://www.w3.org/2000/svg" viewBox="0 0 103.75 98.1"><defs><style>.cls-1,.cls-2,.cls-5,.cls-7{fill:#fff}.cls-1,.cls-2,.cls-3,.cls-6,.cls-7,.cls-8{stroke:#333}.cls-1,.cls-2,.cls-3,.cls-4,.cls-6,.cls-7,.cls-8{stroke-miterlimit:10}.cls-1,.cls-3,.cls-7,.cls-8{stroke-width:3px}.cls-3,.cls-6,.cls-8{fill:none}.cls-4{fill:#333;stroke:#fff;stroke-width:.75px}.cls-6,.cls-7,.cls-8{stroke-linecap:round}.cls-6{stroke-dasharray:.99 3.96}</style></defs><title>order-2</title><g id="Слой_2" data-name="Слой 2"><g id="Слой_2-2" data-name="Слой 2"><g id="_Группа_" data-name="&amp;lt;Группа&amp;gt;"><path id="_Контур_" data-name="&amp;lt;Контур&amp;gt;" class="cls-1" d="M32.16 95.73h55.23L102.25 84V4a2.74 2.74 0 0 0-2.91-2.5H32.16A2.74 2.74 0 0 0 29.25 4v89.2a2.74 2.74 0 0 0 2.91 2.53z"/><path id="_Контур_2" data-name="&amp;lt;Контур&amp;gt;" class="cls-2" d="M45.25 56.28h44"/><path id="_Контур_3" data-name="&amp;lt;Контур&amp;gt;" class="cls-2" d="M45.25 65.28h44"/><path id="_Контур_4" data-name="&amp;lt;Контур&amp;gt;" class="cls-2" d="M45.25 74.28h44"/><rect id="_Прямоугольник_" data-name="&amp;lt;Прямоугольник&amp;gt;" class="cls-3" x="45.73" y="13.94" width="43.6" height="3.94" rx="1" ry="1"/><path id="_Контур_5" data-name="&amp;lt;Контур&amp;gt;" class="cls-3" d="M86.75 94.78v-10.5h14.5"/><g id="_Группа_2" data-name="&amp;lt;Группа&amp;gt;"><path id="_Составной_контур_" data-name="&amp;lt;Составной контур&amp;gt;" class="cls-4" d="M85.64 24.17v26.45H47.83V24.17zM58.28 37.76l-8.48 8.49a.51.51 0 0 0-.15.31v2.2h34.17v-5.68a1.09 1.09 0 0 0-.36-.86q-4.83-4.8-9.63-9.62l-.45-.42-12.94 13-1.32-1.25 2.65-2.63zM83.79 26h-34.1v17.81l8.71-8.72L63.22 40l10.36-10.4 10.21 10.24z"/><path id="_Составной_контур_2" data-name="&amp;lt;Составной контур&amp;gt;" class="cls-4" d="M67.27 31.75a3.37 3.37 0 0 1-6.74-.08 3.42 3.42 0 0 1 3.42-3.36 3.38 3.38 0 0 1 3.32 3.44zm-3.34 1.47a1.53 1.53 0 0 0 0-3.06 1.52 1.52 0 0 0-1.5 1.58 1.54 1.54 0 0 0 1.5 1.48z"/></g><circle id="_Контур_6" data-name="&amp;lt;Контур&amp;gt;" class="cls-1" cx="28.88" cy="69.22" r="27.38"/><g id="_Группа_3" data-name="&amp;lt;Группа&amp;gt;"><circle id="_Контур_7" data-name="&amp;lt;Контур&amp;gt;" class="cls-5" cx="28.82" cy="68.85" r="22.82"/><circle id="_Контур_8" data-name="&amp;lt;Контур&amp;gt;" class="cls-6" cx="28.82" cy="68.85" r="22.82"/></g><g id="_Группа_4" data-name="&amp;lt;Группа&amp;gt;"><g id="_Группа_5" data-name="&amp;lt;Группа&amp;gt;"><path id="_Контур_9" data-name="&amp;lt;Контур&amp;gt;" class="cls-7" d="M28.75 60.78v12"/><path id="_Контур_10" data-name="&amp;lt;Контур&amp;gt;" class="cls-8" d="M21.51 65.78l7.29-7.29 6.54 6.55"/></g><path id="_Контур_11" data-name="&amp;lt;Контур&amp;gt;" class="cls-8" d="M18.75 74.78v3.5h20v-3.5"/></g></g></g></g></svg>