<svg xmlns="http://www.w3.org/2000/svg" viewBox="0 0 152.12 94.59"><defs><style>.cls-1,.cls-2,.cls-4,.cls-6{fill:#fff;}.cls-1,.cls-2,.cls-6{stroke:#333;}.cls-1,.cls-2,.cls-4,.cls-5,.cls-6{stroke-miterlimit:10;}.cls-1{stroke-width:2px;}.cls-2{stroke-width:3px;}.cls-3,.cls-5{fill:#333;}.cls-4,.cls-5{stroke:#fff;}</style></defs><title>order-1</title><g id="Слой_2" data-name="Слой 2"><g id="Слой_2-2" data-name="Слой 2"><g id="_Группа_" data-name="&lt;Группа&gt;"><path id="_Контур_" data-name="&lt;Контур&gt;" class="cls-1" d="M87.11,91s-3-.87-3-12.29"/><path id="_Контур_2" data-name="&lt;Контур&gt;" class="cls-1" d="M69,91s3-.87,3-12.29"/><rect id="_Прямоугольник_" data-name="&lt;Прямоугольник&gt;" class="cls-2" x="24.27" y="1.5" width="106.5" height="77.2" rx="3" ry="3"/><rect id="_Прямоугольник_2" data-name="&lt;Прямоугольник&gt;" class="cls-2" x="24.27" y="69.29" width="106.5" height="9.4" rx="3" ry="3"/><line id="_Контур_3" data-name="&lt;Контур&gt;" class="cls-2" x1="130.72" y1="69.34" x2="23.72" y2="69.34"/><circle id="_Контур_4" data-name="&lt;Контур&gt;" class="cls-3" cx="77.89" cy="74.09" r="1.54"/><rect id="_Прямоугольник_3" data-name="&lt;Прямоугольник&gt;" class="cls-1" x="58.04" y="90.28" width="39.7" height="3.31" rx="1.65" ry="1.65"/><rect id="_Прямоугольник_4" data-name="&lt;Прямоугольник&gt;" class="cls-4" x="43.7" y="22.05" width="41.86" height="28.22"/><g id="_Группа_2" data-name="&lt;Группа&gt;"><path id="_Составной_контур_" data-name="&lt;Составной контур&gt;" class="cls-5" d="M33.37,12.33h6.55v6.54H33.37Zm4.41,2.2h-2.2v2.18h2.2Z"/><path id="_Составной_контур_2" data-name="&lt;Составной контур&gt;" class="cls-5" d="M33.37,54.45h6.55V61H33.37Zm2.19,2.15v2.2h2.2V56.6Z"/><path id="_Составной_контур_3" data-name="&lt;Составной контур&gt;" class="cls-5" d="M86.45,21.21v30.9H42.27V21.21Zm-32,15.87L44.57,47a.59.59,0,0,0-.18.36c0,.86,0,1.72,0,2.57H84.32c0-2.24,0-4.44,0-6.63a1.27,1.27,0,0,0-.42-1q-5.64-5.61-11.26-11.24l-.53-.49L57,45.7l-1.54-1.46,3.1-3.08Zm29.81-13.7H44.44V44.16L54.62,34l5.64,5.69,12.1-12.11,11.94,12Z"/><path id="_Составной_контур_4" data-name="&lt;Составной контур&gt;" class="cls-5" d="M88.79,18.85V12.36h6.51v6.49Zm4.35-4.33H90.93v2.2h2.21Z"/><path id="_Составной_контур_5" data-name="&lt;Составной контур&gt;" class="cls-5" d="M88.78,60.95V54.46h6.51v6.49Zm2.14-2.16h2.21V56.61H90.92Z"/><path id="_Контур_5" data-name="&lt;Контур&gt;" class="cls-5" d="M73.86,58.76H71.81V56.68h2.05Z"/><path id="_Контур_6" data-name="&lt;Контур&gt;" class="cls-5" d="M73.87,16.66H71.8V14.57h2.07Z"/><path id="_Контур_7" data-name="&lt;Контур&gt;" class="cls-5" d="M59.08,56.65h2v2.08h-2Z"/><path id="_Контур_8" data-name="&lt;Контур&gt;" class="cls-5" d="M56.9,14.57v2.09H54.83V14.57Z"/><path id="_Контур_9" data-name="&lt;Контур&gt;" class="cls-5" d="M61.14,16.66H59.07V14.57h2.06Z"/><path id="_Контур_10" data-name="&lt;Контур&gt;" class="cls-5" d="M63.3,14.55h2.07v2.09H63.3Z"/><path id="_Контур_11" data-name="&lt;Контур&gt;" class="cls-5" d="M67.57,14.56h2v2.08h-2Z"/><path id="_Контур_12" data-name="&lt;Контур&gt;" class="cls-5" d="M54.84,56.65h2.05v2.09H54.84Z"/><path id="_Контур_13" data-name="&lt;Контур&gt;" class="cls-5" d="M65.39,56.68v2.07H63.32V56.68Z"/><path id="_Контур_14" data-name="&lt;Контур&gt;" class="cls-5" d="M69.64,56.68v2.06H67.57V56.68Z"/><path id="_Контур_15" data-name="&lt;Контур&gt;" class="cls-5" d="M50.59,14.56h2.06v2.09H50.59Z"/><path id="_Контур_16" data-name="&lt;Контур&gt;" class="cls-5" d="M48.4,16.66H46.35V14.57H48.4Z"/><path id="_Контур_17" data-name="&lt;Контур&gt;" class="cls-5" d="M78.1,16.66h-2V14.56h2Z"/><path id="_Контур_18" data-name="&lt;Контур&gt;" class="cls-5" d="M80.3,14.56h2v2.09h-2Z"/><path id="_Контур_19" data-name="&lt;Контур&gt;" class="cls-5" d="M48.4,56.67v2.09h-2V56.67Z"/><path id="_Контур_20" data-name="&lt;Контур&gt;" class="cls-5" d="M52.65,56.67v2.09h-2V56.67Z"/><path id="_Контур_21" data-name="&lt;Контур&gt;" class="cls-5" d="M76,56.66h2.07v2.1H76Z"/><path id="_Контур_22" data-name="&lt;Контур&gt;" class="cls-5" d="M82.35,56.65v2.1h-2v-2.1Z"/><path id="_Контур_23" data-name="&lt;Контур&gt;" class="cls-5" d="M42.11,56.65h2v2.11h-2Z"/><path id="_Контур_24" data-name="&lt;Контур&gt;" class="cls-5" d="M84.54,16.65V14.57h2.06v2.08Z"/><path id="_Контур_25" data-name="&lt;Контур&gt;" class="cls-5" d="M42.11,14.56h2v2.09h-2Z"/><path id="_Контур_26" data-name="&lt;Контур&gt;" class="cls-5" d="M93.1,37.76v2H91v-2Z"/><path id="_Контур_27" data-name="&lt;Контур&gt;" class="cls-5" d="M37.69,43.94H35.62v-2h2.07Z"/><path id="_Контур_28" data-name="&lt;Контур&gt;" class="cls-5" d="M93.08,43.94H91v-2h2.08Z"/><path id="_Контур_29" data-name="&lt;Контур&gt;" class="cls-5" d="M37.7,48.12H35.61v-2H37.7Z"/><path id="_Контур_30" data-name="&lt;Контур&gt;" class="cls-5" d="M93.08,48.13H91v-2h2.06Z"/><path id="_Контур_31" data-name="&lt;Контур&gt;" class="cls-5" d="M37.7,50.26v2H35.61v-2Z"/><path id="_Контур_32" data-name="&lt;Контур&gt;" class="cls-5" d="M93.09,52.28H91v-2h2.08Z"/><path id="_Контур_33" data-name="&lt;Контур&gt;" class="cls-5" d="M93.08,27.23H91v-2h2.08Z"/><path id="_Контур_34" data-name="&lt;Контур&gt;" class="cls-5" d="M37.7,25.22v2h-2.1v-2Z"/><path id="_Контур_35" data-name="&lt;Контур&gt;" class="cls-5" d="M93.09,23.06H91V21h2.09Z"/><path id="_Контур_36" data-name="&lt;Контур&gt;" class="cls-5" d="M37.7,23.06H35.61V21H37.7Z"/><path id="_Контур_37" data-name="&lt;Контур&gt;" class="cls-5" d="M37.71,29.41v2H35.62v-2Z"/><path id="_Контур_38" data-name="&lt;Контур&gt;" class="cls-5" d="M93.09,31.42H91v-2h2.08Z"/><path id="_Контур_39" data-name="&lt;Контур&gt;" class="cls-5" d="M35.61,33.55H37.7v2H35.61Z"/><path id="_Контур_40" data-name="&lt;Контур&gt;" class="cls-5" d="M91,33.55h2.08v2H91Z"/><path id="_Контур_41" data-name="&lt;Контур&gt;" class="cls-5" d="M37.68,39.77H35.63v-2h2.06Z"/><path id="_Контур_42" data-name="&lt;Контур&gt;" class="cls-5" d="M86.59,56.66v2.1h-2v-2.1Z"/><path id="_Составной_контур_6" data-name="&lt;Составной контур&gt;" class="cls-5" d="M65,30.06A3.94,3.94,0,0,1,57.1,30a4,4,0,0,1,4-3.93A4,4,0,0,1,65,30.06Zm-3.9,1.72A1.79,1.79,0,0,0,61,28.19,1.78,1.78,0,0,0,59.27,30,1.8,1.8,0,0,0,61.07,31.78Z"/></g><polygon id="_Контур_43" data-name="&lt;Контур&gt;" class="cls-2" points="46.66 37.71 47.84 45.97 56.1 47.15 17.49 85.76 8.05 76.32 46.66 37.71"/><path id="_Контур_44" data-name="&lt;Контур&gt;" class="cls-2" d="M7.87,76.5l9.44,9.44L10.94,92.3s-3.26.78-6.74-2.7a9.27,9.27,0,0,1-2.7-6.74Z"/><polygon id="_Контур_45" data-name="&lt;Контур&gt;" class="cls-2" points="57.63 46.12 62.06 31.75 48.17 36.16 47.84 45.97 57.63 46.12"/><line id="_Контур_46" data-name="&lt;Контур&gt;" class="cls-1" x1="48.18" y1="45.29" x2="12.8" y2="80.67"/><line id="_Контур_47" data-name="&lt;Контур&gt;" class="cls-6" x1="13.81" y1="89.77" x2="4.21" y2="80.17"/><polygon id="_Контур_48" data-name="&lt;Контур&gt;" class="cls-3" points="59.27 38.32 55.48 34.56 61.13 32.52 59.27 38.32"/><line id="_Контур_49" data-name="&lt;Контур&gt;" class="cls-6" x1="100.72" y1="16.34" x2="120.72" y2="16.34"/><line id="_Контур_50" data-name="&lt;Контур&gt;" class="cls-6" x1="100.72" y1="26.34" x2="120.72" y2="26.34"/><line id="_Контур_51" data-name="&lt;Контур&gt;" class="cls-6" x1="100.72" y1="35.34" x2="120.72" y2="35.34"/><line id="_Контур_52" data-name="&lt;Контур&gt;" class="cls-6" x1="100.72" y1="45.34" x2="120.72" y2="45.34"/><line id="_Контур_53" data-name="&lt;Контур&gt;" class="cls-6" x1="100.72" y1="55.34" x2="120.72" y2="55.34"/><rect id="_Прямоугольник_5" data-name="&lt;Прямоугольник&gt;" class="cls-2" x="111.94" y="36.25" width="38.68" height="56.63" rx="3" ry="3"/><path id="_Прямоугольник_6" data-name="&lt;Прямоугольник&gt;" class="cls-2" d="M111.94,83.56h38.68a0,0,0,0,1,0,0v6.32a3,3,0,0,1-3,3H114.94a3,3,0,0,1-3-3V83.56A0,0,0,0,1,111.94,83.56Z"/><line id="_Контур_54" data-name="&lt;Контур&gt;" class="cls-2" x1="150.72" y1="83.34" x2="111.72" y2="83.34"/><circle id="_Контур_55" data-name="&lt;Контур&gt;" class="cls-3" cx="131.77" cy="88.27" r="1.54"/><line id="_Контур_56" data-name="&lt;Контур&gt;" class="cls-6" x1="128.72" y1="44.34" x2="140.72" y2="44.34"/><line id="_Контур_57" data-name="&lt;Контур&gt;" class="cls-6" x1="119.72" y1="54.34" x2="140.72" y2="54.34"/><line id="_Контур_58" data-name="&lt;Контур&gt;" class="cls-6" x1="119.72" y1="64.34" x2="140.72" y2="64.34"/><line id="_Контур_59" data-name="&lt;Контур&gt;" class="cls-6" x1="119.72" y1="73.34" x2="140.72" y2="73.34"/><rect id="_Прямоугольник_7" data-name="&lt;Прямоугольник&gt;" class="cls-1" x="120.25" y="44.34" width="4.83" height="4.83"/></g></g></g></svg>