<svg xmlns="http://www.w3.org/2000/svg" style="border: 0 !important; clip: rect(0 0 0 0) !important; height: 1px !important; margin: -1px !important; overflow: hidden !important; padding: 0 !important; position: absolute !important; width: 1px !important;" class="root-svg-symbols-element">
  <defs>
      <clipPath id="clip0"><path fill="#fff" d="M0 0H16V16H0z"/></clipPath>
<clipPath id="clip0"><path fill="#fff" d="M0 0H60V60H0z"/></clipPath>
<clipPath id="clip0"><path fill="#fff" d="M0 0H60V60H0z"/></clipPath>
<clipPath id="clip0"><path fill="#fff" d="M0 0H60V60H0z"/></clipPath>
  </defs>
    <symbol id="arrow-down" viewBox="0 0 21.78 11.08">
      <path d="M21.12.75l-10.23,9L.66.75" fill="none"/>
    </symbol>
    <symbol id="click" viewBox="0 0 60 60" fill="none">
      <path d="M57.3151 42.2162C57.2807 41.8283 57.02 41.4973 56.6503 41.3734L48.5199 38.6508L45.9982 16.7612C45.9389 16.2718 45.518 15.9069 45.0248 15.9184H38.7V11.5059C38.7 5.16151 33.2487 0 26.5776 0C19.907 0 14.4551 5.16151 14.4551 11.5059V15.9184H7.40858C6.91592 15.9069 6.495 16.2718 6.43569 16.7612L2.74548 48.8227C2.48575 51.0526 3.20514 53.2854 4.71662 54.9452C6.37255 56.7752 8.73017 57.8122 11.1983 57.7959H38.1787L38.6929 59.3313C38.8167 59.7011 39.1473 59.9617 39.5357 59.9962C39.5644 59.9986 39.5931 60 39.6217 60C39.9805 60 40.31 59.8044 40.4818 59.4896L41.4083 57.7916C43.5463 57.7629 45.5983 56.9455 47.1701 55.4957L51.1717 59.4734C51.5543 59.8541 52.1732 59.8536 52.5554 59.4715L56.7904 55.2364C57.1726 54.8543 57.1731 54.2353 56.7924 53.8527L49.9084 46.9267L56.8086 43.1623C57.1506 42.9758 57.3496 42.6041 57.3151 42.2162ZM16.4143 11.5059C16.4143 6.24203 20.987 1.95918 26.5776 1.95918C32.1681 1.95918 36.7409 6.24203 36.7409 11.5059V15.9184H16.4143V11.5059ZM11.1983 55.8367C9.28789 55.8506 7.46215 55.0499 6.17883 53.6346C5.04235 52.3976 4.49994 50.7278 4.69222 49.059L8.28199 17.8776H14.4551V26.5346C14.4551 27.0756 14.8938 27.5142 15.4347 27.5142C15.9762 27.5142 16.4143 27.0756 16.4143 26.5346V17.8776H36.7409V26.5346C36.7409 27.0756 37.1795 27.5142 37.7204 27.5142C38.2619 27.5142 38.7 27.0756 38.7 26.5346V17.8776H44.1519L46.4684 37.9888L31.5152 32.9684C31.1646 32.8474 30.7753 32.9364 30.5122 33.198C30.2487 33.4597 30.1573 33.8485 30.2759 34.2001L37.5219 55.8367H11.1983ZM42.5424 55.7124L44.2461 52.5894L45.7791 54.1129C44.8684 54.9351 43.7477 55.489 42.5419 55.7124H42.5424ZM47.8249 45.8318C47.5541 45.9796 47.369 46.2455 47.3246 46.5507C47.2801 46.8559 47.382 47.1639 47.5991 47.3825L54.7145 54.541L51.8604 57.3951L44.7015 50.2797C44.4834 50.0625 44.1748 49.9606 43.8702 50.0051C43.565 50.0496 43.299 50.2347 43.1512 50.5054L39.8375 56.5791L32.7574 35.4385L53.8985 42.518L47.8249 45.8318Z" fill="#E43828"/><path d="M22.9027 24.1971C22.5205 23.8145 21.9001 23.8145 21.5175 24.1971C21.1348 24.5798 21.1348 25.1997 21.5175 25.5824L24.5165 28.5814C24.8992 28.964 25.5191 28.964 25.9017 28.5814C26.2844 28.1987 26.2844 27.5784 25.9017 27.1962L22.9027 24.1971Z" fill="#E43828"/><path d="M25.2905 37.2435L19.0097 36.3863C18.662 36.3366 18.3143 36.4772 18.099 36.7546C17.8833 37.0321 17.8326 37.4037 17.966 37.7285C18.0995 38.0533 18.397 38.2819 18.7452 38.3273L25.0255 39.1845C25.5617 39.2577 26.0558 38.8822 26.1285 38.346C26.2017 37.8103 25.8267 37.3162 25.2905 37.243V37.2435Z" fill="#E43828"/>
    </symbol>
    <symbol id="clip" viewBox="0 0 22 24" fill="none">
      <path d="M10.1736 10.7307C10.4961 10.4082 10.4961 9.88415 10.1736 9.56167C9.85115 9.23919 9.32712 9.23919 9.00464 9.56167L4.631 13.9353C3.88526 14.681 3.48216 15.6485 3.48216 16.6966C3.48216 17.7446 3.88526 18.7121 4.631 19.4578C6.16278 20.9896 8.64185 20.9896 10.1535 19.4578L20.0294 9.58182C21.0574 8.55392 21.6217 7.18337 21.6217 5.73221C21.6217 4.28105 21.0574 2.91051 20.0294 1.8826C17.893 -0.253835 14.4465 -0.253835 12.3101 1.8826L2.45425 11.7384C1.12402 13.0686 0.398438 14.8221 0.398438 16.6966C0.398438 18.571 1.12402 20.3446 2.45425 21.6547C3.78448 22.9849 5.53797 23.7105 7.41239 23.7105C9.28681 23.7105 11.0605 22.9849 12.3705 21.6547L16.7442 17.281C17.0667 16.9586 17.0667 16.4345 16.7442 16.1121C16.4217 15.7896 15.8977 15.7896 15.5752 16.1121L11.2015 20.4857C10.1938 21.4935 8.8434 22.0578 7.41239 22.0578C5.98138 22.0578 4.631 21.4935 3.62324 20.4857C2.61549 19.4779 2.05115 18.1276 2.05115 16.6966C2.05115 15.2655 2.61549 13.9152 3.62324 12.9074L13.4791 3.05159C14.2046 2.32601 15.1519 1.94306 16.1597 1.94306C17.1674 1.94306 18.1349 2.34616 18.8403 3.05159C19.5659 3.77717 19.9488 4.72446 19.9488 5.73221C19.9488 6.73996 19.5457 7.70741 18.8403 8.41283L8.96433 18.2888C8.09766 19.1555 6.66666 19.1555 5.77983 18.2888C5.35658 17.8655 5.11472 17.3012 5.11472 16.6966C5.11472 16.0919 5.35658 15.5276 5.77983 15.1043L10.1736 10.7307Z" fill="#E43828"/>
    </symbol>
    <symbol id="ellipse" viewBox="0 0 128.03 128.03">
      <circle cx="64.02" cy="64.02" r="62.5" transform="rotate(-15 64.015 64.026)" fill="none" stroke="#e43828" stroke-width="3" stroke-dasharray="18 18"/>
    </symbol>
    <symbol id="external-link-2" viewBox="0 0 16 16" fill="none">
      <g clip-path="url(#clip0)" fill="#E43828"><path d="M15.0141 0H9.51256C8.96875 0 8.52638 0.442431 8.52638 0.986186C8.52638 1.52994 8.96875 1.97237 9.51256 1.97237H12.6333L7.4276 7.17797C7.24124 7.36422 7.13867 7.61184 7.13867 7.87535C7.13867 8.13885 7.24118 8.38642 7.42748 8.57249C7.61379 8.75897 7.86135 8.86159 8.12486 8.86159C8.38825 8.86159 8.63593 8.75902 8.82229 8.57266L14.0279 3.36701V6.4877C14.0279 7.03145 14.4703 7.47388 15.0141 7.47388C15.5578 7.47388 16.0003 7.03145 16.0003 6.4877V0.986186C16.0003 0.442431 15.5578 0 15.0141 0Z"/><path d="M11.3348 14.3094H1.69061V4.66521H8.94392L10.6345 2.97461H0.845303C0.37847 2.97461 0 3.35308 0 3.81991V15.1547C0 15.6215 0.37847 16 0.845303 16H12.1801C12.6469 16 13.0254 15.6215 13.0254 15.1547V5.36546L11.3348 7.05607V14.3094Z"/></g>
    </symbol>
    <symbol id="external-link" viewBox="0 0 16 16">
      <path fill="none" d="M0 0H16V16H0z"/><path d="M15,0H9.51a1,1,0,0,0,0,2h3.12L7.43,7.18A1,1,0,1,0,8.82,8.57L14,3.37V6.49a1,1,0,1,0,2,0V1A1,1,0,0,0,15,0Z"/><path d="M11.33,14.31H1.69V4.67H8.94L10.63,3H.85A.85.85,0,0,0,0,3.82V15.15A.85.85,0,0,0,.85,16H12.18a.85.85,0,0,0,.85-.85h0V5.37l-1.7,1.69Z"/>
    </symbol>
    <symbol id="ic-stages-1" viewBox="0 0 60 60" fill="none">
      <path d="M57.3151 42.2162C57.2807 41.8283 57.02 41.4973 56.6503 41.3734L48.5199 38.6508L45.9982 16.7612C45.9389 16.2718 45.518 15.9069 45.0248 15.9184H38.7V11.5059C38.7 5.16151 33.2487 0 26.5776 0C19.907 0 14.4551 5.16151 14.4551 11.5059V15.9184H7.40858C6.91592 15.9069 6.495 16.2718 6.43569 16.7612L2.74548 48.8227C2.48575 51.0526 3.20514 53.2854 4.71662 54.9452C6.37255 56.7752 8.73017 57.8122 11.1983 57.7959H38.1787L38.6929 59.3313C38.8167 59.7011 39.1473 59.9617 39.5357 59.9962C39.5644 59.9986 39.5931 60 39.6217 60C39.9805 60 40.31 59.8044 40.4818 59.4896L41.4083 57.7916C43.5463 57.7629 45.5983 56.9455 47.1701 55.4957L51.1717 59.4734C51.5543 59.8541 52.1732 59.8536 52.5554 59.4715L56.7904 55.2364C57.1726 54.8543 57.1731 54.2353 56.7924 53.8527L49.9084 46.9267L56.8086 43.1623C57.1506 42.9758 57.3496 42.6041 57.3151 42.2162ZM16.4143 11.5059C16.4143 6.24203 20.987 1.95918 26.5776 1.95918C32.1681 1.95918 36.7409 6.24203 36.7409 11.5059V15.9184H16.4143V11.5059ZM11.1983 55.8367C9.28789 55.8506 7.46215 55.0499 6.17883 53.6346C5.04235 52.3976 4.49994 50.7278 4.69222 49.059L8.28199 17.8776H14.4551V26.5346C14.4551 27.0756 14.8938 27.5142 15.4347 27.5142C15.9762 27.5142 16.4143 27.0756 16.4143 26.5346V17.8776H36.7409V26.5346C36.7409 27.0756 37.1795 27.5142 37.7204 27.5142C38.2619 27.5142 38.7 27.0756 38.7 26.5346V17.8776H44.1519L46.4684 37.9888L31.5152 32.9684C31.1646 32.8474 30.7753 32.9364 30.5122 33.198C30.2487 33.4597 30.1573 33.8485 30.2759 34.2001L37.5219 55.8367H11.1983ZM42.5424 55.7124L44.2461 52.5894L45.7791 54.1129C44.8684 54.9351 43.7477 55.489 42.5419 55.7124H42.5424ZM47.8249 45.8318C47.5541 45.9796 47.369 46.2455 47.3246 46.5507C47.2801 46.8559 47.382 47.1639 47.5991 47.3825L54.7145 54.541L51.8604 57.3951L44.7015 50.2797C44.4834 50.0625 44.1748 49.9606 43.8702 50.0051C43.565 50.0496 43.299 50.2347 43.1512 50.5054L39.8375 56.5791L32.7574 35.4385L53.8985 42.518L47.8249 45.8318Z" fill="#E43828"/><path d="M22.9027 24.1971C22.5205 23.8145 21.9001 23.8145 21.5175 24.1971C21.1348 24.5798 21.1348 25.1997 21.5175 25.5824L24.5165 28.5814C24.8992 28.964 25.5191 28.964 25.9017 28.5814C26.2844 28.1987 26.2844 27.5784 25.9017 27.1962L22.9027 24.1971Z" fill="#E43828"/><path d="M25.2905 37.2435L19.0097 36.3863C18.662 36.3366 18.3143 36.4772 18.099 36.7546C17.8833 37.0321 17.8326 37.4037 17.966 37.7285C18.0995 38.0533 18.397 38.2819 18.7452 38.3273L25.0255 39.1845C25.5617 39.2577 26.0558 38.8822 26.1285 38.346C26.2017 37.8103 25.8267 37.3162 25.2905 37.243V37.2435Z" fill="#E43828"/>
    </symbol>
    <symbol id="ic-stages-10" viewBox="0 0 60 60" fill="none">
      <path d="M57.3634 25.6046H56.485V22.9674V13.5924C56.485 10.523 53.9878 8.02588 50.9186 8.02588H26.7805L10.4958 3.37307C10.4911 3.37178 10.4863 3.37108 10.4816 3.36979C10.4768 3.3685 10.4722 3.36663 10.4674 3.36545C10.4576 3.36299 10.4478 3.36182 10.4381 3.35971C10.423 3.35655 10.4079 3.35327 10.3928 3.35081C10.379 3.34858 10.3656 3.34717 10.3519 3.34553C10.3359 3.34366 10.3201 3.34202 10.3043 3.34108C10.2914 3.34038 10.2786 3.34026 10.2657 3.34003C10.2493 3.33979 10.233 3.33967 10.2167 3.34038C10.2047 3.34085 10.1926 3.34202 10.1806 3.34295C10.1639 3.34436 10.1471 3.34588 10.1306 3.34835C10.1194 3.34999 10.1082 3.3521 10.0971 3.35409C10.08 3.35713 10.0631 3.36042 10.0463 3.36452C10.0359 3.3671 10.0257 3.37003 10.0154 3.37295C9.9983 3.37788 9.98143 3.38292 9.96455 3.38878C9.95506 3.39217 9.94568 3.39581 9.93619 3.39956C9.9192 3.40612 9.90232 3.41303 9.8858 3.42065C9.87701 3.42475 9.86846 3.4292 9.85979 3.43354C9.84326 3.44186 9.82697 3.4503 9.81104 3.45979C9.80272 3.4646 9.79475 3.46975 9.78654 3.47491C9.77084 3.48475 9.75537 3.49483 9.74037 3.50573C9.73252 3.51135 9.7249 3.51745 9.71717 3.52342C9.70275 3.53456 9.68846 3.54592 9.67475 3.55799C9.66701 3.56479 9.65963 3.57194 9.65213 3.57897C9.63924 3.59116 9.62647 3.60335 9.61428 3.61624C9.60666 3.62432 9.59951 3.63276 9.59213 3.6412C9.581 3.65397 9.56998 3.66686 9.55955 3.68034C9.55205 3.69006 9.54502 3.70002 9.53787 3.70999C9.52861 3.72299 9.51947 3.73612 9.51104 3.74959C9.50377 3.76108 9.49709 3.77303 9.49041 3.78487C9.48303 3.79788 9.47565 3.811 9.46897 3.82448C9.4624 3.8376 9.45654 3.85108 9.45057 3.86456C9.44471 3.8778 9.43897 3.89104 9.43381 3.90463C9.42842 3.91893 9.42373 3.93358 9.41893 3.94834C9.41588 3.95784 9.41213 3.96674 9.40932 3.97635C9.40791 3.98116 9.40733 3.98584 9.40604 3.99053C9.40475 3.99534 9.40287 3.99991 9.4017 4.00471L8.3967 8.02564H5.56698C2.50382 8.02564 0.0110156 10.5127 0.000937498 13.5736C0.000820311 13.58 0 13.5859 0 13.5922V44.0608C0 44.546 0.394921 44.9398 0.878905 44.9398C1.36406 44.9398 1.75781 44.546 1.75781 44.0608V17.646C2.75437 18.583 4.09429 19.1589 5.56698 19.1589H50.9186C50.9196 19.1589 50.9206 19.1588 50.9216 19.1588C53.0202 19.1604 54.7272 20.8683 54.7272 22.9675V29.1203H45.0578C45.0572 29.1203 45.0568 29.1204 45.0562 29.1204C45.0307 29.1204 45.0054 29.1219 44.9802 29.1242C44.9522 29.1266 44.9246 29.1306 44.8974 29.1356C44.8933 29.1363 44.8893 29.1367 44.8852 29.1375C44.8622 29.1421 44.8397 29.1482 44.8173 29.1545C44.8124 29.1559 44.8074 29.1569 44.8026 29.1584C44.7826 29.1645 44.7633 29.1717 44.744 29.1791C44.7366 29.1819 44.7291 29.1843 44.7217 29.1873C44.7055 29.194 44.69 29.2019 44.6744 29.2095C44.6641 29.2144 44.6536 29.219 44.6436 29.2242C44.6314 29.2307 44.6199 29.2381 44.6082 29.2451C44.5951 29.2528 44.5819 29.2603 44.5693 29.2688C44.5607 29.2744 44.5528 29.2808 44.5446 29.2868C44.5296 29.2976 44.5145 29.3083 44.5002 29.3201C44.494 29.3253 44.4883 29.331 44.4823 29.3363C44.4669 29.3496 44.4516 29.3629 44.4371 29.3774C44.4285 29.386 44.4208 29.3953 44.4127 29.4042C44.4013 29.4165 44.3896 29.4286 44.3788 29.4417C44.3607 29.4639 44.3437 29.4869 44.3277 29.5106C44.3274 29.511 44.327 29.5115 44.3268 29.5119L39.6395 36.5433C39.6068 36.5923 39.5792 36.6442 39.5573 36.6982C39.5489 36.7184 39.5423 36.7389 39.5356 36.7593C39.5336 36.7655 39.531 36.7714 39.5291 36.7777C39.5226 36.7993 39.5175 36.8213 39.5127 36.8431C39.5114 36.8488 39.5098 36.8544 39.5086 36.8602C39.5048 36.8798 39.5022 36.8997 39.4997 36.9195C39.4987 36.9279 39.497 36.9363 39.4962 36.9449C39.4946 36.9612 39.4942 36.9773 39.4936 36.9936C39.493 37.0061 39.492 37.0185 39.492 37.031C39.492 37.0431 39.493 37.0552 39.4935 37.0672C39.4941 37.0839 39.4946 37.1006 39.4962 37.1173C39.497 37.1254 39.4986 37.1334 39.4996 37.1415C39.5022 37.1617 39.5048 37.1818 39.5088 37.2019C39.5098 37.2074 39.5114 37.2128 39.5127 37.2183C39.5175 37.2403 39.5227 37.2623 39.5293 37.2843C39.5311 37.2905 39.5337 37.2964 39.5357 37.3028C39.5424 37.3232 39.5491 37.3437 39.5574 37.3638C39.5794 37.4177 39.6071 37.4698 39.6399 37.5189L44.327 44.5492C44.3273 44.5495 44.3275 44.5498 44.3277 44.5501C44.3466 44.5781 44.3672 44.6048 44.389 44.6305C44.3962 44.6389 44.4038 44.6468 44.4112 44.6548C44.426 44.671 44.4415 44.6867 44.4576 44.7019C44.4671 44.7108 44.4764 44.7194 44.486 44.7278C44.5032 44.7424 44.5209 44.7561 44.539 44.7695C44.5472 44.7755 44.5551 44.782 44.5634 44.7876C44.5898 44.8056 44.6171 44.8221 44.6453 44.8371C44.6525 44.8408 44.6598 44.844 44.667 44.8475C44.6895 44.8588 44.7125 44.8692 44.736 44.8785C44.7451 44.8821 44.7543 44.8854 44.7635 44.8887C44.7859 44.8966 44.8087 44.9037 44.8319 44.9099C44.8414 44.9123 44.8507 44.9149 44.8603 44.9173C44.8841 44.9228 44.9083 44.927 44.9328 44.9305C44.9417 44.9318 44.9505 44.9335 44.9594 44.9346C44.9896 44.938 45.0203 44.9399 45.0515 44.9401C45.0539 44.9401 45.0564 44.9406 45.059 44.9406C45.0594 44.9406 45.06 44.9405 45.0606 44.9405H54.7275V51.0937C54.7275 53.194 53.0189 54.9025 50.9189 54.9025H5.56745C3.46745 54.9025 1.75886 53.194 1.75886 51.0937C1.75886 51.0892 1.75828 51.0847 1.75816 51.0801V47.5769C1.75816 47.093 1.36441 46.698 0.879256 46.698C0.395273 46.698 0.000351562 47.093 0.000351562 47.5769V51.0937C0.000351562 51.1029 0.00140625 51.1118 0.00175781 51.1208C0.0164062 54.1777 2.50722 56.6604 5.56745 56.6604H50.9189C53.9879 56.6604 56.4849 54.1637 56.4853 51.0947C56.4853 51.0945 56.4853 51.0944 56.4853 51.0942V44.9405H57.3638C58.8173 44.9405 60 43.7578 60 42.3042V28.2408C59.9996 26.7872 58.817 25.6046 57.3634 25.6046ZM10.8867 5.31287L26.3951 9.74408C26.3958 9.74431 26.3967 9.74443 26.3974 9.74466L36.7914 12.7144H9.03678L10.8867 5.31287ZM54.727 18.9134C53.7306 17.9766 52.3909 17.4009 50.9186 17.4009C50.9171 17.4009 50.9156 17.4011 50.914 17.4011H5.56698C3.46687 17.4011 1.75828 15.6925 1.75828 13.5924C1.75828 11.4923 3.46687 9.78369 5.56698 9.78369H7.95737L7.22495 12.7144H5.56722C5.08183 12.7144 4.68831 13.1079 4.68831 13.5933C4.68831 14.0787 5.08183 14.4722 5.56722 14.4722H7.90815C7.90932 14.4722 7.91061 14.4725 7.9119 14.4725C7.91284 14.4725 7.91377 14.4722 7.91459 14.4722H43.0639C43.065 14.4722 43.0661 14.4725 43.0671 14.4725C43.0681 14.4725 43.069 14.4722 43.07 14.4722H49.7456C50.231 14.4722 50.6246 14.0787 50.6246 13.5933C50.6246 13.1079 50.231 12.7144 49.7456 12.7144H43.1898L32.9326 9.78369H50.9185C53.0185 9.78369 54.727 11.4923 54.727 13.5924V18.9134ZM58.2418 42.3037C58.2418 42.7881 57.8477 43.1822 57.3634 43.1822H45.5282L41.4268 37.0305L45.5282 30.878H57.3634C57.3757 30.878 57.3877 30.8766 57.3998 30.8761C57.6947 30.872 57.9778 30.8195 58.2418 30.726V42.3037ZM57.3634 29.1192C57.3573 29.1192 57.3513 29.1201 57.3452 29.1202H56.485V27.3624H57.3634C57.8477 27.3624 58.2418 27.7565 58.2418 28.2408C58.2418 28.7251 57.8477 29.1192 57.3634 29.1192Z" fill="#E43828"/><path d="M48.5742 33.8076C46.7972 33.8076 45.3516 35.2534 45.3516 37.0304C45.3516 38.8074 46.7972 40.253 48.5742 40.253C50.3512 40.253 51.7969 38.8074 51.7969 37.0304C51.7969 35.2534 50.3512 33.8076 48.5742 33.8076ZM48.5742 38.4952C47.7664 38.4952 47.1094 37.8382 47.1094 37.0304C47.1094 36.2226 47.7664 35.5654 48.5742 35.5654C49.382 35.5654 50.0391 36.2226 50.0391 37.0304C50.0391 37.8382 49.382 38.4952 48.5742 38.4952Z" fill="#E43828"/>
    </symbol>
    <symbol id="ic-stages-11" viewBox="0 0 60 60" fill="none">
      <g clip-path="url(#clip0)" fill="#E43828"><path d="M48.771 19.637C48.6051 19.2934 48.2585 19.0759 47.8771 19.0759H33.5559L41.8219 1.62427C41.9679 1.31639 41.946 0.955881 41.7633 0.667868C41.5825 0.380849 41.2657 0.206055 40.9251 0.206055H21.0621C20.5834 0.206055 20.1723 0.547697 20.0859 1.01845L15.1201 27.8334C15.0665 28.1234 15.144 28.4224 15.3337 28.6488C15.5214 28.8762 15.8014 29.0073 16.0964 29.0073H27.5583L16.1629 58.4432C15.9862 58.9011 16.1699 59.4195 16.596 59.6628C16.7499 59.7522 16.9207 59.7949 17.0886 59.7949C17.3835 59.7949 17.6725 59.6638 17.8672 59.4195L48.6548 20.6867C48.8911 20.3878 48.9368 19.9806 48.771 19.637ZM20.3699 53.0782L29.9339 28.3727C30.0521 28.0668 30.0124 27.7232 29.8277 27.4521C29.6419 27.1829 29.3351 27.021 29.0073 27.021H17.2902L21.8884 2.19235H39.3559L31.0899 19.6439C30.944 19.9518 30.9658 20.3123 31.1485 20.6003C31.3293 20.8874 31.6461 21.0621 31.9868 21.0621H45.8193L20.3699 53.0782Z"/><path d="M9.14341 29.0068H1.19822C0.649722 29.0068 0.205078 29.4515 0.205078 30C0.205078 30.5485 0.649724 30.9931 1.19822 30.9931H9.14341C9.69191 30.9931 10.1365 30.5485 10.1365 30C10.1365 29.4515 9.6919 29.0068 9.14341 29.0068Z"/><path d="M58.8016 29.0068H50.8564C50.3079 29.0068 49.8633 29.4515 49.8633 30C49.8633 30.5485 50.3079 30.9931 50.8564 30.9931H58.8016C59.3501 30.9931 59.7948 30.5485 59.7948 30C59.7948 29.4515 59.3501 29.0068 58.8016 29.0068Z"/><path d="M57.8938 1.19994L52.3468 6.74696C51.9589 7.13481 51.9589 7.76363 52.3468 8.15147C52.7346 8.53932 53.3634 8.53932 53.7513 8.15147L59.2983 2.60445C59.6862 2.21661 59.6862 1.58779 59.2983 1.19994C58.9105 0.812099 58.2816 0.812101 57.8938 1.19994Z"/><path d="M6.25318 50.8552L0.706161 56.4022C0.318316 56.7901 0.318316 57.4189 0.706161 57.8067C1.09401 58.1946 1.72283 58.1946 2.11067 57.8067L7.65769 52.2597C8.04553 51.8719 8.04553 51.2431 7.65769 50.8552C7.26985 50.4674 6.64102 50.4674 6.25318 50.8552Z"/><path d="M59.2964 57.3965L53.7493 51.8495C53.3615 51.4617 52.7327 51.4617 52.3448 51.8495C51.957 52.2373 51.957 52.8662 52.3448 53.254L57.8918 58.801C58.2797 59.1889 58.9085 59.1889 59.2964 58.801C59.6842 58.4132 59.6842 57.7844 59.2964 57.3965Z"/><path d="M7.65378 6.74516L2.10676 1.19814C1.71892 0.810292 1.0901 0.810292 0.702254 1.19814C0.31441 1.58598 0.314409 2.2148 0.702253 2.60264L6.24927 8.14966C6.63712 8.53751 7.26594 8.53751 7.65378 8.14966C8.04163 7.76182 8.04163 7.133 7.65378 6.74516Z"/></g>
    </symbol>
    <symbol id="ic-stages-12" viewBox="0 0 60 60" fill="none">
      <path d="M31.6338 37.9886C32.6748 37.9076 33.6238 37.3766 34.2398 36.5296L43.6028 23.5856C43.8898 23.1886 43.8468 22.6406 43.4988 22.2926C43.1508 21.9456 42.6028 21.9026 42.2058 22.1886L29.2598 31.5546C28.4158 32.1686 27.8848 33.1176 27.8038 34.1586C27.7228 35.1996 28.0998 36.2186 28.8368 36.9556C29.5078 37.6276 30.4128 37.9996 31.3538 37.9996C31.4468 37.9996 31.5398 37.9956 31.6338 37.9886ZM29.7978 34.3146C29.8328 33.8576 30.0668 33.4406 30.4348 33.1726L38.3318 27.4596L32.6208 35.3546C32.3508 35.7256 31.9338 35.9586 31.4768 35.9946C31.0218 36.0246 30.5748 35.8666 30.2498 35.5416C29.9278 35.2186 29.7618 34.7706 29.7978 34.3146Z" fill="#E43828"/><path d="M54.0347 19.564C54.0247 19.543 54.0247 19.521 54.0137 19.5C54.0017 19.48 53.9827 19.469 53.9697 19.45C52.9587 17.716 51.7627 16.103 50.4047 14.641L52.5527 12.494L53.9667 13.908L58.2087 9.665L53.9667 5.423L49.7237 9.665L51.1387 11.08L48.9907 13.227C47.5287 11.869 45.9167 10.672 44.1817 9.661C44.1627 9.648 44.1517 9.629 44.1317 9.617C44.1107 9.605 44.0887 9.606 44.0677 9.595C40.9747 7.813 37.4997 6.626 33.7947 6.191V5H35.2947C36.6737 5 37.7947 3.879 37.7947 2.5C37.7947 1.121 36.6727 0 35.2937 0H26.2937C24.9147 0 23.7937 1.121 23.7937 2.5C23.7937 3.879 24.9147 5 26.2937 5H27.7937V6.156C26.7137 6.271 25.6357 6.447 24.5697 6.691C24.0317 6.814 23.6947 7.351 23.8187 7.889C23.9417 8.427 24.4787 8.765 25.0167 8.64C25.9367 8.429 26.8657 8.27 27.7967 8.163L28.8697 8.08C29.1977 8.055 29.4997 8.037 29.7937 8.023V10C29.7937 10.553 30.2407 11 30.7937 11C31.3467 11 31.7937 10.553 31.7937 10V8.03C35.5547 8.203 39.0987 9.213 42.2497 10.875L41.2637 12.582C40.9877 13.061 41.1517 13.672 41.6297 13.948C41.7867 14.039 41.9587 14.082 42.1287 14.082C42.4747 14.082 42.8107 13.903 42.9957 13.582L43.9787 11.879C47.1077 13.864 49.7657 16.522 51.7507 19.651L50.0477 20.634C49.5707 20.91 49.4067 21.521 49.6837 22C49.8697 22.321 50.2047 22.5 50.5507 22.5C50.7207 22.5 50.8927 22.457 51.0497 22.366L52.7567 21.38C54.4417 24.576 55.4547 28.178 55.6057 31.999H53.6307C53.0777 31.999 52.6307 32.446 52.6307 32.999C52.6307 33.552 53.0777 33.999 53.6307 33.999H55.6057C55.4547 37.82 54.4417 41.422 52.7567 44.618L51.0497 43.632C50.5717 43.356 49.9597 43.518 49.6837 43.998C49.4077 44.477 49.5717 45.088 50.0497 45.364L51.7527 46.347C49.7677 49.476 47.1097 52.134 43.9807 54.119L42.9977 52.416C42.7207 51.936 42.1077 51.773 41.6317 52.05C41.1527 52.326 40.9887 52.938 41.2657 53.416L42.2517 55.123C39.1007 56.785 35.5567 57.795 31.7957 57.968V56C31.7957 55.447 31.3487 55 30.7957 55C30.2427 55 29.7957 55.447 29.7957 56V57.976C28.1987 57.921 26.5967 57.721 25.0197 57.359C24.4817 57.23 23.9447 57.572 23.8217 58.11C23.6977 58.648 24.0347 59.185 24.5727 59.308C26.5687 59.768 28.6077 60 30.6307 60C30.6797 60 30.7267 59.997 30.7757 59.996C30.7827 59.996 30.7877 60 30.7937 60C30.8017 60 30.8087 59.995 30.8167 59.995C35.6237 59.962 40.1337 58.664 44.0357 56.422C44.0667 56.408 44.0997 56.401 44.1297 56.383C44.1497 56.371 44.1607 56.352 44.1797 56.339C48.2187 53.985 51.5937 50.614 53.9527 46.578C53.9717 46.551 53.9957 46.53 54.0127 46.5C54.0247 46.479 54.0237 46.457 54.0337 46.436C56.3177 42.476 57.6307 37.89 57.6307 33C57.6307 28.11 56.3177 23.524 54.0347 19.564ZM53.9657 8.251L55.3797 9.665L53.9657 11.08L52.5507 9.665L53.9657 8.251ZM29.7937 6.021V3H26.2937C26.0187 3 25.7937 2.775 25.7937 2.5C25.7937 2.225 26.0187 2 26.2937 2H35.2937C35.5687 2 35.7937 2.225 35.7937 2.5C35.7937 2.775 35.5687 3 35.2937 3H31.7937V6.021C31.4457 6.007 31.1137 6 30.7937 6C30.7657 6 30.7337 6.002 30.7057 6.002C30.6807 6.002 30.6557 6 30.6307 6C30.4667 6 30.3027 6.011 30.1387 6.014C30.0227 6.017 29.9137 6.016 29.7937 6.021Z" fill="#E43828"/><path d="M21.793 14H16.793C16.24 14 15.793 14.447 15.793 15C15.793 15.553 16.24 16 16.793 16H21.793C22.346 16 22.793 15.553 22.793 15C22.793 14.447 22.346 14 21.793 14Z" fill="#E43828"/><path d="M21.793 21H11.793C11.24 21 10.793 21.447 10.793 22C10.793 22.553 11.24 23 11.793 23H21.793C22.346 23 22.793 22.553 22.793 22C22.793 21.447 22.346 21 21.793 21Z" fill="#E43828"/><path d="M21.793 28H6.79297C6.23997 28 5.79297 28.447 5.79297 29C5.79297 29.553 6.23997 30 6.79297 30H21.793C22.346 30 22.793 29.553 22.793 29C22.793 28.447 22.346 28 21.793 28Z" fill="#E43828"/><path d="M21.793 35H2.79297C2.23997 35 1.79297 35.447 1.79297 36C1.79297 36.553 2.23997 37 2.79297 37H21.793C22.346 37 22.793 36.553 22.793 36C22.793 35.447 22.346 35 21.793 35Z" fill="#E43828"/><path d="M21.793 42H8.79297C8.23997 42 7.79297 42.447 7.79297 43C7.79297 43.553 8.23997 44 8.79297 44H21.793C22.346 44 22.793 43.553 22.793 43C22.793 42.447 22.346 42 21.793 42Z" fill="#E43828"/><path d="M21.793 49H14.793C14.24 49 13.793 49.447 13.793 50C13.793 50.553 14.24 51 14.793 51H21.793C22.346 51 22.793 50.553 22.793 50C22.793 49.447 22.346 49 21.793 49Z" fill="#E43828"/>
    </symbol>
    <symbol id="ic-stages-14" viewBox="0 0 60 60" fill="none">
      <g clip-path="url(#clip0)" fill="#E43828"><path d="M47.5857 35.1729C40.7405 35.1729 35.1719 40.7415 35.1719 47.5866C35.1719 54.4318 40.7405 60.0004 47.5857 60.0004C54.4308 60.0004 59.9995 54.4318 59.9995 47.5866C59.9995 40.7415 54.4308 35.1729 47.5857 35.1729ZM47.5857 57.9315C41.8815 57.9315 37.2408 53.2908 37.2408 47.5866C37.2408 41.8825 41.8815 37.2418 47.5857 37.2418C53.2898 37.2418 57.9305 41.8825 57.9305 47.5866C57.9305 53.2908 53.2898 57.9315 47.5857 57.9315Z"/><path d="M53.7922 46.5516H48.6197V41.3792C48.6197 40.8071 48.1573 40.3447 47.5853 40.3447C47.0132 40.3447 46.5508 40.8071 46.5508 41.3792V47.5861C46.5508 48.1582 47.0132 48.6206 47.5853 48.6206H53.7922C54.3642 48.6206 54.8266 48.1582 54.8266 47.5861C54.8266 47.014 54.3642 46.5516 53.7922 46.5516Z"/><path d="M27.9318 21.7246H25.8629H18.6215H16.5525H7.24219V31.035V33.1039V40.3453V42.4143V51.7246H16.5525H18.6215H27.9318V42.4143V40.3453V33.1039H35.1732H37.2422H46.5525V21.7246H37.2422H35.1732H27.9318ZM37.2422 23.7936H44.4836V31.035H37.2422V23.7936ZM18.6215 23.7936H25.8629V31.035H18.6215V23.7936ZM9.31115 23.7936H16.5525V31.035H9.31115V23.7936ZM9.31115 33.1039H16.5525V40.3453H9.31115V33.1039ZM16.5525 49.6556H9.31115V42.4143H16.5525V49.6556ZM25.8629 49.6556H18.6215V42.4143H25.8629V49.6556ZM25.8629 40.3453H18.6215V33.1039H25.8629V40.3453ZM35.1732 31.035H27.9318V23.7936H35.1732V31.035Z"/><path d="M34.1379 56.8966H2.06897V16.5517H51.7241V30C51.7241 30.5721 52.1866 31.0345 52.7586 31.0345C53.3307 31.0345 53.7931 30.5721 53.7931 30V15.5172V5.17241C53.7931 4.60035 53.3307 4.13793 52.7586 4.13793H47.5862V1.03448C47.5862 0.462414 47.1238 0 46.5517 0H39.3103C38.7383 0 38.2759 0.462414 38.2759 1.03448V4.13793H15.5172V1.03448C15.5172 0.462414 15.0548 0 14.4828 0H7.24138C6.66931 0 6.2069 0.462414 6.2069 1.03448V4.13793H1.03448C0.462414 4.13793 0 4.60035 0 5.17241V15.5172V57.931C0 58.5031 0.462414 58.9655 1.03448 58.9655H34.1379C34.71 58.9655 35.1724 58.5031 35.1724 57.931C35.1724 57.359 34.71 56.8966 34.1379 56.8966ZM40.3448 2.06897H45.5172V5.17241V8.27586H40.3448V5.17241V2.06897ZM8.27586 2.06897H13.4483V5.17241V8.27586H8.27586V5.17241V2.06897ZM2.06897 6.2069H6.2069V9.31035C6.2069 9.88241 6.66931 10.3448 7.24138 10.3448H14.4828C15.0548 10.3448 15.5172 9.88241 15.5172 9.31035V6.2069H38.2759V9.31035C38.2759 9.88241 38.7383 10.3448 39.3103 10.3448H46.5517C47.1238 10.3448 47.5862 9.88241 47.5862 9.31035V6.2069H51.7241V14.4828H2.06897V6.2069Z"/></g>
    </symbol>
    <symbol id="ic-stages-2" viewBox="0 0 50 60" fill="none">
      <path d="M49.1483 27.7515C48.6635 26.9109 47.8516 26.309 46.9063 26.0896V20.914C46.9063 9.39179 37.0684 0 24.9773 0C12.8862 0 3.0482 9.39179 3.0482 20.914V26.0896C2.09912 26.3223 1.29031 26.941 0.817373 27.7961C0.449705 28.5048 0.269147 29.2958 0.293128 30.0939V41.4823C0.271098 42.2766 0.451517 43.0635 0.817373 43.7689C1.56456 45.0516 2.98616 45.7864 4.46478 45.6539H6.19367C6.2645 46.8335 7.24286 47.753 8.42451 47.7509H10.3876C11.6198 47.7509 12.6185 46.7522 12.6185 45.5201V25.833C12.6185 24.6009 11.6198 23.6022 10.3876 23.6022H8.36873C7.13662 23.6022 6.1379 24.6009 6.1379 25.833V25.9222H5.23442V20.914C5.23442 10.6076 14.0685 2.23083 24.9326 2.23083C35.7968 2.23083 44.6309 10.6076 44.6309 20.914V25.9222H43.7274V25.833C43.7274 24.6009 42.7287 23.6022 41.4966 23.6022H39.6227C38.3906 23.6022 37.3918 24.6009 37.3918 25.833V45.5982C37.4186 46.7148 38.267 47.6395 39.3773 47.7621C39.1645 49.1807 38.5357 50.5044 37.5703 51.5656C35.8191 53.5064 32.9636 54.6219 29.1155 54.9119V54.4211C29.0552 53.1358 27.9695 52.1398 26.6839 52.1903H21.8987C20.6131 52.1398 19.5273 53.1358 19.4671 54.4211V57.7673C19.5273 59.0526 20.6131 60.0486 21.8987 59.9982H26.7285C28.0141 60.0486 29.0998 59.0526 29.1601 57.7673V57.1427C33.6775 56.8415 37.0907 55.4807 39.2657 53.0826C40.6211 51.6069 41.4759 49.7409 41.7085 47.7509C42.8342 47.6855 43.7341 46.7904 43.8055 45.6651H45.5344C47.0129 45.7975 48.4346 45.0628 49.1818 43.78C49.5476 43.0747 49.7281 42.2877 49.706 41.4934V30.0939C49.7274 29.2778 49.5351 28.4704 49.1483 27.7515ZM8.42451 43.5123V28.1085C8.43594 27.9785 8.43594 27.848 8.42451 27.7181V25.8776L10.2984 25.8218V45.5312H8.42451V43.5123ZM6.19367 28.0527V43.4231H4.46478C3.1709 43.4231 2.86974 42.8765 2.76935 42.6869C2.58893 42.308 2.50458 41.8904 2.52396 41.4711V30.0939C2.49928 29.6718 2.57973 29.2502 2.7582 28.8669C2.85858 28.6885 3.15975 28.1308 4.45363 28.1308L6.19367 28.0527ZM26.9739 56.0496V57.5777C26.9242 57.6685 26.8316 57.7273 26.7285 57.7339H21.8987C21.8393 57.7382 21.7796 57.7382 21.7203 57.7339V54.4769C21.7826 54.4255 21.863 54.4014 21.9433 54.4099H26.7731C26.8958 54.4099 26.9739 54.4099 26.9739 54.4099V56.0496ZM41.5412 28.1085V45.5312H40.66H40.5262H40.4369H39.6561V25.833H41.5746L41.5412 28.1085ZM47.1852 42.7092C47.0848 42.8877 46.7836 43.4454 45.4897 43.4454H43.772V28.1531H45.4897C46.7836 28.1531 47.0848 28.6996 47.1852 28.8892C47.3656 29.2682 47.45 29.6858 47.4306 30.105V41.4934C47.4498 41.9127 47.3656 42.3303 47.1852 42.7092Z" fill="#E43828"/>
    </symbol>
    <symbol id="ic-stages-3" viewBox="0 0 60 60" fill="none">
      <path d="M41.5008 0L24.0633 16.9533L8.9615 1.85141C8.01458 0.906811 6.75745 0.385768 5.42102 0.385768C2.65908 0.385768 0.412109 2.63274 0.412109 5.39375C0.412109 6.73298 0.933152 7.9901 1.87961 8.93516L16.8812 23.9367L5.73915 34.7681L30.9712 60.0002L59.6421 32.3177V18.1418L41.5008 0ZM53.3504 25.2242L57.7315 20.8431V29.6057L53.3504 25.2242ZM35.5883 35.562L32.0534 35.0573L35.0836 32.0271L35.5883 35.562ZM9.01001 13.3652L7.49493 11.8496L11.876 7.46859L13.3911 8.98368L9.01001 13.3652ZM11.876 13.2005L31.5422 32.8668L30.0271 34.3823L10.3609 14.7156L11.876 13.2005ZM32.8931 31.5163L13.2269 11.8496L14.742 10.3346L34.4082 30.0008L32.8931 31.5163ZM2.32275 5.39375C2.32275 3.68555 3.71282 2.29641 5.42102 2.29641C6.24853 2.29641 7.02613 2.61874 7.61155 3.20322L10.5251 6.11771L6.14405 10.4992L3.22956 7.58334C2.64508 6.99979 2.32275 6.2222 2.32275 5.39375ZM8.46005 34.7872L18.2311 25.2876L29.5765 36.633L37.84 37.8136L36.6593 29.5502L25.4142 18.3041L41.4817 2.68265L57.3359 18.5369L50.6486 25.2242L57.3238 31.8993L30.9941 57.3203L8.46005 34.7872Z" fill="#E43828"/>
    </symbol>
    <symbol id="ic-stages-4" viewBox="0 0 60 40" fill="none">
      <path d="M13.75 5.00008H58.75C59.441 5.00008 60.0001 4.44098 60.0001 3.75004C60.0001 3.0591 59.441 2.5 58.75 2.5H13.75C13.0591 2.5 12.5 3.0591 12.5 3.75004C12.5001 4.44098 13.0592 5.00008 13.75 5.00008Z" fill="#E43828"/><path d="M58.75 18.75H13.75C13.0591 18.75 12.5 19.3091 12.5 20C12.5 20.691 13.0591 21.2501 13.75 21.2501H58.75C59.441 21.2501 60.0001 20.691 60.0001 20C60.0001 19.3091 59.441 18.75 58.75 18.75Z" fill="#E43828"/><path d="M58.75 35H13.75C13.0591 35 12.5 35.5591 12.5 36.25C12.5 36.941 13.0591 37.5001 13.75 37.5001H58.75C59.441 37.5001 60.0001 36.941 60.0001 36.25C60.0001 35.5591 59.441 35 58.75 35Z" fill="#E43828"/><path d="M6.24996 0H1.25004C0.559102 0 0 0.559101 0 1.25004V6.25007C0 6.94101 0.559102 7.50011 1.25004 7.50011H6.25008C6.94102 7.50011 7.50012 6.94101 7.50012 6.25007V1.25004C7.5 0.559101 6.9409 0 6.24996 0ZM5.00004 5.00003H2.49996V2.50008H4.99992V5.00003H5.00004Z" fill="#E43828"/><path d="M6.24996 16.25H1.25004C0.559102 16.25 0 16.8091 0 17.5V22.5001C0 23.1909 0.559102 23.75 1.25004 23.75H6.25008C6.9409 23.75 7.5 23.1909 7.5 22.5V17.4999C7.5 16.8091 6.9409 16.25 6.24996 16.25ZM5.00004 21.25H2.49996V18.7501H4.99992V21.25H5.00004Z" fill="#E43828"/><path d="M6.24996 32.5H1.25004C0.559102 32.5 0 33.0591 0 33.7499V38.75C0 39.4409 0.559102 40 1.25004 40H6.25008C6.9409 40 7.5 39.4409 7.5 38.75V33.7499C7.5 33.0591 6.9409 32.5 6.24996 32.5ZM5.00004 37.4999H2.49996V35H4.99992V37.4999H5.00004Z" fill="#E43828"/>
    </symbol>
    <symbol id="ic-stages-5" viewBox="0 0 60 56" fill="none">
      <path d="M21.3594 24.6967C21.0887 24.2423 20.5011 24.0934 20.0469 24.3641L8.8934 31.0074C8.60348 31.18 8.42578 31.4925 8.42578 31.8299C8.42578 32.1673 8.60348 32.4798 8.89327 32.6524L20.0468 39.2957C20.2003 39.3872 20.3691 39.4308 20.5358 39.4308C20.8621 39.4308 21.1802 39.2638 21.3592 38.9631C21.6299 38.5088 21.4809 37.9212 21.0267 37.6507L11.2542 31.8299L21.0267 26.0091C21.481 25.7386 21.63 25.151 21.3594 24.6967Z" fill="#E43828"/><path d="M38.641 38.9631C38.8201 39.2638 39.1381 39.4307 39.4644 39.4307C39.6311 39.4307 39.7999 39.3872 39.9534 39.2956L51.1069 32.6524C51.3969 32.4796 51.5744 32.1672 51.5744 31.8298C51.5744 31.4924 51.3967 31.1799 51.1069 31.0073L39.9534 24.3641C39.4992 24.0934 38.9114 24.2423 38.641 24.6966C38.3703 25.151 38.5193 25.7386 38.9735 26.0091L48.746 31.8298L38.9735 37.6506C38.5192 37.9211 38.3702 38.5087 38.641 38.9631Z" fill="#E43828"/><path d="M33.6653 24.6533L24.7428 37.9399C24.448 38.3788 24.5648 38.9737 25.0038 39.2686C25.1678 39.3786 25.3532 39.4312 25.5368 39.4312C25.8451 39.4312 26.1478 39.2825 26.3325 39.0074L35.255 25.7208C35.5498 25.2819 35.433 24.687 34.994 24.3921C34.5547 24.0973 33.9599 24.2144 33.6653 24.6533Z" fill="#E43828"/><path d="M59.0426 0.872559H0.957447C0.428553 0.872559 0 1.30124 0 1.83001V54.1704C0 54.6992 0.428553 55.1279 0.957447 55.1279H59.0426C59.5714 55.1279 60 54.6992 60 54.1704V43.9577C60 43.4289 59.5714 43.0002 59.0426 43.0002C58.5137 43.0002 58.0851 43.4289 58.0851 43.9577V53.213H1.91489V10.447H58.0851V40.1279C58.0851 40.6566 58.5137 41.0853 59.0426 41.0853C59.5714 41.0853 60 40.6566 60 40.1279V1.83001C60 1.30124 59.5714 0.872559 59.0426 0.872559ZM1.91489 2.78745H37.3404V8.53213H1.91489V2.78745ZM39.2553 8.53213V2.78745H58.0851V8.53213H39.2553Z" fill="#E43828"/><path d="M48.7029 4.63867C48.1398 4.63867 47.6816 5.09684 47.6816 5.65995C47.6816 6.22305 48.1398 6.68122 48.7029 6.68122C49.266 6.68122 49.7242 6.22305 49.7242 5.65995C49.7242 5.09684 49.266 4.63867 48.7029 4.63867Z" fill="#E43828"/><path d="M43.4685 4.63867C42.9054 4.63867 42.4473 5.09684 42.4473 5.65995C42.4473 6.22305 42.9054 6.68122 43.4685 6.68122C44.0316 6.68122 44.4898 6.22305 44.4898 5.65995C44.4898 5.09684 44.0316 4.63867 43.4685 4.63867Z" fill="#E43828"/><path d="M53.9353 4.63867C53.3722 4.63867 52.9141 5.09684 52.9141 5.65995C52.9141 6.22305 53.3722 6.68122 53.9353 6.68122C54.4984 6.68122 54.9566 6.22305 54.9566 5.65995C54.9566 5.09684 54.4984 4.63867 53.9353 4.63867Z" fill="#E43828"/>
    </symbol>
    <symbol id="ic-stages-6" viewBox="0 0 54 60" fill="none">
      <path d="M32.8675 20.0143C36.802 21.0299 39.7788 24.2736 40.4513 28.2784C40.5283 28.7365 40.9252 29.0607 41.3748 29.0607C41.4263 29.0607 41.4786 29.0565 41.5312 29.0477C42.0418 28.962 42.3862 28.4786 42.3004 27.9679C41.5053 23.2338 37.9865 19.3993 33.336 18.199C32.8341 18.0694 32.3233 18.3711 32.1939 18.8725C32.0648 19.3736 32.3663 19.885 32.8675 20.0143Z" fill="#E43828"/><path d="M16.058 49.5266C16.7661 48.8183 17.1562 47.8766 17.1562 46.875C17.1562 46.1939 16.9755 45.5407 16.6375 44.9696L19.7002 41.907C22.5165 44.4127 26.2239 45.9375 30.2812 45.9375C39.0693 45.9375 46.2188 38.7879 46.2188 30C46.2188 21.2121 39.0693 14.0625 30.2812 14.0625C21.4932 14.0625 14.3438 21.2121 14.3438 30C14.3438 34.0574 15.8686 37.7646 18.3742 40.5811L15.3115 43.6438C14.7404 43.3057 14.0873 43.125 13.4062 43.125C12.4045 43.125 11.4629 43.515 10.7546 44.2233L1.37965 53.5983C0.671367 54.3066 0.28125 55.2483 0.28125 56.25C0.28125 57.2516 0.671367 58.1933 1.37965 58.9017C2.11066 59.6327 3.07102 59.9981 4.03125 59.9981C4.99148 59.9981 5.95184 59.6326 6.68285 58.9017L16.058 49.5266C16.0579 49.5267 16.0579 49.5267 16.058 49.5266ZM30.2812 15.9375C38.0353 15.9375 44.3438 22.2459 44.3438 30C44.3438 37.7541 38.0353 44.0625 30.2812 44.0625C22.5272 44.0625 16.2188 37.7541 16.2188 30C16.2188 22.2459 22.5272 15.9375 30.2812 15.9375ZM14.732 48.2009L5.35699 57.5757C4.62586 58.307 3.43629 58.3066 2.70539 57.5759C2.35125 57.2217 2.15625 56.7507 2.15625 56.25C2.15625 55.7491 2.35125 55.2783 2.70539 54.9243L12.0804 45.5491C12.4345 45.1951 12.9054 45 13.4061 45C13.9069 45 14.3779 45.195 14.732 45.5493C15.0863 45.9033 15.2812 46.3741 15.2812 46.875C15.2812 47.3757 15.0863 47.8467 14.732 48.2009Z" fill="#E43828"/><path d="M53.7141 13.0323C53.7128 13.0189 53.7102 13.0061 53.7083 12.9929C53.7059 12.9758 53.7039 12.9587 53.7005 12.9416C53.6974 12.9262 53.6932 12.9114 53.6895 12.8962C53.6858 12.8817 53.6827 12.8671 53.6783 12.8527C53.6739 12.8379 53.6682 12.8235 53.6631 12.8089C53.6579 12.7945 53.6532 12.7801 53.6474 12.7659C53.6418 12.7525 53.6352 12.7395 53.629 12.7263C53.6222 12.7118 53.6156 12.6971 53.608 12.6829C53.6012 12.6702 53.5935 12.6582 53.5862 12.6459C53.5779 12.632 53.5699 12.6178 53.5608 12.6042C53.5519 12.591 53.5419 12.5784 53.5324 12.5657C53.5236 12.5539 53.5155 12.5419 53.5062 12.5305C53.4884 12.5088 53.4694 12.4881 53.4497 12.468C53.4477 12.4661 53.4462 12.4638 53.4442 12.462L41.2567 0.274453C41.2564 0.274219 41.2561 0.273984 41.2559 0.27375C41.2266 0.24457 41.1948 0.218086 41.1619 0.192891C41.1543 0.187148 41.1468 0.181289 41.139 0.175781C41.1057 0.151875 41.0713 0.129727 41.0351 0.110391C41.0324 0.108984 41.0296 0.107813 41.0269 0.106406C40.9927 0.0885938 40.9569 0.073125 40.9203 0.0595313C40.9128 0.0568359 40.9055 0.0539063 40.898 0.0513281C40.8588 0.0378516 40.8187 0.0263672 40.7774 0.0181641C40.7762 0.0179297 40.7749 0.0178125 40.7736 0.0175781C40.7357 0.0101953 40.6968 0.00574219 40.6574 0.00304688C40.6467 0.00234375 40.6361 0.00175781 40.6254 0.00140625C40.6148 0.00128906 40.6044 0 40.5938 0H9.65625C8.10539 0 6.84375 1.26176 6.84375 2.8125V43.1249C6.84375 43.6426 7.26352 44.0624 7.78125 44.0624C8.29898 44.0624 8.71875 43.6426 8.71875 43.1249V2.8125C8.71875 2.29559 9.13934 1.875 9.65625 1.875H39.6562V11.25C39.6562 12.8007 40.918 14.0625 42.4688 14.0625H48.0936C48.6114 14.0625 49.0311 13.6427 49.0311 13.125C49.0311 12.6073 48.6114 12.1875 48.0936 12.1875H42.4688C41.9518 12.1875 41.5312 11.7669 41.5312 11.25V3.20074L51.8438 13.5132V57.1875C51.8438 57.7044 51.4232 58.125 50.9062 58.125H10.5941C10.0764 58.125 9.6566 58.5448 9.6566 59.0625C9.6566 59.5802 10.0764 60 10.5941 60H50.9062C52.4571 60 53.7188 58.7382 53.7188 57.1875V13.1252C53.7188 13.0943 53.7171 13.0632 53.7141 13.0323Z" fill="#E43828"/><path d="M38.7188 30C38.7188 29.4823 38.299 29.0625 37.7812 29.0625H19.0312C18.5135 29.0625 18.0938 29.4823 18.0938 30C18.0938 30.5177 18.5135 30.9375 19.0312 30.9375H37.7812C38.299 30.9375 38.7188 30.5177 38.7188 30Z" fill="#E43828"/><path d="M39.6562 33.75H21.8438C21.326 33.75 20.9062 34.1698 20.9062 34.6875C20.9062 35.2052 21.326 35.625 21.8438 35.625H39.6562C40.174 35.625 40.5938 35.2052 40.5938 34.6875C40.5938 34.1698 40.174 33.75 39.6562 33.75Z" fill="#E43828"/><path d="M21.8438 26.25H35.9062C36.424 26.25 36.8438 25.8302 36.8438 25.3125C36.8438 24.7948 36.424 24.375 35.9062 24.375H21.8438C21.326 24.375 20.9062 24.7948 20.9062 25.3125C20.9062 25.8302 21.326 26.25 21.8438 26.25Z" fill="#E43828"/>
    </symbol>
    <symbol id="ic-stages-7" viewBox="0 0 60 60" fill="none">
      <path d="M58.9996 54.0002H55.9996V35.0002C55.9992 34.448 55.5511 34.0006 54.9988 34.001C54.673 34.0012 54.3676 34.1602 54.1806 34.4272L40.1806 54.4272C39.8641 54.8798 39.9744 55.5033 40.4271 55.8197C40.5949 55.9371 40.7947 56.0001 40.9996 56.0002H53.9996V59.0002C53.9996 59.5525 54.4473 60.0002 54.9996 60.0002C55.5518 60.0002 55.9996 59.5525 55.9996 59.0002V56.0002H58.9996C59.5518 56.0002 59.9996 55.5525 59.9996 55.0002C59.9996 54.448 59.5518 54.0002 58.9996 54.0002ZM53.9996 54.0002H42.9196L53.9996 38.1722V54.0002Z" fill="#E43828"/><path d="M41 57.9998H29.161L40.168 45.0388C40.193 45.009 40.2164 44.978 40.238 44.9458C42.3087 41.881 41.619 37.7316 38.668 35.5018C35.0799 32.9237 30.0811 33.7425 27.5031 37.3307C26.5255 38.6913 25.9998 40.3244 26 41.9998C26 42.552 26.4478 42.9998 27 42.9998C27.5523 42.9998 28 42.552 28 41.9998C27.9996 38.686 30.6857 35.9995 33.9994 35.9991C35.2554 35.999 36.4797 36.393 37.5 37.1258C39.5671 38.7096 40.0485 41.6266 38.6 43.7908L26.238 58.3528C25.8806 58.7739 25.9324 59.4049 26.3535 59.7623C26.5341 59.9155 26.7631 59.9996 27 59.9998H41C41.5522 59.9998 42 59.552 42 58.9998C42 58.4475 41.5522 57.9998 41 57.9998Z" fill="#E43828"/><path d="M27.022 53.019C27.0429 52.4671 26.6122 52.0029 26.0604 51.982C26.0602 51.982 26.0601 51.982 26.06 51.982C13.0137 51.4977 2.54262 41.0454 2.035 28H6C6.55225 28 7 27.5522 7 27C7 26.4478 6.55225 26 6 26H2.035C2.53538 12.9776 12.9775 2.53588 26 2.036V5C26 5.55225 26.4478 6 27 6C27.5522 6 28 5.55225 28 5V2.036C40.8442 2.53275 51.2108 12.7035 51.952 25.536L48.052 21.636C47.6547 21.2522 47.0218 21.2633 46.638 21.6605C46.2638 22.048 46.2638 22.6624 46.638 23.05L52.22 28.632C52.3251 28.7593 52.4606 28.8579 52.614 28.919C52.6531 28.9307 52.6929 28.9405 52.733 28.948C52.8016 28.9727 52.8726 28.9899 52.945 28.999C52.955 28.999 52.964 28.999 52.974 28.999C52.984 28.999 52.993 28.999 53.002 28.999C53.0781 28.9932 53.1534 28.9785 53.226 28.955C53.2671 28.95 53.3079 28.9424 53.348 28.932C53.4834 28.8839 53.6066 28.8067 53.709 28.706L59.367 23.05C59.7506 22.6528 59.7397 22.0198 59.3425 21.636C58.955 21.2617 58.3406 21.2617 57.953 21.636L53.956 25.63C53.2416 11.2962 41.4225 0.035125 27.071 0.014C27.046 0.013 27.025 0 27 0C26.975 0 26.954 0.013 26.929 0.014C12.0728 0.034375 0.034375 12.0728 0.014 26.929C0.014 26.954 0 26.975 0 27C0 27.025 0.013 27.046 0.014 27.071C0.038875 41.5606 11.5064 53.4422 25.986 53.981H26.023C26.5604 53.9809 27.0016 53.556 27.022 53.019Z" fill="#E43828"/><path d="M40.4351 13.5652C40.0446 13.1749 39.4116 13.1749 39.0211 13.5652L28.2751 24.3102C27.4632 23.9482 26.5358 23.9482 25.7241 24.3102L20.6361 19.2222C20.2388 18.8386 19.6057 18.8496 19.2221 19.2469C18.8478 19.6344 18.8478 20.2487 19.2221 20.6362L24.3001 25.7142C23.5871 27.2067 24.2191 28.9947 25.7117 29.7076C26.8573 30.2549 28.2236 30.0202 29.1211 29.1222C30.0235 28.2275 30.2558 26.8575 29.6991 25.7152L40.4351 14.9792C40.8255 14.5887 40.8255 13.9557 40.4351 13.5652ZM27.7073 27.707C27.7072 27.7071 27.7072 27.7071 27.7071 27.7072C27.3116 28.0854 26.6886 28.0854 26.2931 27.7072C25.9025 27.3167 25.9025 26.6836 26.2928 26.293C26.6833 25.9024 27.3165 25.9024 27.7071 26.2927C28.0977 26.6832 28.0977 27.3165 27.7073 27.707Z" fill="#E43828"/>
    </symbol>
    <symbol id="ic-stages-8" viewBox="0 0 60 60" fill="none">
      <g clip-path="url(#clip0)" fill="#E43828"><path d="M59.9596 25.9149V25.91C59.9845 25.6102 59.9996 25.3099 59.9996 24.9999C60.003 24.6371 59.985 24.2738 59.9454 23.913C59.0655 13.8681 45.9118 6 29.9998 6C14.206 6 1.23388 13.7709 0.0908196 23.5922C0.0322263 23.7201 0.000976556 23.8593 0 23.9999V34.9998C0 40.3909 3.56882 45.261 9.28314 48.7219C9.39593 48.8352 9.53509 48.9196 9.68792 48.967C15.9057 52.3825 22.9066 54.1174 29.9998 53.9997C37.093 54.1174 44.0939 52.3825 50.3117 48.967C50.4645 48.9196 50.6037 48.8352 50.7165 48.7219C56.4308 45.261 59.9996 40.3909 59.9996 34.9998L59.9596 25.9203V25.9149ZM29.9998 7.99999C44.8566 7.99999 57.1149 15.04 57.9508 24.0702L57.9596 25.87C57.8468 27.1571 57.5055 28.4144 56.9527 29.5819C53.5548 36.8919 42.4709 41.9998 29.9998 41.9998C17.5287 41.9998 6.44478 36.8919 3.04685 29.5789C2.36668 28.1478 2.00926 26.5848 1.99999 24.9999C1.99999 15.6259 14.5609 7.99999 29.9998 7.99999ZM11.6 40.054C11.8759 40.1873 12.1552 40.3186 12.4379 40.448C12.7768 40.6018 13.12 40.7507 13.4691 40.8948C13.7611 41.0159 14.0541 41.135 14.3529 41.2498C14.7108 41.387 15.0741 41.5169 15.4408 41.6502C15.7411 41.7561 16.0497 41.8611 16.3607 41.9597C16.7401 42.0818 17.1259 42.1941 17.514 42.3049C17.827 42.3948 18.139 42.4851 18.4569 42.5681C18.639 42.615 18.8177 42.6677 19.0008 42.7078V50.6359C16.2103 49.9294 13.5214 48.8674 11.0009 47.4768V39.76C11.2001 39.8611 11.3998 39.9558 11.6 40.054ZM20.9999 43.1457C21.2997 43.2058 21.6161 43.2458 21.9227 43.304C22.245 43.3601 22.5619 43.4202 22.888 43.469C23.346 43.5388 23.8128 43.593 24.2796 43.6492C24.5877 43.6858 24.8919 43.7288 25.203 43.76C25.7259 43.8118 26.2576 43.8469 26.7899 43.8821C27.053 43.8992 27.3118 43.925 27.577 43.9387C28.0467 43.9622 28.5237 43.9661 28.9998 43.9758V51.985C26.3118 51.9313 23.6341 51.633 20.9999 51.0939V43.1457ZM30.9998 43.9758C31.4749 43.9661 31.9529 43.9622 32.4217 43.9387C32.6868 43.925 32.9456 43.8992 33.2078 43.8821C33.74 43.8469 34.2717 43.8127 34.7947 43.761C35.1057 43.7297 35.4109 43.6858 35.719 43.6492C36.1848 43.593 36.6506 43.5388 37.1086 43.47C37.4338 43.4211 37.7497 43.3611 38.0705 43.3049C38.3918 43.2488 38.6946 43.2048 38.9997 43.1467V51.0939C36.3655 51.633 33.6878 51.9313 30.9998 51.985V43.9758ZM40.9997 42.7C41.1809 42.655 41.3576 42.6072 41.5378 42.5598C41.8567 42.4778 42.1687 42.387 42.4817 42.2981C42.8698 42.1868 43.2556 42.074 43.6359 41.9529C43.9445 41.8528 44.2478 41.7532 44.5505 41.6438C44.9196 41.5159 45.2849 41.385 45.6437 41.2439C45.9411 41.1301 46.2336 41.0125 46.5217 40.8919C46.8722 40.7468 47.2179 40.5969 47.5588 40.4431C47.84 40.3152 48.1174 40.1843 48.3908 40.051C48.5905 39.9509 48.8005 39.8508 48.9997 39.7508V47.4641C46.4787 48.8542 43.7902 49.9157 40.9997 50.6227V42.7ZM1.99999 34.9998V31.8621L2.0161 31.887C2.09618 32.0179 2.19188 32.1419 2.27489 32.2718C2.49315 32.6092 2.7119 32.9461 2.95701 33.2718C3.08689 33.4451 3.23484 33.6102 3.37205 33.7791C3.59421 34.0521 3.81296 34.326 4.0532 34.5901C4.21677 34.7698 4.39597 34.9422 4.56882 35.118C4.8071 35.3602 5.04293 35.6028 5.29684 35.8382C5.48873 36.014 5.69674 36.1829 5.89693 36.3548C6.15572 36.5769 6.41402 36.7991 6.68599 37.012C6.90181 37.1809 7.12788 37.3431 7.352 37.5071C7.63081 37.7068 7.91108 37.9129 8.20307 38.1072C8.44086 38.2659 8.68695 38.4192 8.93305 38.573L9.00385 38.6179V46.2258C4.64792 43.2297 1.99999 39.3001 1.99999 34.9998ZM50.9997 46.2268V38.6189L51.0685 38.575C51.3117 38.4231 51.5558 38.2752 51.7907 38.115C52.0905 37.9148 52.3698 37.7151 52.6515 37.5061C52.8727 37.345 53.0949 37.1858 53.3068 37.0198C53.5856 36.802 53.8488 36.576 54.1066 36.3489C54.3068 36.1819 54.5006 36.0188 54.6866 35.8489C54.9508 35.6048 55.1954 35.3489 55.4415 35.1009C55.6046 34.9349 55.7755 34.7732 55.9308 34.6009C56.1876 34.3191 56.4225 34.0272 56.6578 33.7352C56.7794 33.5838 56.9117 33.4349 57.0275 33.285C57.3277 32.8939 57.5904 32.492 57.8458 32.0848C57.8844 32.0233 57.9308 31.9652 57.9689 31.9031L57.9806 31.8841L57.9996 34.9998C57.9996 39.3001 55.3507 43.2297 50.9997 46.2268Z"/><path d="M29.9999 31.9999C22.8828 31.9999 19 30.0179 19 28.9999C19 28.4476 18.5522 27.9999 18 27.9999C17.4478 27.9999 17 28.4476 17 28.9999C17 32.1131 22.8818 33.8162 28.9999 33.9832V36.9998C28.9999 37.5521 29.4477 37.9998 29.9999 37.9998C30.5521 37.9998 30.9999 37.5521 30.9999 36.9998V33.9832C37.118 33.8162 42.9998 32.1131 42.9998 28.9999C42.9998 25.7172 36.4598 23.9999 29.9999 23.9999C22.8828 23.9999 19 22.018 19 20.9999C19 19.9824 22.8828 18 29.9999 18C37.117 18 40.9998 19.9824 40.9998 20.9999C40.9998 21.5522 41.4476 21.9999 41.9998 21.9999C42.5521 21.9999 42.9998 21.5522 42.9998 20.9999C42.9998 17.8872 37.118 16.1841 30.9999 16.0171V13C30.9999 12.4478 30.5521 12 29.9999 12C29.4477 12 28.9999 12.4478 28.9999 13V16.0171C22.8818 16.1841 17 17.8872 17 20.9999C17 24.2831 23.54 25.9999 29.9999 25.9999C37.117 25.9999 40.9998 27.9823 40.9998 28.9999C40.9998 30.0179 37.117 31.9999 29.9999 31.9999Z"/></g>
    </symbol>
    <symbol id="ic-stages-9" viewBox="0 0 60 60" fill="none">
      <path d="M44.5595 44.9218H1.7603V15.0791H8.69213C9.17821 15.0791 9.57229 14.6851 9.57229 14.199C9.57229 13.7129 9.17821 13.3188 8.69213 13.3188H0.880151C0.394073 13.3188 0 13.7129 0 14.199V45.8019C0 46.288 0.394073 46.6821 0.880151 46.6821H8.53547L11.8146 53.7527C12.0163 54.1878 12.5477 54.383 12.9833 54.1809L16.1938 52.692L25.9269 59.6365C26.3174 59.9151 26.8764 59.8211 27.1546 59.4312L36.2512 46.682H44.5597C45.0458 46.682 45.4398 46.2879 45.4398 45.8018C45.4396 45.3159 45.0455 44.9218 44.5595 44.9218ZM10.4758 46.6821H24.9693L13.041 52.2138L10.4758 46.6821ZM26.2327 57.6924L18.0307 51.8402L29.1536 46.6821H34.0885L26.2327 57.6924Z" fill="#E43828"/><path d="M59.1193 13.3186H51.464L48.185 6.24778C47.9835 5.81334 47.4515 5.61771 47.0163 5.81968L43.8057 7.30854L34.0728 0.364032C33.6822 0.0856698 33.1233 0.179318 32.845 0.569401L23.7485 13.3187H12.2122C11.7261 13.3187 11.332 13.7128 11.332 14.1988C11.332 14.6849 11.7261 15.079 12.2122 15.079H24.2003C24.2005 15.079 24.2008 15.0791 24.201 15.0791C24.2014 15.0791 24.2017 15.079 24.202 15.079H50.8993C50.9003 15.079 50.9014 15.0792 50.9026 15.0792C50.904 15.0792 50.9054 15.079 50.9068 15.079H58.239V44.9216H48.0794C47.5932 44.9216 47.1992 45.3157 47.1992 45.8018C47.1992 46.2878 47.5932 46.6819 48.0794 46.6819H59.1192C59.6054 46.6819 59.9993 46.2878 59.9993 45.8018V14.1987C59.9995 13.7126 59.6055 13.3186 59.1193 13.3186ZM49.5237 13.3186H35.03L46.9584 7.78687L49.5237 13.3186ZM33.7668 2.30823L41.9689 8.16041L30.8459 13.3187H25.9111L33.7668 2.30823Z" fill="#E43828"/><path d="M29.9998 38.4117C34.6317 38.4117 38.3999 34.6433 38.3999 30.0115C38.3999 25.3797 34.6317 21.6113 29.9998 21.6113C25.3679 21.6113 21.5996 25.3795 21.5996 30.0115C21.5996 34.6433 25.3679 38.4117 29.9998 38.4117ZM29.9998 23.3716C33.661 23.3716 36.6396 26.3502 36.6396 30.0115C36.6396 33.6727 33.661 36.6514 29.9998 36.6514C26.3386 36.6514 23.3599 33.6727 23.3599 30.0115C23.3599 26.3503 26.3386 23.3716 29.9998 23.3716Z" fill="#E43828"/><path d="M22.5478 42.3685H49.3593C49.8455 42.3685 50.2395 41.9744 50.2395 41.4884C50.2395 39.2726 52.4739 37.0979 54.7503 37.0979C55.2365 37.0979 55.6305 36.7039 55.6305 36.2178V23.7821C55.6305 23.296 55.2365 22.9019 54.7503 22.9019C52.4739 22.9019 50.2395 20.7272 50.2395 18.5115C50.2395 18.0254 49.8455 17.6313 49.3593 17.6313H10.1595C9.67344 17.6313 9.27937 18.0254 9.27937 18.5115C9.27937 20.8629 7.39526 22.9254 5.24734 22.9254C4.76126 22.9254 4.36719 23.3195 4.36719 23.8055V36.1941C4.36719 36.6802 4.76126 37.0742 5.24734 37.0742C7.39526 37.0742 9.27937 39.1368 9.27937 41.4881C9.27937 41.9742 9.67344 42.3683 10.1595 42.3683H19.0272C19.5133 42.3683 19.9074 41.9742 19.9074 41.4881C19.9074 41.0021 19.5133 40.608 19.0272 40.608H10.9742C10.7914 39.373 10.2316 38.1771 9.37712 37.2308C8.47526 36.2319 7.34456 35.5957 6.12737 35.3882V24.6112C7.34444 24.4037 8.47515 23.7675 9.37712 22.7686C10.2316 21.8224 10.7914 20.6264 10.9742 19.3914H48.5568C49.0007 21.9212 51.2896 24.1614 53.8702 24.5888V35.4105C51.2896 35.8378 49.0007 38.0781 48.5568 40.6079H22.5478C22.0617 40.6079 21.6677 41.0019 21.6677 41.488C21.6677 41.9744 22.0617 42.3685 22.5478 42.3685Z" fill="#E43828"/>
    </symbol>
    <symbol id="round-info-button" viewBox="0 0 16 16" fill="none">
      <path d="M7.2 12H8.8V7.2H7.2V12ZM8 0C3.6 0 0 3.6 0 8C0 12.4 3.6 16 8 16C12.4 16 16 12.4 16 8C16 3.6 12.4 0 8 0ZM8 14.4C4.48 14.4 1.6 11.52 1.6 8C1.6 4.48 4.48 1.6 8 1.6C11.52 1.6 14.4 4.48 14.4 8C14.4 11.52 11.52 14.4 8 14.4ZM7.2 5.6H8.8V4H7.2V5.6Z" fill="#1D1D1D" fill-opacity=".2"/>
    </symbol>
    <symbol id="success" viewBox="0 0 40 38.25">
      <path d="M36.63,15.89A1.62,1.62,0,0,0,35,17.51v1.63A15.89,15.89,0,0,1,19.12,35h0a15.89,15.89,0,0,1,0-31.79h0a15.79,15.79,0,0,1,6.46,1.38,1.62,1.62,0,0,0,1.32-3A19,19,0,0,0,19.14,0h0A19.12,19.12,0,0,0,5.59,32.64a19,19,0,0,0,13.52,5.61h0A19.12,19.12,0,0,0,38.25,19.13V17.51A1.62,1.62,0,0,0,36.63,15.89Z"/><path d="M39.53,2.23a1.62,1.62,0,0,0-2.29,0L19.12,20.35,15,16.24a1.62,1.62,0,0,0-2.29,2.29L18,23.78a1.62,1.62,0,0,0,2.29,0L39.53,4.52A1.62,1.62,0,0,0,39.53,2.23Z"/>
    </symbol></svg>