<svg id="SvgjsSvg1020" xmlns="http://www.w3.org/2000/svg" version="1.1" xmlns:xlink="http://www.w3.org/1999/xlink" xmlns:svgjs="http://svgjs.com/svgjs" width="32" height="79"><defs id="SvgjsDefs1021"></defs><path id="SvgjsPath1022" d="M746.955 1819.27L745.883 1814.76C745.995 1814.61 746.1030000000001 1814.45 746.201 1814.28C746.905 1813.08 747.114 1811.66 746.789 1810.29C746.4639999999999 1808.93 745.644 1807.77 744.48 1807.05C744.3190000000001 1806.94 744.152 1806.85 743.984 1806.77L739.592 1788.31C742.008 1785.98 743.381 1782.75 743.381 1779.31C743.381 1777.1 742.805 1774.9199999999998 741.718 1773.03C741.353 1772.3899999999999 740.558 1772.18 739.943 1772.56C739.329 1772.94 739.127 1773.76 739.492 1774.3999999999999C740.342 1775.8799999999999 740.7909999999999 1777.58 740.7909999999999 1779.31C740.7909999999999 1781.47 740.0989999999999 1783.52 738.8509999999999 1785.19L737.8599999999999 1781.03C737.1579999999999 1778.08 734.3399999999999 1776.22 731.4849999999999 1776.77C728.6309999999999 1776.22 725.8129999999999 1778.08 725.1099999999999 1781.03L724.1199999999999 1785.19C722.8709999999999 1783.53 722.1789999999999 1781.47 722.1789999999999 1779.31C722.1789999999999 1774 726.3539999999998 1769.6799999999998 731.4849999999999 1769.6799999999998C733.1289999999999 1769.6799999999998 734.7439999999999 1770.1299999999999 736.156 1770.9799999999998C736.774 1771.3499999999997 737.5669999999999 1771.1299999999999 737.9259999999999 1770.4999999999998C738.286 1769.8599999999997 738.0759999999999 1769.0399999999997 737.458 1768.6599999999999C736.024 1767.8 734.428 1767.2599999999998 732.78 1767.08L732.78 1765.11L735.7149999999999 1765.11C736.0799999999999 1765.11 736.4279999999999 1764.9499999999998 736.6729999999999 1764.6699999999998C736.9179999999999 1764.3899999999999 737.0379999999999 1764.0199999999998 737.0029999999999 1763.6399999999999L735.9329999999999 1752.2099999999998C735.8689999999999 1751.5199999999998 735.3109999999999 1750.9999999999998 734.6449999999999 1750.9999999999998L728.3259999999999 1750.9999999999998C727.6599999999999 1750.9999999999998 727.1019999999999 1751.5199999999998 727.0379999999999 1752.2099999999998L725.9679999999998 1763.6399999999999C725.9319999999999 1764.02 726.0519999999998 1764.3899999999999 726.2979999999999 1764.6699999999998C726.5429999999999 1764.9499999999998 726.8909999999998 1765.11 727.2559999999999 1765.11L730.1909999999998 1765.11L730.1909999999998 1767.08C724.2379999999998 1767.75 719.5899999999998 1772.98 719.5899999999998 1779.31C719.5899999999998 1782.75 720.9619999999998 1785.98 723.3779999999998 1788.31L721.6619999999998 1795.53C721.4909999999998 1796.24 721.9159999999998 1796.97 722.6099999999998 1797.1499999999999C723.3049999999998 1797.32 724.0059999999997 1796.8899999999999 724.1769999999998 1796.1699999999998L727.6249999999998 1781.6699999999998C727.9009999999997 1780.5099999999998 728.7899999999997 1779.6699999999998 729.8469999999998 1779.4299999999998L723.3359999999998 1806.81C723.0219999999998 1806.6499999999999 722.6899999999998 1806.53 722.3439999999998 1806.44C722.1499999999999 1806.39 721.9559999999998 1806.3500000000001 721.7609999999999 1806.3300000000002L722.9779999999998 1801.2100000000003C723.1479999999998 1800.4900000000002 722.7239999999998 1799.7700000000002 722.0289999999999 1799.5900000000004C721.3349999999999 1799.4100000000003 720.6339999999999 1799.8500000000004 720.4629999999999 1800.5700000000004L718.9879999999998 1806.7700000000004C718.8189999999998 1806.8500000000004 718.6529999999998 1806.9400000000005 718.4909999999999 1807.0500000000004C717.3269999999999 1807.7700000000004 716.5069999999998 1808.9300000000005 716.1819999999999 1810.2900000000004C715.8569999999999 1811.6600000000003 716.0659999999999 1813.0800000000004 716.7699999999999 1814.2800000000004C716.8679999999998 1814.4500000000005 716.9759999999999 1814.6100000000004 717.0879999999999 1814.7600000000004L716.0159999999998 1819.2700000000004C715.9339999999999 1819.6100000000004 715.9869999999999 1819.9800000000005 716.1649999999998 1820.2800000000004L718.9839999999998 1825.1000000000004L718.2129999999999 1828.3400000000004C718.0419999999998 1829.0600000000004 718.4669999999999 1829.7800000000004 719.1609999999998 1829.9600000000003C719.2649999999999 1829.9900000000002 719.3689999999998 1830.0000000000002 719.4719999999999 1830.0000000000002C720.0529999999999 1830.0000000000002 720.5819999999999 1829.5900000000001 720.7279999999998 1828.9800000000002L723.8079999999999 1816.0300000000002C726.1599999999999 1814.5200000000002 726.9179999999999 1811.3400000000001 725.5099999999999 1808.8700000000001L726.7169999999999 1803.8000000000002L730.2029999999999 1803.8000000000002L730.2029999999999 1805.8100000000002C730.2029999999999 1806.5500000000002 730.7819999999998 1807.15 731.4969999999998 1807.15C732.2119999999999 1807.15 732.7919999999998 1806.5500000000002 732.7919999999998 1805.8100000000002L732.7919999999998 1803.8000000000002L736.2549999999998 1803.8000000000002L737.4609999999998 1808.8700000000001C736.0539999999997 1811.3400000000001 736.8119999999998 1814.5200000000002 739.1639999999998 1816.0300000000002L742.2439999999998 1828.9800000000002C742.3889999999998 1829.5900000000001 742.9179999999998 1830.0000000000002 743.4999999999998 1830.0000000000002C743.6019999999997 1830.0000000000002 743.7059999999998 1829.9900000000002 743.8099999999997 1829.9600000000003C744.5049999999998 1829.7800000000002 744.9289999999997 1829.0600000000002 744.7579999999997 1828.3400000000004L743.9879999999997 1825.1000000000004L746.8059999999997 1820.2800000000004C746.9839999999997 1819.9800000000005 747.0369999999997 1819.6100000000004 746.9549999999997 1819.2700000000004ZM733.124 1779.43C734.181 1779.67 735.07 1780.51 735.346 1781.67L741.211 1806.3300000000002C741.016 1806.3500000000001 740.821 1806.39 740.6270000000001 1806.44C740.2810000000001 1806.53 739.9490000000001 1806.65 739.6360000000001 1806.81ZM732.792 1799.11C732.792 1798.37 732.212 1797.77 731.4970000000001 1797.77C730.782 1797.77 730.2020000000001 1798.37 730.2020000000001 1799.11L730.2020000000001 1801.12L727.3540000000002 1801.12L729.6500000000002 1791.4699999999998C730.2550000000002 1791.5699999999997 730.8680000000002 1791.62 731.4850000000002 1791.62C732.1020000000002 1791.62 732.7160000000002 1791.57 733.3210000000003 1791.4699999999998L735.6170000000003 1801.12L732.7920000000003 1801.12ZM728.682 1762.43L729.5020000000001 1753.68L733.469 1753.68L734.2890000000001 1762.43ZM722.423 1813.77C721.242 1814.51 719.7 1814.12 718.986 1812.8899999999999C718.639 1812.3 718.537 1811.61 718.697 1810.9299999999998C718.856 1810.2599999999998 719.259 1809.6999999999998 719.831 1809.34C720.236 1809.08 720.682 1808.9599999999998 721.123 1808.9599999999998C721.97 1808.9599999999998 722.7990000000001 1809.4099999999999 723.269 1810.2099999999998C723.9830000000001 1811.4299999999998 723.604 1813.0299999999997 722.423 1813.7699999999998ZM731.485 1783.75L732.7 1788.85C731.8960000000001 1788.9599999999998 731.075 1788.9599999999998 730.2710000000001 1788.85ZM719.859 1821.42L718.658 1819.3700000000001L719.344 1816.48C719.86 1816.68 720.404 1816.79 720.955 1816.81ZM743.112 1821.42L742.016 1816.8100000000002C742.567 1816.7900000000002 743.111 1816.68 743.627 1816.4800000000002L744.313 1819.3700000000003ZM743.985 1812.89C743.271 1814.1200000000001 741.729 1814.51 740.548 1813.7700000000002C739.367 1813.0300000000002 738.988 1811.4300000000003 739.702 1810.2100000000003C740.048 1809.6200000000003 740.596 1809.2000000000003 741.245 1809.0400000000002C741.895 1808.8700000000001 742.567 1808.9800000000002 743.139 1809.3400000000001C743.711 1809.7 744.114 1810.2600000000002 744.274 1810.93C744.434 1811.6100000000001 744.332 1812.3 743.985 1812.89Z " fill="#ffffff" transform="matrix(1,0,0,1,-715,-1751)"></path></svg>