<svg id="SvgjsSvg1029" xmlns="http://www.w3.org/2000/svg" version="1.1" xmlns:xlink="http://www.w3.org/1999/xlink" xmlns:svgjs="http://svgjs.com/svgjs" width="71" height="76"><defs id="SvgjsDefs1030"></defs><path id="SvgjsPath1031" d="M1219.6 1783.35L1207.6499999999999 1771.3L1207.6499999999999 1752.4199999999998C1207.6499999999999 1751.6999999999998 1207.07 1751.11 1206.36 1751.11L1195.28 1751.11C1194.56 1751.11 1193.98 1751.6999999999998 1193.98 1752.4199999999998L1193.98 1757.5099999999998L1185.9 1749.3599999999997C1185.39 1748.8499999999997 1184.5700000000002 1748.8499999999997 1184.0700000000002 1749.3599999999997L1150.3600000000001 1783.3499999999997C1149.8500000000001 1783.8699999999997 1149.8500000000001 1784.6999999999996 1150.3600000000001 1785.2099999999996C1150.8700000000001 1785.7199999999996 1151.69 1785.7199999999996 1152.2 1785.2099999999996L1159.8500000000001 1777.4899999999996L1159.8500000000001 1822.6899999999996C1159.8500000000001 1823.4099999999996 1160.43 1823.9999999999995 1161.15 1823.9999999999995L1208.8100000000002 1823.9999999999995C1209.5300000000002 1823.9999999999995 1210.1100000000001 1823.4099999999996 1210.1100000000001 1822.6899999999996L1210.1100000000001 1777.4899999999996L1217.7700000000002 1785.2099999999996C1218.0200000000002 1785.4599999999996 1218.3500000000001 1785.5899999999997 1218.6900000000003 1785.5899999999997C1219.0200000000002 1785.5899999999997 1219.3500000000004 1785.4599999999996 1219.6000000000004 1785.2099999999996C1220.1100000000004 1784.6999999999996 1220.1100000000004 1783.8699999999997 1219.6000000000004 1783.3499999999997ZM1184.98 1752.14L1205.97 1773.3100000000002L1163.99 1773.3100000000002ZM1190.23 1808.41C1189.51 1808.41 1188.93 1809 1188.93 1809.72L1188.93 1821.38L1176.46 1821.38L1176.46 1799.97L1195.94 1799.97L1195.94 1808.41ZM1162.45 1775.93L1178.8 1775.93L1178.8 1797.3500000000001L1162.45 1797.3500000000001ZM1187.11 1784.38L1181.3899999999999 1784.38L1181.3899999999999 1775.93L1192.04 1775.93L1192.04 1797.3500000000001L1188.4099999999999 1797.3500000000001L1188.4099999999999 1785.69C1188.4099999999999 1784.96 1187.83 1784.38 1187.11 1784.38ZM1207.52 1821.38L1198.54 1821.38L1198.54 1799.97L1207.52 1799.97ZM1205.06 1753.73L1205.06 1768.68L1196.57 1760.13L1196.57 1753.73ZM1207.52 1797.35L1201.65 1797.35L1201.65 1775.9299999999998L1207.52 1775.9299999999998ZM1166.85 1821.38L1162.4499999999998 1821.38L1162.4499999999998 1799.97L1166.85 1799.97ZM1195.94 1821.38L1191.52 1821.38L1191.52 1811.0300000000002L1195.94 1811.0300000000002ZM1185.81 1787L1185.81 1797.35L1181.3999999999999 1797.35L1181.3999999999999 1787ZM1194.64 1791.88L1194.64 1787.95L1199.0600000000002 1787.95L1199.0600000000002 1791.88ZM1194.64 1785.33L1194.64 1781.3999999999999L1199.0600000000002 1781.3999999999999L1199.0600000000002 1785.33ZM1173.86 1815.91L1169.4499999999998 1815.91L1169.4499999999998 1811.98L1173.86 1811.98ZM1173.86 1809.36L1169.4499999999998 1809.36L1169.4499999999998 1805.4299999999998L1173.86 1805.4299999999998ZM1199.06 1797.35L1194.6399999999999 1797.35L1194.6399999999999 1794.5L1199.06 1794.5ZM1194.64 1775.93L1199.0600000000002 1775.93L1199.0600000000002 1778.78L1194.64 1778.78ZM1173.86 1821.38L1169.4499999999998 1821.38L1169.4499999999998 1818.5300000000002L1173.86 1818.5300000000002ZM1173.86 1802.81L1169.4499999999998 1802.81L1169.4499999999998 1799.97L1173.86 1799.97ZM1182.75 1792.21C1182.75 1792.94 1183.33 1793.52 1184.05 1793.52C1184.76 1793.52 1185.34 1792.94 1185.34 1792.21C1185.34 1791.49 1184.76 1790.9 1184.05 1790.9C1183.33 1790.9 1182.75 1791.49 1182.75 1792.21ZM1191.99 1816.25C1191.99 1816.97 1192.57 1817.56 1193.29 1817.56C1194.01 1817.56 1194.59 1816.97 1194.59 1816.25C1194.59 1815.52 1194.01 1814.94 1193.29 1814.94C1192.57 1814.94 1191.99 1815.52 1191.99 1816.25Z " fill="#ffffff" transform="matrix(1,0,0,1,-1149,-1748)"></path></svg>