<svg id="SvgjsSvg1032" xmlns="http://www.w3.org/2000/svg" version="1.1" xmlns:xlink="http://www.w3.org/1999/xlink" xmlns:svgjs="http://svgjs.com/svgjs" width="56" height="79"><defs id="SvgjsDefs1033"></defs><path id="SvgjsPath1034" d="M1440.06 1780.05C1440.06 1779.06 1440.5 1777.9099999999999 1440.96 1776.69C1441.66 1774.8500000000001 1442.38 1772.94 1441.77 1771.0700000000002C1441.1299999999999 1769.1200000000001 1439.31 1767.94 1437.69 1766.89C1436.63 1766.2 1435.63 1765.5500000000002 1435.0900000000001 1764.8100000000002C1434.5300000000002 1764.0400000000002 1434.21 1762.88 1433.88 1761.66C1433.38 1759.8200000000002 1432.8100000000002 1757.74 1431.17 1756.5500000000002C1429.54 1755.3700000000001 1427.48 1755.4700000000003 1425.49 1755.5600000000002C1424.2 1755.6200000000001 1422.98 1755.68 1422.06 1755.38C1421.21 1755.1000000000001 1420.29 1754.3700000000001 1419.33 1753.5900000000001C1417.82 1752.3700000000001 1416.11 1751.0000000000002 1414.01 1751.0000000000002C1411.91 1751.0000000000002 1410.21 1752.3700000000001 1408.7 1753.5900000000001C1407.73 1754.3700000000001 1406.82 1755.1000000000001 1405.96 1755.38C1405.04 1755.68 1403.83 1755.6200000000001 1402.54 1755.5600000000002C1400.55 1755.4700000000003 1398.48 1755.3700000000001 1396.86 1756.5500000000002C1395.2099999999998 1757.7400000000002 1394.6499999999999 1759.8200000000002 1394.1399999999999 1761.66C1393.81 1762.89 1393.4899999999998 1764.0500000000002 1392.9399999999998 1764.8100000000002C1392.3899999999999 1765.5500000000002 1391.3899999999999 1766.2000000000003 1390.33 1766.89C1388.72 1767.94 1386.8899999999999 1769.1200000000001 1386.25 1771.0700000000002C1385.64 1772.94 1386.36 1774.8500000000001 1387.06 1776.69C1387.53 1777.91 1387.96 1779.06 1387.96 1780.05C1387.96 1781.05 1387.53 1782.2 1387.06 1783.4199999999998C1386.36 1785.2599999999998 1385.6399999999999 1787.1599999999999 1386.25 1789.0299999999997C1386.89 1790.9799999999998 1388.72 1792.1699999999998 1390.33 1793.2099999999998C1391.3899999999999 1793.8999999999999 1392.3899999999999 1794.5499999999997 1392.9399999999998 1795.2999999999997C1393.4899999999998 1796.0599999999997 1393.8099999999997 1797.2199999999998 1394.1399999999999 1798.4499999999998C1394.6499999999999 1800.2799999999997 1395.2099999999998 1802.37 1396.86 1803.5599999999997C1398.4799999999998 1804.7299999999998 1400.54 1804.6399999999996 1402.54 1804.5399999999997C1403.82 1804.4799999999998 1405.04 1804.4299999999998 1405.96 1804.7199999999998C1406.82 1804.9999999999998 1407.73 1805.7399999999998 1408.7 1806.5199999999998C1409.43 1807.0999999999997 1410.2 1807.7199999999998 1411.05 1808.2099999999998L1406.05 1826.0699999999997L1401.43 1820.9499999999998C1401.0900000000001 1820.58 1400.5700000000002 1820.4299999999998 1400.0800000000002 1820.58L1393.4700000000003 1822.58L1397.6200000000003 1807.79C1397.8100000000004 1807.1 1397.4000000000003 1806.3799999999999 1396.7100000000003 1806.19C1396.0100000000002 1806 1395.3000000000002 1806.4 1395.1000000000004 1807.0900000000001L1390.3200000000004 1824.16C1390.1900000000003 1824.6200000000001 1390.3200000000004 1825.1100000000001 1390.6700000000003 1825.44C1391.0100000000002 1825.77 1391.5000000000002 1825.89 1391.9600000000003 1825.76L1400.0400000000002 1823.3L1405.6900000000003 1829.57C1405.9400000000003 1829.85 1406.3000000000002 1830 1406.6600000000003 1830C1406.7600000000002 1830 1406.8600000000004 1829.99 1406.9600000000003 1829.97C1407.4200000000003 1829.8600000000001 1407.7900000000002 1829.51 1407.9200000000003 1829.05L1413.5100000000002 1809.07C1413.6800000000003 1809.09 1413.8400000000001 1809.1 1414.0100000000002 1809.1C1414.1800000000003 1809.1 1414.3500000000001 1809.09 1414.5100000000002 1809.07L1420.1000000000001 1829.05C1420.2300000000002 1829.51 1420.6000000000001 1829.86 1421.0600000000002 1829.97C1421.16 1829.99 1421.2600000000002 1830 1421.3600000000001 1830C1421.73 1830 1422.0800000000002 1829.85 1422.3300000000002 1829.57L1427.9800000000002 1823.3L1436.0700000000002 1825.76C1436.5200000000002 1825.89 1437.0200000000002 1825.77 1437.3600000000001 1825.44C1437.7 1825.1100000000001 1437.8300000000002 1824.6200000000001 1437.7 1824.16L1431.78 1803.02C1432.96 1801.8 1433.45 1800.03 1433.8799999999999 1798.45C1434.2099999999998 1797.22 1434.53 1796.06 1435.09 1795.3C1435.6299999999999 1794.55 1436.6299999999999 1793.8999999999999 1437.6899999999998 1793.21C1439.3099999999997 1792.17 1441.1299999999999 1790.98 1441.7699999999998 1789.03C1442.3799999999997 1787.16 1441.6599999999999 1785.26 1440.9599999999998 1783.41C1440.4999999999998 1782.2 1440.0599999999997 1781.0500000000002 1440.0599999999997 1780.0500000000002ZM1439.29 1788.23C1438.94 1789.31 1437.6399999999999 1790.15 1436.27 1791.04C1435.06 1791.82 1433.81 1792.6399999999999 1432.98 1793.77C1432.14 1794.92 1431.74 1796.36 1431.3600000000001 1797.77C1430.94 1799.33 1430.5300000000002 1800.8 1429.63 1801.46C1428.75 1802.1000000000001 1427.22 1802.03 1425.6100000000001 1801.95C1424.14 1801.88 1422.63 1801.81 1421.2600000000002 1802.25C1419.9400000000003 1802.68 1418.8000000000002 1803.6 1417.6900000000003 1804.5C1416.4000000000003 1805.53 1415.1900000000003 1806.51 1414.0100000000002 1806.51C1412.8400000000001 1806.51 1411.6200000000001 1805.53 1410.3400000000001 1804.5C1409.2300000000002 1803.6 1408.0800000000002 1802.68 1406.7700000000002 1802.25C1405.9000000000003 1801.97 1404.9800000000002 1801.9 1404.0500000000002 1801.9C1403.5000000000002 1801.9 1402.9600000000003 1801.92 1402.41 1801.95C1400.8000000000002 1802.03 1399.28 1802.1000000000001 1398.39 1801.46C1397.49 1800.8 1397.0900000000001 1799.33 1396.66 1797.77C1396.28 1796.36 1395.88 1794.92 1395.0400000000002 1793.77C1394.2200000000003 1792.6399999999999 1392.9700000000003 1791.82 1391.7500000000002 1791.04C1390.3800000000003 1790.1499999999999 1389.0900000000001 1789.31 1388.7300000000002 1788.23C1388.4100000000003 1787.22 1388.9400000000003 1785.82 1389.5000000000002 1784.33C1390.0300000000002 1782.9499999999998 1390.5700000000002 1781.52 1390.5700000000002 1780.05C1390.5700000000002 1778.58 1390.0300000000002 1777.1499999999999 1389.5000000000002 1775.77C1388.9400000000003 1774.28 1388.4100000000003 1772.8799999999999 1388.7300000000002 1771.87C1389.0900000000001 1770.8 1390.3800000000003 1769.9599999999998 1391.7500000000002 1769.07C1392.9700000000003 1768.28 1394.2200000000003 1767.47 1395.0500000000002 1766.34C1395.88 1765.1899999999998 1396.2800000000002 1763.74 1396.66 1762.34C1397.0900000000001 1760.78 1397.49 1759.3 1398.39 1758.6499999999999C1399.2800000000002 1758.0099999999998 1400.8000000000002 1758.08 1402.42 1758.1499999999999C1403.88 1758.2199999999998 1405.39 1758.29 1406.77 1757.85C1408.08 1757.4299999999998 1409.23 1756.5 1410.34 1755.61C1411.62 1754.57 1412.84 1753.6 1414.01 1753.6C1415.19 1753.6 1416.4 1754.57 1417.69 1755.61C1418.8 1756.5 1419.94 1757.4299999999998 1421.26 1757.85C1422.6299999999999 1758.29 1424.14 1758.2199999999998 1425.61 1758.1499999999999C1427.2199999999998 1758.08 1428.75 1758.0099999999998 1429.6299999999999 1758.6499999999999C1430.53 1759.3 1430.9299999999998 1760.78 1431.36 1762.34C1431.74 1763.74 1432.1399999999999 1765.1899999999998 1432.9799999999998 1766.34C1433.8099999999997 1767.47 1435.0599999999997 1768.28 1436.2699999999998 1769.07C1437.6399999999996 1769.96 1438.9399999999998 1770.8 1439.2899999999997 1771.87C1439.6199999999997 1772.8799999999999 1439.0799999999997 1774.28 1438.5199999999998 1775.77C1437.9899999999998 1777.15 1437.4499999999998 1778.58 1437.4499999999998 1780.05C1437.4499999999998 1781.52 1437.9999999999998 1782.95 1438.5199999999998 1784.33C1439.0799999999997 1785.82 1439.6199999999997 1787.22 1439.2899999999997 1788.23ZM1431.15 1772.19C1430.8400000000001 1771.54 1430.0700000000002 1771.25 1429.41 1771.55C1428.76 1771.86 1428.47 1772.6299999999999 1428.78 1773.28C1429.76 1775.41 1430.26 1777.69 1430.26 1780.05C1430.26 1788.97 1422.97 1796.23 1414.01 1796.23C1405.05 1796.23 1397.76 1788.97 1397.76 1780.05C1397.76 1771.1299999999999 1405.05 1763.87 1414.01 1763.87C1418.59 1763.87 1422.99 1765.81 1426.07 1769.1999999999998C1426.55 1769.7299999999998 1427.37 1769.7699999999998 1427.9099999999999 1769.2899999999997C1428.4399999999998 1768.8099999999997 1428.4799999999998 1767.9899999999998 1427.9999999999998 1767.4599999999998C1424.4299999999998 1763.5299999999997 1419.3299999999997 1761.2699999999998 1414.0099999999998 1761.2699999999998C1403.6099999999997 1761.2699999999998 1395.1499999999999 1769.6999999999998 1395.1499999999999 1780.0499999999997C1395.1499999999999 1790.4099999999996 1403.61 1798.8299999999997 1414.0099999999998 1798.8299999999997C1424.4099999999999 1798.8299999999997 1432.8699999999997 1790.4099999999996 1432.8699999999997 1780.0499999999997C1432.8699999999997 1777.3099999999997 1432.2899999999997 1774.6599999999996 1431.1499999999996 1772.1899999999998ZM1434.55 1822.58L1427.94 1820.58C1427.46 1820.4299999999998 1426.93 1820.58 1426.5900000000001 1820.9499999999998L1421.9800000000002 1826.0699999999997L1416.9800000000002 1808.2099999999998C1417.8200000000002 1807.7199999999998 1418.6000000000001 1807.1 1419.3300000000002 1806.5099999999998C1420.2900000000002 1805.7399999999998 1421.2100000000003 1804.9999999999998 1422.0600000000002 1804.7199999999998C1422.9800000000002 1804.4299999999998 1424.2000000000003 1804.4799999999998 1425.4900000000002 1804.5399999999997C1426.8300000000002 1804.6099999999997 1428.2000000000003 1804.6699999999998 1429.4500000000003 1804.3499999999997ZM1419.05 1785.53L1408.97 1785.53C1408.25 1785.53 1407.67 1786.11 1407.67 1786.83C1407.67 1787.55 1408.25 1788.1299999999999 1408.97 1788.1299999999999L1419.05 1788.1299999999999C1419.77 1788.1299999999999 1420.35 1787.55 1420.35 1786.83C1420.35 1786.11 1419.77 1785.53 1419.05 1785.53ZM1419.05 1771.98L1408.97 1771.98C1408.25 1771.98 1407.67 1772.56 1407.67 1773.27C1407.67 1773.99 1408.25 1774.57 1408.97 1774.57L1419.05 1774.57C1419.77 1774.57 1420.35 1773.99 1420.35 1773.27C1420.35 1772.56 1419.77 1771.98 1419.05 1771.98ZM1422.66 1778.75L1418.73 1778.75C1418.01 1778.75 1417.43 1779.33 1417.43 1780.05C1417.43 1780.77 1418.01 1781.35 1418.73 1781.35L1422.66 1781.35C1423.38 1781.35 1423.97 1780.77 1423.97 1780.05C1423.97 1779.33 1423.38 1778.75 1422.66 1778.75ZM1414.65 1778.75L1405.3600000000001 1778.75C1404.64 1778.75 1404.0600000000002 1779.33 1404.0600000000002 1780.05C1404.0600000000002 1780.77 1404.64 1781.35 1405.3600000000001 1781.35L1414.65 1781.35C1415.3700000000001 1781.35 1415.95 1780.77 1415.95 1780.05C1415.95 1779.33 1415.3700000000001 1778.75 1414.65 1778.75Z " fill="#ffffff" transform="matrix(1,0,0,1,-1386,-1751)"></path></svg>