<svg id="SvgjsSvg1023" xmlns="http://www.w3.org/2000/svg" version="1.1" xmlns:xlink="http://www.w3.org/1999/xlink" xmlns:svgjs="http://svgjs.com/svgjs" width="72" height="70"><defs id="SvgjsDefs1024"></defs><path id="SvgjsPath1025" d="M969.912 1768.84L974.967 1770.9599999999998C975.332 1771.11 975.715 1771.1899999999998 976.1 1771.1899999999998C976.47 1771.1899999999998 976.841 1771.12 977.195 1770.9799999999998C977.916 1770.6899999999998 978.479 1770.1299999999999 978.7810000000001 1769.4199999999998L979.3960000000001 1767.9799999999998C979.6990000000001 1767.2699999999998 979.7040000000001 1766.4799999999998 979.412 1765.7699999999998C979.119 1765.0499999999997 978.563 1764.4899999999998 977.846 1764.1899999999998L971.845 1761.6899999999998L972.123 1760.6899999999998C972.1260000000001 1760.6799999999998 972.13 1760.6599999999999 972.133 1760.6499999999999C972.318 1759.8799999999999 972.188 1759.08 971.768 1758.3999999999999C971.347 1757.7199999999998 970.686 1757.2499999999998 969.9060000000001 1757.06L969.793 1757.04C969.284 1756.92 968.774 1756.93 968.302 1757.06C967.926 1756.27 967.203 1755.6399999999999 966.278 1755.4299999999998L966.166 1755.3999999999999C965.6740000000001 1755.28 965.177 1755.29 964.7130000000001 1755.4099999999999C964.6740000000001 1755.34 964.6320000000001 1755.2599999999998 964.5870000000001 1755.1899999999998C964.166 1754.5099999999998 963.5050000000001 1754.0399999999997 962.7260000000001 1753.85L962.6120000000001 1753.83C962.205 1753.73 961.7930000000001 1753.72 961.3990000000001 1753.79C961.3300000000002 1753.6 961.2410000000001 1753.42 961.1330000000002 1753.25C960.7120000000001 1752.57 960.0510000000002 1752.09 959.2690000000001 1751.91L959.1580000000001 1751.88C958.3780000000002 1751.7 957.5720000000001 1751.8300000000002 956.8900000000001 1752.24C956.2120000000001 1752.66 955.7360000000001 1753.31 955.5480000000001 1754.08L955.3520000000001 1754.8L947.5710000000001 1751.56C947.5670000000001 1751.55 947.5630000000001 1751.55 947.5590000000002 1751.55C947.5380000000002 1751.54 947.5170000000002 1751.54 947.4960000000002 1751.53C947.4820000000002 1751.52 947.4680000000002 1751.52 947.4540000000002 1751.51C947.4360000000001 1751.51 947.4170000000001 1751.51 947.3990000000002 1751.5C947.3800000000002 1751.5 947.3620000000002 1751.49 947.3440000000003 1751.49C947.3290000000003 1751.49 947.3140000000003 1751.48 947.2990000000003 1751.48C947.2760000000003 1751.48 947.2540000000004 1751.48 947.2310000000003 1751.47C947.2250000000004 1751.47 947.2200000000004 1751.47 947.2140000000003 1751.47L939.8160000000003 1751C939.3500000000003 1750.97 938.9230000000002 1751.23 938.7350000000002 1751.65C938.5470000000003 1752.0700000000002 938.6420000000003 1752.5600000000002 938.9730000000003 1752.88L944.1730000000003 1757.92C944.1750000000003 1757.92 944.1770000000004 1757.93 944.1780000000003 1757.93L944.1810000000004 1757.93C944.1840000000004 1757.93 944.1870000000004 1757.94 944.1900000000004 1757.94C944.2120000000004 1757.96 944.2350000000004 1757.98 944.2580000000004 1758C944.2690000000003 1758.01 944.2810000000004 1758.01 944.2930000000003 1758.02C944.3050000000003 1758.03 944.3170000000003 1758.04 944.3300000000004 1758.05C944.3330000000004 1758.05 944.3370000000003 1758.06 944.3400000000004 1758.06C944.3590000000004 1758.07 944.3790000000004 1758.08 944.3980000000004 1758.09C944.5390000000003 1758.1799999999998 944.6870000000004 1758.26 944.8400000000004 1758.33L949.5720000000003 1760.31C949.2230000000003 1761.33 949.0100000000003 1762.54 948.8190000000003 1763.6299999999999C948.2150000000003 1767.07 950.6870000000004 1770.6299999999999 951.5180000000003 1771.7199999999998L951.5210000000003 1776.6999999999998L950.6020000000003 1776.6999999999998C949.9910000000003 1776.6999999999998 949.4970000000003 1777.1899999999998 949.4970000000003 1777.7999999999997L949.4970000000003 1818.8999999999996C949.4970000000003 1819.5099999999995 949.9910000000003 1819.9999999999995 950.6020000000003 1819.9999999999995L966.8870000000003 1819.9999999999995C967.4970000000003 1819.9999999999995 967.9920000000003 1819.5099999999995 967.9920000000003 1818.8999999999996L967.9920000000003 1791.4499999999996C967.9920000000003 1790.8399999999997 967.4970000000003 1790.3499999999997 966.8870000000003 1790.3499999999997C966.2770000000003 1790.3499999999997 965.7820000000003 1790.8399999999997 965.7820000000003 1791.4499999999996L965.7820000000003 1817.8099999999995L951.7070000000002 1817.8099999999995L951.7070000000002 1784.5399999999995L965.7820000000003 1784.5399999999995L965.7820000000003 1787.5899999999995C965.7820000000003 1788.1999999999994 966.2770000000003 1788.6899999999994 966.8870000000003 1788.6899999999994C967.4970000000003 1788.6899999999994 967.9920000000003 1788.1999999999994 967.9920000000003 1787.5899999999995L967.9920000000003 1777.7999999999995C967.9920000000003 1777.1899999999996 967.4970000000003 1776.6999999999996 966.8870000000003 1776.6999999999996L966.4240000000003 1776.6999999999996L966.4340000000003 1773.8699999999997C968.3000000000003 1772.6399999999996 969.3470000000003 1770.5099999999998 969.9120000000003 1768.8399999999997ZM991.304 1795.24L990.617 1795.24L990.617 1792.24C993.336 1789.51 993.0269999999999 1784.64 992.9749999999999 1784.02L992.9749999999999 1778.91C992.9749999999999 1777.27 991.6279999999999 1775.93 989.973 1775.93L989.858 1775.93C989.3349999999999 1775.93 988.842 1776.0700000000002 988.4129999999999 1776.3C987.8629999999999 1775.61 987.0139999999999 1775.1699999999998 986.0639999999999 1775.1699999999998L985.9489999999998 1775.1699999999998C985.4419999999999 1775.1699999999998 984.9599999999998 1775.3 984.5359999999998 1775.5199999999998C983.9849999999998 1774.8699999999997 983.1599999999999 1774.4599999999998 982.2399999999998 1774.4599999999998L982.1249999999998 1774.4599999999998C981.7049999999998 1774.4599999999998 981.3019999999998 1774.5399999999997 980.9339999999997 1774.6999999999998C980.3959999999997 1773.8899999999999 979.4729999999997 1773.36 978.4269999999998 1773.36L978.3109999999998 1773.36C976.6559999999998 1773.36 975.3099999999998 1774.6999999999998 975.3099999999998 1776.34L975.3099999999998 1779.2099999999998C974.1039999999998 1779.0799999999997 973.1619999999998 1779.3099999999997 972.4489999999998 1779.8999999999999C970.9049999999999 1781.1899999999998 971.0599999999998 1783.7399999999998 971.2099999999998 1786.1999999999998C971.4159999999998 1789.5599999999997 974.4349999999998 1792.3899999999999 975.5989999999998 1793.35L975.5989999999998 1795.24L975.0189999999998 1795.24C974.4089999999998 1795.24 973.9139999999998 1795.73 973.9139999999998 1796.34L973.9139999999998 1818.8999999999999C973.9139999999998 1819.5099999999998 974.4089999999998 1819.9999999999998 975.0189999999998 1819.9999999999998L991.3049999999998 1819.9999999999998C991.9149999999998 1819.9999999999998 992.4089999999999 1819.5099999999998 992.4089999999999 1818.8999999999999L992.4089999999999 1796.34C992.4089999999999 1795.73 991.9149999999998 1795.24 991.3039999999999 1795.24ZM964.831 1772.26C964.461 1772.45 964.227 1772.82 964.226 1773.24L964.214 1776.59L953.7310000000001 1776.59L953.7270000000001 1771.33C953.7270000000001 1771.08 953.6350000000001 1770.83 953.4680000000001 1770.6299999999999C953.4390000000001 1770.59 950.4660000000001 1767.02 950.9960000000001 1763.9999999999998C951.1630000000001 1763.0499999999997 951.3480000000001 1761.9999999999998 951.6140000000001 1761.1699999999998L953.6120000000002 1762.0099999999998C953.7320000000002 1762.3299999999997 954.0010000000002 1762.5899999999997 954.3600000000002 1762.6799999999998C954.9480000000002 1762.84 955.5550000000003 1762.4899999999998 955.7140000000003 1761.9099999999999L957.6860000000003 1754.6299999999999C957.6890000000003 1754.62 957.6910000000003 1754.61 957.6940000000003 1754.6C957.7430000000003 1754.3999999999999 957.8690000000003 1754.2199999999998 958.0490000000003 1754.11C958.2290000000003 1754 958.4410000000004 1753.9699999999998 958.6490000000003 1754.02L958.7600000000003 1754.04C958.9650000000004 1754.09 959.1400000000003 1754.22 959.2510000000003 1754.3999999999999C959.3620000000003 1754.58 959.3960000000003 1754.79 959.3470000000003 1754.9899999999998L959.2350000000004 1755.4599999999998L957.9330000000003 1759.9399999999998C957.7640000000004 1760.5199999999998 958.1020000000003 1761.1299999999999 958.6890000000003 1761.2999999999997C958.7910000000003 1761.3299999999997 958.8940000000003 1761.3399999999997 958.9950000000003 1761.3399999999997C959.4750000000004 1761.3399999999997 959.9170000000004 1761.0299999999997 960.0560000000004 1760.5499999999997L961.3140000000004 1756.2199999999998C961.5040000000005 1755.9999999999998 961.8070000000005 1755.8899999999999 962.1010000000005 1755.9599999999998L962.2140000000005 1755.9899999999998C962.4200000000005 1756.0399999999997 962.5940000000005 1756.1599999999999 962.7050000000005 1756.3399999999997C962.8140000000005 1756.5199999999998 962.8480000000005 1756.7199999999998 962.8030000000005 1756.9299999999996L961.6450000000004 1760.8099999999997C961.4720000000004 1761.3899999999996 961.8060000000004 1761.9999999999998 962.3910000000004 1762.1699999999996C962.4960000000004 1762.1999999999996 962.6010000000005 1762.2199999999996 962.7050000000004 1762.2199999999996C963.1820000000004 1762.2199999999996 963.6220000000004 1761.9099999999996 963.7640000000004 1761.4299999999996L964.8360000000004 1757.8399999999997C965.0230000000004 1757.5799999999997 965.3410000000003 1757.4599999999996 965.6550000000003 1757.5399999999997L965.7670000000003 1757.5599999999997C966.1920000000002 1757.6599999999996 966.4560000000002 1758.0899999999997 966.3550000000002 1758.5099999999998L966.1870000000002 1759.2099999999998L965.2450000000002 1762.1899999999998C965.0630000000002 1762.7699999999998 965.3870000000003 1763.3899999999999 965.9690000000003 1763.57C966.0790000000003 1763.6 966.1900000000003 1763.62 966.3000000000003 1763.62C966.7700000000003 1763.62 967.2060000000002 1763.32 967.3540000000003 1762.85L968.3080000000002 1759.83C968.3120000000002 1759.82 968.3140000000002 1759.8 968.3180000000002 1759.79C968.3210000000003 1759.78 968.3260000000002 1759.77 968.3280000000002 1759.75C968.4290000000002 1759.33 968.8570000000002 1759.07 969.2810000000002 1759.17L969.3940000000002 1759.2C969.8140000000002 1759.3 970.0760000000002 1759.71 969.9860000000002 1760.13L968.3510000000002 1766C968.3390000000003 1766.04 968.3290000000002 1766.09 968.3220000000002 1766.14C968.3160000000003 1766.18 967.6230000000003 1770.8600000000001 964.8310000000002 1772.26ZM973.416 1786.07C973.3100000000001 1784.33 973.177 1782.1599999999999 973.868 1781.59C974.124 1781.37 974.6260000000001 1781.32 975.3100000000001 1781.4299999999998L975.3100000000001 1782.9199999999998C975.3100000000001 1783.5199999999998 975.8040000000001 1784.0099999999998 976.4140000000001 1784.0099999999998C977.0250000000001 1784.0099999999998 977.5190000000001 1783.5199999999998 977.5190000000001 1782.9199999999998L977.5190000000001 1776.34C977.5190000000001 1775.9099999999999 977.8750000000001 1775.55 978.3110000000001 1775.55L978.4270000000001 1775.55C978.8630000000002 1775.55 979.2190000000002 1775.9099999999999 979.2190000000002 1776.34L979.2190000000002 1780.58C979.2190000000002 1781.1799999999998 979.7130000000002 1781.6699999999998 980.3240000000002 1781.6699999999998C980.9340000000002 1781.6699999999998 981.4280000000002 1781.1799999999998 981.4280000000002 1780.58L981.4280000000002 1777.07C981.5650000000002 1776.81 981.8290000000002 1776.6499999999999 982.1250000000002 1776.6499999999999L982.2400000000002 1776.6499999999999C982.6770000000002 1776.6499999999999 983.0320000000003 1777.0099999999998 983.0320000000003 1777.4399999999998L983.0320000000003 1780.58C983.0320000000003 1781.1799999999998 983.5270000000003 1781.6699999999998 984.1370000000003 1781.6699999999998C984.7470000000003 1781.6699999999998 985.2420000000003 1781.1799999999998 985.2420000000003 1780.58L985.2420000000003 1777.8C985.3750000000003 1777.54 985.6440000000003 1777.37 985.9480000000003 1777.37L986.0640000000003 1777.37C986.5000000000003 1777.37 986.8560000000003 1777.7199999999998 986.8560000000003 1778.1599999999999L986.8560000000003 1781.11C986.8560000000003 1781.7199999999998 987.3500000000004 1782.2099999999998 987.9600000000004 1782.2099999999998C988.5710000000004 1782.2099999999998 989.0650000000004 1781.7199999999998 989.0650000000004 1781.11L989.0650000000004 1778.9099999999999C989.0650000000004 1778.4799999999998 989.4210000000004 1778.1299999999999 989.8580000000004 1778.1299999999999L989.9730000000004 1778.1299999999999C990.4100000000004 1778.1299999999999 990.7650000000004 1778.4799999999998 990.7650000000004 1778.9099999999999L990.7650000000004 1784.07C990.7650000000004 1784.1 990.7670000000004 1784.1399999999999 990.7700000000004 1784.1699999999998C990.8980000000005 1785.4799999999998 990.7910000000004 1789.2499999999998 988.7980000000005 1790.9299999999998C988.5500000000004 1791.1399999999999 988.4070000000005 1791.4399999999998 988.4070000000005 1791.7699999999998L988.4070000000005 1795.2399999999998L977.8080000000004 1795.2399999999998L977.8080000000004 1792.8299999999997C977.8080000000004 1792.4799999999998 977.6420000000004 1792.1499999999996 977.3630000000004 1791.9499999999996C977.3250000000004 1791.9199999999996 973.6030000000004 1789.1299999999997 973.4160000000004 1786.0699999999995ZM990.199 1817.81L976.1239999999999 1817.81L976.1239999999999 1803.08L990.199 1803.08ZM990.199 1800.88L976.1239999999999 1800.88L976.1239999999999 1797.43L990.199 1797.43ZM951.707 1782.35L951.707 1778.8999999999999L965.782 1778.8999999999999L965.782 1782.35ZM946.431 1756.61L947.688 1753.9799999999998L954.7719999999999 1756.9399999999998L953.9999999999999 1759.7899999999997ZM970.5 1766.52L971.251 1763.82L973.737 1764.86L972.4979999999999 1767.54L970.4699999999999 1766.69C970.483 1766.6200000000001 970.4929999999999 1766.56 970.4999999999999 1766.52ZM975.776 1765.71L976.9879999999999 1766.21C977.16 1766.28 977.294 1766.42 977.3639999999999 1766.5900000000001C977.435 1766.7600000000002 977.434 1766.95 977.3609999999999 1767.1200000000001L976.7459999999999 1768.5700000000002C976.6729999999999 1768.7400000000002 976.5369999999999 1768.8700000000001 976.3639999999999 1768.94C976.1899999999999 1769.01 975.9999999999999 1769.01 975.8269999999999 1768.94L974.5349999999999 1768.4ZM944.618 1755.29L942.6510000000001 1753.3799999999999L945.446 1753.56ZM944.828 1790.07L944.828 1784.96C944.828 1783.32 943.482 1781.98 941.826 1781.98L941.711 1781.98C941.188 1781.98 940.695 1782.1200000000001 940.266 1782.35C939.716 1781.6699999999998 938.867 1781.2199999999998 937.9169999999999 1781.2199999999998L937.8019999999999 1781.2199999999998C937.295 1781.2199999999998 936.8129999999999 1781.35 936.3899999999999 1781.5699999999997C935.8379999999999 1780.9199999999996 935.0129999999999 1780.5099999999998 934.0929999999998 1780.5099999999998L933.9779999999998 1780.5099999999998C933.5579999999999 1780.5099999999998 933.1549999999999 1780.5899999999997 932.7869999999998 1780.7499999999998C932.2489999999998 1779.9399999999998 931.3259999999998 1779.4099999999999 930.2799999999999 1779.4099999999999L930.1649999999998 1779.4099999999999C928.5089999999999 1779.4099999999999 927.1629999999999 1780.7499999999998 927.1629999999999 1782.3899999999999L927.1629999999999 1785.2599999999998C925.9569999999999 1785.1299999999997 925.0149999999999 1785.3599999999997 924.3029999999999 1785.9599999999998C922.7579999999999 1787.2399999999998 922.9129999999999 1789.7899999999997 923.0639999999999 1792.2499999999998C923.2689999999999 1795.6099999999997 926.2879999999999 1798.4399999999998 927.4519999999999 1799.3999999999999L927.4519999999999 1801.29L926.8719999999998 1801.29C926.2619999999998 1801.29 925.7669999999998 1801.78 925.7669999999998 1802.3899999999999L925.7669999999998 1818.8999999999999C925.7669999999998 1819.5099999999998 926.2619999999998 1819.9999999999998 926.8719999999998 1819.9999999999998L943.1579999999999 1819.9999999999998C943.7679999999999 1819.9999999999998 944.2629999999999 1819.5099999999998 944.2629999999999 1818.8999999999999L944.2629999999999 1802.3899999999999C944.2629999999999 1801.78 943.7679999999999 1801.29 943.1579999999999 1801.29L942.4699999999999 1801.29L942.4699999999999 1798.29C945.189 1795.56 944.8799999999999 1790.69 944.8279999999999 1790.07ZM940.651 1796.98C940.4029999999999 1797.19 940.26 1797.49 940.26 1797.82L940.26 1801.29L929.661 1801.29L929.661 1798.8799999999999C929.661 1798.53 929.4949999999999 1798.1999999999998 929.2149999999999 1797.9999999999998C928.17 1797.2299999999998 925.425 1794.6699999999998 925.2689999999999 1792.1199999999997C925.1629999999999 1790.3799999999997 925.0309999999998 1788.2099999999996 925.7209999999999 1787.6399999999996C925.9769999999999 1787.4299999999996 926.4799999999999 1787.3699999999997 927.1619999999999 1787.4799999999996L927.1619999999999 1788.9699999999996C927.1619999999999 1789.5699999999995 927.6569999999999 1790.0599999999995 928.2669999999999 1790.0599999999995C928.8779999999999 1790.0599999999995 929.372 1789.5699999999995 929.372 1788.9699999999996L929.372 1782.3899999999996C929.372 1781.9599999999996 929.728 1781.5999999999997 930.164 1781.5999999999997L930.28 1781.5999999999997C930.717 1781.5999999999997 931.072 1781.9599999999996 931.072 1782.3899999999996L931.072 1786.6299999999997C931.072 1787.2299999999996 931.566 1787.7199999999996 932.177 1787.7199999999996C932.787 1787.7199999999996 933.282 1787.2299999999996 933.282 1786.6299999999997L933.282 1783.1199999999997C933.418 1782.8599999999997 933.682 1782.6999999999996 933.9780000000001 1782.6999999999996L934.0930000000001 1782.6999999999996C934.5300000000001 1782.6999999999996 934.8850000000001 1783.0599999999995 934.8850000000001 1783.4899999999996L934.8850000000001 1786.6299999999997C934.8850000000001 1787.2299999999996 935.3800000000001 1787.7199999999996 935.9900000000001 1787.7199999999996C936.6000000000001 1787.7199999999996 937.0950000000001 1787.2299999999996 937.0950000000001 1786.6299999999997L937.0950000000001 1783.8499999999997C937.2280000000002 1783.5899999999997 937.4970000000002 1783.4199999999996 937.8010000000002 1783.4199999999996L937.9170000000001 1783.4199999999996C938.3530000000002 1783.4199999999996 938.7090000000002 1783.7699999999995 938.7090000000002 1784.2099999999996L938.7090000000002 1787.1599999999996C938.7090000000002 1787.7699999999995 939.2030000000002 1788.2599999999995 939.8140000000002 1788.2599999999995C940.4240000000002 1788.2599999999995 940.9190000000002 1787.7699999999995 940.9190000000002 1787.1599999999996L940.9190000000002 1784.9599999999996C940.9190000000002 1784.5299999999995 941.2740000000002 1784.1799999999996 941.7110000000002 1784.1799999999996L941.8260000000002 1784.1799999999996C942.2630000000003 1784.1799999999996 942.6180000000003 1784.5299999999995 942.6180000000003 1784.9599999999996L942.6180000000003 1790.1199999999997C942.6180000000003 1790.1499999999996 942.6200000000002 1790.1899999999996 942.6230000000003 1790.2199999999996C942.7510000000003 1791.5299999999995 942.6450000000003 1795.2999999999995 940.6510000000003 1796.9799999999996ZM942.052 1817.81L927.977 1817.81L927.977 1809.1299999999999L942.052 1809.1299999999999ZM942.052 1806.94L927.977 1806.94L927.977 1803.49L942.052 1803.49Z " fill="#ffffff" transform="matrix(1,0,0,1,-922,-1750)"></path></svg>