<svg id="SvgjsSvg1017" xmlns="http://www.w3.org/2000/svg" version="1.1" xmlns:xlink="http://www.w3.org/1999/xlink" xmlns:svgjs="http://svgjs.com/svgjs" width="79" height="61"><defs id="SvgjsDefs1018"></defs><path id="SvgjsPath1019" d="M542.571 1759L466.42900000000003 1759C465.64000000000004 1759 465.00000000000006 1759.64 465.00000000000006 1760.43L465.00000000000006 1771.04C465.00000000000006 1771.83 465.64000000000004 1772.47 466.42900000000003 1772.47C467.21900000000005 1772.47 467.85900000000004 1771.83 467.85900000000004 1771.04L467.85900000000004 1761.87L541.1410000000001 1761.87L541.1410000000001 1817.1299999999999L467.8590000000001 1817.1299999999999L467.8590000000001 1775.82C467.8590000000001 1775.03 467.2190000000001 1774.3899999999999 466.4290000000001 1774.3899999999999C465.6400000000001 1774.3899999999999 465.0000000000001 1775.03 465.0000000000001 1775.82L465.0000000000001 1818.57C465.0000000000001 1819.36 465.6400000000001 1820 466.4290000000001 1820L542.5710000000001 1820C543.3600000000001 1820 544.0000000000001 1819.36 544.0000000000001 1818.57L544.0000000000001 1760.4299999999998C544.0000000000001 1759.6399999999999 543.3600000000001 1758.9999999999998 542.5710000000001 1758.9999999999998ZM534.378 1770.57C533.909 1769.9299999999998 533.013 1769.8 532.379 1770.27L505.29900000000004 1790.37L502.545 1783.2299999999998C502.384 1782.8099999999997 502.036 1782.4999999999998 501.605 1782.37C501.175 1782.25 500.711 1782.34 500.353 1782.61L474.91 1801.81C474.28000000000003 1802.29 474.153 1803.19 474.62800000000004 1803.82C474.90900000000005 1804.2 475.338 1804.3899999999999 475.771 1804.3899999999999C476.071 1804.3899999999999 476.373 1804.3 476.63 1804.11L500.562 1786.04L503.31 1793.1599999999999C503.471 1793.57 503.817 1793.8899999999999 504.245 1794.0199999999998C504.673 1794.1399999999996 505.135 1794.0599999999997 505.493 1793.7899999999997L534.08 1772.5799999999997C534.714 1772.0999999999997 534.8480000000001 1771.2099999999998 534.378 1770.5699999999997ZM523.652 1782.83C522.863 1782.83 522.2230000000001 1783.47 522.2230000000001 1784.27L522.2230000000001 1811.18C522.2230000000001 1811.97 522.863 1812.6100000000001 523.652 1812.6100000000001C524.442 1812.6100000000001 525.082 1811.97 525.082 1811.18L525.082 1784.27C525.082 1783.47 524.442 1782.83 523.652 1782.83ZM533.229 1775.72C532.44 1775.72 531.8000000000001 1776.3700000000001 531.8000000000001 1777.16L531.8000000000001 1798.47C531.8000000000001 1799.26 532.44 1799.9 533.229 1799.9C534.019 1799.9 534.659 1799.26 534.659 1798.47L534.659 1777.16C534.659 1776.3700000000001 534.019 1775.72 533.229 1775.72ZM514.077 1789.94C513.288 1789.94 512.648 1790.5800000000002 512.648 1791.3700000000001L512.648 1811.18C512.648 1811.97 513.288 1812.6100000000001 514.077 1812.6100000000001C514.867 1812.6100000000001 515.507 1811.97 515.507 1811.18L515.507 1791.3700000000001C515.507 1790.5800000000002 514.867 1789.94 514.077 1789.94ZM504.5 1796.57C503.711 1796.57 503.071 1797.21 503.071 1798L503.071 1811.18C503.071 1811.97 503.711 1812.6100000000001 504.5 1812.6100000000001C505.29 1812.6100000000001 505.929 1811.97 505.929 1811.18L505.929 1798C505.929 1797.21 505.28999999999996 1796.57 504.5 1796.57ZM533.229 1801.81C532.44 1801.81 531.8000000000001 1802.46 531.8000000000001 1803.25L531.8000000000001 1811.18C531.8000000000001 1811.97 532.44 1812.6100000000001 533.229 1812.6100000000001C534.019 1812.6100000000001 534.659 1811.97 534.659 1811.18L534.659 1803.25C534.659 1802.46 534.019 1801.81 533.229 1801.81ZM494.923 1792.8C494.133 1792.8 493.494 1793.44 493.494 1794.23L493.494 1800.77C493.494 1801.56 494.13300000000004 1802.2 494.923 1802.2C495.713 1802.2 496.352 1801.56 496.352 1800.77L496.352 1794.23C496.352 1793.44 495.71299999999997 1792.8 494.923 1792.8ZM494.923 1804.11C494.133 1804.11 493.494 1804.76 493.494 1805.55L493.494 1811.18C493.494 1811.97 494.13300000000004 1812.6100000000001 494.923 1812.6100000000001C495.713 1812.6100000000001 496.352 1811.97 496.352 1811.18L496.352 1805.55C496.352 1804.76 495.71299999999997 1804.11 494.923 1804.11ZM475.771 1806.3C474.981 1806.3 474.34200000000004 1806.95 474.34200000000004 1807.74L474.34200000000004 1811.18C474.34200000000004 1811.97 474.98100000000005 1812.6100000000001 475.771 1812.6100000000001C476.56 1812.6100000000001 477.2 1811.97 477.2 1811.18L477.2 1807.74C477.2 1806.95 476.561 1806.3 475.771 1806.3ZM485.346 1800.03C484.557 1800.03 483.91700000000003 1800.67 483.91700000000003 1801.46L483.91700000000003 1811.18C483.91700000000003 1811.97 484.557 1812.6100000000001 485.346 1812.6100000000001C486.136 1812.6100000000001 486.776 1811.97 486.776 1811.18L486.776 1801.46C486.776 1800.67 486.136 1800.03 485.346 1800.03Z " fill="#ffffff" transform="matrix(1,0,0,1,-465,-1759)"></path></svg>