<svg id="SvgjsSvg1008" xmlns="http://www.w3.org/2000/svg" version="1.1" xmlns:xlink="http://www.w3.org/1999/xlink" xmlns:svgjs="http://svgjs.com/svgjs" width="64" height="71"><defs id="SvgjsDefs1009"></defs><path id="SvgjsPath1010" d="M832.873 931.825L798.558 931.825C797.864 929.0490000000001 795.35 926.986 792.3629999999999 926.986L791.9179999999999 926.986L788.4069999999999 918.687C788.2309999999999 918.27 787.8219999999999 917.999 787.3699999999999 917.999C786.9169999999999 917.999 786.5079999999999 918.27 786.3319999999999 918.687L782.8209999999999 926.986L780.112 926.986C779.49 926.986 778.985 927.49 778.985 928.112L778.985 931.8249999999999L771.1270000000001 931.8249999999999C770.504 931.8249999999999 770.0000000000001 932.329 770.0000000000001 932.9519999999999L770.0000000000001 941.9389999999999C770.0000000000001 942.5609999999998 770.5040000000001 943.0659999999998 771.1270000000001 943.0659999999998L778.985 943.0659999999998L778.985 945.6259999999997C778.985 946.2479999999997 779.49 946.7529999999997 780.112 946.7529999999997L781.75 946.7529999999997L781.75 979.7539999999997L774.122 979.7539999999997C773.4989999999999 979.7539999999997 772.995 980.2589999999997 772.995 980.8809999999996L772.995 986.8719999999996C772.995 987.4949999999997 773.499 987.9989999999996 774.122 987.9989999999996L789.8309999999999 987.9989999999996C790.4529999999999 987.9989999999996 790.9579999999999 987.4949999999995 790.9579999999999 986.8719999999996C790.9579999999999 986.2499999999997 790.4529999999999 985.7449999999997 789.8309999999999 985.7449999999997L775.2489999999999 985.7449999999997L775.2489999999999 982.0079999999997L799.4909999999999 982.0079999999997L799.4909999999999 985.7449999999997L793.4369999999999 985.7449999999997C792.8139999999999 985.7449999999997 792.31 986.2499999999997 792.31 986.8719999999996C792.31 987.4949999999997 792.814 987.9989999999996 793.4369999999999 987.9989999999996L800.6179999999999 987.9989999999996C801.2399999999999 987.9989999999996 801.7439999999999 987.4949999999995 801.7439999999999 986.8719999999996L801.7439999999999 980.8809999999996C801.7439999999999 980.2589999999997 801.2399999999999 979.7539999999997 800.6179999999999 979.7539999999997L792.9889999999999 979.7539999999997L792.9889999999999 946.7529999999997L797.622 946.7529999999997C798.245 946.7529999999997 798.7489999999999 946.2469999999997 798.7489999999999 945.6259999999997L798.7489999999999 943.0649999999997L826.2169999999999 943.0649999999997L826.2169999999999 953.2899999999997L825.5409999999998 953.2899999999997C824.9179999999998 953.2899999999997 824.4139999999999 953.7949999999997 824.4139999999999 954.4169999999997C824.4139999999999 955.0389999999996 824.9179999999999 955.5439999999996 825.5409999999998 955.5439999999996L826.2169999999999 955.5439999999996L826.2169999999999 958.4139999999996C826.2169999999999 959.0359999999996 826.7209999999999 959.5419999999997 827.3439999999998 959.5419999999997C828.4689999999998 959.5419999999997 829.3849999999999 960.4569999999997 829.3849999999999 961.5829999999997C829.3849999999999 962.7079999999997 828.4689999999998 963.6239999999998 827.3439999999998 963.6239999999998C826.2179999999998 963.6239999999998 825.3019999999998 962.7079999999997 825.3019999999998 961.5829999999997C825.3019999999998 960.9599999999997 824.7979999999998 960.4549999999997 824.1759999999998 960.4549999999997C823.5529999999998 960.4549999999997 823.0489999999999 960.9599999999997 823.0489999999999 961.5829999999997C823.0489999999999 963.9509999999998 824.9749999999999 965.8779999999997 827.3439999999998 965.8779999999997C829.7119999999999 965.8779999999997 831.6379999999998 963.9509999999997 831.6379999999998 961.5829999999997C831.6379999999998 959.6039999999997 830.2939999999998 957.9329999999998 828.4699999999998 957.4369999999998L828.4699999999998 955.5439999999998L829.1459999999998 955.5439999999998C829.7689999999999 955.5439999999998 830.2729999999998 955.0389999999998 830.2729999999998 954.4169999999998C830.2729999999998 953.7949999999998 829.7689999999998 953.2899999999998 829.1459999999998 953.2899999999998L828.4699999999998 953.2899999999998L828.4699999999998 943.0649999999998L832.8729999999998 943.0649999999998C833.4959999999999 943.0649999999998 833.9999999999998 942.5599999999998 833.9999999999998 941.9389999999999L833.9999999999998 932.9519999999999C833.9999999999998 932.3289999999998 833.4949999999998 931.8249999999999 832.8729999999998 931.8249999999999ZM788.381 939.352L788.381 936.011C788.381 935.389 787.877 934.884 787.254 934.884C786.6320000000001 934.884 786.1270000000001 935.389 786.1270000000001 936.011L786.1270000000001 940.4789999999999C786.1270000000001 941.1009999999999 786.6320000000001 941.6059999999999 787.254 941.6059999999999L796.496 941.6059999999999L796.496 944.4989999999999L781.239 944.4989999999999L781.239 929.2399999999999L786.1270000000001 929.2399999999999L786.1270000000001 932.3299999999999C786.1270000000001 932.9519999999999 786.6320000000001 933.4559999999999 787.254 933.4559999999999C787.8770000000001 933.4559999999999 788.381 932.9519999999999 788.381 932.3299999999999L788.381 929.2399999999999C788.3829999999999 929.2399999999999 791.17 929.2399999999999 791.1709999999999 929.2399999999999C791.1729999999999 929.2399999999999 792.3629999999999 929.2399999999999 792.3629999999999 929.2399999999999C794.6419999999999 929.2399999999999 796.496 931.0939999999999 796.496 933.3729999999999L796.496 939.352ZM817.622 940.812L823.8879999999999 934.546L830.1529999999999 940.812ZM784.004 978.161L784.004 965.6279999999999L790.269 971.8939999999999ZM808.637 934.079L821.1669999999999 934.079L814.9019999999999 940.3449999999999ZM790.735 969.174L784.47 962.9069999999999L790.735 956.6419999999999ZM800.343 940.812L806.262 934.891L812.1819999999999 940.812ZM784.004 960.187L784.004 948.347L789.923 954.2669999999999ZM772.253 940.812L772.253 935.673L777.392 940.812ZM778.985 939.218L773.847 934.079L778.985 934.079ZM790.735 979.754L785.597 979.754L790.735 974.615ZM798.749 939.218L798.749 934.079L803.8870000000001 934.079ZM790.735 951.891L785.597 946.7529999999999L790.735 946.7529999999999ZM787.37 922.019L789.471 926.986L785.268 926.986ZM831.746 939.218L826.608 934.079L831.746 934.079Z " fill="#3395da" transform="matrix(1,0,0,1,-770,-917)"></path></svg>