<svg id="SvgjsSvg1011" xmlns="http://www.w3.org/2000/svg" version="1.1" xmlns:xlink="http://www.w3.org/1999/xlink" xmlns:svgjs="http://svgjs.com/svgjs" width="70" height="70"><defs id="SvgjsDefs1012"></defs><path id="SvgjsPath1013" d="M1134.5 976.1C1127.54 972.407 1122.2 970.337 1117.44 969.543L1117.93 968.866C1118.17 968.633 1118.28 968.283 1118.17 967.933L1117.0700000000002 963.56C1119.9600000000003 959.472 1121.67 954.361 1121.67 949.5L1121.67 944.833L1125.17 944.833C1125.8700000000001 944.833 1126.3300000000002 944.367 1126.3300000000002 943.6659999999999C1126.3300000000002 942.9659999999999 1125.8700000000001 942.4999999999999 1125.17 942.4999999999999L1124 942.4999999999999L1124 941.3329999999999C1124 932.1169999999998 1117.93 924.2999999999998 1108.83 921.7329999999998L1108.83 921.4999999999999C1108.83 919.6329999999999 1107.32 917.9999999999999 1105.33 917.9999999999999L1100.6699999999998 917.9999999999999C1098.8 917.9999999999999 1097.1699999999998 919.5159999999998 1097.1699999999998 921.4999999999999L1097.1699999999998 921.7329999999998C1088.07 924.2999999999998 1081.9999999999998 932.1169999999998 1081.9999999999998 941.3329999999999L1081.9999999999998 942.4999999999999L1080.8299999999997 942.4999999999999C1080.1299999999997 942.4999999999999 1079.6699999999996 942.9659999999999 1079.6699999999996 943.6659999999999C1079.6699999999996 944.366 1080.1299999999997 944.833 1080.8299999999997 944.833L1084.3299999999997 944.833L1084.3299999999997 949.5C1084.3299999999997 954.361 1086.0299999999997 959.472 1088.9299999999996 963.56L1087.8299999999997 967.933C1087.8299999999997 968.1659999999999 1087.8299999999997 968.633 1088.0699999999997 968.866L1088.5599999999997 969.543C1083.7999999999997 970.337 1078.4599999999998 972.407 1071.4999999999998 976.1C1069.2799999999997 977.15 1067.9999999999998 979.366 1067.9999999999998 981.816L1067.9999999999998 986.8330000000001C1067.9999999999998 987.5330000000001 1068.4699999999998 988.0000000000001 1069.1699999999998 988.0000000000001L1136.83 988.0000000000001C1137.53 988.0000000000001 1138 987.5330000000001 1138 986.8330000000001L1138 981.816C1138 979.4830000000001 1136.6 977.2660000000001 1134.5 976.1ZM1086.53 932.74L1094.6 934.333C1094.7199999999998 934.333 1094.7199999999998 934.333 1094.83 934.333C1095.1799999999998 934.333 1095.4199999999998 934.216 1095.77 934.1C1096.12 933.866 1096.23 933.4 1096.12 933.0500000000001L1094.52 925.2550000000001C1095.36 924.8490000000002 1096.24 924.5000000000001 1097.17 924.214L1097.17 927.3330000000001C1097.17 928.0330000000001 1097.63 928.5000000000001 1098.3300000000002 928.5000000000001C1099.0300000000002 928.5000000000001 1099.5000000000002 928.0330000000001 1099.5000000000002 927.3330000000001L1099.5000000000002 921.5000000000001C1099.5000000000002 920.9160000000002 1099.9700000000003 920.3330000000001 1100.6700000000003 920.3330000000001L1105.3300000000004 920.3330000000001C1105.9200000000003 920.3330000000001 1106.5000000000005 920.8000000000001 1106.5000000000005 921.5000000000001L1106.5000000000005 927.3330000000001C1106.5000000000005 928.0330000000001 1106.9700000000005 928.5000000000001 1107.6700000000005 928.5000000000001C1108.3700000000006 928.5000000000001 1108.8300000000006 928.0330000000001 1108.8300000000006 927.3330000000001L1108.8300000000006 924.214C1109.7900000000006 924.5100000000001 1110.7000000000005 924.8720000000001 1111.5700000000006 925.2950000000001L1110.0000000000007 932.9330000000001C1110.0000000000007 933.2830000000001 1110.1200000000006 933.7500000000001 1110.3500000000006 933.9830000000001C1110.5800000000006 934.216 1110.8200000000006 934.3330000000001 1111.1700000000005 934.3330000000001C1111.2800000000004 934.3330000000001 1111.2800000000004 934.3330000000001 1111.4000000000005 934.3330000000001L1119.4200000000005 932.6450000000001C1120.8700000000006 935.2270000000001 1121.6700000000005 938.19 1121.6700000000005 941.3330000000001L1121.6700000000005 942.5000000000001L1084.3300000000006 942.5000000000001L1084.3300000000006 941.3330000000001C1084.3300000000006 938.229 1085.1100000000006 935.3000000000001 1086.5300000000007 932.7400000000001ZM1119.33 944.833L1119.33 949.5C1119.33 954.587 1117.59 959.107 1114.97 962.544L1114.9 962.566C1114.7800000000002 962.683 1114.67 962.8000000000001 1114.5500000000002 962.916C1113.9600000000003 963.6990000000001 1113.3400000000001 964.413 1112.7000000000003 965.056C1109.9500000000003 967.615 1106.6700000000003 969.1650000000001 1103.5200000000002 969.3190000000001C1103.3600000000001 969.2510000000001 1103.1800000000003 969.2160000000001 1103.0000000000002 969.2160000000001C1102.8200000000002 969.2160000000001 1102.6600000000003 969.2510000000001 1102.5100000000002 969.3210000000001C1100.5800000000002 969.2320000000001 1098.6000000000001 968.6190000000001 1096.7300000000002 967.5710000000001C1094.8300000000002 966.4800000000001 1093.0400000000002 964.9070000000002 1091.4500000000003 962.9160000000002C1091.3300000000004 962.8000000000002 1091.2200000000003 962.6830000000002 1091.1000000000004 962.5660000000001L1091.0300000000004 962.5440000000001C1088.4100000000005 959.1070000000001 1086.6700000000005 954.5870000000001 1086.6700000000005 949.5000000000001L1086.6700000000005 944.8330000000001ZM1070.33 981.816C1070.33 980.3000000000001 1071.1499999999999 978.899 1072.55 978.1990000000001C1079.99 974.249 1085.34 972.2660000000001 1090.11 971.6740000000001L1097.07 981.2460000000001L1096.1899999999998 985.666L1070.33 985.666ZM1115.25 965.833L1115.72 967.933L1114.52 969.5699999999999C1114.45 969.632 1114.3799999999999 969.7069999999999 1114.32 969.8L1109.46 976.519L1107.92 978.633L1104.78 971.556C1108.54 971.0980000000001 1111.8899999999999 969.21 1114.6 966.498C1114.6299999999999 966.4680000000001 1114.6699999999998 966.4390000000001 1114.6999999999998 966.409C1114.6999999999998 966.401 1114.7099999999998 966.394 1114.7199999999998 966.387C1114.8999999999999 966.207 1115.0699999999997 966.0219999999999 1115.2499999999998 965.833ZM1101.22 971.557L1098.08 978.633L1096.54 976.519L1091.68 969.8C1091.65 969.7629999999999 1091.6000000000001 969.726 1091.5600000000002 969.6899999999999L1090.2800000000002 967.933L1090.7500000000002 965.833C1090.9100000000003 966.004 1091.0700000000002 966.169 1091.2300000000002 966.333C1093.9700000000003 969.134 1097.3900000000003 971.0889999999999 1101.2200000000003 971.557ZM1102.3 975.02L1103.01 973.4309999999999L1104.75 977.2669999999999L1105.89 979.833L1100.2 979.833ZM1099.31 982.166L1106.6799999999998 982.166L1107.34 985.666L1098.61 985.666ZM1113.73 926.533C1113.8600000000001 926.619 1113.99 926.707 1114.1100000000001 926.796C1115.6000000000001 927.904 1116.97 929.202 1118.0500000000002 930.6L1112.6800000000003 931.65ZM1093.32 931.65L1087.95 930.6C1089.03 929.202 1090.4 927.904 1091.89 926.7950000000001C1092.01 926.7070000000001 1092.14 926.619 1092.2700000000002 926.5330000000001ZM1135.67 985.666L1109.8100000000002 985.666L1108.93 981.2470000000001L1115.97 971.57C1120.72 972.287 1126.17 974.269 1133.45 978.0830000000001C1134.8500000000001 978.9000000000001 1135.67 980.3000000000001 1135.67 981.816Z " fill="#3395da" transform="matrix(1,0,0,1,-1068,-918)"></path></svg>