<svg id="SvgjsSvg1014" xmlns="http://www.w3.org/2000/svg" version="1.1" xmlns:xlink="http://www.w3.org/1999/xlink" xmlns:svgjs="http://svgjs.com/svgjs" width="71" height="71"><defs id="SvgjsDefs1015"></defs><path id="SvgjsPath1016" d="M1432.64 985.709L1406.2900000000002 959.358C1405.7600000000002 958.834 1404.91 958.834 1404.39 959.358C1403.8700000000001 959.882 1403.8700000000001 960.731 1404.39 961.256L1428.45 985.3159999999999L1420.38 985.3159999999999L1420.38 984.0509999999999C1420.38 983.31 1419.7800000000002 982.7099999999999 1419.0400000000002 982.7099999999999C1418.3000000000002 982.7099999999999 1417.7000000000003 983.31 1417.7000000000003 984.0509999999999L1417.7000000000003 985.3159999999999L1412.4800000000002 985.3159999999999L1412.4800000000002 984.0509999999999C1412.4800000000002 983.31 1411.8800000000003 982.7099999999999 1411.1400000000003 982.7099999999999C1410.3900000000003 982.7099999999999 1409.7900000000004 983.31 1409.7900000000004 984.0509999999999L1409.7900000000004 985.3159999999999L1404.5800000000004 985.3159999999999L1404.5800000000004 984.0509999999999C1404.5800000000004 983.31 1403.9700000000005 982.7099999999999 1403.2300000000005 982.7099999999999C1402.4900000000005 982.7099999999999 1401.8900000000006 983.31 1401.8900000000006 984.0509999999999L1401.8900000000006 985.3159999999999L1396.6700000000005 985.3159999999999L1396.6700000000005 984.0509999999999C1396.6700000000005 983.31 1396.0700000000006 982.7099999999999 1395.3300000000006 982.7099999999999C1394.5900000000006 982.7099999999999 1393.9900000000007 983.31 1393.9900000000007 984.0509999999999L1393.9900000000007 985.3159999999999L1388.7700000000007 985.3159999999999L1388.7700000000007 984.0509999999999C1388.7700000000007 983.31 1388.1700000000008 982.7099999999999 1387.4300000000007 982.7099999999999C1386.6900000000007 982.7099999999999 1386.0900000000008 983.31 1386.0900000000008 984.0509999999999L1386.0900000000008 985.3159999999999L1380.8700000000008 985.3159999999999L1380.8700000000008 984.0509999999999C1380.8700000000008 983.31 1380.270000000001 982.7099999999999 1379.5300000000009 982.7099999999999C1378.7900000000009 982.7099999999999 1378.190000000001 983.31 1378.190000000001 984.0509999999999L1378.190000000001 985.3159999999999L1372.970000000001 985.3159999999999L1372.970000000001 984.0509999999999C1372.970000000001 983.31 1372.370000000001 982.7099999999999 1371.630000000001 982.7099999999999C1370.890000000001 982.7099999999999 1370.280000000001 983.31 1370.280000000001 984.0509999999999L1370.280000000001 985.3159999999999L1365.6800000000012 985.3159999999999L1365.6800000000012 922.55L1389.9900000000011 946.8549999999999C1390.5100000000011 947.3789999999999 1391.360000000001 947.3789999999999 1391.8900000000012 946.8549999999999C1392.4100000000012 946.3309999999999 1392.4100000000012 945.4819999999999 1391.8900000000012 944.9579999999999L1365.2900000000013 918.3609999999999C1364.9100000000012 917.9779999999998 1364.3300000000013 917.8629999999998 1363.8300000000013 918.0699999999998C1363.3300000000013 918.2779999999998 1363.0000000000014 918.7679999999998 1363.0000000000014 919.3099999999998L1363.0000000000014 986.6579999999998C1363.0000000000014 987.3989999999998 1363.6000000000013 987.9999999999998 1364.3400000000013 987.9999999999998L1431.6900000000012 987.9999999999998C1432.2300000000012 987.9999999999998 1432.7200000000012 987.6729999999998 1432.9300000000012 987.1709999999998C1433.1400000000012 986.6699999999998 1433.0200000000011 986.0929999999998 1432.6400000000012 985.7089999999998ZM1426.44 927.655L1423.3400000000001 924.558C1422.41 923.629 1421.18 923.117 1419.8600000000001 923.117C1418.5500000000002 923.117 1417.3100000000002 923.6289999999999 1416.38 924.558L1405.5300000000002 935.415C1405.0000000000002 935.939 1405.0000000000002 936.789 1405.5300000000002 937.313C1406.0500000000002 937.836 1406.9 937.836 1407.4200000000003 937.313L1413.1800000000003 931.557L1419.4400000000003 937.819L1386.1100000000004 971.149L1379.8500000000004 964.8870000000001L1404.2600000000004 940.475C1404.7900000000004 939.951 1404.7900000000004 939.101 1404.2600000000004 938.577C1403.7400000000005 938.053 1402.8900000000006 938.053 1402.3600000000004 938.577L1377.0000000000005 963.939C1376.8600000000004 964.077 1376.7600000000004 964.2439999999999 1376.6900000000005 964.428L1372.0100000000004 977.271C1371.8300000000004 977.762 1371.9500000000005 978.3109999999999 1372.3200000000004 978.68C1372.5700000000004 978.9359999999999 1372.9200000000003 979.073 1373.2700000000004 979.073C1373.4200000000005 979.073 1373.5800000000004 979.0459999999999 1373.7300000000005 978.992L1386.5700000000004 974.307C1386.7500000000005 974.24 1386.9200000000003 974.134 1387.0600000000004 973.995L1426.4400000000005 934.615C1428.3600000000006 932.696 1428.3600000000006 929.574 1426.4400000000005 927.655ZM1384.68 952.167L1375.49 942.981C1375.1 942.597 1374.53 942.482 1374.03 942.6899999999999C1373.52 942.8979999999999 1373.2 943.387 1373.2 943.93L1373.2 962.4029999999999C1373.2 963.1439999999999 1373.8 963.7449999999999 1374.54 963.7449999999999C1375.28 963.7449999999999 1375.8799999999999 963.1439999999999 1375.8799999999999 962.4029999999999L1375.8799999999999 947.1689999999999L1382.78 954.0649999999998C1383.3 954.5889999999998 1384.1499999999999 954.5889999999998 1384.68 954.0649999999998C1385.2 953.5409999999998 1385.2 952.6919999999998 1384.68 952.1669999999998ZM1424.54 932.717L1421.34 935.9209999999999L1415.08 929.659L1418.28 926.456C1418.7 926.033 1419.27 925.8000000000001 1419.86 925.8000000000001C1420.4599999999998 925.8000000000001 1421.02 926.033 1421.4499999999998 926.456L1424.5399999999997 929.552C1424.9699999999998 929.975 1425.1999999999998 930.537 1425.1999999999998 931.135C1425.1999999999998 931.733 1424.9699999999998 932.295 1424.5399999999997 932.717ZM1375.52 975.483L1378.49 967.324L1383.67 972.507ZM1408.02 975.511L1399.08 966.5699999999999C1398.55 966.0459999999999 1397.6999999999998 966.0459999999999 1397.1799999999998 966.5699999999999C1396.6499999999999 967.0939999999999 1396.6499999999999 967.943 1397.1799999999998 968.467L1403.83 975.1179999999999L1387.5 975.1179999999999C1386.76 975.1179999999999 1386.16 975.7189999999999 1386.16 976.4599999999999C1386.16 977.2009999999999 1386.76 977.8019999999999 1387.5 977.8019999999999L1407.07 977.8019999999999C1407.61 977.8019999999999 1408.1 977.4749999999999 1408.31 976.9739999999999C1408.52 976.472 1408.3999999999999 975.895 1408.02 975.511Z " fill="#3395da" transform="matrix(1,0,0,1,-1363,-917)"></path></svg>