<svg id="SvgjsSvg1000" xmlns="http://www.w3.org/2000/svg" version="1.1" xmlns:xlink="http://www.w3.org/1999/xlink" xmlns:svgjs="http://svgjs.com/svgjs" width="71" height="60"><defs id="SvgjsDefs1001"></defs><path id="SvgjsPath1007" d="M537.232 960.869C535.776 958.604 532.8629999999999 957.767 530.4309999999999 958.844C530.0569999999999 957.394 529.083 956.1220000000001 527.6959999999999 955.398C526.9159999999999 954.99 526.04 954.774 525.165 954.774C523.252 954.774 521.515 955.741 520.5169999999999 957.36L514.1139999999999 967.77L514.069 967.795C513.072 968.342 511.905 968.539 510.782 968.3499999999999L495.113 965.7169999999999C494.031 965.5349999999999 493.261 964.5429999999999 493.36 963.4589999999998C493.413 962.8729999999998 493.701 962.3509999999999 494.17 961.9899999999998C494.639 961.6289999999998 495.219 961.4819999999997 495.805 961.5769999999998L509.409 963.7709999999997C511.861 964.1659999999997 514.248 962.6019999999997 514.846 960.2109999999998C515.159 958.9639999999998 514.949 957.6779999999998 514.255 956.5919999999998C513.561 955.5059999999997 512.479 954.7689999999998 511.209 954.5159999999997L489.491 950.1959999999997C488.615 950.0219999999997 487.717 949.9249999999997 486.824 949.9089999999997C482.86400000000003 949.8379999999996 479.06 951.8859999999996 476.88800000000003 955.2559999999996C474.78700000000003 958.5169999999996 471.91900000000004 961.3139999999996 468.59600000000006 963.3429999999996C468.03800000000007 963.6839999999996 467.86300000000006 964.4099999999996 468.20700000000005 964.9639999999996C468.55100000000004 965.5179999999996 469.2830000000001 965.6909999999996 469.84100000000007 965.3499999999996C473.46700000000004 963.1359999999995 476.59600000000006 960.0849999999996 478.89000000000004 956.5249999999995C480.59100000000007 953.8859999999995 483.54100000000005 952.2639999999996 486.62100000000004 952.2639999999996C486.67400000000004 952.2639999999996 486.72800000000007 952.2649999999995 486.78000000000003 952.2659999999995C487.53200000000004 952.2789999999995 488.28700000000003 952.3609999999995 489.02400000000006 952.5069999999995L510.7420000000001 956.8269999999995C511.37000000000006 956.9519999999995 511.9050000000001 957.3169999999996 512.248 957.8529999999995C512.5920000000001 958.3899999999995 512.695 959.0259999999995 512.541 959.6439999999996C512.238 960.8529999999995 511.02900000000005 961.6439999999996 509.7900000000001 961.4439999999995L496.1860000000001 959.2509999999995C494.9600000000001 959.0529999999995 493.6950000000001 959.3729999999995 492.7140000000001 960.1279999999995C491.7330000000001 960.8829999999995 491.1060000000001 962.0189999999994 490.9940000000001 963.2459999999995C490.7840000000001 965.5479999999995 492.4190000000001 967.6549999999995 494.71600000000007 968.0409999999995L510.3860000000001 970.6739999999995C512.0360000000001 970.9519999999995 513.753 970.6619999999996 515.219 969.8569999999995L531.1640000000001 961.1119999999995C532.5760000000001 960.3379999999995 534.3620000000001 960.7879999999996 535.2300000000001 962.1369999999995C535.6710000000002 962.8229999999995 535.8160000000001 963.6389999999994 535.6370000000002 964.4339999999995C535.4580000000002 965.2289999999995 534.9770000000002 965.9059999999995 534.2830000000001 966.3409999999996L513.6760000000002 979.2609999999995C511.84700000000015 980.4079999999996 509.6610000000002 980.8629999999995 507.5210000000002 980.5429999999996L495.20700000000016 978.6969999999995C494.5570000000002 978.5999999999996 493.95300000000015 979.0429999999996 493.8550000000002 979.6859999999996C493.7580000000002 980.3289999999996 494.2040000000002 980.9299999999996 494.8520000000002 981.0269999999996L507.1660000000002 982.8729999999996C507.7310000000002 982.9579999999996 508.30000000000024 982.9999999999995 508.86500000000024 982.9999999999995C511.00600000000026 982.9999999999995 513.1170000000002 982.3999999999995 514.9460000000003 981.2529999999996L535.5530000000002 968.3339999999996C536.7850000000002 967.5609999999996 537.6380000000003 966.3589999999996 537.9560000000002 964.9469999999997C538.2730000000003 963.5359999999997 538.0160000000002 962.0879999999996 537.2320000000002 960.8689999999997ZM527.209 943.8L520.375 937.02L520.375 926.3779999999999C520.375 925.728 519.843 925.1999999999999 519.187 925.1999999999999L512.7330000000001 925.1999999999999C512.0770000000001 925.1999999999999 511.5450000000001 925.728 511.5450000000001 926.3779999999999L511.5450000000001 928.261L507.5780000000001 924.324C507.1140000000001 923.8639999999999 506.3620000000001 923.8639999999999 505.8980000000001 924.324L486.26700000000005 943.8C485.80300000000005 944.261 485.80300000000005 945.007 486.26700000000005 945.467C486.73100000000005 945.927 487.48300000000006 945.927 487.94700000000006 945.467L491.66900000000004 941.774L491.66900000000004 948.501C491.66900000000004 949.1519999999999 492.20000000000005 949.68 492.857 949.68C493.51300000000003 949.68 494.04400000000004 949.1519999999999 494.04400000000004 948.501L494.04400000000004 939.417L506.73800000000006 926.8240000000001L511.89200000000005 931.9380000000001C511.89300000000003 931.9390000000001 519.431 939.4170000000001 519.431 939.4170000000001L519.431 953.3420000000001C519.431 953.9920000000001 519.9630000000001 954.5200000000001 520.619 954.5200000000001C521.275 954.5200000000001 521.807 953.9920000000001 521.807 953.3420000000001L521.807 941.7740000000001L525.529 945.4670000000001C525.761 945.6970000000001 526.0649999999999 945.8120000000001 526.369 945.8120000000001C526.673 945.8120000000001 526.977 945.6970000000001 527.2090000000001 945.4670000000001C527.6730000000001 945.0070000000001 527.6730000000001 944.2610000000001 527.2090000000001 943.8000000000001ZM511.271 943.038L502.20500000000004 943.038C501.54900000000004 943.038 501.01700000000005 943.566 501.01700000000005 944.217L501.01700000000005 950.501C501.01700000000005 951.1519999999999 501.54900000000004 951.679 502.20500000000004 951.679C502.86100000000005 951.679 503.39300000000003 951.1519999999999 503.39300000000003 950.501L503.39300000000003 945.395L510.083 945.395L510.083 951.915C510.083 952.5659999999999 510.615 953.093 511.271 953.093C511.927 953.093 512.4590000000001 952.5659999999999 512.4590000000001 951.915L512.4590000000001 944.217C512.4590000000001 943.566 511.9270000000001 943.038 511.2710000000001 943.038ZM518.314 965.467L522.545 958.588C523.107 957.6759999999999 524.086 957.131 525.165 957.131C525.656 957.131 526.149 957.2529999999999 526.5889999999999 957.483C527.56 957.9899999999999 528.17 958.973 528.2189999999999 960.034ZM517.999 934.663L513.921 930.618L513.921 927.557L517.999 927.557ZM491.188 978.094L483.182 976.8950000000001C481.63800000000003 976.6630000000001 480.06800000000004 977.0040000000001 478.76300000000003 977.8560000000001L476.70900000000006 979.1970000000001C476.16100000000006 979.5540000000001 476.00900000000007 980.2850000000001 476.3690000000001 980.8290000000001C476.5970000000001 981.1730000000001 476.9760000000001 981.36 477.3630000000001 981.36C477.5870000000001 981.36 477.8130000000001 981.297 478.0140000000001 981.166L480.06900000000013 979.826C480.88300000000015 979.294 481.86200000000014 979.081 482.8270000000001 979.225L490.8340000000001 980.4250000000001C491.4810000000001 980.522 492.0870000000001 980.0790000000001 492.1850000000001 979.436C492.28300000000013 978.792 491.8370000000001 978.192 491.1880000000001 978.094Z " fill="#3395da" transform="matrix(1,0,0,1,-468,-923)"></path></svg>