<svg width="168" height="108" viewBox="0 0 168 108" fill="none" xmlns="http://www.w3.org/2000/svg">
<rect width="166.426" height="108" transform="translate(0.787109)" fill="white"/>
<g clip-path="url(#clip0_4056_8532)">
<rect x="15.4512" y="4.04102" width="137.098" height="99.918" rx="5.0161" fill="#F7F7F8" stroke="#ECECEE"/>
<rect opacity="0.5" x="24.6885" y="70.8198" width="16.2469" height="8.12344" rx="1.14706" fill="#CECED4"/>
<rect x="43.9844" y="70.8198" width="16.2469" height="8.12344" rx="1.14706" fill="#CECED4"/>
<rect opacity="0.5" x="63.2764" y="70.8198" width="16.2469" height="8.12344" rx="1.14706" fill="#D9D9D9"/>
<rect x="14.9512" y="3.54102" width="138.098" height="16.8197" fill="#CECED4"/>
<ellipse cx="25.5037" cy="12.411" rx="2.41877" ry="2.4188" fill="white"/>
<ellipse cx="35.1776" cy="12.411" rx="2.41877" ry="2.4188" fill="white"/>
<ellipse cx="44.8524" cy="12.411" rx="2.41877" ry="2.4188" fill="white"/>
<rect x="24.6885" y="31.8689" width="41.6066" height="4.42623" rx="2.21311" fill="#CECED4"/>
<rect opacity="0.3" x="24.6885" y="91.1804" width="56.6557" height="3.54099" rx="1.77049" fill="#C9C9CF"/>
<rect opacity="0.5" x="24.6885" y="45.1475" width="30.0984" height="2.65574" rx="1.32787" fill="#D1D1D7"/>
<rect opacity="0.5" x="24.6885" y="55.7705" width="47.8033" height="2.65574" rx="1.32787" fill="#D1D1D7"/>
</g>
<g filter="url(#filter0_d_4056_8532)">
<rect x="81.3447" y="17.7048" width="73.4754" height="73.4754" rx="5" fill="#F7F7F8" shape-rendering="crispEdges"/>
<path d="M139.492 48.0471L97.1357 48.0301C95.433 48.0294 94.0522 49.4091 94.0515 51.1118L94.0422 74.021C94.0416 75.7237 95.4213 77.1046 97.124 77.1052L139.48 77.1223C141.183 77.123 142.563 75.7433 142.564 74.0406L142.573 51.1314C142.574 49.4287 141.194 48.0478 139.492 48.0471Z" fill="#E8E8E9"/>
<path d="M141.202 48.6241C140.628 49.2377 140.435 49.9371 139.417 49.9555L97.1203 49.9025C96.1234 49.8785 96.0194 49.1358 95.4272 48.519L116.578 32.0322C117.259 31.5249 118.171 31.5062 118.869 32.0173L141.202 48.6241Z" fill="#CECED4"/>
<path d="M141.667 49.0708C141.117 48.4754 140.397 48.1128 139.442 48.1101L97.146 48.0571C96.1491 48.0331 95.4692 48.4343 94.8948 49.0478L116.548 65.9498C117.225 66.5031 118.18 66.5058 118.86 65.9986L141.709 49.0921L141.667 49.0708Z" fill="#E3E3E6"/>
<mask id="mask0_4056_8532" style="mask-type:luminance" maskUnits="userSpaceOnUse" x="94" y="26" width="48" height="41">
<path d="M141.667 49.0708C141.117 48.4753 140.58 28.0256 139.583 28.0016L98.4985 26.9125C97.5016 26.8886 95.4271 48.4129 94.8527 49.0264L116.506 65.9284C117.183 66.4818 118.138 66.4844 118.818 65.9772L141.667 49.0708Z" fill="white"/>
</mask>
<g mask="url(#mask0_4056_8532)">
<path d="M101.102 32.9315L135.489 32.9454C136.905 32.9459 138.082 34.1239 138.082 35.5398L138.067 71.3822L98.4929 71.3663L98.5074 35.5238C98.508 34.1079 99.686 32.9309 101.102 32.9315Z" fill="#F7F7F8" stroke="#EFEFF0" stroke-width="0.884423"/>
<path d="M118.541 56.2596C117.14 56.2596 115.896 56.0674 114.811 55.6831C113.731 55.3034 112.82 54.7428 112.078 54.0013C111.337 53.2644 110.774 52.3602 110.39 51.2887C110.006 50.2173 109.813 48.9943 109.813 47.6199C109.813 46.2817 110.008 45.0791 110.397 44.0122C110.785 42.9452 111.351 42.0365 112.092 41.286C112.838 40.531 113.744 39.9546 114.811 39.5567C115.878 39.1589 117.09 38.96 118.446 38.96C119.744 38.96 120.888 39.1634 121.878 39.5703C122.868 39.9772 123.7 40.5355 124.373 41.2453C125.052 41.9551 125.562 42.7689 125.906 43.6867C126.25 44.6044 126.421 45.5742 126.421 46.5959C126.421 47.3103 126.376 48.0088 126.286 48.6914C126.195 49.3696 126.028 49.9844 125.784 50.536C125.544 51.083 125.196 51.5216 124.74 51.8516C124.287 52.1771 123.7 52.3467 122.976 52.3602C122.592 52.3738 122.219 52.3286 121.857 52.2246C121.496 52.1206 121.188 51.9533 120.935 51.7228C120.682 51.4877 120.528 51.1893 120.474 50.8276L120.393 50.8276C120.284 51.0943 120.103 51.343 119.85 51.5736C119.597 51.7996 119.274 51.9805 118.88 52.1161C118.492 52.2472 118.039 52.3014 117.524 52.2788C116.954 52.2562 116.441 52.1274 115.985 51.8923C115.528 51.6572 115.137 51.3317 114.811 50.9158C114.49 50.4998 114.244 50.007 114.072 49.4374C113.9 48.8677 113.815 48.2348 113.815 47.5386C113.815 46.8695 113.912 46.2704 114.106 45.7415C114.301 45.208 114.565 44.7491 114.9 44.3648C115.239 43.976 115.627 43.6686 116.066 43.4425C116.505 43.2165 116.968 43.0741 117.456 43.0153C117.931 42.9611 118.367 42.9746 118.765 43.056C119.163 43.1374 119.493 43.2617 119.755 43.429C120.022 43.5963 120.189 43.7794 120.257 43.9783L120.345 43.9783L120.345 43.2188L122.013 43.2188L122.013 49.512C122.013 49.8691 122.106 50.1721 122.291 50.4207C122.481 50.6694 122.75 50.7937 123.098 50.7937C123.51 50.7937 123.831 50.6422 124.061 50.3393C124.296 50.0364 124.462 49.5708 124.556 48.9423C124.656 48.3139 124.706 47.5092 124.706 46.5281C124.706 45.8409 124.613 45.1944 124.428 44.5886C124.247 43.9783 123.978 43.4267 123.621 42.9339C123.268 42.4366 122.834 42.0094 122.319 41.6522C121.803 41.2951 121.215 41.0193 120.555 40.8249C119.9 40.6305 119.174 40.5333 118.379 40.5333C117.298 40.5333 116.337 40.7006 115.496 41.0351C114.655 41.3651 113.946 41.8421 113.367 42.466C112.793 43.0899 112.357 43.8381 112.058 44.7107C111.764 45.5787 111.617 46.553 111.617 47.6335C111.617 48.7592 111.769 49.7584 112.072 50.6309C112.375 51.499 112.822 52.2314 113.414 52.8281C114.007 53.4249 114.739 53.877 115.612 54.1844C116.484 54.4964 117.49 54.6524 118.629 54.6524C119.136 54.6524 119.633 54.6072 120.121 54.5167C120.61 54.4308 121.044 54.3314 121.423 54.2183C121.808 54.1098 122.095 54.0217 122.285 53.9539L122.759 55.439C122.479 55.5701 122.106 55.699 121.64 55.8256C121.179 55.9522 120.677 56.0561 120.135 56.1375C119.597 56.2189 119.066 56.2596 118.541 56.2596ZM117.917 50.6174C118.505 50.6174 118.978 50.4998 119.335 50.2647C119.696 50.0296 119.956 49.6793 120.115 49.2136C120.277 48.7434 120.359 48.1557 120.359 47.4504C120.354 46.7632 120.266 46.2162 120.094 45.8093C119.927 45.3979 119.665 45.104 119.308 44.9277C118.955 44.7468 118.501 44.6564 117.944 44.6564C117.434 44.6564 116.997 44.7808 116.636 45.0294C116.279 45.2781 116.005 45.6149 115.815 46.0399C115.63 46.4648 115.535 46.9373 115.53 47.4572C115.535 48.0042 115.612 48.5196 115.761 49.0034C115.915 49.4826 116.163 49.8714 116.507 50.1698C116.855 50.4682 117.325 50.6174 117.917 50.6174Z" fill="#CECED4"/>
</g>
<path d="M141.657 76.2008C141.083 76.8144 140.276 77.1515 139.427 77.1492L97.1311 77.0961C96.2403 77.0724 95.414 76.7096 94.8642 76.1141L116.429 63.3405C117.194 62.8759 118.191 62.8999 118.996 63.3051L141.679 76.1584L141.657 76.2008Z" fill="#CECED4"/>
</g>
<defs>
<filter id="filter0_d_4056_8532" x="73.3447" y="13.7048" width="89.4756" height="89.4753" filterUnits="userSpaceOnUse" color-interpolation-filters="sRGB">
<feFlood flood-opacity="0" result="BackgroundImageFix"/>
<feColorMatrix in="SourceAlpha" type="matrix" values="0 0 0 0 0 0 0 0 0 0 0 0 0 0 0 0 0 0 127 0" result="hardAlpha"/>
<feOffset dy="4"/>
<feGaussianBlur stdDeviation="4"/>
<feComposite in2="hardAlpha" operator="out"/>
<feColorMatrix type="matrix" values="0 0 0 0 0.789167 0 0 0 0 0.810833 0 0 0 0 0.80914 0 0 0 0.6 0"/>
<feBlend mode="normal" in2="BackgroundImageFix" result="effect1_dropShadow_4056_8532"/>
<feBlend mode="normal" in="SourceGraphic" in2="effect1_dropShadow_4056_8532" result="shape"/>
</filter>
<clipPath id="clip0_4056_8532">
<rect x="14.9512" y="3.54102" width="138.098" height="100.918" rx="5" fill="white"/>
</clipPath>
</defs>
</svg>
