<svg width="168" height="108" viewBox="0 0 168 108" fill="none" xmlns="http://www.w3.org/2000/svg">
<g clip-path="url(#clip0_2897_11555)">
<rect width="166.426" height="108" transform="translate(0.787109)" fill="white"/>
<g clip-path="url(#clip1_2897_11555)">
<rect x="15.4512" y="4.04102" width="137.098" height="99.918" rx="5.0161" fill="#F7F7F8" stroke="#ECECEE"/>
<rect opacity="0.2" x="24.6875" y="27.7542" width="92.0656" height="24.4262" rx="4" fill="#C0C0C8"/>
<rect opacity="0.3" x="24.6875" y="90.0984" width="66.6814" height="4.42623" rx="2.21312" fill="#C9C9CF"/>
<rect opacity="0.3" x="102.045" y="90.0984" width="26.5787" height="4.42623" rx="2.21312" fill="#C9C9CF"/>
<rect x="14.9512" y="3.54102" width="138.098" height="16.8197" fill="#D45F4B"/>
<ellipse cx="25.5037" cy="12.411" rx="2.41877" ry="2.4188" fill="white"/>
<ellipse cx="35.1776" cy="12.411" rx="2.41877" ry="2.4188" fill="white"/>
<ellipse cx="44.8524" cy="12.411" rx="2.41877" ry="2.4188" fill="white"/>
<rect opacity="0.3" x="24.6875" y="75" width="26.5787" height="4.42623" rx="2.21312" fill="#C9C9CF"/>
<rect opacity="0.3" x="64.79" y="75" width="46.6301" height="4.42623" rx="2.21312" fill="#C9C9CF"/>
</g>
<g filter="url(#filter0_d_2897_11555)">
<rect x="48.6318" y="40.2998" width="112.384" height="36.2529" rx="5.00546" fill="white"/>
<path d="M60.98 62.4475L58.9434 55.5265H60.3357L61.6919 60.6091H61.7595L63.1203 55.5265H64.5126L65.8644 60.5866H65.932L67.2792 55.5265H68.6715L66.6394 62.4475H65.2651L63.8593 57.4505H63.7556L62.3498 62.4475H60.98Z" fill="#1E457F"/>
<path d="M71.4505 62.4475L69.4139 55.5265H70.8062L72.1624 60.6091H72.23L73.5908 55.5265H74.9831L76.3349 60.5866H76.4025L77.7497 55.5265H79.142L77.1099 62.4475H75.7356L74.3298 57.4505H74.2261L72.8203 62.4475H71.4505Z" fill="#1E457F"/>
<path d="M81.921 62.4475L79.8844 55.5265H81.2767L82.633 60.6091H82.7005L84.0613 55.5265H85.4536L86.8054 60.5866H86.873L88.2202 55.5265H89.6125L87.5804 62.4475H86.2061L84.8003 57.4505H84.6966L83.2908 62.4475H81.921Z" fill="#1E457F"/>
<path d="M90.837 62.5331C90.5907 62.5331 90.3789 62.446 90.2017 62.2718C90.0244 62.0945 89.9358 61.8813 89.9358 61.6319C89.9358 61.3856 90.0244 61.1753 90.2017 61.0011C90.3789 60.8239 90.5907 60.7353 90.837 60.7353C91.0833 60.7353 91.2951 60.8239 91.4723 61.0011C91.6496 61.1753 91.7382 61.3856 91.7382 61.6319C91.7382 61.7972 91.6961 61.9488 91.612 62.087C91.5309 62.2222 91.4228 62.3303 91.2876 62.4115C91.1524 62.4926 91.0022 62.5331 90.837 62.5331Z" fill="#1E457F"/>
<path d="M98.729 57.2162L97.5079 57.4325C97.4569 57.2763 97.3758 57.1276 97.2646 56.9864C97.1565 56.8452 97.0093 56.7296 96.8231 56.6394C96.6368 56.5493 96.404 56.5043 96.1246 56.5043C95.7431 56.5043 95.4247 56.5899 95.1694 56.7611C94.9141 56.9293 94.7864 57.1471 94.7864 57.4144C94.7864 57.6457 94.872 57.832 95.0432 57.9732C95.2145 58.1144 95.4908 58.23 95.8723 58.3201L96.9717 58.5725C97.6086 58.7196 98.0832 58.9464 98.3956 59.2528C98.708 59.5592 98.8642 59.9573 98.8642 60.4469C98.8642 60.8614 98.7441 61.2309 98.5037 61.5553C98.2664 61.8768 97.9345 62.1291 97.5079 62.3123C97.0844 62.4956 96.5933 62.5872 96.0345 62.5872C95.2595 62.5872 94.6272 62.422 94.1376 62.0915C93.6479 61.7581 93.3475 61.285 93.2364 60.6722L94.5386 60.4739C94.6197 60.8134 94.7864 61.0702 95.0387 61.2444C95.2911 61.4157 95.62 61.5013 96.0255 61.5013C96.4671 61.5013 96.82 61.4096 97.0844 61.2264C97.3487 61.0402 97.4809 60.8134 97.4809 60.546C97.4809 60.3297 97.3998 60.148 97.2376 60.0008C97.0784 59.8536 96.8336 59.7425 96.5031 59.6674L95.3316 59.4105C94.6858 59.2634 94.2081 59.029 93.8987 58.7076C93.5923 58.3862 93.4391 57.9792 93.4391 57.4865C93.4391 57.078 93.5533 56.7205 93.7816 56.4141C94.0099 56.1077 94.3253 55.8689 94.7278 55.6977C95.1303 55.5235 95.5914 55.4364 96.1111 55.4364C96.8591 55.4364 97.4479 55.5986 97.8774 55.923C98.307 56.2444 98.5909 56.6755 98.729 57.2162Z" fill="#1E457F"/>
<path d="M104.73 59.5773V55.5265H106.081V62.4475H104.757V61.2489H104.685C104.525 61.6184 104.27 61.9263 103.919 62.1726C103.57 62.416 103.136 62.5376 102.616 62.5376C102.172 62.5376 101.778 62.44 101.436 62.2447C101.096 62.0465 100.829 61.7536 100.634 61.3661C100.442 60.9786 100.346 60.4995 100.346 59.9287V55.5265H101.693V59.7665C101.693 60.2381 101.823 60.6136 102.085 60.893C102.346 61.1723 102.686 61.312 103.103 61.312C103.355 61.312 103.606 61.2489 103.856 61.1228C104.108 60.9966 104.317 60.8059 104.482 60.5505C104.65 60.2952 104.733 59.9708 104.73 59.5773Z" fill="#1E457F"/>
<path d="M107.892 62.4475V55.5265H109.194V56.6259H109.266C109.392 56.2534 109.614 55.9606 109.933 55.7473C110.254 55.531 110.618 55.4229 111.023 55.4229C111.107 55.4229 111.207 55.4259 111.321 55.4319C111.438 55.4379 111.529 55.4454 111.596 55.4544V56.7431C111.541 56.7281 111.445 56.7115 111.307 56.6935C111.169 56.6725 111.031 56.662 110.893 56.662C110.574 56.662 110.29 56.7296 110.041 56.8647C109.795 56.9969 109.599 57.1816 109.455 57.419C109.311 57.6533 109.239 57.9206 109.239 58.221V62.4475H107.892Z" fill="#1E457F"/>
<path d="M118.893 55.5265L116.383 62.4475H114.941L112.427 55.5265H113.873L115.626 60.8524H115.698L117.446 55.5265H118.893Z" fill="#1E457F"/>
<path d="M122.906 62.5872C122.225 62.5872 121.637 62.4415 121.145 62.1501C120.655 61.8557 120.276 61.4427 120.009 60.911C119.745 60.3763 119.613 59.75 119.613 59.0321C119.613 58.3231 119.745 57.6983 120.009 57.1576C120.276 56.6169 120.649 56.1949 121.127 55.8915C121.607 55.5881 122.169 55.4364 122.812 55.4364C123.202 55.4364 123.581 55.501 123.947 55.6301C124.314 55.7593 124.643 55.9621 124.934 56.2384C125.225 56.5148 125.455 56.8737 125.623 57.3153C125.792 57.7539 125.876 58.2871 125.876 58.9149V59.3925H120.374V58.3832H124.556C124.556 58.0287 124.483 57.7148 124.339 57.4415C124.195 57.1651 123.992 56.9473 123.731 56.7881C123.473 56.6289 123.169 56.5493 122.821 56.5493C122.442 56.5493 122.112 56.6424 121.829 56.8287C121.55 57.0119 121.334 57.2522 121.181 57.5496C121.03 57.844 120.955 58.1639 120.955 58.5094V59.2979C120.955 59.7605 121.036 60.154 121.199 60.4784C121.364 60.8029 121.594 61.0507 121.888 61.2219C122.182 61.3901 122.526 61.4742 122.92 61.4742C123.175 61.4742 123.408 61.4382 123.618 61.3661C123.829 61.291 124.01 61.1798 124.164 61.0327C124.317 60.8855 124.434 60.7037 124.515 60.4874L125.79 60.7172C125.688 61.0927 125.505 61.4217 125.24 61.704C124.979 61.9834 124.65 62.2012 124.254 62.3574C123.86 62.5106 123.411 62.5872 122.906 62.5872Z" fill="#1E457F"/>
<path d="M128.024 65.0429C127.823 65.0429 127.639 65.0264 127.474 64.9933C127.309 64.9633 127.186 64.9302 127.105 64.8942L127.429 63.7902C127.675 63.8563 127.895 63.8849 128.087 63.8759C128.279 63.8668 128.449 63.7948 128.596 63.6596C128.746 63.5244 128.879 63.3036 128.993 62.9972L129.159 62.5376L126.627 55.5265H128.069L129.822 60.8975H129.894L131.647 55.5265H133.093L130.241 63.3712C130.109 63.7317 129.94 64.0366 129.736 64.2859C129.532 64.5382 129.289 64.7275 129.006 64.8536C128.724 64.9798 128.396 65.0429 128.024 65.0429Z" fill="#1E457F"/>
<path d="M134.813 62.5331C134.567 62.5331 134.355 62.446 134.178 62.2718C134.001 62.0945 133.912 61.8813 133.912 61.6319C133.912 61.3856 134.001 61.1753 134.178 61.0011C134.355 60.8239 134.567 60.7353 134.813 60.7353C135.059 60.7353 135.271 60.8239 135.448 61.0011C135.626 61.1753 135.714 61.3856 135.714 61.6319C135.714 61.7972 135.672 61.9488 135.588 62.087C135.507 62.2222 135.399 62.3303 135.264 62.4115C135.129 62.4926 134.978 62.5331 134.813 62.5331Z" fill="#1E457F"/>
<path d="M138.407 62.5331C138.16 62.5331 137.948 62.446 137.771 62.2718C137.594 62.0945 137.505 61.8813 137.505 61.6319C137.505 61.3856 137.594 61.1753 137.771 61.0011C137.948 60.8239 138.16 60.7353 138.407 60.7353C138.653 60.7353 138.865 60.8239 139.042 61.0011C139.219 61.1753 139.308 61.3856 139.308 61.6319C139.308 61.7972 139.266 61.9488 139.182 62.087C139.1 62.2222 138.992 62.3303 138.857 62.4115C138.722 62.4926 138.572 62.5331 138.407 62.5331Z" fill="#1E457F"/>
<path d="M142 62.5331C141.754 62.5331 141.542 62.446 141.365 62.2718C141.187 62.0945 141.099 61.8813 141.099 61.6319C141.099 61.3856 141.187 61.1753 141.365 61.0011C141.542 60.8239 141.754 60.7353 142 60.7353C142.246 60.7353 142.458 60.8239 142.635 61.0011C142.813 61.1753 142.901 61.3856 142.901 61.6319C142.901 61.7972 142.859 61.9488 142.775 62.087C142.694 62.2222 142.586 62.3303 142.451 62.4115C142.315 62.4926 142.165 62.5331 142 62.5331Z" fill="#1E457F"/>
<rect x="6.9834" y="40.3652" width="36.1884" height="36.1875" rx="4.7168" fill="white"/>
<rect x="12.5508" y="45.9326" width="25.0536" height="25.0527" rx="1.57227" fill="white"/>
<path d="M24.5213 52.92L26.459 50.9823C27.2795 50.2346 28.3564 49.8317 29.4662 49.8574C30.576 49.883 31.6332 50.3353 32.4181 51.1202C33.203 51.9052 33.6554 52.9623 33.681 54.072C33.7067 55.1818 33.3038 56.2587 32.5561 57.0791L29.7865 59.8388C29.3873 60.2395 28.913 60.5574 28.3907 60.7743C27.8684 60.9912 27.3084 61.1028 26.7428 61.1028C26.1773 61.1028 25.6173 60.9912 25.095 60.7743C24.5727 60.5574 24.0984 60.2395 23.6992 59.8388" stroke="#2F9064" stroke-width="2.32684" stroke-linecap="round" stroke-linejoin="round"/>
<path d="M25.6316 63.9981L23.6939 65.9357C22.8735 66.6835 21.7965 67.0863 20.6867 67.0607C19.5769 67.035 18.5197 66.5827 17.7348 65.7978C16.9499 65.0129 16.4976 63.9557 16.4719 62.846C16.4462 61.7362 16.8491 60.6593 17.5968 59.8389L20.3664 57.0792C20.7656 56.6785 21.2399 56.3607 21.7622 56.1438C22.2845 55.9268 22.8445 55.8152 23.4101 55.8152C23.9756 55.8152 24.5356 55.9268 25.0579 56.1438C25.5802 56.3607 26.0545 56.6785 26.4537 57.0792" stroke="#2F9064" stroke-width="2.32684" stroke-linecap="round" stroke-linejoin="round"/>
</g>
</g>
<defs>
<filter id="filter0_d_2897_11555" x="-1.0166" y="36.2998" width="170.032" height="52.2529" filterUnits="userSpaceOnUse" color-interpolation-filters="sRGB">
<feFlood flood-opacity="0" result="BackgroundImageFix"/>
<feColorMatrix in="SourceAlpha" type="matrix" values="0 0 0 0 0 0 0 0 0 0 0 0 0 0 0 0 0 0 127 0" result="hardAlpha"/>
<feOffset dy="4"/>
<feGaussianBlur stdDeviation="4"/>
<feComposite in2="hardAlpha" operator="out"/>
<feColorMatrix type="matrix" values="0 0 0 0 0.789167 0 0 0 0 0.810833 0 0 0 0 0.80914 0 0 0 0.6 0"/>
<feBlend mode="normal" in2="BackgroundImageFix" result="effect1_dropShadow_2897_11555"/>
<feBlend mode="normal" in="SourceGraphic" in2="effect1_dropShadow_2897_11555" result="shape"/>
</filter>
<clipPath id="clip0_2897_11555">
<rect width="166.426" height="108" fill="white" transform="translate(0.787109)"/>
</clipPath>
<clipPath id="clip1_2897_11555">
<rect x="14.9512" y="3.54102" width="138.098" height="100.918" rx="5" fill="white"/>
</clipPath>
</defs>
</svg>
