<svg width="168" height="108" viewBox="0 0 168 108" fill="none" xmlns="http://www.w3.org/2000/svg">
<rect width="166.426" height="108" transform="translate(0.787109)" fill="white"/>
<g clip-path="url(#clip0_4056_8403)">
<rect x="15.4512" y="4.04102" width="137.098" height="99.918" rx="5.0161" fill="#F7F7F8" stroke="#ECECEE"/>
<rect x="14.9512" y="3.54102" width="138.098" height="16.8197" fill="#CECED4"/>
<ellipse cx="25.5037" cy="12.411" rx="2.41877" ry="2.4188" fill="#9D9DA9"/>
<ellipse cx="35.1776" cy="12.411" rx="2.41877" ry="2.4188" fill="#DCDCE1"/>
<ellipse cx="44.8524" cy="12.411" rx="2.41877" ry="2.4188" fill="#AFAFBB"/>
<rect x="137.115" y="88.5247" width="10.6229" height="10.6229" rx="2" fill="#CECED4"/>
<rect opacity="0.5" x="24.6885" y="32.7542" width="92.0656" height="4.42623" rx="2.21311" fill="#C0C0C8"/>
<rect opacity="0.3" x="24.6885" y="84.0984" width="56.6557" height="4.42623" rx="2.21312" fill="#C9C9CF"/>
<rect opacity="0.4" x="24.6885" y="48.6885" width="30.0984" height="27.4426" rx="4" fill="#D1D1D7"/>
<rect opacity="0.5" x="61.8691" y="50.459" width="30.0984" height="4.42623" rx="2.21312" fill="#D1D1D7"/>
<rect opacity="0.5" x="61.8691" y="61.082" width="47.8033" height="4.42623" rx="2.21311" fill="#D1D1D7"/>
</g>
<g filter="url(#filter0_d_4056_8403)">
<path d="M52.1318 14.5083C52.1318 12.8514 53.475 11.5083 55.1318 11.5083H140.312C141.969 11.5083 143.312 12.8514 143.312 14.5083V75.9399C143.312 78.7014 141.074 80.9399 138.312 80.9399H131.943C131.666 80.9399 131.402 81.0546 131.213 81.2565L126.298 86.5071C125.897 86.9357 125.215 86.9281 124.823 86.4908L120.151 81.2729C119.961 81.061 119.69 80.9399 119.406 80.9399H57.1318C54.3704 80.9399 52.1318 78.7014 52.1318 75.9399V14.5083Z" fill="#F7F7F8"/>
<path d="M52.1318 14.5083C52.1318 12.8514 53.475 11.5083 55.1318 11.5083H140.312C141.969 11.5083 143.312 12.8514 143.312 14.5083V16.8198H52.1318V14.5083Z" fill="#DCDCE1"/>
<rect x="78.2471" y="28.3279" width="39.6017" height="6.09257" rx="3.04629" fill="#CECED4"/>
<rect opacity="0.4" x="63.0156" y="41.5286" width="70.0646" height="4.06172" rx="2.03086" fill="#C9C9CF"/>
<rect opacity="0.5" x="60.9844" y="54.729" width="16.2469" height="8.12343" rx="1.14706" fill="#D9D9D9"/>
<rect opacity="0.5" x="80.2773" y="54.729" width="16.2469" height="8.12343" rx="1.14706" fill="#D9D9D9"/>
<rect x="99.5703" y="54.729" width="16.2469" height="8.12343" rx="1.14706" fill="#AFAFBB"/>
<rect opacity="0.5" x="118.864" y="54.729" width="16.2469" height="8.12343" rx="1.14706" fill="#D9D9D9"/>
</g>
<defs>
<filter id="filter0_d_4056_8403" x="44.1318" y="7.5083" width="107.181" height="93.9016" filterUnits="userSpaceOnUse" color-interpolation-filters="sRGB">
<feFlood flood-opacity="0" result="BackgroundImageFix"/>
<feColorMatrix in="SourceAlpha" type="matrix" values="0 0 0 0 0 0 0 0 0 0 0 0 0 0 0 0 0 0 127 0" result="hardAlpha"/>
<feOffset dy="4"/>
<feGaussianBlur stdDeviation="4"/>
<feComposite in2="hardAlpha" operator="out"/>
<feColorMatrix type="matrix" values="0 0 0 0 0.789167 0 0 0 0 0.810833 0 0 0 0 0.80914 0 0 0 0.6 0"/>
<feBlend mode="normal" in2="BackgroundImageFix" result="effect1_dropShadow_4056_8403"/>
<feBlend mode="normal" in="SourceGraphic" in2="effect1_dropShadow_4056_8403" result="shape"/>
</filter>
<clipPath id="clip0_4056_8403">
<rect x="14.9512" y="3.54102" width="138.098" height="100.918" rx="5" fill="white"/>
</clipPath>
</defs>
</svg>
