<svg width="168" height="108" viewBox="0 0 168 108" fill="none" xmlns="http://www.w3.org/2000/svg">
<rect width="166.426" height="108" transform="translate(0.787109)" fill="white"/>
<g clip-path="url(#clip0_2897_47373)">
<rect x="11.9102" y="4.04102" width="137.098" height="99.918" rx="5.0161" fill="#F7F7F8" stroke="#ECECEE"/>
<rect x="23.9229" y="20.3279" width="41.8132" height="6.02496" rx="3.01248" fill="#E1AD59"/>
<rect opacity="0.56" x="23.9229" y="38.9312" width="53.5772" height="4.01664" rx="2.00832" fill="#D9D9D9"/>
<rect x="23.9229" y="51.7471" width="36.1497" height="4.01664" rx="2.00832" fill="#E8E8EB"/>
<rect x="23.9229" y="64.5632" width="33.8511" height="4.01664" rx="2.00832" fill="#DCDCE0"/>
<rect opacity="0.5" x="63.0234" y="64.5632" width="16.8074" height="4.01664" rx="2.00832" fill="#DCDCE0"/>
<rect opacity="0.4" x="24.8467" y="80" width="16.2469" height="6.19672" rx="1.14706" fill="#D45F4B"/>
<rect opacity="0.6" x="46.6406" y="80" width="16.2469" height="6.19672" rx="1.14706" fill="#DCDCE0"/>
<rect opacity="0.5" x="68.4355" y="80" width="16.2469" height="6.19672" rx="1.14706" fill="#BCBCC3"/>
</g>
<g filter="url(#filter0_d_2897_47373)">
<rect x="95.6279" y="22.1311" width="61.9672" height="61.9672" rx="5" fill="white" shape-rendering="crispEdges"/>
<g clip-path="url(#clip1_2897_47373)">
<path d="M102.709 31.125L102.709 29.2129L104.621 29.2129L104.621 31.125L102.709 31.125Z" fill="#2F9064"/>
<path d="M102.711 33.0376L102.711 31.1255L104.623 31.1255L104.623 33.0376L102.711 33.0376Z" fill="#2F9064"/>
<path d="M102.709 34.9492L102.709 33.0371L104.621 33.0371L104.621 34.9492L102.709 34.9492Z" fill="#2F9064"/>
<path d="M102.71 36.8616L102.71 34.9495L104.622 34.9495L104.622 36.8616L102.71 36.8616Z" fill="#2F9064"/>
<path d="M102.709 38.7734L102.709 36.8613L104.621 36.8613L104.621 38.7734L102.709 38.7734Z" fill="#2F9064"/>
<path d="M102.71 40.6858L102.71 38.7737L104.622 38.7737L104.622 40.6858L102.71 40.6858Z" fill="#2F9064"/>
<path d="M102.709 42.5976L102.709 40.6855L104.621 40.6855L104.621 42.5976L102.709 42.5976Z" fill="#2F9064"/>
<path d="M102.708 46.4216L102.708 44.5095L104.62 44.5095L104.62 46.4216L102.708 46.4216Z" fill="#2F9064"/>
<path d="M102.709 48.3342L102.709 46.4221L104.621 46.4221L104.621 48.3342L102.709 48.3342Z" fill="#2F9064"/>
<path d="M102.71 61.7192L102.71 59.8071L104.622 59.8071L104.622 61.7192L102.71 61.7192Z" fill="#2F9064"/>
<path d="M102.709 65.5434L102.709 63.6313L104.621 63.6313L104.621 65.5434L102.709 65.5434Z" fill="#2F9064"/>
<path d="M102.711 67.4558L102.711 65.5437L104.623 65.5437L104.623 67.4558L102.711 67.4558Z" fill="#2F9064"/>
<path d="M102.709 69.3677L102.709 67.4556L104.621 67.4556L104.621 69.3677L102.709 69.3677Z" fill="#2F9064"/>
<path d="M102.71 71.28L102.71 69.3679L104.622 69.3679L104.622 71.28L102.71 71.28Z" fill="#2F9064"/>
<path d="M102.709 73.1916L102.709 71.2795L104.621 71.2795L104.621 73.1916L102.709 73.1916Z" fill="#2F9064"/>
<path d="M102.71 75.1042L102.71 73.1921L104.622 73.1921L104.622 75.1042L102.71 75.1042Z" fill="#2F9064"/>
<path d="M102.708 77.0159L102.708 75.1038L104.62 75.1038L104.62 77.0159L102.708 77.0159Z" fill="#2F9064"/>
<path d="M104.622 31.125L104.622 29.2129L106.534 29.2129L106.534 31.125L104.622 31.125Z" fill="#2F9064"/>
<path d="M104.621 42.5974L104.621 40.6853L106.533 40.6853L106.533 42.5974L104.621 42.5974Z" fill="#2F9064"/>
<path d="M104.621 55.9824L104.621 54.0703L106.533 54.0703L106.533 55.9824L104.621 55.9824Z" fill="#2F9064"/>
<path d="M104.622 61.7192L104.622 59.8071L106.534 59.8071L106.534 61.7192L104.622 61.7192Z" fill="#2F9064"/>
<path d="M104.622 65.5434L104.622 63.6313L106.534 63.6313L106.534 65.5434L104.622 65.5434Z" fill="#2F9064"/>
<path d="M104.621 77.0159L104.621 75.1038L106.533 75.1038L106.533 77.0159L104.621 77.0159Z" fill="#2F9064"/>
<path d="M106.533 31.125L106.533 29.2129L108.445 29.2129L108.445 31.125L106.533 31.125Z" fill="#2F9064"/>
<path d="M106.533 34.9492L106.533 33.0371L108.445 33.0371L108.445 34.9492L106.533 34.9492Z" fill="#2F9064"/>
<path d="M106.534 36.8616L106.534 34.9495L108.446 34.9495L108.446 36.8616L106.534 36.8616Z" fill="#2F9064"/>
<path d="M106.533 38.7734L106.533 36.8613L108.445 36.8613L108.445 38.7734L106.533 38.7734Z" fill="#2F9064"/>
<path d="M106.532 42.5974L106.532 40.6853L108.444 40.6853L108.444 42.5974L106.532 42.5974Z" fill="#2F9064"/>
<path d="M106.532 46.4216L106.532 44.5095L108.444 44.5095L108.444 46.4216L106.532 46.4216Z" fill="#2F9064"/>
<path d="M106.533 52.1584L106.533 50.2463L108.445 50.2463L108.445 52.1584L106.533 52.1584Z" fill="#2F9064"/>
<path d="M106.534 54.0708L106.534 52.1587L108.446 52.1587L108.446 54.0708L106.534 54.0708Z" fill="#2F9064"/>
<path d="M106.533 55.9824L106.533 54.0703L108.445 54.0703L108.445 55.9824L106.533 55.9824Z" fill="#2F9064"/>
<path d="M106.532 59.8066L106.532 57.8945L108.444 57.8945L108.444 59.8066L106.532 59.8066Z" fill="#2F9064"/>
<path d="M106.533 65.5434L106.533 63.6313L108.445 63.6313L108.445 65.5434L106.533 65.5434Z" fill="#2F9064"/>
<path d="M106.533 69.3674L106.533 67.4553L108.445 67.4553L108.445 69.3674L106.533 69.3674Z" fill="#2F9064"/>
<path d="M106.534 71.28L106.534 69.3679L108.446 69.3679L108.446 71.28L106.534 71.28Z" fill="#2F9064"/>
<path d="M106.533 73.1916L106.533 71.2795L108.445 71.2795L108.445 73.1916L106.533 73.1916Z" fill="#2F9064"/>
<path d="M106.532 77.0159L106.532 75.1038L108.444 75.1038L108.444 77.0159L106.532 77.0159Z" fill="#2F9064"/>
<path d="M108.446 31.125L108.446 29.2129L110.358 29.2129L110.358 31.125L108.446 31.125Z" fill="#2F9064"/>
<path d="M108.446 34.9492L108.446 33.0371L110.358 33.0371L110.358 34.9492L108.446 34.9492Z" fill="#2F9064"/>
<path d="M108.447 36.8616L108.447 34.9495L110.359 34.9495L110.359 36.8616L108.447 36.8616Z" fill="#2F9064"/>
<path d="M108.446 38.7734L108.446 36.8613L110.358 36.8613L110.358 38.7734L108.446 38.7734Z" fill="#2F9064"/>
<path d="M108.445 42.5974L108.445 40.6853L110.357 40.6853L110.357 42.5974L108.445 42.5974Z" fill="#2F9064"/>
<path d="M108.445 46.4216L108.445 44.5095L110.357 44.5095L110.357 46.4216L108.445 46.4216Z" fill="#2F9064"/>
<path d="M108.446 48.3342L108.446 46.4221L110.358 46.4221L110.358 48.3342L108.446 48.3342Z" fill="#2F9064"/>
<path d="M108.446 52.1584L108.446 50.2463L110.358 50.2463L110.358 52.1584L108.446 52.1584Z" fill="#2F9064"/>
<path d="M108.446 55.9824L108.446 54.0703L110.358 54.0703L110.358 55.9824L108.446 55.9824Z" fill="#2F9064"/>
<path d="M108.447 57.895L108.447 55.9829L110.359 55.9829L110.359 57.895L108.447 57.895Z" fill="#2F9064"/>
<path d="M108.446 65.5434L108.446 63.6313L110.358 63.6313L110.358 65.5434L108.446 65.5434Z" fill="#2F9064"/>
<path d="M108.446 69.3674L108.446 67.4553L110.358 67.4553L110.358 69.3674L108.446 69.3674Z" fill="#2F9064"/>
<path d="M108.447 71.28L108.447 69.3679L110.359 69.3679L110.359 71.28L108.447 71.28Z" fill="#2F9064"/>
<path d="M108.446 73.1916L108.446 71.2795L110.358 71.2795L110.358 73.1916L108.446 73.1916Z" fill="#2F9064"/>
<path d="M108.445 77.0159L108.445 75.1038L110.357 75.1038L110.357 77.0159L108.445 77.0159Z" fill="#2F9064"/>
<path d="M110.359 31.1255L110.359 29.2134L112.271 29.2134L112.271 31.1255L110.359 31.1255Z" fill="#2F9064"/>
<path d="M110.359 34.9497L110.359 33.0376L112.271 33.0376L112.271 34.9497L110.359 34.9497Z" fill="#2F9064"/>
<path d="M110.36 36.862L110.36 34.95L112.272 34.95L112.272 36.862L110.36 36.862Z" fill="#2F9064"/>
<path d="M110.359 38.7739L110.359 36.8618L112.271 36.8618L112.271 38.7739L110.359 38.7739Z" fill="#2F9064"/>
<path d="M110.358 42.5981L110.358 40.686L112.27 40.686L112.27 42.5981L110.358 42.5981Z" fill="#2F9064"/>
<path d="M110.358 46.4221L110.358 44.51L112.27 44.51L112.27 46.4221L110.358 46.4221Z" fill="#2F9064"/>
<path d="M110.359 48.3347L110.359 46.4226L112.271 46.4226L112.271 48.3347L110.359 48.3347Z" fill="#2F9064"/>
<path d="M110.36 50.2471L110.36 48.335L112.272 48.335L112.272 50.2471L110.36 50.2471Z" fill="#2F9064"/>
<path d="M110.359 52.1589L110.359 50.2468L112.271 50.2468L112.271 52.1589L110.359 52.1589Z" fill="#2F9064"/>
<path d="M110.358 59.8071L110.358 57.895L112.27 57.895L112.27 59.8071L110.358 59.8071Z" fill="#2F9064"/>
<path d="M110.36 61.7197L110.36 59.8076L112.272 59.8076L112.272 61.7197L110.36 61.7197Z" fill="#2F9064"/>
<path d="M110.359 65.5439L110.359 63.6318L112.271 63.6318L112.271 65.5439L110.359 65.5439Z" fill="#2F9064"/>
<path d="M110.359 69.3681L110.359 67.4561L112.271 67.4561L112.271 69.3681L110.359 69.3681Z" fill="#2F9064"/>
<path d="M110.36 71.2805L110.36 69.3684L112.272 69.3684L112.272 71.2805L110.36 71.2805Z" fill="#2F9064"/>
<path d="M110.359 73.1921L110.359 71.28L112.271 71.28L112.271 73.1921L110.359 73.1921Z" fill="#2F9064"/>
<path d="M110.358 77.0163L110.358 75.1042L112.27 75.1042L112.27 77.0163L110.358 77.0163Z" fill="#2F9064"/>
<path d="M112.271 31.1255L112.271 29.2134L114.184 29.2134L114.184 31.1255L112.271 31.1255Z" fill="#2F9064"/>
<path d="M112.271 42.5981L112.271 40.686L114.183 40.686L114.183 42.5981L112.271 42.5981Z" fill="#2F9064"/>
<path d="M112.271 48.3347L112.271 46.4226L114.184 46.4226L114.184 48.3347L112.271 48.3347Z" fill="#2F9064"/>
<path d="M112.272 54.0713L112.272 52.1592L114.185 52.1592L114.185 54.0713L112.272 54.0713Z" fill="#2F9064"/>
<path d="M112.271 55.9831L112.271 54.071L114.183 54.071L114.183 55.9831L112.271 55.9831Z" fill="#2F9064"/>
<path d="M112.272 57.8955L112.272 55.9834L114.185 55.9834L114.185 57.8955L112.272 57.8955Z" fill="#2F9064"/>
<path d="M112.271 65.5439L112.271 63.6318L114.184 63.6318L114.184 65.5439L112.271 65.5439Z" fill="#2F9064"/>
<path d="M112.271 77.0163L112.271 75.1042L114.183 75.1042L114.183 77.0163L112.271 77.0163Z" fill="#2F9064"/>
<path d="M114.184 31.1257L114.184 29.2136L116.096 29.2136L116.096 31.1257L114.184 31.1257Z" fill="#2F9064"/>
<path d="M114.186 33.0383L114.186 31.1262L116.098 31.1262L116.098 33.0383L114.186 33.0383Z" fill="#2F9064"/>
<path d="M114.184 34.9499L114.184 33.0378L116.096 33.0378L116.096 34.9499L114.184 34.9499Z" fill="#2F9064"/>
<path d="M114.185 36.8623L114.185 34.9502L116.097 34.9502L116.097 36.8623L114.185 36.8623Z" fill="#2F9064"/>
<path d="M114.184 38.7742L114.184 36.8621L116.096 36.8621L116.096 38.7742L114.184 38.7742Z" fill="#2F9064"/>
<path d="M114.185 40.6865L114.185 38.7744L116.097 38.7744L116.097 40.6865L114.185 40.6865Z" fill="#2F9064"/>
<path d="M114.183 42.5984L114.183 40.6863L116.095 40.6863L116.095 42.5984L114.183 42.5984Z" fill="#2F9064"/>
<path d="M114.183 46.4223L114.183 44.5103L116.095 44.5103L116.095 46.4223L114.183 46.4223Z" fill="#2F9064"/>
<path d="M114.185 50.2475L114.185 48.3354L116.097 48.3354L116.097 50.2475L114.185 50.2475Z" fill="#2F9064"/>
<path d="M114.185 54.0715L114.185 52.1594L116.097 52.1594L116.097 54.0715L114.185 54.0715Z" fill="#2F9064"/>
<path d="M114.185 57.8957L114.185 55.9836L116.097 55.9836L116.097 57.8957L114.185 57.8957Z" fill="#2F9064"/>
<path d="M114.185 61.72L114.185 59.8079L116.097 59.8079L116.097 61.72L114.185 61.72Z" fill="#2F9064"/>
<path d="M114.184 65.5442L114.184 63.6321L116.096 63.6321L116.096 65.5442L114.184 65.5442Z" fill="#2F9064"/>
<path d="M114.185 67.4565L114.185 65.5444L116.097 65.5444L116.097 67.4565L114.185 67.4565Z" fill="#2F9064"/>
<path d="M114.184 69.3684L114.184 67.4563L116.096 67.4563L116.096 69.3684L114.184 69.3684Z" fill="#2F9064"/>
<path d="M114.185 71.2807L114.185 69.3687L116.097 69.3687L116.097 71.2807L114.185 71.2807Z" fill="#2F9064"/>
<path d="M114.184 73.1924L114.184 71.2803L116.096 71.2803L116.096 73.1924L114.184 73.1924Z" fill="#2F9064"/>
<path d="M114.185 75.105L114.185 73.1929L116.097 73.1929L116.097 75.105L114.185 75.105Z" fill="#2F9064"/>
<path d="M114.183 77.0166L114.183 75.1045L116.095 75.1045L116.095 77.0166L114.183 77.0166Z" fill="#2F9064"/>
<path d="M116.097 48.3349L116.097 46.4229L118.009 46.4229L118.009 48.3349L116.097 48.3349Z" fill="#2F9064"/>
<path d="M116.097 52.1592L116.097 50.2471L118.009 50.2471L118.009 52.1592L116.097 52.1592Z" fill="#2F9064"/>
<path d="M116.098 57.8957L116.098 55.9836L118.01 55.9836L118.01 57.8957L116.098 57.8957Z" fill="#2F9064"/>
<path d="M116.096 59.8074L116.096 57.8953L118.008 57.8953L118.008 59.8074L116.096 59.8074Z" fill="#2F9064"/>
<path d="M118.009 31.1257L118.009 29.2136L119.921 29.2136L119.921 31.1257L118.009 31.1257Z" fill="#2F9064"/>
<path d="M118.011 33.0383L118.011 31.1262L119.923 31.1262L119.923 33.0383L118.011 33.0383Z" fill="#2F9064"/>
<path d="M118.009 34.9499L118.009 33.0378L119.921 33.0378L119.921 34.9499L118.009 34.9499Z" fill="#2F9064"/>
<path d="M118.01 36.8625L118.01 34.9504L119.922 34.9504L119.922 36.8625L118.01 36.8625Z" fill="#2F9064"/>
<path d="M118.008 42.5984L118.008 40.6863L119.92 40.6863L119.92 42.5984L118.008 42.5984Z" fill="#2F9064"/>
<path d="M118.008 46.4223L118.008 44.5103L119.92 44.5103L119.92 46.4223L118.008 46.4223Z" fill="#2F9064"/>
<path d="M118.008 63.6316L118.008 61.7195L119.92 61.7195L119.92 63.6316L118.008 63.6316Z" fill="#2F9064"/>
<path d="M118.009 69.3684L118.009 67.4563L119.921 67.4563L119.921 69.3684L118.009 69.3684Z" fill="#2F9064"/>
<path d="M118.01 71.2807L118.01 69.3687L119.922 69.3687L119.922 71.2807L118.01 71.2807Z" fill="#2F9064"/>
<path d="M118.009 73.1924L118.009 71.2803L119.921 71.2803L119.921 73.1924L118.009 73.1924Z" fill="#2F9064"/>
<path d="M118.008 77.0166L118.008 75.1045L119.92 75.1045L119.92 77.0166L118.008 77.0166Z" fill="#2F9064"/>
<path d="M119.919 40.686L119.919 38.7739L121.831 38.7739L121.831 40.686L119.919 40.686Z" fill="#2F9064"/>
<path d="M119.919 44.5102L119.919 42.5981L121.831 42.5981L121.831 44.5102L119.919 44.5102Z" fill="#2F9064"/>
<path d="M119.92 46.4226L119.92 44.5105L121.832 44.5105L121.832 46.4226L119.92 46.4226Z" fill="#2F9064"/>
<path d="M119.919 48.3345L119.919 46.4224L121.831 46.4224L121.831 48.3345L119.919 48.3345Z" fill="#2F9064"/>
<path d="M119.918 55.9827L119.918 54.0706L121.83 54.0706L121.83 55.9827L119.918 55.9827Z" fill="#2F9064"/>
<path d="M119.919 61.7195L119.919 59.8074L121.831 59.8074L121.831 61.7195L119.919 61.7195Z" fill="#2F9064"/>
<path d="M119.92 67.456L119.92 65.5439L121.832 65.5439L121.832 67.456L119.92 67.456Z" fill="#2F9064"/>
<path d="M119.919 75.1045L119.919 73.1924L121.831 73.1924L121.831 75.1045L119.919 75.1045Z" fill="#2F9064"/>
<path d="M121.83 31.125L121.83 29.2129L123.742 29.2129L123.742 31.125L121.83 31.125Z" fill="#2F9064"/>
<path d="M121.832 33.0373L121.832 31.1252L123.744 31.1252L123.744 33.0373L121.832 33.0373Z" fill="#2F9064"/>
<path d="M121.831 36.8616L121.831 34.9495L123.743 34.9495L123.743 36.8616L121.831 36.8616Z" fill="#2F9064"/>
<path d="M121.829 42.5974L121.829 40.6853L123.741 40.6853L123.741 42.5974L121.829 42.5974Z" fill="#2F9064"/>
<path d="M121.829 46.4216L121.829 44.5095L123.741 44.5095L123.741 46.4216L121.829 46.4216Z" fill="#2F9064"/>
<path d="M121.83 55.9824L121.83 54.0703L123.742 54.0703L123.742 55.9824L121.83 55.9824Z" fill="#2F9064"/>
<path d="M121.831 61.7192L121.831 59.8071L123.743 59.8071L123.743 61.7192L121.831 61.7192Z" fill="#2F9064"/>
<path d="M121.83 65.5434L121.83 63.6313L123.742 63.6313L123.742 65.5434L121.83 65.5434Z" fill="#2F9064"/>
<path d="M121.831 67.4558L121.831 65.5437L123.743 65.5437L123.743 67.4558L121.831 67.4558Z" fill="#2F9064"/>
<path d="M121.83 69.3674L121.83 67.4553L123.742 67.4553L123.742 69.3674L121.83 69.3674Z" fill="#2F9064"/>
<path d="M123.744 33.0376L123.744 31.1255L125.656 31.1255L125.656 33.0376L123.744 33.0376Z" fill="#2F9064"/>
<path d="M123.745 34.9502L123.745 33.0381L125.657 33.0381L125.657 34.9502L123.745 34.9502Z" fill="#2F9064"/>
<path d="M123.745 38.7742L123.745 36.8621L125.657 36.8621L125.657 38.7742L123.745 38.7742Z" fill="#2F9064"/>
<path d="M123.743 40.686L123.743 38.7739L125.655 38.7739L125.655 40.686L123.743 40.686Z" fill="#2F9064"/>
<path d="M123.743 44.51L123.743 42.5979L125.655 42.5979L125.655 44.51L123.743 44.51Z" fill="#2F9064"/>
<path d="M123.744 46.4226L123.744 44.5105L125.656 44.5105L125.656 46.4226L123.744 46.4226Z" fill="#2F9064"/>
<path d="M123.745 52.1592L123.745 50.2471L125.657 50.2471L125.657 52.1592L123.745 52.1592Z" fill="#2F9064"/>
<path d="M123.744 54.071L123.744 52.1589L125.656 52.1589L125.656 54.071L123.744 54.071Z" fill="#2F9064"/>
<path d="M123.745 55.9834L123.745 54.0713L125.657 54.0713L125.657 55.9834L123.745 55.9834Z" fill="#2F9064"/>
<path d="M123.744 63.6318L123.744 61.7197L125.656 61.7197L125.656 63.6318L123.744 63.6318Z" fill="#2F9064"/>
<path d="M123.744 67.456L123.744 65.5439L125.656 65.5439L125.656 67.456L123.744 67.456Z" fill="#2F9064"/>
<path d="M123.744 71.2803L123.744 69.3682L125.656 69.3682L125.656 71.2803L123.744 71.2803Z" fill="#2F9064"/>
<path d="M123.745 73.1926L123.745 71.2805L125.657 71.2805L125.657 73.1926L123.745 73.1926Z" fill="#2F9064"/>
<path d="M125.654 31.125L125.654 29.2129L127.566 29.2129L127.566 31.125L125.654 31.125Z" fill="#2F9064"/>
<path d="M125.656 33.0373L125.656 31.1252L127.568 31.1252L127.568 33.0373L125.656 33.0373Z" fill="#2F9064"/>
<path d="M125.654 34.9492L125.654 33.0371L127.566 33.0371L127.566 34.9492L125.654 34.9492Z" fill="#2F9064"/>
<path d="M125.655 36.8616L125.655 34.9495L127.567 34.9495L127.567 36.8616L125.655 36.8616Z" fill="#2F9064"/>
<path d="M125.655 40.6858L125.655 38.7737L127.567 38.7737L127.567 40.6858L125.655 40.6858Z" fill="#2F9064"/>
<path d="M125.653 42.5974L125.653 40.6853L127.565 40.6853L127.565 42.5974L125.653 42.5974Z" fill="#2F9064"/>
<path d="M125.655 44.51L125.655 42.5979L127.567 42.5979L127.567 44.51L125.655 44.51Z" fill="#2F9064"/>
<path d="M125.653 46.4216L125.653 44.5095L127.565 44.5095L127.565 46.4216L125.653 46.4216Z" fill="#2F9064"/>
<path d="M125.654 48.3342L125.654 46.4221L127.566 46.4221L127.566 48.3342L125.654 48.3342Z" fill="#2F9064"/>
<path d="M125.654 52.1584L125.654 50.2463L127.566 50.2463L127.566 52.1584L125.654 52.1584Z" fill="#2F9064"/>
<path d="M125.654 55.9824L125.654 54.0703L127.566 54.0703L127.566 55.9824L125.654 55.9824Z" fill="#2F9064"/>
<path d="M125.655 57.895L125.655 55.9829L127.567 55.9829L127.567 57.895L125.655 57.895Z" fill="#2F9064"/>
<path d="M125.654 65.5434L125.654 63.6313L127.566 63.6313L127.566 65.5434L125.654 65.5434Z" fill="#2F9064"/>
<path d="M125.655 67.4558L125.655 65.5437L127.567 65.5437L127.567 67.4558L125.655 67.4558Z" fill="#2F9064"/>
<path d="M125.654 69.3674L125.654 67.4553L127.566 67.4553L127.566 69.3674L125.654 69.3674Z" fill="#2F9064"/>
<path d="M125.654 73.1916L125.654 71.2795L127.566 71.2795L127.566 73.1916L125.654 73.1916Z" fill="#2F9064"/>
<path d="M125.655 75.1042L125.655 73.1921L127.567 73.1921L127.567 75.1042L125.655 75.1042Z" fill="#2F9064"/>
<path d="M125.653 77.0159L125.653 75.1038L127.565 75.1038L127.565 77.0159L125.653 77.0159Z" fill="#2F9064"/>
<path d="M127.568 33.0376L127.568 31.1255L129.48 31.1255L129.48 33.0376L127.568 33.0376Z" fill="#2F9064"/>
<path d="M127.57 34.9502L127.57 33.0381L129.482 33.0381L129.482 34.9502L127.57 34.9502Z" fill="#2F9064"/>
<path d="M127.569 46.4226L127.569 44.5105L129.481 44.5105L129.481 46.4226L127.569 46.4226Z" fill="#2F9064"/>
<path d="M127.567 48.3342L127.567 46.4221L129.479 46.4221L129.479 48.3342L127.567 48.3342Z" fill="#2F9064"/>
<path d="M127.568 50.2468L127.568 48.3347L129.48 48.3347L129.48 50.2468L127.568 50.2468Z" fill="#2F9064"/>
<path d="M127.57 52.1592L127.57 50.2471L129.482 50.2471L129.482 52.1592L127.57 52.1592Z" fill="#2F9064"/>
<path d="M127.568 57.8952L127.568 55.9832L129.48 55.9832L129.48 57.8952L127.568 57.8952Z" fill="#2F9064"/>
<path d="M127.569 59.8076L127.569 57.8955L129.481 57.8955L129.481 59.8076L127.569 59.8076Z" fill="#2F9064"/>
<path d="M127.569 63.6318L127.569 61.7197L129.481 61.7197L129.481 63.6318L127.569 63.6318Z" fill="#2F9064"/>
<path d="M127.567 65.5434L127.567 63.6313L129.479 63.6313L129.479 65.5434L127.567 65.5434Z" fill="#2F9064"/>
<path d="M127.568 67.456L127.568 65.5439L129.48 65.5439L129.48 67.456L127.568 67.456Z" fill="#2F9064"/>
<path d="M127.569 69.3684L127.569 67.4563L129.481 67.4563L129.481 69.3684L127.569 69.3684Z" fill="#2F9064"/>
<path d="M127.569 77.0168L127.569 75.1047L129.481 75.1047L129.481 77.0168L127.569 77.0168Z" fill="#2F9064"/>
<path d="M129.48 33.0376L129.48 31.1255L131.393 31.1255L131.393 33.0376L129.48 33.0376Z" fill="#2F9064"/>
<path d="M129.481 38.7742L129.481 36.8621L131.394 36.8621L131.394 38.7742L129.481 38.7742Z" fill="#2F9064"/>
<path d="M129.48 40.686L129.48 38.7739L131.393 38.7739L131.393 40.686L129.48 40.686Z" fill="#2F9064"/>
<path d="M129.481 42.5984L129.481 40.6863L131.394 40.6863L131.394 42.5984L129.481 42.5984Z" fill="#2F9064"/>
<path d="M129.48 54.071L129.48 52.1589L131.393 52.1589L131.393 54.071L129.48 54.071Z" fill="#2F9064"/>
<path d="M129.479 61.7192L129.479 59.8071L131.392 59.8071L131.392 61.7192L129.479 61.7192Z" fill="#2F9064"/>
<path d="M129.481 63.6318L129.481 61.7197L131.394 61.7197L131.394 63.6318L129.481 63.6318Z" fill="#2F9064"/>
<path d="M129.479 65.5434L129.479 63.6313L131.392 63.6313L131.392 65.5434L129.479 65.5434Z" fill="#2F9064"/>
<path d="M129.481 69.3684L129.481 67.4563L131.394 67.4563L131.394 69.3684L129.481 69.3684Z" fill="#2F9064"/>
<path d="M129.481 73.1926L129.481 71.2805L131.394 71.2805L131.394 73.1926L129.481 73.1926Z" fill="#2F9064"/>
<path d="M129.48 75.1042L129.48 73.1921L131.393 73.1921L131.393 75.1042L129.48 75.1042Z" fill="#2F9064"/>
<path d="M131.392 31.1252L131.392 29.2131L133.304 29.2131L133.304 31.1252L131.392 31.1252Z" fill="#2F9064"/>
<path d="M131.393 40.686L131.393 38.7739L133.305 38.7739L133.305 40.686L131.393 40.686Z" fill="#2F9064"/>
<path d="M131.393 44.5102L131.393 42.5981L133.305 42.5981L133.305 44.5102L131.393 44.5102Z" fill="#2F9064"/>
<path d="M131.391 46.4219L131.391 44.5098L133.303 44.5098L133.303 46.4219L131.391 46.4219Z" fill="#2F9064"/>
<path d="M131.393 50.2468L131.393 48.3347L133.305 48.3347L133.305 50.2468L131.393 50.2468Z" fill="#2F9064"/>
<path d="M131.393 54.071L131.393 52.1589L133.305 52.1589L133.305 54.071L131.393 54.071Z" fill="#2F9064"/>
<path d="M131.393 57.8953L131.393 55.9832L133.305 55.9832L133.305 57.8953L131.393 57.8953Z" fill="#2F9064"/>
<path d="M131.393 61.7195L131.393 59.8074L133.305 59.8074L133.305 61.7195L131.393 61.7195Z" fill="#2F9064"/>
<path d="M131.393 67.456L131.393 65.5439L133.305 65.5439L133.305 67.456L131.393 67.456Z" fill="#2F9064"/>
<path d="M131.392 69.3677L131.392 67.4556L133.304 67.4556L133.304 69.3677L131.392 69.3677Z" fill="#2F9064"/>
<path d="M131.391 77.0161L131.391 75.104L133.303 75.104L133.303 77.0161L131.391 77.0161Z" fill="#2F9064"/>
<path d="M133.305 36.862L133.305 34.95L135.217 34.95L135.217 36.862L133.305 36.862Z" fill="#2F9064"/>
<path d="M133.305 40.6863L133.305 38.7742L135.217 38.7742L135.217 40.6863L133.305 40.6863Z" fill="#2F9064"/>
<path d="M133.306 42.5986L133.306 40.6865L135.218 40.6865L135.218 42.5986L133.306 42.5986Z" fill="#2F9064"/>
<path d="M133.305 44.5102L133.305 42.5981L135.217 42.5981L135.217 44.5102L133.305 44.5102Z" fill="#2F9064"/>
<path d="M133.304 48.3345L133.304 46.4224L135.216 46.4224L135.216 48.3345L133.304 48.3345Z" fill="#2F9064"/>
<path d="M133.306 50.2471L133.306 48.335L135.218 48.335L135.218 50.2471L133.306 50.2471Z" fill="#2F9064"/>
<path d="M133.304 52.1587L133.304 50.2466L135.216 50.2466L135.216 52.1587L133.304 52.1587Z" fill="#2F9064"/>
<path d="M133.306 55.9836L133.306 54.0715L135.218 54.0715L135.218 55.9836L133.306 55.9836Z" fill="#2F9064"/>
<path d="M133.305 61.7195L133.305 59.8074L135.217 59.8074L135.217 61.7195L133.305 61.7195Z" fill="#2F9064"/>
<path d="M133.306 63.6318L133.306 61.7197L135.218 61.7197L135.218 63.6318L133.306 63.6318Z" fill="#2F9064"/>
<path d="M133.304 65.5437L133.304 63.6316L135.216 63.6316L135.216 65.5437L133.304 65.5437Z" fill="#2F9064"/>
<path d="M133.306 67.4563L133.306 65.5442L135.218 65.5442L135.218 67.4563L133.306 67.4563Z" fill="#2F9064"/>
<path d="M133.304 69.3677L133.304 67.4556L135.216 67.4556L135.216 69.3677L133.304 69.3677Z" fill="#2F9064"/>
<path d="M133.305 71.2803L133.305 69.3682L135.217 69.3682L135.217 71.2803L133.305 71.2803Z" fill="#2F9064"/>
<path d="M133.306 73.1926L133.306 71.2805L135.218 71.2805L135.218 73.1926L133.306 73.1926Z" fill="#2F9064"/>
<path d="M133.305 75.1047L133.305 73.1926L135.217 73.1926L135.217 75.1047L133.305 75.1047Z" fill="#2F9064"/>
<path d="M133.306 77.0171L133.306 75.105L135.218 75.105L135.218 77.0171L133.306 77.0171Z" fill="#2F9064"/>
<path d="M135.216 46.4223L135.216 44.5103L137.128 44.5103L137.128 46.4223L135.216 46.4223Z" fill="#2F9064"/>
<path d="M135.216 54.0705L135.216 52.1584L137.128 52.1584L137.128 54.0705L135.216 54.0705Z" fill="#2F9064"/>
<path d="M135.217 59.8074L135.217 57.8953L137.129 57.8953L137.129 59.8074L135.217 59.8074Z" fill="#2F9064"/>
<path d="M135.215 61.719L135.215 59.8069L137.127 59.8069L137.127 61.719L135.215 61.719Z" fill="#2F9064"/>
<path d="M135.217 69.3682L135.217 67.4561L137.129 67.4561L137.129 69.3682L135.217 69.3682Z" fill="#2F9064"/>
<path d="M135.217 73.1921L135.217 71.28L137.129 71.28L137.129 73.1921L135.217 73.1921Z" fill="#2F9064"/>
<path d="M135.216 77.0166L135.216 75.1045L137.128 75.1045L137.128 77.0166L135.216 77.0166Z" fill="#2F9064"/>
<path d="M137.128 31.125L137.128 29.2129L139.04 29.2129L139.04 31.125L137.128 31.125Z" fill="#2F9064"/>
<path d="M137.129 33.0373L137.129 31.1252L139.041 31.1252L139.041 33.0373L137.129 33.0373Z" fill="#2F9064"/>
<path d="M137.128 34.9492L137.128 33.0371L139.04 33.0371L139.04 34.9492L137.128 34.9492Z" fill="#2F9064"/>
<path d="M137.129 36.8616L137.129 34.9495L139.041 34.9495L139.041 36.8616L137.129 36.8616Z" fill="#2F9064"/>
<path d="M137.127 38.7734L137.127 36.8613L139.039 36.8613L139.039 38.7734L137.127 38.7734Z" fill="#2F9064"/>
<path d="M137.129 40.6858L137.129 38.7737L139.041 38.7737L139.041 40.6858L137.129 40.6858Z" fill="#2F9064"/>
<path d="M137.127 42.5974L137.127 40.6853L139.039 40.6853L139.039 42.5974L137.127 42.5974Z" fill="#2F9064"/>
<path d="M137.128 48.3342L137.128 46.4221L139.04 46.4221L139.04 48.3342L137.128 48.3342Z" fill="#2F9064"/>
<path d="M137.128 52.1584L137.128 50.2463L139.04 50.2463L139.04 52.1584L137.128 52.1584Z" fill="#2F9064"/>
<path d="M137.129 54.0708L137.129 52.1587L139.041 52.1587L139.041 54.0708L137.129 54.0708Z" fill="#2F9064"/>
<path d="M137.127 55.9824L137.127 54.0703L139.039 54.0703L139.039 55.9824L137.127 55.9824Z" fill="#2F9064"/>
<path d="M137.129 57.895L137.129 55.9829L139.041 55.9829L139.041 57.895L137.129 57.895Z" fill="#2F9064"/>
<path d="M137.128 61.7192L137.128 59.8071L139.04 59.8071L139.04 61.7192L137.128 61.7192Z" fill="#2F9064"/>
<path d="M137.128 65.5434L137.128 63.6313L139.04 63.6313L139.04 65.5434L137.128 65.5434Z" fill="#2F9064"/>
<path d="M137.128 69.3674L137.128 67.4553L139.04 67.4553L139.04 69.3674L137.128 69.3674Z" fill="#2F9064"/>
<path d="M137.127 73.1916L137.127 71.2795L139.039 71.2795L139.039 73.1916L137.127 73.1916Z" fill="#2F9064"/>
<path d="M137.129 75.1042L137.129 73.1921L139.041 73.1921L139.041 75.1042L137.129 75.1042Z" fill="#2F9064"/>
<path d="M137.127 77.0159L137.127 75.1038L139.039 75.1038L139.039 77.0159L137.127 77.0159Z" fill="#2F9064"/>
<path d="M139.04 31.1252L139.04 29.2131L140.952 29.2131L140.952 31.1252L139.04 31.1252Z" fill="#2F9064"/>
<path d="M139.039 42.5976L139.039 40.6855L140.951 40.6855L140.951 42.5976L139.039 42.5976Z" fill="#2F9064"/>
<path d="M139.04 48.3345L139.04 46.4224L140.952 46.4224L140.952 48.3345L139.04 48.3345Z" fill="#2F9064"/>
<path d="M139.041 50.2468L139.041 48.3347L140.953 48.3347L140.953 50.2468L139.041 50.2468Z" fill="#2F9064"/>
<path d="M139.041 54.071L139.041 52.1589L140.953 52.1589L140.953 54.071L139.041 54.071Z" fill="#2F9064"/>
<path d="M139.039 59.8069L139.039 57.8948L140.951 57.8948L140.951 59.8069L139.039 59.8069Z" fill="#2F9064"/>
<path d="M139.04 61.7195L139.04 59.8074L140.952 59.8074L140.952 61.7195L139.04 61.7195Z" fill="#2F9064"/>
<path d="M139.04 69.3677L139.04 67.4556L140.952 67.4556L140.952 69.3677L139.04 69.3677Z" fill="#2F9064"/>
<path d="M139.041 75.1045L139.041 73.1924L140.953 73.1924L140.953 75.1045L139.041 75.1045Z" fill="#2F9064"/>
<path d="M140.952 31.1252L140.952 29.2131L142.864 29.2131L142.864 31.1252L140.952 31.1252Z" fill="#2F9064"/>
<path d="M140.952 34.9494L140.952 33.0374L142.864 33.0374L142.864 34.9494L140.952 34.9494Z" fill="#2F9064"/>
<path d="M140.953 36.8618L140.953 34.9497L142.865 34.9497L142.865 36.8618L140.953 36.8618Z" fill="#2F9064"/>
<path d="M140.952 38.7737L140.952 36.8616L142.864 36.8616L142.864 38.7737L140.952 38.7737Z" fill="#2F9064"/>
<path d="M140.951 42.5976L140.951 40.6855L142.863 40.6855L142.863 42.5976L140.951 42.5976Z" fill="#2F9064"/>
<path d="M140.953 50.2468L140.953 48.3347L142.865 48.3347L142.865 50.2468L140.953 50.2468Z" fill="#2F9064"/>
<path d="M140.952 52.1587L140.952 50.2466L142.864 50.2466L142.864 52.1587L140.952 52.1587Z" fill="#2F9064"/>
<path d="M140.953 57.8952L140.953 55.9832L142.865 55.9832L142.865 57.8952L140.953 57.8952Z" fill="#2F9064"/>
<path d="M140.953 61.7195L140.953 59.8074L142.865 59.8074L142.865 61.7195L140.953 61.7195Z" fill="#2F9064"/>
<path d="M140.951 63.6308L140.951 61.7188L142.863 61.7188L142.863 63.6308L140.951 63.6308Z" fill="#2F9064"/>
<path d="M140.952 65.5437L140.952 63.6316L142.864 63.6316L142.864 65.5437L140.952 65.5437Z" fill="#2F9064"/>
<path d="M140.953 67.456L140.953 65.5439L142.865 65.5439L142.865 67.456L140.953 67.456Z" fill="#2F9064"/>
<path d="M140.952 69.3677L140.952 67.4556L142.864 67.4556L142.864 69.3677L140.952 69.3677Z" fill="#2F9064"/>
<path d="M140.953 71.2803L140.953 69.3682L142.865 69.3682L142.865 71.2803L140.953 71.2803Z" fill="#2F9064"/>
<path d="M140.951 77.0161L140.951 75.104L142.863 75.104L142.863 77.0161L140.951 77.0161Z" fill="#2F9064"/>
<path d="M142.864 31.1252L142.864 29.2131L144.776 29.2131L144.776 31.1252L142.864 31.1252Z" fill="#2F9064"/>
<path d="M142.864 34.9494L142.864 33.0374L144.776 33.0374L144.776 34.9494L142.864 34.9494Z" fill="#2F9064"/>
<path d="M142.865 36.8618L142.865 34.9497L144.777 34.9497L144.777 36.8618L142.865 36.8618Z" fill="#2F9064"/>
<path d="M142.864 38.7737L142.864 36.8616L144.776 36.8616L144.776 38.7737L142.864 38.7737Z" fill="#2F9064"/>
<path d="M142.863 42.5976L142.863 40.6855L144.775 40.6855L144.775 42.5976L142.863 42.5976Z" fill="#2F9064"/>
<path d="M142.863 46.4219L142.863 44.5098L144.775 44.5098L144.775 46.4219L142.863 46.4219Z" fill="#2F9064"/>
<path d="M142.864 48.3345L142.864 46.4224L144.776 46.4224L144.776 48.3345L142.864 48.3345Z" fill="#2F9064"/>
<path d="M142.865 50.2468L142.865 48.3347L144.777 48.3347L144.777 50.2468L142.865 50.2468Z" fill="#2F9064"/>
<path d="M142.865 54.071L142.865 52.1589L144.777 52.1589L144.777 54.071L142.865 54.071Z" fill="#2F9064"/>
<path d="M142.864 55.9827L142.864 54.0706L144.776 54.0706L144.776 55.9827L142.864 55.9827Z" fill="#2F9064"/>
<path d="M142.863 63.6308L142.863 61.7188L144.775 61.7188L144.775 63.6308L142.863 63.6308Z" fill="#2F9064"/>
<path d="M142.864 65.5437L142.864 63.6316L144.776 63.6316L144.776 65.5437L142.864 65.5437Z" fill="#2F9064"/>
<path d="M142.864 69.3677L142.864 67.4556L144.776 67.4556L144.776 69.3677L142.864 69.3677Z" fill="#2F9064"/>
<path d="M142.865 71.2803L142.865 69.3682L144.777 69.3682L144.777 71.2803L142.865 71.2803Z" fill="#2F9064"/>
<path d="M142.864 73.1919L142.864 71.2798L144.776 71.2798L144.776 73.1919L142.864 73.1919Z" fill="#2F9064"/>
<path d="M142.865 75.1045L142.865 73.1924L144.777 73.1924L144.777 75.1045L142.865 75.1045Z" fill="#2F9064"/>
<path d="M142.863 77.0161L142.863 75.104L144.775 75.104L144.775 77.0161L142.863 77.0161Z" fill="#2F9064"/>
<path d="M144.777 31.1252L144.777 29.2131L146.689 29.2131L146.689 31.1252L144.777 31.1252Z" fill="#2F9064"/>
<path d="M144.777 34.9494L144.777 33.0374L146.689 33.0374L146.689 34.9494L144.777 34.9494Z" fill="#2F9064"/>
<path d="M144.778 36.8618L144.778 34.9497L146.69 34.9497L146.69 36.8618L144.778 36.8618Z" fill="#2F9064"/>
<path d="M144.777 38.7737L144.777 36.8616L146.689 36.8616L146.689 38.7737L144.777 38.7737Z" fill="#2F9064"/>
<path d="M144.776 42.5976L144.776 40.6855L146.688 40.6855L146.688 42.5976L144.776 42.5976Z" fill="#2F9064"/>
<path d="M144.776 46.4219L144.776 44.5098L146.688 44.5098L146.688 46.4219L144.776 46.4219Z" fill="#2F9064"/>
<path d="M144.777 48.3345L144.777 46.4224L146.689 46.4224L146.689 48.3345L144.777 48.3345Z" fill="#2F9064"/>
<path d="M144.777 52.1587L144.777 50.2466L146.689 50.2466L146.689 52.1587L144.777 52.1587Z" fill="#2F9064"/>
<path d="M144.778 54.071L144.778 52.1589L146.69 52.1589L146.69 54.071L144.778 54.071Z" fill="#2F9064"/>
<path d="M144.776 59.8069L144.776 57.8948L146.688 57.8948L146.688 59.8069L144.776 59.8069Z" fill="#2F9064"/>
<path d="M144.776 63.6308L144.776 61.7188L146.688 61.7188L146.688 63.6308L144.776 63.6308Z" fill="#2F9064"/>
<path d="M144.777 65.5437L144.777 63.6316L146.689 63.6316L146.689 65.5437L144.777 65.5437Z" fill="#2F9064"/>
<path d="M144.777 69.3679L144.777 67.4558L146.689 67.4558L146.689 69.3679L144.777 69.3679Z" fill="#2F9064"/>
<path d="M144.777 73.1919L144.777 71.2798L146.689 71.2798L146.689 73.1919L144.777 73.1919Z" fill="#2F9064"/>
<path d="M144.778 75.1045L144.778 73.1924L146.69 73.1924L146.69 75.1045L144.778 75.1045Z" fill="#2F9064"/>
<path d="M146.689 31.1252L146.689 29.2131L148.602 29.2131L148.602 31.1252L146.689 31.1252Z" fill="#2F9064"/>
<path d="M146.688 42.5979L146.688 40.6858L148.601 40.6858L148.601 42.5979L146.688 42.5979Z" fill="#2F9064"/>
<path d="M146.688 46.4219L146.688 44.5098L148.601 44.5098L148.601 46.4219L146.688 46.4219Z" fill="#2F9064"/>
<path d="M146.689 52.1587L146.689 50.2466L148.602 50.2466L148.602 52.1587L146.689 52.1587Z" fill="#2F9064"/>
<path d="M146.69 54.071L146.69 52.1589L148.603 52.1589L148.603 54.071L146.69 54.071Z" fill="#2F9064"/>
<path d="M146.689 55.9829L146.689 54.0708L148.602 54.0708L148.602 55.9829L146.689 55.9829Z" fill="#2F9064"/>
<path d="M146.69 57.8953L146.69 55.9832L148.603 55.9832L148.603 57.8953L146.69 57.8953Z" fill="#2F9064"/>
<path d="M146.689 65.5437L146.689 63.6316L148.602 63.6316L148.602 65.5437L146.689 65.5437Z" fill="#2F9064"/>
<path d="M146.689 69.3679L146.689 67.4558L148.602 67.4558L148.602 69.3679L146.689 69.3679Z" fill="#2F9064"/>
<path d="M146.689 73.1919L146.689 71.2798L148.602 71.2798L148.602 73.1919L146.689 73.1919Z" fill="#2F9064"/>
<path d="M148.599 31.1245L148.599 29.2124L150.511 29.2124L150.511 31.1245L148.599 31.1245Z" fill="#2F9064"/>
<path d="M148.601 33.0369L148.601 31.1248L150.513 31.1248L150.513 33.0369L148.601 33.0369Z" fill="#2F9064"/>
<path d="M148.599 34.9487L148.599 33.0366L150.511 33.0366L150.511 34.9487L148.599 34.9487Z" fill="#2F9064"/>
<path d="M148.6 36.8611L148.6 34.949L150.512 34.949L150.512 36.8611L148.6 36.8611Z" fill="#2F9064"/>
<path d="M148.599 38.7727L148.599 36.8606L150.511 36.8606L150.511 38.7727L148.599 38.7727Z" fill="#2F9064"/>
<path d="M148.6 40.6853L148.6 38.7732L150.512 38.7732L150.512 40.6853L148.6 40.6853Z" fill="#2F9064"/>
<path d="M148.598 42.5969L148.598 40.6848L150.51 40.6848L150.51 42.5969L148.598 42.5969Z" fill="#2F9064"/>
<path d="M148.598 46.4211L148.598 44.509L150.51 44.509L150.51 46.4211L148.598 46.4211Z" fill="#2F9064"/>
<path d="M148.599 48.3337L148.599 46.4216L150.511 46.4216L150.511 48.3337L148.599 48.3337Z" fill="#2F9064"/>
<path d="M148.599 52.1577L148.599 50.2456L150.511 50.2456L150.511 52.1577L148.599 52.1577Z" fill="#2F9064"/>
<path d="M148.6 54.0703L148.6 52.1582L150.512 52.1582L150.512 54.0703L148.6 54.0703Z" fill="#2F9064"/>
<path d="M148.599 55.9819L148.599 54.0698L150.511 54.0698L150.511 55.9819L148.599 55.9819Z" fill="#2F9064"/>
<path d="M148.598 63.6301L148.598 61.718L150.51 61.718L150.51 63.6301L148.598 63.6301Z" fill="#2F9064"/>
<path d="M148.6 67.4553L148.6 65.5432L150.512 65.5432L150.512 67.4553L148.6 67.4553Z" fill="#2F9064"/>
<path d="M148.599 69.3669L148.599 67.4548L150.511 67.4548L150.511 69.3669L148.599 69.3669Z" fill="#2F9064"/>
<path d="M148.6 71.2795L148.6 69.3674L150.512 69.3674L150.512 71.2795L148.6 71.2795Z" fill="#2F9064"/>
<path d="M148.599 73.1909L148.599 71.2788L150.511 71.2788L150.511 73.1909L148.599 73.1909Z" fill="#2F9064"/>
<path d="M148.6 75.1037L148.6 73.1917L150.512 73.1917L150.512 75.1037L148.6 75.1037Z" fill="#2F9064"/>
<path d="M148.598 77.0154L148.598 75.1033L150.51 75.1033L150.51 77.0154L148.598 77.0154Z" fill="#2F9064"/>
</g>
</g>
<defs>
<filter id="filter0_d_2897_47373" x="87.6279" y="18.1311" width="77.9668" height="77.9673" filterUnits="userSpaceOnUse" color-interpolation-filters="sRGB">
<feFlood flood-opacity="0" result="BackgroundImageFix"/>
<feColorMatrix in="SourceAlpha" type="matrix" values="0 0 0 0 0 0 0 0 0 0 0 0 0 0 0 0 0 0 127 0" result="hardAlpha"/>
<feOffset dy="4"/>
<feGaussianBlur stdDeviation="4"/>
<feComposite in2="hardAlpha" operator="out"/>
<feColorMatrix type="matrix" values="0 0 0 0 0.789167 0 0 0 0 0.810833 0 0 0 0 0.80914 0 0 0 0.6 0"/>
<feBlend mode="normal" in2="BackgroundImageFix" result="effect1_dropShadow_2897_47373"/>
<feBlend mode="normal" in="SourceGraphic" in2="effect1_dropShadow_2897_47373" result="shape"/>
</filter>
<clipPath id="clip0_2897_47373">
<rect x="11.4102" y="3.54102" width="138.098" height="100.918" rx="5" fill="white"/>
</clipPath>
<clipPath id="clip1_2897_47373">
<rect width="47.8033" height="47.8033" fill="white" transform="matrix(-4.37114e-08 1 1 4.37114e-08 102.71 29.2131)"/>
</clipPath>
</defs>
</svg>
