<svg width="168" height="108" viewBox="0 0 168 108" fill="none" xmlns="http://www.w3.org/2000/svg">
<g clip-path="url(#clip0_2897_1519)">
<rect width="166.426" height="108" transform="translate(0.787109)" fill="white"/>
<g clip-path="url(#clip1_2897_1519)">
<path d="M85.3831 157L135.853 156.766C141.923 156.727 146.787 151.777 146.787 145.697L146.242 18.9519C146.242 12.8718 141.262 8 135.191 8L84.7215 8.23385C78.6512 8.23385 73.7482 13.2226 73.7871 19.3026L74.3319 146.048C74.3319 152.128 79.3127 157.039 85.3831 157Z" fill="#436EAD"/>
<path d="M84.7971 11.5384H94.5641C95.8872 11.4994 96.9378 12.5907 96.9378 13.9548V15.7476C96.9378 17.1118 98.0274 18.242 99.3504 18.242L118.418 18.1641C119.741 18.1641 120.791 17.0338 120.791 15.6697V13.8769C120.791 12.5127 121.842 11.3825 123.165 11.3825H126.589L135.15 11.3435C139.391 11.3435 142.855 14.7733 142.894 19.0215L143.399 142.727C143.399 146.975 139.975 150.444 135.734 150.483L85.3419 150.717C81.1004 150.717 77.6372 147.287 77.5983 143.039L77.0924 19.3333C77.0924 15.0851 80.5167 11.6163 84.7582 11.5774L84.7971 11.5384Z" fill="#F7F7F8"/>
<rect x="97.0859" y="26.0327" width="42.3622" height="11.6682" rx="2" fill="#E8E8EB"/>
<rect x="97.0859" y="82.252" width="42.3622" height="8.48594" rx="2" fill="#E8E8EB"/>
<rect x="118.268" y="96.0417" width="21.1811" height="8.48594" rx="2" fill="#D45F4B"/>
<rect x="81.2002" y="51.4905" width="42.3622" height="6.36446" rx="2" fill="#E8E8EB"/>
<rect x="81.2002" y="63.1587" width="31.7716" height="6.36446" rx="2" fill="#E8E8EB"/>
</g>
<g filter="url(#filter0_d_2897_1519)">
<path d="M19.6816 31C19.6816 29.3431 21.0248 28 22.6816 28H102.892C104.549 28 105.892 29.3431 105.892 31V82.3529C105.892 84.0098 104.549 85.3529 102.892 85.3529H70.9759C70.3867 85.3529 69.8275 85.6128 69.4475 86.0631L64.2697 92.1988C63.4863 93.1271 62.063 93.1485 61.2521 92.2441L55.6694 86.0178C55.2901 85.5947 54.7486 85.3529 54.1804 85.3529H22.6816C21.0248 85.3529 19.6816 84.0098 19.6816 82.3529V31Z" fill="white"/>
<path d="M79.6541 22.5405H46.033C44.6233 22.5405 43.4805 23.6534 43.4805 25.0263V46.8792C43.4805 48.2521 44.6233 49.365 46.033 49.365H79.6541C81.0639 49.365 82.2067 48.2521 82.2067 46.8792V25.0263C82.2067 23.6534 81.0639 22.5405 79.6541 22.5405Z" fill="#EFBC69"/>
<path d="M82.2067 46.8848V46.1254C82.2067 45.0765 81.6625 44.104 80.7593 43.5358L62.8464 32.2925L44.9279 43.5358C44.0246 44.104 43.4805 45.0765 43.4805 46.1254V46.8848C43.4805 48.2561 44.6249 49.3706 46.033 49.3706H79.6541C81.0622 49.3706 82.2067 48.2561 82.2067 46.8848Z" fill="#DDA757"/>
<g style="mix-blend-mode:overlay" opacity="0.7">
<path d="M80.7593 43.5302L62.8464 32.2869L44.9279 43.5302C44.0246 44.0984 43.4805 45.0708 43.4805 46.1198V46.4421C43.4805 45.3932 44.0246 44.4207 44.9279 43.8525L62.8408 32.6092L80.7537 43.8525C81.6569 44.4207 82.2011 45.3932 82.2011 46.4421V46.1198C82.2011 45.0708 81.6569 44.0984 80.7537 43.5302H80.7593Z" fill="#226D4B"/>
</g>
<g style="mix-blend-mode:multiply" opacity="0.5">
<path d="M43.4805 26.2061C43.4805 27.2988 44.0246 28.3204 44.9279 28.9104L60.4509 38.4602C61.9095 39.4162 63.7777 39.4162 65.2363 38.4602L80.7593 28.9104C81.6625 28.3204 82.2067 27.2988 82.2067 26.2061C82.2067 24.7693 81.0622 23.6111 79.6541 23.6111H46.033C44.6249 23.6111 43.4805 24.7748 43.4805 26.2061Z" fill="white"/>
<path d="M43.4805 26.1024C43.4805 27.1841 44.0246 28.1893 44.9279 28.7739L60.4509 38.2581C61.9095 39.2032 63.7777 39.2032 65.2363 38.2581L80.7593 28.7739C81.6625 28.1893 82.2067 27.1841 82.2067 26.1024C82.2067 24.6874 81.0622 23.5347 79.6541 23.5347H46.033C44.6249 23.5347 43.4805 24.6819 43.4805 26.1024Z" fill="#F4F1E8"/>
<path d="M43.4805 25.9929C43.4805 27.0583 44.0246 28.0526 44.9279 28.6317L60.4509 38.0503C61.9095 38.9845 63.7777 38.9845 65.2363 38.0503L80.7593 28.6317C81.6625 28.0526 82.2067 27.0583 82.2067 25.9929C82.2067 24.5944 81.0622 23.458 79.6541 23.458H46.033C44.6249 23.458 43.4805 24.5944 43.4805 25.9929Z" fill="#E8E3D1"/>
<path d="M43.4805 25.7802C43.4805 26.8182 44.0246 27.7906 44.9279 28.3534L60.4509 37.6409C61.9095 38.5478 63.7777 38.5478 65.2363 37.6409L80.7593 28.3534C81.6625 27.7906 82.2067 26.8182 82.2067 25.7802C82.2067 24.4144 81.0622 23.3108 79.6541 23.3108H46.033C44.6249 23.3108 43.4805 24.4144 43.4805 25.7802Z" fill="#D2C6A2"/>
<path d="M43.4805 25.567C43.4805 26.5832 44.0246 27.5283 44.9279 28.0746L60.4509 37.231C61.9095 38.1161 63.7777 38.1161 65.2363 37.231L80.7593 28.0746C81.6625 27.5228 82.2067 26.5777 82.2067 25.567C82.2067 24.234 81.0622 23.1577 79.6541 23.1577H46.033C44.6249 23.1577 43.4805 24.2394 43.4805 25.567Z" fill="#BBAA74"/>
<path d="M43.4805 25.4632C43.4805 26.463 44.0246 27.3972 44.9279 27.938L60.4509 37.0289C61.9095 37.903 63.7777 37.903 65.2363 37.0289L80.7593 27.938C81.6625 27.3972 82.2067 26.463 82.2067 25.4632C82.2067 24.152 81.0622 23.0867 79.6541 23.0867H46.033C44.6249 23.0812 43.4805 24.1466 43.4805 25.4632Z" fill="#AF9C5D"/>
<path d="M43.4805 25.3538C43.4805 26.3427 44.0246 27.2605 44.9279 27.7959L60.4509 36.8212C61.9095 37.6844 63.7777 37.6844 65.2363 36.8212L80.7593 27.7959C81.6625 27.2605 82.2067 26.3427 82.2067 25.3538C82.2067 24.059 81.0622 23.0046 79.6541 23.0046H46.033C44.6249 23.0101 43.4805 24.059 43.4805 25.3538Z" fill="#A48E46"/>
<path d="M43.4805 25.25C43.4805 26.2225 44.0246 27.1348 44.9279 27.6593L60.4509 36.619C61.9095 37.4713 63.7777 37.4713 65.2363 36.619L80.7593 27.6593C81.6625 27.1294 82.2067 26.2225 82.2067 25.25C82.2067 23.9716 81.0622 22.9336 79.6541 22.9336H46.033C44.6249 22.9336 43.4805 23.9716 43.4805 25.25Z" fill="#997F2E"/>
<path d="M43.4805 25.1408C43.4805 26.1023 44.0246 26.9983 44.9279 27.5173L60.4509 36.4115C61.9095 37.2528 63.7777 37.2528 65.2363 36.4115L80.7593 27.5173C81.6625 26.9983 82.2067 26.1023 82.2067 25.1408C82.2067 23.8788 81.0622 22.8572 79.6541 22.8572H46.033C44.6249 22.8572 43.4805 23.8788 43.4805 25.1408Z" fill="#8D7117"/>
<path d="M43.4805 25.037C43.4805 25.9876 44.0246 26.8672 44.9279 27.3807L60.4509 36.2093C61.9095 37.0397 63.7777 37.0397 65.2363 36.2093L80.7593 27.3807C81.6625 26.8672 82.2067 25.9821 82.2067 25.037C82.2067 23.7914 81.0622 22.7862 79.6541 22.7862H46.033C44.6249 22.7807 43.4805 23.7914 43.4805 25.037Z" fill="#826300"/>
</g>
<path d="M43.4805 25.0263C43.4805 26.0752 44.0246 27.0477 44.9279 27.6159L60.4509 37.3568C61.9095 38.2692 63.7777 38.2692 65.2363 37.3568L80.7593 27.6159C81.6625 27.0477 82.2067 26.0752 82.2067 25.0263C82.2067 23.655 81.0622 22.5405 79.6541 22.5405H46.033C44.6249 22.5405 43.4805 23.655 43.4805 25.0263Z" fill="#E1AD59"/>
<rect x="29.1553" y="59.5442" width="67.2632" height="3.82353" rx="1.91176" fill="#E8E8EB"/>
<rect x="41.4717" y="70.0588" width="40.7368" height="5.73529" rx="2.86765" fill="#2F9064"/>
</g>
</g>
<defs>
<filter id="filter0_d_2897_1519" x="9.78711" y="12.8298" width="106" height="92.1702" filterUnits="userSpaceOnUse" color-interpolation-filters="sRGB">
<feFlood flood-opacity="0" result="BackgroundImageFix"/>
<feColorMatrix in="SourceAlpha" type="matrix" values="0 0 0 0 0 0 0 0 0 0 0 0 0 0 0 0 0 0 127 0" result="hardAlpha"/>
<feOffset dy="4"/>
<feGaussianBlur stdDeviation="4"/>
<feComposite in2="hardAlpha" operator="out"/>
<feColorMatrix type="matrix" values="0 0 0 0 0.789167 0 0 0 0 0.810833 0 0 0 0 0.80914 0 0 0 0.6 0"/>
<feBlend mode="normal" in2="BackgroundImageFix" result="effect1_dropShadow_2897_1519"/>
<feBlend mode="normal" in="SourceGraphic" in2="effect1_dropShadow_2897_1519" result="shape"/>
</filter>
<clipPath id="clip0_2897_1519">
<rect width="166.426" height="108" fill="white" transform="translate(0.787109)"/>
</clipPath>
<clipPath id="clip1_2897_1519">
<rect width="73" height="149" fill="white" transform="matrix(-1 0 0 1 146.787 8)"/>
</clipPath>
</defs>
</svg>
