<svg width="168" height="108" viewBox="0 0 168 108" fill="none" xmlns="http://www.w3.org/2000/svg">
<rect width="166.426" height="108" transform="translate(0.787109)" fill="white"/>
<g clip-path="url(#clip0_2897_9631)">
<rect x="9.43652" y="4.04102" width="137.098" height="99.918" rx="5.0161" fill="#F7F7F8" stroke="#ECECEE"/>
<rect opacity="0.6" x="55.8076" y="15" width="80" height="21" rx="3" fill="#E8E8EB"/>
<rect opacity="0.3" x="55.8076" y="87" width="80" height="21" rx="3" fill="#E8E8EB"/>
<rect x="13.8203" y="25" width="34.0873" height="74" rx="2" fill="white"/>
<rect x="8.93652" y="3.54102" width="138.098" height="16.8197" fill="#D45F4B"/>
<ellipse cx="19.4891" cy="12.411" rx="2.41877" ry="2.4188" fill="white"/>
<ellipse cx="29.1629" cy="12.411" rx="2.41877" ry="2.4188" fill="white"/>
<ellipse cx="38.8377" cy="12.411" rx="2.41877" ry="2.4188" fill="white"/>
<rect x="18.833" y="30" width="7.01797" height="7" rx="3.5" fill="#436EAD"/>
<rect x="29.8613" y="32" width="13.0334" height="3" rx="1.5" fill="#436EAD"/>
<rect x="18.8076" y="48" width="16" height="2" rx="1" fill="#E9E9EC"/>
<rect x="18.8076" y="57" width="23" height="2" rx="1" fill="#E9E9EC"/>
<rect x="18.8076" y="66" width="14" height="2" rx="1" fill="#E9E9EC"/>
<rect x="18.8076" y="75" width="17" height="2" rx="1" fill="#E9E9EC"/>
</g>
<g filter="url(#filter0_d_2897_9631)">
<rect x="64.9512" y="30" width="91.2337" height="60" rx="5" fill="white" shape-rendering="crispEdges"/>
<ellipse cx="78.2161" cy="41.3429" rx="4.73758" ry="4.72624" fill="#2F9064"/>
<rect x="88.6387" y="39.4524" width="32.2155" height="3.78099" rx="1.8905" fill="#E8E8EB"/>
<rect x="125.592" y="39.4524" width="20.8453" height="3.78099" rx="1.8905" fill="#D9D9D9"/>
<rect opacity="0.5" x="66.8467" y="50.7954" width="87.1714" height="0.945248" fill="#E8E8EB"/>
<rect opacity="0.3" x="69.6885" y="56.467" width="81.4863" height="29.3027" rx="2" fill="#E9EBEB"/>
<rect opacity="0.4" x="80.1113" y="68.7551" width="15.3547" height="5.85744" rx="1.14706" fill="#DE5C5B"/>
<rect x="102.852" y="68.7551" width="15.3547" height="5.85744" rx="1.14706" fill="#E0B166"/>
<rect opacity="0.4" x="125.592" y="68.7551" width="15.3547" height="5.85744" rx="1.14706" fill="#2F9064"/>
</g>
<defs>
<filter id="filter0_d_2897_9631" x="56.9512" y="26" width="107.233" height="76" filterUnits="userSpaceOnUse" color-interpolation-filters="sRGB">
<feFlood flood-opacity="0" result="BackgroundImageFix"/>
<feColorMatrix in="SourceAlpha" type="matrix" values="0 0 0 0 0 0 0 0 0 0 0 0 0 0 0 0 0 0 127 0" result="hardAlpha"/>
<feOffset dy="4"/>
<feGaussianBlur stdDeviation="4"/>
<feComposite in2="hardAlpha" operator="out"/>
<feColorMatrix type="matrix" values="0 0 0 0 0.789167 0 0 0 0 0.810833 0 0 0 0 0.80914 0 0 0 0.6 0"/>
<feBlend mode="normal" in2="BackgroundImageFix" result="effect1_dropShadow_2897_9631"/>
<feBlend mode="normal" in="SourceGraphic" in2="effect1_dropShadow_2897_9631" result="shape"/>
</filter>
<clipPath id="clip0_2897_9631">
<rect x="8.93652" y="3.54102" width="138.098" height="100.918" rx="5" fill="white"/>
</clipPath>
</defs>
</svg>
