<svg width="168" height="108" viewBox="0 0 168 108" fill="none" xmlns="http://www.w3.org/2000/svg">
<rect width="166.426" height="108" transform="translate(0.787109)" fill="#F7F7F8"/>
<g clip-path="url(#clip0_4056_27432)">
<rect x="15.4512" y="4.04102" width="137.098" height="99.918" rx="5.0161" fill="#F7F7F8" stroke="#ECECEE"/>
<rect opacity="0.4" x="24.6885" y="90.2952" width="32.7541" height="30.0984" rx="4" fill="#D1D1D7"/>
<rect opacity="0.4" x="67.1807" y="90.2952" width="33.6393" height="30.0984" rx="4" fill="#D1D1D7"/>
<rect opacity="0.4" x="110.558" y="90.2952" width="32.7541" height="30.0984" rx="4" fill="#D1D1D7"/>
<rect x="14.9512" y="3.54102" width="138.098" height="16.8197" fill="#CECED4"/>
<ellipse cx="25.5028" cy="12.411" rx="2.41877" ry="2.4188" fill="#F7F7F8"/>
<ellipse cx="35.1785" cy="12.411" rx="2.41877" ry="2.4188" fill="#F7F7F8"/>
<ellipse cx="44.8504" cy="12.411" rx="2.41877" ry="2.4188" fill="#F7F7F8"/>
</g>
<g filter="url(#filter0_d_4056_27432)">
<g clip-path="url(#clip1_4056_27432)">
<rect x="9.63965" y="27.4426" width="148.721" height="53.1147" rx="5" fill="#F7F7F8"/>
<rect x="54.0195" y="36.2952" width="57.3067" height="4.42623" rx="2.21311" fill="#DDDDE1"/>
<rect opacity="0.4" x="34.3613" y="46.0593" width="96.622" height="4.06172" rx="2.03086" fill="#C9C9CF"/>
<rect x="34.9736" y="60.7441" width="16.2469" height="6.19672" rx="1.14706" fill="#E8E8E9"/>
<rect opacity="0.3" x="54.7617" y="60.7441" width="16.2469" height="6.19672" rx="1.14706" fill="#E8E8E9"/>
<rect x="74.5498" y="60.7441" width="16.2469" height="6.19672" rx="1.14706" fill="#AFAFBB"/>
<rect opacity="0.4" x="94.3369" y="60.7441" width="16.2469" height="6.19672" rx="1.14706" fill="#DDDDE1"/>
<rect x="114.125" y="60.7441" width="16.2469" height="6.19672" rx="1.14706" fill="#DDDDE1"/>
<rect x="20.2627" y="77.9016" width="127.475" height="4.42623" rx="2.21311" fill="#DCDCE1"/>
</g>
</g>
<defs>
<filter id="filter0_d_4056_27432" x="1.63965" y="23.4426" width="164.722" height="69.1147" filterUnits="userSpaceOnUse" color-interpolation-filters="sRGB">
<feFlood flood-opacity="0" result="BackgroundImageFix"/>
<feColorMatrix in="SourceAlpha" type="matrix" values="0 0 0 0 0 0 0 0 0 0 0 0 0 0 0 0 0 0 127 0" result="hardAlpha"/>
<feOffset dy="4"/>
<feGaussianBlur stdDeviation="4"/>
<feComposite in2="hardAlpha" operator="out"/>
<feColorMatrix type="matrix" values="0 0 0 0 0.789167 0 0 0 0 0.810833 0 0 0 0 0.80914 0 0 0 0.6 0"/>
<feBlend mode="normal" in2="BackgroundImageFix" result="effect1_dropShadow_4056_27432"/>
<feBlend mode="normal" in="SourceGraphic" in2="effect1_dropShadow_4056_27432" result="shape"/>
</filter>
<clipPath id="clip0_4056_27432">
<rect x="14.9512" y="3.54102" width="138.098" height="100.918" rx="5" fill="white"/>
</clipPath>
<clipPath id="clip1_4056_27432">
<rect x="9.63965" y="27.4426" width="148.721" height="53.1147" rx="5" fill="white"/>
</clipPath>
</defs>
</svg>
