<svg width="168" height="108" viewBox="0 0 168 108" fill="none" xmlns="http://www.w3.org/2000/svg">
<rect width="166.426" height="108" transform="translate(0.787109)" fill="white"/>
<g clip-path="url(#clip0_9760_55969)">
<rect x="15.4512" y="4.04095" width="137.098" height="99.918" rx="5.0161" fill="#F7F7F8" stroke="#ECECEE"/>
<rect opacity="0.4" x="24.6875" y="90.295" width="32.7541" height="30.0984" rx="4" fill="#D1D1D7"/>
<rect opacity="0.4" x="24.8477" y="28" width="118.303" height="18" rx="4" fill="#D1D1D7"/>
<rect opacity="0.4" x="24.8477" y="51" width="118.303" height="9" rx="4" fill="#D1D1D7"/>
<rect opacity="0.4" x="24.8477" y="65" width="118.303" height="19" rx="4" fill="#D1D1D7"/>
<rect opacity="0.4" x="67.1816" y="90.295" width="33.6393" height="30.0984" rx="4" fill="#D1D1D7"/>
<rect opacity="0.4" x="110.559" y="90.295" width="32.7541" height="30.0984" rx="4" fill="#D1D1D7"/>
<rect x="14.9512" y="3.54095" width="138.098" height="16.8197" fill="#E0B166"/>
<ellipse cx="25.5028" cy="12.4109" rx="2.41877" ry="2.4188" fill="white"/>
<ellipse cx="35.1785" cy="12.4109" rx="2.41877" ry="2.4188" fill="white"/>
<ellipse cx="44.8504" cy="12.4109" rx="2.41877" ry="2.4188" fill="white"/>
</g>
<g filter="url(#filter0_d_9760_55969)">
<g clip-path="url(#clip1_9760_55969)">
<rect x="42.8945" y="29" width="82.2105" height="61.5" rx="5.69444" fill="white"/>
<rect x="56.8008" y="74.5555" width="51.784" height="5.125" rx="2.5625" fill="#2F9064"/>
<rect x="48.7695" y="87.425" width="70.4662" height="5.125" rx="2.5625" fill="#436EAD"/>
<path d="M82.7523 51.3222C85.3941 51.3222 87.5357 49.1806 87.5357 46.5389C87.5357 43.8971 85.3941 41.7556 82.7523 41.7556C80.1106 41.7556 77.969 43.8971 77.969 46.5389C77.969 49.1806 80.1106 51.3222 82.7523 51.3222Z" fill="#436EAD"/>
<path d="M76.3746 49.7278C76.3746 51.489 74.9469 52.9167 73.1857 52.9167C71.4245 52.9167 69.9968 51.489 69.9968 49.7278C69.9968 47.9666 71.4245 46.5389 73.1857 46.5389C74.9469 46.5389 76.3746 47.9666 76.3746 49.7278Z" fill="#436EAD"/>
<path d="M69.1846 61.4081C68.9143 61.2509 68.7056 61.0034 68.6136 60.7045C68.4763 60.2587 68.4023 59.7852 68.4023 59.2944C68.4023 56.6527 70.5439 54.5111 73.1857 54.5111C74.018 54.5111 74.8006 54.7237 75.4823 55.0975C73.8128 56.7415 72.698 58.9477 72.4439 61.4098C72.4073 61.7649 72.4226 62.1153 72.4841 62.4529C71.2893 62.3487 70.17 61.981 69.1846 61.4081Z" fill="#436EAD"/>
<path d="M93.0213 62.4528C94.2159 62.3486 95.3349 61.9809 96.32 61.4081C96.5904 61.2509 96.7991 61.0034 96.8911 60.7045C97.0284 60.2587 97.1023 59.7852 97.1023 59.2944C97.1023 56.6527 94.9608 54.5111 92.319 54.5111C91.4869 54.5111 90.7044 54.7236 90.0228 55.0973C91.6925 56.7413 92.8074 58.9476 93.0615 61.4098C93.0981 61.7649 93.0828 62.1153 93.0213 62.4528Z" fill="#436EAD"/>
<path d="M95.5079 49.7278C95.5079 51.489 94.0802 52.9167 92.319 52.9167C90.5578 52.9167 89.1301 51.489 89.1301 49.7278C89.1301 47.9666 90.5578 46.5389 92.319 46.5389C94.0802 46.5389 95.5079 47.9666 95.5079 49.7278Z" fill="#436EAD"/>
<path d="M75.2646 62.7877C74.9471 62.5003 74.7789 62.0813 74.8228 61.6553C75.237 57.6415 78.6292 54.5111 82.7526 54.5111C86.8759 54.5111 90.2681 57.6415 90.6823 61.6553C90.7263 62.0813 90.558 62.5003 90.2406 62.7877C88.2604 64.5803 85.634 65.6722 82.7526 65.6722C79.8711 65.6722 77.2447 64.5803 75.2646 62.7877Z" fill="#436EAD"/>
</g>
</g>
<defs>
<filter id="filter0_d_9760_55969" x="33.7834" y="24.4444" width="100.433" height="79.7222" filterUnits="userSpaceOnUse" color-interpolation-filters="sRGB">
<feFlood flood-opacity="0" result="BackgroundImageFix"/>
<feColorMatrix in="SourceAlpha" type="matrix" values="0 0 0 0 0 0 0 0 0 0 0 0 0 0 0 0 0 0 127 0" result="hardAlpha"/>
<feOffset dy="4.55556"/>
<feGaussianBlur stdDeviation="4.55556"/>
<feComposite in2="hardAlpha" operator="out"/>
<feColorMatrix type="matrix" values="0 0 0 0 0.789167 0 0 0 0 0.810833 0 0 0 0 0.80914 0 0 0 0.6 0"/>
<feBlend mode="normal" in2="BackgroundImageFix" result="effect1_dropShadow_9760_55969"/>
<feBlend mode="normal" in="SourceGraphic" in2="effect1_dropShadow_9760_55969" result="shape"/>
</filter>
<clipPath id="clip0_9760_55969">
<rect x="14.9512" y="3.54095" width="138.098" height="100.918" rx="5" fill="white"/>
</clipPath>
<clipPath id="clip1_9760_55969">
<rect x="42.8945" y="29" width="82.2105" height="61.5" rx="5.69444" fill="white"/>
</clipPath>
</defs>
</svg>
