<svg xmlns="http://www.w3.org/2000/svg" xmlns:xlink="http://www.w3.org/1999/xlink" viewBox="0 0 336 707"><defs><clipPath id="a"><rect width="336" height="717" fill="none"/></clipPath><mask id="b" x="22.61" y="25.65" width="288.81" height="58.56" maskUnits="userSpaceOnUse"><path d="M22.61,34.91a9.26,9.26,0,0,1,9.26-9.26H302.16a9.26,9.26,0,0,1,9.26,9.26V74.15a9.26,9.26,0,0,1-9.26,9.26H31.87a9.26,9.26,0,0,1-9.26-9.26Z" fill="#fff"/></mask></defs><title>bg-mob</title><rect width="336" height="707" rx="10" ry="10" fill="none"/><rect width="336" height="707" fill="#fff"/><g clip-path="url(#a)"><g opacity="0.4"><rect width="336" height="717" fill="#fff"/><rect x="-15" y="-36" width="1069.72" height="777.98" fill="#b9c1cc" opacity="0.6" style="isolation:isolate"/><g opacity="0.5"><path d="M22.61,34.91a9.26,9.26,0,0,1,9.26-9.26H302.16a9.26,9.26,0,0,1,9.26,9.26V74.15a9.26,9.26,0,0,1-9.26,9.26H31.87a9.26,9.26,0,0,1-9.26-9.26Z" fill="#fff"/><g mask="url(#b)"><path d="M22.61,25.65h0Zm288.81,48.5a10.06,10.06,0,0,1-10.06,10.06H32.68A10.06,10.06,0,0,1,22.61,74.15c0,4.67,4.15,8.46,9.26,8.46H302.16C307.27,82.61,311.42,78.82,311.42,74.15ZM22.61,83.41v0ZM311.42,25.65v0Z" fill="#dee5ed"/></g><path d="M33.36,54.51a3.87,3.87,0,0,1,.54-2A3.63,3.63,0,0,1,35.32,51a3.87,3.87,0,0,1,2-.54H52.54a3.87,3.87,0,0,1,2,.54A3.63,3.63,0,0,1,56,52.46a3.87,3.87,0,0,1,.54,2v.05A4,4,0,0,1,56,56.63a3.88,3.88,0,0,1-1.43,1.43,4,4,0,0,1-2,.51H37.37a4,4,0,0,1-2-.51,3.88,3.88,0,0,1-1.43-1.43,4,4,0,0,1-.54-2.07Z" fill="#7b95b7"/><path d="M48.59,54.51a3.87,3.87,0,0,1,.54-2A3.63,3.63,0,0,1,50.55,51a3.87,3.87,0,0,1,2-.54H67.77a3.87,3.87,0,0,1,2,.54,3.63,3.63,0,0,1,1.43,1.43,3.87,3.87,0,0,1,.54,2v.05a4,4,0,0,1-.54,2.07,3.88,3.88,0,0,1-1.43,1.43,4,4,0,0,1-2,.51H52.6a4,4,0,0,1-2-.51,3.88,3.88,0,0,1-1.43-1.43,4,4,0,0,1-.54-2.07Z" fill="#7b95b7"/><path d="M63.82,54.51a3.87,3.87,0,0,1,.54-2A3.63,3.63,0,0,1,65.78,51a3.87,3.87,0,0,1,2-.54h7.75a3.87,3.87,0,0,1,2,.54A3.63,3.63,0,0,1,79,52.46a3.87,3.87,0,0,1,.54,2v.05A4,4,0,0,1,79,56.63a3.88,3.88,0,0,1-1.43,1.43,4,4,0,0,1-2,.51H67.82a4,4,0,0,1-2-.51,3.88,3.88,0,0,1-1.43-1.43,4,4,0,0,1-.54-2.07Z" fill="#7b95b7"/><path d="M71.63,54.51a3.87,3.87,0,0,1,.54-2A3.63,3.63,0,0,1,73.6,51a3.87,3.87,0,0,1,2-.54H90.82a3.87,3.87,0,0,1,2,.54,3.63,3.63,0,0,1,1.43,1.43,3.87,3.87,0,0,1,.54,2v.05a4,4,0,0,1-.54,2.07,3.88,3.88,0,0,1-1.43,1.43,4,4,0,0,1-2,.51H75.64a4,4,0,0,1-2-.51,3.88,3.88,0,0,1-1.43-1.43,4,4,0,0,1-.54-2.07Z" fill="#7b95b7"/><path d="M86.86,54.51a3.87,3.87,0,0,1,.54-2A3.63,3.63,0,0,1,88.83,51a3.87,3.87,0,0,1,2-.54H106a3.87,3.87,0,0,1,2,.54,3.63,3.63,0,0,1,1.43,1.43,3.86,3.86,0,0,1,.54,2v.05a4,4,0,0,1-.54,2.07,3.88,3.88,0,0,1-1.43,1.43,4,4,0,0,1-2,.51H90.87a4,4,0,0,1-2-.51,3.88,3.88,0,0,1-1.43-1.43,4,4,0,0,1-.54-2.07Z" fill="#7b95b7"/><path d="M102.09,54.51a3.86,3.86,0,0,1,.54-2A3.63,3.63,0,0,1,104.06,51a3.87,3.87,0,0,1,2-.54h7.75a3.87,3.87,0,0,1,2,.54,3.63,3.63,0,0,1,1.43,1.43,3.87,3.87,0,0,1,.54,2v.05a4,4,0,0,1-.54,2.07,3.88,3.88,0,0,1-1.43,1.43,4,4,0,0,1-2,.51H106.1a4,4,0,0,1-2-.51,3.88,3.88,0,0,1-1.43-1.43,4,4,0,0,1-.54-2.07Z" fill="#7b95b7"/><path d="M109.91,54.51a3.86,3.86,0,0,1,.54-2A3.63,3.63,0,0,1,111.88,51a3.87,3.87,0,0,1,2-.54H129.1a3.87,3.87,0,0,1,2,.54,3.63,3.63,0,0,1,1.43,1.43,3.86,3.86,0,0,1,.54,2v.05a4,4,0,0,1-.54,2.07,3.88,3.88,0,0,1-1.43,1.43,4,4,0,0,1-2,.51H113.92a4,4,0,0,1-2-.51,3.88,3.88,0,0,1-1.43-1.43,4,4,0,0,1-.54-2.07Z" fill="#7b95b7"/><path d="M125.14,54.51a3.86,3.86,0,0,1,.54-2A3.63,3.63,0,0,1,127.1,51a3.87,3.87,0,0,1,2-.54h7.75a3.87,3.87,0,0,1,2,.54,3.63,3.63,0,0,1,1.43,1.43,3.86,3.86,0,0,1,.54,2v.05a4,4,0,0,1-.54,2.07,3.88,3.88,0,0,1-1.43,1.43,4,4,0,0,1-2,.51h-7.75a4,4,0,0,1-2-.51,3.88,3.88,0,0,1-1.43-1.43,4,4,0,0,1-.54-2.07Z" fill="#7b95b7"/><path d="M133,54.51a3.86,3.86,0,0,1,.54-2A3.63,3.63,0,0,1,134.92,51a3.87,3.87,0,0,1,2-.54h7.75a3.87,3.87,0,0,1,2,.54,3.63,3.63,0,0,1,1.43,1.43,3.86,3.86,0,0,1,.54,2v.05a4,4,0,0,1-.54,2.07,3.88,3.88,0,0,1-1.43,1.43,4,4,0,0,1-2,.51H137a4,4,0,0,1-2-.51,3.88,3.88,0,0,1-1.43-1.43,4,4,0,0,1-.54-2.07Z" fill="#7b95b7"/><path d="M140.78,54.51a3.86,3.86,0,0,1,.54-2A3.63,3.63,0,0,1,142.74,51a3.87,3.87,0,0,1,2-.54H160a3.86,3.86,0,0,1,2,.54,3.63,3.63,0,0,1,1.43,1.43,3.87,3.87,0,0,1,.54,2v.05a4,4,0,0,1-.54,2.07A3.88,3.88,0,0,1,162,58.06a4,4,0,0,1-2,.51H144.79a4,4,0,0,1-2-.51,3.88,3.88,0,0,1-1.43-1.43,4,4,0,0,1-.54-2.07Z" fill="#7b95b7"/><path d="M156,54.51a3.87,3.87,0,0,1,.54-2A3.63,3.63,0,0,1,158,51a3.87,3.87,0,0,1,2-.54h15.18a3.87,3.87,0,0,1,2,.54,3.63,3.63,0,0,1,1.43,1.43,3.86,3.86,0,0,1,.54,2v.05a4,4,0,0,1-.54,2.07,3.88,3.88,0,0,1-1.43,1.43,4,4,0,0,1-2,.51H160a4,4,0,0,1-2-.51,3.88,3.88,0,0,1-1.43-1.43,4,4,0,0,1-.54-2.07Z" fill="#7b95b7"/><g opacity="0.52"><rect x="206.99" y="35.31" width="93.28" height="38.45" rx="19.22" ry="19.22" fill="#486284"/><rect x="206.99" y="35.31" width="93.28" height="38.45" rx="19.22" ry="19.22" fill="none"/><path d="M220.71,55.41a1.84,1.84,0,0,1,.26-1,1.74,1.74,0,0,1,.68-.68,1.85,1.85,0,0,1,1-.26h7.24a1.84,1.84,0,0,1,1,.26,1.73,1.73,0,0,1,.68.68,1.84,1.84,0,0,1,.26,1v0a1.91,1.91,0,0,1-.26,1,1.85,1.85,0,0,1-.68.68,1.92,1.92,0,0,1-1,.24h-7.24a1.92,1.92,0,0,1-1-.24,1.86,1.86,0,0,1-.68-.68,1.91,1.91,0,0,1-.26-1Zm7.61,0a1.84,1.84,0,0,1,.26-1,1.73,1.73,0,0,1,.68-.68,1.84,1.84,0,0,1,1-.26h3.7a1.84,1.84,0,0,1,1,.26,1.73,1.73,0,0,1,.68.68,1.84,1.84,0,0,1,.26,1v0a1.91,1.91,0,0,1-.26,1,1.85,1.85,0,0,1-.68.68,1.92,1.92,0,0,1-1,.24h-3.7a1.92,1.92,0,0,1-1-.24,1.85,1.85,0,0,1-.68-.68,1.91,1.91,0,0,1-.26-1Zm4.07,0a1.84,1.84,0,0,1,.26-1,1.73,1.73,0,0,1,.68-.68,1.84,1.84,0,0,1,1-.26h7.24a1.84,1.84,0,0,1,1,.26,1.74,1.74,0,0,1,.68.68,1.84,1.84,0,0,1,.26,1v0a1.91,1.91,0,0,1-.26,1,1.86,1.86,0,0,1-.68.68,1.92,1.92,0,0,1-1,.24H234.3a1.92,1.92,0,0,1-1-.24,1.85,1.85,0,0,1-.68-.68,1.9,1.9,0,0,1-.26-1Zm7.61,0a1.84,1.84,0,0,1,.26-1,1.73,1.73,0,0,1,.68-.68,1.85,1.85,0,0,1,1-.26h7.24a1.84,1.84,0,0,1,1,.26,1.73,1.73,0,0,1,.68.68,1.85,1.85,0,0,1,.26,1v0a1.91,1.91,0,0,1-.26,1,1.85,1.85,0,0,1-.68.68,1.92,1.92,0,0,1-1,.24H241.9a1.92,1.92,0,0,1-1-.24,1.85,1.85,0,0,1-.68-.68,1.91,1.91,0,0,1-.26-1Zm7.61,0a1.85,1.85,0,0,1,.26-1,1.73,1.73,0,0,1,.68-.68,1.84,1.84,0,0,1,1-.26h3.7a1.84,1.84,0,0,1,1,.26,1.73,1.73,0,0,1,.68.68,1.85,1.85,0,0,1,.26,1v0a1.91,1.91,0,0,1-.26,1,1.85,1.85,0,0,1-.68.68,1.92,1.92,0,0,1-1,.24h-3.7a1.92,1.92,0,0,1-1-.24,1.85,1.85,0,0,1-.68-.68,1.91,1.91,0,0,1-.26-1Zm12.17,0a1.84,1.84,0,0,1,.26-1,1.73,1.73,0,0,1,.68-.68,1.84,1.84,0,0,1,1-.26h7.24a1.84,1.84,0,0,1,1,.26,1.73,1.73,0,0,1,.68.68,1.84,1.84,0,0,1,.26,1v0a1.9,1.9,0,0,1-.26,1,1.85,1.85,0,0,1-.68.68,1.92,1.92,0,0,1-1,.24h-7.24a1.92,1.92,0,0,1-1-.24,1.85,1.85,0,0,1-.68-.68,1.9,1.9,0,0,1-.26-1Zm7.61,0a1.84,1.84,0,0,1,.26-1,1.73,1.73,0,0,1,.68-.68,1.84,1.84,0,0,1,1-.26h7.24a1.84,1.84,0,0,1,1,.26,1.73,1.73,0,0,1,.68.68,1.84,1.84,0,0,1,.26,1v0a1.91,1.91,0,0,1-.26,1,1.85,1.85,0,0,1-.68.68,1.92,1.92,0,0,1-1,.24h-7.24a1.92,1.92,0,0,1-1-.24,1.85,1.85,0,0,1-.68-.68,1.91,1.91,0,0,1-.26-1Zm7.61,0a1.84,1.84,0,0,1,.26-1,1.73,1.73,0,0,1,.68-.68,1.84,1.84,0,0,1,1-.26h7.24a1.84,1.84,0,0,1,1,.26,1.74,1.74,0,0,1,.68.68,1.84,1.84,0,0,1,.26,1v0a1.91,1.91,0,0,1-.26,1,1.86,1.86,0,0,1-.68.68,1.92,1.92,0,0,1-1,.24h-7.24a1.92,1.92,0,0,1-1-.24,1.85,1.85,0,0,1-.68-.68,1.9,1.9,0,0,1-.26-1Z" fill="#fff"/></g></g><g opacity="0.3"><path d="M28.71,130.09a2.42,2.42,0,0,1,.34-1.28,2.27,2.27,0,0,1,.89-.89,2.42,2.42,0,0,1,1.28-.34h4.85a2.42,2.42,0,0,1,1.28.34,2.27,2.27,0,0,1,.89.89,2.42,2.42,0,0,1,.34,1.28v0a2.51,2.51,0,0,1-.34,1.3,2.43,2.43,0,0,1-.89.89,2.52,2.52,0,0,1-1.28.32H31.22a2.52,2.52,0,0,1-1.28-.32,2.43,2.43,0,0,1-.89-.89,2.51,2.51,0,0,1-.34-1.3Zm4.94,0a2.42,2.42,0,0,1,.34-1.28,2.27,2.27,0,0,1,.89-.89,2.42,2.42,0,0,1,1.28-.34h9.5a2.42,2.42,0,0,1,1.28.34,2.27,2.27,0,0,1,.89.89,2.42,2.42,0,0,1,.34,1.28v0a2.51,2.51,0,0,1-.34,1.3,2.43,2.43,0,0,1-.89.89,2.52,2.52,0,0,1-1.28.32h-9.5a2.52,2.52,0,0,1-1.28-.32,2.43,2.43,0,0,1-.89-.89,2.51,2.51,0,0,1-.34-1.3Zm9.58,0a2.42,2.42,0,0,1,.34-1.28,2.27,2.27,0,0,1,.89-.89,2.42,2.42,0,0,1,1.28-.34h9.5a2.42,2.42,0,0,1,1.28.34,2.27,2.27,0,0,1,.89.89,2.42,2.42,0,0,1,.34,1.28v0a2.51,2.51,0,0,1-.34,1.3,2.43,2.43,0,0,1-.89.89,2.52,2.52,0,0,1-1.28.32h-9.5a2.52,2.52,0,0,1-1.28-.32,2.43,2.43,0,0,1-.89-.89,2.51,2.51,0,0,1-.34-1.3Zm9.58,0a2.42,2.42,0,0,1,.34-1.28,2.27,2.27,0,0,1,.89-.89,2.42,2.42,0,0,1,1.28-.34h9.5a2.42,2.42,0,0,1,1.28.34,2.27,2.27,0,0,1,.89.89,2.42,2.42,0,0,1,.34,1.28v0a2.51,2.51,0,0,1-.34,1.3,2.43,2.43,0,0,1-.89.89,2.52,2.52,0,0,1-1.28.32h-9.5a2.52,2.52,0,0,1-1.28-.32,2.43,2.43,0,0,1-.89-.89,2.51,2.51,0,0,1-.34-1.3Zm9.58,0a2.42,2.42,0,0,1,.34-1.28,2.27,2.27,0,0,1,.89-.89,2.42,2.42,0,0,1,1.28-.34h4.85a2.42,2.42,0,0,1,1.28.34,2.27,2.27,0,0,1,.89.89,2.42,2.42,0,0,1,.34,1.28v0a2.51,2.51,0,0,1-.34,1.3,2.43,2.43,0,0,1-.89.89,2.52,2.52,0,0,1-1.28.32H64.9a2.52,2.52,0,0,1-1.28-.32,2.43,2.43,0,0,1-.89-.89,2.51,2.51,0,0,1-.34-1.3Zm15.16,0a2.42,2.42,0,0,1,.34-1.28,2.27,2.27,0,0,1,.89-.89,2.42,2.42,0,0,1,1.28-.34h9.5a2.42,2.42,0,0,1,1.28.34,2.27,2.27,0,0,1,.89.89,2.42,2.42,0,0,1,.34,1.28v0a2.51,2.51,0,0,1-.34,1.3,2.43,2.43,0,0,1-.89.89,2.52,2.52,0,0,1-1.28.32h-9.5a2.52,2.52,0,0,1-1.28-.32,2.43,2.43,0,0,1-.89-.89,2.51,2.51,0,0,1-.34-1.3Zm9.58,0a2.42,2.42,0,0,1,.34-1.28,2.27,2.27,0,0,1,.89-.89,2.42,2.42,0,0,1,1.28-.34h9.5a2.42,2.42,0,0,1,1.28.34,2.28,2.28,0,0,1,.89.89,2.42,2.42,0,0,1,.34,1.28v0a2.51,2.51,0,0,1-.34,1.3,2.44,2.44,0,0,1-.89.89,2.52,2.52,0,0,1-1.28.32h-9.5a2.52,2.52,0,0,1-1.28-.32,2.43,2.43,0,0,1-.89-.89,2.51,2.51,0,0,1-.34-1.3Zm9.58,0a2.42,2.42,0,0,1,.34-1.28,2.27,2.27,0,0,1,.89-.89,2.42,2.42,0,0,1,1.28-.34h9.5a2.41,2.41,0,0,1,1.28.34,2.27,2.27,0,0,1,.89.89,2.41,2.41,0,0,1,.34,1.28v0a2.51,2.51,0,0,1-.34,1.3,2.43,2.43,0,0,1-.89.89,2.52,2.52,0,0,1-1.28.32h-9.5a2.52,2.52,0,0,1-1.28-.32,2.43,2.43,0,0,1-.89-.89,2.51,2.51,0,0,1-.34-1.3Zm9.58,0a2.42,2.42,0,0,1,.34-1.28,2.28,2.28,0,0,1,.89-.89,2.42,2.42,0,0,1,1.28-.34h9.5a2.42,2.42,0,0,1,1.28.34,2.28,2.28,0,0,1,.89.89,2.42,2.42,0,0,1,.34,1.28v0a2.51,2.51,0,0,1-.34,1.3,2.44,2.44,0,0,1-.89.89,2.52,2.52,0,0,1-1.28.32h-9.5a2.52,2.52,0,0,1-1.28-.32,2.44,2.44,0,0,1-.89-.89,2.51,2.51,0,0,1-.34-1.3Zm19.8,0a2.41,2.41,0,0,1,.34-1.28,2.27,2.27,0,0,1,.89-.89,2.41,2.41,0,0,1,1.28-.34h9.5a2.42,2.42,0,0,1,1.28.34,2.27,2.27,0,0,1,.89.89,2.41,2.41,0,0,1,.34,1.28v0a2.51,2.51,0,0,1-.34,1.3,2.43,2.43,0,0,1-.89.89,2.53,2.53,0,0,1-1.28.32h-9.5a2.52,2.52,0,0,1-1.28-.32,2.43,2.43,0,0,1-.89-.89,2.51,2.51,0,0,1-.34-1.3Zm9.58,0a2.42,2.42,0,0,1,.34-1.28,2.28,2.28,0,0,1,.89-.89,2.42,2.42,0,0,1,1.28-.34h9.5a2.41,2.41,0,0,1,1.28.34,2.28,2.28,0,0,1,.89.89,2.42,2.42,0,0,1,.34,1.28v0a2.52,2.52,0,0,1-.34,1.3,2.44,2.44,0,0,1-.89.89,2.52,2.52,0,0,1-1.28.32h-9.5a2.52,2.52,0,0,1-1.28-.32,2.44,2.44,0,0,1-.89-.89,2.51,2.51,0,0,1-.34-1.3Zm9.58,0a2.41,2.41,0,0,1,.34-1.28,2.27,2.27,0,0,1,.89-.89,2.41,2.41,0,0,1,1.28-.34h4.85a2.41,2.41,0,0,1,1.28.34,2.28,2.28,0,0,1,.89.89,2.42,2.42,0,0,1,.34,1.28v0a2.52,2.52,0,0,1-.34,1.3,2.44,2.44,0,0,1-.89.89,2.52,2.52,0,0,1-1.28.32h-4.85a2.52,2.52,0,0,1-1.28-.32,2.43,2.43,0,0,1-.89-.89,2.51,2.51,0,0,1-.34-1.3Zm4.94,0a2.42,2.42,0,0,1,.34-1.28,2.28,2.28,0,0,1,.89-.89,2.42,2.42,0,0,1,1.28-.34h9.5a2.42,2.42,0,0,1,1.28.34,2.28,2.28,0,0,1,.89.89,2.42,2.42,0,0,1,.34,1.28v0a2.51,2.51,0,0,1-.34,1.3,2.44,2.44,0,0,1-.89.89,2.52,2.52,0,0,1-1.28.32h-9.5a2.52,2.52,0,0,1-1.28-.32,2.44,2.44,0,0,1-.89-.89,2.51,2.51,0,0,1-.34-1.3Z" fill="#486284"/><path d="M24,178.47a6.92,6.92,0,0,1,1-3.66,6.5,6.5,0,0,1,2.55-2.55,6.91,6.91,0,0,1,3.66-1H58.33a6.91,6.91,0,0,1,3.66,1,6.5,6.5,0,0,1,2.55,2.55,6.92,6.92,0,0,1,1,3.66v.1a7.17,7.17,0,0,1-1,3.71A6.94,6.94,0,0,1,62,184.82a7.19,7.19,0,0,1-3.66.91H31.19a7.19,7.19,0,0,1-3.66-.91A6.94,6.94,0,0,1,25,182.27a7.17,7.17,0,0,1-1-3.71Zm27.42,0a6.92,6.92,0,0,1,1-3.66A6.5,6.5,0,0,1,55,172.26a6.91,6.91,0,0,1,3.66-1H85.75a6.91,6.91,0,0,1,3.66,1A6.5,6.5,0,0,1,92,174.81a6.92,6.92,0,0,1,1,3.66v.1a7.17,7.17,0,0,1-1,3.71,6.94,6.94,0,0,1-2.55,2.55,7.19,7.19,0,0,1-3.66.91H58.61a7.19,7.19,0,0,1-3.66-.91,6.94,6.94,0,0,1-2.55-2.55,7.17,7.17,0,0,1-1-3.71Zm27.42,0a6.92,6.92,0,0,1,1-3.66,6.5,6.5,0,0,1,2.55-2.55,6.91,6.91,0,0,1,3.66-1h27.14a6.91,6.91,0,0,1,3.66,1,6.5,6.5,0,0,1,2.55,2.55,6.92,6.92,0,0,1,1,3.66v.1a7.18,7.18,0,0,1-1,3.71,6.94,6.94,0,0,1-2.55,2.55,7.19,7.19,0,0,1-3.66.91H86a7.19,7.19,0,0,1-3.66-.91,6.94,6.94,0,0,1-2.55-2.55,7.17,7.17,0,0,1-1-3.71Zm27.42,0a6.92,6.92,0,0,1,1-3.66,6.5,6.5,0,0,1,2.55-2.55,6.91,6.91,0,0,1,3.66-1h13.86a6.91,6.91,0,0,1,3.66,1,6.51,6.51,0,0,1,2.55,2.55,6.91,6.91,0,0,1,1,3.66v.1a7.17,7.17,0,0,1-1,3.71,7,7,0,0,1-2.55,2.55,7.2,7.2,0,0,1-3.66.91H113.46a7.19,7.19,0,0,1-3.66-.91,6.94,6.94,0,0,1-2.55-2.55,7.18,7.18,0,0,1-1-3.71Zm43.42,0a6.92,6.92,0,0,1,1-3.66,6.5,6.5,0,0,1,2.55-2.55,6.91,6.91,0,0,1,3.66-1H184a6.91,6.91,0,0,1,3.66,1,6.49,6.49,0,0,1,2.55,2.55,6.91,6.91,0,0,1,1,3.66v.1a7.17,7.17,0,0,1-1,3.71,6.93,6.93,0,0,1-2.55,2.55,7.19,7.19,0,0,1-3.66.91H156.88a7.19,7.19,0,0,1-3.66-.91,6.94,6.94,0,0,1-2.55-2.55,7.18,7.18,0,0,1-1-3.71Zm27.42,0a6.92,6.92,0,0,1,1-3.66,6.5,6.5,0,0,1,2.55-2.55,6.91,6.91,0,0,1,3.66-1h27.14a6.91,6.91,0,0,1,3.66,1,6.51,6.51,0,0,1,2.55,2.55,6.91,6.91,0,0,1,1,3.66v.1a7.17,7.17,0,0,1-1,3.71,7,7,0,0,1-2.55,2.55,7.2,7.2,0,0,1-3.66.91H184.3a7.19,7.19,0,0,1-3.66-.91,6.94,6.94,0,0,1-2.55-2.55,7.18,7.18,0,0,1-1-3.71Zm27.42,0a6.91,6.91,0,0,1,1-3.66,6.49,6.49,0,0,1,2.55-2.55,6.91,6.91,0,0,1,3.66-1h13.86a6.91,6.91,0,0,1,3.66,1,6.49,6.49,0,0,1,2.55,2.55,6.91,6.91,0,0,1,1,3.66v.1a7.17,7.17,0,0,1-1,3.71,6.93,6.93,0,0,1-2.55,2.55,7.19,7.19,0,0,1-3.66.91H211.72a7.19,7.19,0,0,1-3.66-.91,6.93,6.93,0,0,1-2.55-2.55,7.17,7.17,0,0,1-1-3.71Zm14.17,0a6.91,6.91,0,0,1,1-3.66,6.49,6.49,0,0,1,2.55-2.55,6.91,6.91,0,0,1,3.66-1H253a6.91,6.91,0,0,1,3.66,1,6.49,6.49,0,0,1,2.55,2.55,6.91,6.91,0,0,1,1,3.66v.1a7.17,7.17,0,0,1-1,3.71,6.93,6.93,0,0,1-2.55,2.55,7.19,7.19,0,0,1-3.66.91H225.89a7.19,7.19,0,0,1-3.66-.91,6.93,6.93,0,0,1-2.55-2.55,7.17,7.17,0,0,1-1-3.71Z" fill="#486284"/><path d="M28.83,231.6a2.3,2.3,0,0,1,.32-1.22,2.17,2.17,0,0,1,.85-.85,2.3,2.3,0,0,1,1.22-.32h9a2.3,2.3,0,0,1,1.22.32,2.17,2.17,0,0,1,.85.85,2.3,2.3,0,0,1,.32,1.22v0a2.39,2.39,0,0,1-.32,1.24,2.31,2.31,0,0,1-.85.85,2.39,2.39,0,0,1-1.22.3h-9a2.39,2.39,0,0,1-1.22-.3,2.31,2.31,0,0,1-.85-.85,2.39,2.39,0,0,1-.32-1.24Zm9.41,0a2.3,2.3,0,0,1,.32-1.22,2.17,2.17,0,0,1,.85-.85,2.3,2.3,0,0,1,1.22-.32h9a2.3,2.3,0,0,1,1.22.32,2.17,2.17,0,0,1,.85.85,2.3,2.3,0,0,1,.32,1.22v0a2.39,2.39,0,0,1-.32,1.24,2.31,2.31,0,0,1-.85.85,2.39,2.39,0,0,1-1.22.3h-9a2.39,2.39,0,0,1-1.22-.3,2.31,2.31,0,0,1-.85-.85,2.39,2.39,0,0,1-.32-1.24Zm9.41,0a2.3,2.3,0,0,1,.32-1.22,2.17,2.17,0,0,1,.85-.85,2.3,2.3,0,0,1,1.22-.32h4.62a2.3,2.3,0,0,1,1.22.32,2.17,2.17,0,0,1,.85.85A2.3,2.3,0,0,1,57,231.6v0a2.39,2.39,0,0,1-.32,1.24,2.31,2.31,0,0,1-.85.85,2.39,2.39,0,0,1-1.22.3H50a2.39,2.39,0,0,1-1.22-.3,2.31,2.31,0,0,1-.85-.85,2.39,2.39,0,0,1-.32-1.24Zm5,0a2.3,2.3,0,0,1,.32-1.22,2.17,2.17,0,0,1,.85-.85,2.3,2.3,0,0,1,1.22-.32h9a2.3,2.3,0,0,1,1.22.32,2.17,2.17,0,0,1,.85.85,2.3,2.3,0,0,1,.32,1.22v0a2.39,2.39,0,0,1-.32,1.24,2.31,2.31,0,0,1-.85.85,2.39,2.39,0,0,1-1.22.3H55a2.39,2.39,0,0,1-1.22-.3,2.31,2.31,0,0,1-.85-.85,2.39,2.39,0,0,1-.32-1.24Zm9.41,0a2.31,2.31,0,0,1,.32-1.22,2.17,2.17,0,0,1,.85-.85,2.3,2.3,0,0,1,1.22-.32h9a2.3,2.3,0,0,1,1.22.32,2.17,2.17,0,0,1,.85.85,2.3,2.3,0,0,1,.32,1.22v0a2.39,2.39,0,0,1-.32,1.24,2.31,2.31,0,0,1-.85.85,2.39,2.39,0,0,1-1.22.3h-9a2.39,2.39,0,0,1-1.22-.3,2.31,2.31,0,0,1-.85-.85,2.39,2.39,0,0,1-.32-1.24Zm9.41,0a2.31,2.31,0,0,1,.32-1.22,2.17,2.17,0,0,1,.85-.85,2.3,2.3,0,0,1,1.22-.32h9a2.3,2.3,0,0,1,1.22.32,2.17,2.17,0,0,1,.85.85,2.3,2.3,0,0,1,.32,1.22v0a2.39,2.39,0,0,1-.32,1.24,2.31,2.31,0,0,1-.85.85,2.39,2.39,0,0,1-1.22.3h-9a2.39,2.39,0,0,1-1.22-.3,2.31,2.31,0,0,1-.85-.85,2.39,2.39,0,0,1-.32-1.24Zm9.41,0a2.31,2.31,0,0,1,.32-1.22,2.17,2.17,0,0,1,.85-.85,2.3,2.3,0,0,1,1.22-.32h9a2.3,2.3,0,0,1,1.22.32,2.17,2.17,0,0,1,.85.85,2.31,2.31,0,0,1,.32,1.22v0a2.39,2.39,0,0,1-.32,1.24,2.31,2.31,0,0,1-.85.85,2.39,2.39,0,0,1-1.22.3h-9a2.39,2.39,0,0,1-1.22-.3,2.31,2.31,0,0,1-.85-.85,2.39,2.39,0,0,1-.32-1.24Zm19.43,0a2.31,2.31,0,0,1,.32-1.22,2.17,2.17,0,0,1,.85-.85,2.3,2.3,0,0,1,1.22-.32h4.62a2.3,2.3,0,0,1,1.22.32,2.16,2.16,0,0,1,.85.85,2.3,2.3,0,0,1,.32,1.22v0a2.39,2.39,0,0,1-.32,1.24,2.3,2.3,0,0,1-.85.85,2.39,2.39,0,0,1-1.22.3h-4.62a2.39,2.39,0,0,1-1.22-.3,2.31,2.31,0,0,1-.85-.85,2.4,2.4,0,0,1-.32-1.24Zm5,0a2.3,2.3,0,0,1,.32-1.22,2.17,2.17,0,0,1,.85-.85,2.3,2.3,0,0,1,1.22-.32h9a2.3,2.3,0,0,1,1.22.32,2.16,2.16,0,0,1,.85.85,2.3,2.3,0,0,1,.32,1.22v0a2.39,2.39,0,0,1-.32,1.24,2.3,2.3,0,0,1-.85.85,2.39,2.39,0,0,1-1.22.3h-9a2.39,2.39,0,0,1-1.22-.3,2.31,2.31,0,0,1-.85-.85,2.39,2.39,0,0,1-.32-1.24Zm19.43,0a2.3,2.3,0,0,1,.32-1.22,2.16,2.16,0,0,1,.85-.85,2.3,2.3,0,0,1,1.22-.32h9a2.31,2.31,0,0,1,1.22.32,2.17,2.17,0,0,1,.85.85,2.3,2.3,0,0,1,.32,1.22v0a2.39,2.39,0,0,1-.32,1.24,2.31,2.31,0,0,1-.85.85,2.39,2.39,0,0,1-1.22.3h-9a2.39,2.39,0,0,1-1.22-.3,2.3,2.3,0,0,1-.85-.85,2.39,2.39,0,0,1-.32-1.24Zm9.41,0a2.3,2.3,0,0,1,.32-1.22,2.16,2.16,0,0,1,.85-.85,2.3,2.3,0,0,1,1.22-.32h9a2.3,2.3,0,0,1,1.22.32,2.17,2.17,0,0,1,.85.85,2.31,2.31,0,0,1,.32,1.22v0a2.4,2.4,0,0,1-.32,1.24,2.31,2.31,0,0,1-.85.85,2.39,2.39,0,0,1-1.22.3h-9a2.39,2.39,0,0,1-1.22-.3,2.3,2.3,0,0,1-.85-.85,2.39,2.39,0,0,1-.32-1.24Zm9.41,0a2.3,2.3,0,0,1,.32-1.22,2.16,2.16,0,0,1,.85-.85,2.3,2.3,0,0,1,1.22-.32h4.62a2.3,2.3,0,0,1,1.22.32,2.16,2.16,0,0,1,.85.85,2.3,2.3,0,0,1,.32,1.22v0a2.39,2.39,0,0,1-.32,1.24,2.3,2.3,0,0,1-.85.85,2.39,2.39,0,0,1-1.22.3h-4.62a2.39,2.39,0,0,1-1.22-.3,2.3,2.3,0,0,1-.85-.85,2.39,2.39,0,0,1-.32-1.24Zm5,0a2.3,2.3,0,0,1,.32-1.22,2.17,2.17,0,0,1,.85-.85,2.31,2.31,0,0,1,1.22-.32h9a2.3,2.3,0,0,1,1.22.32,2.16,2.16,0,0,1,.85.85,2.3,2.3,0,0,1,.32,1.22v0a2.39,2.39,0,0,1-.32,1.24,2.3,2.3,0,0,1-.85.85,2.39,2.39,0,0,1-1.22.3h-9a2.39,2.39,0,0,1-1.22-.3,2.31,2.31,0,0,1-.85-.85,2.39,2.39,0,0,1-.32-1.24Zm9.41,0a2.3,2.3,0,0,1,.32-1.22,2.17,2.17,0,0,1,.85-.85,2.3,2.3,0,0,1,1.22-.32h9a2.3,2.3,0,0,1,1.22.32,2.17,2.17,0,0,1,.85.85,2.3,2.3,0,0,1,.32,1.22v0a2.39,2.39,0,0,1-.32,1.24,2.31,2.31,0,0,1-.85.85,2.39,2.39,0,0,1-1.22.3h-9a2.39,2.39,0,0,1-1.22-.3,2.31,2.31,0,0,1-.85-.85,2.39,2.39,0,0,1-.32-1.24Zm9.41,0a2.3,2.3,0,0,1,.32-1.22,2.16,2.16,0,0,1,.85-.85,2.3,2.3,0,0,1,1.22-.32h4.62a2.31,2.31,0,0,1,1.22.32,2.17,2.17,0,0,1,.85.85,2.3,2.3,0,0,1,.32,1.22v0a2.39,2.39,0,0,1-.32,1.24,2.31,2.31,0,0,1-.85.85,2.39,2.39,0,0,1-1.22.3h-4.62a2.39,2.39,0,0,1-1.22-.3,2.3,2.3,0,0,1-.85-.85,2.39,2.39,0,0,1-.32-1.24Zm15,0a2.3,2.3,0,0,1,.32-1.22,2.17,2.17,0,0,1,.85-.85,2.31,2.31,0,0,1,1.22-.32h9a2.3,2.3,0,0,1,1.22.32,2.16,2.16,0,0,1,.85.85,2.3,2.3,0,0,1,.32,1.22v0a2.39,2.39,0,0,1-.32,1.24,2.3,2.3,0,0,1-.85.85,2.39,2.39,0,0,1-1.22.3h-9a2.39,2.39,0,0,1-1.22-.3,2.31,2.31,0,0,1-.85-.85,2.39,2.39,0,0,1-.32-1.24Zm9.41,0a2.3,2.3,0,0,1,.32-1.22,2.17,2.17,0,0,1,.85-.85,2.31,2.31,0,0,1,1.22-.32h4.62a2.3,2.3,0,0,1,1.22.32,2.16,2.16,0,0,1,.85.85,2.3,2.3,0,0,1,.32,1.22v0a2.39,2.39,0,0,1-.32,1.24,2.3,2.3,0,0,1-.85.85,2.39,2.39,0,0,1-1.22.3h-4.62a2.39,2.39,0,0,1-1.22-.3,2.31,2.31,0,0,1-.85-.85,2.39,2.39,0,0,1-.32-1.24Zm5,0a2.3,2.3,0,0,1,.32-1.22,2.16,2.16,0,0,1,.85-.85,2.3,2.3,0,0,1,1.22-.32h4.62a2.31,2.31,0,0,1,1.22.32,2.17,2.17,0,0,1,.85.85,2.3,2.3,0,0,1,.32,1.22v0a2.39,2.39,0,0,1-.32,1.24,2.31,2.31,0,0,1-.85.85,2.39,2.39,0,0,1-1.22.3h-4.62a2.39,2.39,0,0,1-1.22-.3,2.3,2.3,0,0,1-.85-.85,2.39,2.39,0,0,1-.32-1.24Zm5,0a2.31,2.31,0,0,1,.32-1.22,2.17,2.17,0,0,1,.85-.85,2.3,2.3,0,0,1,1.22-.32h9a2.3,2.3,0,0,1,1.22.32,2.16,2.16,0,0,1,.85.85,2.3,2.3,0,0,1,.32,1.22v0a2.39,2.39,0,0,1-.32,1.24,2.3,2.3,0,0,1-.85.85,2.39,2.39,0,0,1-1.22.3h-9a2.39,2.39,0,0,1-1.22-.3,2.31,2.31,0,0,1-.85-.85,2.4,2.4,0,0,1-.32-1.24Zm9.41,0a2.3,2.3,0,0,1,.32-1.22,2.17,2.17,0,0,1,.85-.85,2.31,2.31,0,0,1,1.22-.32h9a2.3,2.3,0,0,1,1.22.32,2.16,2.16,0,0,1,.85.85,2.3,2.3,0,0,1,.32,1.22v0a2.39,2.39,0,0,1-.32,1.24,2.3,2.3,0,0,1-.85.85,2.39,2.39,0,0,1-1.22.3h-9a2.39,2.39,0,0,1-1.22-.3,2.31,2.31,0,0,1-.85-.85,2.39,2.39,0,0,1-.32-1.24Zm9.41,0a2.3,2.3,0,0,1,.32-1.22,2.17,2.17,0,0,1,.85-.85,2.31,2.31,0,0,1,1.22-.32h4.62a2.3,2.3,0,0,1,1.22.32,2.16,2.16,0,0,1,.85.85,2.3,2.3,0,0,1,.32,1.22v0a2.39,2.39,0,0,1-.32,1.24,2.3,2.3,0,0,1-.85.85,2.39,2.39,0,0,1-1.22.3h-4.62a2.39,2.39,0,0,1-1.22-.3,2.31,2.31,0,0,1-.85-.85,2.39,2.39,0,0,1-.32-1.24Zm-191.71,26a2.3,2.3,0,0,1,.32-1.22,2.17,2.17,0,0,1,.85-.85,2.3,2.3,0,0,1,1.22-.32h9a2.3,2.3,0,0,1,1.22.32,2.17,2.17,0,0,1,.85.85,2.3,2.3,0,0,1,.32,1.22v0a2.39,2.39,0,0,1-.32,1.23,2.31,2.31,0,0,1-.85.85,2.39,2.39,0,0,1-1.22.3h-9a2.39,2.39,0,0,1-1.22-.3,2.31,2.31,0,0,1-.85-.85,2.39,2.39,0,0,1-.32-1.23Zm9.41,0a2.3,2.3,0,0,1,.32-1.22,2.17,2.17,0,0,1,.85-.85,2.3,2.3,0,0,1,1.22-.32h9a2.3,2.3,0,0,1,1.22.32,2.17,2.17,0,0,1,.85.85,2.3,2.3,0,0,1,.32,1.22v0a2.39,2.39,0,0,1-.32,1.23,2.31,2.31,0,0,1-.85.85,2.39,2.39,0,0,1-1.22.3h-9a2.39,2.39,0,0,1-1.22-.3,2.31,2.31,0,0,1-.85-.85,2.39,2.39,0,0,1-.32-1.23Zm9.41,0a2.3,2.3,0,0,1,.32-1.22,2.17,2.17,0,0,1,.85-.85,2.3,2.3,0,0,1,1.22-.32h9a2.3,2.3,0,0,1,1.22.32,2.17,2.17,0,0,1,.85.85,2.3,2.3,0,0,1,.32,1.22v0a2.39,2.39,0,0,1-.32,1.23,2.31,2.31,0,0,1-.85.85,2.39,2.39,0,0,1-1.22.3H50a2.39,2.39,0,0,1-1.22-.3,2.31,2.31,0,0,1-.85-.85,2.39,2.39,0,0,1-.32-1.23Zm9.41,0a2.31,2.31,0,0,1,.32-1.22,2.17,2.17,0,0,1,.85-.85,2.3,2.3,0,0,1,1.22-.32h9a2.3,2.3,0,0,1,1.22.32,2.17,2.17,0,0,1,.85.85,2.3,2.3,0,0,1,.32,1.22v0a2.39,2.39,0,0,1-.32,1.23,2.31,2.31,0,0,1-.85.85,2.39,2.39,0,0,1-1.22.3h-9a2.39,2.39,0,0,1-1.22-.3,2.31,2.31,0,0,1-.85-.85,2.39,2.39,0,0,1-.32-1.23Zm9.41,0a2.31,2.31,0,0,1,.32-1.22,2.17,2.17,0,0,1,.85-.85,2.3,2.3,0,0,1,1.22-.32h4.62a2.3,2.3,0,0,1,1.22.32,2.17,2.17,0,0,1,.85.85,2.3,2.3,0,0,1,.32,1.22v0a2.39,2.39,0,0,1-.32,1.23,2.31,2.31,0,0,1-.85.85,2.39,2.39,0,0,1-1.22.3H68.86a2.39,2.39,0,0,1-1.22-.3,2.31,2.31,0,0,1-.85-.85,2.39,2.39,0,0,1-.32-1.23Zm5,0a2.31,2.31,0,0,1,.32-1.22,2.17,2.17,0,0,1,.85-.85,2.3,2.3,0,0,1,1.22-.32h9a2.3,2.3,0,0,1,1.22.32,2.17,2.17,0,0,1,.85.85,2.3,2.3,0,0,1,.32,1.22v0a2.39,2.39,0,0,1-.32,1.23,2.31,2.31,0,0,1-.85.85,2.39,2.39,0,0,1-1.22.3h-9a2.39,2.39,0,0,1-1.22-.3,2.31,2.31,0,0,1-.85-.85,2.39,2.39,0,0,1-.32-1.23Zm19.43,0a2.3,2.3,0,0,1,.32-1.22,2.17,2.17,0,0,1,.85-.85,2.3,2.3,0,0,1,1.22-.32h9a2.3,2.3,0,0,1,1.22.32,2.17,2.17,0,0,1,.85.85,2.31,2.31,0,0,1,.32,1.22v0a2.4,2.4,0,0,1-.32,1.23,2.31,2.31,0,0,1-.85.85,2.39,2.39,0,0,1-1.22.3h-9a2.39,2.39,0,0,1-1.22-.3,2.31,2.31,0,0,1-.85-.85,2.39,2.39,0,0,1-.32-1.23Zm9.41,0a2.31,2.31,0,0,1,.32-1.22,2.17,2.17,0,0,1,.85-.85,2.3,2.3,0,0,1,1.22-.32h9a2.3,2.3,0,0,1,1.22.32,2.16,2.16,0,0,1,.85.85,2.3,2.3,0,0,1,.32,1.22v0a2.39,2.39,0,0,1-.32,1.23,2.3,2.3,0,0,1-.85.85,2.39,2.39,0,0,1-1.22.3h-9a2.39,2.39,0,0,1-1.22-.3,2.31,2.31,0,0,1-.85-.85,2.4,2.4,0,0,1-.32-1.23Zm9.41,0a2.31,2.31,0,0,1,.32-1.22,2.17,2.17,0,0,1,.85-.85,2.3,2.3,0,0,1,1.22-.32h9a2.3,2.3,0,0,1,1.22.32,2.16,2.16,0,0,1,.85.85,2.3,2.3,0,0,1,.32,1.22v0a2.39,2.39,0,0,1-.32,1.23,2.3,2.3,0,0,1-.85.85,2.39,2.39,0,0,1-1.22.3h-9a2.39,2.39,0,0,1-1.22-.3,2.31,2.31,0,0,1-.85-.85,2.4,2.4,0,0,1-.32-1.23Zm19.43,0a2.3,2.3,0,0,1,.32-1.22,2.17,2.17,0,0,1,.85-.85,2.3,2.3,0,0,1,1.22-.32h4.62a2.3,2.3,0,0,1,1.22.32,2.17,2.17,0,0,1,.85.85,2.3,2.3,0,0,1,.32,1.22v0a2.39,2.39,0,0,1-.32,1.23,2.31,2.31,0,0,1-.85.85,2.39,2.39,0,0,1-1.22.3h-4.62a2.39,2.39,0,0,1-1.22-.3,2.31,2.31,0,0,1-.85-.85,2.39,2.39,0,0,1-.32-1.23Zm5,0a2.3,2.3,0,0,1,.32-1.22,2.16,2.16,0,0,1,.85-.85,2.3,2.3,0,0,1,1.22-.32h9a2.3,2.3,0,0,1,1.22.32,2.17,2.17,0,0,1,.85.85,2.31,2.31,0,0,1,.32,1.22v0a2.4,2.4,0,0,1-.32,1.23,2.31,2.31,0,0,1-.85.85,2.39,2.39,0,0,1-1.22.3h-9a2.39,2.39,0,0,1-1.22-.3,2.3,2.3,0,0,1-.85-.85,2.39,2.39,0,0,1-.32-1.23Zm9.41,0a2.3,2.3,0,0,1,.32-1.22,2.16,2.16,0,0,1,.85-.85,2.3,2.3,0,0,1,1.22-.32h9a2.3,2.3,0,0,1,1.22.32,2.17,2.17,0,0,1,.85.85,2.31,2.31,0,0,1,.32,1.22v0a2.4,2.4,0,0,1-.32,1.23,2.31,2.31,0,0,1-.85.85,2.39,2.39,0,0,1-1.22.3h-9a2.39,2.39,0,0,1-1.22-.3,2.3,2.3,0,0,1-.85-.85,2.39,2.39,0,0,1-.32-1.23Zm9.41,0a2.31,2.31,0,0,1,.32-1.22,2.17,2.17,0,0,1,.85-.85,2.3,2.3,0,0,1,1.22-.32h9a2.3,2.3,0,0,1,1.22.32,2.16,2.16,0,0,1,.85.85,2.3,2.3,0,0,1,.32,1.22v0a2.39,2.39,0,0,1-.32,1.23,2.3,2.3,0,0,1-.85.85,2.39,2.39,0,0,1-1.22.3h-9a2.39,2.39,0,0,1-1.22-.3,2.31,2.31,0,0,1-.85-.85,2.4,2.4,0,0,1-.32-1.23Zm9.41,0a2.3,2.3,0,0,1,.32-1.22,2.18,2.18,0,0,1,.85-.85,2.31,2.31,0,0,1,1.22-.32h4.62a2.3,2.3,0,0,1,1.22.32,2.16,2.16,0,0,1,.85.85,2.3,2.3,0,0,1,.32,1.22v0a2.39,2.39,0,0,1-.32,1.23,2.3,2.3,0,0,1-.85.85,2.39,2.39,0,0,1-1.22.3h-4.62a2.39,2.39,0,0,1-1.22-.3,2.32,2.32,0,0,1-.85-.85,2.39,2.39,0,0,1-.32-1.23Zm5,0a2.3,2.3,0,0,1,.32-1.22,2.16,2.16,0,0,1,.85-.85,2.3,2.3,0,0,1,1.22-.32h4.62a2.31,2.31,0,0,1,1.22.32,2.17,2.17,0,0,1,.85.85,2.3,2.3,0,0,1,.32,1.22v0a2.39,2.39,0,0,1-.32,1.23,2.31,2.31,0,0,1-.85.85,2.39,2.39,0,0,1-1.22.3h-4.62a2.39,2.39,0,0,1-1.22-.3,2.3,2.3,0,0,1-.85-.85,2.39,2.39,0,0,1-.32-1.23Zm15,0a2.3,2.3,0,0,1,.32-1.22,2.17,2.17,0,0,1,.85-.85,2.31,2.31,0,0,1,1.22-.32h9a2.3,2.3,0,0,1,1.22.32,2.16,2.16,0,0,1,.85.85,2.3,2.3,0,0,1,.32,1.22v0a2.39,2.39,0,0,1-.32,1.23,2.3,2.3,0,0,1-.85.85,2.39,2.39,0,0,1-1.22.3h-9a2.39,2.39,0,0,1-1.22-.3,2.31,2.31,0,0,1-.85-.85,2.39,2.39,0,0,1-.32-1.23Zm9.41,0a2.3,2.3,0,0,1,.32-1.22,2.17,2.17,0,0,1,.85-.85,2.31,2.31,0,0,1,1.22-.32h9a2.3,2.3,0,0,1,1.22.32,2.16,2.16,0,0,1,.85.85,2.3,2.3,0,0,1,.32,1.22v0a2.39,2.39,0,0,1-.32,1.23,2.3,2.3,0,0,1-.85.85,2.39,2.39,0,0,1-1.22.3h-9a2.39,2.39,0,0,1-1.22-.3,2.31,2.31,0,0,1-.85-.85,2.39,2.39,0,0,1-.32-1.23Zm9.41,0a2.3,2.3,0,0,1,.32-1.22,2.17,2.17,0,0,1,.85-.85,2.3,2.3,0,0,1,1.22-.32h4.62a2.3,2.3,0,0,1,1.22.32,2.17,2.17,0,0,1,.85.85,2.3,2.3,0,0,1,.32,1.22v0a2.39,2.39,0,0,1-.32,1.23,2.31,2.31,0,0,1-.85.85,2.39,2.39,0,0,1-1.22.3h-4.62a2.39,2.39,0,0,1-1.22-.3,2.31,2.31,0,0,1-.85-.85,2.39,2.39,0,0,1-.32-1.23Zm-172.32,26a2.3,2.3,0,0,1,.32-1.22,2.17,2.17,0,0,1,.85-.85,2.3,2.3,0,0,1,1.22-.32h9a2.3,2.3,0,0,1,1.22.32,2.17,2.17,0,0,1,.85.85,2.3,2.3,0,0,1,.32,1.22v0a2.39,2.39,0,0,1-.32,1.23,2.31,2.31,0,0,1-.85.85,2.39,2.39,0,0,1-1.22.3h-9a2.39,2.39,0,0,1-1.22-.3,2.31,2.31,0,0,1-.85-.85,2.39,2.39,0,0,1-.32-1.23Zm9.41,0a2.3,2.3,0,0,1,.32-1.22,2.17,2.17,0,0,1,.85-.85,2.3,2.3,0,0,1,1.22-.32h9a2.3,2.3,0,0,1,1.22.32,2.17,2.17,0,0,1,.85.85,2.3,2.3,0,0,1,.32,1.22v0a2.39,2.39,0,0,1-.32,1.23,2.31,2.31,0,0,1-.85.85,2.39,2.39,0,0,1-1.22.3h-9a2.39,2.39,0,0,1-1.22-.3,2.31,2.31,0,0,1-.85-.85,2.39,2.39,0,0,1-.32-1.23Zm9.41,0a2.3,2.3,0,0,1,.32-1.22,2.17,2.17,0,0,1,.85-.85,2.3,2.3,0,0,1,1.22-.32h9a2.3,2.3,0,0,1,1.22.32,2.17,2.17,0,0,1,.85.85,2.3,2.3,0,0,1,.32,1.22v0a2.39,2.39,0,0,1-.32,1.23,2.31,2.31,0,0,1-.85.85,2.39,2.39,0,0,1-1.22.3H50a2.39,2.39,0,0,1-1.22-.3,2.31,2.31,0,0,1-.85-.85,2.39,2.39,0,0,1-.32-1.23Zm9.41,0a2.31,2.31,0,0,1,.32-1.22,2.17,2.17,0,0,1,.85-.85,2.3,2.3,0,0,1,1.22-.32h4.62a2.3,2.3,0,0,1,1.22.32,2.17,2.17,0,0,1,.85.85,2.3,2.3,0,0,1,.32,1.22v0a2.39,2.39,0,0,1-.32,1.23,2.31,2.31,0,0,1-.85.85,2.39,2.39,0,0,1-1.22.3H59.45a2.39,2.39,0,0,1-1.22-.3,2.31,2.31,0,0,1-.85-.85,2.39,2.39,0,0,1-.32-1.23Zm5,0a2.31,2.31,0,0,1,.32-1.22,2.17,2.17,0,0,1,.85-.85,2.3,2.3,0,0,1,1.22-.32h9a2.3,2.3,0,0,1,1.22.32,2.17,2.17,0,0,1,.85.85,2.3,2.3,0,0,1,.32,1.22v0a2.39,2.39,0,0,1-.32,1.23,2.31,2.31,0,0,1-.85.85,2.39,2.39,0,0,1-1.22.3h-9a2.39,2.39,0,0,1-1.22-.3,2.31,2.31,0,0,1-.85-.85,2.39,2.39,0,0,1-.32-1.23Zm9.41,0a2.31,2.31,0,0,1,.32-1.22,2.17,2.17,0,0,1,.85-.85,2.3,2.3,0,0,1,1.22-.32h9a2.3,2.3,0,0,1,1.22.32,2.17,2.17,0,0,1,.85.85,2.3,2.3,0,0,1,.32,1.22v0a2.39,2.39,0,0,1-.32,1.23,2.31,2.31,0,0,1-.85.85,2.39,2.39,0,0,1-1.22.3h-9a2.39,2.39,0,0,1-1.22-.3,2.31,2.31,0,0,1-.85-.85,2.39,2.39,0,0,1-.32-1.23Zm9.41,0a2.31,2.31,0,0,1,.32-1.22,2.17,2.17,0,0,1,.85-.85,2.3,2.3,0,0,1,1.22-.32h9a2.3,2.3,0,0,1,1.22.32,2.17,2.17,0,0,1,.85.85,2.31,2.31,0,0,1,.32,1.22v0a2.39,2.39,0,0,1-.32,1.23,2.31,2.31,0,0,1-.85.85,2.39,2.39,0,0,1-1.22.3h-9a2.39,2.39,0,0,1-1.22-.3,2.31,2.31,0,0,1-.85-.85,2.39,2.39,0,0,1-.32-1.23Zm9.41,0a2.3,2.3,0,0,1,.32-1.22,2.17,2.17,0,0,1,.85-.85,2.3,2.3,0,0,1,1.22-.32h4.62a2.3,2.3,0,0,1,1.22.32,2.17,2.17,0,0,1,.85.85,2.3,2.3,0,0,1,.32,1.22v0a2.39,2.39,0,0,1-.32,1.23,2.31,2.31,0,0,1-.85.85,2.39,2.39,0,0,1-1.22.3H92.66a2.39,2.39,0,0,1-1.22-.3,2.31,2.31,0,0,1-.85-.85,2.39,2.39,0,0,1-.32-1.23Zm5,0a2.3,2.3,0,0,1,.32-1.22,2.17,2.17,0,0,1,.85-.85,2.3,2.3,0,0,1,1.22-.32h9a2.3,2.3,0,0,1,1.22.32,2.16,2.16,0,0,1,.85.85,2.3,2.3,0,0,1,.32,1.22v0a2.39,2.39,0,0,1-.32,1.23,2.3,2.3,0,0,1-.85.85,2.39,2.39,0,0,1-1.22.3h-9a2.39,2.39,0,0,1-1.22-.3,2.31,2.31,0,0,1-.85-.85,2.39,2.39,0,0,1-.32-1.23Zm9.41,0a2.3,2.3,0,0,1,.32-1.22,2.17,2.17,0,0,1,.85-.85,2.31,2.31,0,0,1,1.22-.32h4.62a2.3,2.3,0,0,1,1.22.32,2.16,2.16,0,0,1,.85.85,2.3,2.3,0,0,1,.32,1.22v0a2.39,2.39,0,0,1-.32,1.23,2.3,2.3,0,0,1-.85.85,2.39,2.39,0,0,1-1.22.3h-4.62a2.39,2.39,0,0,1-1.22-.3,2.31,2.31,0,0,1-.85-.85,2.39,2.39,0,0,1-.32-1.23Zm5,0a2.3,2.3,0,0,1,.32-1.22,2.16,2.16,0,0,1,.85-.85,2.3,2.3,0,0,1,1.22-.32h4.62a2.31,2.31,0,0,1,1.22.32,2.17,2.17,0,0,1,.85.85,2.3,2.3,0,0,1,.32,1.22v0a2.39,2.39,0,0,1-.32,1.23,2.31,2.31,0,0,1-.85.85,2.39,2.39,0,0,1-1.22.3h-4.62a2.39,2.39,0,0,1-1.22-.3,2.3,2.3,0,0,1-.85-.85,2.39,2.39,0,0,1-.32-1.23Zm5,0a2.31,2.31,0,0,1,.32-1.22,2.17,2.17,0,0,1,.85-.85,2.3,2.3,0,0,1,1.22-.32h9a2.3,2.3,0,0,1,1.22.32,2.16,2.16,0,0,1,.85.85,2.3,2.3,0,0,1,.32,1.22v0a2.39,2.39,0,0,1-.32,1.23,2.3,2.3,0,0,1-.85.85,2.39,2.39,0,0,1-1.22.3h-9a2.39,2.39,0,0,1-1.22-.3,2.31,2.31,0,0,1-.85-.85,2.4,2.4,0,0,1-.32-1.23Zm9.41,0a2.3,2.3,0,0,1,.32-1.22,2.17,2.17,0,0,1,.85-.85,2.31,2.31,0,0,1,1.22-.32h9a2.3,2.3,0,0,1,1.22.32,2.16,2.16,0,0,1,.85.85,2.3,2.3,0,0,1,.32,1.22v0a2.39,2.39,0,0,1-.32,1.23,2.3,2.3,0,0,1-.85.85,2.39,2.39,0,0,1-1.22.3h-9a2.39,2.39,0,0,1-1.22-.3,2.31,2.31,0,0,1-.85-.85,2.39,2.39,0,0,1-.32-1.23Zm19.43,0a2.3,2.3,0,0,1,.32-1.22,2.17,2.17,0,0,1,.85-.85,2.3,2.3,0,0,1,1.22-.32h9a2.3,2.3,0,0,1,1.22.32,2.17,2.17,0,0,1,.85.85,2.3,2.3,0,0,1,.32,1.22v0a2.39,2.39,0,0,1-.32,1.23,2.31,2.31,0,0,1-.85.85,2.39,2.39,0,0,1-1.22.3h-9a2.39,2.39,0,0,1-1.22-.3,2.31,2.31,0,0,1-.85-.85,2.39,2.39,0,0,1-.32-1.23Zm9.41,0a2.3,2.3,0,0,1,.32-1.22,2.16,2.16,0,0,1,.85-.85,2.3,2.3,0,0,1,1.22-.32h9a2.31,2.31,0,0,1,1.22.32,2.17,2.17,0,0,1,.85.85,2.3,2.3,0,0,1,.32,1.22v0a2.39,2.39,0,0,1-.32,1.23,2.31,2.31,0,0,1-.85.85,2.39,2.39,0,0,1-1.22.3h-9a2.39,2.39,0,0,1-1.22-.3,2.3,2.3,0,0,1-.85-.85,2.39,2.39,0,0,1-.32-1.23Zm9.41,0a2.3,2.3,0,0,1,.32-1.22,2.16,2.16,0,0,1,.85-.85,2.3,2.3,0,0,1,1.22-.32h4.62a2.3,2.3,0,0,1,1.22.32,2.17,2.17,0,0,1,.85.85,2.31,2.31,0,0,1,.32,1.22v0a2.4,2.4,0,0,1-.32,1.23,2.31,2.31,0,0,1-.85.85,2.39,2.39,0,0,1-1.22.3h-4.62a2.39,2.39,0,0,1-1.22-.3,2.3,2.3,0,0,1-.85-.85,2.39,2.39,0,0,1-.32-1.23Zm5,0a2.3,2.3,0,0,1,.32-1.22,2.18,2.18,0,0,1,.85-.85,2.31,2.31,0,0,1,1.22-.32h9a2.3,2.3,0,0,1,1.22.32,2.16,2.16,0,0,1,.85.85,2.3,2.3,0,0,1,.32,1.22v0a2.39,2.39,0,0,1-.32,1.23,2.3,2.3,0,0,1-.85.85,2.39,2.39,0,0,1-1.22.3h-9a2.39,2.39,0,0,1-1.22-.3,2.32,2.32,0,0,1-.85-.85,2.39,2.39,0,0,1-.32-1.23Zm9.41,0a2.3,2.3,0,0,1,.32-1.22,2.17,2.17,0,0,1,.85-.85,2.31,2.31,0,0,1,1.22-.32h9a2.3,2.3,0,0,1,1.22.32,2.16,2.16,0,0,1,.85.85,2.3,2.3,0,0,1,.32,1.22v0a2.39,2.39,0,0,1-.32,1.23,2.3,2.3,0,0,1-.85.85,2.39,2.39,0,0,1-1.22.3h-9a2.39,2.39,0,0,1-1.22-.3,2.31,2.31,0,0,1-.85-.85,2.39,2.39,0,0,1-.32-1.23Zm9.41,0a2.3,2.3,0,0,1,.32-1.22,2.17,2.17,0,0,1,.85-.85,2.3,2.3,0,0,1,1.22-.32h4.62a2.3,2.3,0,0,1,1.22.32,2.17,2.17,0,0,1,.85.85,2.3,2.3,0,0,1,.32,1.22v0a2.39,2.39,0,0,1-.32,1.23,2.31,2.31,0,0,1-.85.85,2.39,2.39,0,0,1-1.22.3H188.5a2.39,2.39,0,0,1-1.22-.3,2.31,2.31,0,0,1-.85-.85,2.39,2.39,0,0,1-.32-1.23Zm5,0a2.3,2.3,0,0,1,.32-1.22,2.16,2.16,0,0,1,.85-.85,2.3,2.3,0,0,1,1.22-.32h9a2.31,2.31,0,0,1,1.22.32,2.18,2.18,0,0,1,.85.85,2.3,2.3,0,0,1,.32,1.22v0a2.39,2.39,0,0,1-.32,1.23,2.32,2.32,0,0,1-.85.85,2.39,2.39,0,0,1-1.22.3h-9a2.39,2.39,0,0,1-1.22-.3,2.3,2.3,0,0,1-.85-.85,2.39,2.39,0,0,1-.32-1.23Z" fill="#8ca2c0"/><path d="M50.86,314.4H89.7a19.22,19.22,0,0,1,19.22,19.22h0A19.22,19.22,0,0,1,89.7,352.84H50.86a19.22,19.22,0,0,1-19.22-19.22h0A19.22,19.22,0,0,1,50.86,314.4Z" fill="none"/><path d="M45.36,334.5a1.84,1.84,0,0,1,.26-1,1.73,1.73,0,0,1,.68-.68,1.85,1.85,0,0,1,1-.26H54.5a1.85,1.85,0,0,1,1,.26,1.73,1.73,0,0,1,.68.68,1.84,1.84,0,0,1,.26,1v0a1.91,1.91,0,0,1-.26,1,1.85,1.85,0,0,1-.68.68,1.92,1.92,0,0,1-1,.24H47.27a1.92,1.92,0,0,1-1-.24,1.85,1.85,0,0,1-.68-.68,1.91,1.91,0,0,1-.26-1Zm7.61,0a1.84,1.84,0,0,1,.26-1,1.73,1.73,0,0,1,.68-.68,1.85,1.85,0,0,1,1-.26h7.24a1.85,1.85,0,0,1,1,.26,1.73,1.73,0,0,1,.68.68,1.84,1.84,0,0,1,.26,1v0a1.91,1.91,0,0,1-.26,1,1.85,1.85,0,0,1-.68.68,1.92,1.92,0,0,1-1,.24H54.87a1.92,1.92,0,0,1-1-.24,1.85,1.85,0,0,1-.68-.68,1.91,1.91,0,0,1-.26-1Zm7.61,0a1.84,1.84,0,0,1,.26-1,1.73,1.73,0,0,1,.68-.68,1.85,1.85,0,0,1,1-.26h7.24a1.85,1.85,0,0,1,1,.26,1.73,1.73,0,0,1,.68.68,1.84,1.84,0,0,1,.26,1v0a1.91,1.91,0,0,1-.26,1,1.85,1.85,0,0,1-.68.68,1.92,1.92,0,0,1-1,.24H62.48a1.92,1.92,0,0,1-1-.24,1.85,1.85,0,0,1-.68-.68,1.91,1.91,0,0,1-.26-1Zm7.61,0a1.84,1.84,0,0,1,.26-1,1.73,1.73,0,0,1,.68-.68,1.85,1.85,0,0,1,1-.26h3.7a1.85,1.85,0,0,1,1,.26,1.73,1.73,0,0,1,.68.68,1.84,1.84,0,0,1,.26,1v0a1.91,1.91,0,0,1-.26,1,1.85,1.85,0,0,1-.68.68,1.92,1.92,0,0,1-1,.24h-3.7a1.92,1.92,0,0,1-1-.24,1.85,1.85,0,0,1-.68-.68,1.91,1.91,0,0,1-.26-1Zm4.07,0a1.84,1.84,0,0,1,.26-1,1.73,1.73,0,0,1,.68-.68,1.85,1.85,0,0,1,1-.26H81.4a1.85,1.85,0,0,1,1,.26,1.73,1.73,0,0,1,.68.68,1.84,1.84,0,0,1,.26,1v0a1.91,1.91,0,0,1-.26,1,1.85,1.85,0,0,1-.68.68,1.92,1.92,0,0,1-1,.24H74.16a1.92,1.92,0,0,1-1-.24,1.85,1.85,0,0,1-.68-.68,1.91,1.91,0,0,1-.26-1Zm7.61,0a1.84,1.84,0,0,1,.26-1,1.73,1.73,0,0,1,.68-.68,1.85,1.85,0,0,1,1-.26h3.7a1.85,1.85,0,0,1,1,.26,1.73,1.73,0,0,1,.68.68,1.84,1.84,0,0,1,.26,1v0a1.91,1.91,0,0,1-.26,1,1.85,1.85,0,0,1-.68.68,1.92,1.92,0,0,1-1,.24h-3.7a1.92,1.92,0,0,1-1-.24,1.85,1.85,0,0,1-.68-.68,1.91,1.91,0,0,1-.26-1Zm4.07,0a1.84,1.84,0,0,1,.26-1,1.73,1.73,0,0,1,.68-.68,1.85,1.85,0,0,1,1-.26h7.24a1.85,1.85,0,0,1,1,.26,1.73,1.73,0,0,1,.68.68,1.84,1.84,0,0,1,.26,1v0a1.91,1.91,0,0,1-.26,1,1.85,1.85,0,0,1-.68.68,1.92,1.92,0,0,1-1,.24H85.84a1.92,1.92,0,0,1-1-.24,1.85,1.85,0,0,1-.68-.68,1.91,1.91,0,0,1-.26-1Z" fill="#486284"/></g><g opacity="0.6"><rect x="32.83" y="397.54" width="278.3" height="256.56" rx="26.09" ry="26.09" fill="#e9ebef"/><path d="M224.16,566.4V485.23a11.63,11.63,0,0,0-11.6-11.6H131.4a11.63,11.63,0,0,0-11.6,11.6V566.4A11.63,11.63,0,0,0,131.4,578h81.17A11.63,11.63,0,0,0,224.16,566.4Zm-72.47-31.89L166.18,552l20.29-26.15,26.09,34.79H131.4Z" fill="#c4ccd6"/></g></g></g><rect x="0.5" y="0.5" width="335" height="706" fill="none"/></svg>
