<svg width="336" height="617" viewBox="0 0 336 617" fill="none" xmlns="http://www.w3.org/2000/svg">
<g opacity="0.4" clip-path="url(#clip0_2932_414864)">
<rect width="336" height="642" fill="white"/>
<g opacity="0.5">
<mask id="path-1-inside-1_2932_414864" fill="white">
<path d="M11 17H327V67H11V17Z"/>
</mask>
<path d="M11 17H327V67H11V17Z" fill="white"/>
<path d="M327 66.3072H11V67.6928H327V66.3072Z" fill="#DEE5ED" mask="url(#path-1-inside-1_2932_414864)"/>
<path d="M25.3537 44.0397C25.3537 43.3734 25.5087 42.7847 25.8185 42.2734C26.1129 41.7466 26.5235 41.336 27.0503 41.0416C27.5616 40.7317 28.1504 40.5768 28.8166 40.5768H41.9244C42.5907 40.5768 43.1795 40.7317 43.6908 41.0416C44.2175 41.336 44.6281 41.7466 44.9225 42.2734C45.2324 42.7847 45.3873 43.3734 45.3873 44.0397V44.0862C45.3873 44.7524 45.2324 45.3489 44.9225 45.8757C44.6281 46.387 44.2175 46.7976 43.6908 47.1075C43.1795 47.4019 42.5907 47.5491 41.9244 47.5491H28.8166C28.1504 47.5491 27.5616 47.4019 27.0503 47.1075C26.5235 46.7976 26.1129 46.387 25.8185 45.8757C25.5087 45.3489 25.3537 44.7524 25.3537 44.0862V44.0397ZM38.5079 44.0397C38.5079 43.3734 38.6629 42.7847 38.9727 42.2734C39.2671 41.7466 39.6777 41.336 40.2045 41.0416C40.7158 40.7317 41.3046 40.5768 41.9708 40.5768H55.0786C55.7449 40.5768 56.3336 40.7317 56.8449 41.0416C57.3717 41.336 57.7823 41.7466 58.0767 42.2734C58.3866 42.7847 58.5415 43.3734 58.5415 44.0397V44.0862C58.5415 44.7524 58.3866 45.3489 58.0767 45.8757C57.7823 46.387 57.3717 46.7976 56.8449 47.1075C56.3336 47.4019 55.7449 47.5491 55.0786 47.5491H41.9708C41.3046 47.5491 40.7158 47.4019 40.2045 47.1075C39.6777 46.7976 39.2671 46.387 38.9727 45.8757C38.6629 45.3489 38.5079 44.7524 38.5079 44.0862V44.0397ZM51.6621 44.0397C51.6621 43.3734 51.817 42.7847 52.1269 42.2734C52.4213 41.7466 52.8319 41.336 53.3587 41.0416C53.87 40.7317 54.4588 40.5768 55.125 40.5768H61.8184C62.4846 40.5768 63.0734 40.7317 63.5847 41.0416C64.1115 41.336 64.5221 41.7466 64.8164 42.2734C65.1263 42.7847 65.2813 43.3734 65.2813 44.0397V44.0862C65.2813 44.7524 65.1263 45.3489 64.8164 45.8757C64.5221 46.387 64.1115 46.7976 63.5847 47.1075C63.0734 47.4019 62.4846 47.5491 61.8184 47.5491H55.125C54.4588 47.5491 53.87 47.4019 53.3587 47.1075C52.8319 46.7976 52.4213 46.387 52.1269 45.8757C51.817 45.3489 51.6621 44.7524 51.6621 44.0862V44.0397ZM58.416 44.0397C58.416 43.3734 58.5709 42.7847 58.8808 42.2734C59.1752 41.7466 59.5858 41.336 60.1126 41.0416C60.6239 40.7317 61.2126 40.5768 61.8789 40.5768H74.9867C75.653 40.5768 76.2417 40.7317 76.753 41.0416C77.2798 41.336 77.6904 41.7466 77.9848 42.2734C78.2947 42.7847 78.4496 43.3734 78.4496 44.0397V44.0862C78.4496 44.7524 78.2947 45.3489 77.9848 45.8757C77.6904 46.387 77.2798 46.7976 76.753 47.1075C76.2417 47.4019 75.653 47.5491 74.9867 47.5491H61.8789C61.2126 47.5491 60.6239 47.4019 60.1126 47.1075C59.5858 46.7976 59.1752 46.387 58.8808 45.8757C58.5709 45.3489 58.416 44.7524 58.416 44.0862V44.0397ZM71.5702 44.0397C71.5702 43.3734 71.7251 42.7847 72.035 42.2734C72.3294 41.7466 72.74 41.336 73.2668 41.0416C73.7781 40.7317 74.3668 40.5768 75.0331 40.5768H88.1409C88.8072 40.5768 89.3959 40.7317 89.9072 41.0416C90.434 41.336 90.8446 41.7466 91.139 42.2734C91.4489 42.7847 91.6038 43.3734 91.6038 44.0397V44.0862C91.6038 44.7524 91.4489 45.3489 91.139 45.8757C90.8446 46.387 90.434 46.7976 89.9072 47.1075C89.3959 47.4019 88.8072 47.5491 88.1409 47.5491H75.0331C74.3668 47.5491 73.7781 47.4019 73.2668 47.1075C72.74 46.7976 72.3294 46.387 72.035 45.8757C71.7251 45.3489 71.5702 44.7524 71.5702 44.0862V44.0397ZM84.7244 44.0397C84.7244 43.3734 84.8793 42.7847 85.1892 42.2734C85.4836 41.7466 85.8942 41.336 86.421 41.0416C86.9323 40.7317 87.521 40.5768 88.1873 40.5768H94.8806C95.5469 40.5768 96.1356 40.7317 96.6469 41.0416C97.1737 41.336 97.5843 41.7466 97.8787 42.2734C98.1886 42.7847 98.3435 43.3734 98.3435 44.0397V44.0862C98.3435 44.7524 98.1886 45.3489 97.8787 45.8757C97.5843 46.387 97.1737 46.7976 96.6469 47.1075C96.1356 47.4019 95.5469 47.5491 94.8806 47.5491H88.1873C87.521 47.5491 86.9323 47.4019 86.421 47.1075C85.8942 46.7976 85.4836 46.387 85.1892 45.8757C84.8793 45.3489 84.7244 44.7524 84.7244 44.0862V44.0397ZM91.4783 44.0397C91.4783 43.3734 91.6332 42.7847 91.9431 42.2734C92.2375 41.7466 92.6481 41.336 93.1749 41.0416C93.6862 40.7317 94.2749 40.5768 94.9412 40.5768H108.049C108.715 40.5768 109.304 40.7317 109.815 41.0416C110.342 41.336 110.753 41.7466 111.047 42.2734C111.357 42.7847 111.512 43.3734 111.512 44.0397V44.0862C111.512 44.7524 111.357 45.3489 111.047 45.8757C110.753 46.387 110.342 46.7976 109.815 47.1075C109.304 47.4019 108.715 47.5491 108.049 47.5491H94.9412C94.2749 47.5491 93.6862 47.4019 93.1749 47.1075C92.6481 46.7976 92.2375 46.387 91.9431 45.8757C91.6332 45.3489 91.4783 44.7524 91.4783 44.0862V44.0397ZM104.632 44.0397C104.632 43.3734 104.787 42.7847 105.097 42.2734C105.392 41.7466 105.802 41.336 106.329 41.0416C106.84 40.7317 107.429 40.5768 108.095 40.5768H114.789C115.455 40.5768 116.044 40.7317 116.555 41.0416C117.082 41.336 117.492 41.7466 117.787 42.2734C118.097 42.7847 118.252 43.3734 118.252 44.0397V44.0862C118.252 44.7524 118.097 45.3489 117.787 45.8757C117.492 46.387 117.082 46.7976 116.555 47.1075C116.044 47.4019 115.455 47.5491 114.789 47.5491H108.095C107.429 47.5491 106.84 47.4019 106.329 47.1075C105.802 46.7976 105.392 46.387 105.097 45.8757C104.787 45.3489 104.632 44.7524 104.632 44.0862V44.0397ZM111.386 44.0397C111.386 43.3734 111.541 42.7847 111.851 42.2734C112.146 41.7466 112.556 41.336 113.083 41.0416C113.594 40.7317 114.183 40.5768 114.849 40.5768H121.543C122.209 40.5768 122.798 40.7317 123.309 41.0416C123.836 41.336 124.246 41.7466 124.541 42.2734C124.851 42.7847 125.005 43.3734 125.005 44.0397V44.0862C125.005 44.7524 124.851 45.3489 124.541 45.8757C124.246 46.387 123.836 46.7976 123.309 47.1075C122.798 47.4019 122.209 47.5491 121.543 47.5491H114.849C114.183 47.5491 113.594 47.4019 113.083 47.1075C112.556 46.7976 112.146 46.387 111.851 45.8757C111.541 45.3489 111.386 44.7524 111.386 44.0862V44.0397ZM118.14 44.0397C118.14 43.3734 118.295 42.7847 118.605 42.2734C118.899 41.7466 119.31 41.336 119.837 41.0416C120.348 40.7317 120.937 40.5768 121.603 40.5768H134.711C135.377 40.5768 135.966 40.7317 136.477 41.0416C137.004 41.336 137.415 41.7466 137.709 42.2734C138.019 42.7847 138.174 43.3734 138.174 44.0397V44.0862C138.174 44.7524 138.019 45.3489 137.709 45.8757C137.415 46.387 137.004 46.7976 136.477 47.1075C135.966 47.4019 135.377 47.5491 134.711 47.5491H121.603C120.937 47.5491 120.348 47.4019 119.837 47.1075C119.31 46.7976 118.899 46.387 118.605 45.8757C118.295 45.3489 118.14 44.7524 118.14 44.0862V44.0397ZM131.294 44.0397C131.294 43.3734 131.449 42.7847 131.759 42.2734C132.054 41.7466 132.464 41.336 132.991 41.0416C133.502 40.7317 134.091 40.5768 134.757 40.5768H147.865C148.531 40.5768 149.12 40.7317 149.631 41.0416C150.158 41.336 150.569 41.7466 150.863 42.2734C151.173 42.7847 151.328 43.3734 151.328 44.0397V44.0862C151.328 44.7524 151.173 45.3489 150.863 45.8757C150.569 46.387 150.158 46.7976 149.631 47.1075C149.12 47.4019 148.531 47.5491 147.865 47.5491H134.757C134.091 47.5491 133.502 47.4019 132.991 47.1075C132.464 46.7976 132.054 46.387 131.759 45.8757C131.449 45.3489 131.294 44.7524 131.294 44.0862V44.0397Z" fill="#7B95B7"/>
<g opacity="0.52">
<rect x="227.796" y="25.5333" width="81.0175" height="32.9334" rx="16.4667" fill="#486284"/>
<rect x="227.796" y="25.5333" width="81.0175" height="32.9334" rx="16.4667" stroke="#486284" stroke-width="0.692756"/>
<path d="M239.642 42.942C239.642 42.6243 239.716 42.3435 239.864 42.0996C240.004 41.8484 240.2 41.6526 240.451 41.5122C240.695 41.3644 240.976 41.2905 241.294 41.2905H247.545C247.863 41.2905 248.144 41.3644 248.387 41.5122C248.639 41.6526 248.834 41.8484 248.975 42.0996C249.123 42.3435 249.197 42.6243 249.197 42.942V42.9642C249.197 43.2819 249.123 43.5664 248.975 43.8177C248.834 44.0615 248.639 44.2573 248.387 44.4051C248.144 44.5455 247.863 44.6157 247.545 44.6157H241.294C240.976 44.6157 240.695 44.5455 240.451 44.4051C240.2 44.2573 240.004 44.0615 239.864 43.8177C239.716 43.5664 239.642 43.2819 239.642 42.9642V42.942ZM246.212 42.942C246.212 42.6243 246.286 42.3435 246.434 42.0996C246.575 41.8484 246.77 41.6526 247.022 41.5122C247.265 41.3644 247.546 41.2905 247.864 41.2905H251.056C251.374 41.2905 251.655 41.3644 251.899 41.5122C252.15 41.6526 252.346 41.8484 252.486 42.0996C252.634 42.3435 252.708 42.6243 252.708 42.942V42.9642C252.708 43.2819 252.634 43.5664 252.486 43.8177C252.346 44.0615 252.15 44.2573 251.899 44.4051C251.655 44.5455 251.374 44.6157 251.056 44.6157H247.864C247.546 44.6157 247.265 44.5455 247.022 44.4051C246.77 44.2573 246.575 44.0615 246.434 43.8177C246.286 43.5664 246.212 43.2819 246.212 42.9642V42.942ZM249.73 42.942C249.73 42.6243 249.804 42.3435 249.952 42.0996C250.092 41.8484 250.288 41.6526 250.539 41.5122C250.783 41.3644 251.064 41.2905 251.382 41.2905H257.633C257.951 41.2905 258.232 41.3644 258.476 41.5122C258.727 41.6526 258.923 41.8484 259.063 42.0996C259.211 42.3435 259.285 42.6243 259.285 42.942V42.9642C259.285 43.2819 259.211 43.5664 259.063 43.8177C258.923 44.0615 258.727 44.2573 258.476 44.4051C258.232 44.5455 257.951 44.6157 257.633 44.6157H251.382C251.064 44.6157 250.783 44.5455 250.539 44.4051C250.288 44.2573 250.092 44.0615 249.952 43.8177C249.804 43.5664 249.73 43.2819 249.73 42.9642V42.942ZM256.301 42.942C256.301 42.6243 256.375 42.3435 256.522 42.0996C256.663 41.8484 256.859 41.6526 257.11 41.5122C257.354 41.3644 257.634 41.2905 257.952 41.2905H264.204C264.521 41.2905 264.802 41.3644 265.046 41.5122C265.297 41.6526 265.493 41.8484 265.633 42.0996C265.781 42.3435 265.855 42.6243 265.855 42.942V42.9642C265.855 43.2819 265.781 43.5664 265.633 43.8177C265.493 44.0615 265.297 44.2573 265.046 44.4051C264.802 44.5455 264.521 44.6157 264.204 44.6157H257.952C257.634 44.6157 257.354 44.5455 257.11 44.4051C256.859 44.2573 256.663 44.0615 256.522 43.8177C256.375 43.5664 256.301 43.2819 256.301 42.9642V42.942ZM262.871 42.942C262.871 42.6243 262.945 42.3435 263.093 42.0996C263.233 41.8484 263.429 41.6526 263.68 41.5122C263.924 41.3644 264.205 41.2905 264.523 41.2905H267.715C268.033 41.2905 268.313 41.3644 268.557 41.5122C268.808 41.6526 269.004 41.8484 269.145 42.0996C269.292 42.3435 269.366 42.6243 269.366 42.942V42.9642C269.366 43.2819 269.292 43.5664 269.145 43.8177C269.004 44.0615 268.808 44.2573 268.557 44.4051C268.313 44.5455 268.033 44.6157 267.715 44.6157H264.523C264.205 44.6157 263.924 44.5455 263.68 44.4051C263.429 44.2573 263.233 44.0615 263.093 43.8177C262.945 43.5664 262.871 43.2819 262.871 42.9642V42.942ZM273.381 42.942C273.381 42.6243 273.455 42.3435 273.603 42.0996C273.744 41.8484 273.939 41.6526 274.191 41.5122C274.434 41.3644 274.715 41.2905 275.033 41.2905H281.284C281.602 41.2905 281.883 41.3644 282.127 41.5122C282.378 41.6526 282.574 41.8484 282.714 42.0996C282.862 42.3435 282.936 42.6243 282.936 42.942V42.9642C282.936 43.2819 282.862 43.5664 282.714 43.8177C282.574 44.0615 282.378 44.2573 282.127 44.4051C281.883 44.5455 281.602 44.6157 281.284 44.6157H275.033C274.715 44.6157 274.434 44.5455 274.191 44.4051C273.939 44.2573 273.744 44.0615 273.603 43.8177C273.455 43.5664 273.381 43.2819 273.381 42.9642V42.942ZM279.952 42.942C279.952 42.6243 280.026 42.3435 280.173 42.0996C280.314 41.8484 280.51 41.6526 280.761 41.5122C281.005 41.3644 281.286 41.2905 281.603 41.2905H287.855C288.172 41.2905 288.453 41.3644 288.697 41.5122C288.948 41.6526 289.144 41.8484 289.285 42.0996C289.432 42.3435 289.506 42.6243 289.506 42.942V42.9642C289.506 43.2819 289.432 43.5664 289.285 43.8177C289.144 44.0615 288.948 44.2573 288.697 44.4051C288.453 44.5455 288.172 44.6157 287.855 44.6157H281.603C281.286 44.6157 281.005 44.5455 280.761 44.4051C280.51 44.2573 280.314 44.0615 280.173 43.8177C280.026 43.5664 279.952 43.2819 279.952 42.9642V42.942ZM286.522 42.942C286.522 42.6243 286.596 42.3435 286.744 42.0996C286.884 41.8484 287.08 41.6526 287.331 41.5122C287.575 41.3644 287.856 41.2905 288.174 41.2905H294.425C294.743 41.2905 295.024 41.3644 295.267 41.5122C295.519 41.6526 295.715 41.8484 295.855 42.0996C296.003 42.3435 296.077 42.6243 296.077 42.942V42.9642C296.077 43.2819 296.003 43.5664 295.855 43.8177C295.715 44.0615 295.519 44.2573 295.267 44.4051C295.024 44.5455 294.743 44.6157 294.425 44.6157H288.174C287.856 44.6157 287.575 44.5455 287.331 44.4051C287.08 44.2573 286.884 44.0615 286.744 43.8177C286.596 43.5664 286.522 43.2819 286.522 42.9642V42.942Z" fill="white"/>
</g>
</g>
<g opacity="0.3">
<path d="M28.353 112.33C28.353 111.913 28.45 111.545 28.6439 111.224C28.8282 110.895 29.0852 110.638 29.415 110.453C29.735 110.259 30.1036 110.163 30.5206 110.163H34.7104C35.1274 110.163 35.496 110.259 35.816 110.453C36.1458 110.638 36.4028 110.895 36.5871 111.224C36.781 111.545 36.878 111.913 36.878 112.33V112.359C36.878 112.776 36.781 113.15 36.5871 113.479C36.4028 113.799 36.1458 114.056 35.816 114.25C35.496 114.435 35.1274 114.527 34.7104 114.527H30.5206C30.1036 114.527 29.735 114.435 29.415 114.25C29.0852 114.056 28.8282 113.799 28.6439 113.479C28.45 113.15 28.353 112.776 28.353 112.359V112.33ZM32.6195 112.33C32.6195 111.913 32.7165 111.545 32.9105 111.224C33.0947 110.895 33.3518 110.638 33.6815 110.453C34.0016 110.259 34.3701 110.163 34.7871 110.163H42.9921C43.4092 110.163 43.7777 110.259 44.0978 110.453C44.4275 110.638 44.6845 110.895 44.8688 111.224C45.0628 111.545 45.1598 111.913 45.1598 112.33V112.359C45.1598 112.776 45.0628 113.15 44.8688 113.479C44.6845 113.799 44.4275 114.056 44.0978 114.25C43.7777 114.435 43.4092 114.527 42.9921 114.527H34.7871C34.3701 114.527 34.0016 114.435 33.6815 114.25C33.3518 114.056 33.0947 113.799 32.9105 113.479C32.7165 113.15 32.6195 112.776 32.6195 112.359V112.33ZM40.8924 112.33C40.8924 111.913 40.9894 111.545 41.1833 111.224C41.3676 110.895 41.6246 110.638 41.9544 110.453C42.2744 110.259 42.643 110.163 43.06 110.163H51.265C51.6821 110.163 52.0506 110.259 52.3707 110.453C52.7004 110.638 52.9574 110.895 53.1417 111.224C53.3357 111.545 53.4327 111.913 53.4327 112.33V112.359C53.4327 112.776 53.3357 113.15 53.1417 113.479C52.9574 113.799 52.7004 114.056 52.3707 114.25C52.0506 114.435 51.6821 114.527 51.265 114.527H43.06C42.643 114.527 42.2744 114.435 41.9544 114.25C41.6246 114.056 41.3676 113.799 41.1833 113.479C40.9894 113.15 40.8924 112.776 40.8924 112.359V112.33ZM49.1653 112.33C49.1653 111.913 49.2623 111.545 49.4562 111.224C49.6405 110.895 49.8975 110.638 50.2273 110.453C50.5473 110.259 50.9159 110.163 51.3329 110.163H59.5379C59.9549 110.163 60.3235 110.259 60.6435 110.453C60.9733 110.638 61.2303 110.895 61.4146 111.224C61.6085 111.545 61.7055 111.913 61.7055 112.33V112.359C61.7055 112.776 61.6085 113.15 61.4146 113.479C61.2303 113.799 60.9733 114.056 60.6435 114.25C60.3235 114.435 59.9549 114.527 59.5379 114.527H51.3329C50.9159 114.527 50.5473 114.435 50.2273 114.25C49.8975 114.056 49.6405 113.799 49.4562 113.479C49.2623 113.15 49.1653 112.776 49.1653 112.359V112.33ZM57.4382 112.33C57.4382 111.913 57.5351 111.545 57.7291 111.224C57.9134 110.895 58.1704 110.638 58.5001 110.453C58.8202 110.259 59.1887 110.163 59.6058 110.163H63.7956C64.2126 110.163 64.5812 110.259 64.9012 110.453C65.231 110.638 65.488 110.895 65.6722 111.224C65.8662 111.545 65.9632 111.913 65.9632 112.33V112.359C65.9632 112.776 65.8662 113.15 65.6722 113.479C65.488 113.799 65.231 114.056 64.9012 114.25C64.5812 114.435 64.2126 114.527 63.7956 114.527H59.6058C59.1887 114.527 58.8202 114.435 58.5001 114.25C58.1704 114.056 57.9134 113.799 57.7291 113.479C57.5351 113.15 57.4382 112.776 57.4382 112.359V112.33ZM70.5316 112.33C70.5316 111.913 70.6286 111.545 70.8226 111.224C71.0069 110.895 71.2639 110.638 71.5936 110.453C71.9137 110.259 72.2822 110.163 72.6993 110.163H80.9043C81.3213 110.163 81.6899 110.259 82.0099 110.453C82.3397 110.638 82.5967 110.895 82.7809 111.224C82.9749 111.545 83.0719 111.913 83.0719 112.33V112.359C83.0719 112.776 82.9749 113.15 82.7809 113.479C82.5967 113.799 82.3397 114.056 82.0099 114.25C81.6899 114.435 81.3213 114.527 80.9043 114.527H72.6993C72.2822 114.527 71.9137 114.435 71.5936 114.25C71.2639 114.056 71.0069 113.799 70.8226 113.479C70.6286 113.15 70.5316 112.776 70.5316 112.359V112.33ZM78.8045 112.33C78.8045 111.913 78.9015 111.545 79.0955 111.224C79.2797 110.895 79.5368 110.638 79.8665 110.453C80.1866 110.259 80.5551 110.163 80.9722 110.163H89.1771C89.5942 110.163 89.9627 110.259 90.2828 110.453C90.6125 110.638 90.8695 110.895 91.0538 111.224C91.2478 111.545 91.3448 111.913 91.3448 112.33V112.359C91.3448 112.776 91.2478 113.15 91.0538 113.479C90.8695 113.799 90.6125 114.056 90.2828 114.25C89.9627 114.435 89.5942 114.527 89.1771 114.527H80.9722C80.5551 114.527 80.1866 114.435 79.8665 114.25C79.5368 114.056 79.2797 113.799 79.0955 113.479C78.9015 113.15 78.8045 112.776 78.8045 112.359V112.33ZM87.0774 112.33C87.0774 111.913 87.1744 111.545 87.3684 111.224C87.5526 110.895 87.8096 110.638 88.1394 110.453C88.4594 110.259 88.828 110.163 89.245 110.163H97.45C97.8671 110.163 98.2356 110.259 98.5557 110.453C98.8854 110.638 99.1424 110.895 99.3267 111.224C99.5207 111.545 99.6177 111.913 99.6177 112.33V112.359C99.6177 112.776 99.5207 113.15 99.3267 113.479C99.1424 113.799 98.8854 114.056 98.5557 114.25C98.2356 114.435 97.8671 114.527 97.45 114.527H89.245C88.828 114.527 88.4594 114.435 88.1394 114.25C87.8096 114.056 87.5526 113.799 87.3684 113.479C87.1744 113.15 87.0774 112.776 87.0774 112.359V112.33ZM95.3503 112.33C95.3503 111.913 95.4473 111.545 95.6412 111.224C95.8255 110.895 96.0825 110.638 96.4123 110.453C96.7323 110.259 97.1009 110.163 97.5179 110.163H105.723C106.14 110.163 106.508 110.259 106.829 110.453C107.158 110.638 107.415 110.895 107.6 111.224C107.794 111.545 107.891 111.913 107.891 112.33V112.359C107.891 112.776 107.794 113.15 107.6 113.479C107.415 113.799 107.158 114.056 106.829 114.25C106.508 114.435 106.14 114.527 105.723 114.527H97.5179C97.1009 114.527 96.7323 114.435 96.4123 114.25C96.0825 114.056 95.8255 113.799 95.6412 113.479C95.4473 113.15 95.3503 112.776 95.3503 112.359V112.33ZM112.45 112.33C112.45 111.913 112.547 111.545 112.741 111.224C112.925 110.895 113.182 110.638 113.512 110.453C113.832 110.259 114.201 110.163 114.618 110.163H122.823C123.24 110.163 123.608 110.259 123.928 110.453C124.258 110.638 124.515 110.895 124.699 111.224C124.893 111.545 124.99 111.913 124.99 112.33V112.359C124.99 112.776 124.893 113.15 124.699 113.479C124.515 113.799 124.258 114.056 123.928 114.25C123.608 114.435 123.24 114.527 122.823 114.527H114.618C114.201 114.527 113.832 114.435 113.512 114.25C113.182 114.056 112.925 113.799 112.741 113.479C112.547 113.15 112.45 112.776 112.45 112.359V112.33ZM120.723 112.33C120.723 111.913 120.82 111.545 121.014 111.224C121.198 110.895 121.455 110.638 121.785 110.453C122.105 110.259 122.474 110.163 122.891 110.163H131.096C131.513 110.163 131.881 110.259 132.201 110.453C132.531 110.638 132.788 110.895 132.972 111.224C133.166 111.545 133.263 111.913 133.263 112.33V112.359C133.263 112.776 133.166 113.15 132.972 113.479C132.788 113.799 132.531 114.056 132.201 114.25C131.881 114.435 131.513 114.527 131.096 114.527H122.891C122.474 114.527 122.105 114.435 121.785 114.25C121.455 114.056 121.198 113.799 121.014 113.479C120.82 113.15 120.723 112.776 120.723 112.359V112.33ZM128.996 112.33C128.996 111.913 129.093 111.545 129.287 111.224C129.471 110.895 129.728 110.638 130.058 110.453C130.378 110.259 130.746 110.163 131.163 110.163H135.353C135.77 110.163 136.139 110.259 136.459 110.453C136.789 110.638 137.046 110.895 137.23 111.224C137.424 111.545 137.521 111.913 137.521 112.33V112.359C137.521 112.776 137.424 113.15 137.23 113.479C137.046 113.799 136.789 114.056 136.459 114.25C136.139 114.435 135.77 114.527 135.353 114.527H131.163C130.746 114.527 130.378 114.435 130.058 114.25C129.728 114.056 129.471 113.799 129.287 113.479C129.093 113.15 128.996 112.776 128.996 112.359V112.33ZM133.262 112.33C133.262 111.913 133.359 111.545 133.553 111.224C133.738 110.895 133.995 110.638 134.324 110.453C134.644 110.259 135.013 110.163 135.43 110.163H143.635C144.052 110.163 144.421 110.259 144.741 110.453C145.07 110.638 145.327 110.895 145.512 111.224C145.706 111.545 145.803 111.913 145.803 112.33V112.359C145.803 112.776 145.706 113.15 145.512 113.479C145.327 113.799 145.07 114.056 144.741 114.25C144.421 114.435 144.052 114.527 143.635 114.527H135.43C135.013 114.527 134.644 114.435 134.324 114.25C133.995 114.056 133.738 113.799 133.553 113.479C133.359 113.15 133.262 112.776 133.262 112.359V112.33Z" fill="#486284"/>
<path d="M24.3004 155.2C24.3004 154.008 24.5775 152.955 25.1317 152.041C25.6582 151.098 26.3925 150.364 27.3346 149.838C28.2491 149.283 29.3021 149.006 30.4936 149.006H53.9364C55.128 149.006 56.181 149.283 57.0954 149.838C58.0375 150.364 58.7719 151.098 59.2984 152.041C59.8526 152.955 60.1297 154.008 60.1297 155.2V155.283C60.1297 156.474 59.8526 157.541 59.2984 158.483C58.7719 159.398 58.0375 160.132 57.0954 160.686C56.181 161.213 55.128 161.476 53.9364 161.476H30.4936C29.3021 161.476 28.2491 161.213 27.3346 160.686C26.3925 160.132 25.6582 159.398 25.1317 158.483C24.5775 157.541 24.3004 156.474 24.3004 155.283V155.2ZM47.9866 155.2C47.9866 154.008 48.2637 152.955 48.8179 152.041C49.3444 151.098 50.0788 150.364 51.0209 149.838C51.9353 149.283 52.9883 149.006 54.1799 149.006H77.6227C78.8143 149.006 79.8672 149.283 80.7817 149.838C81.7238 150.364 82.4582 151.098 82.9846 152.041C83.5389 152.955 83.816 154.008 83.816 155.2V155.283C83.816 156.474 83.5389 157.541 82.9846 158.483C82.4582 159.398 81.7238 160.132 80.7817 160.686C79.8672 161.213 78.8143 161.476 77.6227 161.476H54.1799C52.9883 161.476 51.9353 161.213 51.0209 160.686C50.0788 160.132 49.3444 159.398 48.8179 158.483C48.2637 157.541 47.9866 156.474 47.9866 155.283V155.2ZM71.6729 155.2C71.6729 154.008 71.95 152.955 72.5042 152.041C73.0307 151.098 73.765 150.364 74.7072 149.838C75.6216 149.283 76.6746 149.006 77.8662 149.006H101.309C102.501 149.006 103.554 149.283 104.468 149.838C105.41 150.364 106.144 151.098 106.671 152.041C107.225 152.955 107.502 154.008 107.502 155.2V155.283C107.502 156.474 107.225 157.541 106.671 158.483C106.144 159.398 105.41 160.132 104.468 160.686C103.554 161.213 102.501 161.476 101.309 161.476H77.8662C76.6746 161.476 75.6216 161.213 74.7072 160.686C73.765 160.132 73.0307 159.398 72.5042 158.483C71.95 157.541 71.6729 156.474 71.6729 155.283V155.2ZM95.3592 155.2C95.3592 154.008 95.6363 152.955 96.1905 152.041C96.717 151.098 97.4513 150.364 98.3935 149.838C99.3079 149.283 100.361 149.006 101.552 149.006H113.523C114.715 149.006 115.768 149.283 116.682 149.838C117.624 150.364 118.359 151.098 118.885 152.041C119.439 152.955 119.716 154.008 119.716 155.2V155.283C119.716 156.474 119.439 157.541 118.885 158.483C118.359 159.398 117.624 160.132 116.682 160.686C115.768 161.213 114.715 161.476 113.523 161.476H101.552C100.361 161.476 99.3079 161.213 98.3935 160.686C97.4513 160.132 96.717 159.398 96.1905 158.483C95.6363 157.541 95.3592 156.474 95.3592 155.283V155.2ZM132.868 155.2C132.868 154.008 133.145 152.955 133.699 152.041C134.226 151.098 134.96 150.364 135.902 149.838C136.817 149.283 137.87 149.006 139.061 149.006H162.504C163.696 149.006 164.749 149.283 165.663 149.838C166.605 150.364 167.34 151.098 167.866 152.041C168.42 152.955 168.697 154.008 168.697 155.2V155.283C168.697 156.474 168.42 157.541 167.866 158.483C167.34 159.398 166.605 160.132 165.663 160.686C164.749 161.213 163.696 161.476 162.504 161.476H139.061C137.87 161.476 136.817 161.213 135.902 160.686C134.96 160.132 134.226 159.398 133.699 158.483C133.145 157.541 132.868 156.474 132.868 155.283V155.2ZM156.554 155.2C156.554 154.008 156.832 152.955 157.386 152.041C157.912 151.098 158.647 150.364 159.589 149.838C160.503 149.283 161.556 149.006 162.748 149.006H186.19C187.382 149.006 188.435 149.283 189.349 149.838C190.292 150.364 191.026 151.098 191.552 152.041C192.107 152.955 192.384 154.008 192.384 155.2V155.283C192.384 156.474 192.107 157.541 191.552 158.483C191.026 159.398 190.292 160.132 189.349 160.686C188.435 161.213 187.382 161.476 186.19 161.476H162.748C161.556 161.476 160.503 161.213 159.589 160.686C158.647 160.132 157.912 159.398 157.386 158.483C156.832 157.541 156.554 156.474 156.554 155.283V155.2ZM180.241 155.2C180.241 154.008 180.518 152.955 181.072 152.041C181.598 151.098 182.333 150.364 183.275 149.838C184.189 149.283 185.242 149.006 186.434 149.006H198.405C199.596 149.006 200.649 149.283 201.564 149.838C202.506 150.364 203.24 151.098 203.767 152.041C204.321 152.955 204.598 154.008 204.598 155.2V155.283C204.598 156.474 204.321 157.541 203.767 158.483C203.24 159.398 202.506 160.132 201.564 160.686C200.649 161.213 199.596 161.476 198.405 161.476H186.434C185.242 161.476 184.189 161.213 183.275 160.686C182.333 160.132 181.598 159.398 181.072 158.483C180.518 157.541 180.241 156.474 180.241 155.283V155.2ZM192.48 155.2C192.48 154.008 192.757 152.955 193.312 152.041C193.838 151.098 194.572 150.364 195.515 149.838C196.429 149.283 197.482 149.006 198.674 149.006H222.116C223.308 149.006 224.361 149.283 225.275 149.838C226.217 150.364 226.952 151.098 227.478 152.041C228.032 152.955 228.31 154.008 228.31 155.2V155.283C228.31 156.474 228.032 157.541 227.478 158.483C226.952 159.398 226.217 160.132 225.275 160.686C224.361 161.213 223.308 161.476 222.116 161.476H198.674C197.482 161.476 196.429 161.213 195.515 160.686C194.572 160.132 193.838 159.398 193.312 158.483C192.757 157.541 192.48 156.474 192.48 155.283V155.2ZM216.167 155.2C216.167 154.008 216.444 152.955 216.998 152.041C217.524 151.098 218.259 150.364 219.201 149.838C220.115 149.283 221.168 149.006 222.36 149.006H245.803C246.994 149.006 248.047 149.283 248.962 149.838C249.904 150.364 250.638 151.098 251.165 152.041C251.719 152.955 251.996 154.008 251.996 155.2V155.283C251.996 156.474 251.719 157.541 251.165 158.483C250.638 159.398 249.904 160.132 248.962 160.686C248.047 161.213 246.994 161.476 245.803 161.476H222.36C221.168 161.476 220.115 161.213 219.201 160.686C218.259 160.132 217.524 159.398 216.998 158.483C216.444 157.541 216.167 156.474 216.167 155.283V155.2ZM239.853 155.2C239.853 154.008 240.13 152.955 240.684 152.041C241.211 151.098 241.945 150.364 242.887 149.838C243.802 149.283 244.855 149.006 246.046 149.006H258.017C259.208 149.006 260.261 149.283 261.176 149.838C262.118 150.364 262.852 151.098 263.379 152.041C263.933 152.955 264.21 154.008 264.21 155.2V155.283C264.21 156.474 263.933 157.541 263.379 158.483C262.852 159.398 262.118 160.132 261.176 160.686C260.261 161.213 259.208 161.476 258.017 161.476H246.046C244.855 161.476 243.802 161.213 242.887 160.686C241.945 160.132 241.211 159.398 240.684 158.483C240.13 157.541 239.853 156.474 239.853 155.283V155.2Z" fill="#486284"/>
<path d="M28.4569 202.179C28.4569 201.781 28.5493 201.43 28.734 201.126C28.9095 200.812 29.1543 200.567 29.4683 200.391C29.7731 200.207 30.1241 200.114 30.5213 200.114H38.3356C38.7328 200.114 39.0838 200.207 39.3886 200.391C39.7026 200.567 39.9474 200.812 40.1229 201.126C40.3076 201.43 40.4 201.781 40.4 202.179V202.206C40.4 202.603 40.3076 202.959 40.1229 203.273C39.9474 203.578 39.7026 203.823 39.3886 204.007C39.0838 204.183 38.7328 204.271 38.3356 204.271H30.5213C30.1241 204.271 29.7731 204.183 29.4683 204.007C29.1543 203.823 28.9095 203.578 28.734 203.273C28.5493 202.959 28.4569 202.603 28.4569 202.206V202.179ZM36.5832 202.179C36.5832 201.781 36.6756 201.43 36.8603 201.126C37.0358 200.812 37.2806 200.567 37.5947 200.391C37.8995 200.207 38.2505 200.114 38.6476 200.114H46.4619C46.8591 200.114 47.2101 200.207 47.5149 200.391C47.829 200.567 48.0737 200.812 48.2492 201.126C48.434 201.43 48.5263 201.781 48.5263 202.179V202.206C48.5263 202.603 48.434 202.959 48.2492 203.273C48.0737 203.578 47.829 203.823 47.5149 204.007C47.2101 204.183 46.8591 204.271 46.4619 204.271H38.6476C38.2505 204.271 37.8995 204.183 37.5947 204.007C37.2806 203.823 37.0358 203.578 36.8603 203.273C36.6756 202.959 36.5832 202.603 36.5832 202.206V202.179ZM44.7096 202.179C44.7096 201.781 44.802 201.43 44.9867 201.126C45.1622 200.812 45.407 200.567 45.721 200.391C46.0258 200.207 46.3768 200.114 46.774 200.114H50.7643C51.1614 200.114 51.5124 200.207 51.8173 200.391C52.1313 200.567 52.3761 200.812 52.5516 201.126C52.7363 201.43 52.8287 201.781 52.8287 202.179V202.206C52.8287 202.603 52.7363 202.959 52.5516 203.273C52.3761 203.578 52.1313 203.823 51.8173 204.007C51.5124 204.183 51.1614 204.271 50.7643 204.271H46.774C46.3768 204.271 46.0258 204.183 45.721 204.007C45.407 203.823 45.1622 203.578 44.9867 203.273C44.802 202.959 44.7096 202.603 44.7096 202.206V202.179ZM49.0204 202.179C49.0204 201.781 49.1127 201.43 49.2975 201.126C49.473 200.812 49.7177 200.567 50.0318 200.391C50.3366 200.207 50.6876 200.114 51.0848 200.114H58.8991C59.2962 200.114 59.6472 200.207 59.952 200.391C60.2661 200.567 60.5109 200.812 60.6864 201.126C60.8711 201.43 60.9635 201.781 60.9635 202.179V202.206C60.9635 202.603 60.8711 202.959 60.6864 203.273C60.5109 203.578 60.2661 203.823 59.952 204.007C59.6472 204.183 59.2962 204.271 58.8991 204.271H51.0848C50.6876 204.271 50.3366 204.183 50.0318 204.007C49.7177 203.823 49.473 203.578 49.2975 203.273C49.1127 202.959 49.0204 202.603 49.0204 202.206V202.179ZM57.1467 202.179C57.1467 201.781 57.2391 201.43 57.4238 201.126C57.5993 200.812 57.8441 200.567 58.1581 200.391C58.4629 200.207 58.8139 200.114 59.2111 200.114H67.0254C67.4226 200.114 67.7736 200.207 68.0784 200.391C68.3924 200.567 68.6372 200.812 68.8127 201.126C68.9974 201.43 69.0898 201.781 69.0898 202.179V202.206C69.0898 202.603 68.9974 202.959 68.8127 203.273C68.6372 203.578 68.3924 203.823 68.0784 204.007C67.7736 204.183 67.4226 204.271 67.0254 204.271H59.2111C58.8139 204.271 58.4629 204.183 58.1581 204.007C57.8441 203.823 57.5993 203.578 57.4238 203.273C57.2391 202.959 57.1467 202.603 57.1467 202.206V202.179ZM65.2731 202.179C65.2731 201.781 65.3654 201.43 65.5502 201.126C65.7257 200.812 65.9704 200.567 66.2845 200.391C66.5893 200.207 66.9403 200.114 67.3375 200.114H75.1517C75.5489 200.114 75.8999 200.207 76.2047 200.391C76.5188 200.567 76.7636 200.812 76.9391 201.126C77.1238 201.43 77.2162 201.781 77.2162 202.179V202.206C77.2162 202.603 77.1238 202.959 76.9391 203.273C76.7636 203.578 76.5188 203.823 76.2047 204.007C75.8999 204.183 75.5489 204.271 75.1517 204.271H67.3375C66.9403 204.271 66.5893 204.183 66.2845 204.007C65.9704 203.823 65.7257 203.578 65.5502 203.273C65.3654 202.959 65.2731 202.603 65.2731 202.206V202.179ZM73.3994 202.179C73.3994 201.781 73.4918 201.43 73.6765 201.126C73.852 200.812 74.0968 200.567 74.4108 200.391C74.7156 200.207 75.0666 200.114 75.4638 200.114H83.2781C83.6753 200.114 84.0263 200.207 84.3311 200.391C84.6451 200.567 84.8899 200.812 85.0654 201.126C85.2501 201.43 85.3425 201.781 85.3425 202.179V202.206C85.3425 202.603 85.2501 202.959 85.0654 203.273C84.8899 203.578 84.6451 203.823 84.3311 204.007C84.0263 204.183 83.6753 204.271 83.2781 204.271H75.4638C75.0666 204.271 74.7156 204.183 74.4108 204.007C74.0968 203.823 73.852 203.578 73.6765 203.273C73.4918 202.959 73.3994 202.603 73.3994 202.206V202.179ZM90.1798 202.179C90.1798 201.781 90.2721 201.43 90.4569 201.126C90.6324 200.812 90.8772 200.567 91.1912 200.391C91.496 200.207 91.847 200.114 92.2442 200.114H96.2345C96.6316 200.114 96.9826 200.207 97.2875 200.391C97.6015 200.567 97.8463 200.812 98.0218 201.126C98.2065 201.43 98.2989 201.781 98.2989 202.179V202.206C98.2989 202.603 98.2065 202.959 98.0218 203.273C97.8463 203.578 97.6015 203.823 97.2875 204.007C96.9826 204.183 96.6316 204.271 96.2345 204.271H92.2442C91.847 204.271 91.496 204.183 91.1912 204.007C90.8772 203.823 90.6324 203.578 90.4569 203.273C90.2721 202.959 90.1798 202.603 90.1798 202.206V202.179ZM94.4906 202.179C94.4906 201.781 94.5829 201.43 94.7677 201.126C94.9432 200.812 95.1879 200.567 95.502 200.391C95.8068 200.207 96.1578 200.114 96.555 200.114H104.369C104.766 200.114 105.117 200.207 105.422 200.391C105.736 200.567 105.981 200.812 106.157 201.126C106.341 201.43 106.434 201.781 106.434 202.179V202.206C106.434 202.603 106.341 202.959 106.157 203.273C105.981 203.578 105.736 203.823 105.422 204.007C105.117 204.183 104.766 204.271 104.369 204.271H96.555C96.1578 204.271 95.8068 204.183 95.502 204.007C95.1879 203.823 94.9432 203.578 94.7677 203.273C94.5829 202.959 94.4906 202.603 94.4906 202.206V202.179ZM111.271 202.179C111.271 201.781 111.363 201.43 111.548 201.126C111.724 200.812 111.968 200.567 112.282 200.391C112.587 200.207 112.938 200.114 113.335 200.114H121.15C121.547 200.114 121.898 200.207 122.203 200.391C122.517 200.567 122.761 200.812 122.937 201.126C123.122 201.43 123.214 201.781 123.214 202.179V202.206C123.214 202.603 123.122 202.959 122.937 203.273C122.761 203.578 122.517 203.823 122.203 204.007C121.898 204.183 121.547 204.271 121.15 204.271H113.335C112.938 204.271 112.587 204.183 112.282 204.007C111.968 203.823 111.724 203.578 111.548 203.273C111.363 202.959 111.271 202.603 111.271 202.206V202.179ZM119.397 202.179C119.397 201.781 119.49 201.43 119.674 201.126C119.85 200.812 120.095 200.567 120.409 200.391C120.714 200.207 121.065 200.114 121.462 200.114H129.276C129.673 200.114 130.024 200.207 130.329 200.391C130.643 200.567 130.888 200.812 131.063 201.126C131.248 201.43 131.34 201.781 131.34 202.179V202.206C131.34 202.603 131.248 202.959 131.063 203.273C130.888 203.578 130.643 203.823 130.329 204.007C130.024 204.183 129.673 204.271 129.276 204.271H121.462C121.065 204.271 120.714 204.183 120.409 204.007C120.095 203.823 119.85 203.578 119.674 203.273C119.49 202.959 119.397 202.603 119.397 202.206V202.179ZM127.524 202.179C127.524 201.781 127.616 201.43 127.801 201.126C127.976 200.812 128.221 200.567 128.535 200.391C128.84 200.207 129.191 200.114 129.588 200.114H133.578C133.976 200.114 134.326 200.207 134.631 200.391C134.945 200.567 135.19 200.812 135.366 201.126C135.55 201.43 135.643 201.781 135.643 202.179V202.206C135.643 202.603 135.55 202.959 135.366 203.273C135.19 203.578 134.945 203.823 134.631 204.007C134.326 204.183 133.976 204.271 133.578 204.271H129.588C129.191 204.271 128.84 204.183 128.535 204.007C128.221 203.823 127.976 203.578 127.801 203.273C127.616 202.959 127.524 202.603 127.524 202.206V202.179ZM131.834 202.179C131.834 201.781 131.927 201.43 132.112 201.126C132.287 200.812 132.532 200.567 132.846 200.391C133.151 200.207 133.502 200.114 133.899 200.114H141.713C142.11 200.114 142.461 200.207 142.766 200.391C143.08 200.567 143.325 200.812 143.5 201.126C143.685 201.43 143.778 201.781 143.778 202.179V202.206C143.778 202.603 143.685 202.959 143.5 203.273C143.325 203.578 143.08 203.823 142.766 204.007C142.461 204.183 142.11 204.271 141.713 204.271H133.899C133.502 204.271 133.151 204.183 132.846 204.007C132.532 203.823 132.287 203.578 132.112 203.273C131.927 202.959 131.834 202.603 131.834 202.206V202.179ZM139.961 202.179C139.961 201.781 140.053 201.43 140.238 201.126C140.413 200.812 140.658 200.567 140.972 200.391C141.277 200.207 141.628 200.114 142.025 200.114H149.839C150.237 200.114 150.588 200.207 150.892 200.391C151.206 200.567 151.451 200.812 151.627 201.126C151.812 201.43 151.904 201.781 151.904 202.179V202.206C151.904 202.603 151.812 202.959 151.627 203.273C151.451 203.578 151.206 203.823 150.892 204.007C150.588 204.183 150.237 204.271 149.839 204.271H142.025C141.628 204.271 141.277 204.183 140.972 204.007C140.658 203.823 140.413 203.578 140.238 203.273C140.053 202.959 139.961 202.603 139.961 202.206V202.179ZM148.087 202.179C148.087 201.781 148.179 201.43 148.364 201.126C148.54 200.812 148.784 200.567 149.099 200.391C149.403 200.207 149.754 200.114 150.152 200.114H154.142C154.539 200.114 154.89 200.207 155.195 200.391C155.509 200.567 155.754 200.812 155.929 201.126C156.114 201.43 156.206 201.781 156.206 202.179V202.206C156.206 202.603 156.114 202.959 155.929 203.273C155.754 203.578 155.509 203.823 155.195 204.007C154.89 204.183 154.539 204.271 154.142 204.271H150.152C149.754 204.271 149.403 204.183 149.099 204.007C148.784 203.823 148.54 203.578 148.364 203.273C148.179 202.959 148.087 202.603 148.087 202.206V202.179ZM161.052 202.179C161.052 201.781 161.144 201.43 161.329 201.126C161.505 200.812 161.749 200.567 162.063 200.391C162.368 200.207 162.719 200.114 163.116 200.114H170.931C171.328 200.114 171.679 200.207 171.984 200.391C172.298 200.567 172.542 200.812 172.718 201.126C172.903 201.43 172.995 201.781 172.995 202.179V202.206C172.995 202.603 172.903 202.959 172.718 203.273C172.542 203.578 172.298 203.823 171.984 204.007C171.679 204.183 171.328 204.271 170.931 204.271H163.116C162.719 204.271 162.368 204.183 162.063 204.007C161.749 203.823 161.505 203.578 161.329 203.273C161.144 202.959 161.052 202.603 161.052 202.206V202.179ZM169.178 202.179C169.178 201.781 169.271 201.43 169.455 201.126C169.631 200.812 169.876 200.567 170.19 200.391C170.494 200.207 170.845 200.114 171.243 200.114H175.233C175.63 200.114 175.981 200.207 176.286 200.391C176.6 200.567 176.845 200.812 177.02 201.126C177.205 201.43 177.297 201.781 177.297 202.179V202.206C177.297 202.603 177.205 202.959 177.02 203.273C176.845 203.578 176.6 203.823 176.286 204.007C175.981 204.183 175.63 204.271 175.233 204.271H171.243C170.845 204.271 170.494 204.183 170.19 204.007C169.876 203.823 169.631 203.578 169.455 203.273C169.271 202.959 169.178 202.603 169.178 202.206V202.179ZM173.489 202.179C173.489 201.781 173.581 201.43 173.766 201.126C173.942 200.812 174.186 200.567 174.5 200.391C174.805 200.207 175.156 200.114 175.553 200.114H179.544C179.941 200.114 180.292 200.207 180.597 200.391C180.911 200.567 181.156 200.812 181.331 201.126C181.516 201.43 181.608 201.781 181.608 202.179V202.206C181.608 202.603 181.516 202.959 181.331 203.273C181.156 203.578 180.911 203.823 180.597 204.007C180.292 204.183 179.941 204.271 179.544 204.271H175.553C175.156 204.271 174.805 204.183 174.5 204.007C174.186 203.823 173.942 203.578 173.766 203.273C173.581 202.959 173.489 202.603 173.489 202.206V202.179ZM177.8 202.179C177.8 201.781 177.892 201.43 178.077 201.126C178.252 200.812 178.497 200.567 178.811 200.391C179.116 200.207 179.467 200.114 179.864 200.114H187.679C188.076 200.114 188.427 200.207 188.732 200.391C189.046 200.567 189.29 200.812 189.466 201.126C189.651 201.43 189.743 201.781 189.743 202.179V202.206C189.743 202.603 189.651 202.959 189.466 203.273C189.29 203.578 189.046 203.823 188.732 204.007C188.427 204.183 188.076 204.271 187.679 204.271H179.864C179.467 204.271 179.116 204.183 178.811 204.007C178.497 203.823 178.252 203.578 178.077 203.273C177.892 202.959 177.8 202.603 177.8 202.206V202.179ZM185.926 202.179C185.926 201.781 186.019 201.43 186.203 201.126C186.379 200.812 186.624 200.567 186.938 200.391C187.242 200.207 187.593 200.114 187.991 200.114H195.805C196.202 200.114 196.553 200.207 196.858 200.391C197.172 200.567 197.417 200.812 197.592 201.126C197.777 201.43 197.869 201.781 197.869 202.179V202.206C197.869 202.603 197.777 202.959 197.592 203.273C197.417 203.578 197.172 203.823 196.858 204.007C196.553 204.183 196.202 204.271 195.805 204.271H187.991C187.593 204.271 187.242 204.183 186.938 204.007C186.624 203.823 186.379 203.578 186.203 203.273C186.019 202.959 185.926 202.603 185.926 202.206V202.179ZM194.053 202.179C194.053 201.781 194.145 201.43 194.33 201.126C194.505 200.812 194.75 200.567 195.064 200.391C195.369 200.207 195.72 200.114 196.117 200.114H200.107C200.504 200.114 200.855 200.207 201.16 200.391C201.474 200.567 201.719 200.812 201.895 201.126C202.079 201.43 202.172 201.781 202.172 202.179V202.206C202.172 202.603 202.079 202.959 201.895 203.273C201.719 203.578 201.474 203.823 201.16 204.007C200.855 204.183 200.504 204.271 200.107 204.271H196.117C195.72 204.271 195.369 204.183 195.064 204.007C194.75 203.823 194.505 203.578 194.33 203.273C194.145 202.959 194.053 202.603 194.053 202.206V202.179ZM207.017 202.179C207.017 201.781 207.11 201.43 207.294 201.126C207.47 200.812 207.715 200.567 208.029 200.391C208.334 200.207 208.685 200.114 209.082 200.114H216.896C217.293 200.114 217.644 200.207 217.949 200.391C218.263 200.567 218.508 200.812 218.683 201.126C218.868 201.43 218.96 201.781 218.96 202.179V202.206C218.96 202.603 218.868 202.959 218.683 203.273C218.508 203.578 218.263 203.823 217.949 204.007C217.644 204.183 217.293 204.271 216.896 204.271H209.082C208.685 204.271 208.334 204.183 208.029 204.007C207.715 203.823 207.47 203.578 207.294 203.273C207.11 202.959 207.017 202.603 207.017 202.206V202.179ZM215.144 202.179C215.144 201.781 215.236 201.43 215.421 201.126C215.596 200.812 215.841 200.567 216.155 200.391C216.46 200.207 216.811 200.114 217.208 200.114H225.022C225.42 200.114 225.771 200.207 226.075 200.391C226.389 200.567 226.634 200.812 226.81 201.126C226.994 201.43 227.087 201.781 227.087 202.179V202.206C227.087 202.603 226.994 202.959 226.81 203.273C226.634 203.578 226.389 203.823 226.075 204.007C225.771 204.183 225.42 204.271 225.022 204.271H217.208C216.811 204.271 216.46 204.183 216.155 204.007C215.841 203.823 215.596 203.578 215.421 203.273C215.236 202.959 215.144 202.603 215.144 202.206V202.179ZM223.27 202.179C223.27 201.781 223.362 201.43 223.547 201.126C223.723 200.812 223.967 200.567 224.281 200.391C224.586 200.207 224.937 200.114 225.334 200.114H233.149C233.546 200.114 233.897 200.207 234.202 200.391C234.516 200.567 234.761 200.812 234.936 201.126C235.121 201.43 235.213 201.781 235.213 202.179V202.206C235.213 202.603 235.121 202.959 234.936 203.273C234.761 203.578 234.516 203.823 234.202 204.007C233.897 204.183 233.546 204.271 233.149 204.271H225.334C224.937 204.271 224.586 204.183 224.281 204.007C223.967 203.823 223.723 203.578 223.547 203.273C223.362 202.959 223.27 202.603 223.27 202.206V202.179ZM231.396 202.179C231.396 201.781 231.489 201.43 231.673 201.126C231.849 200.812 232.094 200.567 232.408 200.391C232.713 200.207 233.064 200.114 233.461 200.114H237.451C237.848 200.114 238.199 200.207 238.504 200.391C238.818 200.567 239.063 200.812 239.238 201.126C239.423 201.43 239.515 201.781 239.515 202.179V202.206C239.515 202.603 239.423 202.959 239.238 203.273C239.063 203.578 238.818 203.823 238.504 204.007C238.199 204.183 237.848 204.271 237.451 204.271H233.461C233.064 204.271 232.713 204.183 232.408 204.007C232.094 203.823 231.849 203.578 231.673 203.273C231.489 202.959 231.396 202.603 231.396 202.206V202.179ZM235.707 202.179C235.707 201.781 235.8 201.43 235.984 201.126C236.16 200.812 236.405 200.567 236.719 200.391C237.023 200.207 237.374 200.114 237.772 200.114H245.586C245.983 200.114 246.334 200.207 246.639 200.391C246.953 200.567 247.198 200.812 247.373 201.126C247.558 201.43 247.65 201.781 247.65 202.179V202.206C247.65 202.603 247.558 202.959 247.373 203.273C247.198 203.578 246.953 203.823 246.639 204.007C246.334 204.183 245.983 204.271 245.586 204.271H237.772C237.374 204.271 237.023 204.183 236.719 204.007C236.405 203.823 236.16 203.578 235.984 203.273C235.8 202.959 235.707 202.603 235.707 202.206V202.179ZM252.488 202.179C252.488 201.781 252.58 201.43 252.765 201.126C252.94 200.812 253.185 200.567 253.499 200.391C253.804 200.207 254.155 200.114 254.552 200.114H262.366C262.763 200.114 263.114 200.207 263.419 200.391C263.733 200.567 263.978 200.812 264.154 201.126C264.338 201.43 264.431 201.781 264.431 202.179V202.206C264.431 202.603 264.338 202.959 264.154 203.273C263.978 203.578 263.733 203.823 263.419 204.007C263.114 204.183 262.763 204.271 262.366 204.271H254.552C254.155 204.271 253.804 204.183 253.499 204.007C253.185 203.823 252.94 203.578 252.765 203.273C252.58 202.959 252.488 202.603 252.488 202.206V202.179ZM260.614 202.179C260.614 201.781 260.706 201.43 260.891 201.126C261.066 200.812 261.311 200.567 261.625 200.391C261.93 200.207 262.281 200.114 262.678 200.114H270.493C270.89 200.114 271.241 200.207 271.546 200.391C271.86 200.567 272.104 200.812 272.28 201.126C272.465 201.43 272.557 201.781 272.557 202.179V202.206C272.557 202.603 272.465 202.959 272.28 203.273C272.104 203.578 271.86 203.823 271.546 204.007C271.241 204.183 270.89 204.271 270.493 204.271H262.678C262.281 204.271 261.93 204.183 261.625 204.007C261.311 203.823 261.066 203.578 260.891 203.273C260.706 202.959 260.614 202.603 260.614 202.206V202.179ZM28.4569 224.179C28.4569 223.781 28.5493 223.43 28.734 223.126C28.9095 222.812 29.1543 222.567 29.4683 222.391C29.7731 222.207 30.1241 222.114 30.5213 222.114H34.5116C34.9088 222.114 35.2597 222.207 35.5646 222.391C35.8786 222.567 36.1234 222.812 36.2989 223.126C36.4836 223.43 36.576 223.781 36.576 224.179V224.206C36.576 224.603 36.4836 224.959 36.2989 225.273C36.1234 225.578 35.8786 225.823 35.5646 226.007C35.2597 226.183 34.9088 226.271 34.5116 226.271H30.5213C30.1241 226.271 29.7731 226.183 29.4683 226.007C29.1543 225.823 28.9095 225.578 28.734 225.273C28.5493 224.959 28.4569 224.603 28.4569 224.206V224.179ZM32.7677 224.179C32.7677 223.781 32.86 223.43 33.0448 223.126C33.2203 222.812 33.465 222.567 33.7791 222.391C34.0839 222.207 34.4349 222.114 34.8321 222.114H42.6464C43.0435 222.114 43.3945 222.207 43.6994 222.391C44.0134 222.567 44.2582 222.812 44.4337 223.126C44.6184 223.43 44.7108 223.781 44.7108 224.179V224.206C44.7108 224.603 44.6184 224.959 44.4337 225.273C44.2582 225.578 44.0134 225.823 43.6994 226.007C43.3945 226.183 43.0435 226.271 42.6464 226.271H34.8321C34.4349 226.271 34.0839 226.183 33.7791 226.007C33.465 225.823 33.2203 225.578 33.0448 225.273C32.86 224.959 32.7677 224.603 32.7677 224.206V224.179ZM40.894 224.179C40.894 223.781 40.9864 223.43 41.1711 223.126C41.3466 222.812 41.5914 222.567 41.9054 222.391C42.2103 222.207 42.5612 222.114 42.9584 222.114H50.7727C51.1699 222.114 51.5209 222.207 51.8257 222.391C52.1397 222.567 52.3845 222.812 52.56 223.126C52.7448 223.43 52.8371 223.781 52.8371 224.179V224.206C52.8371 224.603 52.7448 224.959 52.56 225.273C52.3845 225.578 52.1397 225.823 51.8257 226.007C51.5209 226.183 51.1699 226.271 50.7727 226.271H42.9584C42.5612 226.271 42.2103 226.183 41.9054 226.007C41.5914 225.823 41.3466 225.578 41.1711 225.273C40.9864 224.959 40.894 224.603 40.894 224.206V224.179ZM49.0204 224.179C49.0204 223.781 49.1127 223.43 49.2975 223.126C49.473 222.812 49.7177 222.567 50.0318 222.391C50.3366 222.207 50.6876 222.114 51.0848 222.114H58.8991C59.2962 222.114 59.6472 222.207 59.952 222.391C60.2661 222.567 60.5109 222.812 60.6864 223.126C60.8711 223.43 60.9635 223.781 60.9635 224.179V224.206C60.9635 224.603 60.8711 224.959 60.6864 225.273C60.5109 225.578 60.2661 225.823 59.952 226.007C59.6472 226.183 59.2962 226.271 58.8991 226.271H51.0848C50.6876 226.271 50.3366 226.183 50.0318 226.007C49.7177 225.823 49.473 225.578 49.2975 225.273C49.1127 224.959 49.0204 224.603 49.0204 224.206V224.179ZM65.8007 224.179C65.8007 223.781 65.8931 223.43 66.0778 223.126C66.2533 222.812 66.4981 222.567 66.8122 222.391C67.117 222.207 67.468 222.114 67.8652 222.114H75.6794C76.0766 222.114 76.4276 222.207 76.7324 222.391C77.0465 222.567 77.2912 222.812 77.4667 223.126C77.6515 223.43 77.7438 223.781 77.7438 224.179V224.206C77.7438 224.603 77.6515 224.959 77.4667 225.273C77.2912 225.578 77.0465 225.823 76.7324 226.007C76.4276 226.183 76.0766 226.271 75.6794 226.271H67.8652C67.468 226.271 67.117 226.183 66.8122 226.007C66.4981 225.823 66.2533 225.578 66.0778 225.273C65.8931 224.959 65.8007 224.603 65.8007 224.206V224.179ZM73.9271 224.179C73.9271 223.781 74.0195 223.43 74.2042 223.126C74.3797 222.812 74.6245 222.567 74.9385 222.391C75.2433 222.207 75.5943 222.114 75.9915 222.114H83.8058C84.203 222.114 84.554 222.207 84.8588 222.391C85.1728 222.567 85.4176 222.812 85.5931 223.126C85.7778 223.43 85.8702 223.781 85.8702 224.179V224.206C85.8702 224.603 85.7778 224.959 85.5931 225.273C85.4176 225.578 85.1728 225.823 84.8588 226.007C84.554 226.183 84.203 226.271 83.8058 226.271H75.9915C75.5943 226.271 75.2433 226.183 74.9385 226.007C74.6245 225.823 74.3797 225.578 74.2042 225.273C74.0195 224.959 73.9271 224.603 73.9271 224.206V224.179ZM82.0534 224.179C82.0534 223.781 82.1458 223.43 82.3305 223.126C82.506 222.812 82.7508 222.567 83.0649 222.391C83.3697 222.207 83.7207 222.114 84.1178 222.114H91.9321C92.3293 222.114 92.6803 222.207 92.9851 222.391C93.2992 222.567 93.5439 222.812 93.7194 223.126C93.9042 223.43 93.9965 223.781 93.9965 224.179V224.206C93.9965 224.603 93.9042 224.959 93.7194 225.273C93.5439 225.578 93.2992 225.823 92.9851 226.007C92.6803 226.183 92.3293 226.271 91.9321 226.271H84.1178C83.7207 226.271 83.3697 226.183 83.0649 226.007C82.7508 225.823 82.506 225.578 82.3305 225.273C82.1458 224.959 82.0534 224.603 82.0534 224.206V224.179ZM90.1798 224.179C90.1798 223.781 90.2721 223.43 90.4569 223.126C90.6324 222.812 90.8772 222.567 91.1912 222.391C91.496 222.207 91.847 222.114 92.2442 222.114H96.2345C96.6316 222.114 96.9826 222.207 97.2875 222.391C97.6015 222.567 97.8463 222.812 98.0218 223.126C98.2065 223.43 98.2989 223.781 98.2989 224.179V224.206C98.2989 224.603 98.2065 224.959 98.0218 225.273C97.8463 225.578 97.6015 225.823 97.2875 226.007C96.9826 226.183 96.6316 226.271 96.2345 226.271H92.2442C91.847 226.271 91.496 226.183 91.1912 226.007C90.8772 225.823 90.6324 225.578 90.4569 225.273C90.2721 224.959 90.1798 224.603 90.1798 224.206V224.179ZM103.145 224.179C103.145 223.781 103.237 223.43 103.422 223.126C103.597 222.812 103.842 222.567 104.156 222.391C104.461 222.207 104.812 222.114 105.209 222.114H113.023C113.42 222.114 113.771 222.207 114.076 222.391C114.39 222.567 114.635 222.812 114.811 223.126C114.995 223.43 115.088 223.781 115.088 224.179V224.206C115.088 224.603 114.995 224.959 114.811 225.273C114.635 225.578 114.39 225.823 114.076 226.007C113.771 226.183 113.42 226.271 113.023 226.271H105.209C104.812 226.271 104.461 226.183 104.156 226.007C103.842 225.823 103.597 225.578 103.422 225.273C103.237 224.959 103.145 224.603 103.145 224.206V224.179ZM111.271 224.179C111.271 223.781 111.363 223.43 111.548 223.126C111.724 222.812 111.968 222.567 112.282 222.391C112.587 222.207 112.938 222.114 113.335 222.114H117.326C117.723 222.114 118.074 222.207 118.379 222.391C118.693 222.567 118.937 222.812 119.113 223.126C119.298 223.43 119.39 223.781 119.39 224.179V224.206C119.39 224.603 119.298 224.959 119.113 225.273C118.937 225.578 118.693 225.823 118.379 226.007C118.074 226.183 117.723 226.271 117.326 226.271H113.335C112.938 226.271 112.587 226.183 112.282 226.007C111.968 225.823 111.724 225.578 111.548 225.273C111.363 224.959 111.271 224.603 111.271 224.206V224.179ZM115.582 224.179C115.582 223.781 115.674 223.43 115.859 223.126C116.034 222.812 116.279 222.567 116.593 222.391C116.898 222.207 117.249 222.114 117.646 222.114H125.46C125.858 222.114 126.209 222.207 126.513 222.391C126.827 222.567 127.072 222.812 127.248 223.126C127.432 223.43 127.525 223.781 127.525 224.179V224.206C127.525 224.603 127.432 224.959 127.248 225.273C127.072 225.578 126.827 225.823 126.513 226.007C126.209 226.183 125.858 226.271 125.46 226.271H117.646C117.249 226.271 116.898 226.183 116.593 226.007C116.279 225.823 116.034 225.578 115.859 225.273C115.674 224.959 115.582 224.603 115.582 224.206V224.179ZM123.708 224.179C123.708 223.781 123.8 223.43 123.985 223.126C124.161 222.812 124.405 222.567 124.719 222.391C125.024 222.207 125.375 222.114 125.772 222.114H133.587C133.984 222.114 134.335 222.207 134.64 222.391C134.954 222.567 135.199 222.812 135.374 223.126C135.559 223.43 135.651 223.781 135.651 224.179V224.206C135.651 224.603 135.559 224.959 135.374 225.273C135.199 225.578 134.954 225.823 134.64 226.007C134.335 226.183 133.984 226.271 133.587 226.271H125.772C125.375 226.271 125.024 226.183 124.719 226.007C124.405 225.823 124.161 225.578 123.985 225.273C123.8 224.959 123.708 224.603 123.708 224.206V224.179ZM131.834 224.179C131.834 223.781 131.927 223.43 132.112 223.126C132.287 222.812 132.532 222.567 132.846 222.391C133.151 222.207 133.502 222.114 133.899 222.114H137.889C138.286 222.114 138.637 222.207 138.942 222.391C139.256 222.567 139.501 222.812 139.676 223.126C139.861 223.43 139.954 223.781 139.954 224.179V224.206C139.954 224.603 139.861 224.959 139.676 225.273C139.501 225.578 139.256 225.823 138.942 226.007C138.637 226.183 138.286 226.271 137.889 226.271H133.899C133.502 226.271 133.151 226.183 132.846 226.007C132.532 225.823 132.287 225.578 132.112 225.273C131.927 224.959 131.834 224.603 131.834 224.206V224.179ZM136.145 224.179C136.145 223.781 136.238 223.43 136.422 223.126C136.598 222.812 136.843 222.567 137.157 222.391C137.461 222.207 137.812 222.114 138.21 222.114H146.024C146.421 222.114 146.772 222.207 147.077 222.391C147.391 222.567 147.636 222.812 147.811 223.126C147.996 223.43 148.088 223.781 148.088 224.179V224.206C148.088 224.603 147.996 224.959 147.811 225.273C147.636 225.578 147.391 225.823 147.077 226.007C146.772 226.183 146.421 226.271 146.024 226.271H138.21C137.812 226.271 137.461 226.183 137.157 226.007C136.843 225.823 136.598 225.578 136.422 225.273C136.238 224.959 136.145 224.603 136.145 224.206V224.179ZM144.272 224.179C144.272 223.781 144.364 223.43 144.549 223.126C144.724 222.812 144.969 222.567 145.283 222.391C145.588 222.207 145.939 222.114 146.336 222.114H154.15C154.547 222.114 154.898 222.207 155.203 222.391C155.517 222.567 155.762 222.812 155.938 223.126C156.122 223.43 156.215 223.781 156.215 224.179V224.206C156.215 224.603 156.122 224.959 155.938 225.273C155.762 225.578 155.517 225.823 155.203 226.007C154.898 226.183 154.547 226.271 154.15 226.271H146.336C145.939 226.271 145.588 226.183 145.283 226.007C144.969 225.823 144.724 225.578 144.549 225.273C144.364 224.959 144.272 224.603 144.272 224.206V224.179ZM152.398 224.179C152.398 223.781 152.49 223.43 152.675 223.126C152.85 222.812 153.095 222.567 153.409 222.391C153.714 222.207 154.065 222.114 154.462 222.114H162.277C162.674 222.114 163.025 222.207 163.33 222.391C163.644 222.567 163.888 222.812 164.064 223.126C164.249 223.43 164.341 223.781 164.341 224.179V224.206C164.341 224.603 164.249 224.959 164.064 225.273C163.888 225.578 163.644 225.823 163.33 226.007C163.025 226.183 162.674 226.271 162.277 226.271H154.462C154.065 226.271 153.714 226.183 153.409 226.007C153.095 225.823 152.85 225.578 152.675 225.273C152.49 224.959 152.398 224.603 152.398 224.206V224.179ZM169.178 224.179C169.178 223.781 169.271 223.43 169.455 223.126C169.631 222.812 169.876 222.567 170.19 222.391C170.494 222.207 170.845 222.114 171.243 222.114H175.233C175.63 222.114 175.981 222.207 176.286 222.391C176.6 222.567 176.845 222.812 177.02 223.126C177.205 223.43 177.297 223.781 177.297 224.179V224.206C177.297 224.603 177.205 224.959 177.02 225.273C176.845 225.578 176.6 225.823 176.286 226.007C175.981 226.183 175.63 226.271 175.233 226.271H171.243C170.845 226.271 170.494 226.183 170.19 226.007C169.876 225.823 169.631 225.578 169.455 225.273C169.271 224.959 169.178 224.603 169.178 224.206V224.179ZM173.489 224.179C173.489 223.781 173.581 223.43 173.766 223.126C173.942 222.812 174.186 222.567 174.5 222.391C174.805 222.207 175.156 222.114 175.553 222.114H183.368C183.765 222.114 184.116 222.207 184.421 222.391C184.735 222.567 184.98 222.812 185.155 223.126C185.34 223.43 185.432 223.781 185.432 224.179V224.206C185.432 224.603 185.34 224.959 185.155 225.273C184.98 225.578 184.735 225.823 184.421 226.007C184.116 226.183 183.765 226.271 183.368 226.271H175.553C175.156 226.271 174.805 226.183 174.5 226.007C174.186 225.823 173.942 225.578 173.766 225.273C173.581 224.959 173.489 224.603 173.489 224.206V224.179ZM190.269 224.179C190.269 223.781 190.362 223.43 190.547 223.126C190.722 222.812 190.967 222.567 191.281 222.391C191.586 222.207 191.937 222.114 192.334 222.114H200.148C200.545 222.114 200.896 222.207 201.201 222.391C201.515 222.567 201.76 222.812 201.935 223.126C202.12 223.43 202.213 223.781 202.213 224.179V224.206C202.213 224.603 202.12 224.959 201.935 225.273C201.76 225.578 201.515 225.823 201.201 226.007C200.896 226.183 200.545 226.271 200.148 226.271H192.334C191.937 226.271 191.586 226.183 191.281 226.007C190.967 225.823 190.722 225.578 190.547 225.273C190.362 224.959 190.269 224.603 190.269 224.206V224.179ZM207.05 224.179C207.05 223.781 207.142 223.43 207.327 223.126C207.502 222.812 207.747 222.567 208.061 222.391C208.366 222.207 208.717 222.114 209.114 222.114H216.928C217.326 222.114 217.677 222.207 217.981 222.391C218.296 222.567 218.54 222.812 218.716 223.126C218.901 223.43 218.993 223.781 218.993 224.179V224.206C218.993 224.603 218.901 224.959 218.716 225.273C218.54 225.578 218.296 225.823 217.981 226.007C217.677 226.183 217.326 226.271 216.928 226.271H209.114C208.717 226.271 208.366 226.183 208.061 226.007C207.747 225.823 207.502 225.578 207.327 225.273C207.142 224.959 207.05 224.603 207.05 224.206V224.179ZM215.176 224.179C215.176 223.781 215.269 223.43 215.453 223.126C215.629 222.812 215.874 222.567 216.188 222.391C216.492 222.207 216.843 222.114 217.241 222.114H225.055C225.452 222.114 225.803 222.207 226.108 222.391C226.422 222.567 226.667 222.812 226.842 223.126C227.027 223.43 227.119 223.781 227.119 224.179V224.206C227.119 224.603 227.027 224.959 226.842 225.273C226.667 225.578 226.422 225.823 226.108 226.007C225.803 226.183 225.452 226.271 225.055 226.271H217.241C216.843 226.271 216.492 226.183 216.188 226.007C215.874 225.823 215.629 225.578 215.453 225.273C215.269 224.959 215.176 224.603 215.176 224.206V224.179ZM223.303 224.179C223.303 223.781 223.395 223.43 223.58 223.126C223.755 222.812 224 222.567 224.314 222.391C224.619 222.207 224.97 222.114 225.367 222.114H233.181C233.578 222.114 233.929 222.207 234.234 222.391C234.548 222.567 234.793 222.812 234.969 223.126C235.153 223.43 235.246 223.781 235.246 224.179V224.206C235.246 224.603 235.153 224.959 234.969 225.273C234.793 225.578 234.548 225.823 234.234 226.007C233.929 226.183 233.578 226.271 233.181 226.271H225.367C224.97 226.271 224.619 226.183 224.314 226.007C224 225.823 223.755 225.578 223.58 225.273C223.395 224.959 223.303 224.603 223.303 224.206V224.179ZM231.429 224.179C231.429 223.781 231.521 223.43 231.706 223.126C231.881 222.812 232.126 222.567 232.44 222.391C232.745 222.207 233.096 222.114 233.493 222.114H237.484C237.881 222.114 238.232 222.207 238.537 222.391C238.851 222.567 239.095 222.812 239.271 223.126C239.456 223.43 239.548 223.781 239.548 224.179V224.206C239.548 224.603 239.456 224.959 239.271 225.273C239.095 225.578 238.851 225.823 238.537 226.007C238.232 226.183 237.881 226.271 237.484 226.271H233.493C233.096 226.271 232.745 226.183 232.44 226.007C232.126 225.823 231.881 225.578 231.706 225.273C231.521 224.959 231.429 224.603 231.429 224.206V224.179ZM235.74 224.179C235.74 223.781 235.832 223.43 236.017 223.126C236.192 222.812 236.437 222.567 236.751 222.391C237.056 222.207 237.407 222.114 237.804 222.114H245.618C246.015 222.114 246.366 222.207 246.671 222.391C246.985 222.567 247.23 222.812 247.406 223.126C247.59 223.43 247.683 223.781 247.683 224.179V224.206C247.683 224.603 247.59 224.959 247.406 225.273C247.23 225.578 246.985 225.823 246.671 226.007C246.366 226.183 246.015 226.271 245.618 226.271H237.804C237.407 226.271 237.056 226.183 236.751 226.007C236.437 225.823 236.192 225.578 236.017 225.273C235.832 224.959 235.74 224.603 235.74 224.206V224.179ZM252.52 224.179C252.52 223.781 252.612 223.43 252.797 223.126C252.973 222.812 253.217 222.567 253.531 222.391C253.836 222.207 254.187 222.114 254.584 222.114H262.399C262.796 222.114 263.147 222.207 263.452 222.391C263.766 222.567 264.011 222.812 264.186 223.126C264.371 223.43 264.463 223.781 264.463 224.179V224.206C264.463 224.603 264.371 224.959 264.186 225.273C264.011 225.578 263.766 225.823 263.452 226.007C263.147 226.183 262.796 226.271 262.399 226.271H254.584C254.187 226.271 253.836 226.183 253.531 226.007C253.217 225.823 252.973 225.578 252.797 225.273C252.612 224.959 252.52 224.603 252.52 224.206V224.179ZM260.646 224.179C260.646 223.781 260.739 223.43 260.923 223.126C261.099 222.812 261.344 222.567 261.658 222.391C261.963 222.207 262.314 222.114 262.711 222.114H270.525C270.922 222.114 271.273 222.207 271.578 222.391C271.892 222.567 272.137 222.812 272.312 223.126C272.497 223.43 272.589 223.781 272.589 224.179V224.206C272.589 224.603 272.497 224.959 272.312 225.273C272.137 225.578 271.892 225.823 271.578 226.007C271.273 226.183 270.922 226.271 270.525 226.271H262.711C262.314 226.271 261.963 226.183 261.658 226.007C261.344 225.823 261.099 225.578 260.923 225.273C260.739 224.959 260.646 224.603 260.646 224.206V224.179ZM268.773 224.179C268.773 223.781 268.865 223.43 269.05 223.126C269.225 222.812 269.47 222.567 269.784 222.391C270.089 222.207 270.44 222.114 270.837 222.114H278.651C279.049 222.114 279.4 222.207 279.704 222.391C280.018 222.567 280.263 222.812 280.439 223.126C280.623 223.43 280.716 223.781 280.716 224.179V224.206C280.716 224.603 280.623 224.959 280.439 225.273C280.263 225.578 280.018 225.823 279.704 226.007C279.4 226.183 279.049 226.271 278.651 226.271H270.837C270.44 226.271 270.089 226.183 269.784 226.007C269.47 225.823 269.225 225.578 269.05 225.273C268.865 224.959 268.773 224.603 268.773 224.206V224.179ZM28.4569 246.179C28.4569 245.781 28.5493 245.43 28.734 245.126C28.9095 244.812 29.1543 244.567 29.4683 244.391C29.7731 244.207 30.1241 244.114 30.5213 244.114H34.5116C34.9088 244.114 35.2597 244.207 35.5646 244.391C35.8786 244.567 36.1234 244.812 36.2989 245.126C36.4836 245.43 36.576 245.781 36.576 246.179V246.206C36.576 246.603 36.4836 246.959 36.2989 247.273C36.1234 247.578 35.8786 247.823 35.5646 248.007C35.2597 248.183 34.9088 248.271 34.5116 248.271H30.5213C30.1241 248.271 29.7731 248.183 29.4683 248.007C29.1543 247.823 28.9095 247.578 28.734 247.273C28.5493 246.959 28.4569 246.603 28.4569 246.206V246.179ZM32.7677 246.179C32.7677 245.781 32.86 245.43 33.0448 245.126C33.2203 244.812 33.465 244.567 33.7791 244.391C34.0839 244.207 34.4349 244.114 34.8321 244.114H42.6464C43.0435 244.114 43.3945 244.207 43.6994 244.391C44.0134 244.567 44.2582 244.812 44.4337 245.126C44.6184 245.43 44.7108 245.781 44.7108 246.179V246.206C44.7108 246.603 44.6184 246.959 44.4337 247.273C44.2582 247.578 44.0134 247.823 43.6994 248.007C43.3945 248.183 43.0435 248.271 42.6464 248.271H34.8321C34.4349 248.271 34.0839 248.183 33.7791 248.007C33.465 247.823 33.2203 247.578 33.0448 247.273C32.86 246.959 32.7677 246.603 32.7677 246.206V246.179ZM40.894 246.179C40.894 245.781 40.9864 245.43 41.1711 245.126C41.3466 244.812 41.5914 244.567 41.9054 244.391C42.2103 244.207 42.5612 244.114 42.9584 244.114H50.7727C51.1699 244.114 51.5209 244.207 51.8257 244.391C52.1397 244.567 52.3845 244.812 52.56 245.126C52.7448 245.43 52.8371 245.781 52.8371 246.179V246.206C52.8371 246.603 52.7448 246.959 52.56 247.273C52.3845 247.578 52.1397 247.823 51.8257 248.007C51.5209 248.183 51.1699 248.271 50.7727 248.271H42.9584C42.5612 248.271 42.2103 248.183 41.9054 248.007C41.5914 247.823 41.3466 247.578 41.1711 247.273C40.9864 246.959 40.894 246.603 40.894 246.206V246.179ZM49.0204 246.179C49.0204 245.781 49.1127 245.43 49.2975 245.126C49.473 244.812 49.7177 244.567 50.0318 244.391C50.3366 244.207 50.6876 244.114 51.0848 244.114H58.8991C59.2962 244.114 59.6472 244.207 59.952 244.391C60.2661 244.567 60.5109 244.812 60.6864 245.126C60.8711 245.43 60.9635 245.781 60.9635 246.179V246.206C60.9635 246.603 60.8711 246.959 60.6864 247.273C60.5109 247.578 60.2661 247.823 59.952 248.007C59.6472 248.183 59.2962 248.271 58.8991 248.271H51.0848C50.6876 248.271 50.3366 248.183 50.0318 248.007C49.7177 247.823 49.473 247.578 49.2975 247.273C49.1127 246.959 49.0204 246.603 49.0204 246.206V246.179ZM57.1467 246.179C57.1467 245.781 57.2391 245.43 57.4238 245.126C57.5993 244.812 57.8441 244.567 58.1581 244.391C58.4629 244.207 58.8139 244.114 59.2111 244.114H63.2014C63.5986 244.114 63.9496 244.207 64.2544 244.391C64.5684 244.567 64.8132 244.812 64.9887 245.126C65.1734 245.43 65.2658 245.781 65.2658 246.179V246.206C65.2658 246.603 65.1734 246.959 64.9887 247.273C64.8132 247.578 64.5684 247.823 64.2544 248.007C63.9496 248.183 63.5986 248.271 63.2014 248.271H59.2111C58.8139 248.271 58.4629 248.183 58.1581 248.007C57.8441 247.823 57.5993 247.578 57.4238 247.273C57.2391 246.959 57.1467 246.603 57.1467 246.206V246.179ZM61.4575 246.179C61.4575 245.781 61.5499 245.43 61.7346 245.126C61.9101 244.812 62.1549 244.567 62.4689 244.391C62.7737 244.207 63.1247 244.114 63.5219 244.114H67.5122C67.9094 244.114 68.2603 244.207 68.5652 244.391C68.8792 244.567 69.124 244.812 69.2995 245.126C69.4842 245.43 69.5766 245.781 69.5766 246.179V246.206C69.5766 246.603 69.4842 246.959 69.2995 247.273C69.124 247.578 68.8792 247.823 68.5652 248.007C68.2603 248.183 67.9094 248.271 67.5122 248.271H63.5219C63.1247 248.271 62.7737 248.183 62.4689 248.007C62.1549 247.823 61.9101 247.578 61.7346 247.273C61.5499 246.959 61.4575 246.603 61.4575 246.206V246.179ZM74.4223 246.179C74.4223 245.781 74.5147 245.43 74.6994 245.126C74.8749 244.812 75.1197 244.567 75.4337 244.391C75.7385 244.207 76.0895 244.114 76.4867 244.114H84.301C84.6982 244.114 85.0492 244.207 85.354 244.391C85.668 244.567 85.9128 244.812 86.0883 245.126C86.273 245.43 86.3654 245.781 86.3654 246.179V246.206C86.3654 246.603 86.273 246.959 86.0883 247.273C85.9128 247.578 85.668 247.823 85.354 248.007C85.0492 248.183 84.6982 248.271 84.301 248.271H76.4867C76.0895 248.271 75.7385 248.183 75.4337 248.007C75.1197 247.823 74.8749 247.578 74.6994 247.273C74.5147 246.959 74.4223 246.603 74.4223 246.206V246.179ZM82.5486 246.179C82.5486 245.781 82.641 245.43 82.8258 245.126C83.0012 244.812 83.246 244.567 83.5601 244.391C83.8649 244.207 84.2159 244.114 84.6131 244.114H92.4273C92.8245 244.114 93.1755 244.207 93.4803 244.391C93.7944 244.567 94.0392 244.812 94.2147 245.126C94.3994 245.43 94.4918 245.781 94.4918 246.179V246.206C94.4918 246.603 94.3994 246.959 94.2147 247.273C94.0392 247.578 93.7944 247.823 93.4803 248.007C93.1755 248.183 92.8245 248.271 92.4273 248.271H84.6131C84.2159 248.271 83.8649 248.183 83.5601 248.007C83.246 247.823 83.0012 247.578 82.8258 247.273C82.641 246.959 82.5486 246.603 82.5486 246.206V246.179ZM90.675 246.179C90.675 245.781 90.7674 245.43 90.9521 245.126C91.1276 244.812 91.3724 244.567 91.6864 244.391C91.9912 244.207 92.3422 244.114 92.7394 244.114H96.7297C97.1269 244.114 97.4779 244.207 97.7827 244.391C98.0967 244.567 98.3415 244.812 98.517 245.126C98.7017 245.43 98.7941 245.781 98.7941 246.179V246.206C98.7941 246.603 98.7017 246.959 98.517 247.273C98.3415 247.578 98.0967 247.823 97.7827 248.007C97.4779 248.183 97.1269 248.271 96.7297 248.271H92.7394C92.3422 248.271 91.9912 248.183 91.6864 248.007C91.3724 247.823 91.1276 247.578 90.9521 247.273C90.7674 246.959 90.675 246.603 90.675 246.206V246.179ZM103.64 246.179C103.64 245.781 103.732 245.43 103.917 245.126C104.092 244.812 104.337 244.567 104.651 244.391C104.956 244.207 105.307 244.114 105.704 244.114H113.518C113.916 244.114 114.267 244.207 114.571 244.391C114.886 244.567 115.13 244.812 115.306 245.126C115.491 245.43 115.583 245.781 115.583 246.179V246.206C115.583 246.603 115.491 246.959 115.306 247.273C115.13 247.578 114.886 247.823 114.571 248.007C114.267 248.183 113.916 248.271 113.518 248.271H105.704C105.307 248.271 104.956 248.183 104.651 248.007C104.337 247.823 104.092 247.578 103.917 247.273C103.732 246.959 103.64 246.603 103.64 246.206V246.179ZM111.766 246.179C111.766 245.781 111.859 245.43 112.043 245.126C112.219 244.812 112.464 244.567 112.778 244.391C113.082 244.207 113.433 244.114 113.831 244.114H121.645C122.042 244.114 122.393 244.207 122.698 244.391C123.012 244.567 123.257 244.812 123.432 245.126C123.617 245.43 123.709 245.781 123.709 246.179V246.206C123.709 246.603 123.617 246.959 123.432 247.273C123.257 247.578 123.012 247.823 122.698 248.007C122.393 248.183 122.042 248.271 121.645 248.271H113.831C113.433 248.271 113.082 248.183 112.778 248.007C112.464 247.823 112.219 247.578 112.043 247.273C111.859 246.959 111.766 246.603 111.766 246.206V246.179ZM119.892 246.179C119.892 245.781 119.985 245.43 120.17 245.126C120.345 244.812 120.59 244.567 120.904 244.391C121.209 244.207 121.56 244.114 121.957 244.114H129.771C130.168 244.114 130.519 244.207 130.824 244.391C131.138 244.567 131.383 244.812 131.559 245.126C131.743 245.43 131.836 245.781 131.836 246.179V246.206C131.836 246.603 131.743 246.959 131.559 247.273C131.383 247.578 131.138 247.823 130.824 248.007C130.519 248.183 130.168 248.271 129.771 248.271H121.957C121.56 248.271 121.209 248.183 120.904 248.007C120.59 247.823 120.345 247.578 120.17 247.273C119.985 246.959 119.892 246.603 119.892 246.206V246.179ZM128.019 246.179C128.019 245.781 128.111 245.43 128.296 245.126C128.471 244.812 128.716 244.567 129.03 244.391C129.335 244.207 129.686 244.114 130.083 244.114H134.074C134.471 244.114 134.822 244.207 135.127 244.391C135.441 244.567 135.685 244.812 135.861 245.126C136.046 245.43 136.138 245.781 136.138 246.179V246.206C136.138 246.603 136.046 246.959 135.861 247.273C135.685 247.578 135.441 247.823 135.127 248.007C134.822 248.183 134.471 248.271 134.074 248.271H130.083C129.686 248.271 129.335 248.183 129.03 248.007C128.716 247.823 128.471 247.578 128.296 247.273C128.111 246.959 128.019 246.603 128.019 246.206V246.179ZM132.33 246.179C132.33 245.781 132.422 245.43 132.607 245.126C132.782 244.812 133.027 244.567 133.341 244.391C133.646 244.207 133.997 244.114 134.394 244.114H142.208C142.605 244.114 142.956 244.207 143.261 244.391C143.575 244.567 143.82 244.812 143.996 245.126C144.18 245.43 144.273 245.781 144.273 246.179V246.206C144.273 246.603 144.18 246.959 143.996 247.273C143.82 247.578 143.575 247.823 143.261 248.007C142.956 248.183 142.605 248.271 142.208 248.271H134.394C133.997 248.271 133.646 248.183 133.341 248.007C133.027 247.823 132.782 247.578 132.607 247.273C132.422 246.959 132.33 246.603 132.33 246.206V246.179ZM140.456 246.179C140.456 245.781 140.548 245.43 140.733 245.126C140.909 244.812 141.153 244.567 141.467 244.391C141.772 244.207 142.123 244.114 142.52 244.114H150.335C150.732 244.114 151.083 244.207 151.388 244.391C151.702 244.567 151.946 244.812 152.122 245.126C152.307 245.43 152.399 245.781 152.399 246.179V246.206C152.399 246.603 152.307 246.959 152.122 247.273C151.946 247.578 151.702 247.823 151.388 248.007C151.083 248.183 150.732 248.271 150.335 248.271H142.52C142.123 248.271 141.772 248.183 141.467 248.007C141.153 247.823 140.909 247.578 140.733 247.273C140.548 246.959 140.456 246.603 140.456 246.206V246.179ZM148.582 246.179C148.582 245.781 148.675 245.43 148.859 245.126C149.035 244.812 149.28 244.567 149.594 244.391C149.899 244.207 150.25 244.114 150.647 244.114H158.461C158.858 244.114 159.209 244.207 159.514 244.391C159.828 244.567 160.073 244.812 160.248 245.126C160.433 245.43 160.525 245.781 160.525 246.179V246.206C160.525 246.603 160.433 246.959 160.248 247.273C160.073 247.578 159.828 247.823 159.514 248.007C159.209 248.183 158.858 248.271 158.461 248.271H150.647C150.25 248.271 149.899 248.183 149.594 248.007C149.28 247.823 149.035 247.578 148.859 247.273C148.675 246.959 148.582 246.603 148.582 246.206V246.179ZM156.709 246.179C156.709 245.781 156.801 245.43 156.986 245.126C157.161 244.812 157.406 244.567 157.72 244.391C158.025 244.207 158.376 244.114 158.773 244.114H162.763C163.161 244.114 163.512 244.207 163.816 244.391C164.13 244.567 164.375 244.812 164.551 245.126C164.735 245.43 164.828 245.781 164.828 246.179V246.206C164.828 246.603 164.735 246.959 164.551 247.273C164.375 247.578 164.13 247.823 163.816 248.007C163.512 248.183 163.161 248.271 162.763 248.271H158.773C158.376 248.271 158.025 248.183 157.72 248.007C157.406 247.823 157.161 247.578 156.986 247.273C156.801 246.959 156.709 246.603 156.709 246.206V246.179ZM161.019 246.179C161.019 245.781 161.112 245.43 161.297 245.126C161.472 244.812 161.717 244.567 162.031 244.391C162.336 244.207 162.687 244.114 163.084 244.114H170.898C171.295 244.114 171.646 244.207 171.951 244.391C172.265 244.567 172.51 244.812 172.685 245.126C172.87 245.43 172.963 245.781 172.963 246.179V246.206C172.963 246.603 172.87 246.959 172.685 247.273C172.51 247.578 172.265 247.823 171.951 248.007C171.646 248.183 171.295 248.271 170.898 248.271H163.084C162.687 248.271 162.336 248.183 162.031 248.007C161.717 247.823 161.472 247.578 161.297 247.273C161.112 246.959 161.019 246.603 161.019 246.206V246.179ZM169.146 246.179C169.146 245.781 169.238 245.43 169.423 245.126C169.598 244.812 169.843 244.567 170.157 244.391C170.462 244.207 170.813 244.114 171.21 244.114H175.2C175.598 244.114 175.949 244.207 176.253 244.391C176.568 244.567 176.812 244.812 176.988 245.126C177.173 245.43 177.265 245.781 177.265 246.179V246.206C177.265 246.603 177.173 246.959 176.988 247.273C176.812 247.578 176.568 247.823 176.253 248.007C175.949 248.183 175.598 248.271 175.2 248.271H171.21C170.813 248.271 170.462 248.183 170.157 248.007C169.843 247.823 169.598 247.578 169.423 247.273C169.238 246.959 169.146 246.603 169.146 246.206V246.179ZM173.457 246.179C173.457 245.781 173.549 245.43 173.734 245.126C173.909 244.812 174.154 244.567 174.468 244.391C174.773 244.207 175.124 244.114 175.521 244.114H179.511C179.908 244.114 180.259 244.207 180.564 244.391C180.878 244.567 181.123 244.812 181.299 245.126C181.483 245.43 181.576 245.781 181.576 246.179V246.206C181.576 246.603 181.483 246.959 181.299 247.273C181.123 247.578 180.878 247.823 180.564 248.007C180.259 248.183 179.908 248.271 179.511 248.271H175.521C175.124 248.271 174.773 248.183 174.468 248.007C174.154 247.823 173.909 247.578 173.734 247.273C173.549 246.959 173.457 246.603 173.457 246.206V246.179ZM177.767 246.179C177.767 245.781 177.86 245.43 178.044 245.126C178.22 244.812 178.465 244.567 178.779 244.391C179.084 244.207 179.435 244.114 179.832 244.114H187.646C188.043 244.114 188.394 244.207 188.699 244.391C189.013 244.567 189.258 244.812 189.433 245.126C189.618 245.43 189.71 245.781 189.71 246.179V246.206C189.71 246.603 189.618 246.959 189.433 247.273C189.258 247.578 189.013 247.823 188.699 248.007C188.394 248.183 188.043 248.271 187.646 248.271H179.832C179.435 248.271 179.084 248.183 178.779 248.007C178.465 247.823 178.22 247.578 178.044 247.273C177.86 246.959 177.767 246.603 177.767 246.206V246.179ZM185.894 246.179C185.894 245.781 185.986 245.43 186.171 245.126C186.346 244.812 186.591 244.567 186.905 244.391C187.21 244.207 187.561 244.114 187.958 244.114H195.772C196.17 244.114 196.521 244.207 196.825 244.391C197.139 244.567 197.384 244.812 197.56 245.126C197.744 245.43 197.837 245.781 197.837 246.179V246.206C197.837 246.603 197.744 246.959 197.56 247.273C197.384 247.578 197.139 247.823 196.825 248.007C196.521 248.183 196.17 248.271 195.772 248.271H187.958C187.561 248.271 187.21 248.183 186.905 248.007C186.591 247.823 186.346 247.578 186.171 247.273C185.986 246.959 185.894 246.603 185.894 246.206V246.179ZM202.674 246.179C202.674 245.781 202.766 245.43 202.951 245.126C203.127 244.812 203.371 244.567 203.686 244.391C203.99 244.207 204.341 244.114 204.738 244.114H212.553C212.95 244.114 213.301 244.207 213.606 244.391C213.92 244.567 214.165 244.812 214.34 245.126C214.525 245.43 214.617 245.781 214.617 246.179V246.206C214.617 246.603 214.525 246.959 214.34 247.273C214.165 247.578 213.92 247.823 213.606 248.007C213.301 248.183 212.95 248.271 212.553 248.271H204.738C204.341 248.271 203.99 248.183 203.686 248.007C203.371 247.823 203.127 247.578 202.951 247.273C202.766 246.959 202.674 246.603 202.674 246.206V246.179ZM210.8 246.179C210.8 245.781 210.893 245.43 211.078 245.126C211.253 244.812 211.498 244.567 211.812 244.391C212.117 244.207 212.468 244.114 212.865 244.114H220.679C221.076 244.114 221.427 244.207 221.732 244.391C222.046 244.567 222.291 244.812 222.466 245.126C222.651 245.43 222.744 245.781 222.744 246.179V246.206C222.744 246.603 222.651 246.959 222.466 247.273C222.291 247.578 222.046 247.823 221.732 248.007C221.427 248.183 221.076 248.271 220.679 248.271H212.865C212.468 248.271 212.117 248.183 211.812 248.007C211.498 247.823 211.253 247.578 211.078 247.273C210.893 246.959 210.8 246.603 210.8 246.206V246.179ZM218.927 246.179C218.927 245.781 219.019 245.43 219.204 245.126C219.379 244.812 219.624 244.567 219.938 244.391C220.243 244.207 220.594 244.114 220.991 244.114H224.981C225.379 244.114 225.73 244.207 226.034 244.391C226.348 244.567 226.593 244.812 226.769 245.126C226.953 245.43 227.046 245.781 227.046 246.179V246.206C227.046 246.603 226.953 246.959 226.769 247.273C226.593 247.578 226.348 247.823 226.034 248.007C225.73 248.183 225.379 248.271 224.981 248.271H220.991C220.594 248.271 220.243 248.183 219.938 248.007C219.624 247.823 219.379 247.578 219.204 247.273C219.019 246.959 218.927 246.603 218.927 246.206V246.179ZM223.238 246.179C223.238 245.781 223.33 245.43 223.515 245.126C223.69 244.812 223.935 244.567 224.249 244.391C224.554 244.207 224.905 244.114 225.302 244.114H233.116C233.513 244.114 233.864 244.207 234.169 244.391C234.483 244.567 234.728 244.812 234.904 245.126C235.088 245.43 235.181 245.781 235.181 246.179V246.206C235.181 246.603 235.088 246.959 234.904 247.273C234.728 247.578 234.483 247.823 234.169 248.007C233.864 248.183 233.513 248.271 233.116 248.271H225.302C224.905 248.271 224.554 248.183 224.249 248.007C223.935 247.823 223.69 247.578 223.515 247.273C223.33 246.959 223.238 246.603 223.238 246.206V246.179ZM231.364 246.179C231.364 245.781 231.456 245.43 231.641 245.126C231.817 244.812 232.061 244.567 232.375 244.391C232.68 244.207 233.031 244.114 233.428 244.114H241.243C241.64 244.114 241.991 244.207 242.296 244.391C242.61 244.567 242.854 244.812 243.03 245.126C243.215 245.43 243.307 245.781 243.307 246.179V246.206C243.307 246.603 243.215 246.959 243.03 247.273C242.854 247.578 242.61 247.823 242.296 248.007C241.991 248.183 241.64 248.271 241.243 248.271H233.428C233.031 248.271 232.68 248.183 232.375 248.007C232.061 247.823 231.817 247.578 231.641 247.273C231.456 246.959 231.364 246.603 231.364 246.206V246.179ZM239.49 246.179C239.49 245.781 239.583 245.43 239.767 245.126C239.943 244.812 240.188 244.567 240.502 244.391C240.806 244.207 241.157 244.114 241.555 244.114H245.545C245.942 244.114 246.293 244.207 246.598 244.391C246.912 244.567 247.157 244.812 247.332 245.126C247.517 245.43 247.609 245.781 247.609 246.179V246.206C247.609 246.603 247.517 246.959 247.332 247.273C247.157 247.578 246.912 247.823 246.598 248.007C246.293 248.183 245.942 248.271 245.545 248.271H241.555C241.157 248.271 240.806 248.183 240.502 248.007C240.188 247.823 239.943 247.578 239.767 247.273C239.583 246.959 239.49 246.603 239.49 246.206V246.179ZM243.801 246.179C243.801 245.781 243.893 245.43 244.078 245.126C244.254 244.812 244.498 244.567 244.812 244.391C245.117 244.207 245.468 244.114 245.865 244.114H253.68C254.077 244.114 254.428 244.207 254.733 244.391C255.047 244.567 255.292 244.812 255.467 245.126C255.652 245.43 255.744 245.781 255.744 246.179V246.206C255.744 246.603 255.652 246.959 255.467 247.273C255.292 247.578 255.047 247.823 254.733 248.007C254.428 248.183 254.077 248.271 253.68 248.271H245.865C245.468 248.271 245.117 248.183 244.812 248.007C244.498 247.823 244.254 247.578 244.078 247.273C243.893 246.959 243.801 246.603 243.801 246.206V246.179ZM260.581 246.179C260.581 245.781 260.674 245.43 260.859 245.126C261.034 244.812 261.279 244.567 261.593 244.391C261.898 244.207 262.249 244.114 262.646 244.114H270.46C270.857 244.114 271.208 244.207 271.513 244.391C271.827 244.567 272.072 244.812 272.247 245.126C272.432 245.43 272.525 245.781 272.525 246.179V246.206C272.525 246.603 272.432 246.959 272.247 247.273C272.072 247.578 271.827 247.823 271.513 248.007C271.208 248.183 270.857 248.271 270.46 248.271H262.646C262.249 248.271 261.898 248.183 261.593 248.007C261.279 247.823 261.034 247.578 260.859 247.273C260.674 246.959 260.581 246.603 260.581 246.206V246.179ZM268.708 246.179C268.708 245.781 268.8 245.43 268.985 245.126C269.16 244.812 269.405 244.567 269.719 244.391C270.024 244.207 270.375 244.114 270.772 244.114H274.762C275.16 244.114 275.511 244.207 275.815 244.391C276.129 244.567 276.374 244.812 276.55 245.126C276.734 245.43 276.827 245.781 276.827 246.179V246.206C276.827 246.603 276.734 246.959 276.55 247.273C276.374 247.578 276.129 247.823 275.815 248.007C275.511 248.183 275.16 248.271 274.762 248.271H270.772C270.375 248.271 270.024 248.183 269.719 248.007C269.405 247.823 269.16 247.578 268.985 247.273C268.8 246.959 268.708 246.603 268.708 246.206V246.179ZM273.019 246.179C273.019 245.781 273.111 245.43 273.296 245.126C273.471 244.812 273.716 244.567 274.03 244.391C274.335 244.207 274.686 244.114 275.083 244.114H282.897C283.294 244.114 283.645 244.207 283.95 244.391C284.264 244.567 284.509 244.812 284.685 245.126C284.869 245.43 284.962 245.781 284.962 246.179V246.206C284.962 246.603 284.869 246.959 284.685 247.273C284.509 247.578 284.264 247.823 283.95 248.007C283.645 248.183 283.294 248.271 282.897 248.271H275.083C274.686 248.271 274.335 248.183 274.03 248.007C273.716 247.823 273.471 247.578 273.296 247.273C273.111 246.959 273.019 246.603 273.019 246.206V246.179Z" fill="#8CA2C0"/>
<rect x="30.8815" y="273.599" width="273.234" height="32.9334" rx="16.4667" stroke="#486284" stroke-width="0.692756"/>
<path d="M145.837 291.007C145.837 290.69 145.911 290.409 146.059 290.165C146.199 289.914 146.395 289.718 146.647 289.577C146.89 289.43 147.171 289.356 147.489 289.356H153.74C154.058 289.356 154.339 289.43 154.583 289.577C154.834 289.718 155.03 289.914 155.17 290.165C155.318 290.409 155.392 290.69 155.392 291.007V291.029C155.392 291.347 155.318 291.632 155.17 291.883C155.03 292.127 154.834 292.323 154.583 292.47C154.339 292.611 154.058 292.681 153.74 292.681H147.489C147.171 292.681 146.89 292.611 146.647 292.47C146.395 292.323 146.199 292.127 146.059 291.883C145.911 291.632 145.837 291.347 145.837 291.029V291.007ZM152.408 291.007C152.408 290.69 152.482 290.409 152.629 290.165C152.77 289.914 152.966 289.718 153.217 289.577C153.461 289.43 153.742 289.356 154.059 289.356H160.311C160.628 289.356 160.909 289.43 161.153 289.577C161.404 289.718 161.6 289.914 161.741 290.165C161.888 290.409 161.962 290.69 161.962 291.007V291.029C161.962 291.347 161.888 291.632 161.741 291.883C161.6 292.127 161.404 292.323 161.153 292.47C160.909 292.611 160.628 292.681 160.311 292.681H154.059C153.742 292.681 153.461 292.611 153.217 292.47C152.966 292.323 152.77 292.127 152.629 291.883C152.482 291.632 152.408 291.347 152.408 291.029V291.007ZM158.978 291.007C158.978 290.69 159.052 290.409 159.2 290.165C159.34 289.914 159.536 289.718 159.787 289.577C160.031 289.43 160.312 289.356 160.63 289.356H166.881C167.199 289.356 167.48 289.43 167.723 289.577C167.975 289.718 168.17 289.914 168.311 290.165C168.459 290.409 168.533 290.69 168.533 291.007V291.029C168.533 291.347 168.459 291.632 168.311 291.883C168.17 292.127 167.975 292.323 167.723 292.47C167.48 292.611 167.199 292.681 166.881 292.681H160.63C160.312 292.681 160.031 292.611 159.787 292.47C159.536 292.323 159.34 292.127 159.2 291.883C159.052 291.632 158.978 291.347 158.978 291.029V291.007ZM165.548 291.007C165.548 290.69 165.622 290.409 165.77 290.165C165.911 289.914 166.106 289.718 166.358 289.577C166.601 289.43 166.882 289.356 167.2 289.356H170.392C170.71 289.356 170.991 289.43 171.235 289.577C171.486 289.718 171.682 289.914 171.822 290.165C171.97 290.409 172.044 290.69 172.044 291.007V291.029C172.044 291.347 171.97 291.632 171.822 291.883C171.682 292.127 171.486 292.323 171.235 292.47C170.991 292.611 170.71 292.681 170.392 292.681H167.2C166.882 292.681 166.601 292.611 166.358 292.47C166.106 292.323 165.911 292.127 165.77 291.883C165.622 291.632 165.548 291.347 165.548 291.029V291.007ZM169.066 291.007C169.066 290.69 169.14 290.409 169.288 290.165C169.428 289.914 169.624 289.718 169.875 289.577C170.119 289.43 170.4 289.356 170.718 289.356H176.969C177.287 289.356 177.568 289.43 177.812 289.577C178.063 289.718 178.259 289.914 178.399 290.165C178.547 290.409 178.621 290.69 178.621 291.007V291.029C178.621 291.347 178.547 291.632 178.399 291.883C178.259 292.127 178.063 292.323 177.812 292.47C177.568 292.611 177.287 292.681 176.969 292.681H170.718C170.4 292.681 170.119 292.611 169.875 292.47C169.624 292.323 169.428 292.127 169.288 291.883C169.14 291.632 169.066 291.347 169.066 291.029V291.007ZM175.637 291.007C175.637 290.69 175.711 290.409 175.858 290.165C175.999 289.914 176.195 289.718 176.446 289.577C176.69 289.43 176.97 289.356 177.288 289.356H180.48C180.798 289.356 181.079 289.43 181.323 289.577C181.574 289.718 181.77 289.914 181.91 290.165C182.058 290.409 182.132 290.69 182.132 291.007V291.029C182.132 291.347 182.058 291.632 181.91 291.883C181.77 292.127 181.574 292.323 181.323 292.47C181.079 292.611 180.798 292.681 180.48 292.681H177.288C176.97 292.681 176.69 292.611 176.446 292.47C176.195 292.323 175.999 292.127 175.858 291.883C175.711 291.632 175.637 291.347 175.637 291.029V291.007ZM179.155 291.007C179.155 290.69 179.228 290.409 179.376 290.165C179.517 289.914 179.712 289.718 179.964 289.577C180.208 289.43 180.488 289.356 180.806 289.356H187.058C187.375 289.356 187.656 289.43 187.9 289.577C188.151 289.718 188.347 289.914 188.487 290.165C188.635 290.409 188.709 290.69 188.709 291.007V291.029C188.709 291.347 188.635 291.632 188.487 291.883C188.347 292.127 188.151 292.323 187.9 292.47C187.656 292.611 187.375 292.681 187.058 292.681H180.806C180.488 292.681 180.208 292.611 179.964 292.47C179.712 292.323 179.517 292.127 179.376 291.883C179.228 291.632 179.155 291.347 179.155 291.029V291.007Z" fill="#486284"/>
<rect x="30.5352" y="328.354" width="274.671" height="190.951" rx="16.6261" fill="#CED6E1"/>
<path d="M201.122 449.692V397.967C201.122 393.902 197.796 390.577 193.732 390.577H142.007C137.942 390.577 134.617 393.902 134.617 397.967V449.692C134.617 453.756 137.942 457.082 142.007 457.082H193.732C197.796 457.082 201.122 453.756 201.122 449.692ZM154.938 429.371L164.175 440.492L177.106 423.829L193.732 445.998H142.007L154.938 429.371Z" fill="#9CB0C9"/>
</g>
<g opacity="0.6">
<rect x="26.3164" y="562.758" width="280.39" height="271.61" rx="22.5366" fill="#E9EBEF"/>
</g>
</g>
<defs>
<clipPath id="clip0_2932_414864">
<rect width="336" height="642" fill="white"/>
</clipPath>
</defs>
</svg>
