<svg xmlns="http://www.w3.org/2000/svg" viewBox="0 0 20.99 20.99"><title>ic-buklet</title><g fill="#f2711c"><path d="M20.65 1.92L14 0h-.26L7.16 1.88.6 0a.48.48 0 0 0-.6.47v18.15a.48.48 0 0 0 .35.46L7 21h.26l6.55-1.86L20.39 21h.13a.48.48 0 0 0 .47-.47V2.37a.48.48 0 0 0-.35-.46zm-13 .82l5.71-1.64v17.16l-5.73 1.63zM.95 1.1l5.73 1.63v17.16L.95 18.26zM20 19.89l-5.73-1.63V1.1L20 2.73zm0 0"/><path d="M5.39 17.15l-2.89-.82a.47.47 0 0 0-.26.91l2.88.82h.13a.48.48 0 0 0 .13-.93zm0-2.38L2.5 14a.47.47 0 0 0-.26.91l2.88.82h.13a.48.48 0 0 0 .13-.93zm0-2.37l-2.89-.82a.47.47 0 0 0-.26.91l2.88.82h.13a.48.48 0 0 0 .13-.93zm0-8.65L2.5 2.93a.48.48 0 0 0-.6.46v6.27a.47.47 0 0 0 .35.46l2.88.82h.13a.48.48 0 0 0 .47-.47V4.21a.47.47 0 0 0-.35-.46zm-.6 6.1L2.85 9.3V4l1.93.55zm4.27-5.17h.13l2.88-.82a.48.48 0 0 0-.26-.91l-2.88.82a.48.48 0 0 0 .13.93zm2.75 11.65l-2.88.82a.48.48 0 0 0 .13.93h.13l2.88-.82a.48.48 0 1 0-.26-.91zm0-2.33l-2.88.82a.48.48 0 0 0 .13.93h.13l2.88-.82a.48.48 0 1 0-.26-.91zm0-2.42l-2.88.82a.48.48 0 0 0 .13.93h.13l2.88-.82a.48.48 0 1 0-.26-.91zm0-2.38l-2.88.8a.48.48 0 0 0 .13.93h.13l2.88-.82a.48.48 0 1 0-.26-.91zm3.8-5.35l2.88.82h.13a.47.47 0 0 0 .13-.93l-2.88-.82a.48.48 0 0 0-.26.91zm0 2.37l2.88.78h.13a.47.47 0 0 0 .13-.93l-2.88-.82a.48.48 0 0 0-.26.91zm0 2.38l2.88.82h.13a.47.47 0 0 0 .13-.93l-2.88-.82a.48.48 0 0 0-.26.91zm0 8.64l2.88.82h.13a.47.47 0 0 0 .47-.47v-6.26a.48.48 0 0 0-.35-.46l-2.88-.82a.47.47 0 0 0-.6.46v6.27a.48.48 0 0 0 .34.46zm.61-6.1l1.93.55V17l-1.93-.55zm0 0"/></g></svg>