<svg xmlns="http://www.w3.org/2000/svg" viewBox="0 0 23.21 23.21"><defs><style>.cls-1{fill:#fbbd08;}</style></defs><title>ic-calendar</title><g id="Слой_2" data-name="Слой 2"><g id="Слой_2-2" data-name="Слой 2"><g id="_Группа_" data-name="&lt;Группа&gt;"><path id="_Составной_контур_" data-name="&lt;Составной контур&gt;" class="cls-1" d="M23.19,18.15,18.9,2.49a.49.49,0,0,0-.6-.35l-1,.26-.28-1A1.86,1.86,0,0,0,14.75.07a1.8,1.8,0,0,0-1.32,2.25l.28,1-2,.53-.28-1A1.86,1.86,0,0,0,9.14,1.55,1.8,1.8,0,0,0,7.83,3.8l.28,1-2,.53-.29-1A1.86,1.86,0,0,0,3.52,3,1.8,1.8,0,0,0,2.21,5.29l.28,1-1,.26A.53.53,0,0,0,1.15,7L0,20a.49.49,0,0,0,.49.54H.61l3.93-1,.92,3.35a.49.49,0,0,0,.48.36l.13,0,16.77-4.43a.5.5,0,0,0,.35-.61ZM15,1a.88.88,0,0,1,1.07.6l.28,1-1.69.45-.28-1A.84.84,0,0,1,15,1ZM9.39,2.51a.88.88,0,0,1,1.07.6l.28,1-1.69.45-.28-1a.84.84,0,0,1,.61-1ZM3.78,4a.88.88,0,0,1,1.07.6l.28,1-1.69.45L3.16,5a.84.84,0,0,1,.62-1ZM1,19.35,1.9,9.83l2.39,8.71Zm5.24,2.76L4.39,15.21,2.25,7.4l3.14-.83L5.78,8l1-.26L6.35,6.32,11,5.09l.39,1.4,1-.26L12,4.84,16.62,3.6,17,5l1-.26-.38-1.4.5-.13,4,14.71Zm0,0"/><path id="_Составной_контур_2" data-name="&lt;Составной контур&gt;" class="cls-1" d="M9.62,11.29l-1.17.31.25,1,1.17-.31Zm0,0"/><path id="_Составной_контур_3" data-name="&lt;Составной контур&gt;" class="cls-1" d="M12.61,10.5l-1.17.31.25,1,1.17-.31Zm0,0"/><path id="_Составной_контур_4" data-name="&lt;Составной контур&gt;" class="cls-1" d="M15.6,9.71,14.43,10l.25,1,1.17-.31Zm0,0"/><path id="_Составной_контур_5" data-name="&lt;Составной контур&gt;" class="cls-1" d="M17.67,10.18l1.17-.31-.25-1-1.17.31Zm0,0"/><path id="_Составной_контур_6" data-name="&lt;Составной контур&gt;" class="cls-1" d="M7.42,14.93l-1.17.31.25,1,1.17-.31Zm0,0"/><path id="_Составной_контур_7" data-name="&lt;Составной контур&gt;" class="cls-1" d="M10.41,14.14l-1.17.31.25,1,1.17-.31Zm0,0"/><path id="_Составной_контур_8" data-name="&lt;Составной контур&gt;" class="cls-1" d="M13.4,13.35l-1.17.31.25,1,1.17-.31Zm0,0"/><path id="_Составной_контур_9" data-name="&lt;Составной контур&gt;" class="cls-1" d="M15.21,12.87l.25,1,1.17-.31-.25-1Zm0,0"/><path id="_Составной_контур_10" data-name="&lt;Составной контур&gt;" class="cls-1" d="M18.45,13l1.17-.31-.25-1-1.17.31Zm0,0"/><path id="_Составной_контур_11" data-name="&lt;Составной контур&gt;" class="cls-1" d="M7,18.1l.25,1,1.17-.31-.25-1Zm0,0"/><path id="_Составной_контур_12" data-name="&lt;Составной контур&gt;" class="cls-1" d="M10,17.31l.25,1L11.44,18l-.25-1Zm0,0"/><path id="_Составной_контур_13" data-name="&lt;Составной контур&gt;" class="cls-1" d="M13,16.52l.25,1,1.17-.31-.25-1Zm0,0"/></g></g></g></svg>