<svg xmlns="http://www.w3.org/2000/svg" viewBox="0 0 25.01 17.54"><defs><style>.cls-1{fill:#db2828;stroke:#fff;stroke-miterlimit:10;stroke-width:0.25px;}</style></defs><title>ic-vizitka</title><g id="Слой_2" data-name="Слой 2"><g id="Слой_2-2" data-name="Слой 2"><g id="_Группа_" data-name="&lt;Группа&gt;"><path id="_Составной_контур_" data-name="&lt;Составной контур&gt;" class="cls-1" d="M23.53,5.14H19.87V1.48A1.35,1.35,0,0,0,18.52.13h-17A1.35,1.35,0,0,0,.13,1.48V11A1.35,1.35,0,0,0,1.48,12.4H5.14v3.67a1.35,1.35,0,0,0,1.35,1.35h17a1.35,1.35,0,0,0,1.35-1.35V6.49A1.35,1.35,0,0,0,23.53,5.14ZM1.11,11V1.48a.36.36,0,0,1,.36-.36h17a.36.36,0,0,1,.36.36V11a.36.36,0,0,1-.36.36h-17A.36.36,0,0,1,1.11,11Zm22.79,5a.36.36,0,0,1-.36.36h-17a.36.36,0,0,1-.36-.36V12.4H18.52A1.35,1.35,0,0,0,19.87,11V6.13h3.67a.36.36,0,0,1,.36.36Z"/><path id="_Контур_" data-name="&lt;Контур&gt;" class="cls-1" d="M21.72,13.89h-.4a.49.49,0,1,0,0,1h.4a.49.49,0,0,0,0-1Z"/><path id="_Контур_2" data-name="&lt;Контур&gt;" class="cls-1" d="M18.78,13.89H8.36a.49.49,0,1,0,0,1H18.78a.49.49,0,1,0,0-1Z"/><path id="_Контур_3" data-name="&lt;Контур&gt;" class="cls-1" d="M12.09,4.34h5.11a.49.49,0,1,0,0-1H12.09a.49.49,0,0,0,0,1Z"/><path id="_Контур_4" data-name="&lt;Контур&gt;" class="cls-1" d="M12.09,6.83h5.11a.49.49,0,1,0,0-1H12.09a.49.49,0,0,0,0,1Z"/><path id="_Контур_5" data-name="&lt;Контур&gt;" class="cls-1" d="M17.23,8.35H12.09a.49.49,0,0,0,0,1h5.13a.49.49,0,0,0,0-1Z"/><path id="_Составной_контур_2" data-name="&lt;Составной контур&gt;" class="cls-1" d="M6.37,6.54a3.41,3.41,0,0,0-3.5,3.31.49.49,0,0,0,.49.49h6a.49.49,0,0,0,.49-.49A3.41,3.41,0,0,0,6.37,6.54Zm-.52,1V9.36H3.91A2.44,2.44,0,0,1,5.85,7.58Zm1,1.78V7.57a2.44,2.44,0,0,1,2,1.79Z"/><path id="_Составной_контур_3" data-name="&lt;Составной контур&gt;" class="cls-1" d="M6.34,6.37A2.13,2.13,0,1,0,4.21,4.24,2.13,2.13,0,0,0,6.34,6.37Zm0-3.27A1.14,1.14,0,1,1,5.2,4.24,1.14,1.14,0,0,1,6.34,3.1Z"/></g></g></g></svg>