<svg xmlns="http://www.w3.org/2000/svg" width="16" height="16" viewBox="0 0 16 16"><g clip-path="url(#clip0_7868_181910)"><path fill-rule="evenodd" clip-rule="evenodd" d="M10.4 14.8007H5.6C3.71839 14.8007 2.71345 14.417 2.14861 13.8521C1.58375 13.2872 1.20006 12.2821 1.20006 10.4002V5.59974C1.20006 3.71789 1.58375 2.71278 2.14861 2.14786C2.71345 1.58297 3.71839 1.19926 5.6 1.19926H10.4C12.2816 1.19926 13.2866 1.58297 13.8514 2.14786C14.4163 2.71278 14.7999 3.71789 14.7999 5.59974V10.4002C14.7999 12.2821 14.4163 13.2872 13.8514 13.8521C13.2866 14.417 12.2816 14.8007 10.4 14.8007ZM5.6 16.0007H10.4C14.4 16.0007 16 14.4006 16 10.4002V5.59974C16 1.59936 14.4 -0.000793457 10.4 -0.000793457H5.6C1.6 -0.000793457 0 1.59936 0 5.59974V10.4002C0 14.4006 1.6 16.0007 5.6 16.0007ZM7.99456 4.19965C8.32595 4.19965 8.59459 4.46829 8.59459 4.79967V7.3999H11.1992C11.5306 7.3999 11.7993 7.66854 11.7993 7.99993C11.7993 8.33132 11.5306 8.59996 11.1992 8.59996H8.59459V11.2003C8.59459 11.5317 8.32595 11.8003 7.99456 11.8003C7.66317 11.8003 7.39453 11.5317 7.39453 11.2003V8.59996H4.79925C4.46786 8.59996 4.19922 8.33132 4.19922 7.99993C4.19922 7.66854 4.46786 7.3999 4.79925 7.3999H7.39453V4.79967C7.39453 4.46829 7.66317 4.19965 7.99456 4.19965Z"/></g><defs><clipPath id="clip0_7868_181910"><path d="M0 0H16V16H0z"/></clipPath></defs></svg>