<svg width="12" height="12" viewBox="0 0 12 12" xmlns="http://www.w3.org/2000/svg"><g id="last"><path id="Rectangle 105" d="M11.3994 1.05071C11.3994 0.80218 11.1979 0.600708 10.9494 0.600708H10.0494C9.80089 0.600708 9.59941 0.80218 9.59941 1.05071V10.9507C9.59941 11.1992 9.80089 11.4007 10.0494 11.4007H10.9494C11.1979 11.4007 11.3994 11.1992 11.3994 10.9507V1.05071Z"/><path id="Vector 36 (Stroke)" fill-rule="evenodd" clip-rule="evenodd" d="M2.33713 0.888467C2.16411 0.72655 1.89517 0.72655 1.72216 0.888467L0.95089 1.61026C0.760869 1.78809 0.76087 2.08955 0.95089 2.26738L4.94013 6.00071L0.95089 9.73403C0.760869 9.91186 0.76087 10.2133 0.95089 10.3912L1.72216 11.1129C1.89517 11.2749 2.16411 11.2749 2.33713 11.1129L7.44872 6.32927C7.63874 6.15144 7.63874 5.84998 7.44872 5.67215L2.33713 0.888467Z"/></g></svg>