<svg width="12" height="12" viewBox="0 0 12 12" xmlns="http://www.w3.org/2000/svg"><g id="first"><path id="Rectangle 105" d="M0.599609 1.05071C0.599609 0.80218 0.801081 0.600708 1.04961 0.600708H1.94961C2.19814 0.600708 2.39961 0.80218 2.39961 1.05071V10.9507C2.39961 11.1992 2.19814 11.4007 1.94961 11.4007H1.04961C0.801081 11.4007 0.599609 11.1992 0.599609 10.9507V1.05071Z"/><path id="Vector 36 (Stroke)" fill-rule="evenodd" clip-rule="evenodd" d="M9.6619 0.888467C9.83491 0.72655 10.1038 0.72655 10.2769 0.888467L11.0481 1.61026C11.2382 1.78809 11.2382 2.08955 11.0481 2.26738L7.0589 6.00071L11.0481 9.73403C11.2382 9.91186 11.2382 10.2133 11.0481 10.3912L10.2769 11.1129C10.1038 11.2749 9.83491 11.2749 9.6619 11.1129L4.5503 6.32927C4.36028 6.15144 4.36028 5.84998 4.5503 5.67215L9.6619 0.888467Z"/></g></svg>