<svg width="32" height="32" viewBox="0 0 32 32" xmlns="http://www.w3.org/2000/svg"><path d="M5.64062 6.58594C5.64062 6.06469 6.06469 5.64062 6.58594 5.64062V3.76562C5.03081 3.76562 3.76562 5.03081 3.76562 6.58594H5.64062Z"/><path d="M6.58594 1.875V0C2.95444 0 0 2.95444 0 6.58594H1.875C1.875 3.98831 3.98831 1.875 6.58594 1.875Z"/><path d="M26.3594 6.58594H28.2344C28.2344 5.03081 26.9692 3.76562 25.4141 3.76562V5.64062C25.9353 5.64062 26.3594 6.06469 26.3594 6.58594Z"/><path d="M30.125 6.58594H32C32 2.95444 29.0456 0 25.4141 0V1.875C28.0117 1.875 30.125 3.98831 30.125 6.58594Z"/><path d="M18 6.03764V3.75732H19.4912V1.88232H12.5087V3.75732H14V6.03764C6.17712 6.58289 0 13.1009 0 21.0623V23.0623H32V21.0623C32 13.1009 25.8229 6.58289 18 6.03764Z"/><path d="M0 28.9375H32V32H0V28.9375Z"/><path d="M2 24.9375H30V27.0625H2V24.9375Z"/></svg>