<svg width="24" height="24" viewBox="0 0 24 24" xmlns="http://www.w3.org/2000/svg"><g clip-path="url(#clip0_1924_121277)"><rect width="24" height="24" rx="4" fill="#DADDE1"/><path fill-rule="evenodd" clip-rule="evenodd" d="M4 0C1.79086 0 0 1.79086 0 4V20C0 22.2091 1.79086 24 4 24H20C22.2091 24 24 22.2091 24 20V4C24 1.79086 22.2091 0 20 0H4ZM6.4043 11.7871H6.34082V14.0283H7.72754C8.00423 14.0283 8.23535 13.9827 8.4209 13.8916C8.60645 13.7972 8.74479 13.6686 8.83594 13.5059C8.93034 13.3398 8.97754 13.1462 8.97754 12.9248C8.97754 12.6937 8.93685 12.4935 8.85547 12.3242C8.77409 12.1517 8.64551 12.0199 8.46973 11.9287C8.29395 11.8343 8.06445 11.7871 7.78125 11.7871H6.4043ZM6.34082 8.86719V10.8936H6.41406H7.54199C7.80892 10.8936 8.03516 10.8545 8.2207 10.7764C8.4095 10.695 8.55273 10.5794 8.65039 10.4297C8.74805 10.2767 8.79688 10.0928 8.79688 9.87793C8.79688 9.6403 8.7513 9.44661 8.66016 9.29688C8.56901 9.14714 8.42904 9.03809 8.24023 8.96973C8.05469 8.90137 7.81706 8.86719 7.52734 8.86719H6.34082ZM9.19238 11.2061C9.13099 11.2404 9.06624 11.2716 8.99812 11.2998C9.16646 11.3431 9.31585 11.4063 9.44629 11.4893C9.7002 11.6488 9.889 11.8555 10.0127 12.1094C10.1364 12.3633 10.1982 12.6367 10.1982 12.9297C10.1982 13.3822 10.099 13.7614 9.90039 14.0674C9.70508 14.3734 9.4235 14.6061 9.05566 14.7656C8.68783 14.9219 8.24512 15 7.72754 15H6.34082H5.58398H5.11523V7.89062H7.52734C7.91797 7.89062 8.26628 7.92806 8.57227 8.00293C8.88151 8.0778 9.14355 8.19499 9.3584 8.35449C9.5765 8.51074 9.74089 8.70931 9.85156 8.9502C9.9655 9.19108 10.0225 9.47754 10.0225 9.80957C10.0225 10.1025 9.95247 10.3711 9.8125 10.6152C9.67253 10.8561 9.46582 11.0531 9.19238 11.2061ZM13.7383 9.7168V10.5762H12.7959V13.54C12.7959 13.7028 12.8187 13.8281 12.8643 13.916C12.9131 14.0007 12.9798 14.0576 13.0645 14.0869C13.1491 14.1162 13.2484 14.1309 13.3623 14.1309C13.4437 14.1309 13.5218 14.126 13.5967 14.1162C13.6715 14.1064 13.7318 14.0967 13.7773 14.0869L13.7822 14.9854C13.6846 15.0146 13.5706 15.0407 13.4404 15.0635C13.3135 15.0863 13.167 15.0977 13.001 15.0977C12.7308 15.0977 12.4915 15.0505 12.2832 14.9561C12.0749 14.8584 11.9121 14.7005 11.7949 14.4824C11.6777 14.2643 11.6191 13.9746 11.6191 13.6133V10.5762H10.7598V9.7168H11.6191V8.42285H12.7959V9.7168H13.7383ZM15.8135 11.2453V15H14.6367V9.7168H15.7451L15.7837 10.3535C15.7919 10.343 15.8002 10.3326 15.8086 10.3223C15.9941 10.0977 16.2155 9.92513 16.4727 9.80469C16.7298 9.68099 17.0163 9.61914 17.332 9.61914C17.5859 9.61914 17.8154 9.65495 18.0205 9.72656C18.2288 9.79492 18.4062 9.90723 18.5527 10.0635C18.7025 10.2197 18.8164 10.4232 18.8945 10.6738C18.9727 10.9212 19.0117 11.2256 19.0117 11.5869V15H17.8301V11.582C17.8301 11.3281 17.7926 11.1279 17.7178 10.9814C17.6462 10.8317 17.5404 10.7259 17.4004 10.6641C17.2637 10.599 17.0928 10.5664 16.8877 10.5664C16.6859 10.5664 16.5052 10.6087 16.3457 10.6934C16.1862 10.778 16.0511 10.8936 15.9404 11.04C15.8934 11.1041 15.8511 11.1726 15.8135 11.2453Z"/></g><defs><clipPath id="clip0_1924_121277"><rect width="24" height="24" rx="4" fill="#fff"/></clipPath></defs></svg>