<svg width="36" height="36" viewBox="0 0 36 36" xmlns="http://www.w3.org/2000/svg"><path d="M25.1253 5.34V3C25.1253 2.385 24.6153 1.875 24.0003 1.875C23.3853 1.875 22.8753 2.385 22.8753 3V5.25H13.1253V3C13.1253 2.385 12.6153 1.875 12.0003 1.875C11.3853 1.875 10.8753 2.385 10.8753 3V5.34C6.82534 5.715 4.86034 8.13 4.56034 11.715C4.53034 12.15 4.89034 12.51 5.31034 12.51H30.6903C31.1253 12.51 31.4853 12.135 31.4403 11.715C31.1403 8.13 29.1753 5.715 25.1253 5.34Z"/><path d="M30 14.7598H6C5.175 14.7598 4.5 15.4347 4.5 16.2597V25.4997C4.5 29.9997 6.75 32.9997 12 32.9997H24C29.25 32.9997 31.5 29.9997 31.5 25.4997V16.2597C31.5 15.4347 30.825 14.7598 30 14.7598ZM13.815 27.3147C13.74 27.3747 13.665 27.4497 13.59 27.4947C13.5 27.5547 13.41 27.5997 13.32 27.6297C13.23 27.6747 13.14 27.7047 13.05 27.7197C12.945 27.7347 12.855 27.7497 12.75 27.7497C12.555 27.7497 12.36 27.7047 12.18 27.6297C11.985 27.5547 11.835 27.4497 11.685 27.3147C11.415 27.0297 11.25 26.6397 11.25 26.2497C11.25 25.8597 11.415 25.4697 11.685 25.1847C11.835 25.0497 11.985 24.9447 12.18 24.8697C12.45 24.7497 12.75 24.7197 13.05 24.7797C13.14 24.7947 13.23 24.8247 13.32 24.8697C13.41 24.8997 13.5 24.9447 13.59 25.0047C13.665 25.0647 13.74 25.1247 13.815 25.1847C14.085 25.4697 14.25 25.8597 14.25 26.2497C14.25 26.6397 14.085 27.0297 13.815 27.3147ZM13.815 22.0647C13.53 22.3347 13.14 22.4997 12.75 22.4997C12.36 22.4997 11.97 22.3347 11.685 22.0647C11.415 21.7797 11.25 21.3897 11.25 20.9997C11.25 20.6097 11.415 20.2197 11.685 19.9347C12.105 19.5147 12.765 19.3797 13.32 19.6197C13.515 19.6947 13.68 19.7997 13.815 19.9347C14.085 20.2197 14.25 20.6097 14.25 20.9997C14.25 21.3897 14.085 21.7797 13.815 22.0647ZM19.065 27.3147C18.78 27.5847 18.39 27.7497 18 27.7497C17.61 27.7497 17.22 27.5847 16.935 27.3147C16.665 27.0297 16.5 26.6397 16.5 26.2497C16.5 25.8597 16.665 25.4697 16.935 25.1847C17.49 24.6297 18.51 24.6297 19.065 25.1847C19.335 25.4697 19.5 25.8597 19.5 26.2497C19.5 26.6397 19.335 27.0297 19.065 27.3147ZM19.065 22.0647C18.99 22.1247 18.915 22.1847 18.84 22.2447C18.75 22.3047 18.66 22.3497 18.57 22.3797C18.48 22.4247 18.39 22.4547 18.3 22.4697C18.195 22.4847 18.105 22.4997 18 22.4997C17.61 22.4997 17.22 22.3347 16.935 22.0647C16.665 21.7797 16.5 21.3897 16.5 20.9997C16.5 20.6097 16.665 20.2197 16.935 19.9347C17.07 19.7997 17.235 19.6947 17.43 19.6197C17.985 19.3797 18.645 19.5147 19.065 19.9347C19.335 20.2197 19.5 20.6097 19.5 20.9997C19.5 21.3897 19.335 21.7797 19.065 22.0647ZM24.315 27.3147C24.03 27.5847 23.64 27.7497 23.25 27.7497C22.86 27.7497 22.47 27.5847 22.185 27.3147C21.915 27.0297 21.75 26.6397 21.75 26.2497C21.75 25.8597 21.915 25.4697 22.185 25.1847C22.74 24.6297 23.76 24.6297 24.315 25.1847C24.585 25.4697 24.75 25.8597 24.75 26.2497C24.75 26.6397 24.585 27.0297 24.315 27.3147ZM24.315 22.0647C24.24 22.1247 24.165 22.1847 24.09 22.2447C24 22.3047 23.91 22.3497 23.82 22.3797C23.73 22.4247 23.64 22.4547 23.55 22.4697C23.445 22.4847 23.34 22.4997 23.25 22.4997C22.86 22.4997 22.47 22.3347 22.185 22.0647C21.915 21.7797 21.75 21.3897 21.75 20.9997C21.75 20.6097 21.915 20.2197 22.185 19.9347C22.335 19.7997 22.485 19.6947 22.68 19.6197C22.95 19.4997 23.25 19.4697 23.55 19.5297C23.64 19.5447 23.73 19.5747 23.82 19.6197C23.91 19.6497 24 19.6947 24.09 19.7547C24.165 19.8147 24.24 19.8747 24.315 19.9347C24.585 20.2197 24.75 20.6097 24.75 20.9997C24.75 21.3897 24.585 21.7797 24.315 22.0647Z"/></svg>