<svg width="18" height="16" viewBox="0 0 18 16" fill="none" xmlns="http://www.w3.org/2000/svg"><g id="Group 1" stroke="#2B323E" stroke-width="1.25" stroke-linecap="round" stroke-linejoin="round"><path id="Vector" d="M15.9445 15.2918H2.05564C1.68728 15.2918 1.33401 15.1455 1.07354 14.885C0.813077 14.6245 0.666748 14.2713 0.666748 13.9029V4.18071C0.666748 3.81235 0.813077 3.45908 1.07354 3.19862C1.33401 2.93815 1.68728 2.79182 2.05564 2.79182H4.83341L6.2223 0.708496H11.7779L13.1667 2.79182H15.9445C16.3129 2.79182 16.6662 2.93815 16.9266 3.19862C17.1871 3.45908 17.3334 3.81235 17.3334 4.18071V13.9029C17.3334 14.2713 17.1871 14.6245 16.9266 14.885C16.6662 15.1455 16.3129 15.2918 15.9445 15.2918Z"/><path id="Vector_2" d="M9 11.8198C10.7259 11.8198 12.125 10.4207 12.125 8.69481C12.125 6.96893 10.7259 5.56982 9 5.56982C7.27411 5.56982 5.875 6.96893 5.875 8.69481C5.875 10.4207 7.27411 11.8198 9 11.8198Z"/></g></svg>