<svg width="24" height="32" viewBox="0 0 24 32" xmlns="http://www.w3.org/2000/svg"><g id="Capa_1" clip-path="url(#clip0_4259_6069)"><path id="Vector" d="M1.93522 32C0.866384 32 0.0020752 31.1564 0.0020752 30.1274V7.03655C0.0020752 6.22489 0.536495 5.50909 1.32823 5.25345L17.4928 0.0958658C17.6907 0.0319553 17.8886 0 18.0998 0C18.5088 0 18.9113 0.127821 19.2346 0.357899C19.736 0.709407 20.0329 1.27821 20.0329 1.87897V6.0715H22.0584C23.1273 6.0715 23.9916 6.91512 23.9916 7.94408V30.121C23.9916 31.1564 23.1207 31.9936 22.0584 31.9936H1.93522V32ZM1.93522 7.26663C1.54596 7.26663 1.22926 7.5734 1.22926 7.95047V30.121C1.22926 30.4981 1.54596 30.8049 1.93522 30.8049H22.0584C22.4477 30.8049 22.7644 30.4981 22.7644 30.121V7.94408C22.7644 7.56701 22.4477 7.26024 22.0584 7.26024H1.93522V7.26663ZM18.1064 1.18874C18.0338 1.18874 17.9546 1.20152 17.8821 1.22069L4.92402 5.36848L5.04278 6.07789H18.8057V1.87258C18.8057 1.64889 18.7002 1.45077 18.5154 1.32295C18.4297 1.26543 18.2911 1.19513 18.1064 1.19513V1.18874Z"/><path id="Vector_2" d="M5.39893 18.3487C5.06245 18.3487 4.78534 18.0803 4.78534 17.7543C4.78534 17.4284 5.06245 17.16 5.39893 17.16H6.00593L6.05211 16.8532C6.25005 15.6325 6.83725 14.5205 7.74114 13.6385C8.65164 12.7565 9.79965 12.1941 11.0598 12.0024L11.3765 11.9577V11.1652C11.3765 10.8392 11.6536 10.5708 11.9901 10.5708C12.3266 10.5708 12.6037 10.8392 12.6037 11.1652V11.9577L12.9204 12.0024C14.1806 12.1941 15.3286 12.7629 16.2391 13.6385C17.1496 14.5205 17.7302 15.6325 17.9281 16.8532L17.9743 17.16H18.5813C18.9178 17.16 19.1949 17.4284 19.1949 17.7543C19.1949 18.0803 18.9178 18.3487 18.5813 18.3487H5.39893ZM11.9967 13.1208C10.9081 13.1208 9.84583 13.4851 9.00132 14.1434C8.17 14.7953 7.5762 15.7092 7.33868 16.7126L7.23311 17.1536H16.7669L16.6613 16.7126C16.4238 15.7092 15.83 14.7953 14.9987 14.1434C14.1542 13.4851 13.0853 13.1208 12.0033 13.1208H11.9967Z"/><path id="Vector_3" d="M5.78159 22.8609C5.44511 22.8609 5.168 22.5924 5.168 22.2665C5.168 21.9405 5.44511 21.6721 5.78159 21.6721H10.532C10.8685 21.6721 11.1456 21.9405 11.1456 22.2665C11.1456 22.5924 10.8685 22.8609 10.532 22.8609H5.78159Z"/><path id="Vector_4" d="M5.64963 26.6953C5.31315 26.6953 5.03604 26.4269 5.03604 26.101C5.03604 25.775 5.31315 25.5066 5.64963 25.5066H18.3504C18.6868 25.5066 18.964 25.775 18.964 26.101C18.964 26.4269 18.6868 26.6953 18.3504 26.6953H5.64963Z"/></g><defs><clipPath id="clip0_4259_6069"><path fill="#fff" d="M0 0H24V32H0z"/></clipPath></defs></svg>