<svg width="36" height="36" viewBox="0 0 36 36" xmlns="http://www.w3.org/2000/svg"><path d="M3 17.19V24.69C3 28.125 5.775 30.9 9.21 30.9H26.775C30.21 30.9 33 28.11 33 24.675V17.19C33 16.185 32.19 15.375 31.185 15.375H4.815C3.81 15.375 3 16.185 3 17.19ZM12 25.875H9C8.385 25.875 7.875 25.365 7.875 24.75C7.875 24.135 8.385 23.625 9 23.625H12C12.615 23.625 13.125 24.135 13.125 24.75C13.125 25.365 12.615 25.875 12 25.875ZM21.75 25.875H15.75C15.135 25.875 14.625 25.365 14.625 24.75C14.625 24.135 15.135 23.625 15.75 23.625H21.75C22.365 23.625 22.875 24.135 22.875 24.75C22.875 25.365 22.365 25.875 21.75 25.875Z"/><path d="M20.25 6.91266V11.3077C20.25 12.3127 19.44 13.1227 18.435 13.1227H4.815C3.795 13.1227 3 12.2827 3 11.2777C3.015 9.58266 3.69 8.03766 4.815 6.91266C5.94 5.78766 7.5 5.09766 9.21 5.09766H18.435C19.44 5.09766 20.25 5.90766 20.25 6.91266Z"/><path d="M29.955 3H25.545C23.64 3 22.5 4.14 22.5 6.045V10.455C22.5 12.36 23.64 13.5 25.545 13.5H29.955C31.86 13.5 33 12.36 33 10.455V6.045C33 4.14 31.86 3 29.955 3ZM30.945 6.675L27.39 10.83C27.255 10.995 27.045 11.1 26.835 11.1C26.82 11.1 26.82 11.1 26.805 11.1C26.595 11.1 26.4 11.025 26.25 10.875L24.6 9.255C24.3 8.955 24.3 8.46 24.6 8.16C24.9 7.86 25.395 7.845 25.695 8.16L26.745 9.195L29.745 5.685C30.03 5.355 30.51 5.325 30.84 5.595C31.185 5.865 31.215 6.36 30.945 6.675Z"/></svg>