<svg width="36" height="36" viewBox="0 0 36 36" xmlns="http://www.w3.org/2000/svg"><path d="M18 23.55V23.715C18 24.135 17.67 24.465 17.25 24.465H3.75C3.33 24.465 3 24.135 3 23.715V23.55C3 20.91 3.66 20.25 6.33 20.25H14.67C17.34 20.25 18 20.91 18 23.55Z"/><path d="M3.75 25.9629C3.33 25.9629 3 26.2929 3 26.7129V28.2129V29.6979C3 32.3379 3.66 32.9979 6.33 32.9979H14.67C17.34 32.9979 18 32.3379 18 29.6979V28.2129V26.7129C18 26.2929 17.67 25.9629 17.25 25.9629H3.75Z"/><path d="M33 22.5C33 28.305 28.305 33 22.5 33L24.075 30.375" fill="none" stroke="#475467" stroke-width="1.5" stroke-linecap="round" stroke-linejoin="round"/><path d="M3 13.5C3 7.695 7.695 3 13.5 3L11.925 5.625" fill="none" stroke="#475467" stroke-width="1.5" stroke-linecap="round" stroke-linejoin="round"/><path d="M27.75 16.5C31.478 16.5 34.5 13.4779 34.5 9.75C34.5 6.02208 31.478 3 27.75 3C24.022 3 21 6.02208 21 9.75C21 13.4779 24.022 16.5 27.75 16.5Z"/></svg>