<svg width="16" height="16" viewBox="0 0 16 16" xmlns="http://www.w3.org/2000/svg"><path d="M12.4001 1.6001C11.7374 1.6001 11.2001 2.13736 11.2001 2.8001V13.2001C11.2001 13.8628 11.7374 14.4001 12.4001 14.4001H13.2001C13.8628 14.4001 14.4001 13.8628 14.4001 13.2001V2.8001C14.4001 2.13736 13.8628 1.6001 13.2001 1.6001H12.4001Z"/><path d="M7.6001 4.8001C6.93736 4.8001 6.4001 5.33736 6.4001 6.0001V13.2001C6.4001 13.8628 6.93736 14.4001 7.6001 14.4001H8.4001C9.06284 14.4001 9.6001 13.8628 9.6001 13.2001V6.0001C9.6001 5.33736 9.06284 4.8001 8.4001 4.8001H7.6001Z"/><path d="M2.8001 8.0001C2.13736 8.0001 1.6001 8.53736 1.6001 9.2001V13.2001C1.6001 13.8628 2.13736 14.4001 2.8001 14.4001H3.6001C4.26284 14.4001 4.8001 13.8628 4.8001 13.2001V9.2001C4.8001 8.53736 4.26284 8.0001 3.6001 8.0001H2.8001Z"/></svg>