<svg xmlns="http://www.w3.org/2000/svg" width="16" height="16" viewBox="0 0 16 16"><g clip-path="url(#clip0_8632_4323)" fill-rule="evenodd" clip-rule="evenodd"><path d="M0.746094 15.4419C0.746094 15.1336 0.995942 14.8837 1.30415 14.8837H14.6974C15.0056 14.8837 15.2554 15.1336 15.2554 15.4419C15.2554 15.7501 15.0056 16 14.6974 16H1.30415C0.995942 16 0.746094 15.7501 0.746094 15.4419Z"/><path d="M0.746094 6.05018C0.746094 5.33263 1.33077 4.74786 2.04821 4.74786H3.23871C3.95615 4.74786 4.54083 5.33263 4.54083 6.05018V12.4651C4.54083 13.1826 3.95615 13.7674 3.23871 13.7674H2.04821C1.33077 13.7674 0.746094 13.1826 0.746094 12.4651V6.05018ZM2.04821 5.86414C1.94718 5.86414 1.8622 5.94913 1.8622 6.05018V12.4651C1.8622 12.5661 1.94718 12.6511 2.04821 12.6511H3.23871C3.33974 12.6511 3.42473 12.5661 3.42473 12.4651V6.05018C3.42473 5.94913 3.33974 5.86414 3.23871 5.86414H2.04821Z"/><path d="M6.10547 3.67628C6.10547 2.95873 6.69015 2.37396 7.40759 2.37396H8.59802C9.31547 2.37396 9.90014 2.95873 9.90014 3.67628V12.465C9.90014 13.1826 9.31547 13.7674 8.59802 13.7674H7.40759C6.69015 13.7674 6.10547 13.1826 6.10547 12.465V3.67628ZM7.40759 3.49024C7.30655 3.49024 7.22157 3.57523 7.22157 3.67628V12.465C7.22157 12.5661 7.30655 12.6511 7.40759 12.6511H8.59802C8.69906 12.6511 8.78404 12.5661 8.78404 12.465V3.67628C8.78404 3.57523 8.69906 3.49024 8.59802 3.49024H7.40759Z"/><path d="M11.4609 1.30232C11.4609 0.584769 12.0456 0 12.7631 0H13.9536C14.671 0 15.2557 0.584769 15.2557 1.30232V12.4651C15.2557 13.1826 14.671 13.7674 13.9536 13.7674H12.7631C12.0456 13.7674 11.4609 13.1826 11.4609 12.4651V1.30232ZM12.7631 1.11627C12.662 1.11627 12.577 1.20127 12.577 1.30232V12.4651C12.577 12.5661 12.662 12.6511 12.7631 12.6511H13.9536C14.0546 12.6511 14.1396 12.5661 14.1396 12.4651V1.30232C14.1396 1.20127 14.0546 1.11627 13.9536 1.11627H12.7631Z"/></g><defs><clipPath id="clip0_8632_4323"><path d="M0 0H16V16H0z"/></clipPath></defs></svg>