<svg xmlns="http://www.w3.org/2000/svg" width="21" height="20" viewBox="0 0 21 20" fill="none"><path d="M3 18.3333H18"/><path d="M5.16665 6.98325H3.83333C3.375 6.98325 3 7.35825 3 7.81658V14.9999C3 15.4583 3.375 15.8333 3.83333 15.8333H5.16665C5.62498 15.8333 5.99998 15.4583 5.99998 14.9999V7.81658C5.99998 7.35825 5.62498 6.98325 5.16665 6.98325Z"/><path d="M11.1666 4.32495H9.83333C9.375 4.32495 9 4.69995 9 5.15828V14.9999C9 15.4583 9.375 15.8333 9.83333 15.8333H11.1666C11.6249 15.8333 11.9999 15.4583 11.9999 14.9999V5.15828C11.9999 4.69995 11.6249 4.32495 11.1666 4.32495Z"/><path d="M17.1667 1.66666H15.8333C15.375 1.66666 15 2.04166 15 2.49999V15C15 15.4583 15.375 15.8333 15.8333 15.8333H17.1667C17.625 15.8333 18 15.4583 18 15V2.49999C18 2.04166 17.625 1.66666 17.1667 1.66666Z"/></svg>