<svg width="36" height="36" viewBox="0 0 36 36" xmlns="http://www.w3.org/2000/svg"><g id="business/chart"><path id="Vector" d="M31.5 34.125H4.5C3.885 34.125 3.375 33.615 3.375 33C3.375 32.385 3.885 31.875 4.5 31.875H31.5C32.115 31.875 32.625 32.385 32.625 33C32.625 33.615 32.115 34.125 31.5 34.125Z"/><path id="Vector_2" d="M8.4 12.5684H6C5.175 12.5684 4.5 13.2434 4.5 14.0684V26.9983C4.5 27.8233 5.175 28.4983 6 28.4983H8.4C9.225 28.4983 9.9 27.8233 9.9 26.9983V14.0684C9.9 13.2284 9.225 12.5684 8.4 12.5684Z"/><path id="Vector_3" d="M19.1988 7.78711H16.7988C15.9738 7.78711 15.2988 8.46211 15.2988 9.28711V27.0021C15.2988 27.8271 15.9738 28.5021 16.7988 28.5021H19.1988C20.0238 28.5021 20.6988 27.8271 20.6988 27.0021V9.28711C20.6988 8.46211 20.0238 7.78711 19.1988 7.78711Z"/><path id="Vector_4" d="M30.0006 3H27.6006C26.7756 3 26.1006 3.675 26.1006 4.5V27C26.1006 27.825 26.7756 28.5 27.6006 28.5H30.0006C30.8256 28.5 31.5006 27.825 31.5006 27V4.5C31.5006 3.675 30.8256 3 30.0006 3Z"/></g></svg>