<svg width="19" height="18" viewBox="0 0 19 18" xmlns="http://www.w3.org/2000/svg"><g id="Progress"><path id="Subtract" fill-rule="evenodd" clip-rule="evenodd" d="M17 9C17 13.125 13.625 16.5 9.5 16.5C5.375 16.5 2 13.125 2 9C2 4.875 5.375 1.5 9.5 1.5C13.625 1.5 17 4.875 17 9ZM13.1302 7.31992C13.3745 7.07606 13.3749 6.68033 13.131 6.43604C12.8871 6.19174 12.4914 6.19139 12.2471 6.43525L8.43656 10.2391L6.75561 8.55812C6.51154 8.31404 6.11581 8.31404 5.87173 8.55812C5.62765 8.80219 5.62765 9.19792 5.87173 9.442L7.99423 11.5645C8.23815 11.8084 8.63358 11.8086 8.87772 11.5649L13.1302 7.31992Z"/></g></svg>