<svg width="32" height="32" viewBox="0 0 32 32" fill="none" xmlns="http://www.w3.org/2000/svg"><mask id="mask0_11104_140109" style="mask-type:luminance" maskUnits="userSpaceOnUse" x="0" y="0" width="32" height="32"><path d="M0 1.90735e-06H32V32H0V1.90735e-06Z" fill="#fff"/></mask><g mask="url(#mask0_11104_140109)"><path d="M12.2119 25.262H4.88811C4.19061 25.262 3.62561 24.697 3.62561 23.9995V1.73075C3.62561 1.03387 4.19061 0.46825 4.88811 0.46825H27.1119C27.8094 0.46825 28.3744 1.03387 28.3744 1.73075V4.38325V24C28.3744 24.6975 27.8094 25.2625 27.1119 25.2625H24.8387"/><path d="M14.1063 31.5312V30.5C14.1063 30.2269 14.0175 29.9612 13.8532 29.7425L12.7169 28.2269C12.3894 27.79 12.2119 27.2581 12.2119 26.7119V21.24C12.2119 20.8912 12.3532 20.5762 12.5819 20.3475C12.81 20.1187 13.1263 19.9775 13.4744 19.9775C14.1719 19.9775 14.7375 20.5431 14.7375 21.24V13.8531C14.7375 13.1406 15.3275 12.5662 16.0463 12.5912C16.73 12.6156 17.2625 13.1988 17.2625 13.8838V17.9575C17.2625 17.2444 17.8532 16.67 18.5713 16.695C19.2557 16.7194 19.7882 17.3025 19.7882 17.9875V19.22C19.7882 18.5075 20.3788 17.9325 21.0969 17.9581C21.7813 17.9825 22.3138 18.5656 22.3138 19.25V20.5456C22.3138 19.8331 22.9038 19.2581 23.6225 19.2837C24.3063 19.3081 24.8388 19.8913 24.8388 20.5763V21.9144"/><path d="M24.8388 24.1019V27.2431C24.8388 27.4494 24.8138 27.655 24.7638 27.8556L24.245 29.9281C24.22 30.0287 24.2075 30.1313 24.2075 30.2344V31.5312"/><path d="M17.2627 17.9572V21.8716"/><path d="M19.7881 19.2199V21.8716"/><path d="M22.3135 20.4826V21.8716"/><path d="M14.7373 21.2402V24.4601L14.1691 25.0283"/><path d="M12.5727 10.5703C13.2103 10.5703 13.7272 10.0534 13.7272 9.41581V3.6435C13.7272 3.00588 13.2103 2.489 12.5727 2.489H6.80031C6.16275 2.489 5.64587 3.00588 5.64587 3.6435V9.41581C5.64587 10.0534 6.16275 10.5703 6.80031 10.5703H12.5727Z"/><path d="M11.7788 5.15479L9.02881 7.90479L7.59399 6.46997"/><path d="M25.1997 10.5703C25.8373 10.5703 26.3541 10.0534 26.3541 9.41581V3.6435C26.3541 3.00588 25.8373 2.489 25.1997 2.489H19.4273C18.7897 2.489 18.2728 3.00588 18.2728 3.6435V9.41581C18.2728 10.0534 18.7897 10.5703 19.4273 10.5703H25.1997Z"/><path d="M20.7982 5.01442L23.8287 8.04492"/><path d="M23.8287 5.01442L20.7982 8.04492"/><path d="M19.4274 12.5908H25.1997"/><path d="M19.4274 14.6111H23.2606"/><path d="M6.80029 12.5908H12.5727"/><path d="M6.80029 14.6111H10.6335"/></g></svg>