<svg width="40" height="40" viewBox="0 0 40 40" xmlns="http://www.w3.org/2000/svg"><g id="time/clock"><path id="Vector" d="M19.9997 3.33333C10.8163 3.33333 3.33301 10.8167 3.33301 20C3.33301 29.1833 10.8163 36.6667 19.9997 36.6667C29.183 36.6667 36.6663 29.1833 36.6663 20C36.6663 10.8167 29.183 3.33333 19.9997 3.33333ZM27.2497 25.95C27.0163 26.35 26.5997 26.5667 26.1663 26.5667C25.9497 26.5667 25.733 26.5167 25.533 26.3833L20.3663 23.3C19.083 22.5333 18.133 20.85 18.133 19.3667V12.5333C18.133 11.85 18.6997 11.2833 19.383 11.2833C20.0663 11.2833 20.633 11.85 20.633 12.5333V19.3667C20.633 19.9667 21.133 20.85 21.6497 21.15L26.8163 24.2333C27.4163 24.5833 27.6163 25.35 27.2497 25.95Z"/></g></svg>