<svg width="36" height="36" viewBox="0 0 36 36" xmlns="http://www.w3.org/2000/svg"><path d="M32.8798 25.1229C32.3848 29.1129 29.1148 32.3829 25.1248 32.8779C22.7098 33.1779 20.4598 32.5179 18.7048 31.2279C17.6998 30.4929 17.9398 28.9329 19.1398 28.5729C23.6548 27.2079 27.2098 23.6379 28.5898 19.1229C28.9498 17.9379 30.5098 17.6979 31.2448 18.6879C32.5198 20.4579 33.1798 22.7079 32.8798 25.1229Z"/><path d="M14.985 3C8.37 3 3 8.37 3 14.985C3 21.6 8.37 26.97 14.985 26.97C21.6 26.97 26.97 21.6 26.97 14.985C26.955 8.37 21.6 3 14.985 3ZM13.575 13.305L17.19 14.565C18.495 15.03 19.125 15.945 19.125 17.355C19.125 18.975 17.835 20.31 16.26 20.31H16.125V20.385C16.125 21 15.615 21.51 15 21.51C14.385 21.51 13.875 21 13.875 20.385V20.295C12.21 20.22 10.875 18.825 10.875 17.085C10.875 16.47 11.385 15.96 12 15.96C12.615 15.96 13.125 16.47 13.125 17.085C13.125 17.625 13.515 18.06 13.995 18.06H16.245C16.59 18.06 16.86 17.745 16.86 17.355C16.86 16.83 16.77 16.8 16.425 16.68L12.81 15.42C11.52 14.97 10.875 14.055 10.875 12.63C10.875 11.01 12.165 9.675 13.74 9.675H13.875V9.615C13.875 9 14.385 8.49 15 8.49C15.615 8.49 16.125 9 16.125 9.615V9.705C17.79 9.78 19.125 11.175 19.125 12.915C19.125 13.53 18.615 14.04 18 14.04C17.385 14.04 16.875 13.53 16.875 12.915C16.875 12.375 16.485 11.94 16.005 11.94H13.755C13.41 11.94 13.14 12.255 13.14 12.645C13.125 13.155 13.215 13.185 13.575 13.305Z"/></svg>