<svg width="18" height="18" viewBox="0 0 18 18" xmlns="http://www.w3.org/2000/svg"><path d="M15.1204 0.543945C15.6768 0.543945 16.1678 0.77306 16.5933 1.16583C16.986 1.59133 17.2151 2.08229 17.2151 2.63871V12.0651C17.2151 12.6543 16.986 13.1453 16.5933 13.538C16.1678 13.9635 15.6768 14.1599 15.1204 14.1599H10.4072L6.31582 17.2366C6.25036 17.302 6.15217 17.302 6.05398 17.302C5.95578 17.302 5.85759 17.2693 5.79213 17.2039C5.72667 17.1384 5.69394 17.0402 5.69394 16.9093V14.1599H2.55179C1.96264 14.1599 1.47168 13.9635 1.07891 13.538C0.653415 13.1453 0.457031 12.6543 0.457031 12.0651V2.63871C0.457031 2.08229 0.653415 1.59133 1.07891 1.16583C1.47168 0.77306 1.96264 0.543945 2.55179 0.543945H15.1204ZM16.1678 12.0651V2.63871C16.1678 2.37686 16.0368 2.11502 15.8404 1.91863C15.6441 1.72225 15.3822 1.59133 15.1204 1.59133H2.55179C2.25722 1.59133 1.99537 1.72225 1.79899 1.91863C1.6026 2.11502 1.50441 2.37686 1.50441 2.63871V12.0651C1.50441 12.3597 1.6026 12.6216 1.79899 12.8179C1.99537 13.0143 2.25722 13.1125 2.55179 13.1125H6.74132V15.6001L10.0471 13.1125H15.1204C15.3822 13.1125 15.6441 13.0143 15.8404 12.8179C16.0368 12.6216 16.1678 12.3597 16.1678 12.0651Z"/></svg>