<svg width="16" height="16" viewBox="0 0 16 16" xmlns="http://www.w3.org/2000/svg"><path fill-rule="evenodd" clip-rule="evenodd" d="M1.6001 3.4001C1.6001 2.40599 2.40598 1.6001 3.4001 1.6001H12.6001C13.5942 1.6001 14.4001 2.40599 14.4001 3.4001V10.2001C14.4001 11.1942 13.5942 12.0001 12.6001 12.0001H10.116C10.2735 12.5296 10.5835 12.9935 10.996 13.3415C11.1886 13.5039 11.2592 13.7694 11.1727 14.006C11.0862 14.2427 10.8611 14.4001 10.6091 14.4001H5.39114C5.13919 14.4001 4.91408 14.2427 4.8276 14.006C4.74111 13.7694 4.81169 13.5039 5.00427 13.3415C5.41678 12.9935 5.7268 12.5296 5.8843 12.0001H3.4001C2.40599 12.0001 1.6001 11.1942 1.6001 10.2001V3.4001ZM2.8001 3.4001C2.8001 3.06873 3.06873 2.8001 3.4001 2.8001H12.6001C12.9315 2.8001 13.2001 3.06873 13.2001 3.4001V9.4001C13.2001 9.73147 12.9315 10.0001 12.6001 10.0001H3.4001C3.06873 10.0001 2.8001 9.73147 2.8001 9.4001V3.4001Z"/></svg>