<svg width="20" height="20" viewBox="0 0 20 20" fill="none" xmlns="http://www.w3.org/2000/svg"><path d="M18.3327 9.58342V12.9167C18.3327 15.8334 16.666 17.0834 14.166 17.0834H5.83268C3.33268 17.0834 1.66602 15.8334 1.66602 12.9167V7.08341C1.66602 4.16675 3.33268 2.91675 5.83268 2.91675H9.99935" stroke="#475467" stroke-width="1.25" stroke-miterlimit="10" stroke-linecap="round" stroke-linejoin="round"/><path d="M5.83398 7.5L8.44232 9.58333C9.30065 10.2667 10.709 10.2667 11.5673 9.58333" stroke="#475467" stroke-width="1.25" stroke-miterlimit="10" stroke-linecap="round" stroke-linejoin="round"/><path d="M16.2337 2.34995L16.467 2.82494C16.5837 3.05828 16.8753 3.27495 17.1337 3.32495L17.4503 3.37495C18.4003 3.53328 18.6253 4.23328 17.942 4.92495L17.6503 5.21661C17.4587 5.41661 17.3503 5.79994 17.4087 6.06661L17.4503 6.24162C17.7087 7.39162 17.1003 7.83328 16.1003 7.23328L15.8837 7.10828C15.6253 6.95828 15.2087 6.95828 14.9503 7.10828L14.7337 7.23328C13.7253 7.84161 13.117 7.39162 13.3837 6.24162L13.4253 6.06661C13.4836 5.79994 13.3753 5.41661 13.1837 5.21661L12.892 4.92495C12.2087 4.23328 12.4337 3.53328 13.3837 3.37495L13.7003 3.32495C13.9503 3.28328 14.2503 3.05828 14.367 2.82494L14.6003 2.34995C15.0503 1.44162 15.7837 1.44162 16.2337 2.34995Z" stroke="#475467" stroke-width="1.25" stroke-linecap="round" stroke-linejoin="round"/></svg>