<svg width="44" height="44" viewBox="0 0 44 44" fill="none" xmlns="http://www.w3.org/2000/svg"><path d="M23.4596 28.9645H35.1893C35.6291 28.9645 35.9224 28.6713 35.9224 28.2314V21.6335C35.9224 21.1936 35.6291 20.9004 35.1893 20.9004H23.4596C23.0198 20.9004 22.7266 21.1936 22.7266 21.6335V28.2314C22.7265 28.6712 23.0198 28.9645 23.4596 28.9645ZM24.1927 22.3665H34.4562V27.4982H24.1927V22.3665Z" fill="#2F8733"/><path d="M3.66569 19.4342H9.53056C9.97042 19.4342 10.2636 19.141 10.2636 18.7011C10.2636 18.2612 9.97042 17.968 9.53056 17.968H3.66569C3.22583 17.968 2.93262 18.2612 2.93262 18.7011C2.93262 19.141 3.22583 19.4342 3.66569 19.4342Z" fill="#2F8733"/><path d="M12.4626 19.4342H18.3274C18.7673 19.4342 19.0605 19.141 19.0605 18.7011C19.0605 18.2612 18.7673 17.968 18.3274 17.968H12.4626C12.0227 17.968 11.7295 18.2612 11.7295 18.7011C11.7295 19.141 12.0227 19.4342 12.4626 19.4342Z" fill="#2F8733"/><path d="M3.66569 22.3665H13.196C13.6359 22.3665 13.9291 22.0733 13.9291 21.6335C13.9291 21.1936 13.6359 20.9004 13.196 20.9004H3.66569C3.22583 20.9004 2.93262 21.1936 2.93262 21.6335C2.93262 22.0733 3.22583 22.3665 3.66569 22.3665Z" fill="#2F8733"/><path d="M18.3279 20.9004H16.1286C15.6887 20.9004 15.3955 21.1936 15.3955 21.6335C15.3955 22.0733 15.6887 22.3665 16.1286 22.3665H18.3279C18.7678 22.3665 19.061 22.0733 19.061 21.6335C19.061 21.1936 18.7678 20.9004 18.3279 20.9004Z" fill="#2F8733"/><path d="M43.3265 11.8099C42.8133 11.1501 42.1535 10.7836 41.3471 10.7103L39.5876 10.4971V8.4376V6.97145C39.5876 5.35865 38.268 4.03906 36.6552 4.03906H2.93239C1.31959 4.03898 0 5.35856 0 6.97145V8.43769V14.3026V30.4308C0 31.755 0.889777 32.8808 2.10077 33.2416C2.06383 34.7246 3.18591 36.0121 4.69192 36.149L38.5613 39.9611C38.6346 39.9611 38.7813 39.9611 38.8546 39.9611C40.3208 39.9611 41.6404 38.8615 41.7869 37.4686L43.9863 13.936C44.0595 13.2028 43.8396 12.3964 43.3265 11.8099ZM1.46624 9.17076H38.1215V11.0769V13.5694H1.46624V9.17076ZM2.93239 5.50521H36.6552C37.4616 5.50521 38.1214 6.16501 38.1214 6.97145V7.70453H1.46624V6.97145C1.46624 6.16501 2.12603 5.50521 2.93239 5.50521ZM1.46624 30.4307V15.0355H38.1215V30.4307C38.1215 31.2372 37.4617 31.897 36.6552 31.897H3.00576H2.93247C2.12603 31.897 1.46624 31.2372 1.46624 30.4307ZM42.52 13.6427L40.3207 37.1753C40.2474 37.9818 39.5143 38.5682 38.7079 38.4949L4.91177 34.6828C4.17869 34.6095 3.66546 34.023 3.59218 33.3632H36.6552C38.268 33.3632 39.5875 32.0436 39.5875 30.4308V14.3025V11.8832L41.2737 12.0299C41.6403 12.0299 42.0068 12.2498 42.2267 12.543C42.4467 12.8362 42.5934 13.2761 42.52 13.6427Z" fill="#2F8733"/></svg>