<svg width="20" height="20" viewBox="0 0 20 20" fill="none" xmlns="http://www.w3.org/2000/svg"><path d="M8.5 4.375V14.5C8.5 15.31 8.16999 16.0525 7.64499 16.5925L7.61501 16.6225C7.54751 16.69 7.47251 16.7575 7.40501 16.81C7.18001 17.005 6.92499 17.155 6.66249 17.26C6.57999 17.2975 6.4975 17.3275 6.415 17.3575C6.1225 17.455 5.8075 17.5 5.5 17.5C5.2975 17.5 5.09501 17.4775 4.90001 17.44C4.80251 17.4175 4.705 17.395 4.6075 17.365C4.4875 17.3275 4.37501 17.29 4.26251 17.2375C4.26251 17.23 4.2625 17.23 4.255 17.2375C4.045 17.1325 3.84251 17.0125 3.65501 16.87L3.6475 16.8625C3.55 16.7875 3.46001 16.7125 3.37751 16.6225C3.29501 16.5325 3.2125 16.4425 3.13 16.345C2.9875 16.1575 2.86751 15.955 2.76251 15.745C2.77001 15.7375 2.77001 15.7375 2.76251 15.7375C2.76251 15.7375 2.7625 15.73 2.755 15.7225C2.71 15.6175 2.67249 15.505 2.63499 15.3925C2.60499 15.295 2.58249 15.1975 2.55999 15.1C2.52249 14.905 2.5 14.7025 2.5 14.5V4.375C2.5 3.25 3.25 2.5 4.375 2.5H6.625C7.75 2.5 8.5 3.25 8.5 4.375Z" stroke="#000" stroke-linecap="round" stroke-linejoin="round"/><path d="M17.5 13.375V15.625C17.5 16.75 16.75 17.5 15.625 17.5H5.5C5.8075 17.5 6.1225 17.455 6.415 17.3575C6.4975 17.3275 6.57999 17.2975 6.66249 17.26C6.92499 17.155 7.18001 17.005 7.40501 16.81C7.47251 16.7575 7.54751 16.69 7.61501 16.6225L7.64499 16.5925L12.745 11.5H15.625C16.75 11.5 17.5 12.25 17.5 13.375Z" stroke="#000" stroke-linecap="round" stroke-linejoin="round"/><path d="M4.60727 17.3648C4.15727 17.2298 3.72978 16.9823 3.37728 16.6223C3.01728 16.2698 2.76977 15.8423 2.63477 15.3923C2.92727 16.3298 3.66977 17.0723 4.60727 17.3648Z" stroke="#000" stroke-linecap="round" stroke-linejoin="round"/><path d="M14.777 9.46743L12.7445 11.5L7.64453 16.5924C8.16953 16.0524 8.49954 15.31 8.49954 14.5V7.25496L10.532 5.22247C11.327 4.42747 12.392 4.42747 13.187 5.22247L14.777 6.81247C15.572 7.60747 15.572 8.67243 14.777 9.46743Z" stroke="#000" stroke-linecap="round" stroke-linejoin="round"/><path d="M5.5 15.25C5.91421 15.25 6.25 14.9142 6.25 14.5C6.25 14.0858 5.91421 13.75 5.5 13.75C5.08579 13.75 4.75 14.0858 4.75 14.5C4.75 14.9142 5.08579 15.25 5.5 15.25Z" stroke="#000" stroke-linecap="round" stroke-linejoin="round"/></svg>