<svg width="28" height="28" viewBox="0 0 28 28" xmlns="http://www.w3.org/2000/svg"><path fill-rule="evenodd" clip-rule="evenodd" d="M4.66667 4.08325C3.05584 4.08325 1.75 5.38909 1.75 6.99992V18.6666C1.75 20.2774 3.05584 21.5833 4.66667 21.5833H11.8895L10.7228 23.9166H8.16667C7.8445 23.9166 7.58333 24.1778 7.58333 24.4999C7.58333 24.822 7.8445 25.0832 8.16667 25.0832H11.0707C11.0788 25.0834 11.0869 25.0834 11.0951 25.0832H16.905C16.913 25.0834 16.9211 25.0834 16.9293 25.0832H19.8333C20.1554 25.0832 20.4167 24.822 20.4167 24.4999C20.4167 24.1778 20.1554 23.9166 19.8333 23.9166H17.2772L16.1105 21.5833H23.3333C24.9441 21.5833 26.25 20.2774 26.25 18.6666V6.99992C26.25 5.38909 24.9441 4.08325 23.3333 4.08325H4.66667ZM15.9728 23.9166L14.8062 21.5833H13.1938L12.0272 23.9166H15.9728ZM15.1539 20.4166C15.1621 20.4165 15.1703 20.4165 15.1784 20.4166H23.3333C24.2998 20.4166 25.0833 19.633 25.0833 18.6666V6.99992C25.0833 6.03342 24.2998 5.24992 23.3333 5.24992H4.66667C3.70016 5.24992 2.91667 6.03342 2.91667 6.99992V18.6666C2.91667 19.633 3.70016 20.4166 4.66667 20.4166H12.8215C12.8297 20.4165 12.8379 20.4165 12.8459 20.4166H15.1539Z"/></svg>