<svg width="36" height="36" viewBox="0 0 36 36" xmlns="http://www.w3.org/2000/svg"><path d="M32.2933 16.3033L30.0133 14.0234C29.6233 13.6334 29.3083 12.8684 29.3083 12.3284V9.08836C29.3083 7.76836 28.2283 6.68836 26.9083 6.68836H23.6833C23.1433 6.68836 22.3783 6.37336 21.9883 5.98336L19.7083 3.70336C18.7783 2.77336 17.2483 2.77336 16.3183 3.70336L14.0084 5.98336C13.6334 6.37336 12.8684 6.68836 12.3134 6.68836H9.08836C7.76836 6.68836 6.68836 7.76836 6.68836 9.08836V12.3134C6.68836 12.8534 6.37336 13.6184 5.98336 14.0084L3.70336 16.2883C2.77336 17.2183 2.77336 18.7483 3.70336 19.6783L5.98336 21.9583C6.37336 22.3483 6.68836 23.1133 6.68836 23.6533V26.8783C6.68836 28.1983 7.76836 29.2783 9.08836 29.2783H12.3134C12.8534 29.2783 13.6184 29.5933 14.0084 29.9833L16.2883 32.2633C17.2183 33.1933 18.7483 33.1933 19.6783 32.2633L21.9583 29.9833C22.3483 29.5933 23.1133 29.2783 23.6533 29.2783H26.8783C28.1983 29.2783 29.2783 28.1983 29.2783 26.8783V23.6533C29.2783 23.1133 29.5933 22.3483 29.9833 21.9583L32.2633 19.6783C33.2383 18.7633 33.2383 17.2333 32.2933 16.3033ZM11.9984 13.4984C11.9984 12.6734 12.6734 11.9984 13.4984 11.9984C14.3234 11.9984 14.9984 12.6734 14.9984 13.4984C14.9984 14.3234 14.3384 14.9984 13.4984 14.9984C12.6734 14.9984 11.9984 14.3234 11.9984 13.4984ZM14.2934 23.2933C14.0684 23.5183 13.7834 23.6233 13.4984 23.6233C13.2134 23.6233 12.9284 23.5183 12.7034 23.2933C12.2684 22.8583 12.2684 22.1383 12.7034 21.7033L21.7033 12.7034C22.1383 12.2684 22.8583 12.2684 23.2933 12.7034C23.7283 13.1384 23.7283 13.8584 23.2933 14.2934L14.2934 23.2933ZM22.4983 23.9983C21.6583 23.9983 20.9833 23.3233 20.9833 22.4983C20.9833 21.6733 21.6583 20.9983 22.4833 20.9983C23.3083 20.9983 23.9833 21.6733 23.9833 22.4983C23.9833 23.3233 23.3233 23.9983 22.4983 23.9983Z"/></svg>