<svg width="13" height="13" viewBox="0 0 13 13" xmlns="http://www.w3.org/2000/svg"><path d="M6.46597 0.679688C7.49465 0.679688 8.47657 0.960236 9.36498 1.47458C10.2534 1.98891 10.9548 2.69029 11.4691 3.57869C11.9834 4.46709 12.264 5.44901 12.264 6.47769C12.264 7.52975 11.9834 8.48829 11.4691 9.37669C10.9548 10.2651 10.2534 10.9898 9.36498 11.5042C8.47657 12.0185 7.49465 12.2757 6.46597 12.2757C5.41392 12.2757 4.45538 12.0185 3.56697 11.5042C2.67857 10.9898 1.95382 10.2651 1.43948 9.37669C0.925138 8.48829 0.667969 7.52975 0.667969 6.47769C0.667969 5.44901 0.925138 4.46709 1.43948 3.57869C1.95382 2.69029 2.67857 1.98891 3.56697 1.47458C4.45538 0.960236 5.41392 0.679688 6.46597 0.679688ZM6.46597 11.1535C7.30762 11.1535 8.07913 10.9431 8.80388 10.5223C9.50525 10.1014 10.0897 9.54035 10.5105 8.8156C10.9314 8.11423 11.1418 7.31934 11.1418 6.47769C11.1418 6.10363 11.095 5.72956 11.0015 5.3555H10.5807C10.4638 5.3555 10.3703 5.40226 10.3001 5.47239C10.23 5.54253 10.2066 5.61267 10.2066 5.70618V5.86984C10.2066 6.03349 10.1365 6.15039 9.99621 6.19714L9.64552 6.38418C9.50525 6.45431 9.38836 6.45431 9.29484 6.3608L8.85064 6.08025C8.75712 6.03349 8.64023 6.01011 8.54671 6.03349L8.47657 6.05687C8.35968 6.10363 8.28954 6.17376 8.24278 6.29066C8.19602 6.40756 8.2194 6.50107 8.28954 6.59459L8.59347 7.06217C8.6636 7.17906 8.75712 7.22582 8.8974 7.22582H9.10781C9.20132 7.22582 9.27146 7.27258 9.3416 7.34272C9.41173 7.41285 9.45849 7.48299 9.45849 7.57651V7.85706C9.45849 7.95057 9.43511 8.02071 9.38836 8.06747L8.94415 8.65194C8.8974 8.6987 8.87402 8.76884 8.87402 8.8156L8.7805 9.32994C8.75712 9.42345 8.71036 9.49359 8.6636 9.54035C8.42981 9.75076 8.24278 9.98455 8.07913 10.2183L7.7752 10.6859C7.63493 10.873 7.47127 10.9665 7.23748 10.9665C7.09721 10.9665 6.98031 10.9431 6.8868 10.873C6.79328 10.8262 6.69976 10.7327 6.65301 10.6158C6.51273 10.3586 6.46597 10.0781 6.46597 9.77414V9.07277C6.46597 8.97925 6.41922 8.90911 6.34908 8.83898C6.27894 8.76884 6.2088 8.72208 6.11529 8.72208H5.50743C5.13337 8.72208 4.82944 8.60519 4.59565 8.34802C4.33848 8.11423 4.22158 7.8103 4.22158 7.43623V7.10893C4.22158 6.92189 4.26834 6.73486 4.36186 6.54783C4.45538 6.3608 4.57227 6.22052 4.73592 6.10363L5.36716 5.61267C5.60095 5.44901 5.85812 5.3555 6.13867 5.3555H6.16205C6.34908 5.3555 6.55949 5.40226 6.74652 5.49577L7.07383 5.65943C7.16735 5.70618 7.26086 5.72956 7.35438 5.6828L8.45319 5.30874C8.52333 5.30874 8.59347 5.26198 8.64023 5.19184C8.68698 5.14509 8.71036 5.05157 8.71036 4.95805C8.71036 4.86454 8.6636 4.7944 8.59347 4.72426C8.52333 4.65413 8.45319 4.60737 8.35968 4.60737H8.10251C8.00899 4.60737 7.91547 4.58399 7.84534 4.49047L7.70506 4.3502C7.61155 4.28006 7.54141 4.2333 7.44789 4.2333H5.3204C5.22688 4.2333 5.13337 4.20992 5.06323 4.13979C4.99309 4.06965 4.96971 3.97613 4.96971 3.88262V3.76572C4.96971 3.69559 4.99309 3.62545 5.03985 3.55531C5.08661 3.48517 5.15675 3.43842 5.25026 3.41504L5.57757 3.32152C5.67109 3.32152 5.74122 3.27476 5.78798 3.18125L5.97501 2.9007C6.04515 2.80718 6.13867 2.73704 6.27894 2.73704H6.84004C6.93355 2.73704 7.02707 2.71367 7.09721 2.64353C7.16735 2.57339 7.2141 2.47987 7.2141 2.38636V1.87202C6.93355 1.82526 6.69976 1.80188 6.46597 1.80188C5.62433 1.80188 4.82944 2.01229 4.12807 2.43312C3.40332 2.85394 2.84222 3.43842 2.4214 4.13979C2.00057 4.86454 1.79016 5.63605 1.79016 6.47769C1.79016 7.31934 2.00057 8.11423 2.4214 8.8156C2.84222 9.54035 3.40332 10.1014 4.12807 10.5223C4.82944 10.9431 5.62433 11.1535 6.46597 11.1535Z"/></svg>