<svg width="15" height="14" viewBox="0 0 15 14" fill="none" xmlns="http://www.w3.org/2000/svg"><g id="Globe"><path id="Vector" d="M7.38389 11.6242C10.1351 11.6242 12.3654 9.39392 12.3654 6.64268C12.3654 3.89145 10.1351 1.66113 7.38389 1.66113C4.63266 1.66113 2.40234 3.89145 2.40234 6.64268C2.40234 9.39392 4.63266 11.6242 7.38389 11.6242Z" stroke="#707070" stroke-width="1.328" stroke-miterlimit="10"/><path id="Vector_2" d="M11.8562 8.84043L9.03926 7.10786C8.98988 7.07749 8.93469 7.0578 8.87724 7.05006L7.69315 6.89044C7.60424 6.87845 7.51383 6.8956 7.43548 6.9393C7.35712 6.983 7.29504 7.05092 7.25852 7.13286L6.54767 8.72791C6.51461 8.80209 6.50404 8.88433 6.51725 8.96446C6.53047 9.04459 6.5669 9.11908 6.62203 9.17871L7.59758 10.2339C7.64181 10.2817 7.67415 10.3393 7.692 10.402C7.70985 10.4646 7.71271 10.5306 7.70034 10.5945L7.50162 11.6218C8.50629 11.566 10.7837 10.9315 11.8562 8.84043Z" fill="#707070" stroke="#707070" stroke-width=".886" stroke-linecap="round" stroke-linejoin="round"/><g id="Vector_3"><path d="M8.65487 1.82462L9.1392 2.69216C9.18499 2.77417 9.20161 2.86928 9.18635 2.96196C9.17109 3.05464 9.12485 3.13941 9.05519 3.20241L7.65875 4.46531C7.63505 4.48674 7.60896 4.50537 7.58098 4.52082L6.94574 4.87162C6.8843 4.90555 6.81525 4.92335 6.74506 4.92335H5.63743C5.55574 4.92335 5.47588 4.94745 5.40783 4.99262C5.33977 5.0378 5.28656 5.10205 5.25485 5.17732L4.82274 6.20313" fill="#707070"/><path d="M4.1141 2.88616L3.64997 3.98364C3.60859 4.0815 3.6063 4.1915 3.64358 4.29099L4.23985 5.8824C4.26427 5.94756 4.30468 6.00555 4.35736 6.05102C4.41005 6.09649 4.47332 6.12798 4.54136 6.1426L5.65338 6.38161C5.71509 6.39487 5.77296 6.42203 5.82259 6.46101C5.87222 6.5 5.91231 6.54979 5.93981 6.6066L6.13729 7.01457C6.17127 7.08477 6.22435 7.14399 6.29043 7.18542C6.35652 7.22685 6.43294 7.24883 6.51094 7.24883H7.20797" fill="#707070"/><path d="M8.65487 1.82462L9.1392 2.69216C9.18499 2.77417 9.20161 2.86928 9.18635 2.96196C9.17109 3.05464 9.12485 3.13941 9.05519 3.20241L7.65875 4.46531C7.63505 4.48674 7.60896 4.50537 7.58098 4.52082L6.94574 4.87162C6.8843 4.90555 6.81525 4.92335 6.74506 4.92335H5.63743C5.55574 4.92335 5.47588 4.94745 5.40783 4.99262C5.33977 5.0378 5.28656 5.10205 5.25485 5.17732L4.82274 6.20313L4.54136 6.1426C4.47332 6.12798 4.41005 6.09649 4.35736 6.05102C4.30468 6.00555 4.26427 5.94756 4.23985 5.8824L3.64358 4.29099C3.6063 4.1915 3.60859 4.0815 3.64997 3.98364L4.1141 2.88616C4.66697 2.31002 6.34915 1.29111 8.65487 1.82462Z" fill="#707070"/><path d="M4.54136 6.1426C4.47332 6.12798 4.41005 6.09649 4.35736 6.05102C4.30468 6.00555 4.26427 5.94756 4.23985 5.8824L3.64358 4.29099C3.6063 4.1915 3.60859 4.0815 3.64997 3.98364L4.1141 2.88616C4.66697 2.31002 6.34915 1.29111 8.65487 1.82462L9.1392 2.69216C9.18499 2.77417 9.20161 2.86928 9.18635 2.96196C9.17109 3.05464 9.12485 3.13941 9.05519 3.20241L7.65875 4.46531C7.63505 4.48674 7.60896 4.50537 7.58098 4.52082L6.94574 4.87162C6.8843 4.90555 6.81525 4.92335 6.74506 4.92335H5.63743C5.55574 4.92335 5.47588 4.94745 5.40783 4.99262C5.33977 5.0378 5.28656 5.10205 5.25485 5.17732L4.82274 6.20313L4.54136 6.1426ZM4.54136 6.1426L5.65338 6.38161C5.71509 6.39487 5.77296 6.42203 5.82259 6.46101C5.87222 6.5 5.91231 6.54979 5.93981 6.6066L6.13729 7.01457C6.17127 7.08477 6.22435 7.14399 6.29043 7.18542C6.35652 7.22685 6.43294 7.24883 6.51094 7.24883H7.20797" stroke="#707070" stroke-width=".886" stroke-linecap="round" stroke-linejoin="round"/></g></g></svg>