<svg width="36" height="36" viewBox="0 0 36 36" xmlns="http://www.w3.org/2000/svg"><path d="M22.275 5.92617V11.6262H20.025V5.92617C20.025 5.52117 19.665 5.32617 19.425 5.32617C19.35 5.32617 19.275 5.34117 19.2 5.37117L7.305 9.85617C6.51 10.1562 6 10.9062 6 11.7612V12.7662C4.635 13.7862 3.75 15.4212 3.75 17.2662V11.7612C3.75 9.97617 4.845 8.38617 6.51 7.75617L18.42 3.25617C18.75 3.13617 19.095 3.07617 19.425 3.07617C20.925 3.07617 22.275 4.29117 22.275 5.92617Z"/><path d="M32.251 21.75V23.25C32.251 23.655 31.936 23.985 31.516 24H29.326C28.531 24 27.811 23.415 27.751 22.635C27.706 22.17 27.886 21.735 28.186 21.435C28.456 21.15 28.831 21 29.236 21H31.501C31.936 21.015 32.251 21.345 32.251 21.75Z"/><path d="M29.22 19.425H30.75C31.575 19.425 32.25 18.75 32.25 17.925V17.265C32.25 14.16 29.715 11.625 26.61 11.625H9.39C8.115 11.625 6.945 12.045 6 12.765C4.635 13.785 3.75 15.42 3.75 17.265V27.36C3.75 30.465 6.285 33 9.39 33H26.61C29.715 33 32.25 30.465 32.25 27.36V27.075C32.25 26.25 31.575 25.575 30.75 25.575H29.445C28.005 25.575 26.625 24.69 26.25 23.295C25.935 22.155 26.31 21.06 27.06 20.325C27.615 19.755 28.38 19.425 29.22 19.425ZM21 19.125H10.5C9.885 19.125 9.375 18.615 9.375 18C9.375 17.385 9.885 16.875 10.5 16.875H21C21.615 16.875 22.125 17.385 22.125 18C22.125 18.615 21.615 19.125 21 19.125Z"/></svg>