<svg width="18" height="18" viewBox="0 0 18 18" fill="none" xmlns="http://www.w3.org/2000/svg"><g id="envelope-open" opacity=".6"><path id="Vector" d="M9.47 2.1182C9.32532 2.04116 9.16392 2.00087 9 2.00087C8.83608 2.00087 8.67468 2.04116 8.53 2.1182L2.53 5.3182C2.37002 5.40338 2.2362 5.53045 2.14285 5.6858C2.0495 5.84115 2.00012 6.01896 2 6.2002V7.0172L7.75 10.4672L9 9.7172L10.25 10.4672L16 7.0172V6.2002C15.9999 6.01896 15.9505 5.84115 15.8572 5.6858C15.7638 5.53045 15.63 5.40338 15.47 5.3182L9.47 2.1182ZM16 8.1832L11.222 11.0502L16 13.9172V8.1832ZM15.965 15.0632L9 10.8822L2.035 15.0622C2.09252 15.2741 2.21818 15.4612 2.39259 15.5945C2.56699 15.7279 2.78044 15.8002 3 15.8002H15C15.2196 15.8002 15.433 15.7279 15.6074 15.5945C15.7818 15.4612 15.9075 15.2741 15.965 15.0622V15.0632ZM2 13.9162L6.778 11.0492L2 8.1832V13.9172V13.9162ZM8.059 1.2352C8.34862 1.08078 8.67179 1 9 1C9.32821 1 9.65138 1.08078 9.941 1.2352L15.941 4.4352C16.2609 4.60578 16.5285 4.86012 16.715 5.17101C16.9015 5.4819 17 5.83764 17 6.2002V14.8002C17 15.3306 16.7893 15.8393 16.4142 16.2144C16.0391 16.5895 15.5304 16.8002 15 16.8002H3C2.46957 16.8002 1.96086 16.5895 1.58579 16.2144C1.21071 15.8393 1 15.3306 1 14.8002V6.2002C0.999964 5.83764 1.09848 5.4819 1.28501 5.17101C1.47155 4.86012 1.73908 4.60578 2.059 4.4352L8.059 1.2352Z" fill="#686A6E"/></g></svg>