<svg width="18" height="18" viewBox="0 0 18 18" fill="none" xmlns="http://www.w3.org/2000/svg"><path id="Icon" d="M2.25 7.9238C2.25 7.49304 2.25 7.27765 2.30552 7.0793C2.3547 6.9036 2.43552 6.73835 2.54402 6.59166C2.6665 6.42606 2.83652 6.29382 3.17654 6.02936L8.26327 2.07301C8.52677 1.86807 8.65851 1.7656 8.80399 1.72622C8.93235 1.69146 9.06765 1.69146 9.19601 1.72622C9.34149 1.7656 9.47324 1.86807 9.73673 2.07301L14.8235 6.02936C15.1635 6.29382 15.3335 6.42606 15.456 6.59166C15.5645 6.73835 15.6453 6.9036 15.6945 7.0793C15.75 7.27765 15.75 7.49304 15.75 7.9238V13.35C15.75 14.1901 15.75 14.6101 15.5865 14.931C15.4427 15.2132 15.2132 15.4427 14.931 15.5865C14.6101 15.75 14.1901 15.75 13.35 15.75H4.65C3.80992 15.75 3.38988 15.75 3.06901 15.5865C2.78677 15.4427 2.5573 15.2132 2.41349 14.931C2.25 14.6101 2.25 14.1901 2.25 13.35V7.9238Z" stroke-width="1.25" stroke-linecap="round" stroke-linejoin="round"/><path d="M9 12V7.5M6.75 9.75H11.25"/></svg>