<svg width="18" height="18" viewBox="0 0 18 18" fill="none" xmlns="http://www.w3.org/2000/svg"><g id="heroicons-outline/eye-slash"><path id="Vector" d="M2.98493 6.16693C2.2926 6.98537 1.76429 7.94701 1.45074 9.00111C2.41922 12.2535 5.43231 14.625 8.9993 14.625C9.74373 14.625 10.464 14.5217 11.1467 14.3287M4.6707 4.67072C5.91289 3.85169 7.40076 3.375 8.99996 3.375C12.567 3.375 15.58 5.74654 16.5485 8.99889C16.0146 10.7939 14.8579 12.3208 13.329 13.329M4.6707 4.67072L2.24998 2.25M4.6707 4.67072L7.40899 7.40901M13.329 13.329L15.75 15.75M13.329 13.329L10.591 10.591M10.591 10.591C10.9981 10.1838 11.25 9.62132 11.25 9C11.25 7.75736 10.2426 6.75 8.99998 6.75C8.37866 6.75 7.81616 7.00184 7.40899 7.40901M10.591 10.591L7.40899 7.40901" stroke-width="1.25" stroke-linecap="round" stroke-linejoin="round"/></g></svg>