<svg width="28" height="28" viewBox="0 0 28 28" fill="none" xmlns="http://www.w3.org/2000/svg"><mask id="mask0_10954_115532" style="mask-type:luminance" maskUnits="userSpaceOnUse" x="0" y="0" width="28" height="28"><path d="M28 14C28 6.26801 21.732 0 14 0C6.26801 0 0 6.26801 0 14C0 21.732 6.26801 28 14 28C21.732 28 28 21.732 28 14Z" fill="#fff"/></mask><g mask="url(#mask0_10954_115532)"><path d="M28 14C28 6.26801 21.732 0 14 0C6.26801 0 0 6.26801 0 14C0 21.732 6.26801 28 14 28C21.732 28 28 21.732 28 14Z" fill="#E5E7EB"/><path d="M14 18.6663C14.772 18.6758 15.5382 18.5319 16.2542 18.243C16.9703 17.9541 17.6218 17.5259 18.1711 16.9833C18.7204 16.4407 19.1565 15.7945 19.4541 15.0821C19.7518 14.3696 19.905 13.6052 19.905 12.8331C19.905 12.061 19.7518 11.2966 19.4541 10.5842C19.1565 9.8718 18.7204 9.22556 18.1711 8.68296C17.6218 8.14036 16.9703 7.71219 16.2542 7.42329C15.5382 7.13439 14.772 6.99049 14 6.99995C12.4653 7.01875 10.9998 7.64159 9.92124 8.73348C8.84264 9.82537 8.23779 11.2983 8.23779 12.8331C8.23779 14.3679 8.84264 15.8409 9.92124 16.9328C10.9998 18.0247 12.4653 18.6475 14 18.6663Z" fill="#333538"/><path d="M23.3335 28.0001C23.3335 25.5247 22.3501 23.1507 20.5998 21.4003C18.8494 19.6499 16.4753 18.6665 13.9999 18.6665C11.5245 18.6665 9.15041 19.6499 7.40001 21.4003C5.64962 23.1507 4.66626 25.5247 4.66626 28.0001" fill="#333538"/><path d="M13.9999 18.6663C14.7719 18.6758 15.5382 18.5319 16.2542 18.243C16.9702 17.9541 17.6217 17.5259 18.171 16.9833C18.7203 16.4407 19.1564 15.7945 19.454 15.0821C19.7517 14.3696 19.905 13.6052 19.905 12.8331C19.905 12.061 19.7517 11.2966 19.454 10.5842C19.1564 9.8718 18.7203 9.22556 18.171 8.68296C17.6217 8.14036 16.9702 7.71219 16.2542 7.42329C15.5382 7.13439 14.7719 6.99049 13.9999 6.99995C12.4652 7.01875 10.9998 7.64159 9.92115 8.73348C8.84255 9.82537 8.2377 11.2983 8.2377 12.8331C8.2377 14.3679 8.84255 15.8409 9.92115 16.9328C10.9998 18.0247 12.4652 18.6475 13.9999 18.6663ZM13.9999 18.6663C15.2256 18.6663 16.4393 18.9077 17.5717 19.3768C18.7041 19.8459 19.733 20.5334 20.5998 21.4001C21.4665 22.2668 22.154 23.2957 22.623 24.4281C23.0921 25.5605 23.3335 26.7742 23.3335 27.9999M13.9999 18.6663C12.7741 18.6662 11.5604 18.9075 10.4279 19.3766C9.29547 19.8456 8.26649 20.5331 7.39976 21.3998C6.53303 22.2666 5.84552 23.2955 5.37651 24.428C4.90749 25.5604 4.66614 26.7742 4.66626 27.9999" stroke="#333538" stroke-width="1.5" stroke-linecap="round" stroke-linejoin="round"/></g></svg>