<svg width="20" height="20" viewBox="0 0 20 20" fill="none" xmlns="http://www.w3.org/2000/svg"><g id="video-audio-image/gallery" stroke="#2B323E" stroke-width="1.25" stroke-linecap="round" stroke-linejoin="round"><path id="Vector" d="M7.50008 18.3332H12.5001C16.6667 18.3332 18.3334 16.6665 18.3334 12.4998V7.49984C18.3334 3.33317 16.6667 1.6665 12.5001 1.6665H7.50008C3.33341 1.6665 1.66675 3.33317 1.66675 7.49984V12.4998C1.66675 16.6665 3.33341 18.3332 7.50008 18.3332Z"/><path id="Vector_2" d="M7.49992 8.33333C8.42042 8.33333 9.16659 7.58714 9.16659 6.66667C9.16659 5.74619 8.42042 5 7.49992 5C6.57944 5 5.83325 5.74619 5.83325 6.66667C5.83325 7.58714 6.57944 8.33333 7.49992 8.33333Z"/><path id="Vector_3" d="M2.22485 15.7918L6.33319 13.0335C6.99152 12.5918 7.94152 12.6418 8.53315 13.1501L8.80815 13.3918C9.45815 13.9501 10.5082 13.9501 11.1582 13.3918L14.6248 10.4168C15.2748 9.85846 16.3248 9.85846 16.9748 10.4168L18.3332 11.5835"/></g></svg>