<svg xmlns="http://www.w3.org/2000/svg" width="16" height="16" viewBox="0 0 16 16"><path fill-rule="evenodd" clip-rule="evenodd" d="M8.59638 0.3923C9.33667 -0.140315 10.3978 -0.0857949 11.6756 0.288079L11.6763 0.288292C13.5571 0.841282 15.1595 2.44316 15.7127 4.32333L15.7129 4.32405C16.0869 5.60144 16.1414 6.66223 15.6086 7.40228C15.0681 8.15309 14.0962 8.3382 13.0773 8.3382H10.5334C9.67805 8.3382 8.9157 8.12327 8.38252 7.53165C7.86159 6.9536 7.66016 6.12496 7.66016 5.12884V2.92285C7.66016 1.9042 7.84533 0.932657 8.59638 0.3923ZM9.26775 1.32485C9.0074 1.51216 8.80947 1.94999 8.80947 2.92285V5.12884C8.80947 6.00164 8.99114 6.49044 9.23642 6.76261C9.46946 7.0212 9.85642 7.18925 10.5334 7.18925H13.0773C14.0504 7.18925 14.4884 6.99139 14.6758 6.73113C14.8709 6.46014 14.9714 5.88187 14.6099 4.64718C14.167 3.14205 12.858 1.83351 11.3524 1.39067C10.1173 1.02933 9.53883 1.12981 9.26775 1.32485Z"/><path fill-rule="evenodd" clip-rule="evenodd" d="M6.70168 1.52896C6.76509 1.83984 6.5644 2.14324 6.25342 2.20663C3.0133 2.8671 0.665486 5.98695 1.2351 9.5254C1.67061 12.1848 3.81637 14.3289 6.47511 14.7567L6.4759 14.7568C10.029 15.3336 13.1503 12.9735 13.8043 9.71878C13.8668 9.40772 14.1697 9.2062 14.4809 9.26869C14.792 9.33117 14.9936 9.63398 14.9311 9.94504C14.1599 13.7832 10.4772 16.5704 6.29169 15.8909C3.14313 15.384 0.615567 12.8562 0.100746 9.71019L0.100517 9.70877C-0.570704 5.54191 2.19967 1.86036 6.02379 1.08085C6.33477 1.01746 6.63827 1.21809 6.70168 1.52896Z"/></svg>