<svg xmlns="http://www.w3.org/2000/svg" width="16" height="16" viewBox="0 0 16 16"><g clip-path="url(#45645)" fill-rule="evenodd" clip-rule="evenodd"><path d="M0 7.99998C0 3.59831 3.59872 -0.000732422 8 -0.000732422C12.4013 -0.000732422 16 3.59831 16 7.99998C16 12.4017 12.4013 16.0007 8 16.0007C3.59872 16.0007 0 12.4017 0 7.99998ZM8 1.11565C4.21523 1.11565 1.11628 4.21487 1.11628 7.99998C1.11628 11.7851 4.21523 14.8843 8 14.8843C11.7848 14.8843 14.8837 11.7851 14.8837 7.99998C14.8837 4.21487 11.7848 1.11565 8 1.11565Z"/><path d="M7.98783 10.9879C8.29608 10.9879 8.54597 11.2378 8.54597 11.5461V11.5535C8.54597 11.8618 8.29608 12.1117 7.98783 12.1117C7.67958 12.1117 7.42969 11.8618 7.42969 11.5535V11.5461C7.42969 11.2378 7.67958 10.9879 7.98783 10.9879Z"/><path d="M7.03484 4.28373C7.49378 4.09362 7.99879 4.04387 8.486 4.14079C8.9732 4.23772 9.42073 4.47695 9.77199 4.82824C10.1232 5.17952 10.3625 5.62709 10.4594 6.11434C10.5563 6.6016 10.5065 7.10665 10.3164 7.56563C10.1263 8.02461 9.80442 8.41691 9.39139 8.69291C9.17868 8.83506 8.94671 8.94307 8.7039 9.0144C8.64453 9.03184 8.59781 9.06332 8.57202 9.09149C8.5602 9.1044 8.55576 9.11325 8.55449 9.11624C8.55434 9.1166 8.55423 9.11689 8.55414 9.11712V9.54445C8.55414 9.85273 8.30426 10.1026 7.996 10.1026C7.68775 10.1026 7.43786 9.85273 7.43786 9.54445L7.43786 9.11624C7.43786 8.47455 7.94978 8.0724 8.38928 7.94328C8.52418 7.90365 8.65304 7.84365 8.77122 7.76468C9.00068 7.61134 9.17953 7.3934 9.28514 7.13841C9.39075 6.88342 9.41838 6.60283 9.36454 6.33214C9.3107 6.06144 9.17781 5.81279 8.98266 5.61763C8.78752 5.42247 8.53889 5.28957 8.26822 5.23572C7.99755 5.18188 7.71699 5.20951 7.46203 5.31513C7.20706 5.42075 6.98914 5.59961 6.83581 5.8291C6.68249 6.05858 6.60065 6.32838 6.60065 6.60438C6.60065 6.91266 6.35077 7.16257 6.04251 7.16257C5.73426 7.16257 5.48438 6.91266 5.48438 6.60438C5.48438 6.10759 5.63168 5.62194 5.90766 5.20887C6.18364 4.7958 6.5759 4.47385 7.03484 4.28373Z"/></g><defs><clipPath id="45645"><path d="M0 0H16V16H0z"/></clipPath></defs></svg>