<svg width="18" height="18" viewBox="0 0 18 18" fill="none" xmlns="http://www.w3.org/2000/svg"><g clip-path="url(#clip0_1558_21943)"><path d="M9 16.5C13.125 16.5 16.5 13.125 16.5 9C16.5 4.875 13.125 1.5 9 1.5C4.875 1.5 1.5 4.875 1.5 9C1.5 13.125 4.875 16.5 9 16.5Z"/><path d="M8.99023 12.5735V12.581"/><path d="M9 10.5565L9 10.0625C9 9.78636 9.22737 9.56873 9.49465 9.49935C9.70687 9.44426 9.90953 9.35382 10.0938 9.23071C10.4175 9.01438 10.6699 8.7069 10.8189 8.34716C10.9679 7.98742 11.0069 7.59157 10.9309 7.20967C10.855 6.82777 10.6675 6.47697 10.3921 6.20163C10.1168 5.9263 9.76598 5.73879 9.38408 5.66283C9.00218 5.58687 8.60633 5.62585 8.24659 5.77486C7.88685 5.92387 7.57937 6.17621 7.36304 6.49997C7.14672 6.82373 7.03125 7.20437 7.03125 7.59375"/></g><defs><clipPath id="clip0_1558_21943"><path fill="inherit" d="M0 0H18V18H0z"/></clipPath></defs></svg>