<svg xmlns="http://www.w3.org/2000/svg" width="16" height="16" viewBox="0 0 16 16"><g clip-path="url(#q111)" fill-rule="evenodd" clip-rule="evenodd"><path d="M9.82333 0.635763C9.18776 0.190824 8.38631 -0.00496458 7.61575 0.0131054C6.84521 0.031175 6.05302 0.264652 5.43927 0.74206L1.4281 3.86793C1.00876 4.19424 0.657858 4.67751 0.412413 5.1778C0.167001 5.67802 0 6.25036 0 6.77912V12.294C0 14.3273 1.65468 15.993 3.69116 15.993H12.3088C14.3445 15.993 16 14.3281 16 12.3015V6.88332C16 6.31978 15.8152 5.71733 15.5432 5.19607C15.2712 4.67509 14.8825 4.17929 14.4215 3.85773L9.82333 0.635763ZM2.11422 4.74853C1.86397 4.94319 1.60811 5.27504 1.41456 5.66955C1.22091 6.06428 1.11628 6.4669 1.11628 6.77912V12.294C1.11628 13.7142 2.27462 14.8766 3.69116 14.8766H12.3088C13.7262 14.8766 14.8837 13.7133 14.8837 12.3015V6.88332C14.8837 6.54634 14.7671 6.12173 14.5536 5.71268C14.3401 5.30359 14.0586 4.9656 13.7832 4.77361L13.7821 4.77282L9.18318 1.55034C8.77691 1.266 8.2201 1.11562 7.64192 1.12918C7.06367 1.14274 6.51588 1.31895 6.12499 1.62297L2.11422 4.74853Z"/><path d="M7.99564 9.66687C8.30389 9.66687 8.55378 9.91678 8.55378 10.2251V12.4578C8.55378 12.7661 8.30389 13.016 7.99564 13.016C7.68739 13.016 7.4375 12.7661 7.4375 12.4578V10.2251C7.4375 9.91678 7.68739 9.66687 7.99564 9.66687Z"/></g><defs><clipPath id="q111"><path d="M0 0H16V16H0z"/></clipPath></defs></svg>