<svg width="44" height="44" viewBox="0 0 44 44" fill="none" xmlns="http://www.w3.org/2000/svg"><path d="M21.9999 27.4547C22.5017 27.4547 22.909 27.0473 22.909 26.5456C22.909 26.0438 22.5017 25.6365 21.9999 25.6365C21.4981 25.6365 21.0908 26.0438 21.0908 26.5456C21.0908 27.0473 21.4981 27.4547 21.9999 27.4547Z" fill="#2F8733"/><path d="M26.3082 21.3155C28.1364 20.2141 29.6496 18.6638 30.685 16.8318C31.7037 15.0292 32.2422 12.9894 32.2422 10.9328V6.55322C33.1594 6.23065 33.818 5.36212 33.818 4.34375V2.78125C33.818 2.34973 33.4653 2 33.0301 2H10.9695C10.5343 2 10.1816 2.34973 10.1816 2.78125V4.34375C10.1816 5.36212 10.8403 6.23065 11.7574 6.55322V10.9328C11.7574 12.9894 12.296 15.0292 13.3147 16.8318C14.35 18.6638 15.8636 20.2144 17.6917 21.3155C17.9253 21.4562 18.065 21.7122 18.065 22C18.065 22.2881 17.9253 22.5438 17.6917 22.6848C15.8636 23.7859 14.35 25.3362 13.3147 27.1682C12.296 28.9708 11.7574 31.0106 11.7574 33.0672V37.4468C10.8403 37.7693 10.1816 38.6379 10.1816 39.6562V41.2188C10.1816 41.6503 10.5343 42 10.9695 42H33.0301C33.4653 42 33.818 41.6503 33.818 41.2188V39.6562C33.818 38.6379 33.1594 37.7693 32.2422 37.4468V33.0672C32.2422 31.0106 31.7037 28.9708 30.685 27.1682C29.6496 25.3362 28.136 23.7856 26.3079 22.6845C26.0743 22.5438 25.9346 22.2878 25.9346 22C25.9346 21.7119 26.0743 21.4562 26.3082 21.3155ZM11.7574 3.5625H32.2422V4.34375C32.2422 4.77466 31.8889 5.125 31.4544 5.125H12.5453C12.1107 5.125 11.7574 4.77466 11.7574 4.34375V3.5625ZM32.2422 40.4375H11.7574V39.6562C11.7574 39.2253 12.1107 38.875 12.5453 38.875H31.4544C31.8889 38.875 32.2422 39.2253 32.2422 39.6562V40.4375ZM25.4902 24.02C28.7313 25.9725 30.6665 29.3547 30.6665 33.0672V37.3125H13.3332V33.0672C13.3332 29.3547 15.2684 25.9725 18.5095 24.02C19.2179 23.5936 19.6408 22.8383 19.6408 22C19.6408 21.1617 19.2179 20.4064 18.5095 19.98C15.2684 18.0275 13.3332 14.6453 13.3332 10.9328V6.6875H30.6665V10.9328C30.6665 14.6453 28.7313 18.0275 25.4902 19.98C24.7817 20.4064 24.3588 21.1617 24.3588 22C24.3588 22.8383 24.7817 23.5936 25.4902 24.02Z" fill="#2F8733"/><path d="M22.6442 28.6884C22.4917 28.4841 22.2525 28.3635 21.9984 28.3635C21.9984 28.3635 21.9981 28.3635 21.9977 28.3635C21.744 28.3635 21.5047 28.4835 21.3522 28.6872C21.0476 29.0945 20.6682 29.4407 20.2247 29.717C19.2992 30.2774 18.4725 30.6276 17.7427 30.937C16.1246 31.623 14.7275 32.2153 14.7275 34.4668V34.824C14.7275 35.2726 15.0893 35.6363 15.5356 35.6363H28.4649C28.9113 35.6363 29.273 35.2726 29.273 34.824V34.4668C29.273 32.2166 27.8724 31.6217 26.2509 30.9326C25.5151 30.6197 24.6811 30.2656 23.744 29.6986C23.3143 29.4305 22.9444 29.0904 22.6442 28.6884ZM27.625 34.0118H16.3753C16.4984 33.2611 17.0075 33.0117 18.3708 32.4339C19.113 32.1192 20.0363 31.728 21.0631 31.1061C21.0656 31.1042 21.0684 31.1026 21.071 31.101C21.4062 30.8926 21.7159 30.6543 21.9971 30.3887C22.2714 30.648 22.5719 30.8796 22.8967 31.082C22.8996 31.0836 22.9024 31.0855 22.9053 31.0871C23.9431 31.7153 24.8737 32.1109 25.6215 32.4289C26.9905 33.0104 27.5015 33.2611 27.625 34.0118Z" fill="#2F8733"/><path d="M29.273 10.5916V9.14822C29.273 8.86292 29.1136 8.6003 28.8566 8.4621C28.5997 8.32359 28.2859 8.33186 28.0366 8.48294C26.2247 9.58245 24.1376 10.1635 22.0003 10.1635C19.8633 10.1635 17.7758 9.58245 15.964 8.48294C15.7146 8.33186 15.4008 8.32389 15.1439 8.4621C14.8869 8.6003 14.7275 8.86292 14.7275 9.14822V10.5916C14.7275 11.9485 15.2673 13.409 16.2881 14.8149C17.2774 16.1774 18.6496 17.3943 20.2566 18.3347C20.583 18.5318 20.9027 18.8112 21.1922 19.1489V23.0337C21.1922 23.467 21.5539 23.8182 22.0003 23.8182C22.4463 23.8182 22.8083 23.467 22.8083 23.0337V19.1505C23.1032 18.8088 23.4337 18.5229 23.7758 18.317C27.064 16.3916 29.273 13.2876 29.273 10.5916ZM22.9375 16.9754C22.9349 16.9772 22.9321 16.9784 22.9296 16.9803C22.6073 17.1736 22.2951 17.413 22.0031 17.6881C21.72 17.4191 21.4191 17.1883 21.1038 16.9986C21.101 16.9968 21.0981 16.9953 21.0953 16.9934C18.2531 15.3316 16.3437 12.759 16.3437 10.5916V10.476C18.1022 11.301 20.0328 11.7324 22.0003 11.7324C23.9678 11.7324 25.8983 11.301 27.6568 10.476V10.5916C27.6568 12.725 25.7162 15.35 22.9375 16.9754Z" fill="#2F8733"/></svg>