<svg xmlns="http://www.w3.org/2000/svg" width="41" height="41" viewBox="0 0 41 41"><path d="M20.002 0.5C16.0463 0.5 12.1795 1.67298 8.89056 3.87061C5.60157 6.06823 3.03812 9.19181 1.52437 12.8463C0.0106189 16.5009 -0.385448 20.5222 0.386256 24.4018C1.15796 28.2814 3.06278 31.8451 5.85983 34.6421C8.65688 37.4392 12.2205 39.344 16.1002 40.1157C19.9798 40.8874 24.0011 40.4913 27.6556 38.9776C31.3101 37.4638 34.4337 34.9004 36.6314 31.6114C38.829 28.3224 40.002 24.4556 40.002 20.5C39.9959 15.1975 37.8869 10.1139 34.1374 6.36452C30.388 2.6151 25.3044 0.50603 20.002 0.5ZM13.4802 11.8043C13.9102 11.8043 14.3305 11.9318 14.688 12.1707C15.0455 12.4096 15.3241 12.7491 15.4887 13.1463C15.6532 13.5436 15.6962 13.9807 15.6124 14.4024C15.5285 14.8241 15.3214 15.2114 15.0174 15.5154C14.7134 15.8195 14.326 16.0265 13.9043 16.1104C13.4826 16.1943 13.0455 16.1512 12.6483 15.9867C12.2511 15.8222 11.9116 15.5435 11.6727 15.186C11.4338 14.8285 11.3063 14.4082 11.3063 13.9783C11.3063 13.4017 11.5353 12.8488 11.943 12.4411C12.3507 12.0334 12.9037 11.8043 13.4802 11.8043ZM27.828 28.3261H12.1759C11.9452 28.3261 11.7241 28.2345 11.561 28.0714C11.3979 27.9083 11.3063 27.6871 11.3063 27.4565C11.3063 27.2259 11.3979 27.0047 11.561 26.8416C11.7241 26.6786 11.9452 26.587 12.1759 26.587H27.828C28.0587 26.587 28.2798 26.6786 28.4429 26.8416C28.606 27.0047 28.6976 27.2259 28.6976 27.4565C28.6976 27.6871 28.606 27.9083 28.4429 28.0714C28.2798 28.2345 28.0587 28.3261 27.828 28.3261ZM26.5237 16.1522C26.0937 16.1522 25.6734 16.0247 25.3159 15.7858C24.9584 15.5469 24.6798 15.2074 24.5153 14.8102C24.3507 14.4129 24.3077 13.9758 24.3916 13.5541C24.4754 13.1325 24.6825 12.7451 24.9865 12.4411C25.2905 12.137 25.6779 11.93 26.0996 11.8461C26.5213 11.7622 26.9584 11.8053 27.3556 11.9698C27.7528 12.1344 28.0924 12.413 28.3312 12.7705C28.5701 13.128 28.6976 13.5483 28.6976 13.9783C28.6976 14.5548 28.4686 15.1078 28.0609 15.5154C27.6532 15.9231 27.1003 16.1522 26.5237 16.1522Z"/><path d="M14.6883 12.1711C14.3308 11.9322 13.9105 11.8047 13.4806 11.8047C12.904 11.8047 12.3511 12.0337 11.9434 12.4414C11.5357 12.8491 11.3066 13.402 11.3066 13.9786C11.3066 14.4086 11.4341 14.8289 11.673 15.1864C11.9119 15.5439 12.2514 15.8225 12.6486 15.987C13.0459 16.1516 13.483 16.1946 13.9047 16.1107C14.3264 16.0269 14.7137 15.8198 15.0177 15.5158C15.3218 15.2118 15.5288 14.8244 15.6127 14.4027C15.6966 13.981 15.6535 13.5439 15.489 13.1467C15.3244 12.7494 15.0458 12.4099 14.6883 12.1711Z" fill="#44382A"/><path d="M12.1762 28.3264H27.8284C28.059 28.3264 28.2802 28.2348 28.4433 28.0717C28.6063 27.9087 28.6979 27.6875 28.6979 27.4569C28.6979 27.2262 28.6063 27.0051 28.4433 26.842C28.2802 26.6789 28.059 26.5873 27.8284 26.5873H12.1762C11.9456 26.5873 11.7244 26.6789 11.5613 26.842C11.3983 27.0051 11.3066 27.2262 11.3066 27.4569C11.3066 27.6875 11.3983 27.9087 11.5613 28.0717C11.7244 28.2348 11.9456 28.3264 12.1762 28.3264Z" fill="#44382A"/><path d="M25.3163 15.7861C25.6738 16.025 26.0941 16.1525 26.524 16.1525C27.1006 16.1525 27.6535 15.9235 28.0612 15.5158C28.4689 15.1081 28.6979 14.5552 28.6979 13.9786C28.6979 13.5486 28.5704 13.1283 28.3316 12.7708C28.0927 12.4133 27.7532 12.1347 27.3559 11.9702C26.9587 11.8056 26.5216 11.7626 26.0999 11.8465C25.6782 11.9303 25.2909 12.1374 24.9868 12.4414C24.6828 12.7454 24.4758 13.1328 24.3919 13.5545C24.308 13.9762 24.3511 14.4133 24.5156 14.8105C24.6801 15.2078 24.9588 15.5473 25.3163 15.7861Z" fill="#44382A"/></svg>