<svg xmlns="http://www.w3.org/2000/svg" width="40" height="41" viewBox="0 0 40 41"><path d="M19.9995 0.5C16.0439 0.5 12.1771 1.67298 8.88811 3.87061C5.59913 6.06823 3.03568 9.19181 1.52193 12.8463C0.00817752 16.5008 -0.387889 20.5222 0.383815 24.4018C1.15552 28.2814 3.06033 31.8451 5.85738 34.6421C8.65443 37.4392 12.2181 39.344 16.0977 40.1157C19.9773 40.8874 23.9987 40.4913 27.6532 38.9776C31.3077 37.4638 34.4313 34.9004 36.6289 31.6114C38.8265 28.3224 39.9995 24.4556 39.9995 20.5C39.9935 15.1975 37.8844 10.1139 34.135 6.36452C30.3856 2.6151 25.302 0.50603 19.9995 0.5ZM26.5213 11.8043C26.9512 11.8043 27.3715 11.9318 27.729 12.1707C28.0865 12.4096 28.3652 12.7491 28.5297 13.1463C28.6942 13.5436 28.7373 13.9807 28.6534 14.4024C28.5695 14.8241 28.3625 15.2114 28.0584 15.5154C27.7544 15.8195 27.3671 16.0265 26.9454 16.1104C26.5237 16.1943 26.0866 16.1512 25.6893 15.9867C25.2921 15.8222 24.9526 15.5435 24.7137 15.186C24.4748 14.8285 24.3473 14.4082 24.3473 13.9783C24.3473 13.4017 24.5764 12.8488 24.9841 12.4411C25.3918 12.0334 25.9447 11.8043 26.5213 11.8043ZM13.4778 11.8043C13.9077 11.8043 14.328 11.9318 14.6855 12.1707C15.043 12.4096 15.3217 12.7491 15.4862 13.1463C15.6507 13.5436 15.6938 13.9807 15.6099 14.4024C15.526 14.8241 15.319 15.2114 15.015 15.5154C14.7109 15.8195 14.3236 16.0265 13.9019 16.1104C13.4802 16.1943 13.0431 16.1512 12.6459 15.9867C12.2486 15.8222 11.9091 15.5435 11.6702 15.186C11.4314 14.8285 11.3039 14.4082 11.3039 13.9783C11.3039 13.4017 11.5329 12.8488 11.9406 12.4411C12.3483 12.0334 12.9012 11.8043 13.4778 11.8043ZM29.3908 27.1087C29.2734 27.2652 26.447 30.9348 19.9995 30.9348C13.552 30.9348 10.7256 27.2652 10.6082 27.1087C10.4718 26.9244 10.4137 26.6936 10.4466 26.4667C10.4795 26.2397 10.6007 26.0349 10.7839 25.8969C10.967 25.7589 11.1972 25.6988 11.4245 25.7298C11.6517 25.7607 11.8575 25.8801 11.9971 26.0621C12.1017 26.198 14.4726 29.1956 19.9995 29.1956C25.5872 29.1956 27.976 26.0965 27.9995 26.0652C28.1379 25.8807 28.3439 25.7587 28.5722 25.7261C28.8005 25.6935 29.0324 25.7529 29.2169 25.8913C29.4014 26.0297 29.5234 26.2357 29.556 26.464C29.5886 26.6923 29.5292 26.9242 29.3908 27.1087Z"/><path d="M27.7284 12.1706C27.3709 11.9317 26.9506 11.8042 26.5207 11.8042C25.9441 11.8042 25.3912 12.0332 24.9835 12.4409C24.5758 12.8486 24.3467 13.4016 24.3467 13.9781C24.3467 14.4081 24.4742 14.8284 24.7131 15.1859C24.952 15.5434 25.2915 15.822 25.6887 15.9865C26.086 16.1511 26.5231 16.1941 26.9448 16.1103C27.3665 16.0264 27.7538 15.8193 28.0578 15.5153C28.3619 15.2113 28.5689 14.8239 28.6528 14.4022C28.7367 13.9805 28.6936 13.5434 28.5291 13.1462C28.3646 12.749 28.0859 12.4094 27.7284 12.1706Z" fill="#44382A"/><path d="M14.6849 12.1706C14.3274 11.9317 13.9071 11.8042 13.4772 11.8042C12.9006 11.8042 12.3477 12.0332 11.94 12.4409C11.5323 12.8486 11.3033 13.4016 11.3033 13.9781C11.3033 14.4081 11.4308 14.8284 11.6696 15.1859C11.9085 15.5434 12.248 15.822 12.6453 15.9865C13.0425 16.1511 13.4796 16.1941 13.9013 16.1103C14.323 16.0264 14.7103 15.8193 15.0144 15.5153C15.3184 15.2113 15.5254 14.8239 15.6093 14.4022C15.6932 13.9805 15.6502 13.5434 15.4856 13.1462C15.3211 12.749 15.0424 12.4094 14.6849 12.1706Z" fill="#44382A"/><path d="M19.9989 30.9346C26.4464 30.9346 29.2728 27.2651 29.3902 27.1085C29.5286 26.924 29.588 26.6921 29.5554 26.4638C29.5228 26.2355 29.4008 26.0295 29.2163 25.8912C29.0318 25.7528 28.7999 25.6934 28.5716 25.726C28.3433 25.7586 28.1373 25.8806 27.9989 26.0651C27.9754 26.0964 25.5866 29.1955 19.9989 29.1955C14.472 29.1955 12.1011 26.1978 11.9965 26.0619C11.8569 25.88 11.6511 25.7606 11.4239 25.7296C11.1966 25.6987 10.9664 25.7588 10.7833 25.8968C10.6001 26.0348 10.4789 26.2396 10.446 26.4665C10.4131 26.6935 10.4712 26.9242 10.6076 27.1085C10.725 27.2651 13.5514 30.9346 19.9989 30.9346Z" fill="#44382A"/></svg>