<svg width="40" height="40" viewBox="0 0 40 40" xmlns="http://www.w3.org/2000/svg"><path d="M20 0C16.0444 0 12.1776 1.17298 8.8886 3.37061C5.59962 5.56823 3.03617 8.69181 1.52242 12.3463C0.00866579 16.0009 -0.387401 20.0222 0.384303 23.9018C1.15601 27.7814 3.06082 31.3451 5.85787 34.1421C8.65492 36.9392 12.2186 38.844 16.0982 39.6157C19.9778 40.3874 23.9992 39.9913 27.6537 38.4776C31.3082 36.9638 34.4318 34.4004 36.6294 31.1114C38.827 27.8224 40 23.9556 40 20C39.994 14.6975 37.8849 9.61394 34.1355 5.86452C30.3861 2.1151 25.3025 0.00602992 20 0ZM26.5217 11.3043C26.9517 11.3043 27.372 11.4318 27.7295 11.6707C28.087 11.9096 28.3656 12.2491 28.5302 12.6463C28.6947 13.0436 28.7378 13.4807 28.6539 13.9024C28.57 14.3241 28.363 14.7114 28.0589 15.0154C27.7549 15.3195 27.3675 15.5265 26.9459 15.6104C26.5242 15.6943 26.0871 15.6512 25.6898 15.4867C25.2926 15.3222 24.9531 15.0435 24.7142 14.686C24.4753 14.3285 24.3478 13.9082 24.3478 13.4783C24.3478 12.9017 24.5769 12.3488 24.9846 11.9411C25.3922 11.5334 25.9452 11.3043 26.5217 11.3043ZM13.4783 11.3043C13.9082 11.3043 14.3285 11.4318 14.686 11.6707C15.0435 11.9096 15.3222 12.2491 15.4867 12.6463C15.6512 13.0436 15.6943 13.4807 15.6104 13.9024C15.5265 14.3241 15.3195 14.7114 15.0155 15.0154C14.7114 15.3195 14.3241 15.5265 13.9024 15.6104C13.4807 15.6943 13.0436 15.6512 12.6463 15.4867C12.2491 15.3222 11.9096 15.0435 11.6707 14.686C11.4319 14.3285 11.3044 13.9082 11.3044 13.4783C11.3044 12.9017 11.5334 12.3488 11.9411 11.9411C12.3488 11.5334 12.9017 11.3043 13.4783 11.3043ZM20 33.0435C13.7565 33.0435 8.69566 28.8 8.69566 23.5661C8.69566 23.5364 8.70062 23.5078 8.70088 23.4783H31.2991C31.2991 23.5078 31.3044 23.5364 31.3044 23.5661C31.3044 28.8 26.2435 33.0435 20 33.0435Z"/></svg>