<svg xmlns="http://www.w3.org/2000/svg" width="40" height="41" viewBox="0 0 40 41"><path d="M19.9995 0.5C16.0439 0.5 12.1771 1.67298 8.88811 3.87061C5.59913 6.06823 3.03568 9.19181 1.52193 12.8463C0.00817752 16.5009 -0.387889 20.5222 0.383815 24.4018C1.15552 28.2814 3.06033 31.8451 5.85738 34.6421C8.65443 37.4392 12.2181 39.344 16.0977 40.1157C19.9773 40.8874 23.9987 40.4913 27.6532 38.9776C31.3077 37.4638 34.4313 34.9004 36.6289 31.6114C38.8265 28.3224 39.9995 24.4556 39.9995 20.5C39.9935 15.1975 37.8844 10.1139 34.135 6.36452C30.3856 2.6151 25.302 0.50603 19.9995 0.5ZM26.5213 11.8043C26.9512 11.8043 27.3715 11.9318 27.729 12.1707C28.0865 12.4096 28.3652 12.7491 28.5297 13.1463C28.6942 13.5436 28.7373 13.9807 28.6534 14.4024C28.5695 14.8241 28.3625 15.2114 28.0584 15.5154C27.7544 15.8195 27.3671 16.0265 26.9454 16.1104C26.5237 16.1943 26.0866 16.1512 25.6893 15.9867C25.2921 15.8222 24.9526 15.5435 24.7137 15.186C24.4748 14.8285 24.3473 14.4082 24.3473 13.9783C24.3473 13.4017 24.5764 12.8488 24.9841 12.4411C25.3918 12.0334 25.9447 11.8043 26.5213 11.8043ZM13.4778 11.8043C13.9077 11.8043 14.328 11.9318 14.6855 12.1707C15.043 12.4096 15.3217 12.7491 15.4862 13.1463C15.6508 13.5436 15.6938 13.9807 15.6099 14.4024C15.526 14.8241 15.319 15.2114 15.015 15.5154C14.7109 15.8195 14.3236 16.0265 13.9019 16.1104C13.4802 16.1943 13.0431 16.1512 12.6459 15.9867C12.2486 15.8222 11.9091 15.5435 11.6702 15.186C11.4314 14.8285 11.3039 14.4082 11.3039 13.9783C11.3039 13.4017 11.5329 12.8488 11.9406 12.4411C12.3483 12.0334 12.9012 11.8043 13.4778 11.8043ZM19.9995 33.5435C13.756 33.5435 8.69517 29.3 8.69517 24.0661C8.69517 24.0364 8.70013 24.0078 8.70039 23.9783H31.2986C31.2986 24.0078 31.3039 24.0364 31.3039 24.0661C31.3039 29.3 26.243 33.5435 19.9995 33.5435Z"/><path d="M27.7287 12.1708C27.3712 11.9319 26.9509 11.8044 26.5209 11.8044C25.9444 11.8044 25.3914 12.0335 24.9837 12.4412C24.576 12.8489 24.347 13.4018 24.347 13.9784C24.347 14.4083 24.4745 14.8286 24.7134 15.1861C24.9522 15.5436 25.2918 15.8223 25.689 15.9868C26.0862 16.1513 26.5233 16.1944 26.945 16.1105C27.3667 16.0266 27.7541 15.8196 28.0581 15.5155C28.3621 15.2115 28.5692 14.8242 28.653 14.4025C28.7369 13.9808 28.6939 13.5437 28.5293 13.1464C28.3648 12.7492 28.0862 12.4097 27.7287 12.1708Z" fill="#44382A"/><path d="M14.6852 12.1708C14.3277 11.9319 13.9074 11.8044 13.4774 11.8044C12.9009 11.8044 12.3479 12.0335 11.9402 12.4412C11.5326 12.8489 11.3035 13.4018 11.3035 13.9784C11.3035 14.4083 11.431 14.8286 11.6699 15.1861C11.9088 15.5436 12.2483 15.8223 12.6455 15.9868C13.0427 16.1513 13.4798 16.1944 13.9015 16.1105C14.3232 16.0266 14.7106 15.8196 15.0146 15.5155C15.3186 15.2115 15.5257 14.8242 15.6096 14.4025C15.6935 13.9808 15.6504 13.5437 15.4859 13.1464C15.3213 12.7492 15.0427 12.4097 14.6852 12.1708Z" fill="#44382A"/><path d="M8.69482 24.0662C8.69482 29.3001 13.7557 33.5436 19.9992 33.5436C26.2426 33.5436 31.3035 29.3001 31.3035 24.0662C31.3035 24.0365 31.2983 24.0079 31.2983 23.9784H8.70004C8.69978 24.0079 8.69482 24.0365 8.69482 24.0662Z" fill="#44382A"/></svg>