<svg xmlns="http://www.w3.org/2000/svg" width="41" height="41" viewBox="0 0 41 41"><path d="M20.168 0.5C16.2123 0.5 12.3456 1.67298 9.05657 3.87061C5.76759 6.06823 3.20414 9.19181 1.69039 12.8463C0.176635 16.5008 -0.219432 20.5222 0.552272 24.4018C1.32398 28.2814 3.22879 31.8451 6.02584 34.6421C8.82289 37.4392 12.3865 39.344 16.2662 40.1157C20.1458 40.8874 24.1671 40.4913 27.8216 38.9776C31.4762 37.4638 34.5997 34.9004 36.7974 31.6114C38.995 28.3224 40.168 24.4556 40.168 20.5C40.1621 15.1975 38.0531 10.1138 34.3036 6.36437C30.5541 2.61492 25.4705 0.505892 20.168 0.5ZM12.7767 15.2826C13.2066 15.2826 13.6269 15.4101 13.9844 15.649C14.3419 15.8878 14.6206 16.2274 14.7851 16.6246C14.9496 17.0218 14.9927 17.4589 14.9088 17.8806C14.8249 18.3023 14.6179 18.6897 14.3139 18.9937C14.0098 19.2977 13.6225 19.5048 13.2008 19.5887C12.7791 19.6725 12.342 19.6295 11.9447 19.4649C11.5475 19.3004 11.208 19.0218 10.9691 18.6643C10.7303 18.3068 10.6028 17.8865 10.6028 17.4565C10.6028 16.88 10.8318 16.327 11.2395 15.9193C11.6472 15.5116 12.2001 15.2826 12.7767 15.2826ZM29.3854 31.6304C29.2941 31.6991 29.1901 31.7491 29.0795 31.7775C28.9688 31.8059 28.8537 31.8123 28.7406 31.7961C28.6275 31.7799 28.5187 31.7416 28.4204 31.6834C28.3222 31.6251 28.2364 31.548 28.168 31.4565C28.0723 31.3325 25.7028 28.3261 20.168 28.3261C14.5803 28.3261 12.1915 31.4256 12.168 31.4565C12.0296 31.641 11.8236 31.763 11.5953 31.7956C11.367 31.8282 11.1351 31.7688 10.9506 31.6304C10.7661 31.492 10.6441 31.2861 10.6115 31.0577C10.5789 30.8294 10.6383 30.5975 10.7767 30.413C10.8939 30.2565 13.72 26.5869 20.168 26.5869C26.616 26.5869 29.4419 30.2571 29.5593 30.413C29.628 30.5043 29.678 30.6083 29.7064 30.7189C29.7349 30.8296 29.7412 30.9447 29.7251 31.0578C29.7089 31.1709 29.6706 31.2797 29.6123 31.378C29.554 31.4762 29.4769 31.562 29.3854 31.6304ZM27.5593 19.6304C27.1293 19.6304 26.709 19.5029 26.3515 19.2641C25.994 19.0252 25.7154 18.6857 25.5508 18.2884C25.3863 17.8912 25.3433 17.4541 25.4271 17.0324C25.511 16.6107 25.7181 16.2234 26.0221 15.9193C26.3261 15.6153 26.7135 15.4083 27.1352 15.3244C27.5569 15.2405 27.994 15.2835 28.3912 15.4481C28.7884 15.6126 29.1279 15.8913 29.3668 16.2488C29.6057 16.6063 29.7332 17.0266 29.7332 17.4565C29.7332 18.0331 29.5042 18.586 29.0965 18.9937C28.6888 19.4014 28.1358 19.6304 27.5593 19.6304Z"/><path d="M13.9852 15.6491C13.6277 15.4102 13.2074 15.2827 12.7774 15.2827C12.2009 15.2827 11.6479 15.5118 11.2402 15.9194C10.8326 16.3271 10.6035 16.8801 10.6035 17.4566C10.6035 17.8866 10.731 18.3069 10.9699 18.6644C11.2088 19.0219 11.5483 19.3005 11.9455 19.4651C12.3427 19.6296 12.7798 19.6727 13.2015 19.5888C13.6232 19.5049 14.0106 19.2978 14.3146 18.9938C14.6186 18.6898 14.8257 18.3024 14.9096 17.8807C14.9935 17.459 14.9504 17.0219 14.7859 16.6247C14.6213 16.2275 14.3427 15.888 13.9852 15.6491Z" fill="#44382A"/><path d="M29.0802 31.7776C29.1909 31.7492 29.2948 31.6992 29.3861 31.6305C29.4776 31.5621 29.5548 31.4764 29.613 31.3781C29.6713 31.2798 29.7097 31.171 29.7258 31.0579C29.742 30.9448 29.7356 30.8297 29.7072 30.719C29.6788 30.6084 29.6287 30.5044 29.56 30.4131C29.4426 30.2572 26.6167 26.5871 20.1687 26.5871C13.7207 26.5871 10.8946 30.2566 10.7774 30.4131C10.6391 30.5976 10.5796 30.8296 10.6123 31.0579C10.6449 31.2862 10.7668 31.4922 10.9513 31.6305C11.1358 31.7689 11.3678 31.8283 11.5961 31.7957C11.8244 31.7631 12.0304 31.6411 12.1687 31.4566C12.1923 31.4258 14.5811 28.3262 20.1687 28.3262C25.7035 28.3262 28.0731 31.3326 28.1687 31.4566C28.2371 31.5481 28.3229 31.6252 28.4212 31.6835C28.5195 31.7417 28.6282 31.7801 28.7413 31.7962C28.8544 31.8124 28.9696 31.806 29.0802 31.7776Z" fill="#44382A"/><path d="M26.3523 19.2642C26.7098 19.503 27.1301 19.6305 27.56 19.6305C28.1366 19.6305 28.6895 19.4015 29.0972 18.9938C29.5049 18.5861 29.7339 18.0332 29.7339 17.4566C29.7339 17.0267 29.6065 16.6064 29.3676 16.2489C29.1287 15.8914 28.7892 15.6127 28.392 15.4482C27.9947 15.2837 27.5576 15.2406 27.1359 15.3245C26.7142 15.4084 26.3269 15.6154 26.0228 15.9194C25.7188 16.2235 25.5118 16.6108 25.4279 17.0325C25.344 17.4542 25.3871 17.8913 25.5516 18.2885C25.7161 18.6858 25.9948 19.0253 26.3523 19.2642Z" fill="#44382A"/></svg>