<svg width="24" height="24" viewBox="0 0 24 24" xmlns="http://www.w3.org/2000/svg"><g clip-path="url(#clip0_2700_136975)" fill-rule="evenodd" clip-rule="evenodd"><path opacity=".2" d="M19.3398 22.7809H4.66022C2.63679 22.7809 1 21.1441 1 19.1207V4.86645C1 2.85591 2.63679 1.21912 4.66022 1.21912H19.3398C21.3503 1.21912 22.9871 2.85591 22.9871 4.86645V19.1207C22.9871 21.1441 21.3503 22.7809 19.3398 22.7809Z"/><path opacity=".4" d="M22.9869 11.7873V19.1206C22.9869 20.2419 22.4972 21.2343 21.6981 21.9045L12.0192 13.0503C11.7614 13.1277 11.5681 12.8055 11.7743 12.6122L15.6794 9.00348C16.9038 7.86933 18.8241 7.93377 20.1516 9.15814L22.9869 11.7873Z"/><path d="M9.19851 8.06273C8.29634 8.06273 7.54883 7.31522 7.54883 6.40017C7.54883 5.498 8.29634 4.75049 9.19851 4.75049C10.1136 4.75049 10.8482 5.498 10.8482 6.40017C10.8482 7.31522 10.1136 8.06273 9.19851 8.06273Z"/><path d="M9.19718 4.41539C8.83631 4.41539 8.93941 3.87409 8.93941 3.37146C8.93941 3.02348 9.45494 3.02348 9.45494 3.37146C9.45494 3.87409 9.55804 4.41539 9.19718 4.41539Z"/><path d="M10.32 4.7118C10.1267 4.7118 9.99782 4.50559 10.1009 4.32516C10.3458 3.88697 10.5391 3.37144 10.8484 3.55187C11.1578 3.73231 10.7969 4.15762 10.552 4.58292C10.5005 4.67314 10.4102 4.7118 10.32 4.7118Z"/><path d="M11.1448 5.53665C10.8871 5.53665 10.784 5.18867 11.016 5.05979C11.4541 4.80203 11.8795 4.44116 12.0599 4.76336C12.2661 5.12423 11.2222 5.53665 11.1448 5.53665Z"/><path d="M12.2392 6.65794C11.7237 6.65794 11.1953 6.77394 11.1953 6.40018C11.1953 6.03931 11.7237 6.14242 12.2392 6.14242C12.5743 6.14242 12.5743 6.65794 12.2392 6.65794Z"/><path d="M11.8275 8.17871C11.6987 8.17871 11.196 7.8565 11.0156 7.7534C10.732 7.58585 10.9898 7.13477 11.2733 7.30232C11.7115 7.56008 12.24 7.74051 12.0595 8.04983C12.008 8.14004 11.9177 8.17871 11.8275 8.17871Z"/><path d="M10.7186 9.29998C10.4866 9.29998 10.3191 8.8489 10.1 8.48803C9.93242 8.19161 10.3706 7.93385 10.551 8.23027C10.7057 8.50092 11.2986 9.29998 10.7186 9.29998Z"/><path d="M9.19718 9.69955C8.83631 9.69955 8.93941 9.17114 8.93941 8.65561C8.93941 8.32052 9.45494 8.32052 9.45494 8.65561C9.45494 9.15825 9.55804 9.69955 9.19718 9.69955Z"/><path d="M7.67744 9.29994C7.48412 9.29994 7.35524 9.08084 7.45835 8.9133C7.70322 8.4751 7.89654 7.94669 8.20586 8.12712C8.51517 8.30756 8.15431 8.73286 7.90943 9.17106C7.85788 9.24839 7.76766 9.29994 7.67744 9.29994Z"/><path d="M6.56866 8.17874C6.3109 8.17874 6.2078 7.83076 6.43978 7.70188C6.87798 7.44412 7.2904 7.09614 7.47083 7.40545C7.66415 7.71477 7.13574 7.8952 6.69754 8.15296C6.65888 8.16585 6.60733 8.17874 6.56866 8.17874Z"/><path d="M6.95526 6.65794C6.43974 6.65794 5.89844 6.77394 5.89844 6.40018C5.89844 6.03931 6.43974 6.14242 6.95526 6.14242C7.29035 6.14242 7.29035 6.65794 6.95526 6.65794Z"/><path d="M7.25182 5.53662C7.12294 5.53662 6.60741 5.21441 6.43987 5.11131C6.14344 4.94376 6.4012 4.49268 6.69763 4.66023C7.13582 4.91799 7.65135 5.09842 7.47092 5.40774C7.43225 5.49795 7.34203 5.53662 7.25182 5.53662Z"/><path d="M8.07602 4.71185C7.84403 4.71185 7.6636 4.27365 7.45739 3.8999C7.28984 3.61636 7.72804 3.34571 7.90847 3.64213C8.06313 3.91278 8.65598 4.71185 8.07602 4.71185Z"/><path d="M19.3398 22.781H4.66022C2.63679 22.781 1 21.1442 1 19.1208V16.7751L6.65788 11.5425C7.88225 10.4084 9.80258 10.4728 11.1301 11.6972L21.9303 21.6984C21.273 22.3686 20.3579 22.781 19.3398 22.781Z"/></g><defs><clipPath id="clip0_2700_136975"><path transform="translate(1 1)" d="M0 0H22V22H0z"/></clipPath></defs></svg>