<svg width="24" height="24" viewBox="0 0 24 24" xmlns="http://www.w3.org/2000/svg"><g clip-path="url(#clip0_2160_28192)" fill-rule="evenodd" clip-rule="evenodd"><path d="M19.3398 22.781H4.66022C2.63679 22.781 1 21.1443 1 19.1208V4.86657C1 2.85603 2.63679 1.21924 4.66022 1.21924H19.3398C21.3503 1.21924 22.9871 2.85603 22.9871 4.86657V19.1208C22.9871 21.1443 21.3503 22.781 19.3398 22.781Z"/><path d="M22.9869 11.7877V19.121C22.9869 20.2423 22.4972 21.2347 21.6981 21.9048L12.0192 13.0507C11.7614 13.128 11.5681 12.8058 11.7743 12.6125L15.6794 9.00385C16.9038 7.8697 18.8241 7.93414 20.1516 9.15851L22.9869 11.7877Z" fill="#B5BBC2"/><path d="M9.19851 8.06273C8.29634 8.06273 7.54883 7.31522 7.54883 6.40017C7.54883 5.498 8.29634 4.75049 9.19851 4.75049C10.1136 4.75049 10.8482 5.498 10.8482 6.40017C10.8482 7.31522 10.1136 8.06273 9.19851 8.06273Z" fill="#9198A4"/><path d="M9.19718 4.41527C8.83631 4.41527 8.93941 3.87397 8.93941 3.37134C8.93941 3.02336 9.45494 3.02336 9.45494 3.37134C9.45494 3.87397 9.55804 4.41527 9.19718 4.41527Z" fill="#9198A4"/><path d="M10.32 4.71156C10.1267 4.71156 9.99782 4.50535 10.1009 4.32492C10.3458 3.88672 10.5391 3.3712 10.8484 3.55163C11.1578 3.73206 10.7969 4.15737 10.552 4.58268C10.5005 4.6729 10.4102 4.71156 10.32 4.71156Z" fill="#9198A4"/><path d="M11.1448 5.53677C10.8871 5.53677 10.784 5.18879 11.016 5.05991C11.4541 4.80215 11.8795 4.44128 12.0599 4.76348C12.2661 5.12435 11.2222 5.53677 11.1448 5.53677Z" fill="#9198A4"/><path d="M12.2392 6.65758C11.7237 6.65758 11.1953 6.77357 11.1953 6.39981C11.1953 6.03895 11.7237 6.14205 12.2392 6.14205C12.5743 6.14205 12.5743 6.65758 12.2392 6.65758Z" fill="#9198A4"/><path d="M11.8275 8.17871C11.6987 8.17871 11.196 7.8565 11.0156 7.7534C10.732 7.58585 10.9898 7.13477 11.2733 7.30232C11.7115 7.56008 12.24 7.74051 12.0595 8.04983C12.008 8.14004 11.9177 8.17871 11.8275 8.17871Z" fill="#9198A4"/><path d="M10.7186 9.30011C10.4866 9.30011 10.3191 8.84902 10.1 8.48816C9.93242 8.19173 10.3706 7.93397 10.551 8.23039C10.7057 8.50104 11.2986 9.30011 10.7186 9.30011Z" fill="#9198A4"/><path d="M9.19718 9.69955C8.83631 9.69955 8.93941 9.17114 8.93941 8.65561C8.93941 8.32052 9.45494 8.32052 9.45494 8.65561C9.45494 9.15825 9.55804 9.69955 9.19718 9.69955Z" fill="#9198A4"/><path d="M7.67744 9.29994C7.48412 9.29994 7.35524 9.08084 7.45835 8.9133C7.70322 8.4751 7.89654 7.94669 8.20586 8.12712C8.51517 8.30756 8.15431 8.73286 7.90943 9.17106C7.85788 9.24839 7.76766 9.29994 7.67744 9.29994Z" fill="#9198A4"/><path d="M6.56866 8.17862C6.3109 8.17862 6.2078 7.83064 6.43978 7.70176C6.87798 7.44399 7.2904 7.09602 7.47083 7.40533C7.66415 7.71464 7.13574 7.89508 6.69754 8.15284C6.65888 8.16573 6.60733 8.17862 6.56866 8.17862Z" fill="#9198A4"/><path d="M6.95526 6.65758C6.43974 6.65758 5.89844 6.77357 5.89844 6.39981C5.89844 6.03895 6.43974 6.14205 6.95526 6.14205C7.29035 6.14205 7.29035 6.65758 6.95526 6.65758Z" fill="#9198A4"/><path d="M7.25182 5.53662C7.12294 5.53662 6.60741 5.21441 6.43987 5.11131C6.14344 4.94376 6.4012 4.49268 6.69763 4.66023C7.13582 4.91799 7.65135 5.09842 7.47092 5.40774C7.43225 5.49795 7.34203 5.53662 7.25182 5.53662Z" fill="#9198A4"/><path d="M8.07602 4.7116C7.84403 4.7116 7.6636 4.27341 7.45739 3.89965C7.28984 3.61611 7.72804 3.34546 7.90847 3.64189C8.06313 3.91254 8.65598 4.7116 8.07602 4.7116Z" fill="#9198A4"/><path d="M19.3398 22.7809H4.66022C2.63679 22.7809 1 21.1441 1 19.1206V16.775L6.65788 11.5424C7.88225 10.4083 9.80258 10.4727 11.1301 11.6971L21.9303 21.6983C21.273 22.3684 20.3579 22.7809 19.3398 22.7809Z" fill="#9198A4"/></g><defs><clipPath id="clip0_2160_28192"><path fill="#fff" transform="translate(1 1)" d="M0 0H22V22H0z"/></clipPath></defs></svg>