<svg width="20" height="20" viewBox="0 0 20 20" xmlns="http://www.w3.org/2000/svg">
<path d="M0 4.16675C0 3.50371 0.263392 2.86782 0.732233 2.39898C1.20107 1.93014 1.83696 1.66675 2.5 1.66675H17.5C18.163 1.66675 18.7989 1.93014 19.2678 2.39898C19.7366 2.86782 20 3.50371 20 4.16675V16.6667C20 17.3298 19.7366 17.9657 19.2678 18.4345C18.7989 18.9034 18.163 19.1667 17.5 19.1667H2.5C1.83696 19.1667 1.20107 18.9034 0.732233 18.4345C0.263392 17.9657 0 17.3298 0 16.6667V4.16675ZM1.25 15.4167V16.6667C1.25 16.9983 1.3817 17.3162 1.61612 17.5506C1.85054 17.7851 2.16848 17.9167 2.5 17.9167H17.5C17.8315 17.9167 18.1495 17.7851 18.3839 17.5506C18.6183 17.3162 18.75 16.9983 18.75 16.6667V12.2917L14.0288 9.858C13.9115 9.79928 13.7788 9.77891 13.6494 9.79977C13.5199 9.82063 13.4003 9.88167 13.3075 9.97425L8.67 14.6117L5.345 12.3967C5.22495 12.3168 5.08095 12.2809 4.93742 12.295C4.79389 12.3091 4.65967 12.3725 4.5575 12.4742L1.25 15.4167ZM7.5 7.29175C7.5 6.79447 7.30246 6.31755 6.95083 5.96592C6.59919 5.61429 6.12228 5.41675 5.625 5.41675C5.12772 5.41675 4.65081 5.61429 4.29917 5.96592C3.94754 6.31755 3.75 6.79447 3.75 7.29175C3.75 7.78903 3.94754 8.26594 4.29917 8.61757C4.65081 8.9692 5.12772 9.16675 5.625 9.16675C6.12228 9.16675 6.59919 8.9692 6.95083 8.61757C7.30246 8.26594 7.5 7.78903 7.5 7.29175Z">
</svg>
