<svg width="20" height="20" viewBox="0 0 20 20" fill="none" xmlns="http://www.w3.org/2000/svg"><path d="M15.2959 15.0023L13.6909 11.7998L12.0859 15.0023" stroke="#000" stroke-linecap="round" stroke-linejoin="round"/><path d="M12.3789 14.4324H15.0189" stroke="#000" stroke-linecap="round" stroke-linejoin="round"/><path d="M13.6889 17.5001C11.5889 17.5001 9.87891 15.7976 9.87891 13.6901C9.87891 11.5901 11.5814 9.88013 13.6889 9.88013C15.7889 9.88013 17.4989 11.5826 17.4989 13.6901C17.4989 15.7976 15.7964 17.5001 13.6889 17.5001Z" stroke="#000" stroke-linecap="round" stroke-linejoin="round"/><path d="M4.765 2.5H7.705C9.2575 2.5 10.0075 3.25002 9.97 4.76502V7.705C10.0075 9.2575 9.2575 10.0075 7.705 9.97H4.765C3.25 10 2.5 9.25 2.5 7.69749V4.75751C2.5 3.25001 3.25 2.5 4.765 2.5Z" stroke="#000" stroke-linecap="round" stroke-linejoin="round"/><path d="M7.75594 5.38745H4.71094" stroke="#000" stroke-linecap="round" stroke-linejoin="round"/><path d="M6.22656 4.87744V5.38743" stroke="#000" stroke-linecap="round" stroke-linejoin="round"/><path d="M6.99063 5.37988C6.99063 6.69238 5.96313 7.75738 4.70312 7.75738" stroke="#000" stroke-linecap="round" stroke-linejoin="round"/><path d="M7.75859 7.75751C7.21109 7.75751 6.71609 7.465 6.37109 7" stroke="#000" stroke-linecap="round" stroke-linejoin="round"/><path d="M2.5 12.25C2.5 15.1525 4.8475 17.5 7.75 17.5L6.9625 16.1875" stroke="#000" stroke-linecap="round" stroke-linejoin="round"/><path d="M17.5 7.75C17.5 4.8475 15.1525 2.5 12.25 2.5L13.0375 3.8125" stroke="#000" stroke-linecap="round" stroke-linejoin="round"/></svg>