<svg width="24" height="24" viewBox="0 0 24 24" xmlns="http://www.w3.org/2000/svg"><path d="M5.09363 9.06445H2.15311C1.74714 9.06445 1.41797 9.39358 1.41797 9.79959V21.5615C1.41797 21.9675 1.7471 22.2966 2.15311 22.2966H5.09358C5.49955 22.2966 5.82873 21.9675 5.82873 21.5615V9.79955C5.82873 9.39358 5.49965 9.06445 5.09363 9.06445Z"/><path d="M23.127 11.0088C23.0033 9.86909 21.9871 9.06129 20.8923 9.06129H15.4249C15.8895 8.18966 16.1389 5.72433 16.1279 4.71725C16.1095 3.05023 14.7918 1.71436 13.2006 1.71436H12.6219C12.2343 1.71436 11.9206 2.04295 11.9206 2.44907C11.9206 4.148 11.2891 7.21454 10.0982 8.46223C9.29667 9.30199 8.61142 9.60629 7.71289 10.0767V21.1008C9.08857 21.5811 10.8352 22.2858 13.4975 22.2858H18.0849C19.5965 22.2858 20.7737 20.8191 20.188 19.2696C21.0804 19.0149 21.7384 18.1575 21.7384 17.1429C21.7384 16.8566 21.6857 16.5826 21.5905 16.3307C23.0943 15.9015 23.6479 13.9562 22.6041 12.7348C22.9876 12.286 23.199 11.6721 23.127 11.0088Z"/></svg>