<svg width="18" height="18" viewBox="0 0 18 18" xmlns="http://www.w3.org/2000/svg"><path d="M16.8375 9.90492C16.9029 10.2977 16.9356 10.6905 16.8702 11.0832C16.8047 11.5087 16.7065 11.8688 16.5101 12.1633C16.5756 12.5561 16.5429 12.9489 16.4447 13.3416C16.3138 13.7344 16.1501 14.0944 15.921 14.3563C15.921 15.2727 15.6919 15.9928 15.1682 16.5165C14.6445 17.0402 13.8917 17.302 12.9425 17.302H11.6005C10.9459 17.302 10.2259 17.2039 9.44032 17.0075C8.9821 16.9093 8.32748 16.7129 7.54195 16.4183L6.56003 16.091C6.23272 16.0256 6.0036 15.9601 5.80722 15.9601V16.2547C5.80722 16.5492 5.6763 16.8111 5.47991 17.0075C5.28353 17.2039 5.02168 17.302 4.75984 17.302H1.61769C1.32312 17.302 1.06127 17.2039 0.864889 17.0075C0.668505 16.8111 0.570312 16.5492 0.570312 16.2547V7.87562C0.570312 7.61377 0.668505 7.35193 0.864889 7.15554C1.06127 6.95916 1.32312 6.82823 1.61769 6.82823H4.75984C5.11988 6.82823 5.41445 6.99189 5.61084 7.28646C5.70903 7.28646 5.80722 7.25373 5.87268 7.221C6.06907 7.12281 6.29818 6.8937 6.62549 6.53366C6.82187 6.33727 7.11645 5.97724 7.50922 5.45355C7.96744 4.79893 8.32748 4.37343 8.5566 4.17705C8.68752 4.04613 8.78571 3.84974 8.8839 3.55517C8.94936 3.39151 9.01483 3.12967 9.08029 2.7369C9.34213 1.29675 9.86582 0.543945 10.6186 0.543945C11.5351 0.543945 12.2224 0.805791 12.6807 1.32948C13.1062 1.85317 13.3353 2.60598 13.3353 3.5879C13.3353 4.0134 13.2698 4.4389 13.1389 4.83166C13.0407 5.09351 12.9098 5.38808 12.7134 5.78085L12.6479 5.87905H14.9391C15.5937 5.87905 16.1501 6.14089 16.6083 6.59912C17.0666 7.09008 17.3284 7.6465 17.3284 8.30112C17.3284 8.95573 17.1648 9.47942 16.8375 9.90492ZM1.61769 16.2547H4.75984V7.87562H1.61769V16.2547ZM15.4955 9.57761C15.7573 9.51215 15.9537 9.38123 16.0847 9.11938C16.2156 8.89027 16.281 8.59569 16.281 8.26838C16.281 7.94108 16.1501 7.61377 15.8883 7.35193C15.6264 7.09008 15.2991 6.92643 14.9391 6.92643H11.2732C11.2732 6.63185 11.306 6.33727 11.4369 6.0427C11.5024 5.87905 11.6005 5.6172 11.7642 5.28989C11.9279 4.96259 12.0588 4.70074 12.1242 4.50436C12.2224 4.20978 12.2879 3.9152 12.2879 3.5879C12.2879 2.99875 12.1897 2.54052 12.0588 2.27867C11.7969 1.82044 11.3387 1.59133 10.6186 1.59133C10.4877 1.72225 10.3568 1.91863 10.2913 2.18048C10.2259 2.34413 10.1604 2.60598 10.0949 2.93328C9.99675 3.42424 9.93128 3.78428 9.86582 3.98067C9.70217 4.37343 9.50579 4.70074 9.27667 4.92986C9.04756 5.15897 8.68752 5.58447 8.22929 6.20635C7.7056 6.8937 7.31283 7.35193 7.05099 7.61377C6.59276 8.072 6.16726 8.26838 5.80722 8.26838V14.9127C6.06907 14.9127 6.39637 14.9782 6.78914 15.0764C7.01826 15.1418 7.41102 15.2727 7.96744 15.4691C8.68752 15.731 9.27667 15.8946 9.66944 15.9928C10.3568 16.1892 11.0114 16.2547 11.6005 16.2547H12.9425C13.5971 16.2547 14.1208 16.091 14.4481 15.731C14.8082 15.3382 14.9391 14.7491 14.8082 13.9308C15.1027 13.7999 15.2991 13.5053 15.43 13.0798C15.561 12.6543 15.4955 12.2615 15.2991 11.9015C15.5282 11.8033 15.6919 11.5742 15.7901 11.2469C15.8555 10.9196 15.8883 10.5923 15.8228 10.265C15.7573 9.93765 15.6592 9.70853 15.4955 9.57761ZM3.9743 14.6836C3.9743 14.4872 3.87611 14.2908 3.74519 14.1272C3.58153 13.9963 3.38515 13.8981 3.18877 13.8981C2.95965 13.8981 2.76327 13.9963 2.63234 14.1272C2.46869 14.2908 2.40323 14.4872 2.40323 14.6836C2.40323 14.9127 2.46869 15.1091 2.63234 15.24C2.76327 15.4037 2.95965 15.4691 3.18877 15.4691C3.38515 15.4691 3.58153 15.4037 3.74519 15.24C3.87611 15.1091 3.9743 14.9127 3.9743 14.6836Z"/></svg>