<svg width="33" height="32" viewBox="0 0 33 32" xmlns="http://www.w3.org/2000/svg"><path d="M20.2382 6.77152C21.8003 5.20943 24.333 5.20943 25.8951 6.77152C27.4572 8.33362 27.4572 10.8663 25.8951 12.4284L23.9362 14.3873C23.4675 14.8559 23.4675 15.6157 23.9362 16.0844C24.4048 16.553 25.1646 16.553 25.6332 16.0844L27.5921 14.1254C30.0915 11.6261 30.0915 7.57382 27.5921 5.07447C25.0928 2.57511 21.0405 2.57511 18.5412 5.07447L13.7412 9.87447C11.2418 12.3738 11.2418 16.4261 13.7412 18.9254C13.8579 19.0421 13.9781 19.1535 14.1016 19.2595C14.6044 19.6912 15.362 19.6336 15.7937 19.1307C16.2255 18.6279 16.1678 17.8703 15.665 17.4386C15.5876 17.3721 15.5119 17.302 15.4382 17.2284C13.8761 15.6663 13.8761 13.1336 15.4382 11.5715L20.2382 6.77152Z"/><path d="M19.2318 12.7404C18.729 12.3087 17.9713 12.3663 17.5396 12.8691C17.1079 13.372 17.1655 14.1296 17.6683 14.5613C17.7458 14.6278 17.8214 14.6978 17.8951 14.7715C19.4572 16.3336 19.4572 18.8663 17.8951 20.4284L13.0951 25.2284C11.533 26.7905 9.00034 26.7905 7.43824 25.2284C5.87614 23.6663 5.87614 21.1336 7.43824 19.5715L9.39718 17.6126C9.86581 17.1439 9.86581 16.3841 9.39718 15.9155C8.92855 15.4469 8.16875 15.4469 7.70012 15.9155L5.74119 17.8744C3.24183 20.3738 3.24183 24.4261 5.74119 26.9254C8.24054 29.4248 12.2928 29.4248 14.7922 26.9254L19.5922 22.1254C22.0915 19.6261 22.0915 15.5738 19.5922 13.0744C19.4755 12.9578 19.3553 12.8464 19.2318 12.7404Z"/></svg>