<svg width="19" height="18" viewBox="0 0 19 18" xmlns="http://www.w3.org/2000/svg"><g clip-path="url(#clip0_2630_81656)"><path fill-rule="evenodd" clip-rule="evenodd" d="M6.5 2.0625C6.5 1.91332 6.55926 1.77024 6.66475 1.66475C6.77024 1.55926 6.91332 1.5 7.0625 1.5C8.03225 1.5 8.83212 1.82287 9.38 2.13675C9.57575 2.24812 9.74113 2.3595 9.875 2.4585C10.0089 2.3595 10.1742 2.24812 10.37 2.13675C11.074 1.72662 11.8728 1.50715 12.6875 1.5C12.8367 1.5 12.9798 1.55926 13.0852 1.66475C13.1907 1.77024 13.25 1.91332 13.25 2.0625C13.25 2.21168 13.1907 2.35476 13.0852 2.46025C12.9798 2.56574 12.8367 2.625 12.6875 2.625C11.9697 2.625 11.3634 2.86462 10.928 3.11325C10.7564 3.21101 10.5924 3.32157 10.4375 3.444V8.25H11C11.1492 8.25 11.2923 8.30926 11.3977 8.41475C11.5032 8.52024 11.5625 8.66332 11.5625 8.8125C11.5625 8.96168 11.5032 9.10476 11.3977 9.21025C11.2923 9.31574 11.1492 9.375 11 9.375H10.4375V14.181C10.55 14.271 10.7165 14.3914 10.928 14.5118C11.3634 14.7604 11.9697 15 12.6875 15C12.8367 15 12.9798 15.0593 13.0852 15.1648C13.1907 15.2702 13.25 15.4133 13.25 15.5625C13.25 15.7117 13.1907 15.8548 13.0852 15.9602C12.9798 16.0657 12.8367 16.125 12.6875 16.125C11.8728 16.1178 11.074 15.8984 10.37 15.4882C10.199 15.3913 10.0337 15.2846 9.875 15.1687C9.71628 15.285 9.55101 15.3921 9.38 15.4894C8.676 15.8995 7.87722 16.119 7.0625 16.1261C6.91332 16.1261 6.77024 16.0669 6.66475 15.9614C6.55926 15.8559 6.5 15.7128 6.5 15.5636C6.5 15.4144 6.55926 15.2714 6.66475 15.1659C6.77024 15.0604 6.91332 15.0011 7.0625 15.0011C7.78025 15.0011 8.38663 14.7615 8.822 14.5129C9.0335 14.3925 9.19887 14.2721 9.3125 14.1821V9.375H8.75C8.60082 9.375 8.45774 9.31574 8.35225 9.21025C8.24676 9.10476 8.1875 8.96168 8.1875 8.8125C8.1875 8.66332 8.24676 8.52024 8.35225 8.41475C8.45774 8.30926 8.60082 8.25 8.75 8.25H9.3125V3.444C9.15755 3.32157 8.99359 3.21101 8.822 3.11325C8.28789 2.80037 7.68146 2.63209 7.0625 2.625C6.91332 2.625 6.77024 2.56574 6.66475 2.46025C6.55926 2.35476 6.5 2.21168 6.5 2.0625Z"/><path d="M11.75 5.625H16.25C16.5484 5.625 16.8345 5.74353 17.0455 5.95451C17.2565 6.16548 17.375 6.45163 17.375 6.75V11.25C17.375 11.5484 17.2565 11.8345 17.0455 12.0455C16.8345 12.2565 16.5484 12.375 16.25 12.375H11.75V13.5H16.25C16.8467 13.5 17.419 13.2629 17.841 12.841C18.2629 12.419 18.5 11.8467 18.5 11.25V6.75C18.5 6.15326 18.2629 5.58097 17.841 5.15901C17.419 4.73705 16.8467 4.5 16.25 4.5H11.75V5.625ZM7.25 5.625V4.5H2.75C2.15326 4.5 1.58097 4.73705 1.15901 5.15901C0.737053 5.58097 0.5 6.15326 0.5 6.75L0.5 11.25C0.5 11.8467 0.737053 12.419 1.15901 12.841C1.58097 13.2629 2.15326 13.5 2.75 13.5H7.25V12.375H2.75C2.45163 12.375 2.16548 12.2565 1.9545 12.0455C1.74353 11.8345 1.625 11.5484 1.625 11.25V6.75C1.625 6.45163 1.74353 6.16548 1.9545 5.95451C2.16548 5.74353 2.45163 5.625 2.75 5.625H7.25Z"/></g><defs><clipPath id="clip0_2630_81656"><path fill="#fff" transform="translate(.5)" d="M0 0H18V18H0z"/></clipPath></defs></svg>