<svg width="40" height="40" viewBox="0 0 40 40" xmlns="http://www.w3.org/2000/svg"><path id="Vector" d="M30.7837 28.05L31.4337 33.3167C31.6003 34.7 30.117 35.6667 28.9337 34.95L23.167 31.5167C22.767 31.2833 22.667 30.7833 22.8837 30.3833C23.717 28.85 24.167 27.1167 24.167 25.3833C24.167 19.2833 18.9337 14.3167 12.5003 14.3167C11.1836 14.3167 9.90031 14.5167 8.70031 14.9167C8.08364 15.1167 7.48364 14.55 7.63364 13.9167C9.15031 7.85 14.9836 3.33334 21.9503 3.33334C30.0837 3.33334 36.667 9.48334 36.667 17.0667C36.667 21.5667 34.3503 25.55 30.7837 28.05Z"/><path id="Vector_2" d="M21.6663 25.383C21.6663 27.3663 20.933 29.1997 19.6997 30.6497C18.0497 32.6497 15.433 33.933 12.4997 33.933L8.14967 36.5163C7.41634 36.9663 6.48301 36.3497 6.58301 35.4997L6.99967 32.2163C4.76634 30.6663 3.33301 28.183 3.33301 25.383C3.33301 22.4497 4.89967 19.8663 7.29967 18.333C8.78301 17.3663 10.5663 16.8163 12.4997 16.8163C17.5663 16.8163 21.6663 20.6497 21.6663 25.383Z"/></svg>