<svg width="40" height="40" viewBox="0 0 40 40" xmlns="http://www.w3.org/2000/svg"><g id="email/message-remove"><path id="Vector" d="M13.2837 24.7167C12.0837 23.35 10.3003 22.5 8.33366 22.5C4.65033 22.5 1.66699 25.4833 1.66699 29.1667C1.66699 30.4167 2.01699 31.6 2.63366 32.6C2.96699 33.1667 3.40033 33.6833 3.90033 34.1167C5.06699 35.1833 6.61699 35.8333 8.33366 35.8333C10.767 35.8333 12.8837 34.5333 14.0337 32.6C14.6503 31.6 15.0003 30.4167 15.0003 29.1667C15.0003 27.4667 14.3503 25.9 13.2837 24.7167ZM11.0003 31.8C10.7503 32.05 10.4337 32.1667 10.117 32.1667C9.80033 32.1667 9.48366 32.05 9.23366 31.8L8.35033 30.9167L7.43366 31.8333C7.18366 32.0833 6.86699 32.2 6.55033 32.2C6.23366 32.2 5.91699 32.0833 5.66699 31.8333C5.18366 31.35 5.18366 30.55 5.66699 30.0667L6.58366 29.15L5.70033 28.2667C5.21699 27.7833 5.21699 26.9833 5.70033 26.5C6.18366 26.0167 6.98366 26.0167 7.46699 26.5L8.35033 27.3833L9.18366 26.55C9.66699 26.0667 10.467 26.0667 10.9503 26.55C11.4337 27.0333 11.4337 27.8333 10.9503 28.3167L10.117 29.15L11.0003 30.0333C11.4837 30.5167 11.4837 31.3 11.0003 31.8Z"/><path id="Vector_2" d="M28.75 4.04948H12.9167C8.16667 4.04948 5 7.21615 5 11.9662V19.3995C5 19.9828 5.6 20.3995 6.16667 20.2495C6.86667 20.0828 7.58333 19.9995 8.33333 19.9995C13.1 19.9995 17.0333 23.8662 17.4667 28.5495C17.5 29.0162 17.8833 29.3828 18.3333 29.3828H19.25L26.3 34.0828C27.3333 34.7828 28.75 34.0162 28.75 32.7495V29.3828C31.1167 29.3828 33.1 28.5828 34.4833 27.2162C35.8667 25.8162 36.6667 23.8328 36.6667 21.4662V11.9662C36.6667 7.21615 33.5 4.04948 28.75 4.04948ZM26.3833 18.0162H15.2833C14.6333 18.0162 14.1 17.4828 14.1 16.8328C14.1 16.1662 14.6333 15.6328 15.2833 15.6328H26.3833C27.0333 15.6328 27.5667 16.1662 27.5667 16.8328C27.5667 17.4828 27.0333 18.0162 26.3833 18.0162Z"/></g></svg>