<svg width="40" height="40" viewBox="0 0 40 40" xmlns="http://www.w3.org/2000/svg"><g id="email/message-tick"><path id="Vector" d="M8.33366 22.5C4.65033 22.5 1.66699 25.4833 1.66699 29.1667C1.66699 30.4167 2.01699 31.6 2.63366 32.6C3.78366 34.5333 5.90033 35.8333 8.33366 35.8333C10.767 35.8333 12.8837 34.5333 14.0337 32.6C14.6503 31.6 15.0003 30.4167 15.0003 29.1667C15.0003 25.4833 12.017 22.5 8.33366 22.5ZM11.617 28.6167L8.06699 31.9C7.83366 32.1167 7.51699 32.2333 7.21699 32.2333C6.90033 32.2333 6.58366 32.1167 6.33366 31.8667L4.68366 30.2167C4.20033 29.7333 4.20033 28.9333 4.68366 28.45C5.16699 27.9667 5.96699 27.9667 6.45033 28.45L7.25033 29.25L9.91699 26.7833C10.417 26.3167 11.217 26.35 11.6837 26.85C12.1503 27.35 12.117 28.15 11.617 28.6167Z"/><path id="Vector_2" d="M28.75 4.04948H12.9167C8.16667 4.04948 5 7.21615 5 11.9662V19.3995C5 19.9828 5.6 20.3995 6.16667 20.2495C6.86667 20.0828 7.58333 19.9995 8.33333 19.9995C13.1 19.9995 17.0333 23.8662 17.4667 28.5495C17.5 29.0162 17.8833 29.3828 18.3333 29.3828H19.25L26.3 34.0828C27.3333 34.7828 28.75 34.0162 28.75 32.7495V29.3828C31.1167 29.3828 33.1 28.5828 34.4833 27.2162C35.8667 25.8162 36.6667 23.8328 36.6667 21.4662V11.9662C36.6667 7.21615 33.5 4.04948 28.75 4.04948ZM26.3833 18.0162H15.2833C14.6333 18.0162 14.1 17.4828 14.1 16.8328C14.1 16.1662 14.6333 15.6328 15.2833 15.6328H26.3833C27.0333 15.6328 27.5667 16.1662 27.5667 16.8328C27.5667 17.4828 27.0333 18.0162 26.3833 18.0162Z"/></g></svg>