<svg width="36" height="36" viewBox="0 0 36 36" xmlns="http://www.w3.org/2000/svg"><g id="email/message-add"><path id="Vector" d="M7.815 20.2676C6.18 20.1626 4.5 20.7626 3.255 22.0076C0.915 24.3476 0.915 28.1426 3.255 30.4976C4.05 31.2926 5.025 31.8176 6.06 32.0726C6.63 32.2226 7.23 32.2676 7.83 32.2376C9.255 32.1776 10.65 31.6076 11.745 30.5126C13.29 28.9676 13.815 26.7926 13.32 24.8276C13.08 23.7926 12.54 22.8176 11.745 22.0226C10.665 20.9276 9.255 20.3426 7.815 20.2676ZM10.86 26.2226C10.86 26.5376 10.74 26.8076 10.53 27.0176C10.32 27.2276 10.05 27.3476 9.735 27.3476H8.625V28.5176C8.625 28.8326 8.505 29.1026 8.295 29.3126C8.085 29.5226 7.815 29.6426 7.5 29.6426C6.885 29.6426 6.375 29.1326 6.375 28.5176V27.3476H5.25C4.635 27.3476 4.125 26.8376 4.125 26.2226C4.125 25.6076 4.635 25.0976 5.25 25.0976H6.375V24.0326C6.375 23.4176 6.885 22.9076 7.5 22.9076C8.115 22.9076 8.625 23.4176 8.625 24.0326V25.0976H9.735C10.365 25.0976 10.86 25.6076 10.86 26.2226Z"/><path id="Vector_2" d="M25.875 3.64453H11.625C7.35 3.64453 4.5 6.49453 4.5 10.7695V17.4595C4.5 17.9845 5.04 18.3595 5.55 18.2245C6.18 18.0745 6.825 17.9995 7.5 17.9995C11.79 17.9995 15.33 21.4795 15.72 25.6945C15.75 26.1145 16.095 26.4445 16.5 26.4445H17.325L23.67 30.6745C24.6 31.3045 25.875 30.6145 25.875 29.4745V26.4445C28.005 26.4445 29.79 25.7245 31.035 24.4945C32.28 23.2345 33 21.4495 33 19.3195V10.7695C33 6.49453 30.15 3.64453 25.875 3.64453ZM23.745 16.2145H13.755C13.17 16.2145 12.69 15.7345 12.69 15.1495C12.69 14.5495 13.17 14.0695 13.755 14.0695H23.745C24.33 14.0695 24.81 14.5495 24.81 15.1495C24.81 15.7345 24.33 16.2145 23.745 16.2145Z"/></g></svg>