<svg xmlns="http://www.w3.org/2000/svg" width="16" height="16" viewBox="0 0 16 16"><g clip-path="url(#clip0_8632_57967)" fill-rule="evenodd" clip-rule="evenodd"><path d="M4.11826 4.08818C3.93779 4.08818 3.77658 4.09521 3.62896 4.11367C3.62175 4.11457 3.61451 4.11533 3.60726 4.11595C2.70714 4.19292 2.1101 4.48833 1.7295 4.93606C1.3428 5.39097 1.10935 6.08532 1.10935 7.09742V10.0769C1.10935 11.5186 1.4026 12.2007 1.81099 12.5573C2.23814 12.9304 2.93951 13.0861 4.11826 13.0861H4.41616C4.61181 13.0861 4.79421 13.1484 4.93158 13.2179C5.0693 13.2875 5.22288 13.3951 5.33653 13.5438L5.3397 13.5479L6.23418 14.7407C6.34293 14.8864 6.44534 14.9129 6.50154 14.9129C6.55774 14.9129 6.66016 14.8864 6.76891 14.7407L7.66339 13.5479C7.8806 13.2583 8.22491 13.0861 8.58692 13.0861H8.88483C9.89775 13.0861 10.5919 12.8541 11.0463 12.4684C11.4934 12.089 11.7889 11.4924 11.866 10.5881C11.8666 10.5808 11.8673 10.5735 11.8683 10.5662C11.8867 10.4186 11.8937 10.2574 11.8937 10.0769V7.09742C11.8937 5.99593 11.6179 5.27093 11.1645 4.81746C10.7111 4.364 9.9862 4.08818 8.88483 4.08818H4.11826ZM3.50141 3.00364C3.70766 2.97849 3.91507 2.97089 4.11826 2.97089H8.88483C10.1593 2.97089 11.2181 3.29096 11.9545 4.02742C12.6909 4.76387 13.0109 5.82282 13.0109 7.09742V10.0769C13.0109 10.28 13.0033 10.4875 12.9782 10.6937C12.8823 11.7957 12.5002 12.6998 11.7692 13.3203C11.0432 13.9364 10.0541 14.2034 8.88483 14.2034H8.58692C8.58307 14.2034 8.57712 14.2044 8.57047 14.2077C8.56381 14.2111 8.55944 14.2152 8.55713 14.2183L7.66415 15.4091C7.66405 15.4092 7.66425 15.4089 7.66415 15.4091C7.37818 15.792 6.9628 16.0302 6.50154 16.0302C6.04029 16.0302 5.62521 15.7924 5.33924 15.4095C5.33913 15.4093 5.33934 15.4096 5.33924 15.4095L4.45687 14.2329C4.4505 14.2281 4.4404 14.2215 4.42767 14.215C4.4162 14.2092 4.40641 14.2055 4.39981 14.2034H4.11826C2.92117 14.2034 1.83879 14.0649 1.07617 13.3989C0.294766 12.7165 -0.0078125 11.6146 -0.0078125 10.0769V7.09742C-0.0078125 5.92709 0.261472 4.93805 0.878358 4.21236C1.49934 3.48185 2.40291 3.09954 3.50141 3.00364Z"/><path d="M4.22067 2.9709H8.88762C10.1621 2.9709 11.2209 3.29098 11.9573 4.02743C12.6936 4.76389 13.0137 5.82283 13.0137 7.09744V9.9776C13.5713 9.84064 13.9733 9.59305 14.2558 9.26128C14.642 8.80764 14.8756 8.1137 14.8756 7.09744V4.118C14.8756 3.0165 14.5998 2.2915 14.1464 1.83803C13.693 1.38457 12.9681 1.10875 11.8667 1.10875H7.10015C6.08818 1.10875 5.39391 1.34222 4.93905 1.72897C4.60654 2.01169 4.35805 2.41383 4.22067 2.9709ZM4.21544 0.877728C4.94105 0.260771 5.92996 -0.00854492 7.10015 -0.00854492H11.8667C13.1412 -0.00854492 14.2 0.31153 14.9364 1.04799C15.6728 1.78444 15.9928 2.84339 15.9928 4.118V7.09744C15.9928 8.27108 15.7237 9.26053 15.1063 9.98563C14.4829 10.7178 13.5753 11.0979 12.4729 11.1922C12.305 11.2065 12.1395 11.1443 12.0227 11.0228C11.9059 10.9013 11.8501 10.7335 11.871 10.5662C11.8895 10.4186 11.8965 10.2574 11.8965 10.0769V7.09744C11.8965 5.99594 11.6207 5.27094 11.1673 4.81748C10.7139 4.36402 9.98899 4.0882 8.88762 4.0882H4.12107C3.9406 4.0882 3.77939 4.09523 3.63178 4.11369C3.46453 4.13459 3.29679 4.07886 3.1753 3.96201C3.05382 3.84517 2.99158 3.67971 3.00594 3.51176C3.10028 2.40831 3.48265 1.50079 4.21544 0.877728Z"/><path d="M8.41406 8.92981C8.41406 8.54415 8.72667 8.23151 9.11229 8.23151H9.11899C9.50462 8.23151 9.81722 8.54415 9.81722 8.92981C9.81722 9.31548 9.50462 9.62812 9.11899 9.62812H9.11229C8.72667 9.62812 8.41406 9.31548 8.41406 8.92981Z"/><path d="M5.80859 8.92981C5.80859 8.54415 6.1212 8.23151 6.50682 8.23151H6.51353C6.89915 8.23151 7.21175 8.54415 7.21175 8.92981C7.21175 9.31548 6.89915 9.62812 6.51353 9.62812H6.50682C6.1212 9.62812 5.80859 9.31548 5.80859 8.92981Z"/><path d="M3.19922 8.92981C3.19922 8.54415 3.51183 8.23151 3.89745 8.23151H3.90415C4.28977 8.23151 4.60238 8.54415 4.60238 8.92981C4.60238 9.31548 4.28977 9.62812 3.90415 9.62812H3.89745C3.51183 9.62812 3.19922 9.31548 3.19922 8.92981Z"/></g><defs><clipPath id="clip0_8632_57967"><path d="M0 0H16V16H0z"/></clipPath></defs></svg>