<svg width="36" height="36" viewBox="0 0 36 36" xmlns="http://www.w3.org/2000/svg"><g id="email/message-time"><path id="Vector" d="M7.5 20.25C6.09 20.25 4.785 20.745 3.75 21.57C2.37 22.665 1.5 24.36 1.5 26.25C1.5 29.565 4.185 32.25 7.5 32.25C9.015 32.25 10.395 31.68 11.46 30.75C12.705 29.655 13.5 28.05 13.5 26.25C13.5 22.935 10.815 20.25 7.5 20.25ZM9 26.625C9 27.015 8.79 27.39 8.46 27.585L6.585 28.71C6.405 28.83 6.195 28.875 6 28.875C5.625 28.875 5.25 28.68 5.04 28.335C4.725 27.795 4.89 27.105 5.43 26.79L6.765 25.995V24.375C6.765 23.76 7.275 23.25 7.89 23.25C8.505 23.25 9 23.76 9 24.375V26.625Z"/><path id="Vector_2" d="M25.875 3.64454H11.625C7.35 3.64454 4.5 6.49454 4.5 10.7695V17.4596C4.5 17.9846 5.04 18.3596 5.55 18.2246C6.18 18.0746 6.825 17.9995 7.5 17.9995C11.79 17.9995 15.33 21.4796 15.72 25.6945C15.75 26.1145 16.095 26.4445 16.5 26.4445H17.325L23.67 30.6745C24.6 31.3046 25.875 30.6146 25.875 29.4746V26.4445C28.005 26.4445 29.79 25.7246 31.035 24.4946C32.28 23.2346 33 21.4496 33 19.3196V10.7695C33 6.49454 30.15 3.64454 25.875 3.64454ZM23.745 16.2146H13.755C13.17 16.2146 12.69 15.7346 12.69 15.1496C12.69 14.5495 13.17 14.0695 13.755 14.0695H23.745C24.33 14.0695 24.81 14.5495 24.81 15.1496C24.81 15.7346 24.33 16.2146 23.745 16.2146Z"/></g></svg>