<svg width="20" height="20" viewBox="0 0 20 20" xmlns="http://www.w3.org/2000/svg"><g clip-path="url(#clip0_2326_160166)"><path d="M6.6665 3.75C6.6665 2.75544 7.06159 1.80161 7.76485 1.09835C8.46812 0.395088 9.42194 0 10.4165 0C11.4111 0 12.3649 0.395088 13.0682 1.09835C13.7714 1.80161 14.1665 2.75544 14.1665 3.75V10C14.1665 10.9946 13.7714 11.9484 13.0682 12.6517C12.3649 13.3549 11.4111 13.75 10.4165 13.75C9.42194 13.75 8.46812 13.3549 7.76485 12.6517C7.06159 11.9484 6.6665 10.9946 6.6665 10V3.75Z"/><path d="M4.7915 8.33325C4.95726 8.33325 5.11624 8.3991 5.23345 8.51631C5.35066 8.63352 5.4165 8.79249 5.4165 8.95825V10.2083C5.4165 11.5343 5.94329 12.8061 6.88097 13.7438C7.81865 14.6815 9.09042 15.2083 10.4165 15.2083C11.7426 15.2083 13.0144 14.6815 13.952 13.7438C14.8897 12.8061 15.4165 11.5343 15.4165 10.2083V8.95825C15.4165 8.79249 15.4824 8.63352 15.5996 8.51631C15.7168 8.3991 15.8757 8.33325 16.0415 8.33325C16.2073 8.33325 16.3662 8.3991 16.4834 8.51631C16.6007 8.63352 16.6665 8.79249 16.6665 8.95825V10.2083C16.6665 11.7577 16.091 13.2518 15.0517 14.4009C14.0123 15.55 12.5831 16.2721 11.0415 16.427V18.9583H14.7915C14.9573 18.9583 15.1162 19.0241 15.2334 19.1413C15.3507 19.2585 15.4165 19.4175 15.4165 19.5833C15.4165 19.749 15.3507 19.908 15.2334 20.0252C15.1162 20.1424 14.9573 20.2083 14.7915 20.2083H6.0415C5.87574 20.2083 5.71677 20.1424 5.59956 20.0252C5.48235 19.908 5.4165 19.749 5.4165 19.5833C5.4165 19.4175 5.48235 19.2585 5.59956 19.1413C5.71677 19.0241 5.87574 18.9583 6.0415 18.9583H9.7915V16.427C8.24986 16.2721 6.82072 15.55 5.78135 14.4009C4.74198 13.2518 4.16648 11.7577 4.1665 10.2083V8.95825C4.1665 8.79249 4.23235 8.63352 4.34956 8.51631C4.46677 8.3991 4.62574 8.33325 4.7915 8.33325Z"/></g><defs><clipPath id="clip0_2326_160166"><path fill="#fff" d="M0 0H20V20H0z"/></clipPath></defs></svg>