<svg width="18" height="18" viewBox="0 0 18 18" xmlns="http://www.w3.org/2000/svg"><g id="heroicons-solid/microphone"><g id="Union"><path d="M6.1875 3.375C6.1875 1.8217 7.4467 0.5625 9 0.5625C10.5533 0.5625 11.8125 1.8217 11.8125 3.375V9.5625C11.8125 11.1158 10.5533 12.375 9 12.375C7.4467 12.375 6.1875 11.1158 6.1875 9.5625V3.375Z"/><path d="M4.5 7.875C4.81066 7.875 5.0625 8.12684 5.0625 8.4375V9.5625C5.0625 11.7371 6.82538 13.5 9 13.5C11.1746 13.5 12.9375 11.7371 12.9375 9.5625V8.4375C12.9375 8.12684 13.1893 7.875 13.5 7.875C13.8107 7.875 14.0625 8.12684 14.0625 8.4375V9.5625C14.0625 12.1683 12.0937 14.3143 9.5625 14.5941V16.3125H11.8125C12.1232 16.3125 12.375 16.5643 12.375 16.875C12.375 17.1857 12.1232 17.4375 11.8125 17.4375H6.1875C5.87684 17.4375 5.625 17.1857 5.625 16.875C5.625 16.5643 5.87684 16.3125 6.1875 16.3125H8.4375V14.5941C5.90628 14.3143 3.9375 12.1683 3.9375 9.5625V8.4375C3.9375 8.12684 4.18934 7.875 4.5 7.875Z"/></g></g></svg>