<svg width="28" height="28" viewBox="0 0 28 28" xmlns="http://www.w3.org/2000/svg"><path fill-rule="evenodd" clip-rule="evenodd" d="M6.41602 4.66667C6.41602 3.05584 7.72185 1.75 9.33268 1.75H18.666C20.2768 1.75 21.5827 3.05584 21.5827 4.66667V23.3333C21.5827 24.9441 20.2768 26.25 18.666 26.25H9.33268C7.72185 26.25 6.41602 24.9441 6.41602 23.3333V4.66667ZM9.33268 2.91667C8.36618 2.91667 7.58268 3.70016 7.58268 4.66667V23.3333C7.58268 24.2998 8.36618 25.0833 9.33268 25.0833H18.666C19.6325 25.0833 20.416 24.2998 20.416 23.3333V4.66667C20.416 3.70016 19.6325 2.91667 18.666 2.91667H9.33268Z"/><path fill-rule="evenodd" clip-rule="evenodd" d="M9.91602 2.33333C9.91602 2.01117 10.1772 1.75 10.4993 1.75H17.4993C17.8215 1.75 18.0827 2.01117 18.0827 2.33333V3.5C18.0827 4.4665 17.2991 5.25 16.3327 5.25H11.666C10.6995 5.25 9.91602 4.4665 9.91602 3.5V2.33333ZM11.0827 2.91667V3.5C11.0827 3.82216 11.3439 4.08333 11.666 4.08333H16.3327C16.6548 4.08333 16.916 3.82216 16.916 3.5V2.91667H11.0827Z"/></svg>