<svg width="20" height="20" viewBox="0 0 20 20" fill="none" xmlns="http://www.w3.org/2000/svg"><path d="M16.2218 11.0456V14.0911C16.2218 17.3638 15.444 18.182 12.3329 18.182H7.66623C4.55512 18.182 3.77734 17.3638 3.77734 14.0911V5.90927C3.77734 2.63654 4.55512 1.81836 7.66623 1.81836H12.3329C15.444 1.81836 16.2218 2.63654 16.2218 5.90927V6.95472" stroke="#475467" stroke-width="1.25" stroke-linecap="round" stroke-linejoin="round"/><path d="M11.5564 4.68164H8.44531" stroke="#475467" stroke-width="1.25" stroke-linecap="round" stroke-linejoin="round"/><path d="M10.0005 15.8091C10.6663 15.8091 11.2061 15.2412 11.2061 14.5409C11.2061 13.8405 10.6663 13.2727 10.0005 13.2727C9.33467 13.2727 8.79492 13.8405 8.79492 14.5409C8.79492 15.2412 9.33467 15.8091 10.0005 15.8091Z" stroke="#475467" stroke-width="1.25" stroke-linecap="round" stroke-linejoin="round"/><path d="M17.002 9H17.0109" stroke="#475467" stroke-width="1.5" stroke-linecap="round" stroke-linejoin="round"/><path d="M14 9H14.009" stroke="#475467" stroke-width="1.5" stroke-linecap="round" stroke-linejoin="round"/><path d="M11 9H11.009" stroke="#475467" stroke-width="1.5" stroke-linecap="round" stroke-linejoin="round"/></svg>