<svg width="36" height="36" viewBox="0 0 36 36" xmlns="http://www.w3.org/2000/svg"><path d="M28.2129 9.3757H30.2529C29.9679 8.9707 29.6679 8.5957 29.3529 8.2207L28.2129 9.3757Z"/><path d="M27.78 6.63047C27.405 6.31547 27.03 6.01547 26.625 5.73047V7.77047L27.78 6.63047Z"/><path d="M29.3693 8.22211L33.7943 3.79711C34.2293 3.36211 34.2293 2.64211 33.7943 2.20711C33.3593 1.77211 32.6393 1.77211 32.2043 2.20711L27.7793 6.63211C28.3493 7.12711 28.8743 7.66711 29.3693 8.22211Z"/><path d="M26.6276 4.5C26.6276 3.885 26.1176 3.375 25.5026 3.375C24.9026 3.375 24.4226 3.855 24.3926 4.44C25.1726 4.815 25.9226 5.235 26.6276 5.73V4.5Z"/><path d="M32.6278 10.5C32.6278 9.885 32.1178 9.375 31.5028 9.375H30.2578C30.7528 10.08 31.1878 10.83 31.5478 11.61C32.1478 11.58 32.6278 11.1 32.6278 10.5Z"/><path d="M19.125 22.1262H19.575C20.16 22.1262 20.625 21.6012 20.625 20.9562C20.625 20.1462 20.4 20.0262 19.89 19.8462L19.125 19.5762V22.1262Z"/><path d="M31.56 11.61C31.545 11.61 31.53 11.625 31.5 11.625H25.5C25.35 11.625 25.215 11.595 25.065 11.535C24.795 11.415 24.57 11.205 24.45 10.92C24.405 10.785 24.375 10.65 24.375 10.5V4.5C24.375 4.485 24.39 4.47 24.39 4.44C22.44 3.525 20.28 3 18 3C9.72 3 3 9.72 3 18C3 26.28 9.72 33 18 33C26.28 33 33 26.28 33 18C33 15.72 32.475 13.56 31.56 11.61ZM20.625 17.73C21.585 18.06 22.875 18.765 22.875 20.97C22.875 22.845 21.39 24.39 19.575 24.39H19.125V24.765C19.125 25.38 18.615 25.89 18 25.89C17.385 25.89 16.875 25.38 16.875 24.765V24.39H16.755C14.76 24.39 13.125 22.71 13.125 20.64C13.125 20.01 13.635 19.5 14.25 19.5C14.865 19.5 15.375 20.01 15.375 20.625C15.375 21.45 15.99 22.125 16.755 22.125H16.875V18.795L15.375 18.27C14.415 17.94 13.125 17.235 13.125 15.03C13.125 13.155 14.61 11.61 16.425 11.61H16.875V11.25C16.875 10.635 17.385 10.125 18 10.125C18.615 10.125 19.125 10.635 19.125 11.25V11.625H19.245C21.24 11.625 22.875 13.305 22.875 15.375C22.875 15.99 22.365 16.5 21.75 16.5C21.135 16.5 20.625 15.99 20.625 15.375C20.625 14.55 20.01 13.875 19.245 13.875H19.125V17.205L20.625 17.73Z"/><path d="M15.375 15.045C15.375 15.855 15.6 15.975 16.11 16.155L16.875 16.425V13.875H16.425C15.855 13.875 15.375 14.4 15.375 15.045Z"/></svg>