<svg width="24" height="24" viewBox="0 0 24 24" xmlns="http://www.w3.org/2000/svg"><path fill-rule="evenodd" clip-rule="evenodd" d="M5.675 13.975C6.73815 13.975 7.6 13.1131 7.6 12.05C7.6 10.9869 6.73815 10.125 5.675 10.125C4.61185 10.125 3.75 10.9869 3.75 12.05C3.75 13.1131 4.61185 13.975 5.675 13.975Z"/><path fill-rule="evenodd" clip-rule="evenodd" d="M18.3244 13.975C19.3876 13.975 20.2494 13.1131 20.2494 12.05C20.2494 10.9869 19.3876 10.125 18.3244 10.125C17.2613 10.125 16.3994 10.9869 16.3994 12.05C16.3994 13.1131 17.2613 13.975 18.3244 13.975Z"/><path fill-rule="evenodd" clip-rule="evenodd" d="M12.0002 13.975C13.0633 13.975 13.9252 13.1131 13.9252 12.05C13.9252 10.9869 13.0633 10.125 12.0002 10.125C10.937 10.125 10.0752 10.9869 10.0752 12.05C10.0752 13.1131 10.937 13.975 12.0002 13.975Z"/><path d="M5.675 13.975C6.73815 13.975 7.6 13.1131 7.6 12.05C7.6 10.9869 6.73815 10.125 5.675 10.125C4.61185 10.125 3.75 10.9869 3.75 12.05C3.75 13.1131 4.61185 13.975 5.675 13.975Z"/><path d="M18.3254 13.975C19.3886 13.975 20.2504 13.1131 20.2504 12.05C20.2504 10.9869 19.3886 10.125 18.3254 10.125C17.2623 10.125 16.4004 10.9869 16.4004 12.05C16.4004 13.1131 17.2623 13.975 18.3254 13.975Z"/><path d="M13.9252 12.05C13.9252 13.1131 13.0634 13.975 12.0002 13.975C10.9371 13.975 10.0752 13.1131 10.0752 12.05C10.0752 10.9869 10.9371 10.125 12.0002 10.125C13.0634 10.125 13.9252 10.9869 13.9252 12.05Z"/></svg>