<svg width="12" height="18" viewBox="0 0 12 18" fill="none" xmlns="http://www.w3.org/2000/svg"><g id="Move" stroke="#9198A4" stroke-width="1.5" stroke-linecap="round" stroke-linejoin="round"><path id="Vector" d="M3.75 9.75C4.16421 9.75 4.5 9.41421 4.5 9C4.5 8.58579 4.16421 8.25 3.75 8.25C3.33579 8.25 3 8.58579 3 9C3 9.41421 3.33579 9.75 3.75 9.75Z"/><path id="Vector_2" d="M3.75 4.5C4.16421 4.5 4.5 4.16421 4.5 3.75C4.5 3.33579 4.16421 3 3.75 3C3.33579 3 3 3.33579 3 3.75C3 4.16421 3.33579 4.5 3.75 4.5Z"/><path id="Vector_3" d="M3.75 15C4.16421 15 4.5 14.6642 4.5 14.25C4.5 13.8358 4.16421 13.5 3.75 13.5C3.33579 13.5 3 13.8358 3 14.25C3 14.6642 3.33579 15 3.75 15Z"/><path id="Vector_4" d="M8.25 9.75C8.66421 9.75 9 9.41421 9 9C9 8.58579 8.66421 8.25 8.25 8.25C7.83579 8.25 7.5 8.58579 7.5 9C7.5 9.41421 7.83579 9.75 8.25 9.75Z"/><path id="Vector_5" d="M8.25 4.5C8.66421 4.5 9 4.16421 9 3.75C9 3.33579 8.66421 3 8.25 3C7.83579 3 7.5 3.33579 7.5 3.75C7.5 4.16421 7.83579 4.5 8.25 4.5Z"/><path id="Vector_6" d="M8.25 15C8.66421 15 9 14.6642 9 14.25C9 13.8358 8.66421 13.5 8.25 13.5C7.83579 13.5 7.5 13.8358 7.5 14.25C7.5 14.6642 7.83579 15 8.25 15Z"/></g></svg>