<svg xmlns="http://www.w3.org/2000/svg" width="16" height="16" viewBox="0 0 16 16"><path fill-rule="evenodd" clip-rule="evenodd" d="M3.01816 5.71317C3.01816 2.95706 5.25747 0.717834 8.01369 0.717834C10.7625 0.717834 13.0092 2.96447 13.0092 5.71317V7.8519C13.0092 8.01091 13.0452 8.24365 13.1134 8.49233C13.1808 8.73801 13.2678 8.95636 13.347 9.09499L14.1952 10.5036C14.8654 11.6205 14.3301 13.0762 13.0954 13.485C9.79179 14.5885 6.22728 14.5884 2.92368 13.4847L2.92162 13.484C2.29818 13.273 1.83063 12.8367 1.62158 12.2722C1.41229 11.707 1.48349 11.0708 1.82469 10.5037L2.67461 9.09219C2.67443 9.09249 2.67479 9.09189 2.67461 9.09219C2.75566 8.95594 2.84498 8.73749 2.9135 8.49067C2.98221 8.24314 3.01816 8.01074 3.01816 7.8519V5.71317ZM8.01369 1.82791C5.87057 1.82791 4.12827 3.57014 4.12827 5.71317V7.8519C4.12827 8.14449 4.06801 8.48194 3.98316 8.78759C3.89826 9.09342 3.77637 9.41198 3.62814 9.66062L3.6269 9.6627L2.77589 11.0761C2.59164 11.3823 2.58143 11.6674 2.66262 11.8867C2.74397 12.1064 2.93849 12.3175 3.27653 12.4322C6.35179 13.4593 9.66929 13.4592 12.7445 12.4318L12.7462 12.4313C13.3019 12.2475 13.5503 11.5864 13.2437 11.0755L12.3877 9.65382C12.2455 9.4074 12.1265 9.09104 12.0428 8.78593C11.9593 8.48143 11.8991 8.14432 11.8991 7.8519V5.71317C11.8991 3.57754 10.1494 1.82791 8.01369 1.82791Z"/><path fill-rule="evenodd" clip-rule="evenodd" d="M6.13203 1.28498C6.42765 0.530663 7.16158 0 8.01796 0C8.87433 0 9.60826 0.530663 9.90388 1.28498C9.98105 1.48189 9.93961 1.70554 9.79701 1.86172C9.65442 2.01791 9.43545 2.07949 9.23234 2.02053C9.02704 1.96093 8.81983 1.91595 8.60983 1.89049L8.60778 1.89024C7.96805 1.81028 7.36358 1.85774 6.80376 2.02047C6.60064 2.07952 6.38161 2.01798 6.23896 1.8618C6.09632 1.70561 6.05485 1.48192 6.13203 1.28498Z"/><path fill-rule="evenodd" clip-rule="evenodd" d="M6.34839 13.2248C6.34839 13.6781 6.53697 14.1011 6.83709 14.4012L6.83709 14.4012C7.13719 14.7013 7.56024 14.8899 8.01355 14.8899C8.92812 14.8899 9.67872 14.1393 9.67872 13.2248H10.7888C10.7888 14.7524 9.54122 16 8.01355 16C7.25314 16 6.55127 15.6853 6.05212 15.1862M6.05211 15.1862C5.55295 14.687 5.23828 13.9852 5.23828 13.2248H6.34839"/></svg>