<svg width="22" height="22" viewBox="0 0 22 22"  xmlns="http://www.w3.org/2000/svg">
<path d="M11.0181 2.66742C7.98388 2.66742 5.51805 5.13325 5.51805 8.16742V10.8166C5.51805 11.3757 5.27971 12.2282 4.99555 12.7049L3.94138 14.4557C3.29055 15.5374 3.73971 16.7382 4.93138 17.1416C8.88221 18.4616 13.1447 18.4616 17.0956 17.1416C18.2047 16.7749 18.6906 15.4641 18.0856 14.4557L17.0314 12.7049C16.7564 12.2282 16.5181 11.3757 16.5181 10.8166V8.16742C16.5181 5.14242 14.0431 2.66742 11.0181 2.66742Z"  stroke-width="1.5" stroke-miterlimit="10" stroke-linecap="round"/>
<path d="M12.7139 2.93329C12.4298 2.85079 12.1364 2.78662 11.8339 2.74996C10.9539 2.63996 10.1106 2.70412 9.32227 2.93329C9.5881 2.25496 10.2481 1.77829 11.0181 1.77829C11.7881 1.77829 12.4481 2.25496 12.7139 2.93329Z"  stroke-width="1.5" stroke-miterlimit="10" stroke-linecap="round" stroke-linejoin="round"/>
<path d="M13.7685 17.4718C13.7685 18.9843 12.531 20.2218 11.0185 20.2218C10.2669 20.2218 9.5702 19.9101 9.07522 19.4151C8.58022 18.9201 8.26855 18.2234 8.26855 17.4718" fill="#ffffff" stroke-width="1.5" stroke-miterlimit="10"/>
</g>
</svg>
