<svg width="32" height="32" viewBox="0 0 32 32" xmlns="http://www.w3.org/2000/svg"><g clip-path="url(#clip0_1558_37335)" fill-rule="evenodd" clip-rule="evenodd"><path d="M2.52431 1.49307C1.95526 1.49307 1.49392 1.9544 1.49392 2.52345V12.5313C1.49392 13.1003 1.95526 13.5616 2.52431 13.5616H12.5321C13.1012 13.5616 13.5625 13.1003 13.5625 12.5313V2.52345C13.5625 1.9544 13.1012 1.49307 12.5321 1.49307H2.52431ZM0.382812 2.52345C0.382812 1.34075 1.34161 0.381958 2.52431 0.381958H12.5321C13.7148 0.381958 14.6736 1.34075 14.6736 2.52345V12.5313C14.6736 13.714 13.7148 14.6728 12.5321 14.6728H2.52431C1.34161 14.6728 0.382812 13.714 0.382812 12.5313V2.52345Z"/><path d="M19.4696 1.49307C18.9006 1.49307 18.4392 1.9544 18.4392 2.52345V12.5313C18.4392 13.1003 18.9006 13.5616 19.4696 13.5616H29.4774C30.0465 13.5616 30.5078 13.1003 30.5078 12.5313V2.52345C30.5078 1.9544 30.0465 1.49307 29.4774 1.49307H19.4696ZM17.3281 2.52345C17.3281 1.34075 18.2869 0.381958 19.4696 0.381958H29.4774C30.6601 0.381958 31.6189 1.34075 31.6189 2.52345V12.5313C31.6189 13.714 30.6601 14.6728 29.4774 14.6728H19.4696C18.2869 14.6728 17.3281 13.714 17.3281 12.5313V2.52345Z"/><path d="M2.52431 18.4384C1.95526 18.4384 1.49392 18.8997 1.49392 19.4688V29.4766C1.49392 30.0456 1.95526 30.507 2.52431 30.507H12.5321C13.1012 30.507 13.5625 30.0456 13.5625 29.4766V19.4688C13.5625 18.8997 13.1012 18.4384 12.5321 18.4384H2.52431ZM0.382812 19.4688C0.382812 18.2861 1.34161 17.3273 2.52431 17.3273H12.5321C13.7148 17.3273 14.6736 18.2861 14.6736 19.4688V29.4766C14.6736 30.6593 13.7148 31.6181 12.5321 31.6181H2.52431C1.34161 31.6181 0.382812 30.6593 0.382812 29.4766V19.4688Z"/><path d="M19.4696 18.4384C18.9006 18.4384 18.4392 18.8997 18.4392 19.4688V29.4766C18.4392 30.0456 18.9006 30.507 19.4696 30.507H29.4774C30.0465 30.507 30.5078 30.0456 30.5078 29.4766V19.4688C30.5078 18.8997 30.0465 18.4384 29.4774 18.4384H19.4696ZM17.3281 19.4688C17.3281 18.2861 18.2869 17.3273 19.4696 17.3273H29.4774C30.6601 17.3273 31.6189 18.2861 31.6189 19.4688V29.4766C31.6189 30.6593 30.6601 31.6181 29.4774 31.6181H19.4696C18.2869 31.6181 17.3281 30.6593 17.3281 29.4766V19.4688Z"/><path d="M4.31116 4.3103C4.52811 4.09334 4.87987 4.09334 5.09683 4.3103L10.7453 9.95874C10.9622 10.1757 10.9622 10.5275 10.7453 10.7444C10.5283 10.9614 10.1766 10.9614 9.95959 10.7444L4.31116 5.09598C4.0942 4.87902 4.0942 4.52726 4.31116 4.3103Z"/><path d="M10.7453 4.3103C10.9622 4.52726 10.9622 4.87902 10.7453 5.09598L5.09683 10.7444C4.87987 10.9614 4.52811 10.9614 4.31116 10.7444C4.0942 10.5275 4.0942 10.1757 4.31116 9.95874L9.95959 4.3103C10.1766 4.09334 10.5283 4.09334 10.7453 4.3103Z"/><path d="M21.2565 4.3103C21.4734 4.09334 21.8252 4.09334 22.0421 4.3103L27.6906 9.95874C27.9075 10.1757 27.9075 10.5275 27.6906 10.7444C27.4736 10.9614 27.1219 10.9614 26.9049 10.7444L21.2565 5.09598C21.0395 4.87902 21.0395 4.52726 21.2565 4.3103Z"/><path d="M27.6906 4.3103C27.9075 4.52726 27.9075 4.87902 27.6906 5.09598L22.0421 10.7444C21.8252 10.9614 21.4734 10.9614 21.2565 10.7444C21.0395 10.5275 21.0395 10.1757 21.2565 9.95874L26.9049 4.3103C27.1219 4.09334 27.4736 4.09334 27.6906 4.3103Z"/><path d="M4.31116 21.2556C4.52811 21.0387 4.87987 21.0387 5.09683 21.2556L10.7453 26.9041C10.9622 27.121 10.9622 27.4728 10.7453 27.6897C10.5283 27.9067 10.1766 27.9067 9.95959 27.6897L4.31116 22.0413C4.0942 21.8243 4.0942 21.4726 4.31116 21.2556Z"/><path d="M10.7453 21.2556C10.9622 21.4726 10.9622 21.8243 10.7453 22.0413L5.09683 27.6897C4.87987 27.9067 4.52811 27.9067 4.31116 27.6897C4.0942 27.4728 4.0942 27.121 4.31116 26.9041L9.95959 21.2556C10.1766 21.0387 10.5283 21.0387 10.7453 21.2556Z"/><path d="M27.6906 22.197C27.9075 22.414 27.9075 22.7657 27.6906 22.9827L23.925 26.7483C23.8208 26.8525 23.6795 26.911 23.5321 26.911C23.3848 26.911 23.2435 26.8525 23.1393 26.7483L21.2565 24.8654C21.0395 24.6485 21.0395 24.2967 21.2565 24.0798C21.4734 23.8628 21.8252 23.8628 22.0421 24.0798L23.5321 25.5698L26.9049 22.197C27.1219 21.9801 27.4736 21.9801 27.6906 22.197Z"/></g><defs><clipPath id="clip0_1558_37335"><path fill="#fff" d="M0 0H32V32H0z"/></clipPath></defs></svg>