<svg width="24" height="24" viewBox="0 0 24 24" fill="none" xmlns="http://www.w3.org/2000/svg"><path d="M4.5 7.625V21.375M5.75 7.625H3.25M3.25 21.375H5.75"/><path d="M19.5 3.875L8.25 3.875M19.5 5.125L19.5 2.625M8.25 2.625L8.25 5.125"/><path d="M18.5 21.375H9.25C8.69772 21.375 8.25 20.9273 8.25 20.375V8.625C8.25 8.07272 8.69772 7.625 9.25 7.625H15.3358C15.601 7.625 15.8554 7.73036 16.0429 7.91789L19.2071 11.0821C19.3946 11.2696 19.5 11.524 19.5 11.7892V20.375C19.5 20.9273 19.0523 21.375 18.5 21.375Z"/><path d="M15.75 8.25V10.875C15.75 11.1511 15.9739 11.375 16.25 11.375H18.875"/></svg>