<svg width="25" height="24" viewBox="0 0 25 24" fill="none" xmlns="http://www.w3.org/2000/svg"><path d="M8.05577 16.4444H4.61133C4.05904 16.4444 3.61133 15.9967 3.61133 15.4444V7.96972C3.61133 7.7045 3.71668 7.45014 3.90422 7.26261L6.65177 4.51506C6.8393 4.32752 7.09366 4.22217 7.35887 4.22217H12.6113C13.1636 4.22217 13.6113 4.66988 13.6113 5.22217V10.3333"/><path d="M8.05512 11.8889L8.05512 19.8889C8.05512 20.4412 8.50284 20.8889 9.05512 20.8889L19.2773 20.8889C19.8296 20.8889 20.2773 20.4412 20.2773 19.8889L20.2773 14.6365C20.2773 14.3712 20.172 14.1169 19.9845 13.9294L17.2369 11.1818C17.0494 10.9943 16.795 10.8889 16.5298 10.8889L9.05512 10.8889C8.50284 10.8889 8.05512 11.3366 8.05512 11.8889Z"/><path d="M6.94434 4.77783V7.05561C6.94434 7.33175 6.72048 7.55561 6.44434 7.55561H4.16656"/><path d="M19.7227 14.2222L17.4449 14.2222C17.1687 14.2222 16.9449 13.9983 16.9449 13.7222L16.9449 11.4444"/></svg>