<svg width="20" height="20" viewBox="0 0 20 20" fill="none" xmlns="http://www.w3.org/2000/svg"><path d="M12.5001 6.24992L5.99228 12.8671C5.77683 13.1049 5.66107 13.4164 5.66897 13.7372C5.67687 14.058 5.80782 14.3634 6.03471 14.5903C6.2616 14.8172 6.56705 14.9481 6.88783 14.956C7.2086 14.9639 7.52013 14.8482 7.75791 14.6327L15.5157 6.76554C15.9466 6.28998 16.1781 5.66693 16.1623 5.02538C16.1465 4.38383 15.8846 3.77293 15.4309 3.31915C14.9771 2.86537 14.3662 2.60347 13.7246 2.58767C13.0831 2.57188 12.46 2.8034 11.9845 3.23429L4.22666 11.1015C3.52425 11.8039 3.12964 12.7566 3.12964 13.7499C3.12964 14.7433 3.52425 15.6959 4.22666 16.3984C4.92907 17.1008 5.88174 17.4954 6.8751 17.4954C7.86845 17.4954 8.82112 17.1008 9.52353 16.3984L15.9376 9.99992"/></svg>