<svg width="32" height="32" viewBox="0 0 32 32" xmlns="http://www.w3.org/2000/svg"><g clip-path="url(#clip0_3984_141835)" fill-rule="evenodd" clip-rule="evenodd"><path d="M2.50264 10.0078C1.67277 10.0078 1 10.6806 1 11.5105V25.5291C1 26.359 1.67277 27.0317 2.50264 27.0317H26.5346C27.3645 27.0317 28.0373 26.359 28.0373 25.5291V21.0231C28.0373 20.747 28.2611 20.5231 28.5373 20.5231C28.8134 20.5231 29.0373 20.747 29.0373 21.0231V25.5291C29.0373 26.9113 27.9168 28.0317 26.5346 28.0317H2.50264C1.12049 28.0317 0 26.9113 0 25.5291V11.5105C0 10.1283 1.12048 9.00781 2.50264 9.00781H26.5346C27.9168 9.00781 29.0373 10.1283 29.0373 11.5105V19.0204C29.0373 19.2966 28.8134 19.5204 28.5373 19.5204C28.2611 19.5204 28.0373 19.2966 28.0373 19.0204V11.5105C28.0373 10.6806 27.3645 10.0078 26.5346 10.0078H2.50264Z"/><path d="M29.3681 5.82909C29.2721 5.00474 28.526 4.41433 27.7017 4.51032L3.83103 7.29015L3.83101 7.29015C3.4308 7.33674 3.08654 7.53582 2.84802 7.82366C2.67182 8.03629 2.35662 8.06582 2.144 7.88963C1.93137 7.71343 1.90184 7.39823 2.07803 7.1856C2.47422 6.7075 3.04936 6.3744 3.71536 6.29686C3.71536 6.29686 3.71537 6.29686 3.71538 6.29686L27.586 3.51703C28.9588 3.35717 30.2015 4.34045 30.3614 5.71343L31.983 19.6379L31.5276 19.691L31.983 19.6379C32.1428 21.0108 31.1595 22.2534 29.7866 22.4133L28.5952 22.552C28.3209 22.584 28.0726 22.3875 28.0407 22.1132C28.0087 21.8389 28.2052 21.5907 28.4795 21.5587L29.6709 21.42C30.4953 21.324 31.0857 20.5779 30.9897 19.7536L29.3681 5.82909Z"/><path d="M3.00391 21.5234C3.00391 21.2473 3.22776 21.0234 3.50391 21.0234H7.50926C7.7854 21.0234 8.00926 21.2473 8.00926 21.5234C8.00926 21.7996 7.7854 22.0234 7.50926 22.0234H3.50391C3.22776 22.0234 3.00391 21.7996 3.00391 21.5234Z"/><path d="M3.00391 24.0273C3.00391 23.7512 3.22776 23.5273 3.50391 23.5273H13.5172C13.7933 23.5273 14.0172 23.7512 14.0172 24.0273C14.0172 24.3035 13.7933 24.5273 13.5172 24.5273H3.50391C3.22776 24.5273 3.00391 24.3035 3.00391 24.0273Z"/><path d="M9.01196 21.5234C9.01196 21.2473 9.23582 21.0234 9.51196 21.0234H13.5173C13.7934 21.0234 14.0173 21.2473 14.0173 21.5234C14.0173 21.7996 13.7934 22.0234 13.5173 22.0234H9.51196C9.23582 22.0234 9.01196 21.7996 9.01196 21.5234Z"/><path d="M15.02 21.5234C15.02 21.2473 15.2439 21.0234 15.52 21.0234H19.5253C19.8015 21.0234 20.0253 21.2473 20.0253 21.5234C20.0253 21.7996 19.8015 22.0234 19.5253 22.0234H15.52C15.2439 22.0234 15.02 21.7996 15.02 21.5234Z"/><path d="M21.028 21.5234C21.028 21.2473 21.2518 21.0234 21.528 21.0234H25.5332C25.8094 21.0234 26.0332 21.2473 26.0332 21.5234C26.0332 21.7996 25.8094 22.0234 25.5332 22.0234H21.528C21.2518 22.0234 21.028 21.7996 21.028 21.5234Z"/><path d="M4.50526 14C4.22835 14 4.00391 14.2245 4.00391 14.5014V16.504C4.00391 16.7809 4.22837 17.0054 4.50526 17.0054H7.50926C7.78607 17.0054 8.01055 16.781 8.01061 16.504C8.01061 16.504 8.01061 16.504 8.01061 16.504V14.5014C8.01061 14.2244 7.78615 14 7.50926 14H4.50526ZM3.00391 14.5014C3.00391 13.6722 3.67603 13 4.50526 13H7.50926C8.33839 13 9.01061 13.6721 9.01061 14.5014V16.504C9.01052 17.3331 8.33844 18.0054 7.50926 18.0054H4.50526C3.67613 18.0054 3.00391 17.3332 3.00391 16.504V14.5014Z"/><path d="M5.00659 15.5039C5.00659 15.2278 5.23045 15.0039 5.50659 15.0039H6.50795C6.78409 15.0039 7.00795 15.2278 7.00795 15.5039C7.00795 15.78 6.78409 16.0039 6.50795 16.0039H5.50659C5.23045 16.0039 5.00659 15.78 5.00659 15.5039Z"/></g><defs><clipPath id="clip0_3984_141835"><path fill="#fff" d="M0 0H32V32H0z"/></clipPath></defs></svg>