<svg width="36" height="36" viewBox="0 0 36 36" xmlns="http://www.w3.org/2000/svg"><g id="users/people"><path id="Vector" d="M26.2937 11.655C26.1887 11.64 26.0837 11.64 25.9787 11.655C23.6537 11.58 21.8087 9.675 21.8087 7.335C21.8087 4.95 23.7437 3 26.1437 3C28.5287 3 30.4787 4.935 30.4787 7.335C30.4637 9.675 28.6187 11.58 26.2937 11.655Z"/><path id="Vector_2" d="M31.1874 22.0506C29.5074 23.1756 27.1524 23.5956 24.9774 23.3106C25.5474 22.0806 25.8474 20.7156 25.8624 19.2756C25.8624 17.7756 25.5324 16.3506 24.9024 15.1056C27.1224 14.8056 29.4774 15.2256 31.1724 16.3506C33.5424 17.9106 33.5424 20.4756 31.1874 22.0506Z"/><path id="Vector_3" d="M9.66023 11.655C9.76523 11.64 9.87023 11.64 9.97523 11.655C12.3002 11.58 14.1452 9.675 14.1452 7.335C14.1452 4.935 12.2102 3 9.81023 3C7.42523 3 5.49023 4.935 5.49023 7.335C5.49023 9.675 7.33523 11.58 9.66023 11.655Z"/><path id="Vector_4" d="M9.82664 19.2759C9.82664 20.7309 10.1416 22.1109 10.7116 23.3559C8.59664 23.5809 6.39164 23.1309 4.77164 22.0659C2.40164 20.4909 2.40164 17.9259 4.77164 16.3509C6.37664 15.2709 8.64164 14.8359 10.7716 15.0759C10.1566 16.3359 9.82664 17.7609 9.82664 19.2759Z"/><path id="Vector_5" d="M18.1812 23.805C18.0612 23.79 17.9262 23.79 17.7912 23.805C15.0312 23.715 12.8262 21.45 12.8262 18.66C12.8412 15.81 15.1362 13.5 18.0012 13.5C20.8512 13.5 23.1612 15.81 23.1612 18.66C23.1462 21.45 20.9562 23.715 18.1812 23.805Z"/><path id="Vector_6" d="M13.3062 26.9109C11.0412 28.4259 11.0412 30.9159 13.3062 32.4159C15.8862 34.1409 20.1162 34.1409 22.6962 32.4159C24.9612 30.9009 24.9612 28.4109 22.6962 26.9109C20.1312 25.1859 15.9012 25.1859 13.3062 26.9109Z"/></g></svg>