<svg width="20" height="20" viewBox="0 0 20 20" fill="none" xmlns="http://www.w3.org/2000/svg"><g stroke-linecap="round" stroke-linejoin="round" color="currentColor"><path d="M7.5 1.667h5c4.166 0 5.833 1.666 5.833 5.833v5c0 4.167-1.666 5.833-5.833 5.833h-5c-4.167 0-5.833-1.666-5.833-5.833v-5c0-4.167 1.666-5.833 5.833-5.833ZM7.142 12.725l5.45-5.45"/><path d="M7.484 8.642a1.025 1.025 0 1 0 0-2.05 1.025 1.025 0 0 0 0 2.05ZM12.933 13.408a1.025 1.025 0 1 0 0-2.05 1.025 1.025 0 0 0 0 2.05Z"/></g></svg>