<svg width="36" height="36" viewBox="0 0 36 36" xmlns="http://www.w3.org/2000/svg"><g id="location/picture-frame"><path id="Vector" d="M15.765 16.83L12.465 3.585C12.39 3.24 12.075 3 11.715 3C6.9 3 3 6.9 3 11.715V20.265C3 20.775 3.495 21.15 3.99 21L15.24 17.745C15.63 17.64 15.87 17.235 15.765 16.83Z"/><path id="Vector_2" d="M16.68 20.5183C16.575 20.0983 16.14 19.8433 15.72 19.9633L3.555 23.5033C3.225 23.6083 3 23.9083 3 24.2533V24.2833C3 29.0983 6.9 32.9983 11.715 32.9983H18.795C19.29 32.9983 19.665 32.5333 19.545 32.0383L16.68 20.5183Z"/><path id="Vector_3" d="M24.2862 3H15.6612C15.1662 3 14.7912 3.465 14.9112 3.96L22.0212 32.415C22.1112 32.76 22.4112 33 22.7712 33H24.2712C29.1012 33 33.0012 29.1 33.0012 24.285V11.715C33.0012 6.9 29.1012 3 24.2862 3Z"/></g></svg>