<svg width="18" height="18" viewBox="0 0 18 18" fill="none" xmlns="http://www.w3.org/2000/svg"><g id="video-audio-image/play-circle" clip-path="url(#clip0_5783_247812)" stroke="#475467" stroke-width="1.5" stroke-linecap="round" stroke-linejoin="round"><path id="Vector" d="M8.97756 16.5C13.1197 16.5 16.4776 13.1421 16.4776 9C16.4776 4.85786 13.1197 1.5 8.97756 1.5C4.8354 1.5 1.47754 4.85786 1.47754 9C1.47754 13.1421 4.8354 16.5 8.97756 16.5Z"/><path id="Vector_2" d="M6.55469 9.17242V7.91992C6.55469 6.35991 7.6572 5.72241 9.00719 6.50241L10.0947 7.13241L11.1822 7.76242C12.5322 8.54242 12.5322 9.81742 11.1822 10.5974L10.0947 11.2274L9.00719 11.8574C7.6572 12.6374 6.55469 11.9999 6.55469 10.4399V9.17242Z" stroke-miterlimit="10"/></g><defs><clipPath id="clip0_5783_247812"><path fill="#fff" d="M0 0H18V18H0z"/></clipPath></defs></svg>