<svg width="18" height="18" viewBox="0 0 18 18" xmlns="http://www.w3.org/2000/svg"><g id="Position" clip-path="url(#clip0_7063_30108)"><path id="Vector (Stroke)" fill-rule="evenodd" clip-rule="evenodd" d="M0 2.8125C0 1.2592 1.2592 0 2.8125 0H15.1875C16.7408 0 18 1.2592 18 2.8125V15.1875C18 16.7408 16.7408 18 15.1875 18H2.8125C1.2592 18 0 16.7408 0 15.1875V2.8125ZM2.8125 1.125C1.88052 1.125 1.125 1.88052 1.125 2.8125V15.1875C1.125 16.1195 1.88052 16.875 2.8125 16.875H15.1875C16.1195 16.875 16.875 16.1195 16.875 15.1875V2.8125C16.875 1.88052 16.1195 1.125 15.1875 1.125H2.8125Z"/><path id="Vector" d="M6.75 10.125H3.375C2.75368 10.125 2.25 10.6287 2.25 11.25V14.625C2.25 15.2463 2.75368 15.75 3.375 15.75H6.75C7.37132 15.75 7.875 15.2463 7.875 14.625V11.25C7.875 10.6287 7.37132 10.125 6.75 10.125Z"/></g><defs><clipPath id="clip0_7063_30108"><path fill="#fff" d="M0 0H18V18H0z"/></clipPath></defs></svg>