<svg width="18" height="18" viewBox="0 0 18 18" fill="none" xmlns="http://www.w3.org/2000/svg"><g clip-path="url(#clip0_3129_19150)" stroke="#475467" stroke-width="1.25" stroke-miterlimit="10" stroke-linecap="round" stroke-linejoin="round"><path d="M4.5 4.5H13.5V3.75002C13.5 2.25005 12.9316 1.50006 10.8 1.50006L7.2 1.5C5.06842 1.5 4.5 2.25005 4.5 3.75002V4.5Z"/><path d="M12.5 12V13.7727C12.5 15.5909 11.625 16.5 9.875 16.5H7.6875C6.375 16.5 5.5 15.5909 5.5 13.7727L5.5 12H12.5Z"/><path d="M16.5 7.22727V11.7727C16.5 13.5909 15.6667 14.5 14 14.5H12.75V12H5.25V14.5H4C2.33333 14.5 1.5 13.5909 1.5 11.7727V7.22727C1.5 5.40909 2.33333 4.5 4 4.5H14C15.6667 4.5 16.5 5.40909 16.5 7.22727Z"/><path d="M14 12H12.79H4"/><path d="M4.5 8.5H7.5"/></g><defs><clipPath id="clip0_3129_19150"><path fill="#fff" d="M0 0H18V18H0z"/></clipPath></defs></svg>