<svg width="32" height="32" viewBox="0 0 32 32" xmlns="http://www.w3.org/2000/svg"><g clip-path="url(#clip0_4259_1139)"><path d="M28.0566 14.2222C27.9989 14.2222 27.9417 14.2111 27.8881 14.1896L24.4464 12.8106C24.3633 12.7774 24.2916 12.7203 24.2404 12.6464C24.1892 12.5725 24.1607 12.4851 24.1584 12.3951C24.1562 12.305 24.1802 12.2162 24.2276 12.1398C24.275 12.0634 24.3436 12.0027 24.425 11.9653C24.7633 11.8084 25.0291 11.527 25.1676 11.1788C25.2379 11.0005 25.2726 10.81 25.2698 10.6182C25.2669 10.4264 25.2265 10.2371 25.1509 10.061C25.0753 9.88499 24.966 9.72566 24.8292 9.59217C24.6925 9.45869 24.5309 9.35366 24.3538 9.28311C23.9965 9.13999 23.5974 9.14547 23.2442 9.29836C22.8909 9.45124 22.6123 9.73903 22.4695 10.0986C22.3997 10.27 22.364 10.4535 22.3646 10.6388C22.3653 10.8241 22.4021 11.0074 22.4732 11.1783C22.5086 11.2618 22.5186 11.354 22.5021 11.4432C22.4855 11.5324 22.4431 11.6147 22.3802 11.6797C22.3173 11.7447 22.2366 11.7895 22.1485 11.8084C22.0603 11.8273 21.9685 11.8195 21.8848 11.786L18.4298 10.4033C18.3741 10.381 18.3232 10.3479 18.2801 10.3058C18.2371 10.2637 18.2027 10.2134 18.179 10.1579C18.1552 10.1024 18.1426 10.0427 18.1418 9.9823C18.141 9.92188 18.152 9.86188 18.1742 9.80575L19.2387 7.1098C18.9415 7.10813 18.6474 7.05028 18.3714 6.93927C18.0495 6.80908 17.7599 6.60909 17.5234 6.35351C17.2868 6.09794 17.109 5.79304 17.0027 5.46048C16.8963 5.12792 16.864 4.77586 16.9079 4.4293C16.9519 4.08273 17.0712 3.75017 17.2571 3.45524C17.4431 3.1603 17.6913 2.91023 17.9841 2.72278C18.2769 2.53532 18.6071 2.41509 18.9512 2.37062C19.2953 2.32615 19.6449 2.35854 19.9752 2.46547C20.3055 2.5724 20.6084 2.75127 20.8623 2.98935L21.9295 0.28973C21.9517 0.233598 21.9846 0.182419 22.0265 0.13912C22.0683 0.09582 22.1182 0.0612495 22.1733 0.037385C22.2284 0.0135204 22.2877 0.000830081 22.3477 3.9377e-05C22.4076 -0.000751327 22.4672 0.0103732 22.5229 0.0327769L31.1463 3.48441C31.4798 3.61835 31.7468 3.87994 31.889 4.21185C32.0312 4.54375 32.037 4.91889 31.905 5.25505L28.4815 13.9294C28.4482 14.0156 28.3898 14.0897 28.314 14.1419C28.2381 14.1942 28.1484 14.2221 28.0566 14.2222ZM25.546 12.2631L27.8005 13.165L31.0555 4.91765C31.097 4.80805 31.0945 4.68645 31.0484 4.57871C31.0023 4.47098 30.9162 4.38561 30.8086 4.34077L22.6096 1.05691L21.4101 4.1022C21.377 4.18622 21.3201 4.25856 21.2464 4.31018C21.1727 4.36179 21.0856 4.39039 20.9959 4.3924C20.9061 4.39441 20.8178 4.36975 20.7419 4.32148C20.6661 4.27322 20.606 4.2035 20.5693 4.12105C20.4512 3.86066 20.2598 3.64094 20.0188 3.4892C19.7778 3.33745 19.4979 3.26037 19.2137 3.26754C18.9296 3.2747 18.6538 3.3658 18.4206 3.5295C18.1875 3.69321 18.0072 3.9223 17.9023 4.18832C17.7974 4.45433 17.7724 4.74553 17.8304 5.02572C17.8885 5.30592 18.027 5.56276 18.2288 5.76432C18.4306 5.96588 18.6868 6.10327 18.9655 6.15942C19.2442 6.21557 19.5332 6.18801 19.7965 6.08015C19.8794 6.04579 19.9705 6.03676 20.0584 6.05419C20.1464 6.07163 20.2273 6.11475 20.291 6.17818C20.3548 6.24161 20.3986 6.32255 20.417 6.41089C20.4354 6.49923 20.4275 6.59108 20.3944 6.67496L19.1912 9.71749L21.4516 10.6226C21.4532 10.2343 21.5489 9.8522 21.7305 9.50963C21.912 9.16706 22.174 8.87434 22.4935 8.65694C22.813 8.43954 23.1804 8.30403 23.5638 8.2622C23.9472 8.22037 24.3349 8.27349 24.6932 8.41693C25.0515 8.56037 25.3697 8.78979 25.6199 9.08525C25.8701 9.3807 26.0449 9.73324 26.129 10.1122C26.2131 10.4912 26.204 10.8851 26.1025 11.2597C26.001 11.6344 25.8101 11.9783 25.5465 12.2617L25.546 12.2631Z"/><path d="M21.7789 18.6667C21.6613 18.6673 21.5483 18.621 21.4648 18.5381C21.3812 18.4552 21.3339 18.3424 21.3333 18.2245C21.3328 18.1066 21.3789 17.9933 21.4616 17.9096C21.5444 17.8258 21.6569 17.7784 21.7745 17.7778H21.7789C21.8965 17.7778 22.0092 17.8247 22.0924 17.908C22.1755 17.9914 22.2222 18.1044 22.2222 18.2223C22.2222 18.3401 22.1755 18.4532 22.0924 18.5365C22.0092 18.6199 21.8965 18.6667 21.7789 18.6667Z"/><path d="M21.7789 18.6667C21.6613 18.6673 21.5483 18.621 21.4648 18.5381C21.3812 18.4552 21.3339 18.3424 21.3333 18.2245C21.3328 18.1066 21.3789 17.9933 21.4616 17.9096C21.5444 17.8258 21.6569 17.7784 21.7745 17.7778H21.7789C21.8965 17.7778 22.0092 17.8247 22.0924 17.908C22.1755 17.9914 22.2222 18.1044 22.2222 18.2223C22.2222 18.3401 22.1755 18.4532 22.0924 18.5365C22.0092 18.6199 21.8965 18.6667 21.7789 18.6667Z" stroke="#6C7685"/><path d="M21.7778 18.6667C21.6604 18.6667 21.5477 18.6203 21.4645 18.5375C21.3812 18.4548 21.3341 18.3424 21.3334 18.2251C21.3328 18.1448 21.354 18.066 21.3947 17.9968C21.4354 17.9277 21.4941 17.8708 21.5645 17.8323C21.6349 17.7938 21.7145 17.7751 21.7947 17.7782C21.8748 17.7812 21.9527 17.8059 22.02 17.8496C22.0873 17.8933 22.1415 17.9545 22.1768 18.0265C22.2122 18.0985 22.2273 18.1788 22.2207 18.2587C22.2141 18.3387 22.186 18.4154 22.1393 18.4806C22.0926 18.5459 22.0291 18.5973 21.9556 18.6294C21.8996 18.6542 21.839 18.6669 21.7778 18.6667Z"/><path d="M21.7778 18.6667C21.6604 18.6667 21.5477 18.6203 21.4645 18.5375C21.3812 18.4548 21.3341 18.3424 21.3334 18.2251C21.3328 18.1448 21.354 18.066 21.3947 17.9968C21.4354 17.9277 21.4941 17.8708 21.5645 17.8323C21.6349 17.7938 21.7145 17.7751 21.7947 17.7782C21.8748 17.7812 21.9527 17.8059 22.02 17.8496C22.0873 17.8933 22.1415 17.9545 22.1768 18.0265C22.2122 18.0985 22.2273 18.1788 22.2207 18.2587C22.2141 18.3387 22.186 18.4154 22.1393 18.4806C22.0926 18.5459 22.0291 18.5973 21.9556 18.6294C21.8996 18.6542 21.839 18.6669 21.7778 18.6667Z" stroke="#6C7685"/><path d="M25.0778 31.9999H1.59745C1.17445 32 0.76868 31.8323 0.46919 31.5336C0.169701 31.2349 0.000959716 30.8295 0 30.4065V6.9221C0.00167848 6.49974 0.170794 6.09528 0.470258 5.79743C0.769722 5.49958 1.17509 5.33265 1.59745 5.33325H13.3331C13.4532 5.33325 13.5684 5.38097 13.6534 5.46591C13.7383 5.55085 13.786 5.66605 13.786 5.78618V10.4821C13.7864 10.5714 13.7603 10.6589 13.7111 10.7334C13.6618 10.808 13.5916 10.8663 13.5093 10.9011C13.427 10.9358 13.3363 10.9455 13.2485 10.9288C13.1607 10.9121 13.0799 10.8698 13.0161 10.8073C12.6518 10.4549 12.1641 10.259 11.6573 10.2615C11.1374 10.2615 10.6388 10.468 10.2712 10.8356C9.90358 11.2033 9.69705 11.7018 9.69705 12.2217C9.69705 12.7416 9.90358 13.2402 10.2712 13.6078C10.6388 13.9755 11.1374 14.182 11.6573 14.182C12.1638 14.1851 12.6514 13.99 13.0161 13.6385C13.0799 13.5759 13.1607 13.5337 13.2485 13.517C13.3363 13.5003 13.427 13.5099 13.5093 13.5447C13.5916 13.5795 13.6618 13.6378 13.7111 13.7123C13.7603 13.7869 13.7864 13.8743 13.786 13.9637V18.2021H17.1784C16.9732 17.7646 16.8817 17.2823 16.9125 16.7999C16.9433 16.3176 17.0953 15.8509 17.3545 15.443C17.6138 15.0351 17.9718 14.6992 18.3954 14.4665C18.8189 14.2338 19.2944 14.1118 19.7777 14.1118C20.261 14.1118 20.7365 14.2338 21.1601 14.4665C21.5837 14.6992 21.9417 15.0351 22.2009 15.443C22.4601 15.8509 22.6122 16.3176 22.643 16.7999C22.6738 17.2823 22.5823 17.7646 22.377 18.2021H26.2137C26.3339 18.2021 26.4491 18.2498 26.534 18.3348C26.6189 18.4197 26.6667 18.5349 26.6667 18.655V30.4065C26.6669 30.8284 26.4997 31.2332 26.2018 31.5319C25.904 31.8306 25.4997 31.999 25.0778 31.9999ZM1.59745 6.2391C1.41526 6.23825 1.24016 6.30967 1.11052 6.43769C0.980881 6.56572 0.90728 6.73991 0.905843 6.9221V30.4065C0.906682 30.5893 0.979947 30.7643 1.10958 30.8932C1.23922 31.0221 1.41466 31.0943 1.59745 31.0941H25.0778C25.2595 31.0932 25.4334 31.0204 25.5614 30.8915C25.6895 30.7626 25.7612 30.5882 25.7608 30.4065V19.1057H21.5269C21.4382 19.1056 21.3515 19.0795 21.2776 19.0306C21.2036 18.9817 21.1456 18.9122 21.1108 18.8306C21.0759 18.7491 21.0658 18.6591 21.0817 18.5718C21.0975 18.4846 21.1386 18.4039 21.1999 18.3398C21.4203 18.1077 21.5804 17.8251 21.6664 17.5168C21.7524 17.2084 21.7615 16.8837 21.6931 16.5711C21.6246 16.2584 21.4807 15.9672 21.2737 15.723C21.0668 15.4788 20.8032 15.289 20.506 15.1702C20.2088 15.0513 19.887 15.007 19.5688 15.0412C19.2505 15.0754 18.9455 15.187 18.6803 15.3663C18.4152 15.5456 18.1979 15.787 18.0476 16.0696C17.8973 16.3522 17.8184 16.6673 17.8179 16.9874C17.8135 17.4907 18.0089 17.9751 18.3614 18.3344C18.4238 18.398 18.466 18.4786 18.4828 18.566C18.4996 18.6535 18.4902 18.744 18.4558 18.8262C18.4215 18.9083 18.3636 18.9786 18.2896 19.028C18.2155 19.0775 18.1285 19.1041 18.0394 19.1043H13.3331C13.213 19.1043 13.0978 19.0566 13.0128 18.9717C12.9279 18.8867 12.8802 18.7715 12.8802 18.6514V14.8161C12.4434 15.0204 11.9621 15.1112 11.4809 15.08C10.9998 15.0489 10.5342 14.8969 10.1274 14.6381C9.72053 14.3792 9.38558 14.0219 9.15353 13.5992C8.92147 13.1765 8.79982 12.7021 8.79982 12.2199C8.79982 11.7377 8.92147 11.2633 9.15353 10.8406C9.38558 10.418 9.72053 10.0606 10.1274 9.8018C10.5342 9.54295 10.9998 9.39093 11.4809 9.35981C11.9621 9.3287 12.4434 9.41949 12.8802 9.62378V6.2391H1.59745Z"/><path d="M13.7778 24.0001C13.6599 24.0001 13.5469 23.9471 13.4635 23.8528C13.3802 23.7586 13.3334 23.6307 13.3334 23.4974V18.2833C13.333 18.2173 13.3442 18.1518 13.3662 18.0907C13.3883 18.0296 13.4208 17.974 13.4618 17.927C13.5447 17.8322 13.6575 17.7786 13.7753 17.7778C13.8932 17.7771 14.0065 17.8294 14.0903 17.9231C14.1741 18.0169 14.2216 18.1444 14.2222 18.2777V23.4949C14.2225 23.5611 14.2112 23.6267 14.189 23.688C14.1668 23.7493 14.1341 23.805 14.0928 23.8519C14.0515 23.8989 14.0024 23.9361 13.9484 23.9616C13.8943 23.987 13.8363 24.0001 13.7778 24.0001Z"/><path d="M13.7778 32.0001C13.6599 32.0001 13.5469 31.9471 13.4635 31.8529C13.3802 31.7587 13.3333 31.6309 13.3333 31.4976V26.2803C13.3333 26.147 13.3802 26.0192 13.4635 25.925C13.5469 25.8308 13.6599 25.7778 13.7778 25.7778C13.8957 25.7778 14.0087 25.8308 14.0921 25.925C14.1754 26.0192 14.2222 26.147 14.2222 26.2803V31.4976C14.2222 31.6309 14.1754 31.7587 14.0921 31.8529C14.0087 31.9471 13.8957 32.0001 13.7778 32.0001Z"/><path d="M13.7183 18.6667H8.50391C8.37026 18.6667 8.24209 18.6199 8.14759 18.5365C8.05309 18.4532 8 18.3401 8 18.2223C8 18.1044 8.05309 17.9914 8.14759 17.908C8.24209 17.8247 8.37026 17.7778 8.50391 17.7778H13.7183C13.852 17.7778 13.9801 17.8247 14.0746 17.908C14.1691 17.9914 14.2222 18.1044 14.2222 18.2223C14.2222 18.3401 14.1691 18.4532 14.0746 18.5365C13.9801 18.6199 13.852 18.6667 13.7183 18.6667Z"/><path d="M4.90277 18.6667H0.430559C0.316368 18.6667 0.206853 18.6199 0.126108 18.5365C0.0453623 18.4532 0 18.3401 0 18.2223C0 18.1044 0.0453623 17.9914 0.126108 17.908C0.206853 17.8247 0.316368 17.7778 0.430559 17.7778H4.90277C5.01697 17.7778 5.12648 17.8247 5.20723 17.908C5.28797 17.9914 5.33333 18.1044 5.33333 18.2223C5.33333 18.3401 5.28797 18.4532 5.20723 18.5365C5.12648 18.6199 5.01697 18.6667 4.90277 18.6667Z"/><path d="M7.10939 23.1112C6.58568 23.1113 6.07354 22.9348 5.63698 22.6036C5.20042 22.2725 4.85881 21.8013 4.65483 21.2491C4.45086 20.6969 4.39357 20.0881 4.49014 19.4989C4.5867 18.9096 4.83283 18.366 5.19776 17.936C5.27594 17.8457 5.38206 17.7945 5.49306 17.7933C5.60407 17.7922 5.71099 17.8412 5.79059 17.9298C5.87018 18.0184 5.91603 18.1393 5.91816 18.2664C5.92029 18.3935 5.87853 18.5163 5.80196 18.6084C5.55256 18.9023 5.38435 19.2739 5.31833 19.6766C5.25231 20.0794 5.29142 20.4955 5.43077 20.873C5.57012 21.2505 5.80353 21.5725 6.10185 21.799C6.40017 22.0255 6.75017 22.1464 7.10813 22.1465C7.59208 22.1465 8.05626 21.9266 8.39878 21.5352C8.7413 21.1438 8.93417 20.6128 8.93506 20.0588C8.93843 19.5184 8.7552 18.9983 8.42524 18.6117C8.38387 18.5672 8.35078 18.5136 8.32796 18.4541C8.30513 18.3946 8.29304 18.3305 8.29242 18.2655C8.2918 18.2005 8.30265 18.1361 8.32432 18.076C8.346 18.0159 8.37805 17.9615 8.41856 17.916C8.45906 17.8705 8.50719 17.8348 8.56004 17.8111C8.61289 17.7874 8.66938 17.7761 8.72612 17.778C8.78286 17.78 8.83868 17.795 8.89022 17.8222C8.94177 17.8494 8.98798 17.8883 9.02607 17.9364C9.51153 18.5036 9.78168 19.2672 9.77775 20.0612C9.77597 20.8703 9.49413 21.6456 8.99398 22.2173C8.49383 22.789 7.81615 23.1104 7.10939 23.1112Z"/><path d="M15.2335 27.5555C14.5726 27.5557 13.9377 27.2859 13.464 26.8035C13.4244 26.7655 13.3924 26.7196 13.37 26.6685C13.3476 26.6174 13.3352 26.5621 13.3335 26.506C13.3319 26.4498 13.341 26.3938 13.3603 26.3413C13.3796 26.2889 13.4088 26.241 13.4461 26.2005C13.4833 26.1601 13.528 26.1278 13.5773 26.1057C13.6267 26.0836 13.6798 26.0721 13.7335 26.0718C13.7872 26.0715 13.8404 26.0825 13.89 26.1041C13.9396 26.1257 13.9845 26.1575 14.0222 26.1975C14.2673 26.4447 14.5762 26.6112 14.9108 26.6762C15.2454 26.7413 15.5909 26.7022 15.9044 26.5637C16.2179 26.4252 16.4858 26.1935 16.6747 25.8971C16.8637 25.6008 16.9654 25.2529 16.9674 24.8966C16.9694 24.5403 16.8714 24.1913 16.6857 23.8927C16.5 23.5941 16.2348 23.3591 15.9228 23.2168C15.6108 23.0746 15.2658 23.0313 14.9305 23.0924C14.5952 23.1534 14.2844 23.3161 14.0366 23.5603C13.9816 23.6219 13.9103 23.6647 13.8318 23.6833C13.7533 23.7019 13.6713 23.6954 13.5963 23.6646C13.5214 23.6339 13.457 23.5803 13.4115 23.5108C13.3659 23.4413 13.3413 23.3591 13.3409 23.2749V23.2711C13.341 23.2145 13.3519 23.1586 13.373 23.1066C13.3942 23.0546 13.4251 23.0075 13.464 22.9683C13.7641 22.6656 14.1306 22.4446 14.5312 22.3248C14.9319 22.2049 15.3546 22.1898 15.7621 22.2808C16.1697 22.3718 16.5497 22.5661 16.8688 22.8467C17.1879 23.1273 17.4364 23.4856 17.5924 23.8902C17.7485 24.2947 17.8074 24.7332 17.7639 25.1671C17.7204 25.6011 17.5759 26.0172 17.343 26.379C17.1101 26.7409 16.796 27.0373 16.4282 27.2425C16.0604 27.4476 15.6502 27.5551 15.2335 27.5555Z"/></g><defs><clipPath id="clip0_4259_1139"><path fill="#fff" d="M0 0H32V32H0z"/></clipPath></defs></svg>