<svg xmlns="http://www.w3.org/2000/svg" width="24" height="24" viewBox="0 0 24 24" fill="none"><path d="M17 18.4301H13L8.54999 21.39C7.88999 21.83 7 21.3601 7 20.5601V18.4301C4 18.4301 2 16.4301 2 13.4301V7.42999C2 4.42999 4 2.42999 7 2.42999H17C20 2.42999 22 4.42999 22 7.42999V13.4301C22 16.4301 20 18.4301 17 18.4301Z"/><path d="M11.9998 11.3601V11.1501C11.9998 10.4701 12.4198 10.1101 12.8398 9.82013C13.2498 9.54013 13.6597 9.18014 13.6597 8.52014C13.6597 7.60014 12.9198 6.86011 11.9998 6.86011C11.0798 6.86011 10.3398 7.60014 10.3398 8.52014"/><path d="M11.9951 13.75H12.0041"/></svg>