<svg width="18" height="18" viewBox="0 0 18 18" fill="none" xmlns="http://www.w3.org/2000/svg"><g id="Group 27" stroke="#475467" stroke-width="1.25" stroke-linecap="round" stroke-linejoin="round"><path id="Vector" d="M6.5025 10.5H3C2.175 10.5 1.5 11.175 1.5 12V16.5H6.5025V10.5Z" stroke-miterlimit="10"/><path id="Vector_2" d="M9.99759 7.5H7.99509C7.17012 7.5 6.49512 8.175 6.49512 9V16.5H11.4976V9C11.4976 8.175 10.8301 7.5 9.99759 7.5Z" stroke-miterlimit="10"/><path id="Vector_3" d="M15.0001 12.75H11.4976V16.5H16.5001V14.25C16.5001 13.425 15.8251 12.75 15.0001 12.75Z" stroke-miterlimit="10"/><path id="Vector_4" d="M9.39018 1.55255L9.78768 2.34754C9.84018 2.46004 9.98268 2.56504 10.1027 2.58004L10.8227 2.70005C11.2802 2.77505 11.3927 3.11254 11.0627 3.43504L10.5002 3.99754C10.4027 4.09504 10.3502 4.27504 10.3802 4.40254L10.5377 5.09255C10.6652 5.64005 10.3727 5.85005 9.89268 5.56505L9.21768 5.16755C9.09768 5.09255 8.89518 5.09255 8.77518 5.16755L8.10018 5.56505C7.62018 5.85005 7.32766 5.64005 7.45516 5.09255L7.61268 4.40254C7.64268 4.27504 7.59018 4.08754 7.49267 3.99754L6.93767 3.44254C6.60767 3.11254 6.71267 2.78254 7.17767 2.70754L7.89768 2.58755C8.01768 2.56505 8.16018 2.46005 8.21268 2.35505L8.61018 1.56004C8.82768 1.12504 9.17268 1.12505 9.39018 1.55255Z"/></g></svg>