<svg width="32" height="32" viewBox="0 0 32 32" xmlns="http://www.w3.org/2000/svg"><g clip-path="url(#clip0_3984_128797)"><path d="M18.7963 17.6694C18.6163 17.7321 18.4834 17.886 18.4478 18.0732C18.4121 18.2604 18.4789 18.4524 18.6232 18.5769C18.7675 18.7015 18.9672 18.7395 19.1472 18.6769C23.5768 17.1417 26.2504 12.6323 25.472 8.00925C24.6936 3.38619 20.6908 0.000976562 16.0027 0.000976562C11.3145 0.000976562 7.31169 3.38619 6.53329 8.00925C5.75489 12.6323 8.42849 17.1417 12.8581 18.6769C13.1365 18.7736 13.4406 18.6264 13.5373 18.3481C13.6341 18.0697 13.4869 17.7656 13.2085 17.6689C12.2864 17.3471 11.4266 16.869 10.6667 16.2555V15.6747C10.6645 14.011 11.6889 12.5184 13.2421 11.9222C14.8944 13.0928 17.1056 13.0928 18.7579 11.9222C20.3111 12.5184 21.3355 14.011 21.3333 15.6747V16.2577C20.5747 16.87 19.7166 17.3476 18.7963 17.6694ZM12.2667 8.00005C12.2667 5.93819 13.9381 4.26672 16 4.26672C18.0619 4.26672 19.7333 5.93819 19.7333 8.00005C19.7333 10.0619 18.0619 11.7334 16 11.7334C13.9391 11.731 12.269 10.0609 12.2667 8.00005ZM19.6267 11.1323C21.3035 9.19567 21.164 6.28357 19.3098 4.51603C17.4556 2.74849 14.5401 2.74849 12.6859 4.51603C10.8317 6.28357 10.6923 9.19567 12.3691 11.1323C10.7986 11.9352 9.75695 13.4952 9.61707 15.2534C6.57676 11.8269 6.78426 6.6112 10.0872 3.43708C13.3901 0.26296 18.6099 0.26296 21.9128 3.43708C25.2157 6.6112 25.4232 11.8269 22.3829 15.2534C22.2426 13.4941 21.199 11.9338 19.6267 11.1323Z"/><path d="M11.4133 31.7927C11.7395 32.0333 12.1743 32.0667 12.5333 31.8786L16.0037 30.0754L19.4736 31.8791C19.8334 32.0662 20.2682 32.033 20.5955 31.7935C20.9228 31.554 21.086 31.1496 21.0165 30.75L20.3573 26.9463L23.1467 24.2578C23.4397 23.9753 23.5464 23.5506 23.4218 23.1631C23.2971 22.7757 22.9628 22.4929 22.56 22.4343L18.688 21.878L16.96 18.4044C16.7806 18.0407 16.4093 17.8113 16.0037 17.8135C15.5994 17.812 15.2293 18.0406 15.0496 18.4028L13.312 21.878L9.44853 22.4338C9.04551 22.4922 8.71096 22.7751 8.58627 23.1628C8.46157 23.5504 8.5685 23.9753 8.86187 24.2578L11.6523 26.9463L10.9925 30.75C10.9221 31.1494 11.0854 31.5541 11.4133 31.7927ZM9.6 23.4898L13.7397 22.894C13.9127 22.8692 14.0625 22.7612 14.1408 22.605L16.0032 18.8802L17.8576 22.6039C17.9357 22.7607 18.0858 22.8691 18.2592 22.894L22.4075 23.4898L19.4133 26.3746C19.286 26.4974 19.2278 26.6754 19.2581 26.8498L19.9659 30.9335L16.2501 29.0023C16.096 28.9222 15.9125 28.9222 15.7584 29.0023L12.0421 30.9335L12.7499 26.8508C12.7802 26.6765 12.722 26.4985 12.5947 26.3756L9.6 23.4898Z"/><path d="M2.50666 23.5852L1.98559 26.598C1.9353 26.8789 2.01186 27.1676 2.19471 27.3867C2.37756 27.6058 2.64797 27.7327 2.93333 27.7335C3.08913 27.7332 3.24259 27.6955 3.38079 27.6236L6.13333 26.1911L8.88426 27.6268C9.05327 27.7148 9.25641 27.706 9.41715 27.6036C9.57789 27.5013 9.67182 27.321 9.66355 27.1306C9.65528 26.9402 9.54607 26.7687 9.37706 26.6807L6.37973 25.118C6.22531 25.0375 6.04134 25.0375 5.88693 25.118L3.07253 26.5841L3.60586 23.4908C3.63616 23.3165 3.57802 23.1384 3.45066 23.0156L1.18559 20.8289L4.31999 20.3788C4.49307 20.3538 4.64293 20.2456 4.72106 20.0892L6.13333 17.2657L7.54026 20.0887C7.61846 20.2456 7.76881 20.3541 7.94239 20.3788L11.2912 20.8588C11.5828 20.9005 11.853 20.6979 11.8947 20.4063C11.9363 20.1147 11.7337 19.8445 11.4421 19.8028L8.37013 19.3628L6.99573 16.6044C6.83291 16.2762 6.49753 16.0693 6.13119 16.0711H6.12799C5.76566 16.0703 5.43454 16.276 5.27466 16.6012L3.89333 19.3628L0.830392 19.8023C0.463706 19.8511 0.157733 20.1064 0.0438642 20.4583C-0.0700048 20.8103 0.0284922 21.1964 0.297059 21.4508L2.50666 23.5852Z"/><path d="M31.952 20.4566C31.8407 20.1065 31.5375 19.8519 31.1733 19.8028L28.1067 19.3628L26.7285 16.6017C26.5692 16.2757 26.2381 16.0688 25.8752 16.0684H25.872C25.5055 16.0664 25.1698 16.2734 25.0069 16.6017L23.6331 19.3596L20.5605 19.7996C20.3719 19.8265 20.212 19.9521 20.141 20.1289C20.07 20.3058 20.0988 20.507 20.2165 20.6569C20.3341 20.8068 20.5228 20.8825 20.7115 20.8556L24.0608 20.3756C24.2344 20.3508 24.3847 20.2424 24.4629 20.0854L25.8667 17.2657L27.2763 20.0892C27.3544 20.2456 27.5043 20.3538 27.6773 20.3788L30.8101 20.8284L28.5451 23.015C28.4177 23.1379 28.3596 23.3159 28.3899 23.4902L28.9259 26.5836L26.1115 25.1158C25.9571 25.0354 25.7731 25.0354 25.6187 25.1158L22.6213 26.6785C22.4523 26.7665 22.3431 26.938 22.3348 27.1284C22.3266 27.3188 22.4205 27.4991 22.5812 27.6015C22.742 27.7038 22.9451 27.7127 23.1141 27.6246L25.8667 26.191L28.6187 27.6268C28.9444 27.796 29.338 27.7656 29.6339 27.5484C29.9298 27.3312 30.0767 26.9648 30.0128 26.6033L29.4933 23.5852L31.7045 21.4518C31.9721 21.1956 32.0685 20.8083 31.952 20.4566Z"/></g><defs><clipPath id="clip0_3984_128797"><path fill="#fff" d="M0 0H32V32H0z"/></clipPath></defs></svg>