<svg width="20" height="21" viewBox="0 0 20 21" fill="none" xmlns="http://www.w3.org/2000/svg"><path d="M15.8081 18.8332H4.14145C1.64145 18.8332 1.64145 17.7082 1.64145 16.3332V15.4998C1.64145 15.0415 2.01645 14.6665 2.47478 14.6665H17.4748C17.9331 14.6665 18.3081 15.0415 18.3081 15.4998V16.3332C18.3081 17.7082 18.3081 18.8332 15.8081 18.8332Z"/><path d="M17.2671 11.3332V14.6665H2.72543V11.3332C2.72543 8.13317 4.98377 5.45817 7.9921 4.8165C8.44208 4.7165 8.90875 4.6665 9.39208 4.6665H10.6004C11.0837 4.6665 11.5588 4.7165 12.0088 4.8165C15.0171 5.4665 17.2671 8.13317 17.2671 11.3332Z"/><path d="M12.0833 4.24984C12.0833 4.44984 12.0583 4.63317 12.0083 4.8165C11.5583 4.7165 11.0833 4.6665 10.6 4.6665H9.39166C8.90832 4.6665 8.44166 4.7165 7.99166 4.8165C7.94166 4.63317 7.91666 4.44984 7.91666 4.24984C7.91666 3.09984 8.84999 2.1665 9.99999 2.1665C11.15 2.1665 12.0833 3.09984 12.0833 4.24984Z"/><path d="M12.5 9.6665H7.5"/></svg>