<svg width="32" height="32" viewBox="0 0 32 32" xmlns="http://www.w3.org/2000/svg"><path d="M17.8104 10.6242C18.0177 10.4169 18.3538 10.4169 18.5613 10.6242C18.7686 10.8314 18.7686 11.1675 18.5612 11.3749C17.8551 12.0809 16.9277 12.4339 16.0003 12.4339C15.0728 12.4339 14.1455 12.0809 13.4393 11.3749C13.232 11.1677 13.232 10.8315 13.4393 10.6242C13.6467 10.4169 13.9827 10.4169 14.1901 10.6242C15.1881 11.6224 16.8123 11.6224 17.8104 10.6242Z"/><path d="M13.1445 7.42621C13.4377 7.42621 13.6753 7.18856 13.6753 6.8954C13.6753 6.60224 13.4377 6.36458 13.1445 6.36458C12.8514 6.36458 12.6137 6.60224 12.6137 6.8954C12.6137 7.18856 12.8514 7.42621 13.1445 7.42621Z"/><path d="M19.387 6.8954C19.387 7.18856 19.1494 7.42621 18.8562 7.42621C18.5631 7.42621 18.3254 7.18856 18.3254 6.8954C18.3254 6.60224 18.5631 6.36458 18.8562 6.36458C19.1494 6.36458 19.387 6.60224 19.387 6.8954Z"/><path fill-rule="evenodd" clip-rule="evenodd" d="M8.13824 8.737C8.13824 4.40194 11.6651 0.875 16.0002 0.875C20.3353 0.875 23.8621 4.40187 23.8621 8.737C23.8621 13.0721 20.3352 16.5989 16.0002 16.5989C11.6651 16.5989 8.13824 13.0721 8.13824 8.737ZM9.19986 8.737C9.19986 12.4867 12.2506 15.5373 16.0002 15.5373C19.7499 15.5373 22.8005 12.4867 22.8005 8.737C22.8005 4.98731 19.7498 1.93662 16.0002 1.93662C12.2506 1.93662 9.19986 4.98725 9.19986 8.737Z"/><path d="M21.9525 25.0903H26.3237C26.6168 25.0903 26.8545 25.328 26.8545 25.6211C26.8545 25.9142 26.6169 26.1519 26.3237 26.1519H21.9525C21.6593 26.1519 21.4217 25.9142 21.4217 25.6211C21.4217 25.328 21.6592 25.0903 21.9525 25.0903Z"/><path d="M26.994 22.4887C27.2872 22.4887 27.5248 22.2511 27.5248 21.9579C27.5248 21.6647 27.2872 21.4271 26.994 21.4271C26.7009 21.4271 26.4632 21.6647 26.4632 21.9579C26.4632 22.2511 26.7009 22.4887 26.994 22.4887Z"/><path d="M21.8131 21.9579C21.8131 22.2511 21.5755 22.4887 21.2823 22.4887C20.9892 22.4887 20.7515 22.2511 20.7515 21.9579C20.7515 21.6647 20.9892 21.4271 21.2823 21.4271C21.5755 21.4271 21.8131 21.6647 21.8131 21.9579Z"/><path fill-rule="evenodd" clip-rule="evenodd" d="M16.276 23.2612C16.276 18.9261 19.8029 15.3993 24.138 15.3993C28.4731 15.3993 32 18.9261 32 23.2612C32 27.5964 28.4731 31.1232 24.138 31.1232C19.803 31.1232 16.276 27.5964 16.276 23.2612ZM17.3377 23.2613C17.3377 27.011 20.3884 30.0617 24.138 30.0617C27.8877 30.0617 30.9384 27.011 30.9384 23.2613C30.9384 19.5116 27.8877 16.461 24.138 16.461C20.3884 16.461 17.3377 19.5116 17.3377 23.2613Z"/><path d="M10.4229 25.698C9.01074 24.2859 6.71324 24.2858 5.30099 25.698C5.09368 25.9053 5.09368 26.2414 5.30099 26.4486C5.50837 26.6559 5.84443 26.6559 6.05174 26.4486C7.04987 25.4504 8.67418 25.4505 9.67218 26.4486C9.77587 26.5523 9.91174 26.6041 10.0476 26.6041C10.1834 26.6041 10.3192 26.5523 10.4229 26.4486C10.6302 26.2414 10.6302 25.9053 10.4229 25.698Z"/><path d="M10.7177 22.4887C11.0108 22.4887 11.2485 22.2511 11.2485 21.9579C11.2485 21.6647 11.0108 21.4271 10.7177 21.4271C10.4245 21.4271 10.1868 21.6647 10.1868 21.9579C10.1868 22.2511 10.4245 22.4887 10.7177 22.4887Z"/><path d="M5.53678 21.9579C5.53678 22.2511 5.29912 22.4887 5.00596 22.4887C4.71281 22.4887 4.47515 22.2511 4.47515 21.9579C4.47515 21.6647 4.71281 21.4271 5.00596 21.4271C5.29912 21.4271 5.53678 21.6647 5.53678 21.9579Z"/><path fill-rule="evenodd" clip-rule="evenodd" d="M7.862 15.3993C3.52694 15.3993 0 18.9262 0 23.2612C0 27.5963 3.52694 31.1232 7.862 31.1232C12.1971 31.1232 15.7239 27.5963 15.7239 23.2612C15.7239 18.9262 12.1971 15.3993 7.862 15.3993ZM7.862 30.0617C4.11231 30.0617 1.06162 27.011 1.06162 23.2613C1.06162 19.5116 4.11231 16.461 7.862 16.461C11.6116 16.461 14.6623 19.5116 14.6623 23.2613C14.6623 27.011 11.6118 30.0617 7.862 30.0617Z"/></svg>