<svg width="20" height="20" viewBox="0 0 20 20" fill="none" xmlns="http://www.w3.org/2000/svg"><path d="M2.5 7.75L2.5 12.25C2.5 16 4 17.5 7.75 17.5L12.25 17.5C16 17.5 17.5 16 17.5 12.25L17.5 7.75C17.5 4 16 2.5 12.25 2.5L7.75 2.5C4 2.5 2.5 4 2.5 7.75Z" stroke="#000" stroke-linecap="round" stroke-linejoin="round"/><path d="M5.12578 12.6777L8.05078 12.6777" stroke="#000" stroke-miterlimit="10" stroke-linecap="round" stroke-linejoin="round"/><path d="M13.4125 12.6777L14.875 12.6777" stroke="#000" stroke-miterlimit="10" stroke-linecap="round" stroke-linejoin="round"/><path d="M10.0007 12.4999C10.0007 13.4204 10.7469 14.1666 11.6673 14.1666C12.5878 14.1666 13.334 13.4204 13.334 12.4999C13.334 11.5794 12.5878 10.8333 11.6673 10.8333C10.7469 10.8333 10.0007 11.5794 10.0007 12.4999Z" stroke="#000" stroke-miterlimit="10" stroke-linecap="round" stroke-linejoin="round"/><path d="M5.12539 7.32227L6.58789 7.32227" stroke="#000" stroke-miterlimit="10" stroke-linecap="round" stroke-linejoin="round"/><path d="M11.95 7.32227L14.875 7.32227" stroke="#000" stroke-miterlimit="10" stroke-linecap="round" stroke-linejoin="round"/><path d="M6.66667 7.49991C6.66667 8.42037 7.41288 9.16659 8.33333 9.16659C9.25378 9.16659 10 8.42037 10 7.49991C10 6.57944 9.25378 5.83325 8.33333 5.83325C7.41288 5.83325 6.66667 6.57944 6.66667 7.49991Z" stroke="#000" stroke-miterlimit="10" stroke-linecap="round" stroke-linejoin="round"/></svg>