<svg xmlns="http://www.w3.org/2000/svg" width="16" height="16" viewBox="0 0 16 16"><g clip-path="url(#clip0_7607_240491)"><path d="M8 10.8C6.5 10.8 5.2 9.49997 5.2 7.99997C5.2 6.49997 6.5 5.19997 8 5.19997C9.5 5.19997 10.8 6.49997 10.8 7.99997C10.8 9.49997 9.5 10.8 8 10.8ZM8 6.29997C7.1 6.29997 6.3 7.09997 6.3 7.99997C6.3 8.89997 7.1 9.69997 8 9.69997C8.9 9.69997 9.7 8.89997 9.7 7.99997C9.7 7.09997 8.9 6.29997 8 6.29997ZM10.4 15.6C9.8 15.6 9.2 15.3 8.8 14.7C8.3 13.9 7.6 13.9 7.2 14.7C7 15.1 6.6 15.4 6.1 15.5C5.6 15.6 5.1 15.6 4.7 15.3L3.4 14.6C2.9 14.3 2.6 13.9 2.5 13.4C2.4 12.9 2.4 12.4 2.7 11.9C2.9 11.5 3 11.2 2.9 11C2.8 10.8 2.5 10.7 2 10.7C0.9 10.7 0 9.79997 0 8.69997V7.29997C0 6.19997 0.9 5.29997 2 5.29997C2.4 5.29997 2.8 5.19997 2.9 4.99997C3 4.79997 2.9 4.49997 2.7 4.09997C2.4 3.59997 2.4 3.09997 2.5 2.59997C2.6 2.09997 3 1.69997 3.4 1.39997L4.7 0.699973C5.5 0.199973 6.6 0.499973 7.2 1.29997C7.7 2.09997 8.4 2.09997 8.8 1.29997C9.3 0.399973 10.4 0.0999729 11.3 0.699973L12.6 1.39997C13.1 1.69997 13.4 2.09997 13.5 2.59997C13.6 3.09997 13.6 3.59997 13.3 4.09997C13.1 4.49997 13 4.79997 13.1 4.99997C13.2 5.19997 13.5 5.29997 14 5.29997C15.1 5.29997 16 6.19997 16 7.29997V8.59997C16 9.69997 15.1 10.6 14 10.6C13.6 10.6 13.2 10.7 13.1 10.9C13 11.1 13 11.5 13.2 11.8C13.5 12.3 13.5 12.8 13.4 13.3C13.3 13.8 12.9 14.2 12.5 14.5L11.2 15.2C11 15.5 10.7 15.6 10.4 15.6ZM8 12.9C8.7 12.9 9.3 13.3 9.8 14.1C9.9 14.3 10 14.4 10.2 14.4C10.4 14.4 10.6 14.4 10.7 14.3L12 13.6C12.2 13.5 12.3 13.3 12.4 13.1C12.5 12.9 12.4 12.6 12.3 12.4C11.9 11.7 11.8 10.9 12.2 10.3C12.5 9.69997 13.2 9.39997 14.1 9.39997C14.6 9.39997 15 8.99997 15 8.49997V7.29997C15 6.79997 14.6 6.39997 14.1 6.39997C13.3 6.39997 12.6 6.09997 12.2 5.49997C11.8 4.89997 11.9 4.19997 12.3 3.39997C12.4 3.19997 12.4 2.99997 12.4 2.79997C12.3 2.59997 12.2 2.39997 12 2.29997L10.7 1.59997C10.4 1.39997 10 1.59997 9.8 1.89997C9.4 2.59997 8.7 3.09997 8 3.09997C7.3 3.09997 6.6 2.69997 6.2 1.89997C6.1 1.69997 6 1.59997 5.8 1.59997C5.6 1.59997 5.4 1.59997 5.3 1.69997L4 2.39997C3.8 2.49997 3.7 2.69997 3.6 2.89997C3.5 3.09997 3.6 3.39997 3.7 3.49997C4.1 4.29997 4.2 4.99997 3.8 5.59997C3.4 6.19997 2.8 6.49997 2 6.49997C1.5 6.49997 1.1 6.89997 1.1 7.39997V8.69997C1.1 9.19997 1.5 9.59997 2 9.59997C2.8 9.59997 3.5 9.89997 3.9 10.5C4.2 11.1 4.2 11.8 3.8 12.6C3.7 12.8 3.7 13 3.7 13.2C3.8 13.4 3.9 13.6 4.1 13.7L5.4 14.4C5.6 14.5 5.7 14.5 5.9 14.5C6.1 14.5 6.2 14.3 6.3 14.2C6.6 13.4 7.3 12.9 8 12.9Z"/></g><defs><clipPath id="clip0_7607_240491"><path d="M0 0H16V16H0z"/></clipPath></defs></svg>