<svg width="19" height="18" viewBox="0 0 19 18" fill="none" xmlns="http://www.w3.org/2000/svg"><g id="Filter" stroke-width="1.25" stroke-miterlimit="10" stroke-linecap="round" stroke-linejoin="round"><path id="Vector" d="M16.5 5.14999H12.3"/><path id="Vector_2" d="M5.3 5.14999H2.5"/><path id="Vector_3" d="M8.0999 7.6C9.453 7.6 10.5499 6.5031 10.5499 5.15C10.5499 3.7969 9.453 2.7 8.0999 2.7C6.7468 2.7 5.6499 3.7969 5.6499 5.15C5.6499 6.5031 6.7468 7.6 8.0999 7.6Z"/><path id="Vector_4" d="M16.5 12.85H13.7"/><path id="Vector_5" d="M6.7 12.85H2.5"/><path id="Vector_6" d="M10.9 15.3C12.2531 15.3 13.35 14.2031 13.35 12.85C13.35 11.4969 12.2531 10.4 10.9 10.4C9.54685 10.4 8.44995 11.4969 8.44995 12.85C8.44995 14.2031 9.54685 15.3 10.9 15.3Z"/></g></svg>