<svg width="18" height="18" viewBox="0 0 18 18" fill="none" xmlns="http://www.w3.org/2000/svg"><g id="heroicons-outline/share"><path id="Vector" d="M5.41291 8.18033C5.12471 7.66268 4.572 7.3125 3.9375 7.3125C3.00552 7.3125 2.25 8.06802 2.25 9C2.25 9.93198 3.00552 10.6875 3.9375 10.6875C4.572 10.6875 5.12471 10.3373 5.41291 9.81967M5.41291 8.18033C5.54803 8.42302 5.625 8.70252 5.625 9C5.625 9.29748 5.54803 9.57698 5.41291 9.81967M5.41291 8.18033L12.5871 4.19467M5.41291 9.81967L12.5871 13.8053M12.5871 13.8053C12.452 14.048 12.375 14.3275 12.375 14.625C12.375 15.557 13.1305 16.3125 14.0625 16.3125C14.9945 16.3125 15.75 15.557 15.75 14.625C15.75 13.693 14.9945 12.9375 14.0625 12.9375C13.428 12.9375 12.8753 13.2877 12.5871 13.8053ZM12.5871 4.19467C12.8753 4.71232 13.428 5.0625 14.0625 5.0625C14.9945 5.0625 15.75 4.30698 15.75 3.375C15.75 2.44302 14.9945 1.6875 14.0625 1.6875C13.1305 1.6875 12.375 2.44302 12.375 3.375C12.375 3.67248 12.452 3.95198 12.5871 4.19467Z" stroke-width="1.25" stroke-linecap="round" stroke-linejoin="round"/></g></svg>