<svg width="20" height="18" viewBox="0 0 20 18" xmlns="http://www.w3.org/2000/svg"><path d="M18.9499 6.96013C19.179 7.22198 19.3099 7.54929 19.3099 7.87659C19.3099 8.23663 19.179 8.53121 18.9499 8.79305L13.1893 14.8155C12.9274 15.0773 12.6001 15.2083 12.2401 15.2083C11.88 15.2083 11.5855 15.1101 11.3236 14.8482C11.0618 14.5864 10.9308 14.2918 10.9308 13.899V11.0187C9.03247 11.0515 7.69051 11.1497 6.87224 11.346C5.82486 11.6079 5.13752 12.0988 4.84294 12.7862C4.51563 13.5063 4.5811 14.5536 5.00659 15.9611C5.07206 16.2884 5.03933 16.5502 4.87567 16.8121C4.71202 17.0739 4.4829 17.2048 4.18833 17.2703C3.89375 17.3358 3.63191 17.303 3.37006 17.1066C2.58453 16.5502 1.96264 15.8956 1.50441 15.1101C0.784338 13.9972 0.457031 12.7535 0.457031 11.3788C0.457031 9.61132 0.947991 8.23663 1.96264 7.18925C2.81364 6.30552 4.12287 5.65091 5.82486 5.25814C7.13409 4.93083 8.83608 4.76718 10.9308 4.73445V1.85415C10.9308 1.49411 11.0618 1.19954 11.3236 0.93769C11.5855 0.675845 11.88 0.544922 12.2401 0.544922C12.6001 0.544922 12.9274 0.675845 13.1893 0.93769L18.9499 6.96013ZM18.1971 8.07298C18.2298 8.00752 18.2625 7.94205 18.2625 7.87659C18.2625 7.81113 18.2298 7.74567 18.1971 7.68021L12.4365 1.65776C12.3383 1.5923 12.2401 1.5923 12.1419 1.62503C12.011 1.6905 11.9782 1.75596 11.9782 1.85415V5.78183C9.818 5.78183 8.14874 5.88002 6.97044 6.07641C5.26844 6.33825 3.95921 6.86194 3.07548 7.61475C2.0281 8.49848 1.50441 9.74224 1.50441 11.3788C1.50441 12.4916 1.76626 13.5063 2.32268 14.39C2.71545 15.1101 3.27187 15.732 3.99194 16.2556C3.46825 14.3573 3.46825 12.9498 4.05741 11.9679C4.5811 11.1169 5.56302 10.5605 7.0359 10.2659C8.08328 10.0695 9.71981 9.97136 11.9782 9.97136V13.899C11.9782 14.03 12.011 14.0954 12.1419 14.1282C12.2401 14.1936 12.3383 14.1609 12.4365 14.0954L18.1971 8.07298Z"/></svg>