<svg width="41" height="40" viewBox="0 0 41 40" fill="none" xmlns="http://www.w3.org/2000/svg"><path d="M20.166 0C16.2104 0 12.3436 1.17298 9.05462 3.37061C5.76564 5.56823 3.20219 8.69181 1.68843 12.3463C0.174681 16.0009 -0.221385 20.0222 0.550319 23.9018C1.32202 27.7814 3.22684 31.3451 6.02389 34.1421C8.82094 36.9392 12.3846 38.844 16.2642 39.6157C20.1438 40.3874 24.1652 39.9913 27.8197 38.4776C31.4742 36.9638 34.5978 34.4004 36.7954 31.1114C38.993 27.8224 40.166 23.9556 40.166 20C40.1601 14.6975 38.0511 9.61382 34.3016 5.86437C30.5522 2.11492 25.4685 0.0058921 20.166 0ZM7.68637 11.3596L14.6429 8.75087C14.7498 8.71072 14.8636 8.69204 14.9778 8.69587C15.092 8.69971 15.2043 8.72599 15.3083 8.77322C15.4123 8.82046 15.5059 8.88771 15.584 8.97115C15.662 9.05459 15.7228 9.15258 15.7629 9.25952C15.8031 9.36646 15.8218 9.48026 15.8179 9.59443C15.8141 9.70859 15.7878 9.82088 15.7406 9.92489C15.6933 10.0289 15.6261 10.1226 15.5426 10.2006C15.4592 10.2786 15.3612 10.3394 15.2543 10.3796L8.29776 12.9883C8.08178 13.0693 7.84244 13.0613 7.63239 12.9659C7.42235 12.8705 7.25879 12.6956 7.17772 12.4796C7.09664 12.2636 7.10469 12.0243 7.20008 11.8142C7.29547 11.6042 7.47039 11.4406 7.68637 11.3596ZM7.99211 26.9565C7.30024 26.9565 6.63671 26.6817 6.14748 26.1924C5.65826 25.7032 5.38341 25.0397 5.38341 24.3478C5.38341 22.907 7.99211 20.8696 7.99211 20.8696C7.99211 20.8696 10.6008 22.907 10.6008 24.3478C10.6008 25.0397 10.326 25.7032 9.83674 26.1924C9.34751 26.6817 8.68398 26.9565 7.99211 26.9565ZM12.7747 14.7826C13.2047 14.7826 13.625 14.9101 13.9825 15.149C14.34 15.3878 14.6186 15.7274 14.7831 16.1246C14.9477 16.5218 14.9907 16.9589 14.9069 17.3806C14.823 17.8023 14.6159 18.1897 14.3119 18.4937C14.0079 18.7977 13.6205 19.0048 13.1988 19.0887C12.7771 19.1725 12.34 19.1295 11.9428 18.965C11.5456 18.8004 11.206 18.5218 10.9672 18.1643C10.7283 17.8068 10.6008 17.3865 10.6008 16.9565C10.6008 16.38 10.8298 15.827 11.2375 15.4193C11.6452 15.0116 12.1982 14.7826 12.7747 14.7826ZM29.3834 31.1304C29.2921 31.1991 29.1882 31.2491 29.0775 31.2775C28.9669 31.3059 28.8517 31.3123 28.7386 31.2961C28.6255 31.2799 28.5167 31.2416 28.4185 31.1834C28.3202 31.1251 28.2344 31.048 28.166 30.9565C28.0704 30.8325 25.7008 27.8261 20.166 27.8261C14.5784 27.8261 12.1896 30.9256 12.166 30.9565C12.0276 31.141 11.8216 31.263 11.5933 31.2956C11.365 31.3282 11.1331 31.2688 10.9486 31.1304C10.7641 30.9921 10.6422 30.7861 10.6095 30.5578C10.5769 30.3294 10.6363 30.0975 10.7747 29.913C10.8919 29.7565 13.718 26.087 20.166 26.087C26.614 26.087 29.4399 29.7571 29.5573 29.913C29.626 30.0043 29.676 30.1083 29.7045 30.2189C29.7329 30.3296 29.7393 30.4447 29.7231 30.5578C29.7069 30.6709 29.6686 30.7797 29.6103 30.878C29.552 30.9763 29.4749 31.062 29.3834 31.1304ZM27.5573 19.1304C27.1274 19.1304 26.7071 19.0029 26.3496 18.7641C25.9921 18.5252 25.7134 18.1857 25.5489 17.7884C25.3844 17.3912 25.3413 16.9541 25.4252 16.5324C25.5091 16.1107 25.7161 15.7234 26.0201 15.4193C26.3242 15.1153 26.7115 14.9083 27.1332 14.8244C27.5549 14.7405 27.992 14.7835 28.3892 14.9481C28.7865 15.1126 29.126 15.3913 29.3649 15.7488C29.6037 16.1063 29.7312 16.5266 29.7312 16.9565C29.7312 17.5331 29.5022 18.086 29.0945 18.4937C28.6868 18.9014 28.1339 19.1304 27.5573 19.1304ZM33.1543 12.4796C33.073 12.6955 32.9094 12.8702 32.6994 12.9656C32.4894 13.061 32.2502 13.0691 32.0342 12.9883L25.0777 10.3796C24.9707 10.3395 24.8727 10.2787 24.7893 10.2007C24.7059 10.1227 24.6386 10.029 24.5914 9.92497C24.496 9.71492 24.4879 9.47558 24.569 9.25961C24.6501 9.04363 24.8136 8.8687 25.0237 8.77331C25.2337 8.67792 25.4731 8.66988 25.6891 8.75095L32.6456 11.3596C32.8614 11.4409 33.0362 11.6045 33.1315 11.8145C33.2269 12.0244 33.2351 12.2637 33.1543 12.4796Z" fill="#D2483F"/></svg>