<svg width="24" height="24" viewBox="0 0 24 24" xmlns="http://www.w3.org/2000/svg"><g id="Grinning"><path id="Vector" d="M12.0001 0C9.62675 0 7.30671 0.703788 5.33334 2.02236C3.35998 3.34094 1.82192 5.21509 0.913684 7.4078C0.00544355 9.60051 -0.232194 12.0133 0.230823 14.3411C0.69384 16.6689 1.83672 18.807 3.51493 20.4853C5.19313 22.1635 7.3313 23.3064 9.65905 23.7694C11.9868 24.2324 14.3996 23.9948 16.5922 23.0866C18.7849 22.1783 20.6591 20.6402 21.9776 18.6668C23.2962 16.6935 24 14.3734 24 12C23.9963 8.81851 22.7309 5.76837 20.4813 3.51871C18.2317 1.26906 15.1815 0.00361795 12.0001 0ZM15.9131 6.78261C16.1711 6.78261 16.4232 6.85911 16.6377 7.00243C16.8522 7.14575 17.0194 7.34946 17.1181 7.5878C17.2169 7.82614 17.2427 8.0884 17.1924 8.34142C17.142 8.59444 17.0178 8.82685 16.8354 9.00927C16.653 9.19168 16.4206 9.31591 16.1676 9.36624C15.9145 9.41657 15.6523 9.39074 15.4139 9.29202C15.1756 9.19329 14.9719 9.02611 14.8286 8.81161C14.6853 8.59711 14.6088 8.34493 14.6088 8.08696C14.6088 7.74102 14.7462 7.40926 14.9908 7.16464C15.2354 6.92003 15.5672 6.78261 15.9131 6.78261ZM8.08711 6.78261C8.34508 6.78261 8.59726 6.85911 8.81175 7.00243C9.02625 7.14575 9.19343 7.34946 9.29215 7.5878C9.39087 7.82614 9.4167 8.0884 9.36637 8.34142C9.31605 8.59444 9.19182 8.82685 9.00941 9.00927C8.82699 9.19168 8.59458 9.31591 8.34157 9.36624C8.08855 9.41657 7.8263 9.39074 7.58796 9.29202C7.34962 9.19329 7.14592 9.02611 7.00259 8.81161C6.85927 8.59711 6.78277 8.34493 6.78277 8.08696C6.78277 7.74102 6.92019 7.40926 7.1648 7.16464C7.40941 6.92003 7.74118 6.78261 8.08711 6.78261ZM12.0001 19.8261C8.25406 19.8261 5.21758 17.28 5.21758 14.1397C5.21758 14.1219 5.22055 14.1047 5.22071 14.087H18.7795C18.7795 14.1047 18.7826 14.1219 18.7826 14.1397C18.7826 17.28 15.7461 19.8261 12.0001 19.8261Z"/></g></svg>