<svg width="40" height="40" viewBox="0 0 40 40" xmlns="http://www.w3.org/2000/svg"><g id="email/sms-notification"><path id="Vector" d="M32.4997 13.3333C34.8008 13.3333 36.6663 11.4678 36.6663 9.16667C36.6663 6.86548 34.8008 5 32.4997 5C30.1985 5 28.333 6.86548 28.333 9.16667C28.333 11.4678 30.1985 13.3333 32.4997 13.3333Z"/><path id="Vector_2" d="M32.4997 13.3333C34.8008 13.3333 36.6663 11.4678 36.6663 9.16667C36.6663 6.86548 34.8008 5 32.4997 5C30.1985 5 28.333 6.86548 28.333 9.16667C28.333 11.4678 30.1985 13.3333 32.4997 13.3333Z"/><path id="Vector_3" d="M34.533 15.5167C33.3663 15.8833 32.083 15.95 30.7497 15.6167C28.5163 15.0333 26.6997 13.25 26.083 11.0167C25.783 9.93333 25.7663 8.86666 25.9497 7.89999C26.1663 6.83333 25.4163 5.83333 24.3497 5.83333H11.6663C6.66634 5.83333 3.33301 8.33333 3.33301 14.1667V25.8333C3.33301 31.6667 6.66634 34.1667 11.6663 34.1667H28.333C33.333 34.1667 36.6663 31.6667 36.6663 25.8333V17.1C36.6663 16 35.5997 15.1667 34.533 15.5167ZM25.8663 18.5833L23.8997 20.15C22.7997 21.0333 21.3997 21.4667 19.9997 21.4667C18.5997 21.4667 17.183 21.0333 16.0997 20.15L10.883 15.9833C10.3497 15.55 10.2663 14.75 10.683 14.2167C11.1163 13.6833 11.8997 13.5833 12.433 14.0167L17.6497 18.1833C18.9163 19.2 21.0663 19.2 22.333 18.1833L24.2997 16.6167C24.833 16.1833 25.633 16.2667 26.0497 16.8167C26.483 17.35 26.3997 18.15 25.8663 18.5833Z"/></g></svg>