<svg xmlns="http://www.w3.org/2000/svg" viewBox="0 0 18 18"><defs><clipPath id="a"><path fill="none" d="M0 0H18V18H0z"/></clipPath></defs><g clip-path="url(#a)"><path d="M9,0a9,9,0,1,0,9,9A9,9,0,0,0,9,0Zm1,12a2.21,2.21,0,0,1-1.88-1s-.45,1.78-.54,2.12a8.21,8.21,0,0,1-1.39,2.52.1.1,0,0,1-.18,0,8.65,8.65,0,0,1,0-2.93L7,8.5A3,3,0,0,1,6.8,7.28c0-1.14.66-2,1.49-2a1,1,0,0,1,1,1.16,16.56,16.56,0,0,1-.68,2.74,1.19,1.19,0,0,0,1.22,1.48c1.46,0,2.44-1.88,2.44-4.1a2.89,2.89,0,0,0-3.21-3A3.65,3.65,0,0,0,5.31,7.3a2.22,2.22,0,0,0,.51,1.51.37.37,0,0,1,.11.43l-.16.62a.27.27,0,0,1-.39.19A3,3,0,0,1,3.8,7.1c0-2.19,1.85-4.82,5.51-4.82A4.61,4.61,0,0,1,14.2,6.7C14.2,9.73,12.51,12,10,12Z"/></g></svg>