<svg xmlns="http://www.w3.org/2000/svg" viewBox="0 0 18 18"><defs><clipPath id="a"><path fill="none" d="M0 0H18V18H0z"/></clipPath></defs><g clip-path="url(#a)"><path d="M10,8.51l-2-1.74L4.69,10,7.14,8.69A.78.78,0,0,1,8,8.78l2,1.74,3.27-3.27L10.85,8.6A.78.78,0,0,1,10,8.51Z"/><path d="M18,8.64A8.84,8.84,0,0,0,9,0,8.84,8.84,0,0,0,0,8.64H0a8.49,8.49,0,0,0,2.82,6.28v2.18a.89.89,0,0,0,.7.87l.18,0a.88.88,0,0,0,.47-.13l1.75-1.09A9.24,9.24,0,0,0,9,17.29h.19A8.84,8.84,0,0,0,18,8.66h0ZM14.92,7.15l-4.24,4.24a.89.89,0,0,1-1.2,0l-2-1.72L4.13,11.54a.89.89,0,0,1-.42.11.88.88,0,0,1-.62-1.5L7.32,5.91a.88.88,0,0,1,1.2,0l2,1.72,3.35-1.83a.88.88,0,0,1,1,1.39Z"/></g></svg>