<svg xmlns="http://www.w3.org/2000/svg" viewBox="0 0 18 18"><defs><clipPath id="a"><path fill="none" d="M0 0H18V18H0z"/></clipPath></defs><g clip-path="url(#a)"><path d="M15.61,1.76C15.16,1.34,13.35,0,9.33,0c0,0-4.75-.29-7.06,1.84C1,3.14.52,5,.48,7.36s-.11,6.72,4.11,7.91h0v1.81s0,.73.46.88.81-.21,1.22-.69L6.53,17c.31-.33.73-.82,1-1.19a16.28,16.28,0,0,0,5.36-.39l.22-.06c.93-.24,3.71-.94,4.2-4.93C17.92,5.9,17.09,3,15.61,1.76ZM9.67,10.31a.62.62,0,0,0,.49-.19l.34-.42a.74.74,0,0,1,.94-.13q.43.25.83.53c.2.15.58.46.72.58l.05,0a.64.64,0,0,1,.14.84h0a3.51,3.51,0,0,1-.7.86h0a1.38,1.38,0,0,1-.71.34h-.1a1,1,0,0,1-.3,0h0a10.32,10.32,0,0,1-2-.9,11.63,11.63,0,0,1-1.64-1.08A8.59,8.59,0,0,1,7,10.09L6.95,10l0,0h0a8.6,8.6,0,0,1-.65-.74A11.64,11.64,0,0,1,5.18,7.61a10.31,10.31,0,0,1-.9-2h0a1,1,0,0,1,0-.3.46.46,0,0,1,0-.1,1.4,1.4,0,0,1,.34-.71h0a3.5,3.5,0,0,1,.86-.7h0A.64.64,0,0,1,6.29,4s.44.52.62.78a9.91,9.91,0,0,1,.53.84.74.74,0,0,1-.13.94l-.42.34a.62.62,0,0,0-.19.49A4.4,4.4,0,0,0,9.67,10.31Zm0-4.68a.23.23,0,1,0,0,.45,1.2,1.2,0,0,1,.84.32,1.3,1.3,0,0,1,.31.87.23.23,0,0,0,.45,0,1.75,1.75,0,0,0-.44-1.17A1.64,1.64,0,0,0,9.64,5.63Zm-.59-1A.23.23,0,0,1,9.3,4.4a3.29,3.29,0,0,1,2.29,1,3.1,3.1,0,0,1,.8,2.24.23.23,0,0,1-.46,0,2.65,2.65,0,0,0-.68-1.93,2.84,2.84,0,0,0-2-.86A.23.23,0,0,1,9.05,4.61ZM8.88,3.22a.23.23,0,0,0,0,.46,4.19,4.19,0,0,1,3,1.19,4.37,4.37,0,0,1,1.23,3.25.23.23,0,0,0,.46,0,4.82,4.82,0,0,0-1.36-3.57A4.65,4.65,0,0,0,8.88,3.22Z"/></g></svg>