<svg width="32" height="32" viewBox="0 0 32 32" xmlns="http://www.w3.org/2000/svg"><g clip-path="url(#clip0_1558_37354)"><path d="M17.8607 15.8169C18.2715 15.4419 18.5594 14.9513 18.6866 14.4097C18.8137 13.8681 18.7741 13.3007 18.5729 12.782C18.3718 12.2633 18.0185 11.8175 17.5595 11.5032C17.1005 11.1889 16.5572 11.0206 16.0008 11.0206C15.4445 11.0206 14.9012 11.1888 14.4421 11.5031C13.9831 11.8175 13.6298 12.2632 13.4287 12.7819C13.2275 13.3006 13.1879 13.868 13.315 14.4096C13.4421 14.9512 13.7299 15.4418 14.1408 15.8169C13.2246 16.1872 12.4397 16.8225 11.8865 17.6413C11.3332 18.4602 11.0368 19.4255 11.0352 20.4137C11.0351 20.4862 11.0494 20.5579 11.0771 20.6249C11.1048 20.6918 11.1454 20.7527 11.1967 20.8039C11.2479 20.8552 11.3087 20.8958 11.3757 20.9235C11.4427 20.9512 11.5144 20.9655 11.5869 20.9654H20.4145C20.4869 20.9655 20.5587 20.9512 20.6257 20.9235C20.6926 20.8958 20.7534 20.8552 20.8047 20.8039C20.8559 20.7527 20.8966 20.6918 20.9243 20.6249C20.952 20.5579 20.9662 20.4862 20.9662 20.4137C20.9645 19.4255 20.6681 18.4602 20.1149 17.6414C19.5617 16.8225 18.7768 16.1873 17.8607 15.8169ZM16.0007 12.1378C16.328 12.1378 16.648 12.2349 16.9202 12.4168C17.1924 12.5987 17.4046 12.8572 17.5299 13.1596C17.6551 13.462 17.6879 13.7948 17.624 14.1159C17.5602 14.437 17.4025 14.7319 17.1711 14.9634C16.9396 15.1949 16.6447 15.3525 16.3236 15.4164C16.0025 15.4802 15.6697 15.4475 15.3673 15.3222C15.0648 15.1969 14.8063 14.9848 14.6244 14.7126C14.4426 14.4404 14.3455 14.1204 14.3455 13.793C14.346 13.3542 14.5205 12.9335 14.8308 12.6232C15.1411 12.3129 15.5618 12.1383 16.0007 12.1378ZM12.1779 19.862C12.3107 18.9428 12.7703 18.1022 13.4724 17.4942C14.1745 16.8863 15.0722 16.5517 16.0009 16.5517C16.9297 16.5517 17.8273 16.8863 18.5295 17.4942C19.2316 18.1022 19.6911 18.9428 19.8239 19.862H12.1779Z"/><path d="M28.028 6.28936C27.9111 6.37714 27.8337 6.50771 27.8129 6.65245C27.7921 6.79719 27.8295 6.94427 27.917 7.06144C29.7426 9.4869 30.7793 12.4145 30.8869 15.4483H25.3631C25.225 13.1565 24.2524 10.9946 22.6289 9.37115C21.0054 7.74767 18.8435 6.77499 16.5517 6.63688V1.11371C19.5855 1.22094 22.5132 2.25744 24.9386 4.083C25.0558 4.17042 25.2029 4.20777 25.3476 4.18684C25.4923 4.16592 25.6228 4.08844 25.7104 3.9714C25.798 3.85436 25.8357 3.70734 25.815 3.5626C25.7943 3.41785 25.7171 3.28722 25.6002 3.19937C22.8333 1.11718 19.4629 -0.00603425 16 2.4382e-05C15.9275 -1.76845e-05 15.8558 0.0142244 15.7888 0.0419362C15.7219 0.069648 15.661 0.110286 15.6098 0.161527C15.5585 0.212767 15.5179 0.273606 15.4902 0.340563C15.4625 0.40752 15.4482 0.479283 15.4483 0.551748V3.33832C12.2817 3.47889 9.28249 4.79989 7.04117 7.0412C4.79986 9.28251 3.47887 12.2817 3.33829 15.4483H0.551724C0.479259 15.4483 0.407496 15.4625 0.340539 15.4902C0.273582 15.5179 0.212743 15.5586 0.161503 15.6098C0.110262 15.661 0.0696237 15.7219 0.0419119 15.7888C0.0142001 15.8558 -4.19735e-05 15.9276 9.29163e-08 16C0.00487433 20.242 1.69215 24.3088 4.69167 27.3083C7.6912 30.3079 11.758 31.9951 16 32C16.0725 32.0001 16.1442 31.9858 16.2112 31.9581C16.2781 31.9304 16.339 31.8898 16.3902 31.8385C16.4415 31.7873 16.4821 31.7264 16.5098 31.6595C16.5375 31.5925 16.5518 31.5208 16.5517 31.4483V28.6617C19.7182 28.521 22.7173 27.1999 24.9586 24.9586C27.1999 22.7174 28.5209 19.7183 28.6617 16.5517H31.4483C31.5207 16.5518 31.5925 16.5375 31.6595 16.5098C31.7264 16.4821 31.7873 16.4415 31.8385 16.3902C31.8897 16.339 31.9304 16.2782 31.9581 16.2112C31.9858 16.1443 32 16.0725 32 16C32.0061 12.5375 30.8829 9.16738 28.8006 6.40088C28.7573 6.34272 28.7029 6.29368 28.6406 6.25658C28.5783 6.21948 28.5093 6.19504 28.4375 6.18468C28.3657 6.17432 28.2926 6.17823 28.2223 6.1962C28.152 6.21416 28.086 6.24582 28.028 6.28936ZM15.4483 4.42675V6.63688C13.1564 6.77489 10.9945 7.74754 9.37103 9.37105C7.74752 10.9946 6.77487 13.1565 6.63685 15.4483H4.42673C4.56735 12.5706 5.77369 9.84822 7.81094 7.81097C9.8482 5.77371 12.5706 4.56738 15.4483 4.42675ZM15.4483 30.8869C11.6923 30.7433 8.12894 29.1869 5.47115 26.529C2.81336 23.8711 1.2571 20.3078 1.11369 16.5517H6.63685C6.77496 18.8435 7.74764 21.0054 9.37113 22.6289C10.9946 24.2524 13.1565 25.2251 15.4483 25.3632V30.8869ZM16 24.2759C14.3632 24.2759 12.7631 23.7905 11.4022 22.8812C10.0412 21.9718 8.98048 20.6793 8.3541 19.1671C7.72772 17.6548 7.56383 15.9908 7.88316 14.3855C8.20248 12.7801 8.99068 11.3055 10.1481 10.1481C11.3055 8.9907 12.7801 8.20251 14.3855 7.88318C15.9908 7.56385 17.6548 7.72774 19.167 8.35412C20.6792 8.9805 21.9718 10.0412 22.8811 11.4022C23.7905 12.7632 24.2759 14.3632 24.2759 16C24.2735 18.1942 23.4008 20.2978 21.8493 21.8493C20.2978 23.4008 18.1942 24.2735 16 24.2759ZM16.5517 27.5733V25.3632C18.8435 25.225 21.0053 24.2523 22.6288 22.6288C24.2522 21.0053 25.2249 18.8435 25.3631 16.5517H27.5733C27.4325 19.4294 26.2261 22.1517 24.1888 24.1889C22.1516 26.2261 19.4293 27.4325 16.5517 27.5733Z"/><path d="M26.9228 5.62833C27.2275 5.62833 27.4745 5.38132 27.4745 5.07662C27.4745 4.77191 27.2275 4.5249 26.9228 4.5249C26.6181 4.5249 26.3711 4.77191 26.3711 5.07662C26.3711 5.38132 26.6181 5.62833 26.9228 5.62833Z"/></g><defs><clipPath id="clip0_1558_37354"><path fill="#fff" d="M0 0H32V32H0z"/></clipPath></defs></svg>