<svg width="20" height="20" viewBox="0 0 20 20" fill="none" xmlns="http://www.w3.org/2000/svg"><g id="sort arrows" fill-rule="evenodd" clip-rule="evenodd" fill="#1C2229"><path id="Vector" d="M9.20464 4.89064C9.30911 4.78615 9.43314 4.70325 9.56965 4.6467C9.70616 4.59014 9.85247 4.56104 10.0002 4.56104C10.148 4.56104 10.2943 4.59014 10.4308 4.6467C10.5673 4.70325 10.6914 4.78615 10.7958 4.89064L13.1772 7.27294C13.2965 7.4009 13.3614 7.57014 13.3583 7.74502C13.3552 7.91989 13.2844 8.08673 13.1607 8.2104C13.037 8.33408 12.8702 8.40492 12.6953 8.408C12.5204 8.41109 12.3512 8.34618 12.2232 8.22694L10.0002 6.00394L7.77724 8.22694C7.71544 8.29326 7.64092 8.34645 7.55812 8.38335C7.47532 8.42024 7.38594 8.44008 7.29531 8.44168C7.20467 8.44328 7.11465 8.4266 7.0306 8.39266C6.94655 8.35871 6.8702 8.30818 6.8061 8.24408C6.742 8.17998 6.69147 8.10363 6.65753 8.01958C6.62358 7.93553 6.6069 7.84551 6.6085 7.75487C6.6101 7.66424 6.62994 7.57486 6.66683 7.49206C6.70373 7.40926 6.75692 7.33474 6.82324 7.27294L9.20464 4.89064Z"/><path id="Vector_2" opacity=".4" d="M9.20416 15.1093C9.30863 15.2138 9.43267 15.2967 9.56918 15.3532C9.70569 15.4098 9.852 15.4389 9.99976 15.4389C10.1475 15.4389 10.2938 15.4098 10.4304 15.3532C10.5669 15.2967 10.6909 15.2138 10.7954 15.1093L13.1768 12.727C13.296 12.599 13.3609 12.4298 13.3578 12.2549C13.3547 12.08 13.2839 11.9132 13.1602 11.7895C13.0366 11.6658 12.8697 11.595 12.6948 11.5919C12.52 11.5888 12.3507 11.6537 12.2228 11.773L9.99976 13.996L7.77676 11.773C7.64881 11.6537 7.47956 11.5888 7.30469 11.5919C7.12982 11.595 6.96298 11.6658 6.8393 11.7895C6.71563 11.9132 6.64479 12.08 6.64171 12.2549C6.63862 12.4298 6.70353 12.599 6.82276 12.727L9.20416 15.1093Z"/></g></svg>