<svg width="18" height="18" viewBox="0 0 18 18" fill="none" xmlns="http://www.w3.org/2000/svg"><g id="Sort_ Z-A"><path id="Vector" d="M14.4828 10.7413L14.3354 10.325H13.8937H11.0062H10.5557L10.4132 10.7524L9.95569 12.125H9.73304L12.0768 5.875H12.823L12.959 6.2375H12.5062H12.3937H11.9432L11.8007 6.66486L10.8632 9.47736L10.589 10.3H11.4562H13.4062H14.2624L14.0014 9.48451L13.1014 6.67201L12.9822 6.29948L15.1668 12.125H14.9729L14.4828 10.7413ZM3.4928 12.025H6.6553V12.125H2.4303V12.025H3.4928ZM3.00324 11.0115L2.4303 11.7334V11.5446L6.08046 6.99091L6.6178 6.32057V6.45712L3.00324 11.0115ZM5.5928 5.975H2.5803V5.875H6.6178V5.975H5.5928ZM8.99998 2.38388L9.7411 3.125H8.25886L8.99998 2.38388ZM9.7411 14.875L8.99998 15.6161L8.25886 14.875H9.7411Z" fill="#000" stroke-width="1.25"/></g></svg>