<svg width="18" height="18" viewBox="0 0 18 18" fill="none" xmlns="http://www.w3.org/2000/svg"><g id="Sort_ A-Z"><path id="Vector" d="M7.15164 10.7413L7.00419 10.325H6.5625H3.675H3.22453L3.08207 10.7524L2.62453 12.125H2.40188L4.74563 5.875H5.49187L5.62781 6.2375H5.175H5.0625H4.61203L4.46957 6.66486L3.53207 9.47736L3.25786 10.3H4.125H6.075H6.93122L6.67026 9.48451L5.77027 6.67201L5.65105 6.29947L7.83562 12.125H7.64169L7.15164 10.7413ZM14.0625 5.975H11.05V5.875H15.0875V5.975H14.0625ZM14.5502 6.99091L15.0875 6.32057V6.45712L11.4729 11.0115L10.9 11.7334V11.5446L14.5502 6.99091ZM11.9625 12.025H15.125V12.125H10.9V12.025H11.9625ZM9.74112 3.125H8.25888L9 2.38388L9.74112 3.125ZM9.74112 14.875L9 15.6161L8.25888 14.875H9.74112Z" fill="#000" stroke-width="1.25"/></g></svg>