<svg width="24" height="24" viewBox="0 0 24 24" xmlns="http://www.w3.org/2000/svg"><path d="M11.22 1.68086C11.5388 1.03997 12.4598 1.03998 12.7785 1.68086L15.628 7.40979C15.7546 7.66429 15.9993 7.84068 16.2823 7.88149L22.6539 8.80017C23.3667 8.90294 23.6513 9.77209 23.1355 10.271L18.525 14.7303C18.3202 14.9284 18.2267 15.2138 18.2751 15.4935L19.3635 21.7902C19.4852 22.4946 18.7401 23.0318 18.1026 22.6992L12.4036 19.7263C12.1505 19.5943 11.848 19.5943 11.5949 19.7263L5.89594 22.6992C5.25841 23.0318 4.51329 22.4946 4.63505 21.7902L5.72345 15.4935C5.7718 15.2138 5.67834 14.9284 5.47353 14.7303L0.86299 10.271C0.347218 9.7721 0.631826 8.90294 1.34461 8.80017L7.71621 7.88149C7.99926 7.84068 8.24394 7.66429 8.37052 7.40979L11.22 1.68086Z"/></svg>