<svg width="20" height="20" viewBox="0 0 20 20" fill="none" xmlns="http://www.w3.org/2000/svg"><path d="M11.4421 2.92495L12.9088 5.85829C13.1088 6.26663 13.6421 6.65829 14.0921 6.73329L16.7504 7.17495C18.4504 7.45829 18.8504 8.69161 17.6254 9.90828L15.5588 11.9749C15.2088 12.3249 15.0171 12.9999 15.1254 13.4833L15.7171 16.0416C16.1838 18.0666 15.1088 18.8499 13.3171 17.7916L10.8254 16.3166C10.3754 16.0499 9.63377 16.0499 9.17544 16.3166L6.68374 17.7916C4.90041 18.8499 3.81708 18.0583 4.28375 16.0416L4.87541 13.4833C4.98375 12.9999 4.79208 12.3249 4.44208 11.9749L2.37541 9.90828C1.15875 8.69161 1.55041 7.45829 3.25041 7.17495L5.90875 6.73329C6.35041 6.65829 6.88375 6.26663 7.08375 5.85829L8.55044 2.92495C9.35044 1.33328 10.6504 1.33328 11.4421 2.92495Z" stroke="#475467" stroke-width="1.25" stroke-linecap="round" stroke-linejoin="round"/></svg>