<svg xmlns="http://www.w3.org/2000/svg" width="16" height="16" viewBox="0 0 16 16"><g clip-path="url(#clip0_8632_15869)" fill-rule="evenodd" clip-rule="evenodd"><path d="M2.04614 1.11754C1.53588 1.11754 1.11608 1.53734 1.11608 2.0476V3.5357C1.11608 4.04596 1.53588 4.46577 2.04614 4.46577H4.27829C4.78855 4.46577 5.20836 4.04596 5.20836 3.5357V2.0476C5.20836 1.53734 4.78855 1.11754 4.27829 1.11754H2.04614ZM0 2.0476C0 0.920952 0.919488 0.00146484 2.04614 0.00146484H4.27829C5.40494 0.00146484 6.32443 0.920952 6.32443 2.0476V3.5357C6.32443 4.66236 5.40494 5.58184 4.27829 5.58184H2.04614C0.919488 5.58184 0 4.66236 0 3.5357V2.0476Z"/><path d="M11.8689 1.86162C11.686 1.86162 11.534 2.01357 11.534 2.19645V3.38692C11.534 3.5698 11.686 3.72175 11.8689 3.72175H14.5475C14.7303 3.72175 14.8823 3.5698 14.8823 3.38692V2.19645C14.8823 2.01357 14.7303 1.86162 14.5475 1.86162H11.8689ZM10.418 2.19645C10.418 1.39719 11.0696 0.745544 11.8689 0.745544H14.5475C15.3467 0.745544 15.9984 1.39719 15.9984 2.19645V3.38692C15.9984 4.18618 15.3467 4.83782 14.5475 4.83782H11.8689C11.0696 4.83782 10.418 4.18618 10.418 3.38692V2.19645Z"/><path d="M11.8689 7.442C11.686 7.442 11.534 7.59395 11.534 7.77683V8.96731C11.534 9.15018 11.686 9.30213 11.8689 9.30213H14.5475C14.7303 9.30213 14.8823 9.15018 14.8823 8.96731V7.77683C14.8823 7.59395 14.7303 7.442 14.5475 7.442H11.8689ZM10.418 7.77683C10.418 6.97756 11.0696 6.32593 11.8689 6.32593H14.5475C15.3467 6.32593 15.9984 6.97756 15.9984 7.77683V8.96731C15.9984 9.76658 15.3467 10.4182 14.5475 10.4182H11.8689C11.0696 10.4182 10.418 9.76658 10.418 8.96731V7.77683Z"/><path d="M5.21094 2.79168C5.21094 2.48348 5.46078 2.23364 5.76898 2.23364H10.9773C11.2855 2.23364 11.5354 2.48348 11.5354 2.79168C11.5354 3.09988 11.2855 3.34972 10.9773 3.34972H5.76898C5.46078 3.34972 5.21094 3.09988 5.21094 2.79168Z"/><path d="M8.37054 2.23364C8.67873 2.23364 8.92858 2.48348 8.92858 2.79168V12.4643C8.92858 12.9746 9.34838 13.3944 9.85864 13.3944H10.9747C11.2829 13.3944 11.5328 13.6442 11.5328 13.9524C11.5328 14.2606 11.2829 14.5105 10.9747 14.5105H9.85864C8.73199 14.5105 7.8125 13.591 7.8125 12.4643V2.79168C7.8125 2.48348 8.06234 2.23364 8.37054 2.23364Z"/><path d="M7.8125 8.37206C7.8125 8.06387 8.06234 7.81403 8.37054 7.81403H10.9747C11.2829 7.81403 11.5328 8.06387 11.5328 8.37206C11.5328 8.68026 11.2829 8.9301 10.9747 8.9301H8.37054C8.06234 8.9301 7.8125 8.68026 7.8125 8.37206Z"/><path d="M11.8689 13.0223C11.686 13.0223 11.534 13.1743 11.534 13.3571V14.5476C11.534 14.7305 11.686 14.8825 11.8689 14.8825H14.5475C14.7303 14.8825 14.8823 14.7305 14.8823 14.5476V13.3571C14.8823 13.1743 14.7303 13.0223 14.5475 13.0223H11.8689ZM10.418 13.3571C10.418 12.5579 11.0696 11.9062 11.8689 11.9062H14.5475C15.3467 11.9062 15.9984 12.5579 15.9984 13.3571V14.5476C15.9984 15.3469 15.3467 15.9985 14.5475 15.9985H11.8689C11.0696 15.9985 10.418 15.3469 10.418 14.5476V13.3571Z"/></g><defs><clipPath id="clip0_8632_15869"><path d="M0 0H16V16H0z"/></clipPath></defs></svg>