<svg width="32" height="32" viewBox="0 0 32 32" xmlns="http://www.w3.org/2000/svg"><g clip-path="url(#clip0_3984_162997)"><path d="M18.5672 32C17.9932 32 17.4514 31.7761 17.0386 31.373C16.6322 30.9699 16.4065 30.4324 16.4065 29.8566C16.4065 29.0248 16.8967 28.257 17.6642 27.9115C17.948 27.7835 18.2512 27.7131 18.5672 27.7131H20.9731C21.5536 27.7131 22.0954 27.937 22.5017 28.3401C22.7275 28.5577 22.8952 28.8328 23.0048 29.1463L23.05 29.2679H25.5139C27.3521 29.2679 28.8485 27.7835 28.8485 25.96V24.2644L28.6808 24.2516C27.6488 24.162 26.8748 23.3302 26.8748 22.3065V16.2537C26.8748 15.2491 27.6424 14.4173 28.655 14.315L28.8292 14.2958L28.8163 14.123C28.6163 10.9686 27.3263 8.12776 25.0882 5.90113C22.663 3.49536 19.438 2.1645 16.0066 2.1645C9.23405 2.1645 3.60319 7.41754 3.19039 14.123L3.17749 14.2958L3.35164 14.315C4.37074 14.4173 5.13184 15.2491 5.13184 16.2537V22.3065C5.13184 23.3878 4.24819 24.2644 3.15814 24.2644C1.41664 24.2644 0.00408936 22.8632 0.00408936 21.1356V17.4182C0.00408936 16.1833 0.73939 15.0636 1.88104 14.5581L1.98424 14.5133V14.3981C2.11969 10.7959 3.63544 7.42394 6.25415 4.90299C8.8922 2.38844 12.3494 1 16.0001 1C19.6508 1 23.2693 2.44603 25.9202 5.07575C28.4357 7.5711 29.887 10.8854 30.016 14.4109V14.5261L30.1256 14.5709C31.2673 15.0764 32.0026 16.1961 32.0026 17.431V21.1484C32.0026 22.3769 31.2673 23.4966 30.1385 24.0021L30.0289 24.0532V25.9728C30.0289 28.4425 28.0036 30.4516 25.5139 30.4516H23.0564L23.0113 30.5732C22.7017 31.4305 21.889 32.0064 20.9795 32.0064H18.5737L18.5672 32ZM18.5672 28.8904C18.4253 28.8904 18.2834 28.9224 18.1609 28.98C17.8126 29.1399 17.5933 29.4854 17.5933 29.863C17.5933 30.2405 17.6965 30.362 17.8771 30.5476C18.0641 30.7331 18.3092 30.8355 18.5672 30.8355H20.9731C21.431 30.8355 21.8374 30.5156 21.9277 30.0677C21.9406 30.0037 21.947 29.9333 21.947 29.863C21.947 29.607 21.8438 29.3639 21.6632 29.1783C21.4762 28.9928 21.2311 28.8904 20.9731 28.8904H18.5672ZM28.8421 15.4731C28.4035 15.4731 28.0487 15.825 28.0487 16.2601V22.3129C28.0487 22.748 28.4035 23.0999 28.8421 23.0999C29.9321 23.0999 30.8158 22.2233 30.8158 21.142V17.4246C30.8158 16.3432 29.9321 15.4667 28.8421 15.4667V15.4731ZM3.15814 15.4731C2.06809 15.4731 1.18444 16.3496 1.18444 17.431V21.1484C1.18444 22.2297 2.06809 23.1063 3.15814 23.1063C4.24819 23.1063 3.95149 22.7544 3.95149 22.3193V16.2665C3.95149 15.8314 3.59674 15.4795 3.15814 15.4795V15.4731Z"/><path d="M12.6589 24.5459C12.4783 24.5459 12.2977 24.5139 12.1235 24.4435C11.5817 24.226 11.2334 23.7077 11.2334 23.1319V21.2316H10.9883C9.27909 21.2316 7.89233 19.8559 7.89233 18.1603V11.5317C7.89233 9.83609 9.27909 8.46045 10.9883 8.46045H21.0117C21.8373 8.46045 22.6177 8.78037 23.1982 9.36262C23.7852 9.94487 24.1077 10.7127 24.1077 11.5317V18.1603C24.1077 19.8559 22.7209 21.2316 21.0117 21.2316H16.5934L13.6586 24.1236C13.3942 24.3923 13.033 24.5459 12.6524 24.5459H12.6589ZM10.9948 9.63135C9.93699 9.63135 9.07914 10.4823 9.07914 11.5317V18.1603C9.07914 19.2097 9.93699 20.0607 10.9948 20.0607H11.8333C12.1622 20.0607 12.4267 20.323 12.4267 20.6493V23.1319C12.4267 23.279 12.5234 23.3366 12.575 23.3558C12.6008 23.3686 12.6331 23.375 12.6653 23.375C12.7556 23.375 12.8072 23.3174 12.8266 23.3046L15.9419 20.2334C16.0516 20.1246 16.1999 20.0607 16.3612 20.0607H21.0245C22.0824 20.0607 22.9402 19.2097 22.9402 18.1603V11.5317C22.9402 11.0262 22.7403 10.5463 22.3791 10.188C22.0179 9.8297 21.5341 9.63135 21.0245 9.63135H10.9883H10.9948Z"/><path d="M12.2396 15.9145C11.7107 15.9145 11.2786 15.4858 11.2786 14.9612C11.2786 14.4365 11.7107 14.0078 12.2396 14.0078C12.7685 14.0078 13.2007 14.4365 13.2007 14.9612C13.2007 15.4858 12.7685 15.9145 12.2396 15.9145Z"/><path d="M16 15.9145C15.4711 15.9145 15.0389 15.4858 15.0389 14.9612C15.0389 14.4365 15.4711 14.0078 16 14.0078C16.5289 14.0078 16.961 14.4365 16.961 14.9612C16.961 15.4858 16.5289 15.9145 16 15.9145Z"/><path d="M19.7604 15.9145C19.2315 15.9145 18.7993 15.4858 18.7993 14.9612C18.7993 14.4365 19.2315 14.0078 19.7604 14.0078C20.2893 14.0078 20.7214 14.4365 20.7214 14.9612C20.7214 15.4858 20.2893 15.9145 19.7604 15.9145Z"/></g><defs><clipPath id="clip0_3984_162997"><path fill="#fff" transform="translate(0 1)" d="M0 0H32V31H0z"/></clipPath></defs></svg>