<svg width="32" height="32" viewBox="0 0 32 32" xmlns="http://www.w3.org/2000/svg"><g clip-path="url(#d2)"><mask id="mask0_1558_37309" style="mask-type:luminance" maskUnits="userSpaceOnUse" x="0" y="0" width="32" height="32"><path d="M0 3.8147e-06H32V32H0V3.8147e-06Z" fill="#fff"/></mask><g mask="url(#mask0_1558_37309)" fill-rule="evenodd" clip-rule="evenodd"><path d="M15.9982 31.618C16.1676 31.618 16.3278 31.5408 16.4332 31.4081L20.8362 25.868H29.1884C30.5264 25.868 31.6189 24.7756 31.6189 23.4375V2.81249C31.6189 1.47442 30.5264 0.381937 29.1884 0.381937H2.81337C1.47529 0.381937 0.382812 1.47442 0.382812 2.81249V23.4375C0.382812 24.7756 1.47529 25.868 2.81337 25.868H11.1604L15.5633 31.4081C15.6687 31.5408 15.8288 31.618 15.9982 31.618ZM15.9982 30.1696L11.8634 24.9668C11.758 24.8342 11.5979 24.7569 11.4285 24.7569H2.81337C2.08894 24.7569 1.49392 24.1619 1.49392 23.4375V2.81249C1.49392 2.08807 2.08894 1.49305 2.81337 1.49305H29.1884C29.9128 1.49305 30.5078 2.08807 30.5078 2.81249V23.4375C30.5078 24.1619 29.9128 24.7569 29.1884 24.7569H20.5681C20.3987 24.7569 20.2385 24.8342 20.1331 24.9668L15.9982 30.1696Z"/><path d="M4.13281 10.9946C4.13281 11.3014 4.38154 11.5502 4.68837 11.5502H9.87587C10.1827 11.5502 10.4314 11.3014 10.4314 10.9946V5.80712C10.4314 5.50029 10.1827 5.25156 9.87587 5.25156H4.68837C4.38154 5.25156 4.13281 5.50029 4.13281 5.80712V10.9946ZM5.24392 10.4391V6.36267H9.32031V10.4391H5.24392Z"/><path d="M13.0703 10.3804C13.0703 10.6872 13.319 10.9359 13.6259 10.9359H27.3134C27.6202 10.9359 27.8689 10.6872 27.8689 10.3804C27.8689 10.0735 27.6202 9.8248 27.3134 9.8248H13.6259C13.319 9.8248 13.0703 10.0735 13.0703 10.3804Z"/><path d="M13.0703 6.4215C13.0703 6.72832 13.319 6.97705 13.6259 6.97705H20.0195C20.3263 6.97705 20.575 6.72832 20.575 6.4215C20.575 6.11467 20.3263 5.86594 20.0195 5.86594H13.6259C13.319 5.86594 13.0703 6.11467 13.0703 6.4215Z"/><path d="M13.0703 19.8285C13.0703 20.1353 13.319 20.384 13.6259 20.384H27.3134C27.6202 20.384 27.8689 20.1353 27.8689 19.8285C27.8689 19.5217 27.6202 19.2729 27.3134 19.2729H13.6259C13.319 19.2729 13.0703 19.5217 13.0703 19.8285Z"/><path d="M13.0703 15.8696C13.0703 16.1764 13.319 16.4252 13.6259 16.4252H20.0195C20.3263 16.4252 20.575 16.1764 20.575 15.8696C20.575 15.5628 20.3263 15.3141 20.0195 15.3141H13.6259C13.319 15.3141 13.0703 15.5628 13.0703 15.8696Z"/><path d="M5.87616 20.0303C6.09312 20.2472 6.44487 20.2472 6.66183 20.0303L10.2388 16.4534C10.4557 16.2364 10.4557 15.8847 10.2388 15.6677C10.0218 15.4508 9.67006 15.4508 9.4531 15.6677L6.26899 18.8518L5.0812 17.664C4.86424 17.4471 4.51248 17.4471 4.29552 17.664C4.07857 17.881 4.07858 18.2328 4.29554 18.4497L5.87616 20.0303Z"/></g></g><defs><clipPath id="d2"><path fill="#fff" d="M0 0H32V32H0z"/></clipPath></defs></svg>