<svg width="16" height="16" viewBox="0 0 16 16" xmlns="http://www.w3.org/2000/svg"><g id="money/tag-2" clip-path="url(#clip34)"><path id="Vector" d="M8.05338 16.0024C6.92301 16.0024 5.78464 15.5695 4.92685 14.7116L1.29525 11.0798C0.413404 10.1979 -0.0515684 8.97931 0.00454896 7.73664L0.196951 3.72002C0.285136 1.8039 1.80031 0.288652 3.72433 0.192446L7.73271 3.26098e-05C8.98332 -0.0560879 10.1939 0.40891 11.0757 1.2908L14.7073 4.9226C16.4309 6.6463 16.4309 9.46034 14.7073 11.184L11.1879 14.7036C10.3221 15.5695 9.19176 16.0024 8.05338 16.0024ZM2.14503 10.222L5.77662 13.8538C7.03525 15.1125 9.07952 15.1125 10.3382 13.8538L13.8575 10.3342C15.1162 9.07551 15.1162 7.03112 13.8575 5.77242L10.2179 2.14864C9.57656 1.50727 8.70274 1.17055 7.78081 1.21063L3.77243 1.40304C2.47371 1.45916 1.45558 2.47735 1.39145 3.77614L1.19905 7.79276C1.15896 8.69069 1.50368 9.5806 2.14503 10.222Z"/><path id="Vector_2" d="M5.99608 8.60144C4.56107 8.60144 3.39062 7.43093 3.39062 5.99585C3.39062 4.56077 4.56107 3.39026 5.99608 3.39026C7.43108 3.39026 8.60153 4.56077 8.60153 5.99585C8.60153 7.43093 7.43108 8.60144 5.99608 8.60144ZM5.99608 4.59284C5.22647 4.59284 4.59314 5.2262 4.59314 5.99585C4.59314 6.7655 5.22647 7.39886 5.99608 7.39886C6.76569 7.39886 7.39901 6.7655 7.39901 5.99585C7.39901 5.2262 6.76569 4.59284 5.99608 4.59284Z"/><path id="Vector_3" d="M8.80238 12.6112C8.65006 12.6112 8.49774 12.5551 8.37749 12.4348C8.145 12.2023 8.145 11.8175 8.37749 11.585L11.5842 8.37811C11.8167 8.14561 12.2015 8.14561 12.434 8.37811C12.6665 8.61061 12.6665 8.99543 12.434 9.22793L9.22727 12.4348C9.10702 12.5551 8.9547 12.6112 8.80238 12.6112Z"/></g><defs><clipPath id="clip34"><path d="M0 0H16V16H0z"/></clipPath></defs></svg>