<svg width="24" height="24" viewBox="0 0 24 24" fill="none" xmlns="http://www.w3.org/2000/svg"><path d="M3.25972 11.5C3.25972 6.25282 7.45535 2 12.6299 2C17.8044 2 22 6.25282 22 11.5C22 16.7472 17.8044 21 12.6299 21C11.0013 21 9.46818 20.5783 8.13265 19.8362C7.48014 19.4737 6.76011 19.3828 6.16782 19.6408L4.6421 20.3053C3.63912 20.7421 2.64255 19.6757 3.12564 18.6826L3.9678 16.9514C4.23279 16.4067 4.20878 15.7292 3.94846 15.0811C3.50421 13.9752 3.25972 12.7658 3.25972 11.5Z"/><path d="M10.7174 9.15995C9.98132 9.68582 9.00908 9.68582 8.27295 9.13073"/><path d="M17.2726 9.15995C16.5365 9.68582 15.5643 9.68582 14.8281 9.13073"/><path d="M16.421 13.125C16.2563 14.7747 14.6783 16.0686 12.7559 16.0686C10.8336 16.0686 9.25557 14.7747 9.09082 13.125"/></svg>