<svg width="34" height="34" viewBox="0 0 34 34" xmlns="http://www.w3.org/2000/svg"><path fill-rule="evenodd" clip-rule="evenodd" d="M17.0007 3.20657C9.38019 3.20657 3.20289 9.38201 3.20289 16.9994C3.20289 24.6167 9.38019 30.7922 17.0007 30.7922C24.6212 30.7922 30.7985 24.6167 30.7985 16.9994C30.7985 9.38201 24.6212 3.20657 17.0007 3.20657ZM2.0918 16.9994C2.0918 8.76798 8.76693 2.09546 17.0007 2.09546C25.2345 2.09546 31.9096 8.76798 31.9096 16.9994C31.9096 25.2308 25.2345 31.9033 17.0007 31.9033C8.76693 31.9033 2.0918 25.2308 2.0918 16.9994Z"/><path fill-rule="evenodd" clip-rule="evenodd" d="M17.0006 5.94229C10.8856 5.94229 5.92945 10.8935 5.92945 16.9996C5.92945 23.1058 10.8856 28.0569 17.0006 28.0569C23.1157 28.0569 28.0718 23.1058 28.0718 16.9996C28.0718 10.8935 23.1157 5.94229 17.0006 5.94229ZM4.81836 16.9996C4.81836 10.2785 10.2732 4.83118 17.0006 4.83118C23.7281 4.83118 29.1829 10.2785 29.1829 16.9996C29.1829 23.7207 23.7281 29.1681 17.0006 29.1681C10.2732 29.1681 4.81836 23.7207 4.81836 16.9996Z"/><path fill-rule="evenodd" clip-rule="evenodd" d="M28.0723 16.9996C28.0723 16.6928 28.321 16.4441 28.6278 16.4441H33.0007C33.3075 16.4441 33.5562 16.6928 33.5562 16.9996C33.5562 17.3065 33.3075 17.5552 33.0007 17.5552H28.6278C28.321 17.5552 28.0723 17.3065 28.0723 16.9996Z"/><path fill-rule="evenodd" clip-rule="evenodd" d="M0.445312 16.9998C0.445312 16.6929 0.694039 16.4442 1.00086 16.4442H5.37374C5.68056 16.4442 5.92929 16.6929 5.92929 16.9998C5.92929 17.3066 5.68056 17.5553 5.37374 17.5553H1.00086C0.694039 17.5553 0.445312 17.3066 0.445312 16.9998Z"/><path fill-rule="evenodd" clip-rule="evenodd" d="M17.0009 28.0574C17.3077 28.0574 17.5564 28.3061 17.5564 28.6129V33C17.5564 33.3068 17.3077 33.5556 17.0009 33.5556C16.694 33.5556 16.4453 33.3068 16.4453 33V28.6129C16.4453 28.3061 16.694 28.0574 17.0009 28.0574Z"/><path fill-rule="evenodd" clip-rule="evenodd" d="M17.0009 0.444458C17.3077 0.444458 17.5564 0.693189 17.5564 1.00001V5.3871C17.5564 5.69393 17.3077 5.94266 17.0009 5.94266C16.694 5.94266 16.4453 5.69393 16.4453 5.3871V1.00001C16.4453 0.693189 16.694 0.444458 17.0009 0.444458Z"/><path fill-rule="evenodd" clip-rule="evenodd" d="M12.319 13.1685C11.8043 13.1685 11.3826 13.589 11.3826 14.1097C11.3826 14.4165 11.1339 14.6653 10.827 14.6653C10.5202 14.6653 10.2715 14.4165 10.2715 14.1097C10.2715 12.9788 11.1873 12.0574 12.319 12.0574C13.4506 12.0574 14.3664 12.9788 14.3664 14.1097C14.3664 14.4165 14.1177 14.6653 13.8109 14.6653C13.5041 14.6653 13.2553 14.4165 13.2553 14.1097C13.2553 13.589 12.8336 13.1685 12.319 13.1685Z"/><path fill-rule="evenodd" clip-rule="evenodd" d="M21.6295 13.1685C21.1149 13.1685 20.6931 13.589 20.6931 14.1097C20.6931 14.4165 20.4444 14.6653 20.1376 14.6653C19.8308 14.6653 19.582 14.4165 19.582 14.1097C19.582 12.9788 20.4979 12.0574 21.6295 12.0574C22.7611 12.0574 23.677 12.9788 23.677 14.1097C23.677 14.4165 23.4283 14.6653 23.1214 14.6653C22.8146 14.6653 22.5659 14.4165 22.5659 14.1097C22.5659 13.589 22.1441 13.1685 21.6295 13.1685Z"/><path fill-rule="evenodd" clip-rule="evenodd" d="M10.9335 19.6791C11.0371 19.5282 11.2084 19.438 11.3915 19.438H22.6067C22.7878 19.438 22.9575 19.5263 23.0615 19.6746C23.1655 19.8229 23.1907 20.0126 23.1289 20.1829C22.2285 22.667 19.8121 24.4717 16.9991 24.4717C14.1786 24.4717 11.8234 22.6609 10.8731 20.1932C10.8073 20.0224 10.8299 19.8301 10.9335 19.6791ZM12.2662 20.5491C13.2104 22.2208 14.9681 23.3606 16.9991 23.3606C19.0386 23.3606 20.8306 22.2138 21.7466 20.5491H12.2662Z"/></svg>