<svg xmlns="http://www.w3.org/2000/svg" width="16" height="16" viewBox="0 0 16 16"><g clip-path="url(#clip0_8632_68905)" fill-rule="evenodd" clip-rule="evenodd"><path d="M7.71875 5.67776C7.71875 5.36948 7.96864 5.11957 8.27689 5.11957H12.1839C12.4921 5.11957 12.742 5.36948 12.742 5.67776C12.742 5.98604 12.4921 6.23595 12.1839 6.23595H8.27689C7.96864 6.23595 7.71875 5.98604 7.71875 5.67776Z"/><path d="M6.44317 4.16672C6.66114 4.38471 6.66114 4.73814 6.44317 4.95612L4.76876 6.63069C4.55079 6.84868 4.19739 6.84868 3.97943 6.63069L3.42129 6.0725C3.20332 5.85452 3.20332 5.50109 3.42129 5.2831C3.63925 5.06512 3.99265 5.06512 4.21062 5.2831L4.37409 5.44659L5.65385 4.16672C5.87181 3.94874 6.22521 3.94874 6.44317 4.16672Z"/><path d="M7.71875 10.8877C7.71875 10.5794 7.96864 10.3295 8.27689 10.3295H12.1839C12.4921 10.3295 12.742 10.5794 12.742 10.8877C12.742 11.1959 12.4921 11.4458 12.1839 11.4458H8.27689C7.96864 11.4458 7.71875 11.1959 7.71875 10.8877Z"/><path d="M6.44317 9.37656C6.66114 9.59455 6.66114 9.94798 6.44317 10.166L4.76876 11.8405C4.55079 12.0585 4.19739 12.0585 3.97943 11.8405L3.42129 11.2823C3.20332 11.0644 3.20332 10.7109 3.42129 10.4929C3.63925 10.275 3.99265 10.275 4.21062 10.4929L4.37409 10.6564L5.65385 9.37656C5.87181 9.15858 6.22521 9.15858 6.44317 9.37656Z"/><path d="M1.37278 1.37217C2.36587 0.378986 3.85193 -0.000732422 5.76744 -0.000732422H10.2326C12.1481 -0.000732422 13.6341 0.378986 14.6272 1.37217C15.6203 2.36535 16 3.85154 16 5.76722V10.2327C16 12.1484 15.6203 13.6346 14.6272 14.6278C13.6341 15.621 12.1481 16.0007 10.2326 16.0007H5.76744C3.85193 16.0007 2.36587 15.621 1.37278 14.6278C0.379685 13.6346 0 12.1484 0 10.2327V5.76722C0 3.85154 0.379685 2.36535 1.37278 1.37217ZM2.16211 2.16157C1.48078 2.84295 1.11628 3.96165 1.11628 5.76722V10.2327C1.11628 12.0383 1.48078 13.157 2.16211 13.8384C2.84343 14.5198 3.96203 14.8843 5.76744 14.8843H10.2326C12.038 14.8843 13.1566 14.5198 13.8379 13.8384C14.5192 13.157 14.8837 12.0383 14.8837 10.2327V5.76722C14.8837 3.96165 14.5192 2.84295 13.8379 2.16157C13.1566 1.48018 12.038 1.11565 10.2326 1.11565H5.76744C3.96203 1.11565 2.84343 1.48018 2.16211 2.16157Z"/></g><defs><clipPath id="clip0_8632_68905"><path d="M0 0H16V16H0z"/></clipPath></defs></svg>