<svg width="36" height="36" viewBox="0 0 36 36" xmlns="http://www.w3.org/2000/svg"><path fill-rule="evenodd" clip-rule="evenodd" d="M23.3998 5.39999V7.68749C23.3998 8.43308 24.0042 9.03749 24.7498 9.03749C25.4954 9.03749 26.0998 8.43308 26.0998 7.68749V5.39999H30.1498C32.3866 5.39999 34.1998 7.21324 34.1998 9.44999V14.1804C34.1998 14.7526 33.8391 15.2626 33.2997 15.4533C32.2492 15.8246 31.4998 16.8265 31.4998 18C31.4998 19.1735 32.2492 20.1754 33.2997 20.5467C33.8391 20.7374 34.1998 21.2474 34.1998 21.8195V26.55C34.1998 28.7867 32.3866 30.6 30.1498 30.6H26.0998V28.3125C26.0998 27.5669 25.4954 26.9625 24.7498 26.9625C24.0042 26.9625 23.3998 27.5669 23.3998 28.3125V30.6H5.8498C3.61305 30.6 1.7998 28.7867 1.7998 26.55V21.8195C1.7998 21.2474 2.16047 20.7374 2.69992 20.5467C3.75042 20.1754 4.4998 19.1735 4.4998 18C4.4998 16.8265 3.75042 15.8246 2.69992 15.4533C2.16047 15.2626 1.7998 14.7526 1.7998 14.1804V9.44999C1.7998 7.21324 3.61305 5.39999 5.8498 5.39999H23.3998ZM26.0998 13.3125C26.0998 12.5669 25.4954 11.9625 24.7498 11.9625C24.0042 11.9625 23.3998 12.5669 23.3998 13.3125V15.1875C23.3998 15.9331 24.0042 16.5375 24.7498 16.5375C25.4954 16.5375 26.0998 15.9331 26.0998 15.1875V13.3125ZM26.0998 20.8125C26.0998 20.0669 25.4954 19.4625 24.7498 19.4625C24.0042 19.4625 23.3998 20.0669 23.3998 20.8125V22.6875C23.3998 23.4331 24.0042 24.0375 24.7498 24.0375C25.4954 24.0375 26.0998 23.4331 26.0998 22.6875V20.8125ZM10.7998 19.35C10.7998 18.6044 11.4042 18 12.1498 18H18.4498C19.1954 18 19.7998 18.6044 19.7998 19.35C19.7998 20.0956 19.1954 20.7 18.4498 20.7H12.1498C11.4042 20.7 10.7998 20.0956 10.7998 19.35ZM10.7998 23.85C10.7998 23.1044 11.4042 22.5 12.1498 22.5H14.8498C15.5954 22.5 16.1998 23.1044 16.1998 23.85C16.1998 24.5956 15.5954 25.2 14.8498 25.2H12.1498C11.4042 25.2 10.7998 24.5956 10.7998 23.85Z"/></svg>