<svg width="20" height="20" viewBox="0 0 20 20" fill="none" xmlns="http://www.w3.org/2000/svg"><path d="M17.5 4.98332C14.725 4.70832 11.9333 4.56665 9.15 4.56665C7.5 4.56665 5.85 4.64998 4.2 4.81665L2.5 4.98332"/><path d="M7.08325 4.14163L7.26659 3.04996C7.39992 2.25829 7.49992 1.66663 8.90825 1.66663H11.0916C12.4999 1.66663 12.6083 2.29163 12.7333 3.05829L12.9166 4.14163"/><path d="M15.7082 7.6167L15.1665 16.0084C15.0748 17.3167 14.9998 18.3334 12.6748 18.3334H7.32484C4.99984 18.3334 4.92484 17.3167 4.83317 16.0084L4.2915 7.6167"/><path d="M8.6084 13.75H11.3834"/><path d="M7.91675 10.4167H12.0834"/></svg>