<svg xmlns="http://www.w3.org/2000/svg" width="16" height="16" viewBox="0 0 16 16"><path fill-rule="evenodd" clip-rule="evenodd" d="M2.28516 3.99997C2.28516 2.00123 3.90531 0.38092 5.90387 0.38092C7.90241 0.38092 9.52258 2.00123 9.52258 3.99997C9.52258 5.99872 7.90241 7.61903 5.90387 7.61903C3.90531 7.61903 2.28516 5.99872 2.28516 3.99997ZM5.90387 1.52378C4.53643 1.52378 3.42791 2.63241 3.42791 3.99997C3.42791 5.36754 4.53643 6.47617 5.90387 6.47617C7.27129 6.47617 8.37983 5.36753 8.37983 3.99997C8.37983 2.63241 7.27129 1.52378 5.90387 1.52378Z"/><path fill-rule="evenodd" clip-rule="evenodd" d="M13.5245 5.33331C13.8401 5.33331 14.0959 5.58915 14.0959 5.90474V9.71427C14.0959 10.0299 13.8401 10.2857 13.5245 10.2857C13.2089 10.2857 12.9531 10.0299 12.9531 9.71427V5.90474C12.9531 5.58915 13.2089 5.33331 13.5245 5.33331Z"/><path fill-rule="evenodd" clip-rule="evenodd" d="M11.0469 7.80953C11.0469 7.49394 11.3027 7.2381 11.6183 7.2381H15.4274C15.743 7.2381 15.9988 7.49394 15.9988 7.80953C15.9988 8.12512 15.743 8.38096 15.4274 8.38096H11.6183C11.3027 8.38096 11.0469 8.12512 11.0469 7.80953Z"/><path fill-rule="evenodd" clip-rule="evenodd" d="M0 15.0477C0 11.7865 2.64341 9.14288 5.90421 9.14288C9.16499 9.14288 11.8084 11.7865 11.8084 15.0477C11.8084 15.3632 11.5526 15.6191 11.2371 15.6191C10.9215 15.6191 10.6657 15.3632 10.6657 15.0477C10.6657 12.4177 8.53387 10.2857 5.90421 10.2857C3.27453 10.2857 1.14275 12.4177 1.14275 15.0477C1.14275 15.3632 0.886937 15.6191 0.571375 15.6191C0.255813 15.6191 0 15.3632 0 15.0477Z"/></svg>