<svg width="33" height="32" viewBox="0 0 33 32" xmlns="http://www.w3.org/2000/svg"><path d="M16.3333 14.4C18.9843 14.4 21.1333 12.251 21.1333 9.60005C21.1333 6.94908 18.9843 4.80005 16.3333 4.80005C13.6824 4.80005 11.5333 6.94908 11.5333 9.60005C11.5333 12.251 13.6824 14.4 16.3333 14.4Z"/><path d="M9.93335 12.8C9.93335 14.5674 8.50066 16 6.73335 16C4.96604 16 3.53335 14.5674 3.53335 12.8C3.53335 11.0327 4.96604 9.60005 6.73335 9.60005C8.50066 9.60005 9.93335 11.0327 9.93335 12.8Z"/><path d="M2.71838 24.5211C2.44705 24.3634 2.23769 24.1149 2.1453 23.815C2.00752 23.3677 1.93335 22.8925 1.93335 22.4C1.93335 19.7491 4.08238 17.6 6.73335 17.6C7.56855 17.6 8.35394 17.8134 9.03799 18.1885C7.36261 19.8382 6.24397 22.0521 5.989 24.5228C5.95224 24.8791 5.96758 25.2307 6.02929 25.5695C4.83032 25.4649 3.70713 25.0959 2.71838 24.5211Z"/><path d="M26.6381 25.5694C27.8368 25.4648 28.9598 25.0958 29.9483 24.5211C30.2196 24.3634 30.429 24.1149 30.5214 23.815C30.6592 23.3677 30.7333 22.8925 30.7333 22.4C30.7333 19.7491 28.5843 17.6 25.9333 17.6C25.0983 17.6 24.3131 17.8133 23.6292 18.1882C25.3047 19.838 26.4234 22.052 26.6784 24.5228C26.7152 24.8791 26.6998 25.2307 26.6381 25.5694Z"/><path d="M29.1333 12.8C29.1333 14.5674 27.7007 16 25.9333 16C24.166 16 22.7333 14.5674 22.7333 12.8C22.7333 11.0327 24.166 9.60005 25.9333 9.60005C27.7007 9.60005 29.1333 11.0327 29.1333 12.8Z"/><path d="M8.81948 25.9055C8.50092 25.6171 8.3321 25.1966 8.37621 24.7691C8.79186 20.7413 12.1959 17.6 16.3336 17.6C20.4713 17.6 23.8753 20.7413 24.291 24.7692C24.3351 25.1966 24.1662 25.6171 23.8477 25.9055C21.8606 27.7043 19.2251 28.8 16.3336 28.8C13.4421 28.8 10.8066 27.7043 8.81948 25.9055Z"/></svg>