<svg width="36" height="36" viewBox="0 0 36 36" xmlns="http://www.w3.org/2000/svg"><path d="M17.9088 3.31768L14.2938 11.7327H10.6788C10.0788 11.7327 9.49383 11.7777 8.92383 11.8977L10.4238 8.29768L10.4838 8.16268L10.5738 7.92268C10.6188 7.81768 10.6488 7.72768 10.6938 7.65268C12.4338 3.61768 14.3838 2.35768 17.9088 3.31768Z"/><path d="M28.0966 12.1343L28.0666 12.1193C27.1666 11.8643 26.2516 11.7293 25.3216 11.7293H15.9316L19.3066 3.8843L19.3516 3.7793C19.5616 3.8543 19.7866 3.9593 20.0116 4.0343L23.3266 5.4293C25.1716 6.1943 26.4616 6.9893 27.2566 7.9493C27.3916 8.1293 27.5116 8.2943 27.6316 8.4893C27.7666 8.6993 27.8716 8.9093 27.9316 9.1343C27.9916 9.2693 28.0366 9.3893 28.0666 9.5243C28.2916 10.2893 28.3066 11.1593 28.0966 12.1343Z"/><path d="M18.7793 26.4871H19.1543C19.6043 26.4871 19.9793 26.0821 19.9793 25.5871C19.9793 24.9571 19.7993 24.8671 19.4093 24.7171L18.7793 24.4921V26.4871Z"/><path d="M27.4325 14.2805C26.7575 14.0855 26.0525 13.9805 25.3175 13.9805H10.6774C9.65742 13.9805 8.69742 14.1755 7.79742 14.5655C5.18742 15.6905 3.35742 18.2855 3.35742 21.3005V24.2255C3.35742 24.5855 3.38742 24.9305 3.43242 25.2905C3.76242 30.0605 6.31242 32.6105 11.0824 32.9255C11.4274 32.9705 11.7724 33.0005 12.1474 33.0005H23.8475C29.3975 33.0005 32.3225 30.3605 32.6075 25.1105C32.6225 24.8255 32.6375 24.5255 32.6375 24.2255V21.3005C32.6375 17.9855 30.4325 15.1955 27.4325 14.2805ZM19.9175 23.2505C20.6075 23.4905 21.5375 24.0005 21.5375 25.5905C21.5375 26.9555 20.4725 28.0505 19.1525 28.0505H18.7775V28.3805C18.7775 28.8155 18.4325 29.1605 17.9975 29.1605C17.5625 29.1605 17.2175 28.8155 17.2175 28.3805V28.0505H17.0825C15.6425 28.0505 14.4574 26.8355 14.4574 25.3355C14.4574 24.9005 14.8024 24.5555 15.2375 24.5555C15.6725 24.5555 16.0175 24.9005 16.0175 25.3355C16.0175 25.9655 16.4975 26.4905 17.0825 26.4905H17.2175V23.9555L16.0775 23.5505C15.3875 23.3105 14.4574 22.8005 14.4574 21.2105C14.4574 19.8455 15.5225 18.7505 16.8425 18.7505H17.2175V18.4205C17.2175 17.9855 17.5625 17.6405 17.9975 17.6405C18.4325 17.6405 18.7775 17.9855 18.7775 18.4205V18.7505H18.9125C20.3525 18.7505 21.5375 19.9655 21.5375 21.4655C21.5375 21.9005 21.1925 22.2455 20.7575 22.2455C20.3225 22.2455 19.9775 21.9005 19.9775 21.4655C19.9775 20.8355 19.4975 20.3105 18.9125 20.3105H18.7775V22.8455L19.9175 23.2505Z"/><path d="M16.0195 21.2087C16.0195 21.8387 16.1995 21.9287 16.5895 22.0787L17.2195 22.3037V20.3087H16.8445C16.3795 20.3087 16.0195 20.7137 16.0195 21.2087Z"/></svg>