<svg width="32" height="32" viewBox="0 0 32 32" xmlns="http://www.w3.org/2000/svg"><path d="M5.33332 13.5813H12.2667C12.5616 13.5813 12.8 13.3424 12.8 13.048C12.8 12.7536 12.5616 12.5146 12.2667 12.5146H5.33332C5.03839 12.5146 4.79999 12.7536 4.79999 13.048C4.79999 13.3424 5.03839 13.5813 5.33332 13.5813Z"/><path d="M19.2 15.7146H5.33332C5.03839 15.7146 4.79999 15.9535 4.79999 16.2479C4.79999 16.5423 5.03839 16.7813 5.33332 16.7813H19.2C19.4949 16.7813 19.7333 16.5423 19.7333 16.2479C19.7333 15.9535 19.4949 15.7146 19.2 15.7146Z"/><path d="M19.2 18.9148H5.33332C5.03839 18.9148 4.79999 19.1537 4.79999 19.4481C4.79999 19.7425 5.03839 19.9815 5.33332 19.9815H19.2C19.4949 19.9815 19.7333 19.7425 19.7333 19.4481C19.7333 19.1537 19.4949 18.9148 19.2 18.9148Z"/><path d="M28.8384 1.35203L10.6293 1.3147C8.88533 1.3147 7.46667 2.73336 7.46667 4.47736V7.21016L3.16267 7.21923C1.41867 7.21923 0 8.6379 0 10.3819V21.6571C0 23.4011 1.41867 24.8192 3.16267 24.8192H6.4V30.1526C6.4 30.3728 6.53547 30.5707 6.74133 30.6502C6.80373 30.6742 6.8688 30.6859 6.93333 30.6859C7.08053 30.6859 7.22507 30.6246 7.328 30.5115L12.5035 24.8182L21.3707 24.7819C23.1147 24.7819 24.5333 23.3632 24.5333 21.6198V21.5595L27.3387 24.6454C27.4416 24.7584 27.5861 24.8198 27.7333 24.8198C27.7979 24.8198 27.8629 24.808 27.9253 24.784C28.1312 24.7046 28.2667 24.5067 28.2667 24.2864V18.9531H28.8373C30.5813 18.9531 32 17.5344 32 15.791V4.5147C32 2.77123 30.5819 1.35256 28.8384 1.35203ZM23.4667 21.6192C23.4667 22.775 22.5264 23.7147 21.3685 23.7147L12.2645 23.752C12.1152 23.7526 11.9723 23.816 11.872 23.9264L7.46667 28.7728V24.2854C7.46667 23.991 7.22827 23.752 6.93333 23.752H3.16267C2.00693 23.752 1.06667 22.8118 1.06667 21.6566V10.3814C1.06667 9.22563 2.00693 8.28536 3.16373 8.28536L8 8.27523C8.00053 8.27523 8.00053 8.27523 8.00107 8.27523L21.3707 8.2475C22.5264 8.2475 23.4667 9.18776 23.4667 10.3435V20.1787V21.6192ZM30.9333 15.7899C30.9333 16.9456 29.9931 17.8854 28.8373 17.8854H27.7333C27.4384 17.8854 27.2 18.1243 27.2 18.4187V22.9062L24.5333 19.9728V10.344C24.5333 8.60003 23.1147 7.18136 21.3696 7.18136L8.53333 7.2075V4.47683C8.53333 3.3211 9.4736 2.38083 10.6283 2.38083L28.8368 2.41816C28.8373 2.41816 28.8373 2.41816 28.8379 2.41816C29.9936 2.41816 30.9339 3.35843 30.9339 4.51416L30.9333 15.7899Z"/></svg>