<svg width="19" height="18" viewBox="0 0 19 18" xmlns="http://www.w3.org/2000/svg"><path d="M3.3125 4.875C3.46168 4.875 3.60476 4.81574 3.71025 4.71025C3.81574 4.60476 3.875 4.46168 3.875 4.3125C3.875 4.16332 3.81574 4.02024 3.71025 3.91475C3.60476 3.80926 3.46168 3.75 3.3125 3.75C3.16332 3.75 3.02024 3.80926 2.91475 3.91475C2.80926 4.02024 2.75 4.16332 2.75 4.3125C2.75 4.46168 2.80926 4.60476 2.91475 4.71025C3.02024 4.81574 3.16332 4.875 3.3125 4.875ZM5.5625 4.3125C5.5625 4.46168 5.50324 4.60476 5.39775 4.71025C5.29226 4.81574 5.14918 4.875 5 4.875C4.85082 4.875 4.70774 4.81574 4.60225 4.71025C4.49676 4.60476 4.4375 4.46168 4.4375 4.3125C4.4375 4.16332 4.49676 4.02024 4.60225 3.91475C4.70774 3.80926 4.85082 3.75 5 3.75C5.14918 3.75 5.29226 3.80926 5.39775 3.91475C5.50324 4.02024 5.5625 4.16332 5.5625 4.3125ZM6.6875 4.875C6.83668 4.875 6.97976 4.81574 7.08525 4.71025C7.19074 4.60476 7.25 4.46168 7.25 4.3125C7.25 4.16332 7.19074 4.02024 7.08525 3.91475C6.97976 3.80926 6.83668 3.75 6.6875 3.75C6.53832 3.75 6.39524 3.80926 6.28975 3.91475C6.18426 4.02024 6.125 4.16332 6.125 4.3125C6.125 4.46168 6.18426 4.60476 6.28975 4.71025C6.39524 4.81574 6.53832 4.875 6.6875 4.875Z" fill="#fff"/><path d="M2.75 1.5C2.15326 1.5 1.58097 1.73705 1.15901 2.15901C0.737053 2.58097 0.5 3.15326 0.5 3.75L0.5 15C0.5 15.5967 0.737053 16.169 1.15901 16.591C1.58097 17.0129 2.15326 17.25 2.75 17.25H16.25C16.8467 17.25 17.419 17.0129 17.841 16.591C18.2629 16.169 18.5 15.5967 18.5 15V3.75C18.5 3.15326 18.2629 2.58097 17.841 2.15901C17.419 1.73705 16.8467 1.5 16.25 1.5H2.75ZM17.375 3.75V6H1.625V3.75C1.625 3.45163 1.74353 3.16548 1.9545 2.9545C2.16548 2.74353 2.45163 2.625 2.75 2.625H16.25C16.5484 2.625 16.8345 2.74353 17.0455 2.9545C17.2565 3.16548 17.375 3.45163 17.375 3.75ZM2.75 16.125C2.45163 16.125 2.16548 16.0065 1.9545 15.7955C1.74353 15.5845 1.625 15.2984 1.625 15V7.125H17.375V15C17.375 15.2984 17.2565 15.5845 17.0455 15.7955C16.8345 16.0065 16.5484 16.125 16.25 16.125H2.75Z"/></svg>