<svg width="16" height="16" viewBox="0 0 16 16" xmlns="http://www.w3.org/2000/svg"><path fill-rule="evenodd" clip-rule="evenodd" d="M2.60005 2.3999C1.60594 2.3999 0.800049 3.20579 0.800049 4.1999V11.7999C0.800049 12.794 1.60594 13.5999 2.60005 13.5999H13.4C14.3942 13.5999 15.2 12.794 15.2 11.7999V4.1999C15.2 3.20579 14.3942 2.3999 13.4 2.3999H2.60005ZM2.00005 7.1999V11.7999C2.00005 12.1313 2.26868 12.3999 2.60005 12.3999H13.4C13.7314 12.3999 14 12.1313 14 11.7999V7.1999H2.00005ZM3.20005 4.1999C2.86868 4.1999 2.60005 4.46853 2.60005 4.7999V4.8079C2.60005 5.13927 2.86868 5.4079 3.20005 5.4079H3.20805C3.53942 5.4079 3.80805 5.13927 3.80805 4.8079V4.7999C3.80805 4.46853 3.53942 4.1999 3.20805 4.1999H3.20005ZM5.00005 4.7999C5.00005 4.46853 5.26868 4.1999 5.60005 4.1999H5.60805C5.93942 4.1999 6.20805 4.46853 6.20805 4.7999V4.8079C6.20805 5.13927 5.93942 5.4079 5.60805 5.4079H5.60005C5.26868 5.4079 5.00005 5.13927 5.00005 4.8079V4.7999ZM8.00005 4.1999C7.66868 4.1999 7.40005 4.46853 7.40005 4.7999V4.8079C7.40005 5.13927 7.66868 5.4079 8.00005 5.4079H8.00805C8.33942 5.4079 8.60805 5.13927 8.60805 4.8079V4.7999C8.60805 4.46853 8.33942 4.1999 8.00805 4.1999H8.00005Z"/></svg>