<svg xmlns="http://www.w3.org/2000/svg" viewBox="0 0 16.73 16.73"><defs><style>.cls-1{fill:#333;}</style></defs><title>ic-chat</title><g id="Слой_2" data-name="Слой 2"><g id="Слой_2-2" data-name="Слой 2"><g id="_Группа_" data-name="&lt;Группа&gt;"><path id="_Составной_контур_" data-name="&lt;Составной контур&gt;" class="cls-1" d="M14.28,2.45A8.36,8.36,0,0,0,1.92,13.7,3.2,3.2,0,0,1,.58,15.19a.78.78,0,0,0,.23,1.48,4.31,4.31,0,0,0,.66,0,5,5,0,0,0,2.94-1A8.36,8.36,0,0,0,14.28,2.45ZM13.6,13.61a7.41,7.41,0,0,1-9,1.15.48.48,0,0,0-.58.07l0,0a4.08,4.08,0,0,1-2.52.9h0A4.68,4.68,0,0,0,2.9,13.85a.49.49,0,0,0,0-.31.5.5,0,0,0-.12-.27,7.41,7.41,0,1,1,10.79.33Zm0,0"/><path id="_Составной_контур_2" data-name="&lt;Составной контур&gt;" class="cls-1" d="M8.95,8.37a.59.59,0,1,1-.59-.59.59.59,0,0,1,.59.59Zm0,0"/><path id="_Составной_контур_3" data-name="&lt;Составной контур&gt;" class="cls-1" d="M12,8.37a.59.59,0,1,1-.59-.59.59.59,0,0,1,.59.59Zm0,0"/><path id="_Составной_контур_4" data-name="&lt;Составной контур&gt;" class="cls-1" d="M5.92,8.37a.59.59,0,1,1-.59-.59.59.59,0,0,1,.59.59Zm0,0"/></g></g></g></svg>