<svg xmlns="http://www.w3.org/2000/svg" viewBox="0 0 17.13 16.42"><defs><style>.cls-1{fill:#069efb}</style></defs><title>ic-kievsar</title><g id="Слой_2" data-name="Слой 2"><g id="Слой_2-2" data-name="Слой 2"><g id="_Группа_" data-name="&amp;lt;Группа&amp;gt;"><path id="_Контур_" data-name="&amp;lt;Контур&amp;gt;" class="cls-1" d="M15.89 5.45a1.13 1.13 0 0 1 1.2.86 1 1 0 0 1-.62 1.23q-2 .71-4.12 1.34a1.1 1.1 0 0 1-.55-2.12c1-.34 1.94-.65 2.92-1a6.33 6.33 0 0 1 1.17-.31z"/><path id="_Контур_2" data-name="&amp;lt;Контур&amp;gt;" class="cls-1" d="M1.2 5.45a1.51 1.51 0 0 1 .26 0c1.28.41 2.56.82 3.83 1.25a1.1 1.1 0 0 1-.56 2.12C3.38 8.45 2 8 .69 7.55A1.05 1.05 0 0 1 0 6.38a1.12 1.12 0 0 1 1.2-.93z"/><path id="_Контур_3" data-name="&amp;lt;Контур&amp;gt;" class="cls-1" d="M9.67 3.16v2a1.1 1.1 0 1 1-2.21 0v-4A1.15 1.15 0 0 1 8.57 0a1.15 1.15 0 0 1 1.1 1.2v1.96z"/><path id="_Контур_4" data-name="&amp;lt;Контур&amp;gt;" class="cls-1" d="M7.43 12.06a1.07 1.07 0 0 1-.22.64c-.78 1.08-1.56 2.16-2.34 3.23a1.1 1.1 0 1 1-1.78-1.3Q4.25 13 5.44 11.4a1.06 1.06 0 0 1 1.25-.4 1.1 1.1 0 0 1 .74 1.06z"/><path id="_Контур_5" data-name="&amp;lt;Контур&amp;gt;" class="cls-1" d="M13.2 16.42a1.1 1.1 0 0 1-.91-.45c-.8-1.09-1.61-2.19-2.39-3.3a1.07 1.07 0 0 1 .24-1.5 1.06 1.06 0 0 1 1.54.21c.82 1.1 1.62 2.21 2.41 3.32a1 1 0 0 1 0 1.16 1.1 1.1 0 0 1-.89.56z"/></g></g></g></svg>