<svg xmlns="http://www.w3.org/2000/svg" viewBox="0 0 16.07 12.86"><defs><style>.cls-1{fill:#333;}</style></defs><title>ic-letter</title><g id="Слой_2" data-name="Слой 2"><g id="Слой_2-2" data-name="Слой 2"><path id="_Составной_контур_" data-name="&lt;Составной контур&gt;" class="cls-1" d="M14.47,0H1.61A1.61,1.61,0,0,0,0,1.61v9.64a1.61,1.61,0,0,0,1.61,1.61H14.47a1.61,1.61,0,0,0,1.61-1.61V1.61A1.61,1.61,0,0,0,14.47,0ZM1.61.8H14.47a.8.8,0,0,1,.8.8v.47L8,7.14.8,2.08V1.61A.8.8,0,0,1,1.61.8ZM.8,3.06,5.61,6.43.8,9.8Zm13.66,9H1.61a.8.8,0,0,1-.8-.8v-.47L6.32,6.92,7.81,8a.4.4,0,0,0,.46,0l1.49-1,5.51,3.86v.47A.8.8,0,0,1,14.47,12.06Zm.8-2.26L10.46,6.43l4.81-3.37Z"/></g></g></svg>