<svg xmlns="http://www.w3.org/2000/svg" viewBox="0 0 16.7 16.82"><defs><style>.cls-1{fill:#f8d501}</style></defs><title>ic-biline</title><path class="cls-1" d="M16.7 8.94a8.07 8.07 0 0 1-4.48 6.91 8.12 8.12 0 0 1-5.8.75c-.59-.13-.65-.21-.51-.77a9.69 9.69 0 0 1 5.17-6.73.39.39 0 0 1 .51.05 1.92 1.92 0 0 0 2.62-2.81 1.92 1.92 0 0 0-2.58-.15A1.66 1.66 0 0 0 11 7.24a.56.56 0 0 1-.43.51A13.4 13.4 0 0 0 7 9.55a12.93 12.93 0 0 0-3.45 3.6c-.24.38-.45.77-.66 1.17-.1.19-.18.25-.37.09a5.62 5.62 0 0 1-.94-1.1c-.15-.21-.06-.48 0-.71a9.8 9.8 0 0 1 2.61-5.88c.31-.34.68-.62 1-.92a.43.43 0 0 1 .62 0 1.86 1.86 0 0 0 2.6-.34 1.9 1.9 0 0 0-.24-2.63 1.85 1.85 0 0 0-2.57 0 1.7 1.7 0 0 0-.54 1.08.67.67 0 0 1-.47.62A9.15 9.15 0 0 0 .36 8c-.06.09-.12.23-.25.2S0 8 0 7.88a8.16 8.16 0 0 1 2.8-5.75A8.07 8.07 0 0 1 9.17 0a8 8 0 0 1 5.08 2.41 8.59 8.59 0 0 1 2.45 6.53z"/></svg>