<svg xmlns="http://www.w3.org/2000/svg" viewBox="0 0 18.31 18.36"><defs><style>.cls-1{fill:#437bbc}.cls-2{fill:#f8f6f7}</style></defs><title>ic-message</title><g id="Слой_2" data-name="Слой 2"><g id="Слой_2-2" data-name="Слой 2"><g id="_Группа_" data-name="&amp;lt;Группа&amp;gt;"><path id="_Составной_контур_" data-name="&amp;lt;Составной контур&amp;gt;" class="cls-1" d="M3.41 16.76v-1.31A.48.48 0 0 0 3.2 15 8.11 8.11 0 0 1 .06 9.47 8 8 0 0 1 2.78 2.4a9.64 9.64 0 0 1 12.87.12 8.14 8.14 0 0 1-.65 12.6 9.41 9.41 0 0 1-8.07 1.68.91.91 0 0 0-.72.1c-.83.48-1.67.93-2.51 1.4-.21.12-.28.09-.27-.16-.01-.47-.02-.93-.02-1.38zm.07-5.57c.19.07.3 0 .42-.1 1.17-.64 2.34-1.28 3.5-1.93.24-.16.38-.16.6.08.62.7 1.27 1.37 1.91 2.06.13.15.21.16.35 0 1.15-1.25 2.32-2.48 3.48-3.73l1.16-1.25a.49.49 0 0 0-.33.11c-1.23.68-2.46 1.36-3.68 2.05a.36.36 0 0 1-.53-.09c-.64-.69-1.3-1.35-1.93-2-.16-.17-.25-.19-.42 0A267.94 267.94 0 0 0 4.7 9.86z"/><path id="_Контур_" data-name="&amp;lt;Контур&amp;gt;" class="cls-2" d="M3.47 11.18L4.7 9.86C5.79 8.7 6.89 7.54 8 6.36c.17-.18.26-.17.42 0 .64.69 1.3 1.35 1.93 2a.36.36 0 0 0 .53.09c1.22-.7 2.45-1.37 3.68-2.05a.49.49 0 0 1 .33-.11l-1.18 1.29c-1.16 1.24-2.33 2.48-3.48 3.73-.14.16-.22.14-.35 0-.63-.7-1.28-1.37-1.88-2.07-.22-.24-.36-.24-.6-.08-1.16.65-2.33 1.29-3.5 1.93-.13.06-.24.17-.43.09z"/></g></g></g></svg>