<svg xmlns="http://www.w3.org/2000/svg" viewBox="0 0 15.98 15.98"><defs><style>.cls-1{fill:#36ade0}.cls-2{fill:#fcfdfd}.cls-3{fill:#c9deec}</style></defs><title>ic-plane</title><g id="Слой_2" data-name="Слой 2"><g id="Слой_2-2" data-name="Слой 2"><g id="_Группа_" data-name="&amp;lt;Группа&amp;gt;"><rect id="_Прямоугольник_" data-name="&amp;lt;Прямоугольник&amp;gt;" class="cls-1" width="15.98" height="15.98" rx="1" ry="1"/><g id="_Группа_2" data-name="&amp;lt;Группа&amp;gt;"><path id="_Контур_" data-name="&amp;lt;Контур&amp;gt;" class="cls-2" d="M12.62 4.69v.05l-.3 1.58c-.32 1.65-.65 3.3-1 4.94-.06.25-.12.5-.16.75a.56.56 0 0 1-.89.28l-2.1-1.61a.23.23 0 0 0-.1-.06s0-.06-.08-.08l-1.22-.9c-.1-.08-.11-.09 0-.18l.64-.58 1-.89 1.45-1.3.87-.78c.08-.07.17-.15.24-.23a.12.12 0 0 0 0-.16.11.11 0 0 0-.15 0h-.09l-.92.59-3.39 2.16c-.35.22-.7.46-1.07.67-.26-.1-.52-.17-.78-.27-.46-.17-.93-.31-1.39-.47a.88.88 0 0 1-.29-.2.3.3 0 0 1 0-.45.5.5 0 0 1 .11-.09c.63-.28 1.26-.56 1.9-.82L6.51 6l1.13-.44h.06a.06.06 0 0 0 .05 0 1.38 1.38 0 0 0 .31-.13.94.94 0 0 0 .27-.09 2.72 2.72 0 0 0 .47-.17l1-.39 1.2-.5.52-.18a5.88 5.88 0 0 1 .71-.23c.23-.06.5 0 .43.4v.37c0 .13-.04.03-.04.05z"/><path id="_Контур_2" data-name="&amp;lt;Контур&amp;gt;" class="cls-3" d="M5.36 8.94c.37-.21.71-.44 1.07-.67L9.8 6.12l.92-.59h.09a.11.11 0 0 1 .15 0 .12.12 0 0 1 0 .16c-.08.08-.16.16-.24.23l-.87.78L8.39 8l-1 .89-.64.58c-.1.09-.09.1 0 .18l1.25.9s.07 0 .08.08 0 .06-.06.08l-.9.85-.37.34a.24.24 0 0 1-.41-.06 1.75 1.75 0 0 1-.12-.27l-.25-.83z"/></g></g></g></g></svg>