<svg xmlns="http://www.w3.org/2000/svg" viewBox="0 0 21.79 21.79"><defs><style>.cls-1{fill:#333;}</style></defs><title>ic-phone</title><g id="Слой_2" data-name="Слой 2"><g id="Слой_2-2" data-name="Слой 2"><g id="_Группа_" data-name="&lt;Группа&gt;"><path id="_Составной_контур_" data-name="&lt;Составной контур&gt;" class="cls-1" d="M10.89,0a10.89,10.89,0,0,0,0,21.79.67.67,0,1,0,0-1.34,9.55,9.55,0,1,1,9.55-9.55,6.19,6.19,0,0,1-2.85,5.31,4.14,4.14,0,0,1-2,.5,3.14,3.14,0,0,0,1.06-1,1.53,1.53,0,0,0,.16-.24,10.73,10.73,0,0,0,.37-1.68c.16-.71-3.11-2.1-3.39-1.21a8.44,8.44,0,0,1-.47,1.64c-.19.24-.64.13-.92-.11-.75-.64-1.58-1.57-2.31-2.31l-.06-.06L10,11.66h0c-.74-.73-1.67-1.56-2.31-2.31-.24-.28-.36-.73-.11-.92A8.42,8.42,0,0,1,9.23,8c.89-.28-.5-3.56-1.21-3.39a10.63,10.63,0,0,0-1.68.37,1.55,1.55,0,0,0-.24.16C4.23,6.29,4,9.16,5.82,11.3q1,1.23,2.16,2.38H8l.06.06.06.06h0a20.61,20.61,0,0,0,3.18,2.84c3.14,2.09,5.55,1.51,7,.73a7.51,7.51,0,0,0,3.54-6.48A10.91,10.91,0,0,0,10.89,0Zm0,0"/></g></g></g></svg>