<svg xmlns="http://www.w3.org/2000/svg" viewBox="0 0 17.38 18.28"><defs><style>.cls-1{fill:#655caa;}.cls-2{fill:#fff;}</style></defs><title>ic-viber</title><g id="Слой_2" data-name="Слой 2"><g id="Слой_2-2" data-name="Слой 2"><g id="_Группа_" data-name="&lt;Группа&gt;"><path id="_Составной_контур_" data-name="&lt;Составной контур&gt;" class="cls-1" d="M8.66,0a16.53,16.53,0,0,1,4.21.51,5.41,5.41,0,0,1,4.25,4.62,16.58,16.58,0,0,1,.15,4.69,9.1,9.1,0,0,1-.59,2.74,5.17,5.17,0,0,1-3.65,3,17.87,17.87,0,0,1-5.55.51.48.48,0,0,0-.33.14c-.47.51-.93,1-1.4,1.56A2,2,0,0,1,5.5,18c-.6.47-1.19.25-1.28-.5a12.56,12.56,0,0,1,0-1.67.4.4,0,0,0-.32-.47A5.22,5.22,0,0,1,.31,11.19,15.24,15.24,0,0,1,.44,4.46,5,5,0,0,1,3.89.71,14.18,14.18,0,0,1,8.66,0Z"/><path id="_Контур_" data-name="&lt;Контур&gt;" class="cls-2" d="M5.53,3.75a1.75,1.75,0,0,1,.54.3A16.17,16.17,0,0,1,7.28,5.63c.34.52.25.82-.24,1.21s-.6.62-.3,1.26A4.17,4.17,0,0,0,9,10.19c.46.2.61.14.92-.26.48-.62.81-.67,1.48-.25.1.06.21.12.31.19.38.29.77.58,1.14.88a.66.66,0,0,1,.19.88,2.78,2.78,0,0,1-1.11,1.22,1.08,1.08,0,0,1-1,.06A11.85,11.85,0,0,1,4,5.83a1,1,0,0,1,.37-1.36,7,7,0,0,1,.74-.54A2.69,2.69,0,0,1,5.53,3.75Z"/><path id="_Контур_2" data-name="&lt;Контур&gt;" class="cls-2" d="M12.93,8l-.25.45a1.75,1.75,0,0,1-.18-.48A3.84,3.84,0,0,0,10.7,4.71a4.21,4.21,0,0,0-1.93-.57c-.12,0-.23-.13-.34-.19.12-.06.25-.17.37-.16A4.28,4.28,0,0,1,12.93,8Z"/><path id="_Контур_3" data-name="&lt;Контур&gt;" class="cls-2" d="M11.75,7.47c0,.06,0,.1,0,.12s-.12.26-.18.39a1.26,1.26,0,0,1-.15-.37A2.47,2.47,0,0,0,9.16,5.23s-.1,0-.13,0S8.87,5.09,8.79,5C8.88,5,9,4.87,9,4.88A2.89,2.89,0,0,1,11,5.71,2.61,2.61,0,0,1,11.75,7.47Z"/><path id="_Контур_4" data-name="&lt;Контур&gt;" class="cls-2" d="M10.7,7.45l-.17.17c-.06-.08-.17-.15-.18-.23a1.06,1.06,0,0,0-1-1.06c-.07,0-.14-.12-.21-.19C9.2,6.09,9.3,6,9.39,6A1.41,1.41,0,0,1,10.7,7.45Z"/></g></g></g></svg>