<svg width="36" height="36" viewBox="0 0 36 36" fill="none" xmlns="http://www.w3.org/2000/svg">
<g clip-path="url(#clip0_8129_10614)">
<path d="M21.2483 0H7.81157C6.51782 0 5.46313 1.05469 5.46313 2.35547V33.6516C5.46313 34.9523 6.51782 36 7.8186 36.007H31.4084C32.7092 36.007 33.7569 34.9523 33.7639 33.6516L33.6936 10.4062L21.2483 0Z" fill="#ECEFF2"/>
<path d="M21.2483 0L21.2131 10.1602C21.2131 10.1602 21.2483 10.4062 21.4592 10.4062H33.6936L21.2483 0Z" fill="#CA2B1D"/>
<path d="M3.19917 17.3461H26.9367C27.464 17.3461 27.8929 17.775 27.8929 18.3023V28.9054C27.8929 29.4328 27.464 29.8617 26.9367 29.8617H3.19917C2.67183 29.8617 2.24292 29.4328 2.24292 28.9054V18.3023C2.24292 17.775 2.67183 17.3461 3.19917 17.3461Z" fill="#CA2B1D"/>
<path d="M7.71094 26.3039V21.0539H9.96094C10.6309 21.0539 11.1609 21.2189 11.5509 21.5489C11.9459 21.8739 12.1434 22.3289 12.1434 22.9139C12.1434 23.5139 11.9359 23.9789 11.5209 24.3089C11.1059 24.6389 10.5609 24.8039 9.88594 24.8039H9.16594V26.3039H7.71094ZM9.16594 23.6639H9.85594C10.1159 23.6639 10.3184 23.6014 10.4634 23.4764C10.6134 23.3514 10.6884 23.1814 10.6884 22.9664C10.6884 22.7414 10.6134 22.5714 10.4634 22.4564C10.3184 22.3364 10.1134 22.2764 9.84844 22.2764H9.16594V23.6639Z" fill="white"/>
<path d="M12.7573 26.3039V21.0539H14.7823C15.7023 21.0539 16.4248 21.2939 16.9498 21.7739C17.4798 22.2539 17.7448 22.8839 17.7448 23.6639C17.7448 24.4389 17.4773 25.0739 16.9423 25.5689C16.4073 26.0589 15.6773 26.3039 14.7523 26.3039H12.7573ZM14.2123 25.0139H14.8048C15.2448 25.0139 15.5948 24.8964 15.8548 24.6614C16.1198 24.4264 16.2523 24.0964 16.2523 23.6714C16.2523 23.2564 16.1198 22.9289 15.8548 22.6889C15.5948 22.4489 15.2448 22.3289 14.8048 22.3289H14.2123V25.0139Z" fill="white"/>
<path d="M18.4922 26.3039V21.0539H22.6922V22.3289H19.9472V23.2214H22.4297V24.4289H19.9472V26.3039H18.4922Z" fill="white"/>
</g>
<defs>
<clipPath id="clip0_8129_10614">
<rect width="36" height="36" fill="white"/>
</clipPath>
</defs>
</svg>
