<svg width="36" height="36" viewBox="0 0 36 36" fill="none" xmlns="http://www.w3.org/2000/svg">
<g clip-path="url(#clip0_8129_3929)">
<path d="M21.2483 0H7.81157C6.51782 0 5.46313 1.05469 5.46313 2.35547V33.6516C5.46313 34.9523 6.51782 36 7.8186 36.007H31.4084C32.7092 36.007 33.7569 34.9523 33.7639 33.6516L33.6936 10.4062L21.2483 0Z" fill="#ECEFF2"/>
<path d="M21.2483 0L21.2131 10.1602C21.2131 10.1602 21.2483 10.4062 21.4592 10.4062H33.6936L21.2483 0Z" fill="#E0562E"/>
<path d="M3.19917 17.3461H26.9367C27.464 17.3461 27.8929 17.775 27.8929 18.3023V28.9054C27.8929 29.4328 27.464 29.8617 26.9367 29.8617H3.19917C2.67183 29.8617 2.24292 29.4328 2.24292 28.9054V18.3023C2.24292 17.775 2.67183 17.3461 3.19917 17.3461Z" fill="#E0562E"/>
<path d="M8.01123 26.304V21.054H10.2612C10.9312 21.054 11.4612 21.219 11.8512 21.549C12.2462 21.874 12.4437 22.329 12.4437 22.914C12.4437 23.514 12.2362 23.979 11.8212 24.309C11.4062 24.639 10.8612 24.804 10.1862 24.804H9.46623V26.304H8.01123ZM9.46623 23.664H10.1562C10.4162 23.664 10.6187 23.6015 10.7637 23.4765C10.9137 23.3515 10.9887 23.1815 10.9887 22.9665C10.9887 22.7415 10.9137 22.5715 10.7637 22.4565C10.6187 22.3365 10.4137 22.2765 10.1487 22.2765H9.46623V23.664Z" fill="white"/>
<path d="M13.0576 26.304V21.054H15.3076C15.9776 21.054 16.5076 21.219 16.8976 21.549C17.2926 21.874 17.4901 22.329 17.4901 22.914C17.4901 23.514 17.2826 23.979 16.8676 24.309C16.4526 24.639 15.9076 24.804 15.2326 24.804H14.5126V26.304H13.0576ZM14.5126 23.664H15.2026C15.4626 23.664 15.6651 23.6015 15.8101 23.4765C15.9601 23.3515 16.0351 23.1815 16.0351 22.9665C16.0351 22.7415 15.9601 22.5715 15.8101 22.4565C15.6651 22.3365 15.4601 22.2765 15.1951 22.2765H14.5126V23.664Z" fill="white"/>
<path d="M19.3865 26.304V22.329H17.8115V21.054H22.4165V22.329H20.8415V26.304H19.3865Z" fill="white"/>
</g>
<defs>
<clipPath id="clip0_8129_3929">
<rect width="36" height="36" fill="white"/>
</clipPath>
</defs>
</svg>
