<svg width="36" height="36" viewBox="0 0 36 36" fill="none" xmlns="http://www.w3.org/2000/svg">
<g clip-path="url(#clip0_8129_9561)">
<path d="M21.2483 0H7.81157C6.51782 0 5.46313 1.05469 5.46313 2.35547V33.6516C5.46313 34.9523 6.51782 36 7.8186 36.007H31.4084C32.7092 36.007 33.7569 34.9523 33.7639 33.6516L33.6936 10.4062L21.2483 0Z" fill="#ECEFF2"/>
<path d="M21.2483 0L21.2131 10.1602C21.2131 10.1602 21.2483 10.4062 21.4592 10.4062H33.6936L21.2483 0Z" fill="#909091"/>
<path d="M3.19917 17.3461H26.9367C27.464 17.3461 27.8929 17.775 27.8929 18.3023V28.9054C27.8929 29.4328 27.464 29.8617 26.9367 29.8617H3.19917C2.67183 29.8617 2.24292 29.4328 2.24292 28.9054V18.3023C2.24292 17.775 2.67183 17.3461 3.19917 17.3461Z" fill="#909091"/>
<path d="M6.04834 26.3039V21.0539H8.53084C9.29584 21.0539 9.86584 21.2414 10.2408 21.6164C10.5508 21.9264 10.7058 22.3414 10.7058 22.8614C10.7058 23.6314 10.3458 24.1689 9.62584 24.4739L10.8783 26.3039H9.19834L8.14084 24.7139H7.50334V26.3039H6.04834ZM7.50334 23.5739H8.46334C8.70834 23.5739 8.89834 23.5189 9.03334 23.4089C9.17334 23.2939 9.24334 23.1364 9.24334 22.9364C9.24334 22.7314 9.17334 22.5764 9.03334 22.4714C8.89834 22.3664 8.70584 22.3139 8.45584 22.3139H7.50334V23.5739Z" fill="white"/>
<path d="M10.9311 26.3039L13.1661 21.0164H14.5686L16.8036 26.3039H15.2436L14.8611 25.3664H12.8361L12.4611 26.3039H10.9311ZM13.2636 24.2339H14.4411L13.8561 22.7414L13.2636 24.2339Z" fill="white"/>
<path d="M18.0417 26.3414L16.2867 21.0539H17.8242L18.7392 24.0914L19.7517 21.0389H21.0042L22.0167 24.0914L22.9317 21.0539H24.4392L22.6842 26.3414H21.4167L20.3592 23.3189L19.3092 26.3414H18.0417Z" fill="white"/>
</g>
<defs>
<clipPath id="clip0_8129_9561">
<rect width="36" height="36" fill="white"/>
</clipPath>
</defs>
</svg>
