<svg width="36" height="36" viewBox="0 0 36 36" fill="none" xmlns="http://www.w3.org/2000/svg">
<g clip-path="url(#clip0_8129_1257)">
<path d="M21.2483 0H7.81157C6.51782 0 5.46313 1.05469 5.46313 2.35547V33.6516C5.46313 34.9523 6.51782 36 7.8186 36.007H31.4084C32.7092 36.007 33.7569 34.9523 33.7639 33.6516L33.6936 10.4062L21.2483 0Z" fill="#ECEFF2"/>
<path d="M21.2483 0L21.2131 10.1602C21.2131 10.1602 21.2483 10.4062 21.4592 10.4062H33.6936L21.2483 0Z" fill="#377526"/>
<path d="M3.19917 17.3461H26.9367C27.464 17.3461 27.8929 17.775 27.8929 18.3023V28.9054C27.8929 29.4328 27.464 29.8617 26.9367 29.8617H3.19917C2.67183 29.8617 2.24292 29.4328 2.24292 28.9054V18.3023C2.24292 17.775 2.67183 17.3461 3.19917 17.3461Z" fill="#377526"/>
<path d="M7.64697 26.3039L9.44697 23.6339L7.72197 21.0539H9.39447L10.3245 22.5314L11.262 21.0539H12.897L11.172 23.6189L12.972 26.3039H11.2995L10.2945 24.7214L9.28197 26.3039H7.64697Z" fill="white"/>
<path d="M13.5226 26.3039V21.0539H14.9776V25.0289H17.5201V26.3039H13.5226Z" fill="white"/>
<path d="M20.2067 26.3939C19.2167 26.3939 18.3967 26.1039 17.7467 25.5239L18.5567 24.5564C19.0817 24.9764 19.6492 25.1864 20.2592 25.1864C20.6592 25.1864 20.8592 25.0614 20.8592 24.8114C20.8592 24.7014 20.7992 24.6114 20.6792 24.5414C20.5592 24.4664 20.3242 24.3889 19.9742 24.3089C19.6542 24.2339 19.3892 24.1614 19.1792 24.0914C18.9742 24.0164 18.7717 23.9189 18.5717 23.7989C18.3767 23.6739 18.2317 23.5164 18.1367 23.3264C18.0417 23.1364 17.9942 22.9089 17.9942 22.6439C17.9942 22.1489 18.1767 21.7464 18.5417 21.4364C18.9117 21.1214 19.4067 20.9639 20.0267 20.9639C20.8867 20.9639 21.6067 21.1964 22.1867 21.6614L21.4592 22.6889C20.9692 22.3439 20.4792 22.1714 19.9892 22.1714C19.8192 22.1714 19.6892 22.2039 19.5992 22.2689C19.5092 22.3339 19.4642 22.4189 19.4642 22.5239C19.4642 22.6439 19.5242 22.7389 19.6442 22.8089C19.7692 22.8789 20.0117 22.9539 20.3717 23.0339C21.0317 23.1789 21.5217 23.3739 21.8417 23.6189C22.1667 23.8589 22.3292 24.2139 22.3292 24.6839C22.3292 25.2139 22.1367 25.6314 21.7517 25.9364C21.3667 26.2414 20.8517 26.3939 20.2067 26.3939Z" fill="white"/>
</g>
<defs>
<clipPath id="clip0_8129_1257">
<rect width="36" height="36" fill="white"/>
</clipPath>
</defs>
</svg>
