<svg width="57" height="57" viewBox="0 0 57 57" fill="none" xmlns="http://www.w3.org/2000/svg">
<g clip-path="url(#clip0_7625_485570)">
<path d="M28.5 56.5C43.964 56.5 56.5 43.964 56.5 28.5C56.5 13.036 43.964 0.5 28.5 0.5C13.036 0.5 0.5 13.036 0.5 28.5C0.5 43.964 13.036 56.5 28.5 56.5Z" fill="#9198A4"/>
<path d="M15.2501 21.0917C15.4181 20.3554 15.8312 19.698 16.4216 19.2272C17.0121 18.7563 17.7449 18.4999 18.5001 18.5H38.5001C39.2553 18.4999 39.9881 18.7563 40.5785 19.2272C41.169 19.698 41.5821 20.3554 41.7501 21.0917L28.5001 29.19L15.2501 21.0917ZM15.1667 22.995V34.835L24.8384 28.905L15.1667 22.995ZM26.4351 29.8833L15.4851 36.595C15.7556 37.1655 16.1826 37.6474 16.7164 37.9846C17.2501 38.3219 17.8687 38.5006 18.5001 38.5H38.5001C39.1314 38.5001 39.7497 38.321 40.2831 37.9835C40.8166 37.6459 41.2432 37.1639 41.5134 36.5933L30.5634 29.8817L28.5001 31.1433L26.4351 29.8817V29.8833ZM32.1617 28.9067L41.8334 34.835V22.995L32.1617 28.905V28.9067Z" fill="white"/>
</g>
<defs>
<clipPath id="clip0_7625_485570">
<rect width="56" height="56" fill="white" transform="translate(0.5 0.5)"/>
</clipPath>
</defs>
</svg>
