<svg width="57" height="57" viewBox="0 0 57 57" fill="none" xmlns="http://www.w3.org/2000/svg">
<g id="instagram (1) 1" clip-path="url(#clip0_7625_485557)">
<path id="Vector" d="M28.5 56.5C43.964 56.5 56.5 43.964 56.5 28.5C56.5 13.036 43.964 0.5 28.5 0.5C13.036 0.5 0.5 13.036 0.5 28.5C0.5 43.964 13.036 56.5 28.5 56.5Z" fill="url(#paint0_linear_7625_485557)"/>
<g id="Group">
<g id="Icon">
<path id="Vector_2" d="M35.1316 13.7637H21.8684C19.7188 13.7637 17.6572 14.6176 16.1372 16.1376C14.6171 17.6577 13.7632 19.7193 13.7632 21.8689V35.1321C13.7632 37.2817 14.6171 39.3433 16.1372 40.8634C17.6572 42.3834 19.7188 43.2374 21.8684 43.2374H35.1316C37.2813 43.2374 39.3429 42.3834 40.8629 40.8634C42.3829 39.3433 43.2369 37.2817 43.2369 35.1321V21.8689C43.2369 19.7193 42.3829 17.6577 40.8629 16.1376C39.3429 14.6176 37.2813 13.7637 35.1316 13.7637ZM40.6579 33.9679C40.6579 35.7423 39.953 37.4441 38.6983 38.6988C37.4436 39.9535 35.7418 40.6584 33.9674 40.6584H23.0327C21.2582 40.6584 19.5565 39.9535 18.3017 38.6988C17.047 37.4441 16.3421 35.7423 16.3421 33.9679V23.0331C16.3421 21.2587 17.047 19.5569 18.3017 18.3022C19.5565 17.0475 21.2582 16.3426 23.0327 16.3426H33.9674C35.7418 16.3426 37.4436 17.0475 38.6983 18.3022C39.953 19.5569 40.6579 21.2587 40.6579 23.0331V33.9679Z" fill="white"/>
<path id="Vector_3" d="M33.8753 23.18L33.8053 23.11L33.7464 23.0511C32.3534 21.6629 30.4667 20.8838 28.5001 20.8848C27.507 20.8915 26.5249 21.0939 25.61 21.4803C24.6952 21.8667 23.8654 22.4296 23.1681 23.1368C22.4708 23.844 21.9197 24.6816 21.5463 25.6019C21.1728 26.5221 20.9844 27.5069 20.9917 28.5C20.9902 30.5155 21.7846 32.45 23.2022 33.8827C23.8965 34.5855 24.7239 35.1429 25.6361 35.5224C26.5482 35.902 27.5269 36.096 28.5148 36.0932C29.9967 36.0621 31.4376 35.6005 32.6617 34.7646C33.8857 33.9287 34.8401 32.7546 35.4084 31.3857C35.9767 30.0167 36.1344 28.5119 35.8621 27.0549C35.5899 25.5978 34.8996 24.2515 33.8753 23.18ZM28.5001 33.4958C27.5091 33.5097 26.5365 33.2286 25.7058 32.6881C24.875 32.1477 24.2238 31.3724 23.835 30.4608C23.4461 29.5493 23.3371 28.5427 23.5219 27.569C23.7067 26.5954 24.1769 25.6987 24.8727 24.993C25.5685 24.2873 26.4585 23.8045 27.4294 23.606C28.4004 23.4075 29.4084 23.5022 30.3254 23.8782C31.2423 24.2542 32.0267 24.8944 32.5788 25.7174C33.1309 26.5404 33.4258 27.509 33.4259 28.5C33.4307 29.1516 33.3071 29.7977 33.0622 30.4014C32.8172 31.0052 32.4557 31.5547 31.9982 32.0187C31.5408 32.4826 30.9964 32.8519 30.3961 33.1053C29.7959 33.3588 29.1516 33.4915 28.5001 33.4958Z" fill="white"/>
<path id="Vector_4" d="M38.2373 20.5357C38.2392 20.7721 38.1945 21.0066 38.1057 21.2257C38.0169 21.4448 37.8858 21.6443 37.7198 21.8127C37.5538 21.981 37.3563 22.115 37.1385 22.2069C36.9207 22.2989 36.6869 22.3469 36.4504 22.3484C36.216 22.3483 35.9839 22.3016 35.7676 22.2112C35.5514 22.1208 35.3552 21.9883 35.1904 21.8215C34.9408 21.5683 34.7711 21.2474 34.7022 20.8985C34.6333 20.5497 34.6682 20.1883 34.8028 19.8592C34.9373 19.5301 35.1655 19.2477 35.4591 19.0471C35.7526 18.8464 36.0986 18.7363 36.4541 18.7305C36.8702 18.7304 37.2731 18.8764 37.5925 19.1431L37.6294 19.1799C37.6888 19.2283 37.7431 19.2826 37.7915 19.342L37.832 19.3863C38.0957 19.7112 38.2389 20.1173 38.2373 20.5357Z" fill="white"/>
</g>
</g>
</g>
<defs>
<linearGradient id="paint0_linear_7625_485557" x1="7.18005" y1="49.8199" x2="46.9712" y2="10.0288" gradientUnits="userSpaceOnUse">
<stop stop-color="#FEE411"/>
<stop offset="0.0518459" stop-color="#FEDB16"/>
<stop offset="0.1381" stop-color="#FEC125"/>
<stop offset="0.2481" stop-color="#FE983D"/>
<stop offset="0.3762" stop-color="#FE5F5E"/>
<stop offset="0.5" stop-color="#FE2181"/>
<stop offset="1" stop-color="#9000DC"/>
</linearGradient>
<clipPath id="clip0_7625_485557">
<rect width="56" height="56" fill="white" transform="translate(0.5 0.5)"/>
</clipPath>
</defs>
</svg>
