<svg width="57" height="57" viewBox="0 0 57 57" fill="none" xmlns="http://www.w3.org/2000/svg">
<g id="LinkedIn">
<rect x="0.5" y="0.5" width="56" height="56" rx="28" fill="#0A66C2"/>
<path id="Vector" d="M41.6265 13.0996H15.3737C14.7707 13.0996 14.1924 13.3392 13.766 13.7655C13.3396 14.1919 13.1001 14.7702 13.1001 15.3732V41.626C13.1001 42.229 13.3396 42.8073 13.766 43.2337C14.1924 43.6601 14.7707 43.8996 15.3737 43.8996H41.6265C42.2295 43.8996 42.8078 43.6601 43.2342 43.2337C43.6606 42.8073 43.9001 42.229 43.9001 41.626V15.3732C43.9001 14.7702 43.6606 14.1919 43.2342 13.7655C42.8078 13.3392 42.2295 13.0996 41.6265 13.0996ZM22.2802 39.3374H17.6495V24.6282H22.2802V39.3374ZM19.9617 22.5899C19.4364 22.5869 18.9238 22.4284 18.4885 22.1344C18.0532 21.8404 17.7148 21.424 17.5159 20.9378C17.317 20.4516 17.2666 19.9174 17.3711 19.4026C17.4755 18.8879 17.7301 18.4155 18.1027 18.0453C18.4754 17.6751 18.9493 17.4235 19.4647 17.3224C19.9802 17.2212 20.5141 17.2751 20.999 17.477C21.4838 17.679 21.898 18.0201 22.1893 18.4573C22.4805 18.8944 22.6357 19.4081 22.6353 19.9334C22.6402 20.285 22.5743 20.6341 22.4415 20.9598C22.3087 21.2854 22.1116 21.581 21.8621 21.8289C21.6127 22.0768 21.3158 22.272 20.9893 22.4027C20.6628 22.5334 20.3133 22.5971 19.9617 22.5899ZM39.3485 39.3502H34.72V31.3144C34.72 28.9445 33.7126 28.213 32.4121 28.213C31.039 28.213 29.6915 29.2482 29.6915 31.3743V39.3502H25.0608V24.6389H29.5139V26.6773H29.5738C30.0209 25.7725 31.5865 24.2261 33.9757 24.2261C36.5594 24.2261 39.3507 25.7597 39.3507 30.2514L39.3485 39.3502Z" fill="white"/>
</g>
</svg>
