<svg width="57" height="57" viewBox="0 0 57 57" fill="none" xmlns="http://www.w3.org/2000/svg">
<g id="Telegram">
<rect x="0.5" y="0.5" width="56" height="56" rx="28" fill="url(#paint0_linear_7625_485642)"/>
<path id="Vector" fill-rule="evenodd" clip-rule="evenodd" d="M13.1749 28.2049C21.3374 24.6486 26.7804 22.304 29.5038 21.1713C37.2797 17.937 38.8955 17.3752 39.9486 17.3566C40.1803 17.3526 40.6982 17.41 41.0336 17.6822C41.3169 17.912 41.3949 18.2225 41.4321 18.4405C41.4694 18.6584 41.5159 19.1548 41.479 19.5427C41.0576 23.9702 39.2343 34.7144 38.3067 39.6733C37.9142 41.7715 37.1414 42.4751 36.3932 42.5439C34.7671 42.6936 33.5324 41.4693 31.9576 40.437C29.4932 38.8216 28.101 37.816 25.7089 36.2396C22.9444 34.4179 24.7365 33.4166 26.312 31.7803C26.7243 31.352 33.8885 24.8356 34.0272 24.2445C34.0445 24.1705 34.0606 23.8949 33.8969 23.7494C33.7332 23.6039 33.4916 23.6537 33.3172 23.6932C33.07 23.7493 29.1332 26.3515 21.5066 31.4996C20.3891 32.2669 19.377 32.6408 18.4701 32.6212C17.4704 32.5996 15.5473 32.0559 14.1176 31.5912C12.3641 31.0212 10.9705 30.7199 11.0918 29.7518C11.155 29.2476 11.8494 28.732 13.1749 28.2049Z" fill="white"/>
</g>
<defs>
<linearGradient id="paint0_linear_7625_485642" x1="28.5" y1="0.5" x2="28.5" y2="56.0847" gradientUnits="userSpaceOnUse">
<stop stop-color="#2AABEE"/>
<stop offset="1" stop-color="#229ED9"/>
</linearGradient>
</defs>
</svg>
