<svg width="57" height="57" viewBox="0 0 57 57" fill="none" xmlns="http://www.w3.org/2000/svg">
<g id="Twitter">
<rect x="0.5" y="0.5" width="56" height="56" rx="28" fill="#1D9BF0"/>
<path id="Vector" d="M23.3761 43.2703C35.7941 43.2703 42.5841 32.9803 42.5841 24.0623C42.5841 23.7683 42.5841 23.4743 42.5701 23.1943C43.8861 22.2423 45.0341 21.0523 45.9441 19.6943C44.7401 20.2263 43.4381 20.5903 42.0661 20.7583C43.4661 19.9183 44.5301 18.6023 45.0341 17.0203C43.7321 17.7903 42.2901 18.3503 40.7501 18.6583C39.5181 17.3423 37.7681 16.5303 35.8221 16.5303C32.0981 16.5303 29.0741 19.5543 29.0741 23.2783C29.0741 23.8103 29.1301 24.3283 29.2561 24.8183C23.6421 24.5383 18.6721 21.8503 15.3401 17.7623C14.7661 18.7563 14.4301 19.9183 14.4301 21.1503C14.4301 23.4883 15.6201 25.5603 17.4401 26.7643C16.3341 26.7363 15.2981 26.4283 14.3881 25.9243C14.3881 25.9523 14.3881 25.9803 14.3881 26.0083C14.3881 29.2843 16.7121 32.0003 19.8061 32.6303C19.2461 32.7843 18.6441 32.8683 18.0281 32.8683C17.5941 32.8683 17.1741 32.8263 16.7541 32.7423C17.6081 35.4303 20.1001 37.3763 23.0541 37.4323C20.7441 39.2383 17.8321 40.3163 14.6681 40.3163C14.1221 40.3163 13.5901 40.2883 13.0581 40.2183C16.0121 42.1503 19.5681 43.2703 23.3761 43.2703Z" fill="white"/>
</g>
</svg>
