<svg width="57" height="57" viewBox="0 0 57 57" fill="none" xmlns="http://www.w3.org/2000/svg">
<g id="viber 1" clip-path="url(#clip0_7625_485644)">
<g id="Layer 2">
<g id="12.viber">
<path id="background" d="M28.5 56.5C43.964 56.5 56.5 43.964 56.5 28.5C56.5 13.036 43.964 0.5 28.5 0.5C13.036 0.5 0.5 13.036 0.5 28.5C0.5 43.964 13.036 56.5 28.5 56.5Z" fill="#6F3FAA"/>
<g id="icon">
<path id="Vector" d="M44.6731 19.4161V19.3748C44.2977 17.8538 43.3177 16.282 42.0322 14.9584C40.5304 13.4057 38.6181 12.187 36.7917 11.7925H36.7536C31.3071 10.7489 25.7119 10.7489 20.2654 11.7925H20.2272C16.8354 12.5275 13.154 16.072 12.3331 19.3748V19.4161C11.3245 23.995 11.3245 28.7386 12.3331 33.3175V33.3557C12.9186 35.7102 14.9549 38.1857 17.3031 39.6811C18.07 40.1809 18.9047 40.5677 19.7818 40.8298V44.5143C19.783 44.8088 19.8719 45.0962 20.0371 45.3399C20.2023 45.5837 20.4363 45.7727 20.7094 45.883C20.9824 45.9932 21.2821 46.0197 21.5702 45.9589C21.8583 45.8982 22.1219 45.7531 22.3272 45.542L26.0627 41.6602C26.8708 41.7048 27.6854 41.7302 28.4936 41.7302C31.2601 41.7294 34.0204 41.4673 36.7377 40.9475H36.7758C40.1581 40.2093 43.8427 36.6648 44.6572 33.362V33.3239C45.672 28.7441 45.6774 23.9982 44.6731 19.4161ZM41.7172 32.6366C41.1699 34.7907 38.3763 37.4729 36.1522 37.9661C33.2634 38.5195 30.3234 38.7595 27.3831 38.682C27.3545 38.6803 27.3258 38.6851 27.2994 38.6961C27.2729 38.7071 27.2493 38.7241 27.2304 38.7457L24.5036 41.5457L21.6018 44.5207C21.5553 44.5697 21.4953 44.6037 21.4293 44.6183C21.3633 44.6328 21.2945 44.6272 21.2318 44.6021C21.1691 44.5771 21.1153 44.5338 21.0774 44.4779C21.0396 44.422 21.0194 44.3559 21.0195 44.2884V38.1793C21.0196 38.1302 21.0024 38.0826 20.971 38.0448C20.9396 38.007 20.896 37.9814 20.8477 37.9725C20.3838 37.8624 19.9365 37.6912 19.5177 37.4634C17.6277 36.4548 15.7218 34.3866 15.2827 32.6366C14.3732 28.4976 14.3732 24.2105 15.2827 20.0716C15.8268 17.927 18.6363 15.2511 20.8445 14.7548C25.9012 13.7872 31.0955 13.7872 36.1522 14.7548C37.3772 15.0284 38.7772 15.9607 39.8717 17.1061C40.7722 18.0384 41.4627 19.1138 41.7172 20.0811C42.6253 24.217 42.6253 28.5007 41.7172 32.6366Z" fill="white"/>
<path id="Vector_2" d="M36.2318 32.9549C35.8184 33.8982 35.1077 34.6805 34.2081 35.1821C33.9259 35.3019 33.6329 35.3946 33.3331 35.4589C32.9927 35.3571 32.6681 35.2871 32.3786 35.163C29.9666 34.2245 27.7213 32.9041 25.7286 31.2526C25.1366 30.7478 24.5806 30.2024 24.0645 29.6203C22.79 28.1526 21.7197 26.5193 20.8827 24.7649C20.4754 23.9344 20.1318 23.0753 19.7818 22.2194C19.4636 21.4399 19.9345 20.6285 20.4181 20.0462C20.8915 19.5062 21.4738 19.0725 22.1268 18.7735C22.3565 18.658 22.6195 18.6266 22.8699 18.6847C23.1204 18.7429 23.3427 18.8868 23.4981 19.0917C24.3111 20.005 25.0276 20.9999 25.6363 22.0603C25.8281 22.3687 25.8937 22.739 25.8197 23.0945C25.7456 23.45 25.5375 23.7633 25.2386 23.9694C25.0795 24.0808 24.9204 24.208 24.7836 24.3321C24.6487 24.432 24.5324 24.5548 24.4399 24.6949C24.3602 24.826 24.3118 24.9737 24.2985 25.1266C24.2853 25.2795 24.3075 25.4334 24.3636 25.5762C24.9777 27.2658 25.9099 28.6753 27.3036 29.6649C27.7752 29.9983 28.2833 30.277 28.8181 30.4953C29.1673 30.6852 29.5597 30.7817 29.9572 30.7753C30.6509 30.6926 30.8799 29.9258 31.3636 29.5312C31.5856 29.3495 31.8603 29.2442 32.1469 29.231C32.4335 29.2178 32.7167 29.2974 32.9545 29.458C33.4699 29.7762 33.9663 30.1358 34.4627 30.4858C34.9536 30.8208 35.4263 31.182 35.8786 31.5676C36.0901 31.7212 36.2412 31.9441 36.3057 32.1974C36.3702 32.4508 36.3441 32.7188 36.2318 32.9549Z" fill="white"/>
<path id="Vector_3" d="M29.4131 17.7079H29.0059C29.1363 17.7015 29.2731 17.7079 29.4131 17.7079Z" fill="white"/>
<path id="Vector_4" d="M36.4545 27.2434C36.1363 27.2434 35.9804 26.9729 35.9581 26.677C35.9168 26.0947 35.885 25.5093 35.8054 24.9302C35.6679 23.9531 35.3276 23.0157 34.8063 22.1779C34.2706 21.3052 33.5576 20.5546 32.7136 19.9748C31.8695 19.3949 30.9131 18.9986 29.9063 18.8116C29.4481 18.7288 28.9804 18.7097 28.519 18.662C28.2263 18.6302 27.8413 18.6111 27.7777 18.2484C27.7682 18.1779 27.7738 18.1063 27.7942 18.0382C27.8146 17.9701 27.8493 17.9071 27.896 17.8535C27.9427 17.7999 28.0003 17.7569 28.0649 17.7273C28.1296 17.6977 28.1998 17.6823 28.2709 17.682C28.3472 17.6776 28.4237 17.6776 28.5 17.682C29.8907 17.6938 31.2572 18.0484 32.4782 18.7144C33.6992 19.3804 34.7371 20.3372 35.5 21.5002C36.1022 22.4376 36.5111 23.4858 36.7027 24.5834C36.8236 25.2706 36.8681 25.977 36.9222 26.677C36.9331 26.7456 36.9292 26.8157 36.9109 26.8827C36.8926 26.9498 36.8603 27.0121 36.8161 27.0657C36.7718 27.1192 36.7167 27.1628 36.6544 27.1934C36.5921 27.224 36.5239 27.2411 36.4545 27.2434Z" fill="white"/>
<path id="Vector_5" d="M34.7332 25.7577C34.7314 25.8522 34.7185 25.9462 34.695 26.0377C34.6672 26.1297 34.6117 26.2109 34.5362 26.2703C34.4606 26.3296 34.3686 26.3643 34.2726 26.3695C34.1767 26.3747 34.0814 26.3502 33.9999 26.2994C33.9183 26.2486 33.8544 26.1739 33.8168 26.0854C33.7818 25.957 33.7657 25.824 33.7691 25.6909C33.7765 24.9792 33.6356 24.2738 33.3554 23.6195C33.2918 23.4795 33.2218 23.3364 33.1422 23.1995C32.6868 22.4145 32.0108 21.7805 31.1982 21.3764C30.7079 21.1449 30.1872 20.9842 29.6518 20.8991C29.4163 20.8609 29.1809 20.8386 28.9454 20.8068C28.8841 20.8037 28.8241 20.7881 28.7691 20.7609C28.7141 20.7337 28.6653 20.6955 28.6256 20.6487C28.5859 20.6019 28.5563 20.5474 28.5385 20.4887C28.5207 20.43 28.5152 20.3682 28.5222 20.3073C28.5223 20.2449 28.5355 20.1833 28.561 20.1264C28.5866 20.0695 28.6239 20.0186 28.6704 19.9772C28.717 19.9357 28.7718 19.9046 28.8313 19.8858C28.8907 19.867 28.9535 19.861 29.0154 19.8682C29.9497 19.9042 30.865 20.1431 31.6977 20.5682C32.7146 21.0799 33.5441 21.8994 34.0682 22.91C34.3633 23.5001 34.561 24.134 34.6536 24.7873C34.6708 24.8725 34.6835 24.9585 34.6918 25.045C34.7077 25.2359 34.7141 25.4268 34.73 25.6623C34.73 25.6845 34.7332 25.7132 34.7332 25.7577Z" fill="white"/>
<path id="Vector_6" d="M32.5535 25.3181C32.5355 25.3988 32.4938 25.4722 32.4337 25.5289C32.3736 25.5856 32.2978 25.623 32.2163 25.6363H32.1463C32.042 25.643 31.9384 25.6156 31.8512 25.5582C31.7639 25.5008 31.6977 25.4165 31.6626 25.3181C31.6428 25.2659 31.63 25.2114 31.6245 25.1558C31.6077 24.9417 31.5758 24.7291 31.529 24.5195C31.4344 24.0951 31.1933 23.7177 30.8481 23.4535C30.6812 23.3337 30.495 23.2433 30.2976 23.1863C30.0463 23.1131 29.7822 23.1322 29.534 23.0717C29.4113 23.05 29.3023 22.9805 29.2307 22.8785C29.1591 22.7766 29.1309 22.6504 29.1522 22.5276C29.1759 22.4101 29.2416 22.3051 29.3371 22.2325C29.4325 22.1599 29.5512 22.1245 29.6708 22.1331C31.1281 22.2381 32.2163 22.9381 32.4963 24.5004C32.5251 24.6454 32.5453 24.792 32.5567 24.9395C32.5746 25.0651 32.5735 25.1927 32.5535 25.3181Z" fill="white"/>
</g>
</g>
</g>
</g>
<defs>
<clipPath id="clip0_7625_485644">
<rect width="56" height="56" fill="white" transform="translate(0.5 0.5)"/>
</clipPath>
</defs>
</svg>
