<svg width="57" height="57" viewBox="0 0 57 57" fill="none" xmlns="http://www.w3.org/2000/svg">
<rect x="0.5" y="0.5" width="56" height="56" rx="28" fill="url(#paint0_linear_7625_485498)"/>
<path d="M11.5156 44.79L13.9165 36.0718C12.4322 33.5129 11.6535 30.6149 11.6616 27.6523C11.6616 18.369 19.2535 10.8213 28.573 10.8213C33.0989 10.8213 37.349 12.573 40.5367 15.7535C43.7324 18.9341 45.4925 23.164 45.4843 27.6604C45.4843 36.9436 37.8925 44.4914 28.5649 44.4914H28.5568C25.726 44.4914 22.944 43.781 20.4701 42.441L11.5156 44.79ZM20.9 39.3977L21.411 39.7044C23.5685 40.9799 26.0424 41.6499 28.5649 41.6579H28.573C36.319 41.6579 42.6293 35.3857 42.6293 27.6684C42.6293 23.9309 41.1693 20.4194 38.517 17.7716C35.8647 15.1239 32.3284 13.6709 28.573 13.6709C20.827 13.6628 14.5167 19.9351 14.5167 27.6523C14.5167 30.292 15.2548 32.8671 16.6661 35.0951L16.9986 35.6278L15.5792 40.7861L20.9 39.3977Z" fill="white"/>
<path d="M12.1077 44.2003L14.4274 35.7808C12.9918 33.3187 12.2374 30.5176 12.2374 27.6599C12.2456 18.6996 19.5698 11.4102 28.5729 11.4102C32.9447 11.4102 37.0408 13.1054 40.1229 16.1729C43.2051 19.2404 44.9003 23.325 44.9003 27.668C44.9003 36.6284 37.568 43.9178 28.5729 43.9178H28.5648C25.8314 43.9178 23.1467 43.2316 20.7621 41.9401L12.1077 44.2003Z" fill="url(#paint1_linear_7625_485498)"/>
<path d="M11.5156 44.79L13.9165 36.0718C12.4322 33.5129 11.6535 30.6149 11.6616 27.6523C11.6616 18.369 19.2535 10.8213 28.573 10.8213C33.0989 10.8213 37.349 12.573 40.5367 15.7535C43.7324 18.9341 45.4925 23.164 45.4843 27.6604C45.4843 36.9436 37.8925 44.4914 28.5649 44.4914H28.5568C25.726 44.4914 22.944 43.781 20.4701 42.441L11.5156 44.79ZM20.9 39.3977L21.411 39.7044C23.5685 40.9799 26.0424 41.6499 28.5649 41.6579H28.573C36.319 41.6579 42.6293 35.3857 42.6293 27.6684C42.6293 23.9309 41.1693 20.4194 38.517 17.7716C35.8647 15.1239 32.3284 13.6709 28.573 13.6709C20.827 13.6628 14.5167 19.9351 14.5167 27.6523C14.5167 30.292 15.2548 32.8671 16.6661 35.0951L16.9986 35.6278L15.5792 40.7861L20.9 39.3977Z" fill="url(#paint2_linear_7625_485498)"/>
<path fill-rule="evenodd" clip-rule="evenodd" d="M24.3471 20.6135C24.0308 19.9112 23.6982 19.8951 23.3981 19.887C23.1548 19.8789 22.8709 19.8789 22.587 19.8789C22.3031 19.8789 21.8489 19.9838 21.4596 20.4036C21.0703 20.8234 19.9834 21.8405 19.9834 23.9151C19.9834 25.9817 21.5001 27.9836 21.711 28.2662C21.9219 28.5487 24.6391 32.932 28.9298 34.6191C32.4986 36.0237 33.2286 35.7412 33.9991 35.6686C34.7697 35.5959 36.4973 34.6514 36.8542 33.6666C37.203 32.6818 37.203 31.8422 37.0975 31.6646C36.9921 31.487 36.7082 31.3821 36.2864 31.1722C35.8647 30.9623 33.7883 29.9452 33.3989 29.7999C33.0096 29.6627 32.7257 29.59 32.45 30.0098C32.1661 30.4296 31.355 31.374 31.1116 31.6566C30.8683 31.9391 30.6169 31.9714 30.1951 31.7615C29.7733 31.5516 28.4107 31.1076 26.7966 29.6708C25.5394 28.5568 24.6878 27.1764 24.4444 26.7566C24.2011 26.3368 24.4201 26.1108 24.631 25.9009C24.8175 25.7153 25.0528 25.4085 25.2636 25.1663C25.4745 24.9242 25.5475 24.7466 25.6854 24.464C25.8233 24.1815 25.7584 23.9393 25.653 23.7295C25.5475 23.5276 24.7202 21.445 24.3471 20.6135Z" fill="white"/>
<defs>
<linearGradient id="paint0_linear_7625_485498" x1="28.4985" y1="56.4972" x2="28.4985" y2="0.498041" gradientUnits="userSpaceOnUse">
<stop stop-color="#20B038"/>
<stop offset="1" stop-color="#60D66A"/>
</linearGradient>
<linearGradient id="paint1_linear_7625_485498" x1="28.5031" y1="44.1987" x2="28.5031" y2="11.409" gradientUnits="userSpaceOnUse">
<stop stop-color="#20B038"/>
<stop offset="1" stop-color="#60D66A"/>
</linearGradient>
<linearGradient id="paint2_linear_7625_485498" x1="28.5033" y1="44.7868" x2="28.5033" y2="10.8213" gradientUnits="userSpaceOnUse">
<stop stop-color="#F9F9F9"/>
<stop offset="1" stop-color="white"/>
</linearGradient>
</defs>
</svg>
