<svg width="16" height="12" viewBox="0 0 16 12" fill="none" xmlns="http://www.w3.org/2000/svg">
<g id="HR - Croatia (Hrvatska)">
<g id="flag">
<mask id="mask0_1640_81420" style="mask-type:luminance" maskUnits="userSpaceOnUse" x="0" y="0" width="16" height="12">
<rect id="mask" width="16" height="12" fill="white"/>
</mask>
<g mask="url(#mask0_1640_81420)">
<g id="contents">
<path id="background" fill-rule="evenodd" clip-rule="evenodd" d="M0 0V12H16V0H0Z" fill="#F7FCFF"/>
<mask id="mask1_1640_81420" style="mask-type:luminance" maskUnits="userSpaceOnUse" x="0" y="0" width="16" height="12">
<path id="background_2" fill-rule="evenodd" clip-rule="evenodd" d="M0 0V12H16V0H0Z" fill="white"/>
</mask>
<g mask="url(#mask1_1640_81420)">
<path id="top" fill-rule="evenodd" clip-rule="evenodd" d="M0 0V4H16V0H0Z" fill="#E31D1C"/>
<path id="bottom" fill-rule="evenodd" clip-rule="evenodd" d="M0 8V12H16V8H0Z" fill="#3D58DB"/>
<g id="mark">
<rect id="Rectangle 90" x="5.03809" y="3.19873" width="5.7" height="2" fill="#E31D1C"/>
<g id="shield">
<path id="Path 2" d="M5.32567 4.47998H10.3899C10.3985 4.86446 10.4011 5.53516 10.401 6.18083C10.401 6.59779 10.3999 6.99921 10.3988 7.29643L10.3973 7.65291L10.3968 7.75169L10.3967 7.7659L10.3965 7.76754C10.3942 7.78085 10.3905 7.8018 10.3847 7.82928C10.3732 7.88433 10.3538 7.96513 10.323 8.06304C10.2611 8.2597 10.1546 8.52045 9.97716 8.77953C9.62994 9.28648 8.99948 9.80771 7.82444 9.80771C6.65098 9.80771 6.05104 9.28718 5.7317 8.7851C5.56773 8.52728 5.47409 8.26743 5.42168 8.07092C5.3956 7.97315 5.3801 7.89243 5.37124 7.83744C5.36681 7.80998 5.36406 7.78906 5.36248 7.77578L5.36153 7.76718L5.36126 7.74514L5.36007 7.64699L5.35583 7.29272C5.35231 6.99728 5.34763 6.59796 5.34294 6.18244C5.33579 5.54754 5.32865 4.87675 5.32567 4.47998ZM5.3607 7.75934C5.36068 7.7592 5.36068 7.75919 5.3607 7.75932L5.3607 7.75934Z" fill="#F7FCFF" stroke="#E31D1C" stroke-width="0.5625"/>
<mask id="mask2_1640_81420" style="mask-type:luminance" maskUnits="userSpaceOnUse" x="5" y="4" width="6" height="7">
<path id="Path 2_2" d="M5.32567 4.47998H10.3899C10.3985 4.86446 10.4011 5.53516 10.401 6.18083C10.401 6.59779 10.3999 6.99921 10.3988 7.29643L10.3973 7.65291L10.3968 7.75169L10.3967 7.7659L10.3965 7.76754C10.3942 7.78085 10.3905 7.8018 10.3847 7.82928C10.3732 7.88433 10.3538 7.96513 10.323 8.06304C10.2611 8.2597 10.1546 8.52045 9.97716 8.77953C9.62994 9.28648 8.99948 9.80771 7.82444 9.80771C6.65098 9.80771 6.05104 9.28718 5.7317 8.7851C5.56773 8.52728 5.47409 8.26743 5.42168 8.07092C5.3956 7.97315 5.3801 7.89243 5.37124 7.83744C5.36681 7.80998 5.36406 7.78906 5.36248 7.77578L5.36153 7.76718L5.36126 7.74514L5.36007 7.64699L5.35583 7.29272C5.35231 6.99728 5.34763 6.59796 5.34294 6.18244C5.33579 5.54754 5.32865 4.87675 5.32567 4.47998ZM5.3607 7.75934C5.36068 7.7592 5.36068 7.75919 5.3607 7.75932L5.3607 7.75934Z" fill="white" stroke="white" stroke-width="0.5625"/>
</mask>
<g mask="url(#mask2_1640_81420)">
<path id="Combined Shape" fill-rule="evenodd" clip-rule="evenodd" d="M5.24902 4.52002H6.30371V5.59097H5.24902V4.52002ZM7.3584 5.59097H6.30371V6.66192H5.24902V7.73287H6.30371V8.80382H5.24902V9.87477H6.30371V8.80382H7.3584V9.87477H8.41309V8.80382H9.46777V9.87477H10.5225V8.80382H9.46777V7.73287H10.5225V6.66192H9.46777V5.59097H10.5225V4.52002H9.46777V5.59097H8.41309V4.52002H7.3584V5.59097ZM7.3584 6.66192V5.59097H8.41309V6.66192H7.3584ZM7.3584 7.73287V6.66192H6.30371V7.73287H7.3584ZM8.41309 7.73287V8.80382H7.3584V7.73287H8.41309ZM8.41309 7.73287V6.66192H9.46777V7.73287H8.41309Z" fill="#F50100"/>
</g>
</g>
<g id="top_2">
<g id="Group 11">
<path id="Path 333" fill-rule="evenodd" clip-rule="evenodd" d="M5.22633 4.08127C5.22633 4.08127 5.55255 3.90703 5.83079 3.81723C6.10903 3.72743 6.32895 3.67836 6.32895 3.67836L5.91498 2.15232L5.08582 1.84253L4.61621 2.61658L5.22633 4.08127Z" fill="#56C6F5" stroke="white" stroke-width="0.15"/>
</g>
<g id="Group 12">
<path id="Path 333_2" fill-rule="evenodd" clip-rule="evenodd" d="M7.27041 3.53794C7.27041 3.53794 7.54861 3.51311 7.84092 3.51879C8.13324 3.52447 8.38053 3.52654 8.38053 3.52654L8.52331 2.02181L7.89715 1.45611L7.20112 2.0351L7.27041 3.53794Z" fill="#56C6F5" stroke="white" stroke-width="0.15"/>
</g>
<g id="Group 8">
<path id="Path 333_3" d="M6.23438 3.66601L6.25599 3.73942L6.32894 3.71634L6.32895 3.71634L6.32898 3.71633L6.32913 3.71628L6.32977 3.71608L6.33239 3.71526L6.34272 3.71205L6.38136 3.70029C6.41425 3.69041 6.46011 3.67697 6.51193 3.66271C6.61662 3.63389 6.74185 3.60277 6.83381 3.58999C6.92826 3.57687 7.04517 3.56736 7.13948 3.56112C7.18642 3.55801 7.22735 3.55574 7.25653 3.55425L7.29071 3.55259L7.29982 3.55218L7.30213 3.55208L7.3027 3.55206L7.30283 3.55206L7.30286 3.55205L7.30286 3.55205L7.38125 3.54883L7.37451 3.47067L7.24837 2.00846L7.24539 1.97387L7.21707 1.95376L6.53571 1.46986L6.4831 1.4325L6.43831 1.47894L5.81907 2.12089L5.78878 2.15229L5.8011 2.19414L6.23438 3.66601Z" fill="#2E42A5" stroke="white" stroke-width="0.15"/>
<mask id="mask3_1640_81420" style="mask-type:luminance" maskUnits="userSpaceOnUse" x="5" y="1" width="3" height="3">
<path id="Path 333_4" d="M6.23438 3.66601L6.25599 3.73942L6.32894 3.71634L6.32895 3.71634L6.32898 3.71633L6.32913 3.71628L6.32977 3.71608L6.33239 3.71526L6.34272 3.71205L6.38136 3.70029C6.41425 3.69041 6.46011 3.67697 6.51193 3.66271C6.61662 3.63389 6.74185 3.60277 6.83381 3.58999C6.92826 3.57687 7.04517 3.56736 7.13948 3.56112C7.18642 3.55801 7.22735 3.55574 7.25653 3.55425L7.29071 3.55259L7.29982 3.55218L7.30213 3.55208L7.3027 3.55206L7.30283 3.55206L7.30286 3.55205L7.30286 3.55205L7.38125 3.54883L7.37451 3.47067L7.24837 2.00846L7.24539 1.97387L7.21707 1.95376L6.53571 1.46986L6.4831 1.4325L6.43831 1.47894L5.81907 2.12089L5.78878 2.15229L5.8011 2.19414L6.23438 3.66601Z" fill="white" stroke="white" stroke-width="0.15"/>
</mask>
<g mask="url(#mask3_1640_81420)">
</g>
</g>
<g id="Group 10">
<path id="Path 333_5" d="M9.47042 3.66437L9.45002 3.73995L9.37539 3.71634L9.37539 3.71634L9.37536 3.71633L9.37521 3.71628L9.37457 3.71608L9.37194 3.71526L9.36162 3.71205L9.32297 3.70029C9.29008 3.69041 9.24423 3.67697 9.19241 3.66271C9.08772 3.63389 8.96249 3.60277 8.87053 3.58999C8.77608 3.57687 8.65917 3.56736 8.56486 3.56112C8.51792 3.55801 8.47699 3.55574 8.44781 3.55425L8.41362 3.55259L8.40452 3.55218L8.40221 3.55208L8.40164 3.55206L8.4015 3.55206L8.40148 3.55205L8.40147 3.55205L8.32309 3.54883L8.32983 3.47067L8.45597 2.00846L8.45895 1.97387L8.48726 1.95376L9.16862 1.46986L9.22271 1.43144L9.26744 1.48044L9.85129 2.11997L9.87903 2.15036L9.86831 2.19008L9.47042 3.66437Z" fill="#2E42A5" stroke="white" stroke-width="0.15"/>
<mask id="mask4_1640_81420" style="mask-type:luminance" maskUnits="userSpaceOnUse" x="8" y="1" width="2" height="3">
<path id="Path 333_6" d="M9.47042 3.66437L9.45002 3.73995L9.37539 3.71634L9.37539 3.71634L9.37536 3.71633L9.37521 3.71628L9.37457 3.71608L9.37194 3.71526L9.36162 3.71205L9.32297 3.70029C9.29008 3.69041 9.24423 3.67697 9.19241 3.66271C9.08772 3.63389 8.96249 3.60277 8.87053 3.58999C8.77608 3.57687 8.65917 3.56736 8.56486 3.56112C8.51792 3.55801 8.47699 3.55574 8.44781 3.55425L8.41362 3.55259L8.40452 3.55218L8.40221 3.55208L8.40164 3.55206L8.4015 3.55206L8.40148 3.55205L8.40147 3.55205L8.32309 3.54883L8.32983 3.47067L8.45597 2.00846L8.45895 1.97387L8.48726 1.95376L9.16862 1.46986L9.22271 1.43144L9.26744 1.48044L9.85129 2.11997L9.87903 2.15036L9.86831 2.19008L9.47042 3.66437Z" fill="white" stroke="white" stroke-width="0.15"/>
</mask>
<g mask="url(#mask4_1640_81420)">
</g>
</g>
<g id="Group 9">
<path id="Path 333_7" d="M10.6303 4.07303L10.5979 4.14765L10.5262 4.10933L10.5262 4.10933L10.5262 4.10932L10.5262 4.10931L10.526 4.10924L10.5254 4.1089L10.5228 4.10751L10.5122 4.10199C10.503 4.09717 10.4894 4.09014 10.4722 4.08141C10.4378 4.06394 10.389 4.03969 10.3317 4.01267C10.2164 3.9584 10.0686 3.89395 9.93402 3.8505C9.79654 3.80613 9.67339 3.7718 9.58465 3.74857C9.5403 3.73697 9.5046 3.72815 9.48008 3.72225L9.45199 3.71562L9.44483 3.71397L9.44307 3.71357L9.44266 3.71348L9.44257 3.71346L9.44257 3.71346L9.44256 3.71346L9.44256 3.71346L9.36503 3.69617L9.38676 3.61975L9.80975 2.13181L9.82012 2.09533L9.85565 2.08206L10.6848 1.77227L10.743 1.75054L10.7752 1.80363L11.2448 2.57768L11.2649 2.61085L11.2495 2.64644L10.6303 4.07303Z" fill="#56C6F5" stroke="white" stroke-width="0.15"/>
<mask id="mask5_1640_81420" style="mask-type:luminance" maskUnits="userSpaceOnUse" x="9" y="1" width="3" height="4">
<path id="Path 333_8" d="M10.6303 4.07303L10.5979 4.14765L10.5262 4.10933L10.5262 4.10933L10.5262 4.10932L10.5262 4.10931L10.526 4.10924L10.5254 4.1089L10.5228 4.10751L10.5122 4.10199C10.503 4.09717 10.4894 4.09014 10.4722 4.08141C10.4378 4.06394 10.389 4.03969 10.3317 4.01267C10.2164 3.9584 10.0686 3.89395 9.93402 3.8505C9.79654 3.80613 9.67339 3.7718 9.58465 3.74857C9.5403 3.73697 9.5046 3.72815 9.48008 3.72225L9.45199 3.71562L9.44483 3.71397L9.44307 3.71357L9.44266 3.71348L9.44257 3.71346L9.44257 3.71346L9.44256 3.71346L9.44256 3.71346L9.36503 3.69617L9.38676 3.61975L9.80975 2.13181L9.82012 2.09533L9.85565 2.08206L10.6848 1.77227L10.743 1.75054L10.7752 1.80363L11.2448 2.57768L11.2649 2.61085L11.2495 2.64644L10.6303 4.07303Z" fill="white" stroke="white" stroke-width="0.15"/>
</mask>
<g mask="url(#mask5_1640_81420)">
</g>
</g>
</g>
</g>
</g>
</g>
</g>
</g>
</g>
</svg>
