<svg width="16" height="12" viewBox="0 0 16 12" fill="none" xmlns="http://www.w3.org/2000/svg">
<mask id="mask0_1640_80417" style="mask-type:luminance" maskUnits="userSpaceOnUse" x="0" y="0" width="16" height="12">
<rect width="16" height="12" fill="white"/>
</mask>
<g mask="url(#mask0_1640_80417)">
<path fill-rule="evenodd" clip-rule="evenodd" d="M4 0H16V12H4V0Z" fill="#EF0000"/>
<path fill-rule="evenodd" clip-rule="evenodd" d="M0 0H6V12H0V0Z" fill="#2F8D00"/>
<mask id="mask1_1640_80417" style="mask-type:luminance" maskUnits="userSpaceOnUse" x="2" y="2" width="8" height="8">
<path fill-rule="evenodd" clip-rule="evenodd" d="M5.95285 9.90366C3.8226 9.90366 2.0957 8.15596 2.0957 6.00005C2.0957 3.84414 3.8226 2.09644 5.95285 2.09644C8.08309 2.09644 9.80999 3.84414 9.80999 6.00005C9.80999 8.15596 8.08309 9.90366 5.95285 9.90366Z" fill="white"/>
</mask>
<g mask="url(#mask1_1640_80417)">
<path fill-rule="evenodd" clip-rule="evenodd" d="M5.71484 2H6.21484V3.3494H5.71484V2Z" fill="#FFE017"/>
<path fill-rule="evenodd" clip-rule="evenodd" d="M5.71484 8.74707H6.21484V10.0001H5.71484V8.74707Z" fill="#FFE017"/>
<path d="M2.15737 6.20201L2.01758 5.84337C3.56017 5.22753 4.72445 4.83037 5.51445 4.65138C6.67351 4.38878 7.94704 4.19449 9.33514 4.06836L9.36921 4.45236C7.99703 4.57704 6.73983 4.76884 5.59767 5.02761C4.83119 5.20127 3.68308 5.59291 2.15737 6.20201Z" fill="#FFE017"/>
<path d="M9.57115 3.83204L9.45771 4.20009C8.29185 3.83204 7.34214 3.67383 6.61213 3.72283L6.58691 3.33814C7.37071 3.28552 8.36427 3.45104 9.57115 3.83204Z" fill="#FFE017"/>
<path d="M9.97478 5.88991L9.75927 6.20784C9.16494 5.7952 8.43272 5.58793 7.55762 5.58793V5.20239C8.50631 5.20239 9.31369 5.43093 9.97478 5.88991Z" fill="#FFE017"/>
<path d="M9.65113 6.00537L9.74962 6.3778C8.46831 6.72487 7.26533 6.92178 6.14061 6.96815C5.00813 7.01484 3.6882 6.81723 2.17969 6.37681L2.28528 6.00637C3.75713 6.43609 5.03745 6.62777 6.1251 6.58293C7.22052 6.53777 8.39589 6.34538 9.65113 6.00537Z" fill="#FFE017"/>
<path d="M9.50627 7.81811L8.9041 8.43545C7.75975 7.29217 6.75229 6.47468 5.8879 5.9835C5.00875 5.48392 3.86225 4.97663 2.4502 4.46368L2.73977 3.64722C4.19347 4.17529 5.38214 4.70124 6.30755 5.22711C7.24773 5.76136 8.31191 6.62486 9.50627 7.81811Z" fill="#FFE017"/>
<path d="M2.72988 8.1676L2.50195 7.85868C2.53378 7.83463 2.59058 7.79451 2.66883 7.74368C2.79803 7.65974 2.9415 7.57594 3.09586 7.49764C3.52101 7.28197 3.94748 7.14731 4.35424 7.13494C4.37413 7.13434 4.39394 7.13403 4.41366 7.13403V7.51958C4.39777 7.51958 4.38178 7.51982 4.36568 7.52031C4.02289 7.53073 3.64646 7.64959 3.26656 7.84231C3.12496 7.91414 2.99303 7.9912 2.87462 8.06812C2.8334 8.0949 2.79694 8.11966 2.76569 8.14173C2.74747 8.1546 2.73538 8.16345 2.72988 8.1676Z" fill="#FFE017"/>
<path d="M2.90625 8.30127L3.00219 7.92816C4.27224 8.26263 5.25139 8.4293 5.93473 8.4293C6.61552 8.4293 7.62882 8.2327 8.96804 7.83813L9.07452 8.20831C7.70363 8.61221 6.65922 8.81485 5.93473 8.81485C5.21279 8.81485 4.20492 8.64328 2.90625 8.30127Z" fill="#FFE017"/>
<path d="M2.41211 4.84717L3.01565 4.2312L3.89931 5.11802L3.29577 5.73399L2.41211 4.84717Z" fill="#FFE017"/>
<path d="M7.41797 7.92404L7.86689 7.18506L9.2687 8.05728L8.81978 8.79626L7.41797 7.92404Z" fill="#FFE017"/>
</g>
<path fill-rule="evenodd" clip-rule="evenodd" d="M2.0957 6.00005C2.0957 8.15596 3.8226 9.90366 5.95285 9.90366C8.08309 9.90366 9.80999 8.15596 9.80999 6.00005C9.80999 3.84414 8.08309 2.09644 5.95285 2.09644C3.8226 2.09644 2.0957 3.84414 2.0957 6.00005ZM9.3338 6.04824C9.3338 7.91137 7.84141 9.42174 6.00046 9.42174C4.15952 9.42174 2.66713 7.91137 2.66713 6.04824C2.66713 4.18511 4.15952 2.67475 6.00046 2.67475C7.84141 2.67475 9.3338 4.18511 9.3338 6.04824Z" fill="#F9E813"/>
<path d="M3.8291 3.59253V6.72288C4.03517 7.96192 4.7294 8.58144 5.9118 8.58144C7.09419 8.58144 7.78842 7.96192 7.99449 6.72288V3.59253H3.8291Z" fill="white"/>
<path d="M3.04297 3H8.57978V6.71137L8.57515 6.73706C8.30769 8.21984 7.35951 9 5.81138 9C4.26325 9 3.31506 8.21984 3.0476 6.73706L3.04297 6.71137V3Z" fill="#C51918"/>
<path fill-rule="evenodd" clip-rule="evenodd" d="M4.52402 3.95312H3.62402V4.85312H4.52402V3.95312ZM8.02402 3.95312H7.12402V4.85312H8.02402V3.95312Z" fill="#F9E813"/>
<path fill-rule="evenodd" clip-rule="evenodd" d="M3.62402 5.95312H4.52402V6.85312H3.62402V5.95312ZM7.17382 5.96729H8.07382V6.86729H7.17382V5.96729ZM7.18743 7.42475H6.28743V8.32475H7.18743V7.42475Z" fill="#F9E813"/>
<path fill-rule="evenodd" clip-rule="evenodd" d="M4.32422 7.42065H5.22422V8.32065H4.32422V7.42065Z" fill="#F9E813"/>
<path d="M4.42676 4.35522H7.39662V6.57567C7.39662 6.57567 7.17624 7.72232 5.91169 7.72232C4.64714 7.72232 4.42676 6.57567 4.42676 6.57567V4.35522Z" fill="#F7FCFF"/>
<path d="M5.61914 4.60229H6.27931V5.08303C6.27931 5.08303 6.23032 5.33129 5.94922 5.33129C5.66813 5.33129 5.61914 5.08303 5.61914 5.08303V4.60229Z" fill="#013399"/>
<path d="M5.61914 5.6626H6.27931V6.14333C6.27931 6.14333 6.23032 6.39159 5.94922 6.39159C5.66813 6.39159 5.61914 6.14333 5.61914 6.14333V5.6626Z" fill="#013399"/>
<path d="M6.47656 5.6626H7.13673V6.14333C7.13673 6.14333 7.08774 6.39159 6.80665 6.39159C6.52555 6.39159 6.47656 6.14333 6.47656 6.14333V5.6626Z" fill="#013399"/>
<path d="M4.7627 5.6626H5.42286V6.14333C5.42286 6.14333 5.37387 6.39159 5.09278 6.39159C4.81168 6.39159 4.7627 6.14333 4.7627 6.14333V5.6626Z" fill="#013399"/>
<path d="M5.61914 6.7229H6.27931V7.20364C6.27931 7.20364 6.23032 7.45189 5.94922 7.45189C5.66813 7.45189 5.61914 7.20364 5.61914 7.20364V6.7229Z" fill="#013399"/>
</g>
</svg>
