<svg width="16" height="12" viewBox="0 0 16 12" fill="none" xmlns="http://www.w3.org/2000/svg">
<g id="RS - Serbia">
<g id="flag">
<mask id="mask0_1640_81803" style="mask-type:luminance" maskUnits="userSpaceOnUse" x="0" y="0" width="16" height="12">
<rect id="mask" width="16" height="12" fill="white"/>
</mask>
<g mask="url(#mask0_1640_81803)">
<g id="contents">
<path id="background" fill-rule="evenodd" clip-rule="evenodd" d="M0 0V12H16V0H0Z" fill="#4857A1"/>
<mask id="mask1_1640_81803" style="mask-type:luminance" maskUnits="userSpaceOnUse" x="0" y="0" width="16" height="12">
<path id="background_2" fill-rule="evenodd" clip-rule="evenodd" d="M0 0V12H16V0H0Z" fill="white"/>
</mask>
<g mask="url(#mask1_1640_81803)">
<path id="top" fill-rule="evenodd" clip-rule="evenodd" d="M0 0V4H16V0H0Z" fill="#C51918"/>
<path id="bottom" fill-rule="evenodd" clip-rule="evenodd" d="M0 8V12H16V8H0Z" fill="#F7FCFF"/>
<g id="mark">
<g id="crown">
<path id="Combined Shape" fill-rule="evenodd" clip-rule="evenodd" d="M5.26024 1.34769L5.19558 1.10352C5.24869 1.11889 5.30621 1.13465 5.36687 1.15084L5.36499 1.14153C6.11913 1.21133 7.28688 1.58773 7.50664 1.98038C7.59158 2.13215 7.50918 2.26044 7.4012 2.42857L7.40116 2.42863C7.38503 2.45374 7.36834 2.47973 7.35155 2.50682C7.29728 2.59438 7.2481 2.6781 7.20176 2.757C7.03259 3.04504 6.90115 3.26885 6.69702 3.38064L6.70099 4.02011L3.33211 3.99281L3.32781 3.34853C3.15296 3.22884 3.0302 3.01982 2.87615 2.75753L2.87615 2.75753C2.82981 2.67863 2.78064 2.59491 2.72636 2.50735C2.70956 2.48024 2.69285 2.45422 2.67671 2.4291C2.56873 2.26097 2.48633 2.13267 2.57127 1.98091C2.73717 1.68449 3.4834 1.39215 4.16366 1.23663C4.29201 1.194 4.42563 1.15402 4.55814 1.11567L4.61276 1.15292C4.67172 1.1447 4.72873 1.13801 4.7832 1.13297L4.86348 1.30406H5.12697C5.12697 1.30406 5.2926 1.76743 5.2926 2.02476C5.2926 2.2821 5.12697 2.4949 5.12697 2.4949V2.67254C5.15589 2.67481 5.18624 2.67758 5.21778 2.68079C5.21779 2.6651 5.21921 2.64857 5.22219 2.63166C5.23716 2.54677 5.28581 2.4844 5.33085 2.49234C5.37589 2.50028 5.40027 2.57553 5.3853 2.66042C5.38292 2.67396 5.37967 2.68693 5.37573 2.69912C5.55328 2.72189 5.75219 2.75365 5.9406 2.78632C6.01245 2.6551 6.10004 2.52546 6.18367 2.40168L6.18367 2.40167C6.39984 2.08171 6.58956 1.80091 6.4125 1.63328C6.3787 1.60128 6.31736 1.57153 6.23823 1.54399C5.97775 1.48088 5.69395 1.43161 5.41836 1.4061L5.41114 1.37029C5.35832 1.36221 5.3076 1.35468 5.26024 1.34769ZM6.54196 2.89849C6.63678 2.91733 6.69422 2.92929 6.69422 2.92929L6.69483 3.02801C7.02895 2.78933 7.26294 2.24929 7.283 2.07252C7.29492 1.96752 7.1194 1.8453 6.84382 1.73338C6.96979 1.96802 6.79354 2.20142 6.57283 2.49368C6.48915 2.60449 6.39909 2.72375 6.31668 2.85475L6.39973 2.87065C6.39849 2.84588 6.40143 2.81798 6.4091 2.78936C6.43141 2.70609 6.48531 2.64819 6.52949 2.66003C6.57367 2.67187 6.5914 2.74896 6.56909 2.83222C6.56247 2.85694 6.55306 2.87941 6.54196 2.89849ZM4.81894 2.67374V2.47591C4.81894 2.47591 4.67553 2.32488 4.65331 2.01034C4.63713 1.78145 4.68835 1.51169 4.71744 1.38174C4.51696 1.4073 4.30636 1.4453 4.10103 1.49146C3.93612 1.53256 3.80259 1.57978 3.74607 1.63328C3.56901 1.80091 3.75873 2.08171 3.9749 2.40167C4.05569 2.52124 4.14016 2.64627 4.21057 2.7729C4.3322 2.74809 4.45443 2.72511 4.56856 2.70683C4.56378 2.69029 4.56038 2.67225 4.55872 2.65326C4.55121 2.56739 4.58205 2.49455 4.62762 2.49056C4.67318 2.48657 4.71621 2.55295 4.72372 2.63882C4.7251 2.65455 4.72519 2.66983 4.72414 2.68433C4.75704 2.68018 4.78873 2.67661 4.81894 2.67374ZM3.84111 2.85351C3.75892 2.723 3.66916 2.60414 3.58575 2.49369L3.58575 2.49368C3.35991 2.19463 3.18062 1.95721 3.32402 1.71702C3.00053 1.83807 2.78301 1.96819 2.79491 2.07305C2.81379 2.23945 3.02226 2.72779 3.32537 2.98358L3.32534 2.98003C3.32534 2.98003 3.44922 2.94727 3.63234 2.90289C3.62021 2.88438 3.60961 2.86237 3.60168 2.83798C3.57504 2.756 3.58871 2.67808 3.63221 2.66395C3.67571 2.64982 3.73257 2.70482 3.7592 2.7868C3.7686 2.81571 3.77298 2.84411 3.77281 2.86939L3.84111 2.85351Z" fill="#F6C540"/>
<g id="gems">
<path id="Combined Shape_2" fill-rule="evenodd" clip-rule="evenodd" d="M4.29661 1.34209C4.31971 1.35794 4.34814 1.36728 4.3789 1.36728C4.45619 1.36728 4.51886 1.30824 4.51886 1.2354C4.51886 1.16256 4.45619 1.10352 4.3789 1.10352C4.32408 1.10352 4.27662 1.13321 4.25366 1.17646C4.23056 1.16062 4.20212 1.15127 4.17137 1.15127C4.12206 1.15127 4.0787 1.1753 4.05377 1.21161C4.02959 1.19283 3.9986 1.18155 3.96482 1.18155C3.88752 1.18155 3.82486 1.2406 3.82486 1.31344C3.82486 1.3175 3.82505 1.32152 3.82544 1.32548C3.79978 1.29546 3.76046 1.27626 3.71637 1.27626C3.64631 1.27626 3.58828 1.32476 3.57802 1.38808C3.5524 1.35736 3.51261 1.33763 3.46792 1.33763C3.40076 1.33763 3.34464 1.38222 3.33109 1.44169C3.3081 1.42611 3.2799 1.41692 3.24942 1.41692C3.1874 1.41692 3.1348 1.45494 3.11643 1.50759C3.0976 1.49871 3.07634 1.49371 3.05385 1.49371C2.98479 1.49371 2.92741 1.54084 2.91596 1.60282C2.90699 1.60112 2.89771 1.60023 2.88821 1.60023C2.81165 1.60023 2.74945 1.65816 2.74827 1.73004C2.73994 1.72858 2.73136 1.72782 2.72258 1.72782C2.64529 1.72782 2.58262 1.78687 2.58262 1.8597C2.58262 1.86894 2.58363 1.87795 2.58555 1.88665C2.57632 1.88484 2.56675 1.88389 2.55695 1.88389C2.47965 1.88389 2.41699 1.94294 2.41699 2.01578C2.41699 2.07112 2.45316 2.1185 2.50444 2.13807C2.50142 2.14885 2.49981 2.16018 2.49981 2.17185C2.49981 2.22719 2.53598 2.27457 2.58726 2.29414C2.58423 2.30493 2.58262 2.31625 2.58262 2.32793C2.58262 2.39904 2.64234 2.457 2.7171 2.45971C2.68557 2.4839 2.66544 2.52075 2.66544 2.56204C2.66544 2.63488 2.7281 2.69393 2.8054 2.69393C2.88269 2.69393 2.94536 2.63488 2.94536 2.56204C2.94536 2.49094 2.88564 2.43297 2.81088 2.43026C2.84241 2.40608 2.86254 2.36922 2.86254 2.32793C2.86254 2.27259 2.82637 2.22521 2.77509 2.20564C2.77811 2.19486 2.77973 2.18353 2.77973 2.17185C2.77973 2.11651 2.74355 2.06914 2.69227 2.04957C2.6953 2.03878 2.69691 2.02746 2.69691 2.01578C2.69691 2.00654 2.6959 1.99753 2.69399 1.98883C2.70322 1.99064 2.71278 1.99159 2.72258 1.99159C2.79914 1.99159 2.86134 1.93366 2.86252 1.86178C2.87085 1.86324 2.87944 1.864 2.88821 1.864C2.95727 1.864 3.01465 1.81687 3.0261 1.75488C3.03506 1.75658 3.04434 1.75747 3.05385 1.75747C3.11587 1.75747 3.16847 1.71946 3.18683 1.6668C3.20567 1.67569 3.22692 1.68069 3.24942 1.68069C3.28013 1.68069 3.30852 1.67137 3.3316 1.65558C3.33595 1.67321 3.34406 1.68949 3.35509 1.70363C3.33804 1.72548 3.32797 1.75246 3.32797 1.78166C3.32797 1.85277 3.38768 1.91074 3.46244 1.91345C3.43092 1.93763 3.41078 1.97449 3.41078 2.01578C3.41078 2.07112 3.44695 2.1185 3.49823 2.13807C3.49521 2.14885 3.4936 2.16018 3.4936 2.17185C3.4936 2.22719 3.52977 2.27457 3.58105 2.29414C3.57802 2.30493 3.57641 2.31625 3.57641 2.32793C3.57641 2.40077 3.63907 2.45981 3.71637 2.45981C3.79367 2.45981 3.85633 2.40077 3.85633 2.32793C3.85633 2.27259 3.82016 2.22521 3.76888 2.20564C3.7719 2.19486 3.77351 2.18353 3.77351 2.17185C3.77351 2.11651 3.73734 2.06914 3.68606 2.04957C3.68909 2.03878 3.6907 2.02746 3.6907 2.01578C3.6907 1.94467 3.63098 1.88671 3.55622 1.88399C3.58775 1.85981 3.60788 1.82295 3.60788 1.78166C3.60788 1.75246 3.59781 1.72548 3.58076 1.70363C3.59781 1.68178 3.60788 1.65479 3.60788 1.62559C3.60788 1.59639 3.59781 1.5694 3.58076 1.54755C3.59383 1.5308 3.6028 1.51104 3.60627 1.48958C3.6319 1.52029 3.67169 1.54002 3.71637 1.54002C3.79367 1.54002 3.85633 1.48098 3.85633 1.40814C3.85633 1.40408 3.85613 1.40006 3.85575 1.3961C3.88141 1.42611 3.92073 1.44532 3.96482 1.44532C4.01413 1.44532 4.05749 1.42129 4.08242 1.38498C4.1066 1.40376 4.13759 1.41504 4.17137 1.41504C4.22619 1.41504 4.27364 1.38534 4.29661 1.34209ZM3.46792 1.6014C3.51423 1.6014 3.55529 1.58021 3.58076 1.54755C3.55529 1.5149 3.51423 1.49371 3.46792 1.49371C3.4821 1.49371 3.4936 1.48287 3.4936 1.46951C3.4936 1.45615 3.4821 1.44532 3.46792 1.44532C3.45375 1.44532 3.44225 1.45615 3.44225 1.46951C3.44225 1.48287 3.45375 1.49371 3.46792 1.49371C3.43722 1.49371 3.40882 1.50302 3.38574 1.51882C3.37795 1.48725 3.35813 1.46004 3.33109 1.44169C3.32904 1.45066 3.32797 1.45997 3.32797 1.46951C3.32797 1.49871 3.33804 1.5257 3.35509 1.54755C3.33804 1.5694 3.32797 1.59639 3.32797 1.62559C3.32797 1.6359 3.32922 1.64594 3.3316 1.65558C3.359 1.63682 3.3789 1.60892 3.38626 1.57663C3.40924 1.59222 3.43744 1.6014 3.46792 1.6014ZM3.46792 1.64978C3.42162 1.64978 3.38056 1.67097 3.35509 1.70363C3.38056 1.73628 3.42162 1.75747 3.46792 1.75747C3.51423 1.75747 3.55529 1.73628 3.58076 1.70363C3.55529 1.67097 3.51423 1.64978 3.46792 1.64978ZM3.46792 1.64978C3.4821 1.64978 3.4936 1.63895 3.4936 1.62559C3.4936 1.61223 3.4821 1.6014 3.46792 1.6014C3.45375 1.6014 3.44225 1.61223 3.44225 1.62559C3.44225 1.63895 3.45375 1.64978 3.46792 1.64978ZM3.38626 1.57663C3.37432 1.56854 3.36379 1.55871 3.35509 1.54755C3.36367 1.53655 3.37402 1.52685 3.38574 1.51882C3.38812 1.52846 3.38938 1.53849 3.38938 1.54881C3.38938 1.55835 3.3883 1.56766 3.38626 1.57663ZM3.76888 2.20564C3.75266 2.19945 3.73494 2.19605 3.71637 2.19605C3.65147 2.19605 3.59688 2.23768 3.58105 2.29414C3.59726 2.30033 3.61499 2.30374 3.63356 2.30374C3.69846 2.30374 3.75304 2.26211 3.76888 2.20564ZM3.68606 2.04957C3.66985 2.04338 3.65212 2.03997 3.63356 2.03997C3.56865 2.03997 3.51407 2.0816 3.49823 2.13807C3.51445 2.14426 3.53217 2.14766 3.55074 2.14766C3.61564 2.14766 3.67023 2.10603 3.68606 2.04957ZM3.55622 1.88399L3.55074 1.88389C3.51726 1.88389 3.48653 1.89497 3.46244 1.91345L3.46792 1.91355C3.5014 1.91355 3.53214 1.90247 3.55622 1.88399ZM2.81088 2.43026L2.8054 2.43016C2.77192 2.43016 2.74118 2.44124 2.7171 2.45971L2.72258 2.45981C2.75606 2.45981 2.7868 2.44874 2.81088 2.43026ZM2.77509 2.20564C2.75925 2.26211 2.70467 2.30374 2.63977 2.30374C2.6212 2.30374 2.60347 2.30033 2.58726 2.29414C2.60309 2.23768 2.65768 2.19605 2.72258 2.19605C2.74115 2.19605 2.75888 2.19945 2.77509 2.20564ZM2.69227 2.04957C2.67644 2.10603 2.62185 2.14766 2.55695 2.14766C2.53838 2.14766 2.52066 2.14426 2.50444 2.13807C2.52028 2.0816 2.57486 2.03997 2.63977 2.03997C2.65834 2.03997 2.67606 2.04338 2.69227 2.04957ZM2.58555 1.88665C2.59683 1.93786 2.63964 1.9782 2.69399 1.98883C2.6827 1.93762 2.6399 1.89728 2.58555 1.88665ZM2.86252 1.86178C2.7975 1.85042 2.74826 1.79669 2.74826 1.73212L2.74827 1.73004C2.8133 1.7414 2.86254 1.79513 2.86254 1.8597L2.86252 1.86178ZM3.0261 1.75488C2.96209 1.74275 2.91389 1.68947 2.91389 1.62559C2.91389 1.61783 2.9146 1.61022 2.91596 1.60282C2.97997 1.61496 3.02817 1.66823 3.02817 1.73212C3.02817 1.73988 3.02746 1.74749 3.0261 1.75488ZM3.18683 1.6668C3.14096 1.64516 3.10946 1.60045 3.10946 1.54881C3.10946 1.53442 3.11191 1.52056 3.11643 1.50759C3.16231 1.52924 3.1938 1.57395 3.1938 1.62559C3.1938 1.63998 3.19136 1.65384 3.18683 1.6668ZM3.60627 1.48958C3.58757 1.46715 3.57641 1.43887 3.57641 1.40814C3.57641 1.40132 3.57696 1.39462 3.57802 1.38808C3.59673 1.4105 3.60788 1.43878 3.60788 1.46951C3.60788 1.47633 3.60733 1.48303 3.60627 1.48958ZM3.82544 1.32548C3.82799 1.35209 3.83893 1.37642 3.85575 1.3961C3.8532 1.36949 3.84225 1.34516 3.82544 1.32548ZM4.08242 1.38498C4.05127 1.36079 4.03141 1.32416 4.03141 1.28316C4.03141 1.25678 4.03963 1.23222 4.05377 1.21161C4.08492 1.2358 4.10478 1.27243 4.10478 1.31344C4.10478 1.33981 4.09656 1.36437 4.08242 1.38498ZM4.29661 1.34209C4.26166 1.31811 4.23894 1.27926 4.23894 1.2354C4.23894 1.21422 4.24424 1.1942 4.25366 1.17646C4.28861 1.20044 4.31133 1.2393 4.31133 1.28316C4.31133 1.30434 4.30603 1.32436 4.29661 1.34209ZM2.88821 1.75631C2.90239 1.75631 2.91389 1.74548 2.91389 1.73212C2.91389 1.71876 2.90239 1.70792 2.88821 1.70792C2.87403 1.70792 2.86254 1.71876 2.86254 1.73212C2.86254 1.74548 2.87403 1.75631 2.88821 1.75631ZM2.72258 1.88389C2.73676 1.88389 2.74826 1.87306 2.74826 1.8597C2.74826 1.84634 2.73676 1.83551 2.72258 1.83551C2.7084 1.83551 2.69691 1.84634 2.69691 1.8597C2.69691 1.87306 2.7084 1.88389 2.72258 1.88389ZM2.55695 2.03997C2.57113 2.03997 2.58262 2.02914 2.58262 2.01578C2.58262 2.00242 2.57113 1.99159 2.55695 1.99159C2.54277 1.99159 2.53128 2.00242 2.53128 2.01578C2.53128 2.02914 2.54277 2.03997 2.55695 2.03997ZM2.63977 2.19605C2.65395 2.19605 2.66544 2.18522 2.66544 2.17185C2.66544 2.15849 2.65395 2.14766 2.63977 2.14766C2.62559 2.14766 2.61409 2.15849 2.61409 2.17185C2.61409 2.18522 2.62559 2.19605 2.63977 2.19605ZM2.72258 2.35212C2.73676 2.35212 2.74826 2.34129 2.74826 2.32793C2.74826 2.31457 2.73676 2.30374 2.72258 2.30374C2.7084 2.30374 2.69691 2.31457 2.69691 2.32793C2.69691 2.34129 2.7084 2.35212 2.72258 2.35212ZM2.83107 2.56204C2.83107 2.5754 2.81958 2.58624 2.8054 2.58624C2.79122 2.58624 2.77973 2.5754 2.77973 2.56204C2.77973 2.54868 2.79122 2.53785 2.8054 2.53785C2.81958 2.53785 2.83107 2.54868 2.83107 2.56204ZM3.05385 1.64978C3.06802 1.64978 3.07952 1.63895 3.07952 1.62559C3.07952 1.61223 3.06802 1.6014 3.05385 1.6014C3.03967 1.6014 3.02817 1.61223 3.02817 1.62559C3.02817 1.63895 3.03967 1.64978 3.05385 1.64978ZM3.24942 1.573C3.2636 1.573 3.27509 1.56217 3.27509 1.54881C3.27509 1.53545 3.2636 1.52462 3.24942 1.52462C3.23524 1.52462 3.22375 1.53545 3.22375 1.54881C3.22375 1.56217 3.23524 1.573 3.24942 1.573ZM3.71637 1.43233C3.73055 1.43233 3.74204 1.4215 3.74204 1.40814C3.74204 1.39478 3.73055 1.38395 3.71637 1.38395C3.70219 1.38395 3.6907 1.39478 3.6907 1.40814C3.6907 1.4215 3.70219 1.43233 3.71637 1.43233ZM3.96482 1.33763C3.979 1.33763 3.99049 1.3268 3.99049 1.31344C3.99049 1.30008 3.979 1.28925 3.96482 1.28925C3.95064 1.28925 3.93915 1.30008 3.93915 1.31344C3.93915 1.3268 3.95064 1.33763 3.96482 1.33763ZM4.17137 1.30735C4.18555 1.30735 4.19704 1.29652 4.19704 1.28316C4.19704 1.26979 4.18555 1.25896 4.17137 1.25896C4.15719 1.25896 4.1457 1.26979 4.1457 1.28316C4.1457 1.29652 4.15719 1.30735 4.17137 1.30735ZM4.3789 1.25959C4.39308 1.25959 4.40457 1.24876 4.40457 1.2354C4.40457 1.22204 4.39308 1.21121 4.3789 1.21121C4.36472 1.21121 4.35322 1.22204 4.35322 1.2354C4.35322 1.24876 4.36472 1.25959 4.3789 1.25959ZM3.46792 1.80586C3.4821 1.80586 3.4936 1.79503 3.4936 1.78167C3.4936 1.7683 3.4821 1.75747 3.46792 1.75747C3.45375 1.75747 3.44225 1.7683 3.44225 1.78167C3.44225 1.79503 3.45375 1.80586 3.46792 1.80586ZM3.55074 2.03997C3.56492 2.03997 3.57641 2.02914 3.57641 2.01578C3.57641 2.00242 3.56492 1.99159 3.55074 1.99159C3.53656 1.99159 3.52507 2.00242 3.52507 2.01578C3.52507 2.02914 3.53656 2.03997 3.55074 2.03997ZM3.63356 2.19605C3.64773 2.19605 3.65923 2.18522 3.65923 2.17185C3.65923 2.15849 3.64773 2.14766 3.63356 2.14766C3.61938 2.14766 3.60788 2.15849 3.60788 2.17185C3.60788 2.18522 3.61938 2.19605 3.63356 2.19605ZM3.71637 2.35212C3.73055 2.35212 3.74204 2.34129 3.74204 2.32793C3.74204 2.31457 3.73055 2.30374 3.71637 2.30374C3.70219 2.30374 3.6907 2.31457 3.6907 2.32793C3.6907 2.34129 3.70219 2.35212 3.71637 2.35212ZM7.36026 2.58624C7.37444 2.58624 7.38594 2.5754 7.38594 2.56204C7.38594 2.54868 7.37444 2.53785 7.36026 2.53785C7.34608 2.53785 7.33459 2.54868 7.33459 2.56204C7.33459 2.5754 7.34608 2.58624 7.36026 2.58624ZM7.2203 2.56204C7.2203 2.63488 7.28297 2.69393 7.36026 2.69393C7.43756 2.69393 7.50022 2.63488 7.50022 2.56204C7.50022 2.52075 7.48009 2.4839 7.44856 2.45971C7.52332 2.457 7.58304 2.39904 7.58304 2.32793C7.58304 2.31625 7.58143 2.30493 7.5784 2.29414C7.62968 2.27457 7.66585 2.22719 7.66585 2.17185C7.66585 2.16018 7.66424 2.14885 7.66122 2.13807C7.7125 2.1185 7.74867 2.07112 7.74867 2.01578C7.74867 1.94294 7.68601 1.88389 7.60871 1.88389C7.59891 1.88389 7.58935 1.88484 7.58011 1.88665C7.58203 1.87795 7.58304 1.86894 7.58304 1.8597C7.58304 1.78687 7.52038 1.72782 7.44308 1.72782C7.4343 1.72782 7.42572 1.72858 7.41739 1.73004C7.41621 1.65816 7.35401 1.60023 7.27745 1.60023C7.26795 1.60023 7.25867 1.60112 7.2497 1.60282C7.23825 1.54084 7.18087 1.49371 7.11182 1.49371C7.08932 1.49371 7.06806 1.49871 7.04923 1.50759C7.03086 1.45494 6.97826 1.41692 6.91624 1.41692C6.88576 1.41692 6.85756 1.42611 6.83458 1.44169C6.82102 1.38222 6.76491 1.33763 6.69774 1.33763C6.65306 1.33763 6.61326 1.35736 6.58764 1.38808C6.57738 1.32476 6.51935 1.27626 6.44929 1.27626C6.4052 1.27626 6.36588 1.29546 6.34023 1.32548C6.34061 1.32152 6.3408 1.3175 6.3408 1.31344C6.3408 1.2406 6.27814 1.18155 6.20084 1.18155C6.16706 1.18155 6.13607 1.19283 6.11189 1.21161C6.08696 1.1753 6.0436 1.15127 5.99429 1.15127C5.96354 1.15127 5.9351 1.16062 5.912 1.17646C5.88904 1.13321 5.84158 1.10352 5.78676 1.10352C5.70947 1.10352 5.64681 1.16256 5.64681 1.2354C5.64681 1.30824 5.70947 1.36728 5.78676 1.36728C5.81752 1.36728 5.84596 1.35794 5.86905 1.34209C5.89202 1.38534 5.93947 1.41504 5.99429 1.41504C6.02808 1.41504 6.05906 1.40376 6.08325 1.38498C6.10818 1.42129 6.15153 1.44532 6.20084 1.44532C6.24493 1.44532 6.28425 1.42611 6.30991 1.3961C6.30953 1.40006 6.30933 1.40408 6.30933 1.40814C6.30933 1.48098 6.37199 1.54002 6.44929 1.54002C6.49397 1.54002 6.53376 1.52029 6.55939 1.48958C6.56286 1.51104 6.57183 1.5308 6.5849 1.54755C6.56785 1.5694 6.55778 1.59639 6.55778 1.62559C6.55778 1.65479 6.56785 1.68178 6.5849 1.70363C6.56785 1.72548 6.55778 1.75246 6.55778 1.78166C6.55778 1.82295 6.57791 1.85981 6.60944 1.88399C6.53468 1.88671 6.47496 1.94467 6.47496 2.01578C6.47496 2.02746 6.47657 2.03878 6.4796 2.04957C6.42832 2.06914 6.39215 2.11651 6.39215 2.17185C6.39215 2.18353 6.39376 2.19486 6.39678 2.20564C6.3455 2.22521 6.30933 2.27259 6.30933 2.32793C6.30933 2.40077 6.37199 2.45981 6.44929 2.45981C6.52659 2.45981 6.58925 2.40077 6.58925 2.32793C6.58925 2.31625 6.58764 2.30493 6.58461 2.29414C6.63589 2.27457 6.67206 2.22719 6.67206 2.17185C6.67206 2.16018 6.67045 2.14885 6.66743 2.13807C6.71871 2.1185 6.75488 2.07112 6.75488 2.01578C6.75488 1.97449 6.73475 1.93763 6.70322 1.91345C6.77798 1.91074 6.8377 1.85277 6.8377 1.78166C6.8377 1.75246 6.82762 1.72548 6.81058 1.70363C6.8216 1.68949 6.82971 1.67321 6.83406 1.65558C6.85714 1.67137 6.88554 1.68069 6.91624 1.68069C6.93874 1.68069 6.96 1.67569 6.97883 1.6668C6.99719 1.71946 7.04979 1.75747 7.11182 1.75747C7.12132 1.75747 7.1306 1.75658 7.13957 1.75488C7.15101 1.81687 7.20839 1.864 7.27745 1.864C7.28622 1.864 7.29481 1.86324 7.30314 1.86178C7.30432 1.93366 7.36652 1.99159 7.44308 1.99159C7.45288 1.99159 7.46244 1.99064 7.47168 1.98883C7.46976 1.99753 7.46875 2.00654 7.46875 2.01578C7.46875 2.02746 7.47036 2.03878 7.47339 2.04957C7.42211 2.06914 7.38594 2.11651 7.38594 2.17185C7.38594 2.18353 7.38755 2.19486 7.39057 2.20564C7.33929 2.22521 7.30312 2.27259 7.30312 2.32793C7.30312 2.36922 7.32326 2.40608 7.35478 2.43026C7.28002 2.43297 7.2203 2.49094 7.2203 2.56204ZM6.7794 1.57663C6.75642 1.59222 6.72822 1.6014 6.69774 1.6014C6.65143 1.6014 6.61037 1.58021 6.5849 1.54755C6.61037 1.5149 6.65143 1.49371 6.69774 1.49371C6.72844 1.49371 6.75684 1.50302 6.77992 1.51882C6.77754 1.52846 6.77628 1.53849 6.77628 1.54881C6.77628 1.55835 6.77736 1.56766 6.7794 1.57663ZM6.81058 1.54755C6.82762 1.5694 6.8377 1.59639 6.8377 1.62559C6.8377 1.6359 6.83644 1.64594 6.83406 1.65558C6.80666 1.63681 6.78676 1.60892 6.7794 1.57663C6.79134 1.56854 6.80187 1.55871 6.81058 1.54755ZM6.81058 1.54755C6.80199 1.53655 6.79164 1.52685 6.77992 1.51882C6.78771 1.48725 6.80753 1.46004 6.83458 1.44169C6.83662 1.45066 6.8377 1.45997 6.8377 1.46951C6.8377 1.49871 6.82762 1.5257 6.81058 1.54755ZM6.58461 2.29414C6.56878 2.23768 6.51419 2.19605 6.44929 2.19605C6.43072 2.19605 6.413 2.19945 6.39678 2.20564C6.41262 2.26211 6.4672 2.30374 6.53211 2.30374C6.55067 2.30374 6.5684 2.30033 6.58461 2.29414ZM6.66743 2.13807C6.65159 2.0816 6.59701 2.03997 6.53211 2.03997C6.51354 2.03997 6.49581 2.04338 6.4796 2.04957C6.49543 2.10603 6.55002 2.14766 6.61492 2.14766C6.63349 2.14766 6.65122 2.14426 6.66743 2.13807ZM6.70322 1.91345C6.67914 1.89497 6.6484 1.88389 6.61492 1.88389L6.60944 1.88399C6.63352 1.90247 6.66426 1.91355 6.69774 1.91355L6.70322 1.91345ZM6.81058 1.70363C6.7851 1.67097 6.74405 1.64978 6.69774 1.64978C6.65143 1.64978 6.61037 1.67097 6.5849 1.70363C6.61037 1.73628 6.65143 1.75747 6.69774 1.75747C6.74405 1.75747 6.7851 1.73628 6.81058 1.70363ZM5.86905 1.34209C5.904 1.31811 5.92672 1.27926 5.92672 1.2354C5.92672 1.21422 5.92142 1.1942 5.912 1.17646C5.87705 1.20044 5.85433 1.2393 5.85433 1.28316C5.85433 1.30434 5.85963 1.32436 5.86905 1.34209ZM6.08325 1.38498C6.11439 1.36079 6.13425 1.32416 6.13425 1.28316C6.13425 1.25678 6.12604 1.23222 6.11189 1.21161C6.08074 1.2358 6.06088 1.27243 6.06088 1.31344C6.06088 1.33981 6.0691 1.36437 6.08325 1.38498ZM6.34023 1.32548C6.33767 1.35209 6.32673 1.37642 6.30991 1.3961C6.31246 1.36949 6.32341 1.34516 6.34023 1.32548ZM6.55939 1.48958C6.57809 1.46715 6.58925 1.43887 6.58925 1.40814C6.58925 1.40132 6.5887 1.39462 6.58764 1.38808C6.56893 1.4105 6.55778 1.43878 6.55778 1.46951C6.55778 1.47633 6.55833 1.48303 6.55939 1.48958ZM6.97883 1.6668C7.02471 1.64516 7.0562 1.60045 7.0562 1.54881C7.0562 1.53442 7.05375 1.52056 7.04923 1.50759C7.00335 1.52924 6.97186 1.57395 6.97186 1.62559C6.97186 1.63998 6.9743 1.65384 6.97883 1.6668ZM7.13957 1.75488C7.20357 1.74275 7.25177 1.68947 7.25177 1.62559C7.25177 1.61783 7.25106 1.61022 7.2497 1.60282C7.18569 1.61496 7.13749 1.66823 7.13749 1.73212C7.13749 1.73988 7.1382 1.74749 7.13957 1.75488ZM7.47168 1.98883C7.52603 1.9782 7.56883 1.93786 7.58011 1.88665C7.52576 1.89728 7.48296 1.93762 7.47168 1.98883ZM7.41739 1.73004L7.41741 1.73212C7.41741 1.79669 7.36817 1.85042 7.30314 1.86178L7.30312 1.8597C7.30312 1.79513 7.35236 1.7414 7.41739 1.73004ZM7.47339 2.04957C7.4896 2.04338 7.50733 2.03997 7.52589 2.03997C7.5908 2.03997 7.64538 2.0816 7.66122 2.13807C7.645 2.14426 7.62728 2.14766 7.60871 2.14766C7.54381 2.14766 7.48922 2.10603 7.47339 2.04957ZM7.39057 2.20564C7.40679 2.19945 7.42451 2.19605 7.44308 2.19605C7.50798 2.19605 7.56257 2.23768 7.5784 2.29414C7.56219 2.30033 7.54446 2.30374 7.52589 2.30374C7.46099 2.30374 7.40641 2.26211 7.39057 2.20564ZM7.44308 2.45981C7.4096 2.45981 7.37886 2.44874 7.35478 2.43026L7.36026 2.43016C7.39374 2.43016 7.42448 2.44124 7.44856 2.45971L7.44308 2.45981ZM7.44308 2.35212C7.45726 2.35212 7.46875 2.34129 7.46875 2.32793C7.46875 2.31457 7.45726 2.30374 7.44308 2.30374C7.4289 2.30374 7.41741 2.31457 7.41741 2.32793C7.41741 2.34129 7.4289 2.35212 7.44308 2.35212ZM7.5259 2.19605C7.54007 2.19605 7.55157 2.18522 7.55157 2.17185C7.55157 2.15849 7.54007 2.14766 7.5259 2.14766C7.51172 2.14766 7.50022 2.15849 7.50022 2.17185C7.50022 2.18522 7.51172 2.19605 7.5259 2.19605ZM7.60871 2.03997C7.62289 2.03997 7.63438 2.02914 7.63438 2.01578C7.63438 2.00242 7.62289 1.99159 7.60871 1.99159C7.59453 1.99159 7.58304 2.00242 7.58304 2.01578C7.58304 2.02914 7.59453 2.03997 7.60871 2.03997ZM7.44308 1.88389C7.45726 1.88389 7.46875 1.87306 7.46875 1.8597C7.46875 1.84634 7.45726 1.83551 7.44308 1.83551C7.4289 1.83551 7.41741 1.84634 7.41741 1.8597C7.41741 1.87306 7.4289 1.88389 7.44308 1.88389ZM7.27745 1.75631C7.29163 1.75631 7.30312 1.74548 7.30312 1.73212C7.30312 1.71876 7.29163 1.70792 7.27745 1.70792C7.26327 1.70792 7.25177 1.71876 7.25177 1.73212C7.25177 1.74548 7.26327 1.75631 7.27745 1.75631ZM7.11182 1.64978C7.126 1.64978 7.13749 1.63895 7.13749 1.62559C7.13749 1.61223 7.126 1.6014 7.11182 1.6014C7.09764 1.6014 7.08614 1.61223 7.08614 1.62559C7.08614 1.63895 7.09764 1.64978 7.11182 1.64978ZM6.91624 1.573C6.93042 1.573 6.94192 1.56217 6.94192 1.54881C6.94192 1.53545 6.93042 1.52462 6.91624 1.52462C6.90206 1.52462 6.89057 1.53545 6.89057 1.54881C6.89057 1.56217 6.90206 1.573 6.91624 1.573ZM6.69774 1.49371C6.71192 1.49371 6.72341 1.48287 6.72341 1.46951C6.72341 1.45615 6.71192 1.44532 6.69774 1.44532C6.68356 1.44532 6.67206 1.45615 6.67206 1.46951C6.67206 1.48287 6.68356 1.49371 6.69774 1.49371ZM6.44929 1.43233C6.46347 1.43233 6.47496 1.4215 6.47496 1.40814C6.47496 1.39478 6.46347 1.38395 6.44929 1.38395C6.43511 1.38395 6.42362 1.39478 6.42362 1.40814C6.42362 1.4215 6.43511 1.43233 6.44929 1.43233ZM6.20084 1.33763C6.21502 1.33763 6.22652 1.3268 6.22652 1.31344C6.22652 1.30008 6.21502 1.28925 6.20084 1.28925C6.18666 1.28925 6.17517 1.30008 6.17517 1.31344C6.17517 1.3268 6.18666 1.33763 6.20084 1.33763ZM5.99429 1.30735C6.00847 1.30735 6.01996 1.29652 6.01996 1.28316C6.01996 1.26979 6.00847 1.25896 5.99429 1.25896C5.98011 1.25896 5.96862 1.26979 5.96862 1.28316C5.96862 1.29652 5.98011 1.30735 5.99429 1.30735ZM5.78676 1.25959C5.80094 1.25959 5.81244 1.24876 5.81244 1.2354C5.81244 1.22204 5.80094 1.21121 5.78676 1.21121C5.77259 1.21121 5.76109 1.22204 5.76109 1.2354C5.76109 1.24876 5.77259 1.25959 5.78676 1.25959ZM6.69774 1.64978C6.71192 1.64978 6.72341 1.63895 6.72341 1.62559C6.72341 1.61223 6.71192 1.6014 6.69774 1.6014C6.68356 1.6014 6.67206 1.61223 6.67206 1.62559C6.67206 1.63895 6.68356 1.64978 6.69774 1.64978ZM6.69774 1.80586C6.71192 1.80586 6.72341 1.79503 6.72341 1.78167C6.72341 1.7683 6.71192 1.75747 6.69774 1.75747C6.68356 1.75747 6.67206 1.7683 6.67206 1.78167C6.67206 1.79503 6.68356 1.80586 6.69774 1.80586ZM6.61492 2.03997C6.6291 2.03997 6.64059 2.02914 6.64059 2.01578C6.64059 2.00242 6.6291 1.99159 6.61492 1.99159C6.60074 1.99159 6.58925 2.00242 6.58925 2.01578C6.58925 2.02914 6.60074 2.03997 6.61492 2.03997ZM6.53211 2.19605C6.54628 2.19605 6.55778 2.18522 6.55778 2.17185C6.55778 2.15849 6.54628 2.14766 6.53211 2.14766C6.51793 2.14766 6.50643 2.15849 6.50643 2.17185C6.50643 2.18522 6.51793 2.19605 6.53211 2.19605ZM6.44929 2.35212C6.46347 2.35212 6.47496 2.34129 6.47496 2.32793C6.47496 2.31457 6.46347 2.30374 6.44929 2.30374C6.43511 2.30374 6.42362 2.31457 6.42362 2.32793C6.42362 2.34129 6.43511 2.35212 6.44929 2.35212Z" fill="white"/>
</g>
<path id="Combined Shape_3" fill-rule="evenodd" clip-rule="evenodd" d="M5.11053 0.460513L4.89165 0.466885L4.88714 0.808181L4.48324 0.813453L4.48509 1.02059L4.8844 1.01538L4.87925 1.40438L5.09813 1.398L5.10323 1.01252L5.50058 1.00734L5.49873 0.800198L5.10597 0.805325L5.11053 0.460513Z" fill="#F6C540"/>
</g>
<g id="bird">
<path id="Path 216" fill-rule="evenodd" clip-rule="evenodd" d="M2.01953 4.00293H7.96239V8.75941C7.96239 8.75941 7.78267 11.1287 4.99096 11.1287C2.19925 11.1287 2.01953 8.75941 2.01953 8.75941V4.00293Z" fill="#C51918"/>
<g id="right">
<g id="beak">
<path id="Path 220" fill-rule="evenodd" clip-rule="evenodd" d="M3.81261 4.16748C3.75812 4.16748 3.67423 4.20436 3.56304 4.24612C3.45184 4.28788 3.33507 4.37805 3.44905 4.46836C3.56304 4.55867 3.72621 4.75688 3.72621 4.68277C3.72621 4.60866 3.92114 4.53681 3.92114 4.57274C3.92114 4.60866 3.86079 4.68277 4.0191 4.68277C4.1774 4.68277 4.25896 4.72685 4.09005 4.72685C3.92114 4.72685 3.90279 4.79965 3.79302 4.79965C3.68324 4.79965 3.44905 4.7263 3.44905 4.68277C3.44905 4.63925 3.58468 4.89675 3.72621 4.89675C3.86775 4.89675 3.94814 5.02204 4.0191 4.95939C4.09005 4.89675 4.08165 4.89675 4.19628 4.89675C4.31091 4.89675 4.26907 4.64375 4.26907 4.64375C4.26907 4.64375 3.86711 4.16748 3.81261 4.16748Z" fill="#E8AA00"/>
<path id="Path 220_2" fill-rule="evenodd" clip-rule="evenodd" d="M6.10633 4.16748C6.16083 4.16748 6.24471 4.20436 6.35591 4.24612C6.4671 4.28788 6.58388 4.37805 6.46989 4.46836C6.35591 4.55867 6.19273 4.75688 6.19273 4.68277C6.19273 4.60866 5.9978 4.53681 5.9978 4.57274C5.9978 4.60866 6.05815 4.68277 5.89985 4.68277C5.74155 4.68277 5.65999 4.72685 5.8289 4.72685C5.9978 4.72685 6.01616 4.79965 6.12593 4.79965C6.2357 4.79965 6.46989 4.7263 6.46989 4.68277C6.46989 4.63925 6.33427 4.89675 6.19273 4.89675C6.05119 4.89675 5.9708 5.02204 5.89985 4.95939C5.8289 4.89675 5.83729 4.89675 5.72267 4.89675C5.60804 4.89675 5.64988 4.64375 5.64988 4.64375C5.64988 4.64375 6.05184 4.16748 6.10633 4.16748Z" fill="#E8AA00"/>
</g>
<path id="Combined Shape_4" fill-rule="evenodd" clip-rule="evenodd" d="M6.8348 4.68453C6.94872 4.93487 6.07562 5.86484 6.07562 5.86484H5.97786C5.93678 5.86484 5.86037 5.76959 5.76811 5.65457C5.70488 5.57575 5.6342 5.48764 5.56235 5.41456C5.42718 5.27707 5.49882 5.16157 5.5656 5.0539C5.58611 5.02082 5.60617 4.98849 5.61963 4.95648C5.64879 4.88714 5.65294 4.85948 5.65768 4.82787C5.66225 4.79739 5.66737 4.76325 5.69601 4.68453C5.73809 4.56884 5.88479 4.41957 5.98651 4.31607C6.02579 4.27611 6.05837 4.24297 6.07562 4.22122C6.13008 4.15256 6.08876 4.15296 5.97507 4.15405C5.95948 4.15421 5.94251 4.15437 5.92425 4.15437C5.77288 4.15437 5.48373 4.22122 5.3973 4.29929C5.31087 4.37737 5.22024 4.39402 5.08707 4.39402C4.9539 4.39402 5.03604 4.47853 5.15732 4.5356C5.02674 4.55912 4.94302 4.76424 4.89384 4.94636C4.86701 4.76424 4.80782 4.55912 4.67723 4.5356C4.79851 4.47853 4.88065 4.39402 4.74748 4.39402C4.61431 4.39402 4.52368 4.37737 4.43725 4.29929C4.35082 4.22122 4.06167 4.15437 3.9103 4.15437C3.89204 4.15437 3.87508 4.15421 3.85948 4.15405C3.74579 4.15296 3.70447 4.15256 3.75893 4.22122C3.77619 4.24297 3.80876 4.27611 3.84804 4.31607C3.94976 4.41957 4.09647 4.56884 4.13854 4.68453C4.16718 4.76325 4.1723 4.79739 4.17687 4.82787C4.18161 4.85948 4.18576 4.88714 4.21492 4.95648C4.22838 4.98849 4.24844 5.02082 4.26895 5.0539C4.33574 5.16157 4.40737 5.27707 4.2722 5.41456C4.20035 5.48764 4.12968 5.57575 4.06644 5.65457C3.97418 5.76959 3.89778 5.86484 3.8567 5.86484H3.75893C3.75893 5.86484 2.88583 4.93487 2.99976 4.68453C3.04379 4.58776 3.11481 4.49659 3.17359 4.42113C3.26687 4.30137 3.32931 4.22122 3.204 4.22122C2.99976 4.22122 2.18555 4.70771 2.18555 5.80468C2.18555 6.90165 2.26076 7.52554 2.43534 7.96262C2.55448 8.26089 2.44535 8.55056 2.36402 8.76645C2.32617 8.86691 2.29434 8.9514 2.29434 9.01334C2.29434 9.20836 2.61492 9.03748 2.61492 8.91535C2.61492 8.85726 2.65881 8.94376 2.70485 9.03448C2.75561 9.13451 2.80898 9.23967 2.80898 9.16181C2.80898 9.07874 2.86009 8.991 2.90511 8.91371C2.94056 8.85285 2.97224 8.79847 2.97224 8.75793C2.97224 8.71739 3.01721 8.71889 3.06753 8.72057C3.13145 8.72271 3.204 8.72513 3.204 8.64206C3.204 8.58601 3.22709 8.57482 3.25583 8.56088C3.30322 8.5379 3.366 8.50746 3.366 8.25612C3.366 8.06983 3.40558 8.13583 3.45098 8.21154C3.49276 8.28121 3.53948 8.35911 3.56481 8.25612C3.56727 8.24608 3.5935 8.20289 3.62592 8.1495C3.67311 8.07179 3.73342 7.97247 3.75271 7.9223C3.69324 8.14171 3.55055 8.37034 3.45994 8.47925C3.366 8.59217 3.204 8.83732 3.204 8.83732C3.204 8.83732 3.35508 8.9167 3.45994 8.83732C3.51851 8.79297 3.52247 8.83469 3.52678 8.88017C3.53018 8.91611 3.53381 8.9544 3.56481 8.9544C3.58427 8.9544 3.60259 8.95739 3.61891 8.96006C3.63098 8.96204 3.64195 8.96383 3.65148 8.9641C3.61648 9.04812 3.58508 9.18248 3.69039 9.09271C3.7656 9.0286 3.81834 9.00258 3.85328 8.98534C3.89371 8.96539 3.9103 8.95721 3.9103 8.91535C3.9103 8.87357 3.92673 8.88772 3.95246 8.90989C3.9748 8.92912 4.00414 8.9544 4.03584 8.9544C4.07668 8.9544 4.08519 8.9008 4.09756 8.82285C4.10585 8.77059 4.11588 8.70739 4.13854 8.64206C4.14383 8.62684 4.14879 8.6122 4.15349 8.59833C4.19909 8.46384 4.22036 8.40112 4.2722 8.57077C4.29643 8.65006 4.33923 8.7062 4.3765 8.75508C4.4272 8.82159 4.46767 8.87468 4.43725 8.9544C4.42534 8.98561 4.4104 9.02087 4.39441 9.05863C4.33952 9.18819 4.2722 9.34711 4.2722 9.47223C4.2722 9.54662 4.20034 9.64801 4.1328 9.7433C4.05364 9.85499 3.98042 9.9583 4.03584 9.99992C4.13854 10.077 4.01426 10.3367 3.9103 10.47C3.80634 10.6032 4.67723 10.9089 4.82931 10.9089C4.83147 10.9089 4.83358 10.9078 4.83566 10.9055V10.9089C4.83566 10.9089 5.92425 10.8592 5.92425 10.47C5.82029 10.3367 5.69601 10.077 5.79871 9.99992C5.85414 9.9583 5.78091 9.85499 5.70175 9.7433C5.63421 9.64801 5.56235 9.54662 5.56235 9.47223C5.56235 9.34711 5.49503 9.18819 5.44014 9.05863C5.42415 9.02087 5.40921 8.98561 5.3973 8.9544C5.36688 8.87468 5.40736 8.82159 5.45806 8.75508C5.49532 8.7062 5.53812 8.65006 5.56235 8.57077C5.61419 8.40112 5.63546 8.46384 5.68106 8.59833C5.68577 8.6122 5.69073 8.62684 5.69601 8.64206C5.71868 8.70739 5.7287 8.77059 5.73699 8.82285C5.74936 8.9008 5.75787 8.9544 5.79871 8.9544C5.83041 8.9544 5.85975 8.92912 5.88209 8.90989C5.90782 8.88772 5.92425 8.87357 5.92425 8.91535C5.92425 8.95721 5.94084 8.96539 5.98128 8.98534C6.01621 9.00258 6.06895 9.0286 6.14416 9.09271C6.24948 9.18248 6.21808 9.04812 6.18307 8.9641C6.1926 8.96383 6.20357 8.96204 6.21565 8.96006C6.23196 8.95739 6.25029 8.9544 6.26975 8.9544C6.30074 8.9544 6.30437 8.91611 6.30777 8.88017C6.31208 8.83469 6.31604 8.79297 6.37461 8.83732C6.47947 8.9167 6.63055 8.83732 6.63055 8.83732C6.63055 8.83732 6.46855 8.59217 6.37461 8.47925C6.284 8.37034 6.14131 8.14171 6.08184 7.9223C6.10113 7.97247 6.16144 8.07179 6.20863 8.1495C6.24105 8.20289 6.26728 8.24608 6.26975 8.25612C6.29507 8.35911 6.34179 8.28121 6.38357 8.21154C6.42897 8.13583 6.46855 8.06983 6.46855 8.25612C6.46855 8.50746 6.53133 8.5379 6.57872 8.56088C6.60746 8.57482 6.63055 8.58601 6.63055 8.64206C6.63055 8.72513 6.7031 8.72271 6.76702 8.72057C6.81734 8.71889 6.86231 8.71739 6.86231 8.75793C6.86231 8.79847 6.89399 8.85285 6.92944 8.91371C6.97446 8.991 7.02557 9.07874 7.02557 9.16181C7.02557 9.23967 7.07894 9.13451 7.1297 9.03448C7.17574 8.94376 7.21964 8.85726 7.21964 8.91535C7.21964 9.03748 7.54021 9.20836 7.54021 9.01334C7.54021 8.9514 7.50838 8.86691 7.47053 8.76645C7.3892 8.55056 7.28008 8.26089 7.39921 7.96262C7.5738 7.52554 7.64901 6.90165 7.64901 5.80468C7.64901 4.70771 6.8348 4.22122 6.63055 4.22122C6.50525 4.22122 6.56768 4.30137 6.66097 4.42113C6.71974 4.49659 6.79076 4.58776 6.8348 4.68453ZM6.07562 7.89811C6.07758 7.90616 6.07965 7.91422 6.08184 7.9223C6.07785 7.91193 6.07562 7.90365 6.07562 7.89811ZM6.14416 8.91535C6.14416 8.88796 6.16414 8.91867 6.18307 8.9641C6.15901 8.96478 6.14416 8.95575 6.14416 8.91535ZM3.65148 8.9641C3.67555 8.96478 3.69039 8.95575 3.69039 8.91535C3.69039 8.88796 3.67041 8.91867 3.65148 8.9641ZM3.75271 7.9223C3.7567 7.91193 3.75893 7.90365 3.75893 7.89811C3.75698 7.90616 3.7549 7.91422 3.75271 7.9223Z" fill="#F7FCFF"/>
</g>
<g id="small shield">
<path id="small" fill-rule="evenodd" clip-rule="evenodd" d="M3.88379 5.94141H6.09837V7.59076C6.09837 7.59076 5.86063 8.41234 4.99108 8.41234C4.12153 8.41234 3.88379 7.59076 3.88379 7.59076V5.94141Z" fill="#C51918"/>
<path id="Combined Shape_5" fill-rule="evenodd" clip-rule="evenodd" d="M5.2897 5.91748H4.70999V6.86434H3.88184V7.2025H4.70999V8.4199H5.2897V7.2025H6.11786V6.86434H5.2897V5.91748Z" fill="#F7FCFF"/>
</g>
<path id="Oval" fill-rule="evenodd" clip-rule="evenodd" d="M3.43687 9.66355C3.70603 9.35392 3.95829 9.07855 3.73385 8.88345C3.50942 8.68835 3.24147 8.85748 2.97231 9.16711C2.70315 9.47674 2.5347 9.80963 2.75914 10.0047C2.98358 10.1998 3.16771 9.97319 3.43687 9.66355Z" fill="#E8AA00"/>
<path id="Oval_2" fill-rule="evenodd" clip-rule="evenodd" d="M6.36782 9.66355C6.09866 9.35392 5.84639 9.07855 6.07083 8.88345C6.29527 8.68835 6.56322 8.85748 6.83238 9.16711C7.10154 9.47674 7.26999 9.80963 7.04555 10.0047C6.82111 10.1998 6.63698 9.97319 6.36782 9.66355Z" fill="#E8AA00"/>
</g>
</g>
</g>
</g>
</g>
</g>
</g>
</svg>
