<svg width="16" height="12" viewBox="0 0 16 12" fill="none" xmlns="http://www.w3.org/2000/svg">
<g id="SK - Slovakia">
<g id="flag">
<mask id="mask0_1640_81172" style="mask-type:luminance" maskUnits="userSpaceOnUse" x="0" y="0" width="16" height="12">
<rect id="mask" width="16" height="12" fill="white"/>
</mask>
<g mask="url(#mask0_1640_81172)">
<g id="contents">
<path id="background" fill-rule="evenodd" clip-rule="evenodd" d="M0 0V12H16V0H0Z" fill="#3D58DB"/>
<mask id="mask1_1640_81172" style="mask-type:luminance" maskUnits="userSpaceOnUse" x="0" y="0" width="16" height="12">
<path id="background_2" fill-rule="evenodd" clip-rule="evenodd" d="M0 0V12H16V0H0Z" fill="white"/>
</mask>
<g mask="url(#mask1_1640_81172)">
<path id="top" fill-rule="evenodd" clip-rule="evenodd" d="M0 0V4H16V0H0Z" fill="#F7FCFF"/>
<path id="bottom" fill-rule="evenodd" clip-rule="evenodd" d="M0 8V12H16V8H0Z" fill="#E31D1C"/>
<g id="mark">
<path id="Path 264" d="M7.80165 3.01514L8.05025 2.98869L8.02646 2.76514H7.80165H3.17211H2.9384L2.92268 2.99832L3.17211 3.01514L2.92267 2.99836L2.92266 2.99847L2.92264 2.99887L2.92254 3.0004L2.92214 3.00637L2.92061 3.02949L2.91494 3.11759C2.91012 3.19378 2.90334 3.3034 2.89555 3.43738C2.87997 3.70526 2.86027 4.07086 2.84386 4.46145C2.81152 5.23125 2.79008 6.13244 2.84609 6.5533C2.95537 7.37454 3.45544 9.21811 5.3896 10.0536L5.49048 10.0972L5.59079 10.0523C7.42789 9.23085 8.04233 7.57654 8.18405 6.55467C8.25558 6.03895 8.21923 5.13653 8.16902 4.38663C8.14358 4.00662 8.11391 3.65745 8.09062 3.40335C8.07897 3.27625 8.0689 3.17281 8.06173 3.10105L8.05332 3.01814L8.05106 2.99636L8.05046 2.99071L8.05031 2.98924L8.05027 2.98885L8.05025 2.98874L7.80165 3.01514Z" fill="#E31D1C" stroke="white" stroke-width="0.5"/>
<mask id="mask2_1640_81172" style="mask-type:luminance" maskUnits="userSpaceOnUse" x="2" y="2" width="7" height="9">
<path id="Path 264_2" d="M7.80165 3.01514L8.05025 2.98869L8.02646 2.76514H7.80165H3.17211H2.9384L2.92268 2.99832L3.17211 3.01514L2.92267 2.99836L2.92266 2.99847L2.92264 2.99887L2.92254 3.0004L2.92214 3.00637L2.92061 3.02949L2.91494 3.11759C2.91012 3.19378 2.90334 3.3034 2.89555 3.43738C2.87997 3.70526 2.86027 4.07086 2.84386 4.46145C2.81152 5.23125 2.79008 6.13244 2.84609 6.5533C2.95537 7.37454 3.45544 9.21811 5.3896 10.0536L5.49048 10.0972L5.59079 10.0523C7.42789 9.23085 8.04233 7.57654 8.18405 6.55467C8.25558 6.03895 8.21923 5.13653 8.16902 4.38663C8.14358 4.00662 8.11391 3.65745 8.09062 3.40335C8.07897 3.27625 8.0689 3.17281 8.06173 3.10105L8.05332 3.01814L8.05106 2.99636L8.05046 2.99071L8.05031 2.98924L8.05027 2.98885L8.05025 2.98874L7.80165 3.01514Z" fill="white" stroke="white" stroke-width="0.5"/>
</mask>
<g mask="url(#mask2_1640_81172)">
<path id="Path 266" fill-rule="evenodd" clip-rule="evenodd" d="M4.93075 3.29492C4.93075 3.29492 5.03399 3.45223 5.08021 3.69277C5.12643 3.93332 5.1344 4.20695 5.1344 4.20695L4.35237 4.08636V4.97683L5.15628 4.8493L5.13224 5.78307C5.13224 5.78307 5.03008 5.81413 4.78439 5.78307C4.5387 5.75202 4.05469 5.62192 4.05469 5.62192V6.47211C4.05469 6.47211 4.54644 6.31479 4.78439 6.27869C5.02234 6.24259 5.13224 6.27869 5.13224 6.27869L5.14001 7.09395H5.93737L5.9296 6.27869C5.9296 6.27869 6.18054 6.24006 6.44562 6.28188C6.71071 6.3237 6.96216 6.47211 6.96216 6.47211V5.62192C6.96216 5.62192 6.70742 5.74884 6.46714 5.78042C6.22687 5.812 5.9296 5.78307 5.9296 5.78307L5.95365 4.8493C5.95365 4.8493 6.09282 4.81487 6.27943 4.8402C6.46604 4.86553 6.6996 4.97683 6.6996 4.97683V4.08636C6.6996 4.08636 6.47195 4.21023 6.29284 4.2327C6.11372 4.25517 5.93177 4.20695 5.93177 4.20695C5.93177 4.20695 5.93842 3.91984 5.97693 3.70806C6.01545 3.49628 6.12451 3.29492 6.12451 3.29492H4.93075Z" fill="#F7FCFF"/>
<path id="Path 265" fill-rule="evenodd" clip-rule="evenodd" d="M3.44824 8.12262C3.44824 8.12262 3.66799 7.65099 4.02556 7.56131C4.38312 7.47163 4.75806 7.84196 4.75806 7.84196C4.75806 7.84196 4.98701 7.09375 5.54507 7.09375C6.10312 7.09375 6.29897 7.84196 6.29897 7.84196C6.29897 7.84196 6.53706 7.56131 6.87945 7.56131C7.22184 7.56131 7.53906 8.12262 7.53906 8.12262C7.53906 8.12262 6.51635 9.97933 5.49365 9.97933C4.47095 9.97933 3.44824 8.12262 3.44824 8.12262Z" fill="#2E42A5"/>
</g>
</g>
</g>
</g>
</g>
</g>
</g>
</svg>
