<svg width="16" height="12" viewBox="0 0 16 12" fill="none" xmlns="http://www.w3.org/2000/svg">
<g id="SI - Slovenia">
<g id="flag">
<mask id="mask0_1640_81962" style="mask-type:luminance" maskUnits="userSpaceOnUse" x="0" y="0" width="16" height="12">
<rect id="mask" width="16" height="12" fill="white"/>
</mask>
<g mask="url(#mask0_1640_81962)">
<g id="contents">
<path id="background" fill-rule="evenodd" clip-rule="evenodd" d="M0 0V12H16V0H0Z" fill="#2E42A5"/>
<mask id="mask1_1640_81962" style="mask-type:luminance" maskUnits="userSpaceOnUse" x="0" y="0" width="16" height="12">
<path id="background_2" fill-rule="evenodd" clip-rule="evenodd" d="M0 0V12H16V0H0Z" fill="white"/>
</mask>
<g mask="url(#mask1_1640_81962)">
<path id="top" fill-rule="evenodd" clip-rule="evenodd" d="M0 0V4H16V0H0Z" fill="#F7FCFF"/>
<path id="bottom" fill-rule="evenodd" clip-rule="evenodd" d="M0 8V12H16V8H0Z" fill="#C51918"/>
<g id="mark">
<path id="Path 267" fill-rule="evenodd" clip-rule="evenodd" d="M6.87 2.51821C6.87 2.51821 5.81763 2.02124 4.50873 2.02124C3.19983 2.02124 2.14746 2.51821 2.14746 2.51821C2.14746 2.51821 2.26457 4.51557 2.44967 5.57367C2.52871 6.02544 2.90857 6.68436 3.25248 6.99624C3.64446 7.35172 4.50873 7.77286 4.50873 7.77286C4.75883 7.60052 5.22646 7.52302 5.82418 6.99624C6.4219 6.46946 6.57046 5.57367 6.57046 5.57367L6.87 2.51821Z" fill="#2E42A5"/>
<path id="Path 267_2" d="M6.73089 2.45288L7.16916 2.67174L6.8683 5.68305C6.76293 6.32039 6.49927 6.82298 6.07763 7.19458C5.8489 7.39616 5.62564 7.54678 5.38627 7.67193C5.25116 7.74257 4.68599 8.0337 4.69091 8.03132C4.63428 8.05862 4.59134 8.08252 4.55646 8.10655L4.5018 8.14422L4.44278 8.11546C3.8574 7.83022 3.31125 7.44635 3.03984 7.20022C2.66935 6.86423 2.27871 6.1767 2.19543 5.70063C2.0709 4.9888 1.95923 4.00835 1.88086 2.67174L2.27456 2.46577C2.35234 3.79231 2.44623 4.84977 2.56851 5.54875C2.64085 5.96229 3.00108 6.59629 3.32969 6.8943C3.57256 7.11454 3.96383 7.35876 4.5018 7.62437C4.53389 7.60556 4.56945 7.58695 4.61013 7.56734C4.61128 7.56679 4.97724 7.40427 5.10442 7.33778C5.32749 7.22115 5.53484 7.08127 5.74832 6.89312C6.12261 6.56326 6.35621 6.11902 6.45068 5.55468L6.73089 2.45288Z" fill="#C51918"/>
<path id="Path 268" fill-rule="evenodd" clip-rule="evenodd" d="M2.77051 5.51221C2.77051 5.51221 3.02837 6.30113 3.47997 6.74146C3.93156 7.18179 4.48983 7.39762 4.48983 7.39762C4.48983 7.39762 5.15477 7.19641 5.53216 6.77279C5.90954 6.34916 6.29589 5.51221 6.29589 5.51221L5.41825 4.66992L5.06942 5.04846L4.48983 4.22217L4.0046 5.04846L3.63253 4.66992L2.77051 5.51221Z" fill="white"/>
<path id="Star 5" fill-rule="evenodd" clip-rule="evenodd" d="M3.57324 2.94314H3.22168L3.49435 2.6877L3.22168 2.41777H3.57324L3.72168 2.15576L3.87072 2.41777H4.22168L3.96264 2.67149L4.19265 2.94314H3.87072L3.72168 3.21964L3.57324 2.94314Z" fill="#FECA00"/>
<path id="Star 5_2" fill-rule="evenodd" clip-rule="evenodd" d="M5.23047 2.94314H4.87891L5.15158 2.6877L4.87891 2.41777H5.23047L5.37891 2.15576L5.52794 2.41777H5.87891L5.61987 2.67149L5.84988 2.94314H5.52794L5.37891 3.21964L5.23047 2.94314Z" fill="#FECA00"/>
<path id="Star 5_3" fill-rule="evenodd" clip-rule="evenodd" d="M4.2998 3.78372H3.94824L4.22091 3.52828L3.94824 3.25835H4.2998L4.44824 2.99634L4.59728 3.25835H4.94824L4.68921 3.51207L4.91921 3.78372H4.59728L4.44824 4.06022L4.2998 3.78372Z" fill="#FECA00"/>
</g>
</g>
</g>
</g>
</g>
</g>
</svg>
