<svg xmlns="http://www.w3.org/2000/svg" style="border: 0 !important; clip: rect(0 0 0 0) !important; height: 1px !important; margin: -1px !important; overflow: hidden !important; padding: 0 !important; position: absolute !important; width: 1px !important;" class="root-svg-symbols-element">
  <defs>
      <clipPath id="clip0"><path d="M0 0H20V20H0z"/></clipPath>
<clipPath id="a"><path fill="none" d="M0 0H60V60H0z"/></clipPath>
<clipPath id="clip-path"><path fill="none" d="M0 0H40V40H0z"/></clipPath>
<clipPath id="clip-path"><path fill="none" d="M0 0H40V40H0z"/></clipPath>
<clipPath id="a" transform="translate(-2.38)"><path fill="none" d="M0 0H60V60H0z"/></clipPath>
<clipPath id="a" transform="translate(-5.98)"><path fill="none" d="M0 0H60V60H0z"/></clipPath>
<clipPath id="clip0"><path fill="#fff" d="M0 0H15V15H0z"/></clipPath>
<clipPath id="a" transform="translate(-1.88)"><path fill="none" d="M0 0H60V60H0z"/></clipPath>
<clipPath id="a" transform="translate(0 -1.38)"><path fill="none" d="M0 0H60V60H0z"/></clipPath>
<clipPath id="clip-path"><path fill="none" d="M0 0H40V40H0z"/></clipPath>
  </defs>
    <symbol id="accessibility" viewBox="0 0 20 20">
      <g clip-path="url(#clip0)" fill-rule="evenodd" clip-rule="evenodd"><path d="M1.78389 10C1.87497 10.1574 1.99571 10.358 2.14529 10.5896C2.52947 11.1844 3.09841 11.9755 3.83706 12.7634C5.32954 14.3554 7.4162 15.8333 9.99994 15.8333C12.5837 15.8333 14.6703 14.3554 16.1628 12.7634C16.9015 11.9755 17.4704 11.1844 17.8546 10.5896C18.0042 10.358 18.1249 10.1574 18.216 10C18.1249 9.84261 18.0042 9.64204 17.8546 9.41044C17.4704 8.81557 16.9015 8.0245 16.1628 7.23662C14.6703 5.64463 12.5837 4.16667 9.99994 4.16667C7.4162 4.16667 5.32954 5.64463 3.83706 7.23662C3.09841 8.0245 2.52947 8.81557 2.14529 9.41044C1.99571 9.64204 1.87497 9.84261 1.78389 10ZM19.1666 10C19.912 9.62732 19.9118 9.62704 19.9117 9.62674L19.9113 9.626L19.9103 9.62406L19.9074 9.61837C19.9051 9.61377 19.902 9.60758 19.898 9.59985C19.89 9.58439 19.8788 9.56276 19.8643 9.53536C19.8353 9.48058 19.7933 9.40269 19.7383 9.30499C19.6284 9.1097 19.4667 8.8346 19.2547 8.50623C18.8316 7.85109 18.2026 6.9755 17.3787 6.09672C15.7462 4.35537 13.2495 2.5 9.99994 2.5C6.75035 2.5 4.25367 4.35537 2.62116 6.09672C1.7973 6.9755 1.16833 7.85109 0.745222 8.50623C0.533151 8.8346 0.371436 9.1097 0.261585 9.30499C0.206629 9.40269 0.164559 9.48058 0.13557 9.53536C0.121073 9.56276 0.109838 9.58439 0.101891 9.59985C0.0979166 9.60758 0.0947634 9.61377 0.0924341 9.61837L0.0895582 9.62406L0.0885842 9.626L0.0882133 9.62674C0.0880602 9.62704 0.0879198 9.62732 0.833276 10L0.0879198 9.62732L-0.0984192 10L0.0879198 10.3727L0.833276 10C0.0879198 10.3727 0.0880602 10.373 0.0882133 10.3733L0.0885842 10.374L0.0895582 10.3759L0.0924341 10.3816C0.0947634 10.3862 0.0979166 10.3924 0.101891 10.4001C0.109838 10.4156 0.121073 10.4372 0.13557 10.4646C0.164559 10.5194 0.206629 10.5973 0.261585 10.695C0.371436 10.8903 0.533151 11.1654 0.745222 11.4938C1.16833 12.1489 1.7973 13.0245 2.62116 13.9033C4.25367 15.6446 6.75035 17.5 9.99994 17.5C13.2495 17.5 15.7462 15.6446 17.3787 13.9033C18.2026 13.0245 18.8316 12.1489 19.2547 11.4938C19.4667 11.1654 19.6284 10.8903 19.7383 10.695C19.7933 10.5973 19.8353 10.5194 19.8643 10.4646C19.8788 10.4372 19.89 10.4156 19.898 10.4001C19.902 10.3924 19.9051 10.3862 19.9074 10.3816L19.9103 10.3759L19.9113 10.374L19.9117 10.3733C19.9118 10.373 19.912 10.3727 19.1666 10ZM19.1666 10L19.912 10.3727L20.0983 10L19.912 9.62732L19.1666 10Z"/><path d="M10 8.33354C9.07957 8.33354 8.33338 9.07973 8.33338 10.0002C8.33338 10.9207 9.07957 11.6669 10 11.6669C10.9205 11.6669 11.6667 10.9207 11.6667 10.0002C11.6667 9.07973 10.9205 8.33354 10 8.33354ZM6.66672 10.0002C6.66672 8.15925 8.1591 6.66687 10 6.66687C11.841 6.66687 13.3334 8.15925 13.3334 10.0002C13.3334 11.8411 11.841 13.3335 10 13.3335C8.1591 13.3335 6.66672 11.8411 6.66672 10.0002Z"/></g>
    </symbol>
    <symbol id="arr-down" viewBox="0 0 10 7" fill="trans">
      <path d="M1 1.66663L5 5.66663L9 1.66663" fill="transparent" stroke="#0C0A3E" stroke-width="2" stroke-linecap="round" stroke-linejoin="round"/>
    </symbol>
    <symbol id="arr-right" viewBox="0 0 18 12" fill="none">
      <path d="M11.5 11L16.5 6L11.5 1M1.5 6H15.6667" fill="transparent"/>
    </symbol>
    <symbol id="burger" viewBox="0 0 20 20" fill="none">
      <path d="M2 18H18M2 7.33333H18H2ZM2 2H18H2ZM2 12.6667H18H2Z" stroke="#FE5000" stroke-width="3" stroke-linecap="round" stroke-linejoin="round"/>
    </symbol>
    <symbol id="calendar" viewBox="0 0 32 32" fill="none">
      <path d="M28 13.3333H4M10.6667 9.33333V4M21.3333 9.33333V4M4 6.66667H28V28H4V6.66667Z"/>
    </symbol>
    <symbol id="case" viewBox="0 0 60 60" fill="none">
      <path d="M57.0014 12.037H39.7205C39.7205 12.037 39.7205 11.9375 39.7205 11.8807V6.3809C39.7205 4.72476 38.3781 3.38232 36.7219 3.38232H23.2639C21.6077 3.38232 20.2653 4.72476 20.2653 6.3809V11.8949C20.2653 11.8949 20.2653 11.9944 20.2653 12.0512H2.99858C1.34243 12.0512 0 13.3936 0 15.0498V53.6192C0 55.2753 1.34243 56.6178 2.99858 56.6178H57.0014C58.6576 56.6178 60 55.2753 60 53.6192V15.0356C60 13.3794 58.6576 12.037 57.0014 12.037ZM23.1075 11.8665L23.136 6.35248C23.136 6.26615 23.2059 6.19616 23.2923 6.19616H36.7788C36.8651 6.19616 36.9351 6.26615 36.9351 6.35248V11.8665C36.9351 11.9528 36.8651 12.0228 36.7788 12.0228H23.2639C23.1775 12.0228 23.1075 11.9528 23.1075 11.8665ZM2.99858 14.8792H57.0014C55.6656 17.4089 48.7163 29.3747 35.784 32.2454V30.5969C35.7843 28.9628 34.476 27.6292 32.8423 27.5983H27.1577C25.5016 27.5983 24.1592 28.9408 24.1592 30.5969V32.2738C11.2411 29.4316 4.26338 17.4231 2.94173 14.9077L2.99858 14.8792ZM32.9559 30.5969V38.8679C32.9559 38.9542 32.886 39.0242 32.7996 39.0242H27.1577C27.0714 39.0242 27.0014 38.9542 27.0014 38.8679V30.5969C27.0014 30.5106 27.0714 30.4406 27.1577 30.4406H32.8423C32.9117 30.4601 32.9586 30.5248 32.9559 30.5969ZM57.1151 53.6334C57.1151 53.7197 57.0451 53.7897 56.9588 53.7897H2.99858C2.91225 53.7897 2.84225 53.7197 2.84225 53.6334V20.1943C6.33823 25.2677 13.3018 32.9844 24.1592 35.1729V38.8537C24.1592 40.5098 25.5016 41.8522 27.1577 41.8522H32.8423C34.4984 41.8522 35.8408 40.5098 35.8408 38.8537V35.1729C46.6982 33.0128 53.6618 25.2251 57.1577 20.1943L57.1151 53.6334Z" fill="#FE5000"/>
    </symbol>
    <symbol id="click" viewBox="0 0 60 60">
      <g fill="#fe5000" clip-path="url(#a)"><path d="M59.49,49.54,49.35,39.4l5-5a1.76,1.76,0,0,0-.69-2.91L23.8,21.58a1.76,1.76,0,0,0-2.22,2.22l9.94,29.83a1.76,1.76,0,0,0,2.91.69l5-5L49.54,59.49a1.76,1.76,0,0,0,2.49,0L59.49,52A1.76,1.76,0,0,0,59.49,49.54Zm-8.7,6.21L40.65,45.62a1.76,1.76,0,0,0-2.49,0L34,49.82,26,26,49.82,34l-4.2,4.2a1.76,1.76,0,0,0,0,2.49L55.76,50.78Z"/><path d="M22.85,14.06a1.76,1.76,0,0,0,1.76-1.76V1.76a1.76,1.76,0,1,0-3.52,0V12.3A1.76,1.76,0,0,0,22.85,14.06Z"/><path d="M9.18,6.69A1.76,1.76,0,0,0,6.69,9.18l7.46,7.46a1.76,1.76,0,0,0,2.49-2.49Z"/><path d="M14.15,29.07,6.69,36.52A1.76,1.76,0,1,0,9.18,39l7.46-7.46a1.76,1.76,0,0,0-2.49-2.49Z"/><path d="M31.55,16.64,39,9.18a1.76,1.76,0,1,0-2.49-2.49l-7.46,7.46a1.76,1.76,0,0,0,2.49,2.49Z"/><path d="M14.06,22.85a1.76,1.76,0,0,0-1.76-1.76H1.76a1.76,1.76,0,1,0,0,3.52H12.3A1.76,1.76,0,0,0,14.06,22.85Z"/></g>
    </symbol>
    <symbol id="close" viewBox="0 0 20 20" fill="none">
      <path d="M5.28516 14.714L14.7132 5.28595M5.28516 5.28595L14.7132 14.714L5.28516 5.28595Z"/>
    </symbol>
    <symbol id="date" viewBox="0 0 18 18" fill="none">
      <path d="M2.25 4.5H3.25H2.25ZM2.25 14.625H1.25H2.25ZM14.625 15.75V14.75V15.75ZM3.375 15.75V16.75H3.375L3.375 15.75ZM15.75 4.50002H16.75H15.75ZM15.75 14.625H14.75H15.75ZM14.625 3.37502L14.625 4.37502L14.625 3.37502ZM3.375 3.375L3.375 4.375H3.375L3.375 3.375ZM15.75 8.875C16.3023 8.875 16.75 8.42728 16.75 7.875C16.75 7.32271 16.3023 6.875 15.75 6.875V8.875ZM2.25 6.875C1.69772 6.875 1.25 7.32272 1.25 7.875C1.25 8.42728 1.69772 8.875 2.25 8.875L2.25 6.875ZM4.625 4.5C4.625 5.05228 5.07272 5.5 5.625 5.5C6.17729 5.5 6.625 5.05228 6.625 4.5H4.625ZM6.625 2.25C6.625 1.69772 6.17728 1.25 5.625 1.25C5.07272 1.25 4.625 1.69772 4.625 2.25L6.625 2.25ZM11.375 4.5C11.375 5.05228 11.8227 5.5 12.375 5.5C12.9273 5.5 13.375 5.05228 13.375 4.5H11.375ZM13.375 2.25C13.375 1.69772 12.9273 1.25 12.375 1.25C11.8227 1.25 11.375 1.69772 11.375 2.25H13.375ZM1.25 4.5L1.25 14.625H3.25L3.25 4.5H1.25ZM14.625 14.75L3.375 14.75L3.375 16.75L14.625 16.75V14.75ZM14.75 4.50002L14.75 14.625H16.75L16.75 4.50002H14.75ZM14.625 2.37502L3.375 2.375L3.375 4.375L14.625 4.37502L14.625 2.37502ZM16.75 4.50002C16.75 3.32642 15.7986 2.37503 14.625 2.37502L14.625 4.37502C14.694 4.37502 14.75 4.43099 14.75 4.50002H16.75ZM3.25 4.5C3.25 4.43096 3.30597 4.375 3.375 4.375L3.37501 2.375C2.2014 2.375 1.25 3.3264 1.25 4.5H3.25ZM1.25 14.625C1.25 15.7986 2.20139 16.75 3.375 16.75V14.75C3.30596 14.75 3.25 14.694 3.25 14.625H1.25ZM14.625 16.75C15.7986 16.75 16.75 15.7986 16.75 14.625H14.75C14.75 14.694 14.694 14.75 14.625 14.75V16.75ZM15.75 6.875L2.25 6.875L2.25 8.875L15.75 8.875V6.875ZM6.625 4.5V2.25L4.625 2.25L4.625 4.5H6.625ZM13.375 4.5V2.25H11.375V4.5H13.375Z"/>
    </symbol>
    <symbol id="disabled-sign" viewBox="0 0 60 60" fill="none">
      <path d="M35.7114 51.1989C32.7401 54.1704 28.7899 55.8066 24.5876 55.8066C15.9151 55.8066 8.85914 48.7507 8.85914 40.0773C8.85914 35.8747 10.495 31.9236 13.4657 28.9527C14.2845 28.1339 14.2842 26.8063 13.4654 25.9876C12.6467 25.1685 11.3191 25.1688 10.5003 25.9878C6.73798 29.7508 4.66602 34.7543 4.66602 40.077C4.66602 51.0622 13.6027 59.9994 24.5876 59.9994C29.9097 59.9994 34.9133 57.9269 38.6765 54.1631C39.4952 53.3444 39.495 52.0168 38.6762 51.1983C37.8574 50.3804 36.5299 50.3801 35.7114 51.1989Z" fill="#FE5000"/><path d="M53.2371 46.6013H47.2731L43.5806 36.3563C43.2809 35.5247 42.4921 34.9706 41.6081 34.9706H26.0623V25.5568H40.5C41.6579 25.5568 42.5966 24.6184 42.5966 23.4602C42.5966 22.3021 41.6579 21.3637 40.5 21.3637H26.0623V14.8937C26.0623 13.7355 25.1236 12.7971 23.9657 12.7971C22.8078 12.7971 21.8691 13.7355 21.8691 14.8937V37.0669C21.8691 38.2251 22.8078 39.1635 23.9657 39.1635H40.135L43.8274 49.4084C44.1271 50.2401 44.916 50.7941 45.7999 50.7941H53.2368C54.3947 50.7941 55.3334 49.8557 55.3334 48.6975C55.3334 47.5394 54.3952 46.6013 53.2371 46.6013Z" fill="#FE5000"/><path d="M24.0441 10.1859C26.8572 10.1859 29.1377 7.90656 29.1377 5.09157C29.1374 2.28134 26.8572 0 24.0441 0C21.2311 0 18.9512 2.28134 18.9512 5.09185C18.9512 7.90656 21.2311 10.1859 24.0441 10.1859Z" fill="#FE5000"/>
    </symbol>
    <symbol id="doc" viewBox="0 0 40 40">
      <g clip-path="url(#clip-path)"><path d="M39.69,19.5a2.86,2.86,0,0,0-2.87-2.86H36.74a2.78,2.78,0,0,0-2,.82l-6.59,6.59V0H6.78L0,6.78V39.69H28.17V32.27l8.32-8.32,0.15,0.15a1.68,1.68,0,0,1,0,2.37L32,31.1a2.19,2.19,0,0,0,0,3.09L32.83,35l0.91-.91-0.83-.83a0.91,0.91,0,0,1,0-1.28l4.63-4.63a3,3,0,0,0,0-4.18L37.39,23l1.45-1.45A2.91,2.91,0,0,0,39.69,19.5ZM6.4,2.19V6.4H2.19ZM26.89,38.41H1.28V7.68h6.4V1.28h19.2V25.34l-6.33,6.33-1.19,4.18H18.43a0.18,0.18,0,0,1-.16-0.1l-1-2.07,0.55-.89a5.1,5.1,0,0,0,.78-2.71,1.92,1.92,0,1,0-3.84,0v0.23a5.13,5.13,0,0,0,.54,2.28l0.51,1-1.35,2.16a0.18,0.18,0,0,1-.15.08H13.44a0.18,0.18,0,0,1-.17-0.14l-0.33-1.32a1.46,1.46,0,0,0-2.83,0L9.78,35.71a0.18,0.18,0,0,1-.17.14H7.68v1.28H9.6A1.46,1.46,0,0,0,11,36l0.33-1.32a0.19,0.19,0,0,1,.35,0L12,36a1.46,1.46,0,0,0,1.41,1.11h0.83a1.45,1.45,0,0,0,1.24-.69l0.93-1.49,0.69,1.37a1.45,1.45,0,0,0,1.31.81h1.5l4.73-1.35,2.23-2.23v4.86Zm-5.44-5.18,1.66,1.66-2.33.66ZM16.7,32.11l-0.14.22L16.41,32a3.84,3.84,0,0,1-.4-1.71V30.09a0.64,0.64,0,1,1,1.28,0A3.82,3.82,0,0,1,16.7,32.11Zm7.62,2.19L22,32,33.29,20.75l2.3,2.3ZM37.93,20.69l-1.45,1.45-2.3-2.3,1.47-1.47a1.51,1.51,0,0,1,1.07-.45h0.08a1.58,1.58,0,0,1,1.12.46A1.65,1.65,0,0,1,37.93,20.69ZM5.12,35.85H6.4v1.28H5.12V35.85ZM24.32,2.56H25.6V3.84H24.32V2.56Zm-9,0H23V3.84H15.36V2.56Zm9,2.56H25.6V6.4H24.32V5.12Zm-9,0H23V6.4H15.36V5.12Zm9,2.56H25.6V9H24.32V7.68Zm-9,0H23V9H15.36V7.68ZM2.56,10.24h23v1.28h-23V10.24Zm0,2.56h23v1.28h-23V12.8Zm0,2.56h23v1.28h-23V15.36Zm9,3.2H12.8v1.28H11.52V18.56Zm2.56,0H25.6v1.28H14.08V18.56Zm-2.56,2.56H25.6V22.4H11.52V21.12Zm0,2.56H25.6V25H11.52V23.68ZM6.4,25.6a3.84,3.84,0,1,0-3.84-3.84A3.84,3.84,0,0,0,6.4,25.6Zm0-6.4a2.56,2.56,0,1,1-2.56,2.56A2.56,2.56,0,0,1,6.4,19.2ZM2.56,26.88h9v1.28h-9V26.88Zm0,2.56h9v1.28h-9V29.45Z" fill="#fe5000"/></g>
    </symbol>
    <symbol id="download" viewBox="0 0 16 18" fill="none">
      <path d="M8 1.5V12.3333M3.83398 9L8.00065 13.1667L12.1673 9M14.6673 16.5H1.33398"/>
    </symbol>
    <symbol id="earth" viewBox="0 0 40 40">
      <g clip-path="url(#clip-path)"><path d="M33,26.78a16.06,16.06,0,0,0-.31-21.69h0A16.06,16.06,0,0,0,21.47,0H20.35A16.06,16.06,0,0,0,9.18,5.08h0a16,16,0,0,0-4.33,9.79l1.09,0.4A14.93,14.93,0,0,1,9.73,6.12a20.44,20.44,0,0,0,4.39,2.16,20.5,20.5,0,0,0-1.53,7.27H6.69L9.6,16.66h3q0,0.59.07,1.18l1.16,0.44q-0.09-.81-0.11-1.63h4.58l0.39-.34,0.94-.77H13.7a19.4,19.4,0,0,1,1.48-6.93,20.53,20.53,0,0,0,5.17.8V15c0.39-.31.76-0.23,1.11-0.5v-5a20.5,20.5,0,0,0,5.17-.8,19.4,19.4,0,0,1,1.48,6.93l-2.64,0,0.19,1.09h2.45a19.39,19.39,0,0,1-1.28,6.43,20.42,20.42,0,0,0-5.24-.85l-0.28.23-1,.88h0.07v6.08l0.38,2.78h0.73a16.07,16.07,0,0,0,11.45-5.38l0,0v0ZM23.68,15.2a2.18,2.18,0,0,1,.7.29h0a1.75,1.75,0,0,1,.65.89,1.61,1.61,0,0,1,0,1.06,4.64,4.64,0,0,1-.34.9,6.83,6.83,0,0,1-.45.78,8.46,8.46,0,0,1-1.62,1.82L21.33,22,20,23.09,19,24a0.71,0.71,0,0,0-.23.27,0.69,0.69,0,0,0,0,.37q0.78,5.59,1.54,11.18a5.79,5.79,0,0,1,.05.74,3.74,3.74,0,0,1-.11.91h0a2.58,2.58,0,0,1-.57,1.06,3.4,3.4,0,0,1-1,.76,0.8,0.8,0,0,1-.21.13l-0.23.08a1.63,1.63,0,0,1-.33.12,1.41,1.41,0,0,1-.34,0,1.27,1.27,0,0,1-.77-0.25,1.76,1.76,0,0,1-.54-0.7,5.77,5.77,0,0,1-.24-0.59c-0.05-.15-0.11-0.3-0.17-0.45-0.77-1.92-1.72-4.13-2.36-6.06A6.24,6.24,0,0,0,13,30.77c-0.14-.28-0.31-0.56-0.49-0.84l-0.07-.12-0.54.42c-0.85.68-1.72,1.35-2.6,2l-1.43,1.1c0.13,0.54.27,1.06,0.39,1.6a2.57,2.57,0,0,1,.13.93,2.61,2.61,0,0,1-.19.85,2,2,0,0,1-.51.81,2.26,2.26,0,0,1-.86.51h0a1.5,1.5,0,0,1-1.17-.18l-0.06,0a1.34,1.34,0,0,1-.31-0.21,2.11,2.11,0,0,1-.25-0.29c-0.6-.73-1.2-1.47-1.79-2.22s-1.13-1.45-1.69-2.19l-1-1.22a2.34,2.34,0,0,1-.32-0.37A1.26,1.26,0,0,1,0,30.45,1.32,1.32,0,0,1,.42,29.6h0a9.83,9.83,0,0,1,.77-0.72A1.54,1.54,0,0,1,2,28.49a1.77,1.77,0,0,1,.95.16c0.23,0.1.45,0.22,0.67,0.34s0.43,0.23.66,0.33l0.54,0.25,0.08,0,0.48-.45L6,28.63l3.25-3.1-0.08-.1L9,25.22a7.53,7.53,0,0,0-1.6-1.33l-0.11-.08C6.39,23.2,5.51,22.6,4.63,22S2.85,20.79,2,20.18L1.71,20A3.88,3.88,0,0,1,1.4,19.7,1.48,1.48,0,0,1,.9,18.84a1.36,1.36,0,0,1,.22-0.95,4.39,4.39,0,0,1,.59-0.82,5,5,0,0,1,.79-0.71A1.61,1.61,0,0,1,3.25,16a2,2,0,0,1,.9.07c0.35,0.1.66,0.2,1,.31,3.15,1.05,6.45,2.42,9.59,3.59l0.56,0.15a0.63,0.63,0,0,0,.32,0,1.21,1.21,0,0,0,.32-0.2l0.39-.36,0.38-.35c0.42-.34.82-0.74,1.24-1.09q1.32-1.08,2.31-1.85h0a6.09,6.09,0,0,1,1.23-.71,5.85,5.85,0,0,1,1.39-.39h0A2.69,2.69,0,0,1,23.68,15.2Zm-0.2,2.66a4.56,4.56,0,0,0,.29-0.71l0-.05a0.54,0.54,0,0,0,0-.3,0.2,0.2,0,0,0-.1-0.13h0a1,1,0,0,0-.28-0.1,0.79,0.79,0,0,0-.3,0h0a4.24,4.24,0,0,0-1.06.29,4.52,4.52,0,0,0-1,.56c-0.47.36-1,.77-1.52,1.23l-0.73.61-1.22,1.07-0.39.36L16.77,21h0a2.08,2.08,0,0,1-.8.45,2,2,0,0,1-.9,0l-0.13,0a4.29,4.29,0,0,1-.61-0.18L4.72,17.73l-0.41-.15-0.5-.15a0.9,0.9,0,0,0-.35,0,0.21,0.21,0,0,0-.13.06h0A5.39,5.39,0,0,0,2.7,18a3.17,3.17,0,0,0-.47.63v0h0a0.15,0.15,0,0,0,0,0l0.08,0.09a2.68,2.68,0,0,0,.44.34h0L5.34,21,8,22.77a10.94,10.94,0,0,1,1,.75,7.29,7.29,0,0,1,.93.91,2.17,2.17,0,0,1,.27.36L10.37,25v0l0.07,0.11,0.08,0.13,0.32,0.45c-1.31,1.31-2.68,2.56-4,3.83l-0.61.59-0.62.59h0a1,1,0,0,1-.49.22,0.76,0.76,0,0,1-.48-0.1L4.3,30.7l-0.57-.26-0.66-.35-0.66-.31h0a0.45,0.45,0,0,0-.24-0.06A0.27,0.27,0,0,0,2,29.8H2a3.82,3.82,0,0,0-.32.28l-0.36.36,0.07,0.11a1.21,1.21,0,0,0,.16.22c0.28,0.28.71,0.9,1,1.24,0.55,0.73,1.12,1.46,1.7,2.2L6,36.43l0,0a0.46,0.46,0,0,0,.08.11l0.11,0.08h0a0.45,0.45,0,0,0,.16.08,0.94,0.94,0,0,0,.36-0.19A1.12,1.12,0,0,0,7,36.2a1.07,1.07,0,0,0,.11-0.44A2,2,0,0,0,7,35.22l-0.1-.47c0-.22-0.11-0.46-0.18-0.69s-0.13-.46-0.18-0.7a1,1,0,0,1,0-.43,0.77,0.77,0,0,1,.33-0.49l0.77-.6c1.14-.89,2.31-1.8,3.49-2.68l1.71-1.27c0.31,0.45.57,0.84,0.86,1.31,0.18,0.31.36,0.61,0.53,0.94a9,9,0,0,1,.46,1l2.25,6c0.07,0.16.12,0.31,0.18,0.46a5.64,5.64,0,0,0,.23.56h0a0.28,0.28,0,0,0,.1.16,0.4,0.4,0,0,0,.24,0A2.34,2.34,0,0,0,18,38.19a1.9,1.9,0,0,0,.58-0.43,1.61,1.61,0,0,0,.32-0.57A1.65,1.65,0,0,0,19,36.72a5.07,5.07,0,0,0,0-.65c-0.51-3.72-1-7.45-1.54-11.17a2,2,0,0,1,.12-1.06A1.91,1.91,0,0,1,18.17,23l1-.87c0.87-.72,1.74-1.43,2.56-2.15h0a7.66,7.66,0,0,0,.79-0.75,4.89,4.89,0,0,0,.56-0.75C23.24,18.3,23.37,18.08,23.48,17.86ZM7.35,24.79q0.25,0.38.51,0.75l0.06-.06-0.1-.12C7.76,25.28,7.7,25.2,7.63,25.1Zm28.54-9.24H29.22a20.5,20.5,0,0,0-1.53-7.27,20.44,20.44,0,0,0,4.39-2.16A14.93,14.93,0,0,1,35.89,15.55ZM20.35,8.31a19.39,19.39,0,0,1-4.7-.71,19.43,19.43,0,0,1,4.7-6.13V8.31Zm1.11,0V1.47a19.43,19.43,0,0,1,4.7,6.13A19.39,19.39,0,0,1,21.46,8.31Zm5.78-1.05a20.51,20.51,0,0,0-4.38-6,15,15,0,0,1,8.43,4.06A19.29,19.29,0,0,1,27.24,7.26Zm-12.67,0a19.3,19.3,0,0,1-4.05-2A15,15,0,0,1,19,1.24,20.49,20.49,0,0,0,14.57,7.26Zm6.89,23.48v-7.4a19.37,19.37,0,0,1,4.93.78A19.42,19.42,0,0,1,21.46,30.74Zm7.76-14.08h6.67a14.92,14.92,0,0,1-3.5,9.08,20.48,20.48,0,0,0-4.5-2.29A20.5,20.5,0,0,0,29.22,16.66ZM22.86,31a20.48,20.48,0,0,0,4.59-6.5,19.36,19.36,0,0,1,4.17,2.1A15,15,0,0,1,22.86,31Z" fill="#fe5000"/></g>
    </symbol>
    <symbol id="filter" viewBox="0 0 18 18" fill="none">
      <path d="M7.50048 9.19575L3.02148 2.979H15.0215L10.5005 9.24675V12.75L7.50048 15V9.19575Z" stroke="#FE5000" stroke-width="2" stroke-linecap="round" stroke-linejoin="round"/>
    </symbol>
    <symbol id="flag" viewBox="0 0 18 18" fill="none">
      <path d="M3.75 15V11.25C4.74975 10.2503 6 9.75 7.5 9.75C9.75 9.75 10.5 11.25 12 11.25C12.75 11.25 13.5 11.0002 14.25 10.5V3.75C13.5 4.25025 12.75 4.5 12 4.5C10.5 4.5 9.75 3 7.5 3C6 3 4.74975 3.50025 3.75 4.5V11.25" stroke="#FE5000" stroke-width="2" stroke-linecap="round" stroke-linejoin="round"/>
    </symbol>
    <symbol id="globe" viewBox="0 0 28 28" fill="none">
      <path d="M14 27C21.1797 27 27 21.1797 27 14C27 6.8203 21.1797 1 14 1M14 27C6.8203 27 1 21.1797 1 14C1 6.8203 6.8203 1 14 1M14 27C10.6863 27 8 21.1797 8 14C8 6.8203 10.6863 1 14 1M14 27C17.3137 27 20 21.1797 20 14C20 6.8203 17.3137 1 14 1M1 13C1 14.6569 6.8203 16 14 16C21.1797 16 27 14.6569 27 13"/>
    </symbol>
    <symbol id="map-2" viewBox="0 0 40 40" fill="none">
      <path fill-rule="evenodd" clip-rule="evenodd" d="M37.2862 15.878H29.4242C29.0252 15.878 28.7027 16.2005 28.7027 16.5995C28.7027 16.9985 29.0252 17.3207 29.4242 17.3207H35.99L38.0812 36.7977H1.63648L4.09123 17.3207H10.6687C11.0675 17.3207 11.39 16.9985 11.39 16.5995C11.39 16.2005 11.0675 15.878 10.6687 15.878H2.81873L0.000228882 38.2405H39.6877L37.2862 15.878ZM19.2277 27.3875C19.1215 27.4503 19.0082 27.5057 18.9065 27.5715C18.748 27.674 18.5927 27.7815 18.4405 27.8925C18.1195 28.1285 18.0502 28.58 18.2855 28.901C18.427 29.0935 18.6462 29.1952 18.8685 29.1952C19.0162 29.1952 19.1655 29.1497 19.2947 29.056C19.423 28.9615 19.5537 28.8707 19.69 28.7827C19.9215 28.6327 20.1675 28.492 20.4215 28.3635C20.759 28.1928 20.8962 27.793 20.7547 27.4482C20.7605 27.4425 20.7677 27.438 20.7727 27.4323C22.0777 26.0503 26.4752 20.8707 28.296 12.2417C28.6652 10.4917 28.7482 8.81224 28.5427 7.25049C27.9222 2.50749 24.9755 0 20.021 0C15.0682 0 12.1215 2.50749 11.4995 7.25049C11.2947 8.81299 11.3777 10.4925 11.747 12.2417C13.5497 20.787 17.878 25.9463 19.2277 27.3875ZM20.0217 13.6505C22.944 13.6505 25.321 11.2735 25.321 8.35124C25.321 5.429 22.944 3.05225 20.0217 3.05225C17.0995 3.05225 14.7227 5.429 14.7227 8.35124C14.7227 11.2735 17.0995 13.6505 20.0217 13.6505ZM22.6715 26.0905C22.282 26.1727 22.0337 26.5565 22.1167 26.9467C22.1887 27.2857 22.4882 27.5175 22.8215 27.5175C22.8712 27.5175 22.9225 27.5122 22.973 27.5015C23.3957 27.412 23.8537 27.3362 24.3335 27.2757C24.7287 27.2275 25.01 26.8667 24.9602 26.4715C24.9112 26.0755 24.5542 25.7897 24.156 25.8445C23.6345 25.9087 23.1345 25.9917 22.6715 26.0905ZM26.4017 26.3835C26.4175 26.7707 26.7377 27.0737 27.1215 27.0737C27.1325 27.0737 27.1425 27.0737 27.1532 27.073L28.5967 27.0132C28.9942 26.995 29.303 26.6575 29.2842 26.26C29.2662 25.8612 28.8955 25.5502 28.531 25.572L27.0912 25.6317C26.693 25.6482 26.3842 25.9845 26.4017 26.3835ZM16.1827 29.7025C15.812 29.9822 15.429 30.2515 15.043 30.501C14.709 30.718 14.6137 31.1647 14.831 31.4992C14.9687 31.7122 15.201 31.8275 15.4367 31.8275C15.5717 31.8275 15.7075 31.79 15.8292 31.7115C16.2425 31.443 16.6545 31.1545 17.052 30.8545C17.3695 30.6142 17.433 30.162 17.1935 29.8438C16.9532 29.5285 16.5022 29.4622 16.1827 29.7025ZM32.2597 24.9457C32.016 25.1167 31.6992 25.2407 31.289 25.3252C30.8987 25.4052 30.6475 25.7875 30.7285 26.1777C30.799 26.519 31.0992 26.7535 31.4347 26.7535C31.483 26.7535 31.532 26.7485 31.581 26.7382C32.1885 26.6127 32.682 26.4122 33.093 26.123L33.1897 26.0522C33.507 25.8115 33.57 25.359 33.3297 25.0417C33.0887 24.7242 32.6372 24.6622 32.319 24.9017L32.2597 24.9457ZM6.39173 30.586C6.49623 30.2017 6.26824 29.8055 5.88374 29.7017C5.50224 29.5942 5.10323 29.8237 4.99948 30.2095C4.90848 30.5442 4.85448 30.8862 4.83698 31.223C4.83348 31.306 4.83123 31.3897 4.83123 31.4777C4.83198 31.619 4.83848 31.7605 4.85223 31.9012C4.89048 32.2727 5.20349 32.549 5.56924 32.549C5.59299 32.549 5.61748 32.5475 5.64348 32.5452C6.03948 32.5042 6.32824 32.1507 6.28849 31.754C6.27824 31.6595 6.27473 31.5635 6.27398 31.4727C6.27398 31.4127 6.27624 31.353 6.27899 31.2938C6.29074 31.06 6.32823 30.8212 6.39173 30.586ZM32.244 19.3385C31.6712 19.262 31.087 19.309 30.5227 19.469C30.139 19.5765 29.9162 19.9755 30.025 20.3585C30.1145 20.6767 30.4037 20.8845 30.7182 20.8845C30.784 20.8845 30.8495 20.8757 30.9145 20.857C31.2895 20.7517 31.6755 20.7185 32.0507 20.769C32.456 20.8195 32.8095 20.5447 32.8622 20.1507C32.9155 19.7547 32.6385 19.392 32.244 19.3385ZM33.6795 22.9122C33.562 23.2922 33.7755 23.697 34.1555 23.814C34.227 23.8362 34.2977 23.8462 34.3685 23.8462C34.6772 23.8462 34.962 23.648 35.0572 23.3377C35.1287 23.1085 35.1727 22.8755 35.1892 22.6432C35.193 22.5832 35.195 22.5227 35.195 22.4627C35.195 22.1252 35.133 21.787 35.0112 21.4587C34.8727 21.0842 34.455 20.8952 34.0842 21.033C33.7097 21.1715 33.52 21.587 33.6585 21.96C33.7207 22.1272 33.7525 22.297 33.7525 22.462L33.7502 22.5465C33.7415 22.6662 33.7185 22.786 33.6795 22.9122ZM12.6105 31.8573C12.1877 32.0555 11.7572 32.2395 11.3307 32.4047C10.9592 32.5475 10.7747 32.9653 10.9182 33.3375C11.0285 33.623 11.3012 33.799 11.5912 33.799C11.6777 33.799 11.7657 33.784 11.851 33.7507C12.309 33.574 12.7707 33.3762 13.2237 33.1642C13.5842 32.9955 13.7395 32.5655 13.57 32.205C13.402 31.8435 12.9735 31.687 12.6105 31.8573ZM7.35898 28.854C7.47523 28.854 7.59348 28.826 7.70373 28.766C7.91148 28.6527 8.13298 28.5822 8.36098 28.5577C8.45848 28.546 8.55798 28.546 8.65373 28.559C9.05998 28.6117 9.41123 28.3332 9.46323 27.9387C9.51523 27.5432 9.23748 27.1812 8.84273 27.1292C8.62798 27.1012 8.40924 27.0997 8.19998 27.1235C7.78598 27.169 7.38648 27.296 7.01273 27.4992C6.66273 27.6905 6.53373 28.1277 6.72498 28.4775C6.85624 28.7185 7.10348 28.854 7.35898 28.854ZM7.20898 34.5102C7.36473 34.5507 7.52348 34.581 7.68073 34.5997C7.86548 34.6222 8.04998 34.6337 8.23548 34.6337C8.46123 34.6337 8.68774 34.6177 8.91349 34.589C9.30874 34.5392 9.58949 34.1785 9.53899 33.7832C9.48849 33.388 9.12999 33.1095 8.73324 33.1577C8.44174 33.1952 8.14748 33.204 7.85598 33.1688C7.76073 33.1562 7.66549 33.1382 7.57174 33.1145C7.18574 33.0112 6.79273 33.245 6.69173 33.631C6.59298 34.017 6.82373 34.4107 7.20898 34.5102ZM20.0217 4.49548C22.1477 4.49548 23.8782 6.22548 23.8782 8.35198C23.8782 10.4787 22.1485 12.2085 20.0217 12.2085C17.8952 12.2085 16.1655 10.4787 16.1655 8.35198C16.1655 6.22548 17.896 4.49548 20.0217 4.49548ZM12.93 7.43875C13.4587 3.40499 15.7787 1.44348 20.022 1.44348C24.2657 1.44348 26.585 3.40499 27.113 7.43875C27.297 8.83825 27.2197 10.3552 26.885 11.9452C25.2482 19.702 21.3455 24.624 20.0217 26.1172C18.6967 24.6225 14.7947 19.6985 13.1587 11.9452C12.8232 10.3552 12.747 8.83899 12.93 7.43875Z" fill="#FE5000"/>
    </symbol>
    <symbol id="map" viewBox="0 0 47 47" fill="none">
      <path d="M17.625 37.2083L5.875 41.125V9.79167L17.625 5.875L29.375 9.79167L41.125 5.875V36.2292L29.375 41.125L17.625 37.2083Z" stroke="#FE5000" stroke-width="3" stroke-linecap="round" stroke-linejoin="round" fill="transparent"/><path d="M17.625 5.875V37.2083M29.375 9.79167V41.125V9.79167Z" stroke="#FE5000" stroke-width="3" stroke-linecap="round" stroke-linejoin="round" fill="transparent"/>
    </symbol>
    <symbol id="package" viewBox="0 0 55.24 60">
      <g clip-path="url(#a)"><path d="M57.59,14.15a1.57,1.57,0,0,0-.15-.67,1.47,1.47,0,0,0-1-.81L30.62.15a1.53,1.53,0,0,0-1.33,0l-26,12.63a1.53,1.53,0,0,0-.86,1.32h0V45.84a1.51,1.51,0,0,0,.86,1.37l26,12.63h0l.11.05h.05l.11,0h0l.13,0h.41l.13,0h0l.11,0h.05l.11-.05h0L56.76,47.17a1.53,1.53,0,0,0,.86-1.37V14.18S57.59,14.16,57.59,14.15ZM29.95,3.2l22.59,11-8.32,4-22.59-11Zm0,21.91-22.59-11L18.15,8.93l22.59,11ZM5.42,16.6l23,11.16V56l-23-11.16ZM31.47,56V27.76l10.8-5.24v7.4a1.52,1.52,0,0,0,3,0V21l9.24-4.48V44.83Z" transform="translate(-2.38)" fill="#fe5000"/></g>
    </symbol>
    <symbol id="parking-2" viewBox="0 0 40 40" fill="none">
      <path fill-rule="evenodd" clip-rule="evenodd" d="M21.5335 8.01599H11.3953V31.6718H13.641V21.5335H21.5335C25.261 21.5335 28.2925 18.5023 28.2925 14.7748C28.2925 11.047 25.261 8.01575 21.5335 8.01575V8.01599ZM2.8425 0H36.845C38.4085 0 39.6875 1.279 39.6875 2.8425V36.845C39.6875 38.4085 38.4085 39.6875 36.845 39.6875H2.8425C1.279 39.6875 0 38.4085 0 36.845V2.8425C0 1.279 1.279 0 2.8425 0ZM4.421 1.8425H35.2665C36.6848 1.8425 37.845 3.00275 37.845 4.421V35.2665C37.845 36.6848 36.6848 37.845 35.2665 37.845H4.421C3.00275 37.845 1.8425 36.6848 1.8425 35.2665V4.421C1.8425 3.00275 3.00275 1.8425 4.421 1.8425ZM21.5335 19.288H13.641V10.261H21.5335C28.1417 10.4853 28.1217 19.5075 21.5335 19.2877V19.288Z" fill="#FE5000"/>
    </symbol>
    <symbol id="parking" viewBox="0 0 48.05 60">
      <g fill="#fe5000" clip-path="url(#a)"><path d="M48.92,0H11.08A5.11,5.11,0,0,0,6,5.1V43a5.11,5.11,0,0,0,5.1,5.1H22.4v8.36H20.65a1.76,1.76,0,0,0,0,3.52H39.35a1.76,1.76,0,1,0,0-3.52H37.6V48.12H48.92A5.11,5.11,0,0,0,54,43V5.1A5.11,5.11,0,0,0,48.92,0ZM34.08,56.48H25.92V48.12h8.16ZM50.51,43a1.59,1.59,0,0,1-1.58,1.58H11.08A1.59,1.59,0,0,1,9.49,43V5.1a1.59,1.59,0,0,1,1.58-1.58H48.92A1.59,1.59,0,0,1,50.51,5.1Z" transform="translate(-5.98)"/><path d="M33.39,7.05H22.78a6.21,6.21,0,0,0-6.2,6.2V39.17a1.91,1.91,0,0,0,1.91,1.91h6.28a1.91,1.91,0,0,0,1.91-1.91V30.74h6.72A10.52,10.52,0,0,0,43.9,20.24V17.56A10.52,10.52,0,0,0,33.39,7.05Zm7,13.19a7,7,0,0,1-7,7H25.06a1.91,1.91,0,0,0-1.91,1.91v8.42H20.09V13.25a2.69,2.69,0,0,1,2.69-2.69H33.39a7,7,0,0,1,7,7Z" transform="translate(-5.98)"/><path d="M32.76,13.36h-7.7a1.91,1.91,0,0,0-1.91,1.91v7.12a1.91,1.91,0,0,0,1.91,1.91h7.7a4.56,4.56,0,0,0,4.55-4.55V17.92A4.56,4.56,0,0,0,32.76,13.36Zm1,6.38a1,1,0,0,1-1,1H26.67v-3.9h6.09a1,1,0,0,1,1,1Z" transform="translate(-5.98)"/></g>
    </symbol>
    <symbol id="plus" viewBox="0 0 20 20" fill="none">
      <path d="M9.99968 3.33334V16.6667M16.6663 10H3.33301H16.6663Z" stroke="#0C2340" stroke-opacity=".4" stroke-width="2" stroke-linecap="round" stroke-linejoin="round"/>
    </symbol>
    <symbol id="search-2" viewBox="0 0 15 15" fill="none">
      <g clip-path="url(#clip0)"><path d="M13.9348 15.0662C14.2475 15.3783 14.7541 15.3779 15.0662 15.0652C15.3783 14.7525 15.3779 14.2459 15.0652 13.9338L13.9348 15.0662ZM11.3129 11.3188L10.7477 10.7527L11.3129 11.3188ZM7.25 12.2C4.51619 12.2 2.3 9.98381 2.3 7.25H0.7C0.7 10.8675 3.63253 13.8 7.25 13.8V12.2ZM2.3 7.25C2.3 4.51619 4.51619 2.3 7.25 2.3V0.7C3.63253 0.7 0.7 3.63253 0.7 7.25H2.3ZM7.25 2.3C9.98381 2.3 12.2 4.51619 12.2 7.25H13.8C13.8 3.63253 10.8675 0.7 7.25 0.7V2.3ZM12.2 7.25C12.2 8.61841 11.6458 9.85585 10.7477 10.7527L11.8782 11.8849C13.0646 10.7002 13.8 9.06021 13.8 7.25H12.2ZM10.7477 10.7527C9.85121 11.6479 8.61585 12.2 7.25 12.2V13.8C9.05681 13.8 10.694 13.0674 11.8782 11.8849L10.7477 10.7527ZM10.7478 11.885L13.9348 15.0662L15.0652 13.9338L11.8781 10.7526L10.7478 11.885Z" fill="#0C0A3E"/></g>
    </symbol>
    <symbol id="search" viewBox="0 0 24 24">
      <path d="M14.4121 14.4121L20 20"/><path d="M10 16C13.3137 16 16 13.3137 16 10C16 6.68629 13.3137 4 10 4C6.68629 4 4 6.68629 4 10C4 13.3137 6.68629 16 10 16Z" fill="none"/>
    </symbol>
    <symbol id="soc-fb" viewBox="0 0 9 16">
      <path d="M8.66109 0.00332907L6.5024 0C4.07718 0 2.5099 1.54552 2.5099 3.93762V5.75313H0.339433C0.151879 5.75313 0 5.89927 0 6.07954V8.71001C0 8.89028 0.152052 9.03625 0.339433 9.03625H2.5099V15.6738C2.5099 15.854 2.66178 16 2.84933 16H5.68118C5.86873 16 6.02061 15.8539 6.02061 15.6738V9.03625H8.55839C8.74595 9.03625 8.89782 8.89028 8.89782 8.71001L8.89886 6.07954C8.89886 5.99299 8.86302 5.91009 8.79946 5.84884C8.7359 5.78758 8.64931 5.75313 8.55926 5.75313H6.02061V4.2141C6.02061 3.47438 6.20401 3.09886 7.20655 3.09886L8.66074 3.09836C8.84812 3.09836 9 2.95222 9 2.77211V0.329578C9 0.149642 8.84829 0.00366197 8.66109 0.00332907Z"/>
    </symbol>
    <symbol id="soc-inst" viewBox="0 0 16 16">
      <path d="M11.3523 0H4.64775C2.08497 0 0 2.08497 0 4.64775V11.3523C0 13.915 2.08497 16 4.64775 16H11.3523C13.915 16 16 13.915 16 11.3523V4.64775C16 2.08497 13.915 0 11.3523 0ZM14.75 11.3523C14.75 13.2258 13.2258 14.75 11.3523 14.75H4.64775C2.77422 14.75 1.25 13.2258 1.25 11.3523V4.64775C1.25 2.77422 2.77422 1.25 4.64775 1.25H11.3523C13.2258 1.25 14.75 2.77422 14.75 4.64775V11.3523Z"/><path d="M8 4C5.79438 4 4 5.79438 4 8C4 10.2056 5.79438 12 8 12C10.2056 12 12 10.2056 12 8C12 5.79438 10.2056 4 8 4ZM8 10.8406C6.43371 10.8406 5.15942 9.56629 5.15942 8C5.15942 6.43371 6.43371 5.15942 8 5.15942C9.56629 5.15942 10.8406 6.43371 10.8406 8C10.8406 9.56629 9.56629 10.8406 8 10.8406Z"/><path d="M12 5C12.5523 5 13 4.55228 13 4C13 3.44772 12.5523 3 12 3C11.4477 3 11 3.44772 11 4C11 4.55228 11.4477 5 12 5Z"/>
    </symbol>
    <symbol id="soc-od" viewBox="0 0 10 16">
      <path d="M4.01622 11.2698C2.77585 11.1405 1.65747 10.835 0.699956 10.0861C0.581147 9.99293 0.458484 9.90312 0.350065 9.79905C-0.0690345 9.39654 -0.111263 8.93555 0.220363 8.46048C0.504064 8.05395 0.980305 7.9452 1.47532 8.17863C1.57117 8.22387 1.66249 8.28034 1.74997 8.341C3.53445 9.56713 5.98587 9.60098 7.77705 8.39613C7.95451 8.26007 8.1442 8.14913 8.36406 8.09249C8.79154 7.98273 9.19019 8.13975 9.4196 8.51377C9.68168 8.94091 9.67833 9.35783 9.35542 9.68946C8.86007 10.1979 8.26435 10.5657 7.60244 10.8224C6.97656 11.0651 6.29102 11.1872 5.61252 11.2683C5.7149 11.3798 5.76316 11.4346 5.82718 11.4989C6.74849 12.4246 7.67383 13.3464 8.59213 14.2749C8.90498 14.5913 8.97034 14.9836 8.79807 15.3516C8.60972 15.7537 8.18811 16.0183 7.77471 15.99C7.51279 15.9719 7.30852 15.8416 7.12704 15.6587C6.43178 14.9591 5.72345 14.2724 5.04227 13.5595C4.84403 13.3523 4.74868 13.3915 4.57373 13.5714C3.87429 14.2915 3.16344 15.0005 2.44841 15.7055C2.12734 16.022 1.74527 16.079 1.37293 15.8982C0.977122 15.7063 0.72526 15.3023 0.744698 14.8963C0.758104 14.6216 0.893168 14.4118 1.08169 14.2236C1.99345 13.3132 2.9027 12.4004 3.81228 11.4885C3.87244 11.4279 3.92858 11.3635 4.01622 11.2698Z"/><path d="M4.77225 8.09863C2.55945 8.09109 0.744978 6.25667 0.757881 4.04036C0.770616 1.79958 2.58626 -0.00618427 4.82084 1.59188e-05C7.05995 0.00604853 8.85716 1.83778 8.84594 4.10186C8.83454 6.31365 7.0075 8.10634 4.77225 8.09863ZM6.78329 4.04572C6.77943 2.94527 5.90303 2.0692 4.80476 2.0682C3.69727 2.06702 2.81299 2.95901 2.82154 4.06952C2.82975 5.16578 3.71369 6.03565 4.81498 6.03162C5.91292 6.02777 6.78697 5.146 6.78329 4.04572Z"/>
    </symbol>
    <symbol id="soc-tw" viewBox="0 0 16 14">
      <path d="M16 2.039C15.405 2.3 14.771 2.473 14.11 2.557C14.79 2.151 15.309 1.513 15.553 0.744C14.919 1.122 14.219 1.389 13.473 1.538C12.871 0.897 12.013 0.5 11.077 0.5C9.261 0.5 7.799 1.974 7.799 3.781C7.799 4.041 7.821 4.291 7.875 4.529C5.148 4.396 2.735 3.089 1.114 1.098C0.831 1.589 0.665 2.151 0.665 2.756C0.665 3.892 1.25 4.899 2.122 5.482C1.595 5.472 1.078 5.319 0.64 5.078C0.64 5.088 0.64 5.101 0.64 5.114C0.64 6.708 1.777 8.032 3.268 8.337C3.001 8.41 2.71 8.445 2.408 8.445C2.198 8.445 1.986 8.433 1.787 8.389C2.212 9.688 3.418 10.643 4.852 10.674C3.736 11.547 2.319 12.073 0.785 12.073C0.516 12.073 0.258 12.061 0 12.028C1.453 12.965 3.175 13.5 5.032 13.5C11.068 13.5 14.368 8.5 14.368 4.166C14.368 4.021 14.363 3.881 14.356 3.742C15.007 3.28 15.554 2.703 16 2.039Z"/>
    </symbol>
    <symbol id="soc-vk" viewBox="0 0 16 9">
      <path fill-rule="evenodd" clip-rule="evenodd" d="M13.7703 5.72261C14.301 6.23766 14.8612 6.72226 15.3372 7.28925C15.5475 7.54121 15.7466 7.80122 15.8989 8.09363C16.1147 8.5093 15.9192 8.96672 15.5442 8.99154L13.2133 8.99049C12.6121 9.04008 12.1325 8.79951 11.7293 8.39095C11.4066 8.06421 11.1077 7.71647 10.7974 7.37871C10.6702 7.24066 10.537 7.11075 10.3779 7.00808C10.0597 6.80278 9.78353 6.86564 9.60169 7.19551C9.41649 7.53102 9.37449 7.90254 9.3563 8.27646C9.33133 8.82203 9.16542 8.96546 8.61407 8.99044C7.43578 9.04567 6.31753 8.86848 5.2787 8.27766C4.36284 7.75681 3.65263 7.02151 3.03447 6.18907C1.83089 4.56814 0.909193 2.787 0.0808054 0.955963C-0.105658 0.543428 0.0307068 0.321981 0.488638 0.314143C1.24905 0.29946 2.00936 0.300505 2.77067 0.313098C3.07973 0.317592 3.28433 0.493788 3.40366 0.783999C3.81507 1.7895 4.31847 2.74614 4.95036 3.63287C5.11863 3.86895 5.29022 4.10502 5.53456 4.27119C5.80487 4.45517 6.01068 4.39419 6.13784 4.09489C6.21854 3.9051 6.25386 3.70069 6.27205 3.49743C6.3323 2.79813 6.34024 2.10004 6.23457 1.40319C6.1697 0.968295 5.92326 0.686757 5.48667 0.604459C5.26388 0.5625 5.29705 0.480098 5.40492 0.353699C5.59228 0.1357 5.76849 0 6.11976 0H8.75406C9.16878 0.0813574 9.26088 0.266541 9.31766 0.681323L9.31992 3.58986C9.3154 3.75044 9.40061 4.22693 9.69158 4.33321C9.92447 4.40887 10.078 4.22369 10.2177 4.07691C10.8484 3.41153 11.2986 2.62517 11.7007 1.81092C11.8792 1.45289 12.0327 1.08106 12.1814 0.709539C12.2916 0.433854 12.4645 0.298206 12.7769 0.304215L15.3122 0.306462C15.3874 0.306462 15.4635 0.307559 15.5363 0.319943C15.9635 0.392313 16.0806 0.574989 15.9486 0.989666C15.7407 1.64026 15.3362 2.18244 14.9407 2.72712C14.5179 3.30864 14.0657 3.87025 13.6464 4.45522C13.2611 4.9894 13.2917 5.25866 13.7703 5.72261Z"/>
    </symbol>
    <symbol id="soc-yt" viewBox="0 0 16 11">
      <path d="M15.3764 0.944272C14.7988 0.27358 13.7325 0 11.6961 0H4.30379C2.22075 0 1.13636 0.291228 0.560981 1.00528C0 1.70148 0 2.72729 0 4.14702V6.85303C0 9.60351 0.6656 11 4.30379 11H11.6961C13.4621 11 14.4407 10.7586 15.0738 10.1667C15.723 9.55974 16 8.56873 16 6.85303V4.14702C16 2.64979 15.9566 1.61794 15.3764 0.944272ZM10.2721 5.87361L6.91525 7.58745C6.84021 7.62577 6.75814 7.64478 6.67618 7.64478C6.58338 7.64478 6.49079 7.62038 6.40877 7.57187C6.25435 7.48046 6.16005 7.31695 6.16005 7.14058V3.72389C6.16005 3.54783 6.25409 3.38446 6.40821 3.293C6.56237 3.20154 6.75412 3.19529 6.91406 3.27646L10.2709 4.97926C10.4417 5.06588 10.5489 5.23812 10.5492 5.42603C10.5494 5.6141 10.4426 5.78659 10.2721 5.87361Z"/>
    </symbol>
    <symbol id="spy" viewBox="0 0 56.21 60">
      <g fill="#fe5000" clip-path="url(#a)"><path d="M10.93,33.65a53.63,53.63,0,0,0,19.18,3.18A53.63,53.63,0,0,0,49.3,33.65c5.67-2.25,8.79-5.45,8.79-9,0-2-1-4.85-5.58-7.48A20.3,20.3,0,0,0,50,16l-1.06-.43C48.13,7.31,46,2.46,42.58.71c-4-2-8.33.7-10.94,2.32-.5.31-1.15.71-1.52.89-.37-.18-1-.58-1.52-.89C26,1.41,21.62-1.29,17.65.71c-3.47,1.75-5.55,6.6-6.37,14.82L10.22,16a20.3,20.3,0,0,0-2.5,1.2c-4.61,2.63-5.58,5.52-5.58,7.48C2.14,28.2,5.26,31.39,10.93,33.65Zm8.31-29.8a3.27,3.27,0,0,1,1.49-.33c2,0,4.25,1.41,6,2.5,1.44.89,2.39,1.48,3.38,1.48S32,6.91,33.49,6c2.24-1.39,5.3-3.28,7.5-2.17,1.58.8,3.61,3.54,4.44,12a34.57,34.57,0,0,1-15.32,3.38,34.57,34.57,0,0,1-15.32-3.38C15.63,7.39,17.65,4.65,19.24,3.85ZM9.47,20.21a16.8,16.8,0,0,1,2.07-1l1.24-.5a37.9,37.9,0,0,0,17.34,4,37.9,37.9,0,0,0,17.34-4l1.24.5a16.8,16.8,0,0,1,2.07,1c2.45,1.4,3.8,3,3.8,4.43,0,2-2.46,4.1-6.57,5.74a50.08,50.08,0,0,1-17.88,2.93,50.08,50.08,0,0,1-17.88-2.93c-4.11-1.64-6.57-3.78-6.57-5.74C5.66,23.19,7,21.61,9.47,20.21Z" transform="translate(-1.88)"/><path d="M56.33,45h-2.1a10.84,10.84,0,0,0-20.05.06,9.18,9.18,0,0,0-8.42,0A10.84,10.84,0,0,0,5.7,45H3.63a1.76,1.76,0,0,0,0,3.52H4.89c0,.21,0,.42,0,.63a10.84,10.84,0,1,0,21.68,0c0-.13,0-.26,0-.39a5.63,5.63,0,0,1,6.84-.06q0,.22,0,.45a10.84,10.84,0,1,0,21.68,0c0-.21,0-.42,0-.63h1.29a1.76,1.76,0,0,0,0-3.52ZM15.71,56.48A7.32,7.32,0,1,1,23,49.16,7.33,7.33,0,0,1,15.71,56.48Zm28.51,0a7.32,7.32,0,1,1,7.32-7.32A7.33,7.33,0,0,1,44.22,56.48Z" transform="translate(-1.88)"/></g>
    </symbol>
    <symbol id="star" viewBox="0 0 60 57.24">
      <g clip-path="url(#a)"><path d="M59.86,22.61A1.63,1.63,0,0,0,58.2,21.4H38.28L31.75,2.59A1.65,1.65,0,0,0,30,1.38a1.69,1.69,0,0,0-1.76,1.21L21.74,21.4H1.82A1.66,1.66,0,0,0,.09,22.61a1.77,1.77,0,0,0,.59,2l16,12.49-5.8,19.14a1.73,1.73,0,0,0,.65,2,1.88,1.88,0,0,0,2.15,0L30,46.87,46.36,58.28a1.83,1.83,0,0,0,1.08.33,1.77,1.77,0,0,0,1.79-1.79,2.54,2.54,0,0,0-.13-.75L43.36,37.12l16-12.49A1.65,1.65,0,0,0,59.86,22.61ZM40.17,35A1.88,1.88,0,0,0,39.55,37l4.63,15.36L31,43.18a1.63,1.63,0,0,0-2,0L15.84,52.31,20.47,37A1.88,1.88,0,0,0,19.85,35L7,25h16a1.63,1.63,0,0,0,1.66-1.21L30,8.65l5.25,15.16A1.64,1.64,0,0,0,37,25H53Z" transform="translate(0 -1.38)" fill="#fe5000"/></g>
    </symbol>
    <symbol id="tickets-2" viewBox="0 0 40 40">
      <g clip-path="url(#clip-path)"><path d="M3.14,5H36.55a3.13,3.13,0,0,1,2.22.92h0a3.12,3.12,0,0,1,.92,2.21v22.3a3.13,3.13,0,0,1-.92,2.21h0a3.13,3.13,0,0,1-2.21.92H3.14a3.12,3.12,0,0,1-2.21-.92h0A3.13,3.13,0,0,1,0,30.44V8.14A3.14,3.14,0,0,1,3.14,5ZM1.88,11.64H37.81V8.14a1.26,1.26,0,0,0-1.26-1.26H3.14A1.27,1.27,0,0,0,1.88,8.14v3.5Zm35.94,2H1.88v3H37.81v-3ZM1.88,18.54v11.9A1.27,1.27,0,0,0,3.14,31.7H36.55a1.26,1.26,0,0,0,1.26-1.26V18.54H1.88Zm22,9.52h9.3v1.49h-9.3V28.06Z" fill="#fe5000"/></g>
    </symbol>
    <symbol id="tickets" viewBox="0 0 60 60" fill="none">
      <path d="M52.5795 15.0257L51.3364 16.2688C50.3208 17.2845 48.9703 17.8438 47.5338 17.8438C46.0973 17.8438 44.7471 17.2845 43.7313 16.2688C42.7157 15.2531 42.1563 13.9027 42.1563 12.4663C42.1563 11.0299 42.7157 9.67945 43.7313 8.66367L44.9745 7.42055L37.5538 0L0 37.5538L7.42055 44.9743L8.66367 43.7312C9.67934 42.7155 11.0298 42.1562 12.4663 42.1562C13.9028 42.1562 15.253 42.7155 16.2688 43.7312C17.2845 44.7469 17.8438 46.0973 17.8438 47.5337C17.8438 48.9701 17.2845 50.3205 16.2688 51.3363L15.0257 52.5795L22.4462 60L60 22.4462L52.5795 15.0257ZM19.8762 52.4573C20.8414 51.0109 21.36 49.3121 21.36 47.5337C21.36 45.1581 20.4349 42.9247 18.755 41.245C17.0753 39.5651 14.8418 38.64 12.4663 38.64C10.6879 38.64 8.9891 39.1586 7.54266 40.1238L4.9725 37.5538L37.5538 4.9725L40.1238 7.54266C39.1586 8.9891 38.64 10.6879 38.64 12.4663C38.64 14.8419 39.5651 17.0753 41.245 18.755C42.9247 20.4349 45.1582 21.36 47.5337 21.36C49.3121 21.36 51.0109 20.8414 52.4573 19.8762L55.0275 22.4462L22.4462 55.0275L19.8762 52.4573Z" fill="#FE5000"/><path d="M35.0331 22.47L32.5469 24.9563L35.043 27.4524L37.5293 24.9662L35.0331 22.47Z" fill="#FE5000"/><path d="M30.0429 17.4761L27.5566 19.9623L30.0528 22.4585L32.539 19.9723L30.0429 17.4761Z" fill="#FE5000"/><path d="M40.0272 27.4623L37.541 29.9486L40.0372 32.4447L42.5234 29.9585L40.0272 27.4623Z" fill="#FE5000"/>
    </symbol></svg>