<svg width="160" height="160" viewBox="0 0 160 160" fill="none" xmlns="http://www.w3.org/2000/svg">
<g clip-path="url(#clip0_1238_30813)">
<path d="M80 160C124.183 160 160 124.183 160 80C160 35.8172 124.183 0 80 0C35.8172 0 0 35.8172 0 80C0 124.183 35.8172 160 80 160Z" fill="#ECF2DC"/>
<path d="M56.525 40.2972H54.724C54.5666 39.4229 54.3305 38.5661 54.042 37.7442L55.5983 36.8437L52.5556 31.5716L50.9994 32.4721C50.4311 31.7989 49.8016 31.1781 49.1283 30.6011L50.0289 29.036L44.7567 25.9934L43.8562 27.5497C43.0343 27.2612 42.1775 27.0251 41.3032 26.8677V25.0667H35.2179V26.8677C34.3436 27.0251 33.4868 27.2612 32.6649 27.5497L31.7644 25.9934L26.4923 29.036L27.3928 30.6011C26.7196 31.1781 26.0988 31.7989 25.5218 32.4721L23.9655 31.5716L20.9229 36.8437L22.4792 37.7442C22.1906 38.5661 21.9546 39.4229 21.7972 40.2972H19.9961V46.3912H21.7972C21.9546 47.2656 22.1906 48.1224 22.4792 48.9442L20.9229 49.8448L23.9655 55.1169L25.5218 54.2164C26.0901 54.8896 26.7196 55.5104 27.3928 56.0874L26.4923 57.6524L31.7644 60.6951L32.6649 59.1388C33.4868 59.4273 34.3436 59.6634 35.2179 59.8207V61.6218H41.3032V59.8207C42.1775 59.6634 43.0343 59.4273 43.8562 59.1388L44.7567 60.6951L50.0289 57.6524L49.1283 56.0874C49.8016 55.5104 50.4223 54.8896 50.9994 54.2164L52.5556 55.1169L55.5983 49.8448L54.042 48.9442C54.3305 48.1224 54.5666 47.2656 54.724 46.3912H56.525V40.2972ZM48.219 43.6721C48.0529 48.8918 43.8037 53.141 38.5928 53.3071C32.8311 53.4907 28.1272 48.7781 28.3108 43.0251C28.477 37.8054 32.7261 33.5563 37.9371 33.3901C43.6988 33.2065 48.4026 37.9191 48.219 43.6721Z" fill="white"/>
<path d="M38.89 56.3409C31.4409 56.3409 25.3818 50.2732 25.3818 42.824C25.3818 35.3748 26.5534 36.424 28.6868 33.9671C30.7939 31.5365 33.7053 29.9365 36.8704 29.4557C36.9753 29.4382 37.0715 29.5081 37.0889 29.6218C37.1064 29.7267 37.0365 29.8229 36.9228 29.8404C30.5578 30.7934 25.7665 36.3803 25.7665 42.824C25.7665 49.2677 31.6507 55.9562 38.89 55.9562C46.1294 55.9562 50.0988 51.9169 51.5938 46.1376C51.6201 46.0327 51.725 45.9715 51.8299 45.9977C51.9348 46.024 51.996 46.1289 51.9698 46.2338C50.4223 52.1879 45.0452 56.3409 38.89 56.3409Z" fill="#ECF2DC"/>
<path d="M80.8137 37.5956H79.6945C79.5984 37.0535 79.4497 36.5202 79.2749 36.0131L80.2366 35.4535L78.3481 32.1836L77.3776 32.7431C77.0191 32.3234 76.6344 31.9387 76.2235 31.589L76.7831 30.6185L73.5131 28.73L72.9536 29.6918C72.4465 29.5081 71.9131 29.3683 71.371 29.2721V28.153H67.594V29.2721C67.0519 29.3683 66.5186 29.5169 66.0115 29.6918L65.4519 28.73L62.182 30.6185L62.7415 31.589C62.3219 31.9475 61.9372 32.3322 61.5874 32.7431L60.6169 32.1836L58.7284 35.4535L59.6902 36.0131C59.5066 36.5202 59.3667 37.0535 59.2705 37.5956H58.1514V41.3726H59.2705C59.3667 41.9147 59.5153 42.448 59.6902 42.9551L58.7284 43.5147L60.6169 46.7846L61.5874 46.2251C61.9459 46.6448 62.3306 47.0295 62.7415 47.3792L62.182 48.3497L65.4519 50.2382L66.0115 49.2765C66.5186 49.4601 67.0519 49.6 67.594 49.6961V50.8153H71.371V49.6961C71.9131 49.6 72.4465 49.4513 72.9536 49.2765L73.5131 50.2382L76.7831 48.3497L76.2235 47.3792C76.6432 47.0207 77.0279 46.636 77.3776 46.2251L78.3481 46.7846L80.2366 43.5147L79.2749 42.9551C79.4585 42.448 79.5984 41.9147 79.6945 41.3726H80.8137V37.5956ZM75.6639 39.6852C75.559 42.9202 72.9273 45.5519 69.6924 45.6568C66.1251 45.7704 63.2049 42.8502 63.3186 39.283C63.4235 36.048 66.0552 33.4163 69.2902 33.3114C72.8574 33.1978 75.7776 36.118 75.6639 39.6852Z" fill="#F7F1EB"/>
<path d="M69.8755 47.624C65.2154 47.624 61.4209 43.8295 61.4209 39.1694C61.4209 34.5093 64.5072 31.4229 68.6078 30.8109C68.7127 30.7934 68.8089 30.8634 68.8264 30.977C68.8438 31.0819 68.7739 31.1781 68.6602 31.1956C64.752 31.7814 61.8056 35.2175 61.8056 39.1781C61.8056 43.1388 65.4253 47.2481 69.8668 47.2481C74.3083 47.2481 76.7477 44.765 77.6744 41.2153C77.7007 41.1104 77.8056 41.0491 77.9105 41.0754C78.0154 41.1016 78.0766 41.2065 78.0504 41.3114C77.0887 45.036 73.7225 47.6328 69.8668 47.6328L69.8755 47.624Z" fill="#ECF2DC"/>
<path d="M96.6907 104.839H94.0328C93.7967 103.545 93.4557 102.286 93.0273 101.071L95.3268 99.7421L90.8328 91.9607L88.5333 93.2897C87.6852 92.3017 86.7672 91.3749 85.7792 90.5356L87.1082 88.2361L79.3268 83.7421L77.9978 86.0416C76.7825 85.6131 75.5235 85.2722 74.2295 85.0361V82.3782H65.2503V85.0361C63.9563 85.2722 62.6973 85.6131 61.482 86.0416L60.153 83.7421L52.3716 88.2361L53.7005 90.5356C52.7126 91.3836 51.7945 92.3017 50.9464 93.2897L48.647 91.9607L44.153 99.7421L46.4524 101.071C46.024 102.286 45.6831 103.545 45.447 104.839H42.7891V113.827H45.447C45.6831 115.121 46.024 116.38 46.4524 117.596L44.153 118.925L48.647 126.706L50.9464 125.377C51.7945 126.365 52.7126 127.292 53.7005 128.131L52.3716 130.431L60.153 134.925L61.482 132.625C62.6973 133.054 63.9563 133.395 65.2503 133.631V136.289H74.2295V133.631C75.5235 133.395 76.7825 133.054 77.9978 132.625L79.3268 134.925L87.1082 130.431L85.7792 128.131C86.7672 127.283 87.6852 126.365 88.5333 125.377L90.8328 126.706L95.3268 118.925L93.0273 117.596C93.4557 116.38 93.7967 115.121 94.0328 113.827H96.6907V104.839ZM84.4328 109.814C84.188 117.508 77.9191 123.777 70.2251 124.031C61.7268 124.302 54.7847 117.36 55.0557 108.852C55.3005 101.159 61.5694 94.8897 69.2634 94.6361C77.7617 94.3651 84.7038 101.307 84.4328 109.814Z" fill="white"/>
<path d="M69.7445 129.18C58.8068 129.18 49.9062 120.28 49.9062 109.333C49.9062 98.3869 51.6287 99.9344 54.7587 96.3235C57.8538 92.7563 62.1292 90.4044 66.7718 89.7049C66.8767 89.6875 66.9729 89.7574 66.9904 89.8711C67.0079 89.976 66.9379 90.0722 66.8243 90.0896C57.3904 91.506 50.2822 99.7771 50.2822 109.333C50.2822 118.89 59.0079 128.796 69.7358 128.796C80.4636 128.796 86.3478 122.807 88.5685 114.238C88.5948 114.133 88.6997 114.072 88.8046 114.098C88.9095 114.125 88.9707 114.23 88.9445 114.334C86.68 123.078 78.7762 129.18 69.7358 129.18H69.7445Z" fill="#ECF2DC"/>
<path d="M7.93861 142.042L131.497 142.042V48.3497L7.93861 48.3497L7.93861 142.042Z" fill="#B7D599"/>
<path d="M127.615 130.658V52.2317L11.812 52.2317V130.658H127.615Z" fill="#F7F1EB"/>
<path d="M72.0861 135.97C72.0883 134.686 71.0489 133.643 69.7645 133.641C68.48 133.638 67.437 134.678 67.4347 135.962C67.4325 137.247 68.4719 138.29 69.7563 138.292C71.0408 138.294 72.0838 137.255 72.0861 135.97Z" fill="white"/>
<path d="M7.92969 144.577C7.92969 149.937 12.275 154.291 17.6346 154.291H147.147C152.507 154.291 156.852 149.945 156.852 144.577H7.92969Z" fill="#B7D599"/>
<path d="M40.4547 153.478C36.1093 153.478 32.5684 149.937 32.5684 145.591C32.5684 141.246 32.6558 145.399 32.7607 145.399C32.8656 145.399 32.9531 145.486 32.9531 145.591C32.9531 149.727 36.3192 153.093 40.4547 153.093C44.5902 153.093 40.647 153.18 40.647 153.285C40.647 153.39 40.5596 153.478 40.4547 153.478Z" fill="#ECF2DC"/>
<path d="M85.7441 146.876C85.7441 149.158 87.589 151.003 89.8709 151.003H104.393C106.675 151.003 108.52 149.158 108.52 146.876H85.7529H85.7441Z" fill="#ECF2DC"/>
<path d="M119.763 62.5748H54.373V64.8743H119.763V62.5748Z" fill="#B7D599"/>
<path d="M119.763 66.9639H54.373V92.3191H119.763V66.9639Z" fill="#B7D599"/>
<path d="M119.763 94.9857H54.373V98.8589H119.763V94.9857Z" fill="#B7D599"/>
<path d="M119.763 101.176H54.373V126.75H119.763V101.176Z" fill="#B7D599"/>
<path d="M46.1456 99.6371H19.374V126.417H46.1456V99.6371Z" fill="#B7D599"/>
<path d="M24.3926 120.288C30.1368 120.227 35.8898 120.157 41.6341 120.096C38.9937 111.641 37.3587 109.508 36.3008 109.639C34.7795 109.823 34.3773 114.737 32.2877 114.894C31.0286 114.99 30.5041 113.268 29.2363 113.224C28.1434 113.18 26.5347 114.378 24.3926 120.288Z" fill="white"/>
<path d="M29.7959 110.461C31.0272 110.461 32.0254 109.463 32.0254 108.232C32.0254 107 31.0272 106.002 29.7959 106.002C28.5646 106.002 27.5664 107 27.5664 108.232C27.5664 109.463 28.5646 110.461 29.7959 110.461Z" fill="white"/>
<path d="M46.1979 62.7147H19.5312V96.9005H46.1979V62.7147Z" fill="#B7D599"/>
<path d="M127.554 51.8732H11.7158V56.8043H127.554V51.8732Z" fill="#AAD3A3"/>
<path d="M15.7363 55.6883C16.3118 55.4499 16.5851 54.7902 16.3467 54.2147C16.1083 53.6392 15.4486 53.3659 14.8731 53.6043C14.2976 53.8426 14.0243 54.5024 14.2627 55.0779C14.501 55.6534 15.1608 55.9267 15.7363 55.6883Z" fill="#ECF2DC"/>
<path d="M19.2197 55.6372C19.7952 55.3988 20.0685 54.739 19.8301 54.1635C19.5917 53.588 18.932 53.3147 18.3565 53.5531C17.781 53.7915 17.5077 54.4513 17.7461 55.0268C17.9844 55.6022 18.6442 55.8755 19.2197 55.6372Z" fill="#ECF2DC"/>
<path d="M23.5865 54.8729C23.7298 54.2667 23.3546 53.6591 22.7484 53.5158C22.1422 53.3725 21.5346 53.7477 21.3913 54.3539C21.248 54.9601 21.6233 55.5677 22.2295 55.711C22.8357 55.8543 23.4432 55.479 23.5865 54.8729Z" fill="#ECF2DC"/>
<path d="M59.1129 119.458C66.973 124.975 49.0058 130.387 39.4932 131.69C-0.0521498 137.128 8.19265 102.671 25.2681 104.682C38.2517 106.212 35.1828 97.3989 44.7828 97.3989C54.3828 97.3989 53.6309 99.0951 56.1402 105.836C57.1456 108.538 52.0221 114.483 59.1129 119.458Z" fill="#363E44"/>
<path d="M24.298 118.4C23.5373 118.4 22.8204 118.26 22.1472 117.989C19.8302 117.036 18.9384 114.807 18.9035 114.71C18.8685 114.614 18.9122 114.501 19.0171 114.457C19.1133 114.422 19.227 114.466 19.2707 114.571C19.2707 114.588 20.1362 116.748 22.3046 117.631C23.8434 118.26 25.6619 118.112 27.7166 117.185C30.628 115.873 32.1931 113.976 33.5658 112.306C35.2444 110.269 36.6871 108.512 39.9745 108.581C40.0794 108.581 40.1668 108.669 40.1668 108.783C40.1668 108.887 40.0794 108.975 39.9658 108.975C36.8707 108.905 35.533 110.522 33.863 112.56C32.4641 114.265 30.8729 116.197 27.874 117.543C26.5974 118.12 25.3996 118.409 24.298 118.409V118.4Z" fill="#40484C"/>
<path d="M59.8557 124.887C59.8557 124.887 68.083 129.39 75.6371 144.324C83.3835 159.65 68.0917 157.561 68.0917 157.561C68.0917 157.561 59.165 144.822 53.5693 141.141C48.7781 137.985 59.8557 124.896 59.8557 124.896V124.887Z" fill="#E9BCAF"/>
<path d="M0.0527344 148.966C0.393718 148.109 4.50301 131.095 18.0287 124.887C18.0287 124.887 19.9522 139.375 19.9522 139.891C19.9522 140.407 13.2637 150.863 13.2637 150.863L0.0527344 148.966Z" fill="#E9BCAF"/>
<path d="M64.4286 126.654C64.4286 126.654 52.7477 118.461 38.4526 119.274C25.6701 120.009 13.2373 125.421 13.2373 125.421L19.3313 140.905L16.9969 157.561H61.9455L59.1652 141.875L64.4198 126.662L64.4286 126.654Z" fill="#76B375"/>
<path d="M50.3348 138.789C48.5949 138.168 41.7927 134.426 38.7938 136.463C35.7774 138.509 34.6583 142.382 34.8069 146.02C34.8156 146.028 34.8331 146.037 34.8419 146.055C35.3053 146.955 36.1359 148.223 37.5785 149.053C39.2309 149.998 40.1053 149.464 42.0025 150.199C45.2025 151.432 45.8408 154.247 46.9249 153.705C47.6768 153.338 47.3796 151.676 46.7151 150.234C46.0331 148.756 44.9665 148.083 45.1238 147.873C45.2987 147.637 46.2867 148.459 47.6156 149.368C48.2364 149.788 49.2156 151.991 50.3085 151.633C51.1829 151.353 50.7369 148.809 49.2331 147.13C48.1752 145.941 46.6364 145.74 46.7326 145.46C46.8025 145.25 47.7118 145.399 48.4637 145.757C49.6965 146.352 50.7282 148.59 51.7249 148.24C52.7042 147.899 52.2757 145.687 50.9905 144.052C49.9063 142.68 48.1927 142.531 48.3063 142.19C48.385 141.945 49.1719 141.858 50.7981 142.155C52.1533 142.409 54.6364 143.764 55.1085 142.382C55.5107 141.22 52.9402 139.733 50.3173 138.789H50.3348Z" fill="#E9BCAF"/>
<path d="M1.94059 143.666C1.94059 143.666 -4.31952 154.508 5.97119 158.049C16.2619 161.59 38.1198 145.983 38.1198 145.983L40.5067 135.894C27.2958 135.885 13.1493 138.464 1.94059 143.666Z" fill="#E9BCAF"/>
<path d="M8.19224 141.324C8.10481 141.324 8.03487 141.272 8.00864 141.185C7.98241 141.08 8.03487 140.975 8.13978 140.949L17.7835 138.194C17.8884 138.168 17.9933 138.221 18.0196 138.326C18.0458 138.43 17.9933 138.535 17.8884 138.562L8.2447 141.316C8.22722 141.316 8.20973 141.316 8.19224 141.316V141.324Z" fill="#363E44"/>
<path d="M94.3122 157.517C93.6128 159.012 92.109 159.965 90.4565 159.965H63.9385L75.8204 134.575H105.049L94.321 157.508L94.3122 157.517Z" fill="#363E44"/>
<path d="M46.5225 157.421C46.5225 158.837 47.6678 159.983 49.0842 159.983H73.5388L74.7367 157.421H46.5225Z" fill="#363E44"/>
<path d="M87.1331 147.473C87.9548 146.965 88.2095 145.888 87.702 145.066C87.1945 144.244 86.117 143.99 85.2954 144.497C84.4737 145.005 84.219 146.082 84.7265 146.904C85.2339 147.725 86.3114 147.98 87.1331 147.473Z" fill="#40484C"/>
<path d="M46.9336 108.686C45.6746 107.987 43.515 106.125 42.8156 107.392L34.6407 120.472C33.9413 121.731 38.1292 121.294 39.3883 121.993C40.6473 122.693 42.2385 122.23 42.938 120.971L47.9653 112.236C48.6648 110.977 48.2014 109.386 46.9424 108.686H46.9336Z" fill="#E9BCAF"/>
<path d="M38.9337 123.602C42.8304 123.602 45.9894 122.651 45.9894 121.478C45.9894 120.304 42.8304 119.353 38.9337 119.353C35.0369 119.353 31.8779 120.304 31.8779 121.478C31.8779 122.651 35.0369 123.602 38.9337 123.602Z" fill="#E9BCAF"/>
<path d="M48.184 118.059C45.7884 118.216 43.0605 112.096 43.0605 112.096L43.8387 104.804C45.6136 101.928 49.3819 101.036 52.2496 102.811C55.1261 104.586 56.0179 108.354 54.2431 111.222C54.2431 111.222 50.6146 117.893 48.1753 118.05L48.184 118.059Z" fill="#E9BCAF"/>
<path d="M52.8098 112.227C52.8098 112.227 53.3257 114.658 53.0022 115.016C52.6087 115.445 50.8076 114.728 50.8076 114.728C50.8076 114.728 52.8535 112.254 52.8185 112.227H52.8098Z" fill="#E9BCAF"/>
<path d="M48.2539 109.106C48.2539 109.106 49.4167 109.176 50.4659 109.823C50.6932 109.963 49.1632 111.493 49.0146 111.257C48.3588 110.234 48.2539 109.106 48.2539 109.106Z" fill="white"/>
<mask id="mask0_1238_30813" style="mask-type:luminance" maskUnits="userSpaceOnUse" x="48" y="109" width="5" height="5">
<path d="M48.2539 109.106C48.2539 109.106 49.9588 109.211 51.1042 110.321C52.2495 111.432 52.4069 113.137 52.4069 113.137C52.4069 113.137 50.702 113.032 49.5566 111.921C48.4113 110.811 48.2539 109.106 48.2539 109.106Z" fill="white"/>
</mask>
<g mask="url(#mask0_1238_30813)">
<path d="M51.5572 113.887C52.666 113.567 53.3055 112.408 52.9854 111.299C52.6654 110.191 51.5071 109.551 50.3983 109.871C49.2895 110.191 48.6501 111.35 48.9701 112.458C49.2901 113.567 50.4484 114.207 51.5572 113.887Z" fill="#363E44"/>
</g>
<path d="M49.4169 115.156C49.0147 115.156 48.6387 114.92 48.4639 114.553C48.2977 114.195 48.3415 113.757 48.595 113.451C48.665 113.364 48.7786 113.355 48.8661 113.416C48.9535 113.486 48.9622 113.6 48.901 113.687C48.7436 113.889 48.7087 114.16 48.8223 114.387C48.936 114.623 49.1721 114.772 49.4344 114.763C49.5393 114.763 49.6267 114.842 49.6267 114.955C49.6267 115.069 49.548 115.148 49.4344 115.148C49.4344 115.148 49.4256 115.148 49.4169 115.148V115.156Z" fill="#363E44"/>
<path d="M46.4093 117.552C46.3656 117.552 46.3219 117.534 46.2782 117.499C44.4509 115.873 42.8946 112.402 42.8334 112.262C42.7897 112.166 42.8334 112.052 42.9296 112.009C43.0257 111.965 43.1394 112.009 43.1831 112.105C43.2006 112.14 44.7744 115.637 46.5318 117.211C46.6104 117.281 46.6192 117.403 46.5492 117.482C46.5143 117.526 46.4618 117.543 46.4093 117.543V117.552Z" fill="#363E44"/>
<path d="M42.9556 108.695C44.5818 108.73 45.8146 107.567 46.1294 107.349C46.4354 107.139 46.7327 106.868 47.0474 106.483C48.3239 104.953 49.9064 105.338 51.4452 107.48C52.9928 109.622 55.9917 110.19 57.443 108.354C58.2299 107.366 58.2124 105.381 57.3119 104.324C56.6911 103.598 56.0441 103.764 54.9338 102.654C54.1818 101.902 54.2605 101.604 53.6922 101.263C52.7829 100.73 52.0223 101.141 50.8332 101.115C48.7348 101.08 48.4376 99.7334 46.6627 99.4973C44.4857 99.2088 41.8802 100.826 40.8747 103.099C40.1228 104.787 40.0791 107.366 41.3906 108.302C41.9239 108.678 42.5534 108.695 42.9469 108.704L42.9556 108.695Z" fill="#363E44"/>
<path d="M45.6164 109.296C46.3574 108.096 45.9855 106.523 44.7858 105.782C43.5862 105.041 42.0131 105.413 41.2722 106.613C40.5313 107.812 40.9032 109.386 42.1028 110.126C43.3024 110.867 44.8755 110.495 45.6164 109.296Z" fill="#E9BCAF"/>
<path d="M137.565 40.3934H99.165V57.2328H137.565V40.3934Z" fill="#54914A"/>
<path d="M131.838 72.8219C131.838 73.1979 131.751 86.505 131.751 86.505L139.209 86.1552L143.388 72.8219H131.838Z" fill="#E8C2B6"/>
<path d="M131.174 85.2547L139.865 85.141L144.691 100.774C144.691 100.774 130.37 105.049 130.343 104.769C130.317 104.49 131.174 85.2547 131.174 85.2547Z" fill="#76B375"/>
<path d="M137.39 89.8448H133.875C133.77 89.8448 133.683 89.7574 133.683 89.6524C133.683 89.5475 133.77 89.4601 133.875 89.4601H137.39C137.495 89.4601 137.582 89.5475 137.582 89.6524C137.582 89.7574 137.495 89.8448 137.39 89.8448Z" fill="#363E44"/>
<path d="M137.346 92.0306H133.875C133.77 92.0306 133.683 91.9431 133.683 91.8382C133.683 91.7333 133.77 91.6459 133.875 91.6459H137.346C137.451 91.6459 137.538 91.7333 137.538 91.8382C137.538 91.9431 137.451 92.0306 137.346 92.0306Z" fill="#363E44"/>
<path d="M130.343 75.0951H144.026L147.934 55.2394C148.913 50.2732 145.294 45.5869 140.24 45.2722L132.765 44.8175L130.343 75.0951Z" fill="#54914A"/>
<path d="M89.1543 48.9793L98.5357 58.0372L106.501 52.0919L98.833 41.5214L89.1543 48.9793Z" fill="#E8C2B6"/>
<path d="M96.8223 56.682L101.614 67.576L114.894 58.894L105.592 50.2557L96.8223 56.682Z" fill="#76B375"/>
<path d="M89.1544 51.0077L100.844 42.6317L93.8319 31.8252C91.0166 27.4798 85.0538 26.5443 81.0319 29.8055C76.9489 33.1279 76.7216 39.2831 80.5511 42.894L89.1544 50.999V51.0077Z" fill="#54914A"/>
<path d="M101.124 57.4688C101.062 57.4688 101.001 57.4339 100.958 57.3814C100.896 57.294 100.931 57.1716 101.019 57.1191L104.962 54.6186C105.049 54.5574 105.172 54.5923 105.224 54.6798C105.285 54.7672 105.25 54.8896 105.163 54.9421L101.22 57.4426C101.185 57.4601 101.15 57.4688 101.115 57.4688H101.124Z" fill="#363E44"/>
<path d="M101.98 58.7192C101.919 58.7192 101.858 58.6842 101.814 58.6318C101.753 58.5443 101.788 58.4219 101.875 58.3695L105.818 55.8689C105.906 55.8077 106.028 55.8427 106.081 55.9301C106.142 56.0176 106.107 56.14 106.019 56.1924L102.076 58.693C102.041 58.7105 102.006 58.7192 101.971 58.7192H101.98Z" fill="#363E44"/>
<path d="M101.675 42.3344C101.675 42.3344 117.133 42.4568 128.98 42.6316L126.392 18.212C126.392 18.212 114.624 13.8054 101.605 14.6448L101.667 42.3344H101.675Z" fill="white"/>
<path d="M123.061 16.9792L125.614 43.2874L147.576 43.7858C147.576 43.7858 148.503 34.929 140.521 26.0022C138.667 23.9301 136.42 22.2601 133.928 21.0448C131.157 19.6984 126.628 17.635 123.061 16.9792Z" fill="#363E44"/>
<path d="M105.924 14.4175L106.781 42.483C106.781 42.483 85.7012 48.1224 85.7012 34.0634C85.7012 28.0393 87.3449 23.5803 89.0061 20.6251C90.6498 17.7049 93.4738 15.6503 96.7613 15.0033C99.2006 14.5224 102.444 14.129 105.924 14.4175Z" fill="#363E44"/>
<path d="M96.8224 28.7738C96.805 28.7738 96.7875 28.7738 96.77 28.7738C96.6651 28.7475 96.6039 28.6426 96.6301 28.5377L97.5831 24.9617C97.6093 24.8568 97.7142 24.7956 97.8192 24.8219C97.9241 24.8481 97.9853 24.953 97.959 25.0579L97.006 28.6339C96.9798 28.7213 96.9011 28.7738 96.8224 28.7738Z" fill="#363E44"/>
<path d="M88.5512 33.0841C88.525 33.0841 88.4988 33.0841 88.4725 33.0666C88.3764 33.0229 88.3326 32.9092 88.3764 32.8131C88.3938 32.7693 90.431 28.2316 96.2714 28.7737C96.3764 28.7825 96.455 28.8786 96.4463 28.9836C96.4376 29.0885 96.3414 29.1672 96.2365 29.1584C90.6758 28.6426 88.7523 32.9267 88.7348 32.9704C88.6999 33.0404 88.6299 33.0841 88.56 33.0841H88.5512Z" fill="#363E44"/>
<path d="M127.694 35.436C126.628 34.7453 122.676 31.1431 120.341 32.0262C117.998 32.918 116.617 35.3224 116.136 37.7879C116.136 37.7879 116.144 37.8054 116.153 37.8142C116.319 38.4874 116.669 39.4754 117.508 40.2622C118.461 41.1628 119.135 40.9442 120.289 41.7398C122.238 43.0775 122.203 45.0622 123.025 44.8786C123.585 44.7475 123.655 43.5934 123.436 42.518C123.218 41.4163 122.614 40.7956 122.754 40.6819C122.912 40.5508 123.445 41.259 124.188 42.0808C124.538 42.4655 124.835 44.0917 125.631 44.0305C126.26 43.9781 126.365 42.2032 125.631 40.8393C125.115 39.8775 124.118 39.4928 124.223 39.318C124.302 39.1956 124.888 39.4316 125.334 39.7989C126.068 40.3934 126.391 42.0546 127.117 41.9846C127.825 41.9147 127.895 40.3672 127.301 39.0644C126.794 37.9715 125.675 37.5956 125.806 37.3857C125.902 37.2371 126.435 37.2983 127.476 37.7617C128.341 38.1464 129.784 39.4579 130.326 38.6098C130.781 37.8928 129.303 36.4852 127.694 35.436Z" fill="#E8C2B6"/>
<path d="M97.3121 30.4525C95.0301 30.7672 93.1066 32.3235 92.3547 34.5005C91.6378 36.5727 91.7077 39.1781 94.899 41.2065C101.22 45.2284 118.366 38.2951 118.366 38.2951L121.583 31.9213C113.714 30.024 105.015 29.3858 97.3121 30.4525Z" fill="#E8C2B6"/>
<path d="M151.73 44.6689C151.196 45.8142 150.042 46.5487 148.783 46.5487H128.49L137.574 27.1213H159.939L151.73 44.6689Z" fill="#B7D599"/>
<path d="M115.166 44.5902C115.166 45.6744 116.04 46.5487 117.124 46.5487H135.835L136.753 44.5902H115.166Z" fill="#B7D599"/>
<path d="M157.482 36.223C157.412 36.9486 157.29 37.5344 156.031 37.412C154.772 37.2896 152.84 36.5027 152.918 35.7771C152.988 35.0514 155.034 34.6492 156.293 34.7803C157.552 34.9027 157.561 35.4973 157.491 36.2317L157.482 36.223Z" fill="#E8C2B6"/>
<path d="M152.053 37.6481C152.123 36.9225 154.169 36.5203 155.428 36.6514C156.687 36.7738 156.695 37.3684 156.625 38.1028L152.053 37.6569V37.6481Z" fill="#E8C2B6"/>
<path d="M156.617 38.094C156.547 38.8197 156.425 39.4054 155.166 39.283C153.907 39.1606 151.974 38.3738 152.053 37.6481L156.626 38.094H156.617Z" fill="#E8C2B6"/>
<path d="M151.188 39.5191C151.257 38.7934 153.303 38.3912 154.562 38.5224C155.821 38.6448 155.83 39.2393 155.76 39.9738L151.188 39.5279V39.5191Z" fill="#E8C2B6"/>
<path d="M155.76 39.9651C155.69 40.6908 155.567 41.2765 154.308 41.1541C153.049 41.0317 151.117 40.2448 151.196 39.5192L155.768 39.9651H155.76Z" fill="#E8C2B6"/>
<path d="M151.292 41.2153C151.344 40.6383 152.971 40.3235 153.976 40.4197C154.982 40.5159 154.982 40.988 154.929 41.5738L151.301 41.2153H151.292Z" fill="#E8C2B6"/>
<path d="M154.93 41.5738C154.869 42.1509 154.781 42.6142 153.776 42.5181C152.77 42.4219 151.24 41.7924 151.302 41.2153L154.93 41.5738Z" fill="#E8C2B6"/>
<path d="M110.209 6.46998C110.725 7.16069 110.663 8.08747 110.069 8.52463C109.474 8.96178 108.583 8.75195 108.067 8.06124C107.551 7.37053 107.612 6.44375 108.207 6.00659C108.801 5.56944 109.693 5.77927 110.209 6.46998Z" fill="#E8C2B6"/>
<path d="M116.564 6.14649C116.118 6.88966 116.276 7.79895 116.914 8.17491C117.544 8.55086 118.418 8.2536 118.864 7.51043C119.31 6.76726 119.152 5.85797 118.514 5.48201C117.885 5.10606 117.01 5.40332 116.564 6.14649Z" fill="#E8C2B6"/>
<path d="M113.076 18.2732C111.528 18.2033 110.339 16.8918 110.409 15.353L110.671 7.41418L116.267 7.66774L116.005 15.6065C115.935 17.1541 114.623 18.3431 113.085 18.2732H113.076Z" fill="#E8C2B6"/>
<path d="M114.081 13.8142C109.596 14.0765 109.43 6.59233 109.43 6.59233L117.377 6.32129C117.377 6.32129 118.426 13.5606 114.081 13.8142Z" fill="#4E844D"/>
<path d="M113.599 5.50938C114.201 4.05504 113.51 2.38772 112.056 1.78531C110.602 1.1829 108.934 1.87354 108.332 3.32787C107.73 4.78221 108.42 6.44953 109.875 7.05193C111.329 7.65434 112.996 6.96372 113.599 5.50938Z" fill="#4E844D"/>
<path d="M117.299 6.88963C117.43 9.38144 115.813 8.06996 113.688 8.17488C111.564 8.2798 109.745 9.76614 109.614 7.27433C109.483 4.78253 111.1 3.35739 113.225 3.25247C115.349 3.14756 117.168 4.38909 117.299 6.88963Z" fill="#E8C2B6"/>
<path d="M117.291 8.29728C117.282 8.29728 117.264 8.29728 117.256 8.29728C117.151 8.2798 117.081 8.17488 117.098 8.06996C117.168 7.694 117.195 7.30056 117.168 6.90712C117.151 6.55739 117.098 6.20766 117.011 5.87542C116.985 5.77051 117.046 5.66559 117.151 5.63936C117.256 5.61313 117.361 5.67433 117.387 5.77925C117.483 6.13772 117.536 6.51368 117.562 6.88963C117.579 7.3093 117.562 7.73772 117.483 8.13991C117.466 8.23608 117.387 8.29728 117.291 8.29728Z" fill="#363E44"/>
<path d="M109.727 8.65572C109.64 8.65572 109.57 8.60326 109.543 8.51583C109.43 8.12239 109.36 7.71146 109.342 7.30053C109.325 6.91583 109.342 6.53113 109.404 6.15517C109.421 6.05025 109.517 5.98031 109.622 5.9978C109.727 6.01528 109.797 6.11146 109.78 6.21637C109.727 6.5661 109.701 6.92457 109.727 7.28304C109.745 7.66774 109.806 8.05244 109.911 8.41965C109.937 8.52457 109.884 8.62949 109.78 8.65572C109.762 8.65572 109.745 8.65572 109.727 8.65572Z" fill="#363E44"/>
<path d="M113.723 8.47219C113.662 8.47219 113.61 8.44596 113.575 8.3935C113.513 8.30607 113.522 8.19241 113.61 8.12246C113.688 8.06126 113.723 8.0088 113.723 7.98257C113.723 7.96508 113.706 7.93885 113.671 7.89514C113.618 7.82519 113.548 7.72902 113.522 7.58038C113.496 7.44924 113.505 7.30935 113.557 7.16946C113.592 7.07328 113.706 7.01208 113.802 7.04705C113.898 7.08202 113.959 7.19569 113.924 7.29186C113.898 7.36181 113.889 7.43175 113.907 7.49295C113.924 7.5629 113.951 7.60661 113.994 7.65907C114.055 7.73776 114.125 7.83394 114.117 7.98257C114.117 8.13995 114.02 8.28858 113.854 8.41973C113.819 8.44596 113.776 8.46345 113.741 8.46345L113.723 8.47219Z" fill="#363E44"/>
<path d="M113.12 9.57378C112.945 9.57378 112.691 9.5388 112.446 9.38143C112.289 9.27651 112.149 9.13662 112.053 8.9705C112 8.88307 112.027 8.76066 112.123 8.7082C112.219 8.65574 112.333 8.68197 112.385 8.77815C112.455 8.89181 112.543 8.98798 112.656 9.05793C112.866 9.18908 113.085 9.19782 113.19 9.18908C113.294 9.18908 113.391 9.25902 113.399 9.36394C113.399 9.46886 113.329 9.56503 113.225 9.57378C113.198 9.57378 113.163 9.57378 113.128 9.57378H113.12Z" fill="white"/>
<path d="M109.106 5.98036C109.106 5.98036 111.161 6.28637 113.286 3.77708C113.286 3.77708 117.238 8.95303 120.28 2.71041C120.28 2.71041 118.497 3.49729 117.544 2.25576C116.022 0.279809 112.368 -1.32019 110.925 2.33445L109.098 5.9891L109.106 5.98036Z" fill="#4E844D"/>
<path d="M115.979 6.26887H115.97C115.97 6.28636 115.952 6.31259 115.935 6.31259C115.909 6.33882 115.9 6.39128 115.891 6.41751C115.865 6.46997 115.778 6.42625 115.804 6.37379C115.821 6.33882 115.69 6.41751 115.638 6.435C115.454 6.51368 115.27 6.58363 115.087 6.65357C114.999 6.68855 114.912 6.71478 114.825 6.74101C114.755 6.76724 114.519 6.84592 114.501 6.83718C114.274 7.07325 114.151 7.28308 114.151 7.28308C114.151 7.28308 114.501 7.42297 114.956 7.42297C114.956 7.42297 114.956 7.41423 114.956 7.40549C114.956 7.34428 115.979 7.04702 116.014 7.09073C116.433 6.79347 116.669 6.39128 116.669 6.39128C116.669 6.39128 116.381 6.27762 115.996 6.26013L115.979 6.26887Z" fill="white"/>
<path d="M115.227 6.3651C114.921 6.47002 114.676 6.66237 114.501 6.84598C114.536 7.03833 114.632 7.22193 114.798 7.34434C114.842 7.37931 114.886 7.40554 114.929 7.43177C115.13 7.43177 115.349 7.40554 115.568 7.32685C115.725 7.27439 115.865 7.1957 115.987 7.09953C116.136 6.83723 116.127 6.50499 115.961 6.26018C115.734 6.25144 115.471 6.26018 115.218 6.35636L115.227 6.3651Z" fill="#363E44"/>
<path d="M110.934 6.59082H110.943C110.943 6.60831 110.96 6.63454 110.987 6.63454C111.013 6.66077 111.022 6.70448 111.048 6.73945C111.083 6.79191 111.161 6.73945 111.126 6.687C111.109 6.65202 111.24 6.71322 111.301 6.73071C111.494 6.79191 111.677 6.84437 111.87 6.89683C111.957 6.92306 112.053 6.94055 112.141 6.95803C112.211 6.97552 112.455 7.03672 112.473 7.02798C112.727 7.23781 112.866 7.43891 112.866 7.43891C112.866 7.43891 112.525 7.61377 112.088 7.65749C112.088 7.65749 112.088 7.64874 112.088 7.64C112.071 7.5788 111.03 7.38645 111.013 7.43891C110.567 7.18536 110.296 6.80066 110.296 6.80066C110.296 6.80066 110.576 6.66077 110.952 6.59956L110.934 6.59082Z" fill="white"/>
<path d="M111.694 6.60986C112.009 6.68855 112.272 6.85467 112.473 7.02079C112.455 7.21314 112.376 7.40549 112.228 7.54538C112.193 7.58036 112.149 7.61533 112.105 7.64156C111.904 7.66779 111.686 7.65905 111.458 7.60659C111.292 7.56287 111.152 7.50167 111.012 7.42298C110.838 7.16943 110.82 6.84593 110.951 6.58364C111.179 6.54866 111.432 6.53992 111.694 6.60986Z" fill="#363E44"/>
<path d="M107.655 78.1815C100.145 66.5793 84.643 63.2744 73.0495 70.7848C61.4473 78.2951 58.1424 93.7968 65.6528 105.39C73.1632 116.984 88.6648 120.297 100.258 112.787C111.852 105.277 115.165 89.7749 107.655 78.1815ZM98.8506 110.619C88.455 117.36 74.5533 114.387 67.8211 103.991C61.0801 93.5869 64.0528 79.7028 74.4484 72.9618C84.8528 66.2208 98.7457 69.1935 105.478 79.5891C112.219 89.9848 109.246 103.886 98.8506 110.619Z" fill="white"/>
<path d="M86.706 117.01C84.9398 117.01 83.1562 116.826 81.3901 116.442C74.8065 115.034 69.1584 111.143 65.495 105.495C57.9322 93.823 61.2808 78.1814 72.9442 70.6186C78.5923 66.9552 85.3333 65.7137 91.9256 67.1213C98.5092 68.529 104.157 72.4197 107.821 78.0678C111.484 83.7159 112.726 90.4569 111.318 97.0492C109.91 103.633 106.02 109.281 100.372 112.944C96.236 115.62 91.5234 117.01 86.706 117.01ZM86.6098 66.9465C81.871 66.9465 77.2284 68.3104 73.1628 70.9421C61.6743 78.3825 58.3781 93.788 65.8273 105.285C69.4295 110.855 74.9901 114.684 81.4775 116.066C87.965 117.447 94.601 116.232 100.17 112.621C105.74 109.019 109.561 103.458 110.951 96.9705C112.341 90.4831 111.117 83.847 107.506 78.2776C103.904 72.7082 98.3431 68.8787 91.8557 67.4973C90.1158 67.1213 88.3584 66.9377 86.6185 66.9377L86.6098 66.9465ZM86.706 114.422C85.1147 114.422 83.5234 114.256 81.9322 113.915C76.0218 112.656 70.9595 109.159 67.6721 104.087C60.8874 93.6131 63.8863 79.5804 74.3606 72.7869C84.8349 66.0022 98.8764 69.0011 105.661 79.4754C108.949 84.5465 110.059 90.5968 108.8 96.5071C107.541 102.418 104.052 107.48 98.9726 110.767C95.2655 113.172 91.0338 114.413 86.7147 114.413L86.706 114.422ZM86.6273 69.5432C82.483 69.5432 78.295 70.6973 74.5704 73.1104C64.2797 79.7815 61.3333 93.5782 67.9956 103.878C71.2218 108.861 76.2054 112.297 82.0196 113.539C87.8338 114.78 93.7792 113.687 98.7628 110.452C103.746 107.226 107.182 102.243 108.424 96.4284C109.666 90.6142 108.573 84.6689 105.338 79.6853C101.088 73.1192 93.9278 69.5432 86.636 69.5432H86.6273Z" fill="#363E44"/>
<path d="M116.406 137.215L115.978 137.495C114.937 138.168 113.547 137.88 112.874 136.839L104.647 124.179C104.358 123.733 104.481 123.13 104.935 122.833L107.488 121.172C107.934 120.883 108.537 121.005 108.835 121.46L117.062 134.12C117.735 135.161 117.447 136.551 116.406 137.224V137.215Z" fill="white"/>
<path d="M114.762 138.046C113.967 138.046 113.18 137.652 112.716 136.935L104.489 124.275C104.323 124.013 104.262 123.707 104.323 123.401C104.384 123.095 104.568 122.833 104.83 122.667L107.383 121.005C107.645 120.839 107.951 120.778 108.257 120.839C108.563 120.9 108.826 121.084 108.992 121.346L117.219 134.006C117.578 134.549 117.691 135.204 117.56 135.843C117.429 136.481 117.053 137.023 116.502 137.381L116.074 137.661C115.663 137.923 115.208 138.055 114.754 138.055L114.762 138.046ZM108.021 121.206C107.873 121.206 107.724 121.25 107.602 121.329L105.049 122.99C104.874 123.104 104.751 123.279 104.708 123.48C104.664 123.681 104.708 123.891 104.813 124.066L113.04 136.726C113.652 137.67 114.929 137.941 115.873 137.329L116.301 137.049C116.756 136.752 117.079 136.288 117.193 135.755C117.307 135.222 117.202 134.671 116.904 134.216L108.677 121.556C108.563 121.381 108.389 121.259 108.188 121.215C108.135 121.206 108.083 121.198 108.021 121.198V121.206Z" fill="#363E44"/>
<path d="M107.41 121.241L105.032 122.78L99.9521 114.99L102.322 113.451L107.41 121.241Z" fill="white"/>
<path d="M104.97 123.051L99.6807 114.938L102.382 113.18L107.672 121.294L104.97 123.051ZM100.214 115.051L105.084 122.518L107.139 121.18L102.269 113.714L100.214 115.051Z" fill="#363E44"/>
<path d="M110.409 126.863C110.347 126.863 110.286 126.837 110.251 126.776L107.488 122.623C107.427 122.535 107.453 122.413 107.541 122.352C107.628 122.291 107.751 122.317 107.812 122.404L110.575 126.557C110.636 126.645 110.61 126.767 110.522 126.828C110.487 126.846 110.452 126.863 110.417 126.863H110.409Z" fill="#363E44"/>
<path d="M108.966 127.816C108.905 127.816 108.844 127.79 108.809 127.729L106.046 123.576C105.985 123.488 106.011 123.366 106.099 123.305C106.186 123.244 106.308 123.27 106.37 123.357L109.132 127.51C109.194 127.598 109.167 127.72 109.08 127.781C109.045 127.799 109.01 127.816 108.975 127.816H108.966Z" fill="#363E44"/>
<path d="M75.1123 107.165L75.7418 106.326C76.2052 106.562 76.6861 106.745 77.1669 106.903L77.0358 107.943L80.5505 108.372L80.6817 107.331C81.1975 107.296 81.7046 107.226 82.203 107.121L82.6139 108.083L85.8751 106.702L85.4642 105.74C85.8839 105.46 86.2948 105.145 86.6708 104.796L87.5101 105.425L89.6434 102.601L88.8041 101.972C89.0402 101.508 89.2238 101.027 89.3811 100.546L90.4216 100.678L90.85 97.1629L89.8096 97.0317C89.7746 96.5159 89.7046 96.0088 89.5997 95.5104L90.5615 95.0995L89.1801 91.8383L88.2183 92.2492C87.9385 91.8295 87.6238 91.4186 87.274 91.0426L87.9036 90.2033L85.0795 88.07L84.45 88.9093C83.9866 88.6732 83.5057 88.4896 83.0249 88.3323L83.156 87.2918L79.6413 86.8634L79.5101 87.9038C78.9943 87.9388 78.4872 88.0088 77.9888 88.1137L77.5779 87.1519L74.3167 88.5333L74.7276 89.4951C74.3079 89.7749 73.897 90.0896 73.521 90.4394L72.6817 89.8098L70.5484 92.6339L71.3877 93.2634C71.1516 93.7268 70.968 94.2077 70.8107 94.6885L69.7702 94.5574L69.3418 98.0721L70.3822 98.2033C70.4172 98.7191 70.4872 99.2262 70.5921 99.7246L69.6303 100.136L71.0117 103.397L71.9735 102.986C72.2533 103.405 72.568 103.816 72.9178 104.192L72.2882 105.032L75.1123 107.165ZM75.226 93.6918C77.2806 91.1388 81.0139 90.6142 83.6893 92.5027C86.6445 94.5836 87.2303 98.7279 84.9571 101.543C82.9025 104.096 79.1691 104.621 76.4937 102.732C73.5385 100.651 72.9527 96.5071 75.226 93.6918Z" fill="#54914A"/>
<path d="M80.0872 105.556C79.073 105.556 78.05 105.364 77.0621 104.953C76.9659 104.909 76.9134 104.796 76.9571 104.699C77.0009 104.603 77.1145 104.551 77.2107 104.595C80.3845 105.906 84.0478 104.901 86.12 102.155C87.3353 100.546 87.8511 98.553 87.5713 96.5596C87.2916 94.5661 86.2511 92.7913 84.6336 91.576C81.6697 89.3465 77.4468 89.6175 74.8063 92.2055C74.7276 92.2842 74.6052 92.2754 74.5353 92.2055C74.4566 92.1268 74.4653 92.0044 74.5353 91.9344C77.3156 89.2066 81.7571 88.9268 84.8697 91.2699C86.5659 92.5465 87.6588 94.4087 87.956 96.5071C88.2533 98.6055 87.7112 100.695 86.4347 102.391C84.8959 104.428 82.5265 105.556 80.0872 105.556Z" fill="#776E42"/>
<path d="M91.0859 90.2645L91.4007 89.5738C91.7679 89.6612 92.1264 89.7224 92.4936 89.7574L92.5723 90.5093L95.1165 90.2558L95.0378 89.5039C95.3963 89.3989 95.7373 89.2678 96.0783 89.1104L96.5242 89.7224L98.5963 88.2273L98.1591 87.6153C98.4127 87.353 98.6488 87.0645 98.8586 86.7585L99.5493 87.0733L100.598 84.7388L99.9078 84.4241C99.9952 84.0569 100.056 83.6984 100.091 83.3312L100.843 83.2525L100.59 80.7082L99.8378 80.7869C99.7329 80.4284 99.6018 80.0875 99.4444 79.7465L100.056 79.3006L98.5613 77.2284L97.9493 77.6656C97.687 77.412 97.3985 77.176 97.0925 76.9661L97.4072 76.2754L95.0728 75.2263L94.7581 75.917C94.3908 75.8295 94.0324 75.7683 93.6652 75.7334L93.5865 74.9814L91.0422 75.235L91.1209 75.9869C90.7624 76.0918 90.4214 76.223 90.0805 76.3804L89.6346 75.7683L87.5624 77.2634L87.9996 77.8754C87.746 78.1377 87.51 78.4263 87.3001 78.7323L86.6094 78.4175L85.5602 80.7519L86.2509 81.0667C86.1635 81.4339 86.1023 81.7924 86.0673 82.1596L85.3154 82.2383L85.569 84.7825L86.3209 84.7038C86.4258 85.0623 86.557 85.4033 86.7143 85.7443L86.1023 86.1902L87.5974 88.2623L88.2094 87.8252C88.4717 88.0787 88.7602 88.3148 89.0663 88.5246L88.7515 89.2153L91.0859 90.2645ZM89.0225 80.7519C90.063 78.6273 92.6072 77.6656 94.793 78.5661C97.2061 79.5629 98.2728 82.3869 97.1275 84.7301C96.087 86.8547 93.5428 87.8164 91.357 86.9159C88.9438 85.9191 87.8772 83.0951 89.0225 80.7519Z" fill="#9E9569"/>
<path d="M93.0795 88.5333C92.756 88.5333 92.4325 88.5071 92.1002 88.4459C91.9953 88.4284 91.9254 88.3322 91.9429 88.2273C91.9603 88.1224 92.0565 88.0524 92.1614 88.0699C94.5833 88.4809 96.9789 87.2044 97.9931 84.9661C98.5877 83.6546 98.6314 82.1858 98.1243 80.8306C97.6172 79.4841 96.6117 78.4087 95.2915 77.8142C92.8784 76.7213 89.9669 77.5781 88.533 79.8076C88.4718 79.8951 88.3582 79.9213 88.2707 79.8688C88.1833 79.8076 88.1571 79.694 88.2095 79.6065C89.7483 77.2197 92.8609 76.3016 95.4489 77.4732C96.8565 78.1115 97.9319 79.2568 98.4828 80.6994C99.0336 82.1421 98.9811 83.7158 98.3429 85.1235C97.3986 87.2218 95.3177 88.5333 93.0707 88.5333H93.0795Z" fill="#54914A"/>
<path d="M30.1299 92.7738L39.0129 95.3617L31.284 82.5093L30.1299 92.7738Z" fill="white"/>
<path d="M36.3772 92.8196C39.7677 89.4291 39.7677 83.932 36.3772 80.5415C32.9867 77.1509 27.4896 77.1509 24.099 80.5415C20.7085 83.932 20.7085 89.4291 24.099 92.8196C27.4896 96.2101 32.9867 96.2101 36.3772 92.8196Z" fill="white"/>
<path d="M35.0165 85.0623C34.658 83.9082 33.5826 83.0688 32.3148 83.0688C31.493 83.0688 30.7586 83.4186 30.234 83.9781C29.7181 83.4186 28.975 83.0688 28.1531 83.0688C26.8853 83.0688 25.8099 83.9082 25.4515 85.0623C25.3728 85.3246 25.3203 85.6131 25.3203 85.9016C25.3203 87.4667 27.1739 90.1246 30.234 91.2787C33.2941 90.1246 35.1476 87.4667 35.1476 85.9016C35.1476 84.3366 35.1039 85.3246 35.0165 85.0623Z" fill="#D87355"/>
<path d="M53.6484 3.27002H83.6375L83.6463 20.3017L87.0036 22.2165L83.6375 22.2864H80.0703H74.737H53.6484V3.27002Z" fill="white"/>
<path d="M87.2042 22.8197L51.8818 22.4787V3.07764H82.2556V19.9082L87.2042 22.8197ZM52.2665 22.094L85.7616 22.4175L81.8709 20.1268V3.46234H52.2665V22.094Z" fill="#363E44"/>
<path d="M54.6625 9.35522L79.4844 9.35522V7.35304L54.6625 7.35304V9.35522Z" fill="#ECF2DC"/>
<path d="M59.5587 14.295L79.4844 14.295V12.2929L59.5587 12.2929V14.295Z" fill="#ECF2DC"/>
<path d="M54.6621 19.2438L79.5889 19.2438V17.2416L54.6621 17.2416V19.2438Z" fill="#ECF2DC"/>
<path d="M152.227 134.75C150.067 140.608 146.352 145.014 146.352 145.014C146.352 145.014 146.124 139.917 148.275 134.059C150.435 128.201 154.151 123.795 154.151 123.795C154.151 123.795 154.378 128.892 152.227 134.75Z" fill="#776E42"/>
<path d="M148.625 139.375C148.599 139.375 148.581 139.375 148.555 139.366C148.459 139.331 148.407 139.217 148.442 139.121L152.761 127.292C152.796 127.196 152.909 127.143 153.005 127.178C153.102 127.213 153.154 127.327 153.119 127.423L148.8 139.252C148.774 139.331 148.695 139.375 148.616 139.375H148.625Z" fill="#54914A"/>
<path d="M146.728 145.443C147.156 144.131 148.634 139.279 148.948 133.456C149.316 126.627 147.943 121.058 147.943 121.058C147.943 121.058 145.976 126.566 145.608 133.395C145.294 139.226 146.255 144.14 146.535 145.451H146.728V145.443Z" fill="#54914A"/>
<path d="M146.973 137.207C146.973 137.207 146.973 137.207 146.964 137.207C146.859 137.207 146.78 137.11 146.78 137.006L147.593 123.226C147.593 123.121 147.69 123.034 147.794 123.043C147.899 123.043 147.978 123.139 147.978 123.244L147.165 137.023C147.165 137.128 147.078 137.207 146.973 137.207Z" fill="#776E42"/>
<path d="M146.063 145.416H146.605C146.763 143.659 146.999 138.999 145.74 133.709C144.14 126.968 140.721 121.749 140.721 121.749C140.721 121.749 139.908 127.458 141.508 134.199C142.75 139.427 145.084 143.738 146.063 145.408V145.416Z" fill="#776E42"/>
<path d="M144.944 138.492C144.856 138.492 144.778 138.431 144.76 138.343L141.254 124.774C141.228 124.669 141.289 124.564 141.394 124.538C141.499 124.511 141.604 124.573 141.63 124.678L145.136 138.247C145.162 138.352 145.101 138.457 144.996 138.483C144.979 138.483 144.961 138.483 144.944 138.483V138.492Z" fill="#54914A"/>
<path d="M153.722 137.889H140.231L142.408 145.784H151.545L153.722 137.889Z" fill="#76B375"/>
</g>
<defs>
<clipPath id="clip0_1238_30813">
<rect width="160" height="160" fill="white"/>
</clipPath>
</defs>
</svg>
