<svg width="18" height="18" viewBox="0 0 18 18" fill="none" xmlns="http://www.w3.org/2000/svg">
<mask id="mask0_6451_99254" style="mask-type:alpha" maskUnits="userSpaceOnUse" x="2" y="2" width="14" height="14">
<path d="M14.4164 11.4512L12.5114 11.2337C12.0539 11.1812 11.6039 11.3387 11.2814 11.6612L9.90143 13.0412C7.77893 11.9612 6.03893 10.2287 4.95893 8.09867L6.34643 6.71117C6.66893 6.38867 6.82643 5.93867 6.77393 5.48117L6.55643 3.59117C6.46643 2.83367 5.82893 2.26367 5.06393 2.26367H3.76643C2.91893 2.26367 2.21393 2.96867 2.26643 3.81617C2.66393 10.2212 7.78643 15.3362 14.1839 15.7337C15.0314 15.7862 15.7364 15.0812 15.7364 14.2337V12.9362C15.7439 12.1787 15.1739 11.5412 14.4164 11.4512Z" fill="black"/>
</mask>
<g mask="url(#mask0_6451_99254)">
<rect width="18" height="18" fill="#8B9BAA"/>
</g>
</svg>
