<svg width="18" height="18" viewBox="0 0 18 18" fill="none" xmlns="http://www.w3.org/2000/svg">
<g id="viber">
<path id="border" fill-rule="evenodd" clip-rule="evenodd" d="M16.875 8.65038C16.875 3.49143 15.0577 1.125 9 1.125C2.94231 1.125 1.125 3.49143 1.125 8.65038C1.125 12.3218 2.04541 14.579 4.75962 15.5753V17.3123C4.75962 17.9517 5.56182 18.2437 5.97737 17.7556L7.37796 16.1106C7.88135 16.1542 8.42133 16.1758 9 16.1758C15.0577 16.1758 16.875 13.8093 16.875 8.65038ZM7.71258 14.924C8.11414 14.9559 8.5428 14.9717 9 14.9717C14.1257 14.9717 15.6635 12.9839 15.6635 8.65038C15.6635 4.31687 14.1257 2.32906 9 2.32906C3.87426 2.32906 2.33654 4.31687 2.33654 8.65038C2.33654 11.7135 3.1048 13.6046 5.36538 14.4501V17.0234C5.36538 17.2478 5.64686 17.3502 5.79267 17.179L7.71258 14.924Z" fill="#BFC8D0"/>
<path id="bg" d="M9 14.5433C8.53686 14.5433 8.10264 14.5272 7.69586 14.4948L5.75101 16.7878C5.60331 16.962 5.31818 16.8578 5.31818 16.6296V14.013C3.02824 13.1531 2.25 11.2301 2.25 8.11541C2.25 3.70882 3.80769 1.6875 9 1.6875C14.1923 1.6875 15.75 3.70882 15.75 8.11541C15.75 12.522 14.1923 14.5433 9 14.5433Z" fill="#9179EE"/>
<path id="border_2" fill-rule="evenodd" clip-rule="evenodd" d="M16.875 8.08788C16.875 2.92893 15.0577 0.5625 9 0.5625C2.94231 0.5625 1.125 2.92893 1.125 8.08788C1.125 11.7593 2.04541 14.0165 4.75962 15.0128V16.7498C4.75962 17.3892 5.56182 17.6812 5.97737 17.1931L7.37796 15.5481C7.88135 15.5917 8.42133 15.6133 9 15.6133C15.0577 15.6133 16.875 13.2468 16.875 8.08788ZM7.71258 14.3615C8.11414 14.3934 8.5428 14.4092 9 14.4092C14.1257 14.4092 15.6635 12.4214 15.6635 8.08788C15.6635 3.75437 14.1257 1.76656 9 1.76656C3.87426 1.76656 2.33654 3.75437 2.33654 8.08788C2.33654 11.151 3.1048 13.0421 5.36538 13.8876V16.4609C5.36538 16.6853 5.64686 16.7877 5.79267 16.6165L7.71258 14.3615Z" fill="white"/>
<path id="phone" d="M5.45054 4.77226L5.2328 4.32217L5.45054 4.77226ZM5.45054 4.77226C5.45902 4.76816 5.47679 4.7611 5.50148 4.75517C5.52576 4.74934 5.54964 4.74632 5.56988 4.746C5.57643 4.74589 5.58185 4.74608 5.58618 4.74638C5.79022 4.92814 6.09164 5.23152 6.29399 5.48781C6.40567 5.62925 6.54141 5.80995 6.6545 5.96696C6.71106 6.04549 6.76014 6.11557 6.79681 6.17025C6.81337 6.19494 6.8247 6.21255 6.83203 6.22414C6.83385 6.23913 6.83462 6.25754 6.83311 6.27618C6.83136 6.2977 6.82722 6.31202 6.82403 6.31962C6.82259 6.32306 6.82157 6.32459 6.82137 6.32488L6.82116 6.32512C6.67356 6.46029 6.46615 6.5905 6.38708 6.63429L6.34643 6.6568L6.31062 6.68642C6.10537 6.85621 5.8076 7.31096 6.06741 7.86626C6.24082 8.23689 6.63652 9.0161 7.34083 9.60773C8.01904 10.1774 8.74755 10.4886 9.24131 10.5927L9.29233 10.6035H9.32621L9.33242 10.6044L9.35671 10.6086L9.35672 10.6086C9.36112 10.6094 9.3659 10.6103 9.37105 10.6112C9.51681 10.6373 9.95599 10.716 10.3204 10.3529C10.4954 10.1785 10.6556 9.99777 10.7366 9.90256C10.7381 9.90155 10.7399 9.90041 10.7419 9.89916C10.7545 9.89145 10.7716 9.8831 10.7916 9.87686C10.8281 9.86543 10.8742 9.86045 10.9339 9.88063C11.2937 10.0023 11.7365 10.2844 11.9622 10.4363C12.1284 10.5482 12.504 10.817 12.6878 10.9496C12.6874 10.9505 12.6869 10.9515 12.6865 10.9525C12.6366 11.0593 12.4563 11.3084 12.1967 11.5335C11.9361 11.7595 11.7022 11.8684 11.5491 11.8747C11.5432 11.8736 11.5147 11.8695 11.455 11.856C11.375 11.8381 11.2638 11.8092 11.1256 11.7676C10.8497 11.6846 10.4766 11.5543 10.0444 11.3683C9.17844 10.9958 8.09003 10.4065 7.07281 9.54062C6.44104 9.00287 5.83805 8.25248 5.36476 7.54273C4.88431 6.82225 4.57579 6.20162 4.49734 5.93712L4.48638 5.90019L4.4699 5.86538C4.46055 5.84561 4.43794 5.77805 4.43751 5.70031C4.43711 5.62935 4.45445 5.58038 4.48494 5.54385C4.71115 5.27277 4.93781 5.02031 5.45054 4.77226Z" fill="white" stroke="white" stroke-linecap="round"/>
</g>
</svg>
