<svg width="18" height="18" viewBox="0 0 18 18" fill="none" xmlns="http://www.w3.org/2000/svg">
<g id="whatsapp">
<path id="border" fill-rule="evenodd" clip-rule="evenodd" d="M9 17.4375C13.3492 17.4375 16.875 13.9117 16.875 9.5625C16.875 5.21326 13.3492 1.6875 9 1.6875C4.65076 1.6875 1.125 5.21326 1.125 9.5625C1.125 10.9749 1.49681 12.3004 2.14789 13.4465L1.125 17.4375L5.23961 16.4834C6.35702 17.0918 7.63814 17.4375 9 17.4375ZM9 16.226C12.6801 16.226 15.6635 13.2426 15.6635 9.5625C15.6635 5.88237 12.6801 2.89904 9 2.89904C5.31987 2.89904 2.33654 5.88237 2.33654 9.5625C2.33654 10.9834 2.78128 12.3004 3.53916 13.382L2.94231 15.6202L5.21996 15.0508C6.29402 15.7919 7.59632 16.226 9 16.226Z" fill="#BFC8D0"/>
<path id="bg" d="M15.75 9C15.75 12.7279 12.7279 15.75 9 15.75C7.57809 15.75 6.25887 15.3103 5.17087 14.5596L2.86364 15.1364L3.46824 12.8691C2.70052 11.7735 2.25 10.4394 2.25 9C2.25 5.27208 5.27208 2.25 9 2.25C12.7279 2.25 15.75 5.27208 15.75 9Z" fill="url(#paint0_linear_6451_94768)"/>
<path id="border_2" fill-rule="evenodd" clip-rule="evenodd" d="M9 16.875C13.3492 16.875 16.875 13.3492 16.875 9C16.875 4.65076 13.3492 1.125 9 1.125C4.65076 1.125 1.125 4.65076 1.125 9C1.125 10.4124 1.49681 11.7379 2.14789 12.884L1.125 16.875L5.23961 15.9209C6.35702 16.5293 7.63814 16.875 9 16.875ZM9 15.6635C12.6801 15.6635 15.6635 12.6801 15.6635 9C15.6635 5.31987 12.6801 2.33654 9 2.33654C5.31987 2.33654 2.33654 5.31987 2.33654 9C2.33654 10.4209 2.78128 11.7379 3.53916 12.8195L2.94231 15.0577L5.21996 14.4883C6.29402 15.2294 7.59632 15.6635 9 15.6635Z" fill="white"/>
<path id="phone" d="M7.03126 5.34378C6.84403 4.9677 6.5568 5.001 6.26663 5.001C5.74805 5.001 4.93945 5.62216 4.93945 6.77819C4.93945 7.72562 5.35694 8.76273 6.76373 10.3142C8.1214 11.8114 9.90528 12.5859 11.3862 12.5596C12.8672 12.5332 13.1719 11.2588 13.1719 10.8284C13.1719 10.6376 13.0535 10.5425 12.972 10.5166C12.4673 10.2744 11.5365 9.82311 11.3247 9.73832C11.1129 9.65353 11.0023 9.76821 10.9336 9.8306C10.7415 10.0136 10.3608 10.553 10.2305 10.6744C10.1001 10.7957 9.90578 10.7343 9.82491 10.6884C9.52731 10.569 8.7204 10.2101 8.0772 9.58657C7.28174 8.81547 7.23506 8.55017 7.08519 8.31402C6.9653 8.12509 7.05328 8.00918 7.09718 7.95852C7.26857 7.76077 7.50522 7.45546 7.61134 7.30374C7.71747 7.15202 7.63322 6.92166 7.58266 6.77819C7.36525 6.16116 7.18105 5.64464 7.03126 5.34378Z" fill="white"/>
</g>
<defs>
<linearGradient id="paint0_linear_6451_94768" x1="14.9062" y1="3.9375" x2="2.25" y2="15.75" gradientUnits="userSpaceOnUse">
<stop stop-color="#5BD066"/>
<stop offset="1" stop-color="#27B43E"/>
</linearGradient>
</defs>
</svg>
