<svg xmlns="http://www.w3.org/2000/svg" viewBox="0 0 41.62 41.62"><defs><style>.cls-1{fill:#1aa871;}</style></defs><title>calc</title><g id="Слой_2" data-name="Слой 2"><g id="Слой_2-2" data-name="Слой 2"><g id="_Группа_" data-name="&lt;Группа&gt;"><path id="_Составной_контур_" data-name="&lt;Составной контур&gt;" class="cls-1" d="M35.58,0H6A6,6,0,0,0,0,6V35.58a6,6,0,0,0,6,6H35.58a6,6,0,0,0,6-6V6a6,6,0,0,0-6-6Zm4.7,35.58a4.7,4.7,0,0,1-4.7,4.7H6a4.7,4.7,0,0,1-4.7-4.7V6A4.7,4.7,0,0,1,6,1.34H35.58A4.7,4.7,0,0,1,40.28,6Zm0,0"/><path id="_Составной_контур_2" data-name="&lt;Составной контур&gt;" class="cls-1" d="M38.26,20.14H21.48V3.36a.67.67,0,0,0-1.34,0V20.14H3.36a.67.67,0,0,0,0,1.34H20.14V38.26a.67.67,0,0,0,1.34,0V21.48H38.26a.67.67,0,0,0,0-1.34Zm0,0"/><path id="_Составной_контур_3" data-name="&lt;Составной контур&gt;" class="cls-1" d="M5.37,11.41h4.7v4.7a.67.67,0,0,0,1.34,0v-4.7h4.7a.67.67,0,0,0,0-1.34h-4.7V5.37a.67.67,0,0,0-1.34,0v4.7H5.37a.67.67,0,0,0,0,1.34Zm0,0"/><path id="_Составной_контур_4" data-name="&lt;Составной контур&gt;" class="cls-1" d="M25.51,11.41H36.25a.67.67,0,0,0,0-1.34H25.51a.67.67,0,0,0,0,1.34Zm0,0"/><path id="_Составной_контур_5" data-name="&lt;Составной контур&gt;" class="cls-1" d="M36.25,30.21H25.51a.67.67,0,0,0,0,1.34H36.25a.67.67,0,0,0,0-1.34Zm0,0"/><path id="_Составной_контур_6" data-name="&lt;Составной контур&gt;" class="cls-1" d="M15.24,26.38a.67.67,0,0,0-.95,0l-3.55,3.55L7.19,26.38a.67.67,0,0,0-.95.95l3.55,3.55L6.24,34.43a.67.67,0,1,0,.95.95l3.55-3.55,3.55,3.55a.67.67,0,1,0,.95-.95l-3.55-3.55,3.55-3.55a.67.67,0,0,0,0-.95Zm0,0"/><path id="_Составной_контур_7" data-name="&lt;Составной контур&gt;" class="cls-1" d="M32.89,26.85a2,2,0,1,0-2,2,2,2,0,0,0,2-2Zm-2.69,0a.67.67,0,1,1,.67.67.67.67,0,0,1-.67-.67Zm0,0"/><path id="_Составной_контур_8" data-name="&lt;Составной контур&gt;" class="cls-1" d="M30.88,32.89a2,2,0,1,0,2,2,2,2,0,0,0-2-2Zm0,2.68a.67.67,0,1,1,.67-.67.67.67,0,0,1-.67.67Zm0,0"/></g></g></g></svg>