<svg xmlns="http://www.w3.org/2000/svg" viewBox="0 0 17.94 19.78"><defs><style>.cls-1{fill:#333;stroke:#fff;stroke-miterlimit:10;stroke-width:0.25px;}</style></defs><title>clip</title><g id="Слой_2" data-name="Слой 2"><g id="Слой_2-2" data-name="Слой 2"><g id="_Группа_" data-name="&lt;Группа&gt;"><path id="_Составной_контур_" data-name="&lt;Составной контур&gt;" class="cls-1" d="M8.27,8.83a.69.69,0,0,0-1-1L3.65,11.51a3.25,3.25,0,0,0,4.6,4.6l8.23-8.23a4.54,4.54,0,1,0-6.43-6.42L1.84,9.67A5.85,5.85,0,0,0,6,19.65a5.76,5.76,0,0,0,4.13-1.71l3.64-3.65a.69.69,0,1,0-1-1L9.13,17a4.47,4.47,0,1,1-6.32-6.32L11,2.43a3.12,3.12,0,0,1,2.23-.92,3.17,3.17,0,0,1,2.23.92,3.13,3.13,0,0,1,.92,2.23,3.17,3.17,0,0,1-.92,2.23L7.26,15.13a1.9,1.9,0,0,1-2.65,0,1.87,1.87,0,0,1,0-2.65Zm0,0"/></g></g></g></svg>