<svg xmlns="http://www.w3.org/2000/svg" viewBox="0 0 24.13 23.81"><defs><style>.cls-1{fill:#fff}</style></defs><title>delivery-3</title><g id="Слой_2" data-name="Слой 2"><g id="Слой_2-2" data-name="Слой 2"><g id="_Группа_" data-name="&amp;lt;Группа&amp;gt;"><path id="_Контур_" data-name="&amp;lt;Контур&amp;gt;" class="cls-1" d="M12.24 0a7.35 7.35 0 0 1 .64.51q2 1.93 3.92 3.89a2 2 0 0 1 .26.45 2.25 2.25 0 0 1-.48.12h-1.51c-.51 0-.72.2-.72.73v3c0 .52-.19.71-.71.71h-3.1c-.45 0-.65-.21-.65-.66v-3c0-.49-.2-.7-.69-.71S8 5 7.45 5a1.27 1.27 0 0 1-.36-.13 1.16 1.16 0 0 1 .16-.36Q9.39 2.35 11.54.23a2.2 2.2 0 0 1 .34-.23z"/><path id="_Контур_2" data-name="&amp;lt;Контур&amp;gt;" class="cls-1" d="M11.93 23.81c-.19-.16-.39-.31-.57-.48L7.3 19.25a.82.82 0 0 1-.11-.25.76.76 0 0 1 .25-.1h1.71c.55 0 .76-.2.76-.75v-3.2c0-.53.19-.72.72-.72h3c.54 0 .74.2.74.74v3.18c0 .55.2.76.75.76h1.48a1.32 1.32 0 0 1 .4.09 1.69 1.69 0 0 1-.19.29l-4 4.06a6.07 6.07 0 0 1-.54.43z"/><path id="_Контур_3" data-name="&amp;lt;Контур&amp;gt;" class="cls-1" d="M0 11.72c.14-.17.27-.35.43-.51l4.08-4A1.68 1.68 0 0 1 4.89 7a1.59 1.59 0 0 1 .11.42v8.91a1.51 1.51 0 0 1 0 .18c0 .26-.17.33-.39.18a1.3 1.3 0 0 1-.17-.16l-4.2-4.25A3.69 3.69 0 0 1 0 12v-.28z"/><path id="_Контур_4" data-name="&amp;lt;Контур&amp;gt;" class="cls-1" d="M19.24 11.83v-4.3a1 1 0 0 1 0-.23c0-.08.05-.19.11-.21s.16 0 .22.09l4.33 4.22a.54.54 0 0 1 0 .9l-4.22 4.17a1.7 1.7 0 0 1-.29.19 1.18 1.18 0 0 1-.13-.37c-.03-1.49-.02-2.97-.02-4.46z"/></g></g></g></svg>