<svg xmlns="http://www.w3.org/2000/svg" viewBox="0 0 28.04 22.96"><defs><style>.cls-1{fill:#fff;stroke:#fff;stroke-miterlimit:10;stroke-width:0.25px;}</style></defs><title>delivery-1</title><g id="Слой_2" data-name="Слой 2"><g id="Слой_2-2" data-name="Слой 2"><g id="_Группа_" data-name="&lt;Группа&gt;"><path id="_Составной_контур_" data-name="&lt;Составной контур&gt;" class="cls-1" d="M9.39,21.45h-7v-9l.19-.14c.19-.14,4.08-3.11,6.3-1.44a4.37,4.37,0,0,0,2.64.83h1.81a4.06,4.06,0,0,1,3.34,1.71A1.42,1.42,0,0,1,17,14.91a7.32,7.32,0,0,0,3-.42l4-2.46c2-1.07,2.87-1.07,3.71,0a1.37,1.37,0,0,1-.23,1.85h0l-7,5.56a3,3,0,0,1-1.53.79,2.74,2.74,0,0,1-.65.09l-6,.93C11.3,21.35,10.32,21.45,9.39,21.45Zm-6-.93h6a17.47,17.47,0,0,0,2.69-.19l6.12-.93a1.9,1.9,0,0,0,.51,0,1.61,1.61,0,0,0,1.07-.56l0,0,7-5.47a.44.44,0,0,0,.09-.56c-.37-.56-.56-.79-2.5.19l-4,2.46c-1.07.56-3.11.6-5.28.56h-.83l0-.93h.51c.6,0,1.16-.14,1.3-.37A.86.86,0,0,0,16,14a3.13,3.13,0,0,0-2.64-1.34H11.57a5.37,5.37,0,0,1-3.2-1c-1.3-1-3.89.46-5,1.25Zm23.78-6.86Z"/><path id="_Составной_контур_2" data-name="&lt;Составной контур&gt;" class="cls-1" d="M3.37,22.84H.13V10.79H3.37Zm-2.32-.93H2.44V11.71H1.05Z"/><path id="_Контур_" data-name="&lt;Контур&gt;" class="cls-1" d="M8.24,17.32a.44.44,0,0,1-.46-.46c0-1.16.88-1.85,2.32-1.85h4.5a.46.46,0,0,1,0,.93h-4.5c-1.39,0-1.39.7-1.39.93A.44.44,0,0,1,8.24,17.32Z"/><path id="_Составной_контур_3" data-name="&lt;Составной контур&gt;" class="cls-1" d="M11.67,5.69a.87.87,0,0,1-.37-.09.86.86,0,0,1-.51-.79V.59a.44.44,0,0,1,.46-.46h4.63a.44.44,0,0,1,.46.46V4.81a.86.86,0,0,1-.51.79.94.94,0,0,1-.93-.09h0L13.57,4.44,12.22,5.5A.89.89,0,0,1,11.67,5.69Zm0-4.63V4.71l1.58-1.25a.42.42,0,0,1,.56,0l1.58,1.25V1.05Z"/><path id="_Составной_контур_4" data-name="&lt;Составной контур&gt;" class="cls-1" d="M16.44,15.93H14.86a.46.46,0,1,1,0-.93c.79,0,1.25-.19,1.34-.37A.77.77,0,0,0,16,14a3,3,0,0,0-2.6-1.34H11.57a5.37,5.37,0,0,1-3.2-1,2.71,2.71,0,0,0-2.5,0,.45.45,0,0,1-.42,0,.64.64,0,0,1-.23-.42V2.44A1.39,1.39,0,0,1,6.61,1.05h4.63a.44.44,0,0,1,.46.46v3.2l1.58-1.25a.42.42,0,0,1,.56,0l1.58,1.25V1.52a.44.44,0,0,1,.46-.46h4.63a1.39,1.39,0,0,1,1.39,1.39V14.17a.55.55,0,0,1-.23.42l-1.25.74A9.22,9.22,0,0,1,16.44,15.93ZM7.26,10.32a2.61,2.61,0,0,1,1.62.51h0a4.37,4.37,0,0,0,2.64.83h1.81a4.06,4.06,0,0,1,3.34,1.71A1.42,1.42,0,0,1,17,14.91a7.32,7.32,0,0,0,3-.42l1-.6V2.44A.46.46,0,0,0,20.43,2H16.25V4.81a.86.86,0,0,1-.51.79.94.94,0,0,1-.93-.09L13.57,4.44,12.22,5.5a.84.84,0,0,1-.93.09.86.86,0,0,1-.51-.79V2H6.61a.46.46,0,0,0-.46.46v8A5.2,5.2,0,0,1,7.26,10.32Z"/></g></g></g></svg>