<svg xmlns="http://www.w3.org/2000/svg" viewBox="0 0 24.86 23.63"><defs><style>.cls-1{fill:#fff;stroke:#fff;stroke-miterlimit:10;stroke-width:0.25px;}</style></defs><title>delivery-2</title><g id="Слой_2" data-name="Слой 2"><g id="Слой_2-2" data-name="Слой 2"><g id="_Группа_" data-name="&lt;Группа&gt;"><path id="_Составной_контур_" data-name="&lt;Составной контур&gt;" class="cls-1" d="M10.79,21.45a.51.51,0,0,1-.33-.16L7.18,16.78a.55.55,0,0,1-.08-.33l.41-1.64a.55.55,0,0,1,.25-.29.57.57,0,0,1,.37,0l.12,0,.12.12a5.33,5.33,0,0,0,4.06,2.26.37.37,0,0,1,.33.21.67.67,0,0,1,0,.41l-1.64,3.69a.41.41,0,0,1-.33.25A0,0,0,0,0,10.79,21.45ZM8,16.45l2.75,3.77,1.11-2.5a6.17,6.17,0,0,1-3.69-2Z"/><path id="_Составной_контур_2" data-name="&lt;Составной контур&gt;" class="cls-1" d="M14.07,21.45h0a.36.36,0,0,1-.33-.25l-1.64-3.69a.49.49,0,0,1,0-.41.37.37,0,0,1,.33-.16,5.09,5.09,0,0,0,4.06-2.26l.12-.12.12,0a.39.39,0,0,1,.37,0,.43.43,0,0,1,.25.29l.41,1.64a.32.32,0,0,1-.08.33L14.4,21.29A.51.51,0,0,1,14.07,21.45Zm-1-3.73,1.11,2.5,2.75-3.77-.16-.74A6.17,6.17,0,0,1,13,17.72Z"/><path id="_Составной_контур_3" data-name="&lt;Составной контур&gt;" class="cls-1" d="M24.33,23.51H.54a.39.39,0,0,1-.41-.41V21.33a2.18,2.18,0,0,1,1.23-2,18.78,18.78,0,0,1,6.52-2.38h.25a.51.51,0,0,1,.33.16l2.26,3.12,1.35-3a.39.39,0,0,1,.37-.25.36.36,0,0,1,.37.25l1.35,3,2.26-3.12a.37.37,0,0,1,.33-.16H17a18.78,18.78,0,0,1,6.52,2.38h0a2.35,2.35,0,0,1,1.23,2V23.1A.39.39,0,0,1,24.33,23.51Zm-9.84-.82h9.43V21.33A1.52,1.52,0,0,0,23.14,20a19.82,19.82,0,0,0-6.19-2.3L14.4,21.25a.45.45,0,0,1-.37.16.36.36,0,0,1-.33-.25l-1.27-2.79-1.27,2.83a.41.41,0,0,1-.33.25.4.4,0,0,1-.37-.16L7.92,17.76a18.23,18.23,0,0,0-6.19,2.3,1.41,1.41,0,0,0-.78,1.27v1.35Z"/><path id="_Составной_контур_4" data-name="&lt;Составной контур&gt;" class="cls-1" d="M17.52,8a1.54,1.54,0,0,1-.41,0,25.82,25.82,0,0,0-9.39,0,2.42,2.42,0,0,1-1.89-.49A2.26,2.26,0,0,1,5,5.66,5.64,5.64,0,0,1,10.63.13h3.65A5.58,5.58,0,0,1,19.81,5.7,2.32,2.32,0,0,1,19,7.47,2.37,2.37,0,0,1,17.52,8ZM12.39,6.69a28.44,28.44,0,0,1,4.88.45,1.41,1.41,0,0,0,1.19-.33A1.51,1.51,0,0,0,19,5.7,4.76,4.76,0,0,0,14.24.95H10.58A4.75,4.75,0,0,0,5.87,5.7,1.38,1.38,0,0,0,6.4,6.81a1.56,1.56,0,0,0,1.19.33A26.79,26.79,0,0,1,12.39,6.69Z"/><path id="_Составной_контур_5" data-name="&lt;Составной контур&gt;" class="cls-1" d="M13.25,4.23H11.61a.39.39,0,0,1-.41-.41V1.77a.39.39,0,0,1,.41-.41h1.64a.39.39,0,0,1,.41.41V3.82A.39.39,0,0,1,13.25,4.23ZM12,3.41h.82V2.18H12Z"/><path id="_Составной_контур_6" data-name="&lt;Составной контур&gt;" class="cls-1" d="M17.56,8a1.4,1.4,0,0,1-.41,0h0a25.82,25.82,0,0,0-9.39,0A2.21,2.21,0,0,1,6,7.51a2.44,2.44,0,0,1-.9-1.6.44.44,0,0,1,.33-.45l2.17-.37a27.41,27.41,0,0,1,9.68,0l2.17.37a.41.41,0,0,1,.33.45,2.15,2.15,0,0,1-.9,1.6A2.12,2.12,0,0,1,17.56,8Zm-.29-.82a1.44,1.44,0,0,0,1.15-.29,1.55,1.55,0,0,0,.49-.66l-1.76-.33a25.82,25.82,0,0,0-9.39,0L6,6.2a1.28,1.28,0,0,0,.49.66,1.62,1.62,0,0,0,1.15.29A25.4,25.4,0,0,1,17.27,7.14Z"/><path id="_Составной_контур_7" data-name="&lt;Составной контур&gt;" class="cls-1" d="M12.43,17.76c-3.77,0-6.56-4.1-6.56-7.79V7.22a.43.43,0,0,1,.21-.37.32.32,0,0,1,.41,0,1.65,1.65,0,0,0,1.07.25,27.41,27.41,0,0,1,9.68,0,1.27,1.27,0,0,0,1.07-.25.49.49,0,0,1,.41,0,.43.43,0,0,1,.21.37V10C19,13.66,16.2,17.76,12.43,17.76ZM6.69,7.88V10c0,4,3,7,5.74,7s5.74-3,5.74-7V7.88a2.17,2.17,0,0,1-1,0h0a25.82,25.82,0,0,0-9.39,0A2.32,2.32,0,0,1,6.69,7.88Z"/></g></g></g></svg>