<svg xmlns="http://www.w3.org/2000/svg" viewBox="0 0 13.4 13.39"><defs><style>.cls-1{fill:#4D4D4D;}</style></defs><title>ic-earth</title><g id="Слой_2" data-name="Слой 2"><g id="Слой_2-2" data-name="Слой 2"><g id="_Группа_" data-name="&lt;Группа&gt;"><path id="_Контур_" data-name="&lt;Контур&gt;" class="cls-1" d="M3.77,1.52c-.11.48-.22.94-.31,1.4a.8.8,0,0,0,0,.43c.26.65.53,1.29.81,1.93a.74.74,0,0,0,.24.29c.52.37,1,.73,1.58,1.08a1.67,1.67,0,0,1,.62.63.4.4,0,0,0,.4.24c.22,0,.45,0,.7.07-.11.39-.21.77-.33,1.14a.3.3,0,0,0,.08.35c.4.42.8.84,1.18,1.27a.35.35,0,0,1,.06.29c-.16.48-.36.95-.51,1.43a2.83,2.83,0,0,0-.12.84c0,.25-.09.33-.31.37A6.54,6.54,0,0,1,2,11.47a6.68,6.68,0,0,1,.38-9.87.62.62,0,0,1,.37-.12C3.08,1.47,3.41,1.5,3.77,1.52Z"/><path id="_Контур_2" data-name="&lt;Контур&gt;" class="cls-1" d="M8.83,13a.72.72,0,0,1,.28-.68c.65-.46,1.28-.94,1.91-1.43a1.19,1.19,0,0,0,.3-.35c.32-.56.62-1.14.94-1.7a.31.31,0,0,0,0-.39.7.7,0,0,0-.88-.34.32.32,0,0,1-.46-.26.46.46,0,0,0-.24-.24A7.31,7.31,0,0,0,8.61,7a6.73,6.73,0,0,0-1,0c-.15,0-.27,0-.34-.18A2.38,2.38,0,0,0,5.43,5.33a1,1,0,0,1-.16-.07c.47-.19.9-.36,1.34-.53.05,0,.15,0,.2.07s.28.23.45.37l1.45-2.9L7.17,1.41l-.1.84-.81-.81L6.68.93,4.92.25A6.68,6.68,0,0,1,8.83,13Z"/></g></g></g></svg>
