<svg xmlns="http://www.w3.org/2000/svg" viewBox="0 0 15.21 15.21"><defs><style>.cls-1{fill:#333;}</style></defs><title>exit</title><g id="Слой_2" data-name="Слой 2"><g id="Слой_5" data-name="Слой 5"><g id="_Группа_" data-name="&lt;Группа&gt;"><path id="_Составной_контур_" data-name="&lt;Составной контур&gt;" class="cls-1" d="M7.13,14.26H1V1H7.13a.48.48,0,1,0,0-1H.48A.48.48,0,0,0,0,.48V14.74a.48.48,0,0,0,.48.48H7.13a.48.48,0,1,0,0-1Zm0,0"/><path id="_Составной_контур_2" data-name="&lt;Составной контур&gt;" class="cls-1" d="M15.08,7.27,11.8,3.95a.47.47,0,0,0-.67,0,.48.48,0,0,0,0,.68L13.6,7.13H3.8a.48.48,0,0,0,0,1H13.6L11.12,10.6a.48.48,0,0,0,0,.68.47.47,0,0,0,.67,0L15.08,8a.49.49,0,0,0,0-.68Zm0,0"/></g></g></g></svg>