<svg xmlns="http://www.w3.org/2000/svg" viewBox="0 0 34.47 34.47"><defs><style>.cls-1{fill:#fff;}</style></defs><title>focus</title><g id="Слой_2" data-name="Слой 2"><g id="Слой_2-2" data-name="Слой 2"><g id="_Группа_" data-name="&lt;Группа&gt;"><path id="_Составной_контур_" data-name="&lt;Составной контур&gt;" class="cls-1" d="M12.76,14.65,21,.34A27.68,27.68,0,0,0,17.23,0,16.19,16.19,0,0,0,6.38,4l6.38,10.85Zm20.85-2.58A16.68,16.68,0,0,0,23.27,1.2l-6.2,10.86Zm.51,1.71H21.2l.51.87L30,29a17.72,17.72,0,0,0,4.48-11.72,20.85,20.85,0,0,0-.34-3.45ZM11.2,17.23,4.48,5.51A17.72,17.72,0,0,0,0,17.23a20.85,20.85,0,0,0,.34,3.45H13.27ZM.86,22.4A16.68,16.68,0,0,0,11.2,33.26L17.58,22.4Zm19.3,0L13.44,34.12a13.56,13.56,0,0,0,3.8.34,16.19,16.19,0,0,0,10.85-4L21.71,19.65Zm0,0"/></g></g></g></svg>