<svg xmlns="http://www.w3.org/2000/svg" viewBox="0 0 38.18 38.18"><defs><style>.cls-1{fill:#000333;}</style></defs><title>ic-clock</title><g id="Слой_2" data-name="Слой 2"><g id="Слой_2-2" data-name="Слой 2"><g id="_Группа_" data-name="&lt;Группа&gt;"><path id="_Составной_контур_" data-name="&lt;Составной контур&gt;" class="cls-1" d="M32.59,5.59a19.09,19.09,0,0,0-27,27,19.09,19.09,0,1,0,27-27Zm-.84,26.15A17.89,17.89,0,0,1,6.43,6.43,17.89,17.89,0,0,1,31.74,31.74Zm0,0"/><path id="_Составной_контур_2" data-name="&lt;Составной контур&gt;" class="cls-1" d="M3.58,19.09A15.51,15.51,0,0,1,27.7,6.19a.6.6,0,0,0,.66-1,16.7,16.7,0,0,0-21.73,25,.6.6,0,1,0,.89-.8A15.48,15.48,0,0,1,3.58,19.09Zm0,0"/><path id="_Составной_контур_3" data-name="&lt;Составной контур&gt;" class="cls-1" d="M33,9.81a.6.6,0,0,0-1,.66A15.51,15.51,0,0,1,9.32,31.14a.6.6,0,0,0-.75.93A16.7,16.7,0,0,0,33,9.81Zm0,0"/><path id="_Составной_контур_4" data-name="&lt;Составной контур&gt;" class="cls-1" d="M29.43,7.53a15.51,15.51,0,0,1,1.15,1.14.6.6,0,1,0,.88-.8,16.83,16.83,0,0,0-1.24-1.23.6.6,0,0,0-.8.89Zm0,0"/><path id="_Составной_контур_5" data-name="&lt;Составной контур&gt;" class="cls-1" d="M19.09,7.75a.6.6,0,0,0,.6-.6V5.37a.6.6,0,1,0-1.19,0V7.16a.6.6,0,0,0,.6.6Zm0,0"/><path id="_Составной_контур_6" data-name="&lt;Составной контур&gt;" class="cls-1" d="M18.49,31v1.79a.6.6,0,0,0,1.19,0V31a.6.6,0,1,0-1.19,0Zm0,0"/><path id="_Составной_контур_7" data-name="&lt;Составной контур&gt;" class="cls-1" d="M7.75,19.09a.6.6,0,0,0-.6-.6H5.37a.6.6,0,1,0,0,1.19H7.16a.6.6,0,0,0,.6-.6Zm0,0"/><path id="_Составной_контур_8" data-name="&lt;Составной контур&gt;" class="cls-1" d="M30.42,19.09a.6.6,0,0,0,.6.6h1.79a.6.6,0,0,0,0-1.19H31a.6.6,0,0,0-.6.6Zm0,0"/><path id="_Составной_контур_9" data-name="&lt;Составной контур&gt;" class="cls-1" d="M13.64,8.46l-.89-1.55a.6.6,0,1,0-1,.6l.89,1.55a.6.6,0,1,0,1-.6Zm0,0"/><path id="_Составной_контур_10" data-name="&lt;Составной контур&gt;" class="cls-1" d="M25.57,29.12a.6.6,0,1,0-1,.6l.89,1.55a.6.6,0,1,0,1-.6Zm0,0"/><path id="_Составной_контур_11" data-name="&lt;Составной контур&gt;" class="cls-1" d="M7.21,26.54a.59.59,0,0,0,.3-.08l1.55-.89a.6.6,0,0,0-.6-1l-1.55.89a.6.6,0,0,0,.3,1.11Zm0,0"/><path id="_Составной_контур_12" data-name="&lt;Составной контур&gt;" class="cls-1" d="M29.42,13.72a.59.59,0,0,0,.3-.08l1.55-.89a.6.6,0,0,0-.6-1l-1.55.89a.6.6,0,0,0,.3,1.11Zm0,0"/><path id="_Составной_контур_13" data-name="&lt;Составной контур&gt;" class="cls-1" d="M26.25,6.69a.6.6,0,0,0-.81.22l-.89,1.55a.6.6,0,0,0,1,.6l.89-1.55a.6.6,0,0,0-.22-.81Zm0,0"/><path id="_Составной_контур_14" data-name="&lt;Составной контур&gt;" class="cls-1" d="M13.42,28.9a.6.6,0,0,0-.81.22l-.89,1.55a.6.6,0,1,0,1,.6l.89-1.55a.6.6,0,0,0-.22-.81Zm0,0"/><path id="_Составной_контур_15" data-name="&lt;Составной контур&gt;" class="cls-1" d="M29.12,25.57l1.55.89a.6.6,0,1,0,.6-1l-1.55-.89a.6.6,0,1,0-.6,1Zm0,0"/><path id="_Составной_контур_16" data-name="&lt;Составной контур&gt;" class="cls-1" d="M9.05,12.61,7.5,11.71a.6.6,0,1,0-.6,1l1.55.89a.6.6,0,0,0,.6-1Zm0,0"/><path id="_Составной_контур_17" data-name="&lt;Составной контур&gt;" class="cls-1" d="M23.24,26.88a.6.6,0,0,0,.52-.89l-3.31-5.73a1.79,1.79,0,0,0-.76-2.85V9.54a.6.6,0,0,0-1.19,0V17.4a1.79,1.79,0,0,0,.92,3.45l3.31,5.73a.6.6,0,0,0,.52.3Zm-4.75-7.79a.6.6,0,1,1,.6.6.6.6,0,0,1-.6-.6Zm0,0"/></g></g></g></svg>