<svg xmlns="http://www.w3.org/2000/svg" viewBox="0 0 41.09 44.03"><defs><style>.cls-1{fill:#333;}</style></defs><title>ic-lamp</title><g id="Слой_2" data-name="Слой 2"><g id="Слой_2-2" data-name="Слой 2"><g id="_Группа_" data-name="&lt;Группа&gt;"><path id="_Составной_контур_" data-name="&lt;Составной контур&gt;" class="cls-1" d="M29.34,10.72A13.08,13.08,0,0,0,19,7.44a13.19,13.19,0,0,0-4.14,25,2.24,2.24,0,0,1,1.27,2v4.44a2.16,2.16,0,0,0,1.47,2v.89A2.16,2.16,0,0,0,19.81,44h1.47a2.16,2.16,0,0,0,2.16-2.16V41a2.16,2.16,0,0,0,1.47-2V34.49a2.22,2.22,0,0,1,1.25-2,13.19,13.19,0,0,0,3.18-21.77ZM21.28,42.65H19.81a.78.78,0,0,1-.78-.78v-.78h3v.78A.78.78,0,0,1,21.28,42.65Zm1.47-2.94H18.34a.78.78,0,0,1-.78-.78V36.68h6v2.25A.78.78,0,0,1,22.75,39.71ZM30.47,27a11.84,11.84,0,0,1-4.9,4.28,3.6,3.6,0,0,0-2,3.26v.8h-6v-.81a3.63,3.63,0,0,0-2.06-3.27A11.81,11.81,0,0,1,19.2,8.81a12.42,12.42,0,0,1,1.37-.08,11.68,11.68,0,0,1,7.86,3,11.81,11.81,0,0,1,2,15.21Z"/><path id="_Контур_" data-name="&lt;Контур&gt;" class="cls-1" d="M40.4,19.86H36a.69.69,0,0,0,0,1.38H40.4a.69.69,0,1,0,0-1.38Z"/><path id="_Контур_2" data-name="&lt;Контур&gt;" class="cls-1" d="M5.79,20.54a.69.69,0,0,0-.69-.69H.69a.69.69,0,1,0,0,1.38H5.1A.69.69,0,0,0,5.79,20.54Z"/><path id="_Контур_3" data-name="&lt;Контур&gt;" class="cls-1" d="M20.54,5.79a.69.69,0,0,0,.69-.69V.69a.69.69,0,1,0-1.38,0V5.1A.69.69,0,0,0,20.54,5.79Z"/><path id="_Составной_контур_2" data-name="&lt;Составной контур&gt;" class="cls-1" d="M20.54,12.5a2.1,2.1,0,0,0-2.1,2.19l.4,9.59a1.42,1.42,0,0,0,1.42,1.37h.55a1.42,1.42,0,0,0,1.42-1.37l.4-9.59a2.1,2.1,0,0,0-2.1-2.19Zm.32,11.72a0,0,0,0,1,0,0h-.55a0,0,0,0,1,0,0l-.4-9.59a.72.72,0,1,1,1.44,0Z"/><path id="_Составной_контур_3" data-name="&lt;Составной контур&gt;" class="cls-1" d="M20.54,27.21A1.79,1.79,0,1,0,22.34,29,1.79,1.79,0,0,0,20.54,27.21Zm0,2.21A.41.41,0,1,1,21,29,.41.41,0,0,1,20.54,29.42Z"/><path id="_Контур_4" data-name="&lt;Контур&gt;" class="cls-1" d="M27.92,7.77a.69.69,0,0,0,.94-.25L30,5.6a.69.69,0,1,0-1.19-.69l-1.1,1.91A.69.69,0,0,0,27.92,7.77Z"/><path id="_Контур_5" data-name="&lt;Контур&gt;" class="cls-1" d="M13.17,33.32a.69.69,0,0,0-.94.25l-1.1,1.91a.69.69,0,1,0,1.19.69l1.1-1.91A.69.69,0,0,0,13.17,33.32Z"/><path id="_Контур_6" data-name="&lt;Контур&gt;" class="cls-1" d="M12.23,7.52a.69.69,0,1,0,1.19-.69l-1.1-1.91a.69.69,0,1,0-1.19.69Z"/><path id="_Контур_7" data-name="&lt;Контур&gt;" class="cls-1" d="M28.86,33.57a.69.69,0,1,0-1.19.69l1.1,1.91A.69.69,0,0,0,30,35.48Z"/><path id="_Контур_8" data-name="&lt;Контур&gt;" class="cls-1" d="M36.17,28.77l-1.91-1.1a.69.69,0,1,0-.69,1.19L35.48,30a.69.69,0,1,0,.69-1.19Z"/><path id="_Контур_9" data-name="&lt;Контур&gt;" class="cls-1" d="M4.92,12.32l1.91,1.1a.69.69,0,0,0,.69-1.19L5.6,11.12a.69.69,0,1,0-.69,1.19Z"/><path id="_Контур_10" data-name="&lt;Контур&gt;" class="cls-1" d="M33.92,13.51a.69.69,0,0,0,.34-.09l1.91-1.1a.69.69,0,0,0-.69-1.19l-1.91,1.1a.69.69,0,0,0,.35,1.29Z"/><path id="_Контур_11" data-name="&lt;Контур&gt;" class="cls-1" d="M6.83,27.67l-1.91,1.1A.69.69,0,1,0,5.6,30l1.91-1.1a.69.69,0,1,0-.69-1.19Z"/></g></g></g></svg>