<svg xmlns="http://www.w3.org/2000/svg" viewBox="0 0 30.86 42.96"><defs><style>.cls-1{fill:#526363;}</style></defs><title>lock</title><g id="Слой_2" data-name="Слой 2"><g id="Слой_2-2" data-name="Слой 2"><g id="_Группа_" data-name="&lt;Группа&gt;"><path id="_Составной_контур_" data-name="&lt;Составной контур&gt;" class="cls-1" d="M28.11,43H2.76A2.76,2.76,0,0,1,0,40.2V19a2.77,2.77,0,0,1,2.76-2.76H28.11A2.76,2.76,0,0,1,30.86,19V40.2A2.76,2.76,0,0,1,28.11,43ZM2.76,17.62A1.43,1.43,0,0,0,1.34,19V40.2a1.42,1.42,0,0,0,1.42,1.42H28.11a1.42,1.42,0,0,0,1.42-1.42V19a1.42,1.42,0,0,0-1.42-1.42Zm0,0"/><path id="_Составной_контур_2" data-name="&lt;Составной контур&gt;" class="cls-1" d="M15.43,36.45a2.07,2.07,0,0,1-2.07-2.07V30.94a4.34,4.34,0,1,1,4.14,0v3.44a2.08,2.08,0,0,1-2.07,2.07Zm0-12.32a3,3,0,0,0-1.14,5.77.67.67,0,0,1,.41.62v3.86a.73.73,0,0,0,1.46,0V30.52a.67.67,0,0,1,.41-.62,3,3,0,0,0-1.14-5.77Zm0,0"/><path id="_Составной_контур_3" data-name="&lt;Составной контур&gt;" class="cls-1" d="M5.62,17.62A.67.67,0,0,1,5,17V10.48a10.48,10.48,0,1,1,21,0,.67.67,0,0,1-1.34,0,9.14,9.14,0,0,0-18.29,0V17a.67.67,0,0,1-.67.67Zm0,0"/></g></g></g></svg>