<svg xmlns="http://www.w3.org/2000/svg" viewBox="0 0 13.81 18.42"><title>new</title><g data-name="&amp;lt;Группа&amp;gt;"><path data-name="&amp;lt;Составной контур&amp;gt;" d="M13.81 3.73a.43.43 0 0 0-.13-.3l-3.3-3.3a.43.43 0 0 0-.3-.13H.91A.91.91 0 0 0 0 .91v16.6a.91.91 0 0 0 .91.91h12a.91.91 0 0 0 .91-.91V3.73zm-3.26-.43V1.47l1.79 1.83zm2.35 14.25H.91V.91h8.74v2.35a.91.91 0 0 0 .91.91h2.39v13.34l-.05.04z"/><path data-name="&amp;lt;Контур&amp;gt;" d="M10.72 5.9H3.09a.43.43 0 0 0 0 .86h7.63a.43.43 0 0 0 0-.86zm0 2.6H3.09a.43.43 0 0 0 0 .86h7.63a.43.43 0 0 0 0-.86zm0 2.6H3.09a.43.43 0 0 0 0 .86h7.63a.43.43 0 0 0 0-.86zM6.9 13.71H3.09a.43.43 0 1 0 0 .86H6.9a.43.43 0 1 0 0-.86z"/></g></svg>