<svg xmlns="http://www.w3.org/2000/svg" viewBox="0 0 18.97 18.99"><defs><style>.cls-1{fill:#fff}</style></defs><title>payment-4</title><g id="Слой_2" data-name="Слой 2"><g id="Слой_2-2" data-name="Слой 2"><g id="_Группа_" data-name="&amp;lt;Группа&amp;gt;"><path id="_Составной_контур_" data-name="&amp;lt;Составной контур&amp;gt;" class="cls-1" d="M19 9.56v8.46c0 .69-.16 1-.9.95h-7.32c-.66 0-.83-.22-.85-.87a19.79 19.79 0 0 0-.35-3.94c-.79-3.27-3.09-4.69-6.29-5a23.11 23.11 0 0 0-2.56 0C.27 9.15.1 9 .1 8.57v-8C.1.13.3 0 .74 0h17.48c.64 0 .74.28.74.82-.01 2.91.04 5.83.04 8.74zM9.61 3.75H4.85c-1 0-1 0-1 1s.67.82 1.19.92a10.4 10.4 0 0 1 4.31 1.82 9.86 9.86 0 0 1 4 7c.11.9.71.69 1.25.73s.67-.35.67-.82V4.52c0-.58-.19-.79-.78-.78-1.61.03-3.25.01-4.88.01z"/><path id="_Контур_" data-name="&amp;lt;Контур&amp;gt;" class="cls-1" d="M7.42 11.59V19H0v-7.4z"/></g></g></g></svg>