<svg xmlns="http://www.w3.org/2000/svg" viewBox="0 0 26.45 23.58"><defs><style>.cls-1{fill:#fff;}</style></defs><title>payment-5</title><g id="Слой_2" data-name="Слой 2"><g id="Слой_2-2" data-name="Слой 2"><g id="_Группа_" data-name="&lt;Группа&gt;"><path id="_Составной_контур_" data-name="&lt;Составной контур&gt;" class="cls-1" d="M25.44,3.46,9.24,0A1.28,1.28,0,0,0,7.73,1L7.42,3l18.69,4,.31-2a1.28,1.28,0,0,0-1-1.51Zm0,0"/><path id="_Составной_контур_2" data-name="&lt;Составной контур&gt;" class="cls-1" d="M18.63,7.36A1.29,1.29,0,0,0,17,6.47L14,7.32,6.72,5.79l-.8,3.77-5,1.38A1.29,1.29,0,0,0,0,12.52L2.85,22.63a1.29,1.29,0,0,0,1.58.89l16.1-4.47a1.29,1.29,0,0,0,.89-1.58L21,15.74l1.81.38a1.28,1.28,0,0,0,1.51-1l1.14-5.4L18.91,8.37Zm1.86,5.14.4-1.88a.53.53,0,0,1,.62-.4l1.88.4a.53.53,0,0,1,.4.62l-.4,1.88a.53.53,0,0,1-.62.4l-1.88-.4a.53.53,0,0,1-.4-.62ZM1.22,11.95l4.46-1.24L16.19,7.79l1.13-.31h.06a.24.24,0,0,1,.23.17l.13.48.42,1.5L1.61,14.22l-.55-2a.24.24,0,0,1,.17-.29Zm19.2,5.81a.23.23,0,0,1,0,.18.23.23,0,0,1-.14.11L4.16,22.52H4.09a.24.24,0,0,1-.23-.17l-1.64-5.9,16.56-4.6,1,3.64Zm0,0"/><path id="_Составной_контур_3" data-name="&lt;Составной контур&gt;" class="cls-1" d="M6.76,18.16a.53.53,0,0,0-.65-.36l-1.88.52a.53.53,0,0,0-.36.65l.52,1.88a.53.53,0,0,0,.65.36l1.88-.52A.53.53,0,0,0,7.28,20Zm0,0"/></g></g></g></svg>