<svg xmlns="http://www.w3.org/2000/svg" viewBox="0 0 21.48 21.48"><defs><style>.cls-1{fill:#fff;}</style></defs><title>payment-2</title><g id="Слой_2" data-name="Слой 2"><g id="Слой_2-2" data-name="Слой 2"><g id="_Группа_" data-name="&lt;Группа&gt;"><path id="_Составной_контур_" data-name="&lt;Составной контур&gt;" class="cls-1" d="M1.34,18.79V2.68A1.34,1.34,0,0,1,2.68,1.34H16.11a1.34,1.34,0,0,1,1.34,1.34v7.89l1.34-1.34V2.68A2.69,2.69,0,0,0,16.11,0H2.68A2.68,2.68,0,0,0,0,2.68V18.79a2.68,2.68,0,0,0,2.68,2.68h7.38V20.13H2.68a1.34,1.34,0,0,1-1.34-1.34ZM14.76,4H4V5.37H14.76Zm0,2.68H4V8.05H14.76Zm0,2.68H4v1.34H14.76ZM4,13.42H9.4V12.08H4Zm17.06-1.34-.95-.95a1.34,1.34,0,0,0-1.9,0l-5.76,5.76a4.79,4.79,0,0,0-1.07,1.62l-.67,3,3-.67a16.34,16.34,0,0,0,1.62-1.06L21.08,14a1.34,1.34,0,0,0,0-1.9Zm-6.24,7.18a6.72,6.72,0,0,1-.66.45L12.45,18a6.06,6.06,0,0,1,.5-.61L17.29,13l1.9,1.9Zm0,0"/></g></g></g></svg>