<svg xmlns="http://www.w3.org/2000/svg" viewBox="0 0 33.49 28.94"><defs><style>.cls-1{fill:#fff;}</style></defs><title>print-2</title><g id="Слой_2" data-name="Слой 2"><g id="Слой_2-2" data-name="Слой 2"><g id="_Группа_" data-name="&lt;Группа&gt;"><g id="_Группа_2" data-name="&lt;Группа&gt;"><path id="_Составной_контур_" data-name="&lt;Составной контур&gt;" class="cls-1" d="M30,2.61a.8.8,0,1,0,.8.8.8.8,0,0,0-.8-.8Zm0,0"/><path id="_Составной_контур_2" data-name="&lt;Составной контур&gt;" class="cls-1" d="M30,5.3a.8.8,0,1,0,.8.8.8.8,0,0,0-.8-.8Zm0,0"/><path id="_Составной_контур_3" data-name="&lt;Составной контур&gt;" class="cls-1" d="M29.7,0H3.79A3.79,3.79,0,0,0,0,3.79v5a.76.76,0,0,0,.76.76h2V27.42H1.21a.76.76,0,0,0,0,1.52H5.76a.76.76,0,1,0,0-1.52H4.24V9.51H8V22.34a.76.76,0,0,0,.76.76h8a8.76,8.76,0,0,0,8.75-8.75V9.51h3.75V27.42H27.73a.76.76,0,1,0,0,1.52h4.55a.76.76,0,0,0,0-1.52H30.76V9.51h2a.76.76,0,0,0,.76-.76v-5A3.79,3.79,0,0,0,29.7,0ZM16.42,21.58H9.51V5.51H24V14a7.18,7.18,0,0,1-4.89,1.91.76.76,0,0,0-.76.76,7.18,7.18,0,0,1-1.91,4.89Zm2.07-.21a8.67,8.67,0,0,0,1.32-4,8.67,8.67,0,0,0,4-1.32,7.26,7.26,0,0,1-5.28,5.28ZM32,8H25.5V5.51H27A.76.76,0,1,0,27,4H6.48a.76.76,0,1,0,0,1.52H8V8H1.52V3.79A2.28,2.28,0,0,1,3.79,1.52H29.7A2.28,2.28,0,0,1,32,3.79Zm0,0"/></g></g></g></g></svg>