<svg xmlns="http://www.w3.org/2000/svg" viewBox="0 0 34.02 27.39"><defs><style>.cls-1{fill:#fff;}</style></defs><title>print-3</title><g id="Слой_2" data-name="Слой 2"><g id="Слой_2-2" data-name="Слой 2"><g id="_Группа_" data-name="&lt;Группа&gt;"><g id="_Группа_2" data-name="&lt;Группа&gt;"><path id="_Составной_контур_" data-name="&lt;Составной контур&gt;" class="cls-1" d="M6.81,3.66A3.15,3.15,0,1,0,10,6.81,3.15,3.15,0,0,0,6.81,3.66Zm0,4.72A1.57,1.57,0,1,1,8.38,6.81,1.58,1.58,0,0,1,6.81,8.38Zm0,0"/><path id="_Составной_контур_2" data-name="&lt;Составной контур&gt;" class="cls-1" d="M6.81,15.7A3.15,3.15,0,1,0,10,18.85,3.15,3.15,0,0,0,6.81,15.7Zm0,4.72a1.57,1.57,0,1,1,1.57-1.57,1.58,1.58,0,0,1-1.57,1.57Zm0,0"/><path id="_Составной_контур_3" data-name="&lt;Составной контур&gt;" class="cls-1" d="M30.9,16.39a10.89,10.89,0,0,0-4.45-3.66A6.81,6.81,0,0,0,23.1,0H6.81A6.81,6.81,0,0,0,3.63,12.83,6.81,6.81,0,0,0,6.81,25.65h7.7a.79.79,0,0,0,0-1.57H11.16a6.81,6.81,0,0,0,2.32-6.58,15.86,15.86,0,0,1,2.69,9.1.79.79,0,0,0,.79.79H33.23A.79.79,0,0,0,34,26.6a17.27,17.27,0,0,0-3.12-10.2ZM23.1,1.57A5.23,5.23,0,0,1,23.1,12H11.16a6.8,6.8,0,0,0,0-10.47ZM1.57,6.81A5.23,5.23,0,1,1,6.81,12,5.24,5.24,0,0,1,1.57,6.81ZM6.81,24.08A5.23,5.23,0,1,1,12,18.85a5.24,5.24,0,0,1-5.23,5.23Zm10.92,1.73a17.06,17.06,0,0,0-3.11-9.42,11.75,11.75,0,0,0-2.84-2.78H23.1c5,0,9,5.4,9.33,12.2Zm0,0"/></g></g></g></g></svg>