<svg viewBox="0 0 40.3 33.3" xmlns="http://www.w3.org/2000/svg"><switch><g fill="#333"><path d="M36.9 22h3.4v-4.9h-3.4v-3.3h-4l-.1-.1c-.1-.2-.2-.3-.3-.4l-1.6-1.7h6V8.2h3.4V3.3h-3.4V0H3.3v3.3H0v4.9h3.3v3.3h6.1l-1.6 1.7c-.1.1-.2.3-.3.4l-.1.1H3.3V17H0v5h3.3v3.4h3.1v7.9h27.5v-7.9h3zm0-3.6h2.2v2.3h-2.2zm0-13.8h2.2v2.3h-2.2zM3.3 6.9h-2V4.6h2zm0 13.8h-2v-2.3h2zm3.3-5.1c-.2.6-.2 1.1-.2 1.6V24H4.6v-8.7h2.1zm-2-5.4V1.3h31v8.9zm28 21.8H7.7V17.2c0-.5.1-1.2.4-1.8.2-.5.4-.9.7-1.2l1-1.2h20.6l1.1 1.2c.3.4.6.9.7 1.2.2.6.4 1.3.4 1.8zm3-8.1H34v-6.8c0-.5-.1-1-.3-1.6l-.1-.4h2z"/><path d="M28.9 17.1c.4 0 .7-.3.7-.7 0-.2-.1-.5-.3-.6-.1-.1-.2-.1-.3-.1H11.3c-.1 0-.2 0-.3.1-.2.1-.3.3-.3.6 0 .4.3.7.7.7z"/></g></switch></svg>