<svg viewBox="0 0 40.6 42.6" xmlns="http://www.w3.org/2000/svg"><switch><g fill="#c52436"><path d="M10.3 42.6h20c1.5 0 2.7-1.2 2.7-2.7v-8.6h1.7c3.3 0 5.9-2.8 5.9-6V14.9c0-3.3-2.6-5.8-5.9-5.8H33V5.9C33 2.6 30.4 0 27.1 0H13.6c-3.3 0-5.9 2.6-5.9 5.9V9H6.1C2.8 9 0 11.6 0 14.9v10.4c0 3.3 2.8 6 6.1 6h1.5v8.6c0 1.5 1.2 2.7 2.7 2.7zm21.3-2.7c0 .7-.5 1.2-1.3 1.2h-20c-.7 0-1.3-.5-1.3-1.2V26h22.6zM9 5.9c0-2.5 2-4.5 4.5-4.5h13.6c2.5 0 4.5 2 4.5 4.5V9H9zm-2.9 24c-2.5 0-4.4-2.1-4.4-4.6V14.9c0-2.5 1.9-4.4 4.4-4.4h28.6c2.5 0 4.5 1.9 4.5 4.4v10.4c0 2.5-2 4.6-4.5 4.6H33V26h2.2c.4 0 .7-.3.7-.7s-.3-.7-.7-.7H5.3c-.4 0-.7.3-.7.7s.3.7.7.7h2.3v3.9z"/><path d="M28.1 31.9c.4 0 .7-.3.7-.7s-.3-.7-.7-.7H12.5c-.4 0-.7.3-.7.7s.3.7.7.7zm.1 5.1c.4 0 .7-.3.7-.7s-.3-.7-.7-.7H12.6c-.4 0-.7.3-.7.7s.3.7.7.7zm4-23.2c-.4 0-.7.3-.7.7s.3.7.7.7h2.5c.4 0 .7-.3.7-.7s-.3-.7-.7-.7z"/></g></switch></svg>