<svg xmlns="http://www.w3.org/2000/svg" viewBox="0 0 35.39 35.39"><defs><style>.cls-1{fill:#fff;}</style></defs><title>print-1</title><g id="Слой_2" data-name="Слой 2"><g id="Слой_2-2" data-name="Слой 2"><g id="_Группа_" data-name="&lt;Группа&gt;"><g id="_Группа_2" data-name="&lt;Группа&gt;"><path id="_Составной_контур_" data-name="&lt;Составной контур&gt;" class="cls-1" d="M34.19,13.3,27.69,17V13.71L35,9.57a.8.8,0,0,0-.79-1.39l-6.5,3.7V5.54a.8.8,0,0,0-.8-.8H22.21V.8a.8.8,0,0,0-.8-.8H10A3.7,3.7,0,0,0,6.3,3.69V5.52h0V8.07H.8a.8.8,0,0,0-.8.8v9.74a.8.8,0,0,0,.43.71L6.3,22.41V33.14a.8.8,0,0,0,.8.8v.65a.8.8,0,0,0,1.6,0v-.65H25.29v.65a.8.8,0,0,0,1.6,0v-.65a.8.8,0,0,0,.8-.8V18.84L35,14.69a.8.8,0,1,0-.79-1.39Zm-8.1,19H15V30.2H26.09ZM15,28.6V26.46H26.09V28.6Zm0-3.74V22.73H26.09v2.14ZM7.91,3.69A2.09,2.09,0,0,1,10,1.6H20.6V4.72H7.91Zm0,2.65H26.09V8.07H24a.8.8,0,0,0,0,1.6h2.11V21.12H14.21a.8.8,0,0,0-.8.8V32.34H7.91V9.67H20.78a.8.8,0,0,0,0-1.6H7.91ZM1.6,18.12V9.67H6.3V20.6Zm0,0"/></g></g></g></g></svg>