<svg xmlns="http://www.w3.org/2000/svg" viewBox="0 0 36.12 36.44"><defs><style>.cls-1{fill:#333}</style></defs><title>ic-ruler</title><g id="Слой_2" data-name="Слой 2"><g id="Слой_2-2" data-name="Слой 2"><g id="_Группа_" data-name="&amp;lt;Группа&amp;gt;"><g id="_Группа_2" data-name="&amp;lt;Группа&amp;gt;"><path id="_Составной_контур_" data-name="&amp;lt;Составной контур&amp;gt;" class="cls-1" d="M35.51 24.24H19.59l2.84-2.84 8.42-8.4a.61.61 0 0 0 0-.86L24 5.27a.61.61 0 0 0-.86 0l-8.42 8.42-2.84 2.84V.61a.61.61 0 0 0-.61-.61H1.58A.61.61 0 0 0 1 .61v25.6a6.74 6.74 0 0 0 9.75 8.94h24.8a.61.61 0 0 0 .61-.61v-9.7a.61.61 0 0 0-.65-.6zm-23.79.89a6.8 6.8 0 0 0-.83-.77A6.67 6.67 0 0 0 7.16 23l3.15-3.15.53.53 4.93 4.93.53.53-1.63 1.63-1.25 1.23a6.72 6.72 0 0 0-1.7-3.56zm3.86-10.59l1.36-1.36 6 6-1.36 1.36-3.88 3.88-.53.53-.53-.53-4.94-4.93-.53-.49.53-.53zm-5.92 4.21H2.18v-8.16h8.48v7.15zM2.18 20h6.27L5.3 23.11a6.76 6.76 0 0 0-3.12 1.62zm11.28 10.37l2.08-2.08.62-.62v6.27H12a6.74 6.74 0 0 0 1.46-3.57zm3.91-3.91l.22-.22.79-.79h7.15v8.48h-8.16zm6.2-19.9l6 6-5.77 5.77-6-6zm-12.9-5.35v8.16H2.18V1.21zM1.21 29.7a5.54 5.54 0 0 1 4.5-5.44 5.58 5.58 0 0 1 1-.1 5.48 5.48 0 0 1 3.39 1.17 5.59 5.59 0 0 1 .68.63 5.52 5.52 0 0 1 1.46 3.74v.37a5.54 5.54 0 0 1-2.13 4 5.48 5.48 0 0 1-3.39 1.17 5.54 5.54 0 0 1-5.51-5.54zm33.7 4.24h-8.16v-8.49h8.16z"/><path id="_Составной_контур_2" data-name="&amp;lt;Составной контур&amp;gt;" class="cls-1" d="M6.75 25.53a4.16 4.16 0 1 0 4.16 4.16 4.17 4.17 0 0 0-4.16-4.16zm0 7.11A2.95 2.95 0 1 1 9.7 29.7a3 3 0 0 1-2.95 2.95z"/><path id="_Контур_" data-name="&amp;lt;Контур&amp;gt;" class="cls-1" d="M6.75 27.31a.61.61 0 1 0 0 1.21 1.17 1.17 0 0 1 1.17 1.18.61.61 0 1 0 1.21 0 2.39 2.39 0 0 0-2.38-2.39z"/></g></g></g></g></svg>