<svg xmlns="http://www.w3.org/2000/svg" viewBox="0 0 30.77 41.03"><defs><style>.cls-1{fill:#333;}</style></defs><title>ic-sert</title><g id="Слой_2" data-name="Слой 2"><g id="Слой_2-2" data-name="Слой 2"><g id="_Группа_" data-name="&lt;Группа&gt;"><path id="_Составной_контур_" data-name="&lt;Составной контур&gt;" class="cls-1" d="M23.08,28.21a.64.64,0,0,0,0,1.28,1.28,1.28,0,0,1,1.28,1.28.64.64,0,1,0,1.28,0,2.57,2.57,0,0,0-2.56-2.56Zm0,0"/><path id="_Составной_контур_2" data-name="&lt;Составной контур&gt;" class="cls-1" d="M28.85,0H1.92A1.93,1.93,0,0,0,0,1.92V36.54a1.93,1.93,0,0,0,1.92,1.92H16a.63.63,0,0,0,.05.18.64.64,0,0,0,.47.36l1.66.3,1.47,1.52a.64.64,0,0,0,.46.2h.08a.64.64,0,0,0,.48-.32L22,38.46h2.17l1.27,2.24a.64.64,0,0,0,.48.32H26a.64.64,0,0,0,.46-.2l1.47-1.52,1.66-.3a.64.64,0,0,0,.44-.95,1.93,1.93,0,0,0,.75-1.52V1.92A1.93,1.93,0,0,0,28.85,0ZM1.28,36.54V1.92a.64.64,0,0,1,.64-.64H28.85a.64.64,0,0,1,.64.64V36.54a.64.64,0,0,1-.13.38l-2-3.4a5.13,5.13,0,1,0-8.66,0l-2.13,3.66H1.92a.64.64,0,0,1-.64-.64Zm21.8-1.92a3.85,3.85,0,1,1,3.85-3.85,3.85,3.85,0,0,1-3.85,3.85ZM20,39.33l-1-1.06a.64.64,0,0,0-.35-.19l-1-.18,1.95-3.35A5.12,5.12,0,0,0,22,35.79Zm2.7-2.15.36-.63.36.63Zm4.76.9a.64.64,0,0,0-.35.19l-1,1.05-2-3.53a5.12,5.12,0,0,0,2.41-1.23l1.93,3.35Zm0,0"/><path id="_Составной_контур_3" data-name="&lt;Составной контур&gt;" class="cls-1" d="M20.51,9.62a.64.64,0,0,0,0-1.28H10.26a.64.64,0,0,0,0,1.28Zm0,0"/><path id="_Составной_контур_4" data-name="&lt;Составной контур&gt;" class="cls-1" d="M23.72,11.54H7.05a.64.64,0,0,0,0,1.28H23.72a.64.64,0,0,0,0-1.28Zm0,0"/><path id="_Составной_контур_5" data-name="&lt;Составной контур&gt;" class="cls-1" d="M9,18h.64a.64.64,0,0,0,0-1.28H9A.64.64,0,1,0,9,18Zm0,0"/><path id="_Составной_контур_6" data-name="&lt;Составной контур&gt;" class="cls-1" d="M9,21.16h.64a.64.64,0,0,0,0-1.28H9a.64.64,0,1,0,0,1.28Zm0,0"/><path id="_Составной_контур_7" data-name="&lt;Составной контур&gt;" class="cls-1" d="M9,24.36h.64a.64.64,0,0,0,0-1.28H9a.64.64,0,1,0,0,1.28Zm0,0"/><path id="_Составной_контур_8" data-name="&lt;Составной контур&gt;" class="cls-1" d="M21.8,16.67H12.18a.64.64,0,1,0,0,1.28H21.8a.64.64,0,0,0,0-1.28Zm0,0"/><path id="_Составной_контур_9" data-name="&lt;Составной контур&gt;" class="cls-1" d="M21.8,19.87H12.18a.64.64,0,1,0,0,1.28H21.8a.64.64,0,0,0,0-1.28Zm0,0"/><path id="_Составной_контур_10" data-name="&lt;Составной контур&gt;" class="cls-1" d="M21.8,23.08H12.18a.64.64,0,1,0,0,1.28H21.8a.64.64,0,0,0,0-1.28Zm0,0"/><path id="_Составной_контур_11" data-name="&lt;Составной контур&gt;" class="cls-1" d="M6.41,30.13a.64.64,0,0,0,.64.64h5.77a.64.64,0,0,0,0-1.28H7.05a.64.64,0,0,0-.64.64Zm0,0"/><path id="_Составной_контур_12" data-name="&lt;Составной контур&gt;" class="cls-1" d="M15.39,34.62h-9a3.21,3.21,0,0,0-2.5-2.5V6.35a3.21,3.21,0,0,0,2.5-2.5H24.43a3.21,3.21,0,0,0,2.5,2.5v19.3a.64.64,0,0,0,1.28,0V5.77a.64.64,0,0,0-.64-.64,1.93,1.93,0,0,1-1.92-1.92A.64.64,0,0,0,25,2.56H5.77a.64.64,0,0,0-.64.64A1.93,1.93,0,0,1,3.21,5.13a.64.64,0,0,0-.64.64V32.69a.64.64,0,0,0,.64.64,1.93,1.93,0,0,1,1.92,1.92.64.64,0,0,0,.64.64h9.62a.64.64,0,1,0,0-1.28Zm0,0"/></g></g></g></svg>