<svg xmlns="http://www.w3.org/2000/svg" viewBox="0 0 45.39 44.87"><defs><style>.cls-1{fill:#4d4d4d;stroke:#fff;stroke-miterlimit:10;stroke-width:0.5px;}</style></defs><title>user</title><g id="Слой_2" data-name="Слой 2"><g id="Слой_5" data-name="Слой 5"><g id="_Группа_" data-name="&lt;Группа&gt;"><path id="_Составной_контур_" data-name="&lt;Составной контур&gt;" class="cls-1" d="M13.76,10.8l.54,8.31a8.41,8.41,0,0,0,16.78,0l.62-9.49h0l.15-2.37a6.57,6.57,0,0,0-6.55-7H20.08a6.57,6.57,0,0,0-6.55,7ZM25.88,24.36A6.62,6.62,0,0,1,16.09,19l-.48-7.42c5-.46,7.78-2.3,9.14-3.62a5.19,5.19,0,0,0,1.55,1.14,17.57,17.57,0,0,0,3.58,1.17L29.3,19A6.59,6.59,0,0,1,25.88,24.36ZM28.79,3.55a4.73,4.73,0,0,1,1.28,3.58L30,8.44a14.32,14.32,0,0,1-2.87-.94c-1-.5-1.2-.92-1.2-1h0l1.47-3.93A4.78,4.78,0,0,1,28.79,3.55Zm-12.19,0A4.73,4.73,0,0,1,20.08,2h5.57L24.27,5.74A6.69,6.69,0,0,1,22.33,7.6a14.5,14.5,0,0,1-6.84,2.18l-.17-2.66A4.73,4.73,0,0,1,16.6,3.55Z"/><path id="_Составной_контур_2" data-name="&lt;Составной контур&gt;" class="cls-1" d="M45.12,43.56l-.86-4.77a13.27,13.27,0,0,0-10.6-10.68h0a13.34,13.34,0,0,0-2.46-.23H28.6a.89.89,0,0,0-.63.26l-5.27,5.27-5.27-5.27a.89.89,0,0,0-.63-.26h-2.6a13.34,13.34,0,0,0-2.46.23h0A13.27,13.27,0,0,0,1.13,38.79L.26,43.56a.89.89,0,0,0,.88,1.05h43.1a.89.89,0,0,0,.88-1.05ZM29,29.67h2.58l-4.43,4.43-4.43,4.43L21.4,37.24l1.93-1.93Zm-12.54,0,5,5L20.14,36l-1.87-1.87-4.43-4.43h2.58ZM2.21,42.83l.67-3.72A11.55,11.55,0,0,1,11.6,30L22.06,40.43a.89.89,0,0,0,1.26,0L33.79,30a11.55,11.55,0,0,1,8.71,9.14l.67,3.72Z"/></g></g></g></svg>