<svg xmlns="http://www.w3.org/2000/svg" viewBox="0 0 45.83 35.08"><defs><style>.cls-1{fill:#333}</style></defs><title>ic-users</title><g id="Слой_2" data-name="Слой 2"><g id="Слой_2-2" data-name="Слой 2"><g id="_Группа_" data-name="&amp;lt;Группа&amp;gt;"><path id="_Составной_контур_" data-name="&amp;lt;Составной контур&amp;gt;" class="cls-1" d="M14.32 14.33a11 11 0 0 0 2.49 6.92 8 8 0 0 0 6.12 3.11A8 8 0 0 0 29 21.25a11 11 0 0 0 2.48-6.92v-2.19a29.71 29.71 0 0 0 .77-6.64 14.48 14.48 0 0 0-.41-3.92.72.72 0 0 0-.75-.49H31A15 15 0 0 1 26.26.6c-2.8-.56-6-1.2-8.39.48h-.07a4.36 4.36 0 0 0-3.4 1.53 5.45 5.45 0 0 0-1.19 3.53 41.32 41.32 0 0 0 1.11 7zm13.61 6a6.55 6.55 0 0 1-5 2.59 6.57 6.57 0 0 1-5-2.59 9.56 9.56 0 0 1-2.16-6v-.86a13 13 0 0 1 1.64-5 22.5 22.5 0 0 1 11.73 1.5l1 2.26v2.13a9.56 9.56 0 0 1-2.15 6zM17.81 2.51h.15a.71.71 0 0 0 .58-.13C20.47.9 23.27 1.46 26 2a21.72 21.72 0 0 0 4.13.57h.53a23.61 23.61 0 0 1-.1 7.05l-.2-.48a.72.72 0 0 0-.36-.35c-.18-.12-5.1-2.79-13.09-1.74a.72.72 0 0 0-.58.36A20.24 20.24 0 0 0 15.12 10a24.12 24.12 0 0 1-.47-3.83c0-2.51 1.59-3.63 3.16-3.63zm0 0"/><path id="_Составной_контур_2" data-name="&amp;lt;Составной контур&amp;gt;" class="cls-1" d="M35.26 25.94L31 25l-1.13-1.71a1.26 1.26 0 0 0-1.8-.22L23 27.43l-5.07-4.36a1.26 1.26 0 0 0-1.8.22L14.88 25l-4.26.89a5.44 5.44 0 0 0-3 2.22 6.15 6.15 0 0 0-1.16 3.49v1.35a2.25 2.25 0 0 0 2.34 2.13H37a2.25 2.25 0 0 0 2.35-2.14V31.6a6.15 6.15 0 0 0-1.07-3.43 5.45 5.45 0 0 0-3-2.22zm-6.5-1.63l.89 1.35-3.56 4.89L24 28.44zm-6.31 7.91h.94l.29 1.43h-1.52zm1.19-1.82c0 .24-.14.39-.24.39h-1c-.09 0-.24-.16-.24-.39v-.28l.72-.72.72.72zm-6.56-6.09l4.79 4.12-2.12 2.12-3.56-4.89zm-9.19 8.63V31.6a4.45 4.45 0 0 1 3-4.27l4.11-.85 4.07 5.6a.72.72 0 0 0 .52.29h.06a.71.71 0 0 0 .51-.21l.84-.83.12.2-.42 2.13H8.8a.84.84 0 0 1-.91-.71zm30.05 0a.84.84 0 0 1-.91.71h-11.9l-.43-2.13.13-.2.84.84a.72.72 0 0 0 .51.21h.06a.72.72 0 0 0 .52-.29l4.07-5.6 4.07.85a4.45 4.45 0 0 1 3 4.27zm0 0"/><path id="_Составной_контур_3" data-name="&amp;lt;Составной контур&amp;gt;" class="cls-1" d="M5.74 15.67a6.94 6.94 0 0 0 1.67 4.6 5.43 5.43 0 0 0 4.1 1.93 5.29 5.29 0 0 0 3.25-1.13.72.72 0 0 0-.87-1.14 3.87 3.87 0 0 1-2.37.83c-2.39 0-4.34-2.28-4.34-5.09v-.42a11.79 11.79 0 0 1 .71-3.34 16.76 16.76 0 0 1 4.05.23h.24a.72.72 0 0 0 .1-1.42h-.13a17 17 0 0 0-4.87-.19H7v.06l-.14.37a10.37 10.37 0 0 1-.09-1.23C6.47 8.59 7.21 7.9 8 7.9h.21a.71.71 0 0 0 .43-.15 3.76 3.76 0 0 1 2.8-.55.72.72 0 0 0 .14-1.43 5.41 5.41 0 0 0-3.6.69C6.23 6.48 5 8 5 10.14a29.29 29.29 0 0 0 .71 4.77zm0 0"/><path id="_Составной_контур_4" data-name="&amp;lt;Составной контур&amp;gt;" class="cls-1" d="M5 28.64H1.82c-.22 0-.39-.13-.39-.25v-.92a2.8 2.8 0 0 1 1.9-2.68l2.61-.55 1.35 1.94a.72.72 0 1 0 1.18-.82l-1.35-1.93.4-.6 2.79 2.08a.72.72 0 1 0 .86-1.15l-3.06-2.28a1.09 1.09 0 0 0-1.54.2l-.75 1.12-2.82.59a4.25 4.25 0 0 0-3 4.07v.92a1.76 1.76 0 0 0 1.82 1.69H5a.72.72 0 0 0 0-1.43zm0 0"/><path id="_Составной_контур_5" data-name="&amp;lt;Составной контур&amp;gt;" class="cls-1" d="M33.64 6.44a24.9 24.9 0 0 1 3.36.39c.85.14 1.67.27 2.37.31 0 1.7-.14 3.22-.26 4.45a11.8 11.8 0 0 0-5.4-1.59.72.72 0 1 0-.11 1.43 10.62 10.62 0 0 1 4.51 1.22 6.91 6.91 0 0 1 .54 2.58v.42c0 2.81-1.95 5.09-4.34 5.09a3.87 3.87 0 0 1-2.37-.83.72.72 0 1 0-.87 1.14 5.29 5.29 0 0 0 3.25 1.13 5.43 5.43 0 0 0 4.1-1.93 6.94 6.94 0 0 0 1.67-4.6v-.75a48.88 48.88 0 0 0 .71-8.28.72.72 0 0 0-.7-.9H40a15.83 15.83 0 0 1-2.82-.31A26.43 26.43 0 0 0 33.67 5a.72.72 0 1 0 0 1.43zm0 0"/><path id="_Составной_контур_6" data-name="&amp;lt;Составной контур&amp;gt;" class="cls-1" d="M42.86 23.4L40 22.8l-.71-1.08a1.09 1.09 0 0 0-1.54-.2l-3.07 2.29a.72.72 0 0 0 .86 1.15l2.79-2.09.4.6-1.34 1.93a.72.72 0 1 0 1.18.82l1.35-1.94 2.61.55a2.8 2.8 0 0 1 1.9 2.68v.92c0 .12-.17.25-.39.25h-3.22a.72.72 0 1 0 0 1.43H44a1.76 1.76 0 0 0 1.83-1.69v-.92a4.25 4.25 0 0 0-3-4.07zm0 0"/></g></g></g></svg>