<svg xmlns="http://www.w3.org/2000/svg" viewBox="0 0 21.88 11.91"><defs><style>.cls-1{fill:#b3b3b3;}</style></defs><title>view</title><g id="Слой_2" data-name="Слой 2"><g id="Слой_2-2" data-name="Слой 2"><g id="_Группа_" data-name="&lt;Группа&gt;"><g id="_Группа_2" data-name="&lt;Группа&gt;"><path id="_Составной_контур_" data-name="&lt;Составной контур&gt;" class="cls-1" d="M10.94,11.91A13.43,13.43,0,0,1,3.28,9.12,19.37,19.37,0,0,1,.15,6.36a.62.62,0,0,1,0-.81A19.37,19.37,0,0,1,3.28,2.78,13.43,13.43,0,0,1,10.94,0a13.43,13.43,0,0,1,7.66,2.78,19.37,19.37,0,0,1,3.13,2.77.62.62,0,0,1,0,.81,19.37,19.37,0,0,1-3.13,2.77,13.43,13.43,0,0,1-7.66,2.78ZM1.47,6A19.51,19.51,0,0,0,4,8.13a12.43,12.43,0,0,0,6.91,2.53,12.44,12.44,0,0,0,6.91-2.53A19.52,19.52,0,0,0,20.41,6a19.52,19.52,0,0,0-2.56-2.18,12.44,12.44,0,0,0-6.91-2.53A12.43,12.43,0,0,0,4,3.77,19.52,19.52,0,0,0,1.47,6Zm0,0"/><path id="_Составной_контур_2" data-name="&lt;Составной контур&gt;" class="cls-1" d="M10.94,9.79a3.84,3.84,0,1,1,2.53-6.72.62.62,0,0,1-.82.93,2.6,2.6,0,1,0,.89,2,.62.62,0,0,1,1.24,0,3.84,3.84,0,0,1-3.84,3.84Zm0,0"/><path id="_Составной_контур_3" data-name="&lt;Составной контур&gt;" class="cls-1" d="M10.94,7.19A1.24,1.24,0,1,1,12.17,6a1.24,1.24,0,0,1-1.24,1.24Zm0,0"/></g></g></g></g></svg>