<svg width="288" height="86" viewBox="0 0 288 86" fill="none" xmlns="http://www.w3.org/2000/svg">
<g clip-path="url(#clip0_12749_46815)">
<mask id="mask0_12749_46815" style="mask-type:luminance" maskUnits="userSpaceOnUse" x="43" y="18" width="51" height="50">
<path d="M43.6035 18.6728H93.3716V67.3286H43.6035V18.6728Z" fill="white"/>
</mask>
<g mask="url(#mask0_12749_46815)">
<path d="M86.2615 43.0046C86.2615 33.4075 78.3037 25.6275 68.4872 25.6275C58.6707 25.6275 50.7129 33.4075 50.7129 43.0046C50.7129 51.1541 56.4515 57.9921 64.1934 59.8699V48.3147H60.5282V43.0046H64.1934V40.7164C64.1934 34.8018 66.9312 32.0604 72.8707 32.0604C73.9967 32.0604 75.9397 32.2762 76.7346 32.4921V37.3059C76.315 37.2627 75.5864 37.2411 74.6811 37.2411C71.7667 37.2411 70.6405 38.3204 70.6405 41.1266V43.0046H76.4463L75.4489 48.3147H70.6405V60.2544C79.4414 59.2152 86.2615 51.889 86.2615 43.0046Z" fill="#2C64F6"/>
</g>
</g>
<g clip-path="url(#clip1_12749_46815)">
<path d="M108.183 34.0644C106.627 34.0644 106.178 34.737 106.178 36.2203V38.681H110.327L109.911 42.6564H106.179V54.7209H101.2V42.6564H97.8457V38.681H101.2V36.2878C101.2 32.2779 102.859 30.1597 107.486 30.1597C108.456 30.1575 109.425 30.2136 110.388 30.3279V34.0692L108.183 34.0644Z" fill="#1877F2"/>
<path d="M110.67 46.1944C110.67 41.7131 112.848 38.3379 117.411 38.3379C119.9 38.3379 121.42 39.5855 122.147 41.1348V38.6804H126.916V54.7204H122.147V52.2943C121.455 53.8452 119.9 55.0582 117.411 55.0582C112.848 55.0582 110.67 51.6878 110.67 47.2017V46.1944ZM115.647 47.2739C115.647 49.6655 116.545 51.2494 118.862 51.2494C120.902 51.2494 121.939 49.8006 121.939 47.5096V45.899C121.939 43.6081 120.902 42.1593 118.862 42.1593C116.545 42.1593 115.647 43.7432 115.647 46.1347V47.2739Z" fill="#1877F2"/>
<path d="M137.288 38.3433C139.222 38.3433 141.054 38.7487 142.057 39.4212L140.951 42.8592C139.914 42.3778 138.781 42.1245 137.632 42.1175C134.936 42.1175 133.764 43.6339 133.764 46.2297V47.1725C133.764 49.7683 134.939 51.2846 137.632 51.2846C138.781 51.2775 139.914 51.0244 140.951 50.5429L142.057 53.9794C141.054 54.6535 139.223 55.0589 137.288 55.0589C131.444 55.0589 128.783 51.9917 128.783 47.0719V46.3302C128.783 41.4105 131.444 38.3433 137.288 38.3433Z" fill="#1877F2"/>
<path d="M142.715 47.3137V45.8995C142.715 41.3505 145.376 38.3572 150.805 38.3572C155.921 38.3572 158.168 41.3898 158.168 45.8382V48.3994H147.691C147.796 50.5898 148.798 51.5672 151.559 51.5672C153.427 51.5672 155.397 51.1964 156.849 50.5898L157.76 53.9132C156.446 54.5888 153.75 55.0932 151.366 55.0932C145.065 55.0916 142.715 52.0276 142.715 47.3137ZM147.692 45.2238H153.708V44.82C153.708 43.068 152.983 41.6774 150.807 41.6774C148.558 41.6789 147.692 43.0617 147.692 45.2175V45.2238Z" fill="#1877F2"/>
<path d="M176.619 47.207C176.619 51.6883 174.407 55.0635 169.849 55.0635C167.36 55.0635 165.632 53.8505 164.94 52.2996V54.7257H160.24V30.6265L165.218 30.1865V40.9029C165.943 39.4887 167.534 38.3416 169.85 38.3416C174.414 38.3416 176.62 41.7121 176.62 46.1982L176.619 47.207ZM171.641 46.0945C171.641 43.8365 170.743 42.1521 168.358 42.1521C166.317 42.1521 165.211 43.5662 165.211 45.8588V47.5432C165.211 49.8342 166.317 51.2499 168.358 51.2499C170.743 51.2499 171.641 49.5655 171.641 47.3075V46.0945Z" fill="#1877F2"/>
<path d="M178.283 47.1049V46.2972C178.283 41.6792 180.98 38.3433 186.476 38.3433C191.973 38.3433 194.671 41.6792 194.671 46.2972V47.1049C194.671 51.7214 191.975 55.0589 186.478 55.0589C180.982 55.0589 178.283 51.7214 178.283 47.1049ZM189.692 45.9594C189.692 43.8366 188.793 42.1521 186.468 42.1521C184.144 42.1521 183.253 43.8366 183.253 45.9594V47.4427C183.253 49.5656 184.152 51.25 186.468 51.25C188.785 51.25 189.692 49.5656 189.692 47.4427V45.9594Z" fill="#1877F2"/>
<path d="M196.326 47.1049V46.2972C196.326 41.6792 199.023 38.3433 204.519 38.3433C210.016 38.3433 212.713 41.6792 212.713 46.2972V47.1049C212.713 51.7214 210.016 55.0589 204.519 55.0589C199.023 55.0589 196.326 51.7214 196.326 47.1049ZM207.735 45.9594C207.735 43.8366 206.836 42.1521 204.519 42.1521C202.203 42.1521 201.305 43.8366 201.305 45.9594V47.4427C201.305 49.5656 202.203 51.25 204.519 51.25C206.836 51.25 207.735 49.5656 207.735 47.4427V45.9594Z" fill="#1877F2"/>
<path d="M219.557 46.3297L224.465 38.6805H229.754L224.604 46.5999L229.962 54.7205H224.673L219.557 46.8639V54.7205H214.578V30.626L219.557 30.186V46.3297Z" fill="#1877F2"/>
</g>
<defs>
<clipPath id="clip0_12749_46815">
<rect width="35.5487" height="34.7542" fill="white" transform="translate(50.7168 25.627)"/>
</clipPath>
<clipPath id="clip1_12749_46815">
<rect width="132.117" height="24.9265" fill="white" transform="translate(97.8457 30.1592)"/>
</clipPath>
</defs>
</svg>
