<svg width="288" height="86" viewBox="0 0 288 86" fill="none" xmlns="http://www.w3.org/2000/svg">
<g clip-path="url(#clip0_12681_92053)">
<path d="M134.106 43.5902C134.106 49.9752 129.226 54.6802 123.236 54.6802C117.246 54.6802 112.365 49.9752 112.365 43.5902C112.365 37.1602 117.246 32.5002 123.236 32.5002C129.226 32.5002 134.106 37.1602 134.106 43.5902ZM129.348 43.5902C129.348 39.6002 126.519 36.8702 123.236 36.8702C119.953 36.8702 117.124 39.6002 117.124 43.5902C117.124 47.5402 119.953 50.3102 123.236 50.3102C126.519 50.3102 129.348 47.5352 129.348 43.5902Z" fill="#E63125"/>
<path d="M157.557 43.5902C157.557 49.9752 152.677 54.6802 146.687 54.6802C140.697 54.6802 135.816 49.9752 135.816 43.5902C135.816 37.1652 140.697 32.5002 146.687 32.5002C152.677 32.5002 157.557 37.1602 157.557 43.5902ZM152.799 43.5902C152.799 39.6002 149.97 36.8702 146.687 36.8702C143.404 36.8702 140.575 39.6002 140.575 43.5902C140.575 47.5402 143.404 50.3102 146.687 50.3102C149.97 50.3102 152.799 47.5352 152.799 43.5902Z" fill="#F6AD01"/>
<path d="M180.031 33.1702V53.0802C180.031 61.2702 175.312 64.6152 169.733 64.6152C164.481 64.6152 161.32 61.0202 160.127 58.0802L164.27 56.3152C165.008 58.1202 166.816 60.2502 169.728 60.2502C173.299 60.2502 175.512 57.9952 175.512 53.7502V52.1552H175.346C174.281 53.5002 172.229 54.6752 169.64 54.6752C164.222 54.6752 159.258 49.8452 159.258 43.6302C159.258 37.3702 164.222 32.5002 169.64 32.5002C172.224 32.5002 174.276 33.6752 175.346 34.9802H175.512V33.1752H180.031V33.1702ZM175.849 43.6302C175.849 39.7252 173.304 36.8702 170.065 36.8702C166.782 36.8702 164.031 39.7252 164.031 43.6302C164.031 47.4952 166.782 50.3102 170.065 50.3102C173.304 50.3102 175.849 47.4952 175.849 43.6302Z" fill="#3174F1"/>
<path d="M187.481 21.5V54H182.84V21.5H187.481Z" fill="#34A853"/>
<path d="M205.569 47.2401L209.262 49.7601C208.07 51.5651 205.198 54.6751 200.234 54.6751C194.078 54.6751 189.48 49.8051 189.48 43.5851C189.48 36.9901 194.117 32.4951 199.701 32.4951C205.325 32.4951 208.075 37.0751 208.974 39.5501L209.468 40.8101L194.982 46.9501C196.091 49.1751 197.815 50.3101 200.234 50.3101C202.657 50.3101 204.338 49.0901 205.569 47.2401ZM194.2 43.2501L203.883 39.1351C203.351 37.7501 201.748 36.7851 199.862 36.7851C197.444 36.7851 194.078 38.9701 194.2 43.2501Z" fill="#E63125"/>
<path d="M94.7959 40.7049V35.9999H110.288C110.44 36.8199 110.518 37.7899 110.518 38.8399C110.518 42.3699 109.575 46.7349 106.536 49.8449C103.58 52.9949 99.8037 54.6749 94.8008 54.6749C85.5279 54.6749 77.7305 46.9449 77.7305 37.4549C77.7305 27.9649 85.5279 20.2349 94.8008 20.2349C99.9307 20.2349 103.585 22.2949 106.331 24.9799L103.087 28.2999C101.118 26.4099 98.4504 24.9399 94.7959 24.9399C88.0245 24.9399 82.7285 30.5249 82.7285 37.4549C82.7285 44.3849 88.0245 49.9699 94.7959 49.9699C99.1881 49.9699 101.69 48.1649 103.292 46.5249C104.592 45.1949 105.447 43.2949 105.784 40.6999L94.7959 40.7049Z" fill="#3174F1"/>
</g>
<defs>
<clipPath id="clip0_12681_92053">
<rect width="132.889" height="46" fill="white" transform="translate(77.5547 20)"/>
</clipPath>
</defs>
</svg>
