<svg width="288" height="86" viewBox="0 0 288 86" fill="none" xmlns="http://www.w3.org/2000/svg">
<g clip-path="url(#clip0_12749_1444)">
<mask id="mask0_12749_1444" style="mask-type:luminance" maskUnits="userSpaceOnUse" x="116" y="15" width="55" height="54">
<path d="M143.998 19.8642C151.207 19.8642 152.061 19.8912 154.909 20.0212C157.541 20.1413 158.971 20.5807 159.922 20.9507C161.183 21.4409 162.082 22.0252 163.027 22.97C163.972 23.9149 164.557 24.8141 165.046 26.0748C165.416 27.0261 165.856 28.4557 165.976 31.0884C166.106 33.9357 166.133 34.7894 166.133 41.999C166.133 49.2087 166.106 50.0621 165.976 52.9094C165.856 55.5422 165.416 56.9718 165.046 57.9231C164.556 59.1839 163.972 60.083 163.027 61.0278C162.082 61.9725 161.183 62.5581 159.922 63.0471C158.971 63.4171 157.541 63.8565 154.909 63.9766C152.061 64.1064 151.208 64.1337 143.998 64.1337C136.788 64.1337 135.935 64.1067 133.088 63.9766C130.455 63.8565 129.025 63.4171 128.074 63.0471C126.813 62.5568 125.914 61.9725 124.969 61.0278C124.025 60.083 123.439 59.1837 122.95 57.9231C122.58 56.9718 122.14 55.5422 122.02 52.9094C121.891 50.0624 121.863 49.2085 121.863 41.999C121.863 34.7896 121.89 33.9359 122.02 31.0884C122.14 28.4557 122.58 27.0261 122.95 26.0748C123.44 24.8139 124.024 23.9149 124.969 22.97C125.914 22.0254 126.813 21.4398 128.074 20.9507C129.025 20.5807 130.455 20.1413 133.088 20.0212C135.935 19.8925 136.789 19.8642 143.998 19.8642ZM143.998 15C136.665 15 135.745 15.0313 132.866 15.1622C129.991 15.2931 128.029 15.75 126.312 16.4175C124.536 17.1079 123.031 18.0311 121.53 19.532C120.029 21.033 119.105 22.5382 118.416 24.314C117.748 26.0316 117.291 27.9945 117.16 30.8677C117.029 33.7475 116.998 34.6673 116.998 41.9999C116.998 49.3325 117.029 50.2525 117.16 53.1321C117.291 56.0064 117.748 57.9684 118.416 59.6857C119.106 61.4616 120.029 62.9668 121.53 64.4678C123.031 65.9689 124.537 66.8919 126.312 67.5823C128.03 68.25 129.993 68.7067 132.866 68.8376C135.745 68.9685 136.665 68.9998 143.998 68.9998C151.331 68.9998 152.25 68.9685 155.13 68.8376C158.004 68.7067 159.966 68.2498 161.684 67.5823C163.46 66.8917 164.965 65.9687 166.466 64.4678C167.967 62.9668 168.89 61.4605 169.58 59.6857C170.248 57.9684 170.705 56.0053 170.836 53.1321C170.967 50.2525 170.998 49.3327 170.998 41.9999C170.998 34.6671 170.967 33.7473 170.836 30.8677C170.705 27.9934 170.248 26.0314 169.58 24.314C168.89 22.5382 167.967 21.033 166.466 19.532C164.965 18.0311 163.459 17.1079 161.684 16.4175C159.966 15.7498 158.003 15.2931 155.13 15.1622C152.251 15.0313 151.331 15 143.998 15ZM143.998 28.1353C136.34 28.1353 130.133 34.3425 130.133 41.9999C130.133 49.6573 136.34 55.8647 143.998 55.8647C151.655 55.8647 157.863 49.6573 157.863 41.9999C157.863 34.3425 151.655 28.1353 143.998 28.1353ZM143.998 51.0005C139.028 51.0005 134.998 46.9716 134.998 42.0001C134.998 37.0286 139.028 32.9997 143.998 32.9997C148.968 32.9997 152.998 37.0286 152.998 42.0001C152.998 46.9716 148.968 51.0005 143.998 51.0005ZM158.41 24.3477C156.62 24.3477 155.17 25.7978 155.17 27.5877C155.17 29.3776 156.62 30.8279 158.41 30.8279C160.2 30.8279 161.651 29.3776 161.651 27.5877C161.651 25.7978 160.2 24.3477 158.41 24.3477Z" fill="white"/>
</mask>
<g mask="url(#mask0_12749_1444)">
<rect x="101.809" y="-0.19165" width="84.2451" height="84.2451" fill="#B5BBC2"/>
</g>
</g>
<defs>
<clipPath id="clip0_12749_1444">
<rect width="54" height="54" fill="white" transform="translate(117 15)"/>
</clipPath>
</defs>
</svg>
