<svg width="288" height="86" viewBox="0 0 288 86" fill="none" xmlns="http://www.w3.org/2000/svg">
<g clip-path="url(#clip0_12749_6669)">
<path d="M144 72C160.016 72 173 59.0163 173 43C173 26.9837 160.016 14 144 14C127.984 14 115 26.9837 115 43C115 59.0163 127.984 72 144 72Z" fill="url(#paint0_linear_12749_6669)"/>
<path fill-rule="evenodd" clip-rule="evenodd" d="M128.126 42.6939C136.58 39.0106 142.217 36.5823 145.038 35.4091C153.092 32.0593 154.765 31.4774 155.856 31.4582C156.096 31.454 156.632 31.5134 156.98 31.7954C157.273 32.0334 157.354 32.355 157.392 32.5807C157.431 32.8064 157.479 33.3206 157.441 33.7224C157.005 38.308 155.116 49.436 154.155 54.5719C153.749 56.7451 152.948 57.4738 152.173 57.5451C150.489 57.7 149.211 56.4321 147.579 55.3629C145.027 53.6898 143.585 52.6483 141.108 51.0156C138.244 49.1288 140.101 48.0918 141.732 46.397C142.159 45.9535 149.579 39.2043 149.723 38.592C149.741 38.5155 149.758 38.23 149.588 38.0793C149.419 37.9286 149.168 37.9801 148.988 38.0211C148.732 38.0792 144.654 40.7743 136.755 46.1063C135.598 46.901 134.55 47.2882 133.61 47.2679C132.575 47.2456 130.583 46.6825 129.102 46.2012C127.286 45.6108 125.843 45.2987 125.969 44.2961C126.034 43.7739 126.753 43.2398 128.126 42.6939Z" fill="white"/>
</g>
<defs>
<linearGradient id="paint0_linear_12749_6669" x1="3015" y1="14" x2="3015" y2="5770.98" gradientUnits="userSpaceOnUse">
<stop stop-color="#2AABEE"/>
<stop offset="1" stop-color="#229ED9"/>
</linearGradient>
<clipPath id="clip0_12749_6669">
<rect width="58" height="58" fill="white" transform="translate(115 14)"/>
</clipPath>
</defs>
</svg>
