<svg width="288" height="86" viewBox="0 0 288 86" fill="none" xmlns="http://www.w3.org/2000/svg">
<path d="M228.87 49.3813C228.332 49.3813 227.895 49.8313 227.895 50.3854C227.895 50.9395 228.332 51.3895 228.87 51.3895C229.408 51.3895 229.845 50.9395 229.845 50.3854C229.845 49.8313 229.408 49.3813 228.87 49.3813ZM228.87 51.2303C228.416 51.2303 228.049 50.8503 228.049 50.3854C228.049 49.9183 228.418 49.5405 228.87 49.5405C229.323 49.5405 229.692 49.9205 229.692 50.3854C229.692 50.8503 229.323 51.2303 228.87 51.2303ZM229.187 50.2134C229.187 50.0309 229.061 49.9226 228.876 49.9226H228.564V50.8376H228.717V50.5064H228.884L229.045 50.8376H229.21L229.032 50.4725C229.127 50.4279 229.187 50.3386 229.187 50.2134ZM228.87 50.3642H228.719V50.0606H228.87C228.973 50.0606 229.035 50.1137 229.035 50.2114C229.035 50.3111 228.971 50.3642 228.87 50.3642ZM111.383 39.2189V36.7903H107.767V51.2388H111.383V42.5753C111.383 41.0064 112.36 40.2358 113.883 40.2358H115.862V36.7903H114.172C112.848 36.7903 111.698 37.5014 111.383 39.2189ZM119.249 31.0754C118.012 31.0754 117.064 32.0817 117.064 33.3555C117.064 34.5995 118.012 35.6057 119.249 35.6057C120.486 35.6057 121.434 34.5995 121.434 33.3555C121.434 32.0817 120.486 31.0754 119.249 31.0754ZM117.445 51.2388H121.053V36.7903H117.445V51.2388ZM138.237 44.0145C138.237 48.1393 134.99 51.483 130.985 51.483C129.369 51.483 127.903 50.9374 126.728 50.016V55.4804H123.12V36.7903H126.728V38.013C127.903 37.0917 129.369 36.5461 130.985 36.5461C134.99 36.5461 138.237 39.8897 138.237 44.0145ZM134.607 44.0145C134.607 41.7749 132.842 39.9576 130.667 39.9576C128.493 39.9576 126.728 41.7749 126.728 44.0145C126.728 46.2542 128.493 48.0714 130.667 48.0714C132.842 48.0714 134.607 46.2564 134.607 44.0145ZM200.937 42.7472L198.833 42.1528C197.447 41.7812 196.909 41.3439 196.909 40.5903C196.909 39.8558 197.668 39.342 198.752 39.342C199.785 39.342 200.595 40.0383 200.595 40.9299V41.0127H203.92V40.9299C203.92 38.3081 201.844 36.5461 198.752 36.5461C195.691 36.5461 193.467 38.306 193.467 40.7324C193.467 42.6197 194.681 44.0421 196.8 44.6322L198.816 45.1991C200.348 45.6364 200.917 46.1204 200.917 46.9887C200.917 47.9037 200.094 48.5193 198.87 48.5193C197.594 48.5193 196.734 47.6871 196.734 46.4516V46.3688H193.205V46.4516C193.205 49.4152 195.522 51.4871 198.841 51.4871C202.038 51.4871 204.359 49.464 204.359 46.6787C204.359 45.3116 203.766 43.5242 200.937 42.7472ZM151.034 36.7903H154.642V51.2388H151.034V50.0159C149.859 50.9373 148.394 51.4829 146.777 51.4829C142.772 51.4829 139.525 48.1393 139.525 44.0145C139.525 39.8896 142.772 36.5461 146.777 36.5461C148.394 36.5461 149.859 37.0917 151.034 38.013V36.7903ZM151.034 44.0145C151.034 41.7728 149.27 39.9576 147.095 39.9576C144.92 39.9576 143.156 41.7749 143.156 44.0145C143.156 46.2542 144.92 48.0714 147.095 48.0714C149.272 48.0714 151.034 46.2564 151.034 44.0145ZM167.668 31.6486H171.275V51.2409H167.668V50.0181C166.493 50.9395 165.027 51.485 163.411 51.485C159.406 51.485 156.159 48.1415 156.159 44.0166C156.159 39.8918 159.406 36.5482 163.411 36.5482C165.027 36.5482 166.493 37.0938 167.668 38.0151V31.6486ZM167.668 44.0145C167.668 41.7749 165.903 39.9576 163.729 39.9576C161.554 39.9576 159.789 41.7749 159.789 44.0145C159.789 46.2542 161.552 48.0714 163.729 48.0714C165.903 48.0714 167.668 46.2564 167.668 44.0145ZM188.025 51.2388H191.632V36.7903H188.025V51.2388ZM189.828 31.0754C188.591 31.0754 187.643 32.0817 187.643 33.3555C187.643 34.5995 188.591 35.6057 189.828 35.6057C191.065 35.6057 192.013 34.5995 192.013 33.3555C192.013 32.0817 191.065 31.0754 189.828 31.0754ZM219.952 44.0145C219.952 48.1393 216.705 51.483 212.7 51.483C208.694 51.483 205.448 48.1394 205.448 44.0145C205.448 39.8897 208.694 36.5461 212.7 36.5461C216.705 36.5461 219.952 39.8897 219.952 44.0145ZM216.639 44.0145C216.639 41.7749 214.875 39.9576 212.7 39.9576C210.525 39.9576 208.76 41.7749 208.76 44.0145C208.76 46.2542 210.523 48.0714 212.7 48.0714C214.875 48.0714 216.639 46.2564 216.639 44.0145ZM109.536 31.6486H95.6973V34.9625H100.82V51.2388H104.415V34.9625H109.538V31.6486H109.536ZM179.519 47.2817L176.309 36.7903H172.521L177.334 51.2388H181.675L186.518 36.7903H182.729L179.519 47.2817ZM225.237 39.2189V36.7903H221.622V51.2388H225.237V42.5753C225.237 41.0064 226.215 40.2358 227.738 40.2358H229.717V36.7903H228.027C226.703 36.7903 225.555 37.5014 225.237 39.2189Z" fill="#B5BBC2"/>
<path d="M74.8326 61.9932C85.0221 61.9932 93.2824 53.4866 93.2824 42.9932C93.2824 32.4998 85.0221 23.9932 74.8326 23.9932C64.6431 23.9932 56.3828 32.4998 56.3828 42.9932C56.3828 53.4866 64.6431 61.9932 74.8326 61.9932Z" fill="white"/>
<path d="M86.2282 39.2848L88.4546 36.7904H83.5174C81.0458 35.0517 78.0608 34.0391 74.8326 34.0391C71.6085 34.0391 68.6319 35.0539 66.1643 36.7904H61.2148L63.4412 39.2848C62.0765 40.567 61.221 42.414 61.221 44.4647C61.221 48.3348 64.2679 51.4724 68.0259 51.4724C69.8111 51.4724 71.4375 50.7634 72.6517 49.6042L74.8327 52.0498L77.0137 49.6064C78.2279 50.7655 79.8522 51.4724 81.6374 51.4724C85.3954 51.4724 88.4463 48.3348 88.4463 44.4647C88.4484 42.4118 87.5929 40.5649 86.2282 39.2848ZM68.0279 49.2072C65.484 49.2072 63.4227 47.0844 63.4227 44.4647C63.4227 41.845 65.4841 39.7221 68.0279 39.7221C70.5717 39.7221 72.6331 41.845 72.6331 44.4647C72.6331 47.0844 70.5717 49.2072 68.0279 49.2072ZM74.8347 44.3267C74.8347 41.206 72.6311 38.5269 69.7224 37.3827C71.2952 36.7054 73.0206 36.3297 74.8326 36.3297C76.6446 36.3297 78.3721 36.7054 79.945 37.3827C77.0384 38.5291 74.8347 41.2061 74.8347 44.3267ZM81.6395 49.2072C79.0957 49.2072 77.0343 47.0844 77.0343 44.4647C77.0343 41.845 79.0957 39.7221 81.6395 39.7221C84.1833 39.7221 86.2447 41.845 86.2447 44.4647C86.2447 47.0844 84.1833 49.2072 81.6395 49.2072ZM81.6395 41.9766C80.3057 41.9766 79.2255 43.089 79.2255 44.4626C79.2255 45.8361 80.3057 46.9485 81.6395 46.9485C82.9732 46.9485 84.0534 45.8361 84.0534 44.4626C84.0534 43.0912 82.9732 41.9766 81.6395 41.9766ZM70.4418 44.4647C70.4418 45.8382 69.3616 46.9506 68.0279 46.9506C66.6942 46.9506 65.614 45.8382 65.614 44.4647C65.614 43.0912 66.6942 41.9787 68.0279 41.9787C69.3616 41.9766 70.4418 43.0912 70.4418 44.4647Z" fill="#B5BBC2"/>
</svg>
