<svg width="288" height="86" viewBox="0 0 288 86" fill="none" xmlns="http://www.w3.org/2000/svg">
<path d="M160.946 57.2019H99.9609L104.806 61.9909L160.946 57.2019Z" fill="#7360F2"/>
<path d="M105.66 37.7643V38.5155C104.615 37.7643 103.38 37.3887 102.145 37.3887C97.8704 37.3887 94.6406 41.2386 94.6406 45.9337C94.6406 50.6287 97.8704 54.4787 102.145 54.4787C103.38 54.4787 104.615 54.1031 105.66 53.3519V54.1031H109.365V37.7643H105.66ZM102.145 50.6287C100.055 50.6287 98.5353 48.5629 98.5353 46.0276C98.5353 43.4923 100.055 41.4264 102.145 41.4264C104.235 41.4264 105.755 43.4923 105.755 46.0276C105.755 48.5629 104.235 50.6287 102.145 50.6287Z" fill="#7360F2"/>
<path d="M135.679 37.7643V47.3422C135.869 49.0324 134.634 50.5349 132.924 50.6288C131.214 50.8166 129.694 49.5959 129.599 47.9056C129.599 47.7178 129.599 47.53 129.599 47.3422V37.7643H125.895V47.3422C125.895 51.2861 128.649 54.4787 132.639 54.4787C133.779 54.4787 134.919 54.1031 135.869 53.4458V54.0092H139.669V37.6704H135.679V37.7643Z" fill="#7360F2"/>
<path d="M170.634 54.1031V44.5252C170.444 42.8349 171.679 41.3325 173.389 41.2386C175.099 41.0508 176.619 42.2715 176.714 43.9618C176.714 44.1496 176.714 44.3374 176.714 44.5252V54.1031H180.419V44.5252C180.419 40.5813 177.664 37.3887 173.674 37.3887C172.534 37.3887 171.394 37.7643 170.444 38.4216V37.8582H166.645V54.197L170.634 54.1031Z" fill="#7360F2"/>
<path d="M83.7177 54.1033V47.718H86.4725L91.3171 54.1033H96.2568L90.4622 46.4973C93.692 44.2437 94.4519 39.8303 92.1721 36.6377C90.8422 34.7596 88.6573 33.7267 86.3775 33.6328H79.918V54.1033H83.7177ZM83.7177 37.5767H86.2825C88.0874 37.5767 89.5123 38.9852 89.5123 40.7693C89.5123 42.5534 88.0874 43.9619 86.2825 43.9619H83.7177V37.5767Z" fill="#7360F2"/>
<path d="M149.546 50.2535C149.166 50.5352 148.786 50.6291 148.311 50.6291C147.266 50.6291 146.506 49.784 146.506 48.7511V48.6572V41.7085H149.736V37.8585H146.506V33.8208H142.801V37.8585H140.807V41.7085H142.801V48.7511C142.707 51.8498 145.176 54.479 148.311 54.5729H148.406C149.736 54.5729 150.971 54.1973 152.111 53.54L149.546 50.2535Z" fill="#7360F2"/>
<path d="M118.673 45.4645L125.133 37.7646H119.908L115.349 43.4926V32.3184H111.549V54.1034H115.349V47.4364L120.953 54.1034H126.178L118.673 45.4645Z" fill="#7360F2"/>
<path d="M158.192 37.3887C153.822 37.3887 150.688 41.1447 150.688 45.9337C150.688 51.0043 154.582 54.4787 158.477 54.4787C161.137 54.4787 163.702 53.0702 165.126 50.8165L161.802 48.9385C159.237 52.6946 154.962 50.8165 154.487 47.0605H165.316C166.361 41.2386 162.467 37.3887 158.192 37.3887ZM161.517 43.8679H154.772C155.532 40.0179 160.757 39.8301 161.517 43.8679Z" fill="#7360F2"/>
<path d="M192.673 52.6947L186.594 37.7644C186.499 37.5766 186.404 37.3888 186.404 37.201C186.404 37.0132 186.309 36.7315 186.309 36.5437C186.309 35.9803 186.499 35.4168 186.974 34.9473C187.449 34.5717 188.018 34.29 188.683 34.29C189.158 34.29 189.538 34.4778 189.918 34.7595C190.298 35.2291 190.583 35.6985 190.773 36.262L194.858 47.2484L198.848 36.4498C199.038 35.8863 199.323 35.3229 199.703 34.8534C200.083 34.5717 200.558 34.3839 201.033 34.3839C201.602 34.3839 202.172 34.5717 202.647 34.9473C203.027 35.3229 203.217 35.8863 203.217 36.4498C203.217 36.7315 203.217 36.9193 203.122 37.201C203.027 37.4827 203.027 37.7644 202.932 37.9522L197.043 52.6008C196.853 53.1642 196.568 53.6337 196.093 54.0093C195.713 54.291 195.238 54.4788 194.763 54.3849C194.288 54.3849 193.813 54.291 193.528 54.0093C193.148 53.6337 192.863 53.2581 192.673 52.6947Z" fill="#7360F2"/>
<path d="M208.537 51.4742C208.632 52.2254 208.442 53.0705 208.062 53.7278C207.682 54.1973 207.112 54.479 206.542 54.479C205.877 54.479 205.307 54.1973 204.927 53.7278C204.547 53.0705 204.357 52.2254 204.452 51.4742V43.2109C204.357 42.4597 204.547 41.6146 204.927 40.9573C205.307 40.4878 205.877 40.2061 206.542 40.2061C207.112 40.2061 207.777 40.3939 208.062 40.9573C208.442 41.6146 208.632 42.4597 208.537 43.2109V51.4742Z" fill="#7360F2"/>
<path d="M214.806 40.3934C215.281 40.0178 215.851 39.6422 216.421 39.4544C216.991 39.2665 217.656 39.1726 218.321 39.1726C220.221 39.1726 221.931 40.0177 223.166 41.4263C224.496 43.0226 225.16 44.9945 225.16 46.9664C225.16 48.9384 224.496 50.9103 223.166 52.3188C222.026 53.7273 220.221 54.5724 218.416 54.5724C217.751 54.5724 217.086 54.4785 216.421 54.1968C215.851 53.9151 215.281 53.5395 214.901 53.07C214.711 53.4456 214.331 53.8212 213.951 54.1029C213.571 54.2907 213.191 54.4785 212.811 54.4785C212.146 54.4785 211.576 54.1968 211.102 53.7273C210.722 52.9761 210.532 52.131 210.532 51.3798V37.6702C210.437 36.8251 210.627 35.98 211.102 35.2288C211.861 34.2898 213.191 34.1959 214.141 34.9471C214.236 35.041 214.331 35.1349 214.426 35.2288C214.806 35.98 214.996 36.8251 214.996 37.6702L214.806 40.3934ZM214.521 46.8725C214.426 47.9054 214.806 48.9384 215.376 49.7835C216.326 51.0042 218.131 51.2859 219.366 50.3469C219.556 50.1591 219.746 49.9713 219.936 49.7835C220.506 48.9384 220.886 47.9994 220.791 46.9664C220.791 45.9335 220.506 44.9006 219.936 44.0555C218.986 42.8348 217.181 42.5531 215.946 43.4921C215.756 43.6799 215.566 43.8677 215.376 44.0555C214.806 44.8067 214.426 45.8396 214.521 46.8725Z" fill="#7360F2"/>
<path d="M230.005 47.9998C230.195 48.751 230.575 49.4083 231.239 49.8778C231.904 50.3474 232.759 50.6291 233.519 50.5352C234.469 50.5352 235.419 50.2535 236.274 49.784C236.844 49.5023 237.509 49.2205 238.174 49.0327C238.649 49.0327 239.124 49.2205 239.409 49.5023C239.694 49.784 239.884 50.2535 239.884 50.723C239.884 51.662 239.219 52.5071 237.889 53.2583C236.464 54.0095 234.849 54.3851 233.234 54.3851C231.239 54.479 229.245 53.6339 227.82 52.2254C226.395 50.723 225.54 48.751 225.635 46.6852C225.54 44.6194 226.3 42.6475 227.725 41.145C230.48 38.2341 235.134 38.1402 238.079 40.9572C238.079 40.9572 238.079 40.9572 238.174 41.0511C239.504 42.3658 240.264 44.2438 240.264 46.1218C240.359 46.5913 240.169 47.1547 239.789 47.5303C239.314 47.812 238.649 47.9998 238.079 47.9059L230.005 47.9998ZM229.815 45.4645H236.274C236.274 44.6194 235.894 43.8682 235.324 43.3048C234.754 42.7414 233.994 42.4597 233.234 42.4597C232.474 42.4597 231.619 42.7414 231.049 43.2109C230.385 43.8682 229.91 44.6194 229.815 45.4645Z" fill="#7360F2"/>
<path d="M241.5 51.1921V42.4592C241.405 41.6141 241.595 40.769 242.07 40.1117C242.45 39.5483 243.115 39.2666 243.685 39.3605C244.065 39.3605 244.54 39.4544 244.825 39.7361C245.205 40.0178 245.585 40.3934 245.775 40.769C246.155 40.2995 246.63 39.9239 247.2 39.6422C247.675 39.3605 248.245 39.2666 248.72 39.2666C249.29 39.2666 249.86 39.4544 250.335 39.9239C250.715 40.2995 251 40.8629 251 41.4263C251 42.2714 250.145 43.0227 248.625 43.5861C248.055 43.7739 247.58 43.9617 247.295 44.0556C246.82 44.2434 246.44 44.5251 246.155 44.9007C245.965 45.4641 245.87 46.0275 245.87 46.5909V51.0981C245.965 51.9433 245.775 52.7884 245.3 53.4457C244.92 54.0091 244.255 54.2908 243.59 54.1969C242.925 54.2908 242.355 53.9152 241.975 53.4457C241.69 52.8823 241.405 52.0372 241.5 51.1921Z" fill="#7360F2"/>
<path d="M204.358 36.6379C204.358 36.0745 204.643 35.4172 205.023 35.0416C205.498 34.5721 206.068 34.3843 206.638 34.3843C207.208 34.3843 207.778 34.5721 208.253 35.0416C208.728 35.4172 208.918 36.0745 208.918 36.6379C208.918 37.8586 207.873 38.8915 206.638 38.8915C206.068 38.8915 205.403 38.7037 205.023 38.2342C204.548 37.7647 204.263 37.2013 204.358 36.6379Z" fill="#7360F2"/>
<path d="M68.7087 33.4448C67.9488 32.6936 64.814 30.44 57.7845 30.44C57.7845 30.44 49.5201 29.9705 45.4354 33.6326C43.1556 35.8862 42.3957 39.0789 42.3007 43.1166C42.2057 47.1544 42.1107 54.6665 49.5201 56.7323V59.831C49.5201 59.831 49.5201 61.1456 50.2801 61.3334C51.325 61.6151 51.895 60.6761 52.8449 59.6432C53.4149 59.0798 54.0798 58.2347 54.6498 57.5774C57.7845 57.8591 60.9193 57.6713 63.9591 56.9201C65.004 56.5445 70.7036 55.8872 71.6535 48.2812C72.6984 40.5813 71.2735 35.6984 68.7087 33.4448ZM69.5637 47.8117C68.8037 54.103 64.0541 54.4786 63.1991 54.7603C60.5393 55.4177 57.8795 55.6055 55.1247 55.4177C55.1247 55.4177 51.895 59.1737 50.945 60.2066C50.85 60.3005 50.6601 60.3944 50.4701 60.3944C50.2801 60.3005 50.2801 60.1127 50.2801 59.831C50.2801 59.5493 50.2801 54.6665 50.2801 54.6665C44.0105 52.9762 44.3905 46.4971 44.4855 43.2105C44.5805 39.924 45.2455 37.107 47.1453 35.2289C50.5651 32.2241 57.5945 32.5997 57.5945 32.5997C63.4841 32.5997 66.3339 34.3838 66.9989 34.9472C69.2787 36.9191 70.3236 41.3325 69.5637 47.8117Z" fill="#7360F2"/>
<path d="M60.6337 43.3044C60.3487 43.3044 60.2537 43.1166 60.2537 42.8349C60.2537 42.3654 60.1587 41.8959 59.7788 41.5203C59.3988 41.1447 59.0188 40.9569 58.5439 40.863C58.4489 40.863 58.3539 40.863 58.2589 40.863C58.0689 40.863 57.8789 40.6752 57.8789 40.4874C57.8789 40.2996 58.0689 40.1118 58.2589 40.1118C58.3539 40.1118 58.4489 40.1118 58.6389 40.1118C59.3038 40.2057 59.9688 40.4874 60.4437 41.0508C60.9187 41.6142 61.1087 42.2715 61.1087 42.9289C61.0137 43.2106 60.8237 43.3044 60.6337 43.3044Z" fill="#7360F2"/>
<path d="M62.6282 43.962C62.3432 43.962 62.2482 43.7742 62.2482 43.5864C62.3432 42.3657 61.8683 41.145 61.1083 40.2999C60.2534 39.3609 59.0185 38.8913 57.6886 38.8913C57.4986 38.8913 57.3086 38.7036 57.3086 38.5157C57.3086 38.3279 57.4986 38.1401 57.6886 38.1401C59.2085 38.1401 60.6333 38.7974 61.6783 39.8304C62.6282 40.8633 63.1982 42.2718 63.1032 43.6803C63.0082 43.7742 62.9132 43.962 62.6282 43.962Z" fill="#7360F2"/>
<path d="M64.7202 44.8078C64.4352 44.8078 64.3402 44.6199 64.3402 44.4321C64.4352 42.3663 63.6753 40.3005 62.1554 38.892C60.7305 37.5774 58.8306 36.8262 56.9307 36.8262C56.7408 36.8262 56.5508 36.6384 56.5508 36.4505C56.5508 36.2627 56.7408 36.0749 56.9307 36.0749C59.1156 35.981 61.2054 36.8262 62.7253 38.3286C64.3402 40.0188 65.1951 42.1785 65.1002 44.5261C65.1002 44.62 65.0052 44.8078 64.7202 44.8078Z" fill="#7360F2"/>
<path d="M58.3521 48.1879C58.6371 48.1879 59.0171 48.094 59.207 47.9062L59.777 47.155C60.157 46.6855 60.9169 46.5916 61.3919 46.9672C61.8668 47.2489 62.3418 47.5306 62.8168 47.9062C63.2917 48.2818 64.1467 48.9391 64.1467 48.9391C64.6216 49.3147 64.7166 49.8782 64.3367 50.3477C64.0517 50.9111 63.5767 51.3806 63.1018 51.8501C62.7218 52.1318 62.3418 52.4135 61.8668 52.4135C61.7719 52.4135 61.7719 52.4135 61.6769 52.4135C61.4869 52.4135 61.2969 52.4135 61.1069 52.3196C59.967 51.944 58.8271 51.3806 57.6872 50.7233C56.6422 50.1599 55.6923 49.5965 54.8374 48.8453C54.3624 48.4696 53.9824 48.094 53.6025 47.7184H53.5075C53.1275 47.3428 52.7475 46.8733 52.3675 46.4038C51.7026 45.5587 51.0376 44.6197 50.4677 43.5868C49.8027 42.5539 49.3278 41.4271 48.8528 40.2063C48.7578 40.0185 48.7578 39.8307 48.7578 39.6429C48.7578 39.549 48.7578 39.549 48.7578 39.4551C48.8528 38.9856 49.0428 38.61 49.3278 38.2344C49.7077 37.671 50.1827 37.2015 50.6577 36.8259C51.1326 36.5442 51.7976 36.6381 52.1776 37.0137C52.1776 37.0137 52.9375 37.9527 53.2225 38.3283C53.5075 38.7039 53.9824 39.3612 54.1724 39.7368C54.4574 40.3002 54.3624 40.9576 53.9824 41.3332L53.2225 41.8966C53.0325 42.0844 52.8425 42.46 52.9375 42.7417C53.8874 45.5587 55.8823 47.4367 58.3521 48.1879Z" fill="#7360F2"/>
</svg>
