<svg width="288" height="86" viewBox="0 0 288 86" fill="none" xmlns="http://www.w3.org/2000/svg">
<path d="M77.2373 23C66.1995 23 57.215 31.8912 57.2104 42.8193C57.2092 46.3125 58.1316 49.7223 59.8841 52.7277L57.043 63L67.6593 60.2437C70.5847 61.8228 73.8776 62.6547 77.2291 62.6559H77.2373C88.2739 62.6559 97.2583 53.7635 97.263 42.8355C97.2654 37.5395 95.184 32.5597 91.4029 28.8139C87.6218 25.067 82.594 23.0023 77.2373 23ZM77.2373 59.3087H77.2303C74.244 59.3087 71.314 58.5127 68.7585 57.0123L68.151 56.6554L61.8519 58.2914L63.5329 52.2121L63.1372 51.5888C61.4714 48.9657 60.5911 45.9336 60.5923 42.8216C60.5958 33.738 68.0632 26.3484 77.2443 26.3484C81.6903 26.3496 85.8694 28.0655 89.0113 31.1798C92.1545 34.293 93.8835 38.4327 93.8823 42.8343C93.8788 51.9179 86.4114 59.3087 77.2373 59.3087ZM86.3669 46.9706C85.8671 46.7226 83.4064 45.5246 82.9476 45.3589C82.4887 45.1933 82.155 45.111 81.8214 45.6069C81.4878 46.1028 80.5291 47.2185 80.2376 47.5487C79.9461 47.8801 79.6534 47.9206 79.1536 47.6727C78.6537 47.4247 77.0406 46.9011 75.1302 45.2141C73.6423 43.9014 72.6379 42.2793 72.3464 41.7835C72.055 41.2876 72.3148 41.0199 72.5665 40.7731C72.7913 40.5518 73.0664 40.195 73.3169 39.9053C73.5674 39.6157 73.6505 39.4095 73.8167 39.0781C73.983 38.7479 73.8999 38.4582 73.7746 38.2103C73.6493 37.9623 72.6485 35.5246 72.2317 34.5328C71.8255 33.5677 71.4135 33.6975 71.1056 33.6824C70.8141 33.6674 70.4805 33.665 70.1469 33.665C69.8132 33.665 69.2712 33.789 68.8124 34.2849C68.3535 34.7808 67.0611 35.9788 67.0611 38.4165C67.0611 40.8542 68.8545 43.2097 69.1038 43.5399C69.3543 43.8701 72.6321 48.873 77.6517 51.0176C78.8457 51.5274 79.7775 51.8321 80.5045 52.0604C81.7032 52.4369 82.7942 52.3836 83.6558 52.2562C84.6169 52.1137 86.6163 51.0582 87.033 49.9007C87.4497 48.7444 87.4497 47.7526 87.3245 47.5452C87.1992 47.339 86.8656 47.215 86.3658 46.9671L86.3669 46.9706ZM121.794 46.6682H121.741L118.421 33.4113H114.42L111.045 46.506H110.991L107.916 33.4113H103.643L108.787 52.6501H113.114L116.352 39.5543H116.407L119.7 52.6501H123.946L129.172 33.4113H124.981L121.796 46.6682H121.794ZM142.207 39.9181C141.826 39.4245 141.304 39.0387 140.643 38.7595C139.98 38.4826 139.131 38.3435 138.098 38.3435C137.372 38.3435 136.629 38.5266 135.865 38.8962C135.103 39.2635 134.478 39.852 133.988 40.6608H133.906V33.4113H130.041V52.6489H133.906V45.3474C133.906 43.9281 134.141 42.9096 134.614 42.2886C135.086 41.6699 135.848 41.3594 136.9 41.3594C137.825 41.3594 138.469 41.6421 138.833 42.2087C139.196 42.7741 139.377 43.6314 139.377 44.7808V52.6489H143.243V44.081C143.243 43.219 143.164 42.4334 143.011 41.7232C142.856 41.0153 142.589 40.4128 142.208 39.9181H142.207ZM158.128 49.5508V42.3037C158.128 41.4579 157.938 40.7801 157.556 40.2691C157.175 39.757 156.686 39.3573 156.088 39.07C155.488 38.7826 154.826 38.5892 154.1 38.4907C153.374 38.3922 152.658 38.3424 151.951 38.3424C151.171 38.3424 150.395 38.4177 149.625 38.5718C148.852 38.7247 148.159 38.9808 147.542 39.3399C146.925 39.6991 146.416 40.1753 146.019 40.7674C145.619 41.3606 145.392 42.1056 145.338 43.0046H149.202C149.275 42.2504 149.53 41.7105 149.965 41.3872C150.401 41.064 150.999 40.9029 151.761 40.9029C152.105 40.9029 152.427 40.9249 152.727 40.9701C153.025 41.0153 153.289 41.1033 153.516 41.2389C153.743 41.3733 153.924 41.5622 154.06 41.8055C154.196 42.0476 154.264 42.3767 154.264 42.788C154.281 43.1842 154.163 43.4831 153.91 43.6905C153.655 43.8979 153.311 44.0555 152.876 44.1621C152.44 44.271 151.941 44.3521 151.378 44.4042C150.815 44.4599 150.244 44.5328 149.665 44.6209C149.083 44.7113 148.507 44.8318 147.937 44.9847C147.365 45.1365 146.855 45.367 146.411 45.6706C145.967 45.9776 145.604 46.3855 145.322 46.8976C145.041 47.4097 144.9 48.062 144.9 48.851C144.9 49.5693 145.023 50.1892 145.268 50.7094C145.512 51.232 145.853 51.6618 146.288 52.0036C146.724 52.3454 147.232 52.5968 147.813 52.759C148.392 52.9201 149.02 53.0012 149.69 53.0012C150.561 53.0012 151.415 52.8749 152.248 52.6246C153.083 52.3709 153.81 51.9329 154.427 51.3026C154.444 51.5367 154.476 51.7661 154.521 51.9897C154.567 52.2133 154.626 52.4346 154.698 52.6489H158.617C158.436 52.3628 158.308 51.9318 158.236 51.3559C158.162 50.7813 158.126 50.1811 158.126 49.5508H158.128ZM154.264 47.2602C154.264 47.478 154.242 47.7654 154.196 48.1234C154.152 48.4837 154.029 48.8371 153.828 49.1882C153.628 49.5381 153.319 49.8405 152.902 50.0907C152.486 50.3433 151.896 50.4684 151.132 50.4684C150.825 50.4684 150.525 50.4418 150.235 50.3862C149.944 50.3329 149.69 50.2379 149.473 50.1035C149.255 49.9691 149.083 49.7848 148.955 49.5508C148.829 49.3168 148.764 49.0306 148.764 48.69C148.764 48.3308 148.829 48.033 148.955 47.8001C149.083 47.5673 149.25 47.3738 149.46 47.2208C149.667 47.0679 149.913 46.9474 150.194 46.857C150.475 46.7678 150.76 46.696 151.052 46.6415C151.36 46.5882 151.669 46.5419 151.976 46.5071C152.287 46.4724 152.581 46.426 152.861 46.3727C153.144 46.3183 153.406 46.2511 153.652 46.17C153.896 46.0889 154.1 45.9788 154.264 45.834V47.2614V47.2602ZM165.341 34.5433H161.476V38.7189H159.136V41.2783H161.476V49.4975C161.476 50.1985 161.595 50.7639 161.831 51.1949C162.067 51.6259 162.389 51.9596 162.797 52.1924C163.205 52.4265 163.677 52.5829 164.213 52.6628C164.747 52.7428 165.316 52.7845 165.914 52.7845C166.297 52.7845 166.685 52.7752 167.086 52.759C167.484 52.7405 167.847 52.7057 168.174 52.6501V49.6864C167.992 49.7223 167.802 49.7512 167.602 49.7675C167.403 49.786 167.195 49.7953 166.977 49.7953C166.325 49.7953 165.888 49.6864 165.67 49.4709C165.454 49.2554 165.345 48.8244 165.345 48.1767V41.2783H168.175V38.7189H165.345V34.5433H165.341ZM181.316 46.5477C181.062 46.1074 180.726 45.739 180.309 45.4424C179.892 45.1469 179.415 44.9082 178.881 44.7275C178.345 44.5491 177.796 44.3973 177.234 44.271C176.689 44.1447 176.156 44.0277 175.629 43.9199C175.102 43.8122 174.635 43.6905 174.226 43.5573C173.819 43.4217 173.489 43.2479 173.235 43.0313C172.98 42.8158 172.854 42.5389 172.854 42.1959C172.854 41.9086 172.925 41.6792 173.071 41.5089C173.216 41.3385 173.394 41.2088 173.602 41.1173C173.812 41.028 174.041 40.9701 174.295 40.9423C174.55 40.9157 174.786 40.9029 175.003 40.9029C175.692 40.9029 176.291 41.0327 176.801 41.2934C177.307 41.554 177.59 42.0523 177.642 42.788H181.317C181.244 41.926 181.022 41.2123 180.651 40.6457C180.28 40.0803 179.811 39.6273 179.25 39.2855C178.688 38.9437 178.048 38.7015 177.33 38.5579C176.613 38.4142 175.875 38.3424 175.114 38.3424C174.353 38.3424 173.606 38.4096 172.883 38.5428C172.156 38.6784 171.502 38.9124 170.923 39.2449C170.341 39.5775 169.875 40.0305 169.521 40.6051C169.166 41.1798 168.989 41.9167 168.989 42.8146C168.989 43.4252 169.117 43.9431 169.372 44.3648C169.624 44.7877 169.961 45.1365 170.376 45.4157C170.795 45.6938 171.272 45.9197 171.807 46.0889C172.342 46.2615 172.891 46.4086 173.453 46.5349C174.833 46.8223 175.909 47.1096 176.679 47.3981C177.45 47.6854 177.835 48.1164 177.835 48.6911C177.835 49.0329 177.755 49.3133 177.591 49.5381C177.427 49.764 177.223 49.9424 176.979 50.0768C176.733 50.2124 176.46 50.312 176.161 50.3734C175.862 50.4371 175.575 50.4684 175.303 50.4684C174.922 50.4684 174.555 50.4232 174.202 50.334C173.847 50.2437 173.535 50.1046 173.262 49.9158C172.99 49.7269 172.767 49.4848 172.595 49.1882C172.424 48.8916 172.336 48.5382 172.336 48.1234H168.662C168.7 49.0572 168.912 49.8347 169.303 50.4545C169.691 51.0744 170.19 51.5726 170.799 51.9503C171.406 52.3268 172.102 52.5968 172.883 52.759C173.661 52.9201 174.459 53.0012 175.275 53.0012C176.091 53.0012 176.859 52.9247 177.631 52.7729C178.402 52.62 179.087 52.3547 179.685 51.9769C180.286 51.6004 180.768 51.1022 181.141 50.4823C181.512 49.8613 181.698 49.0943 181.698 48.1778C181.698 47.5302 181.572 46.988 181.318 46.5488L181.316 46.5477ZM188.99 33.4113L181.642 52.6501H185.942L187.465 48.3655H194.732L196.2 52.6501H200.638L193.372 33.4113H188.989H188.99ZM188.583 45.2141L191.114 38.1547H191.168L193.618 45.2141H188.583ZM214.002 40.6063C213.476 39.9239 212.813 39.3759 212.015 38.9634C211.217 38.5498 210.265 38.3435 209.159 38.3435C208.287 38.3435 207.49 38.5138 206.764 38.8545C206.036 39.1963 205.439 39.7443 204.968 40.4986H204.913V38.7189H201.237V57.5279H205.105V50.9261H205.158C205.629 51.6097 206.233 52.1252 206.97 52.474C207.703 52.8239 208.507 53 209.378 53C210.413 53 211.315 52.8007 212.085 52.4068C212.857 52.0117 213.501 51.4811 214.018 50.816C214.535 50.151 214.919 49.3886 215.176 48.5266C215.427 47.6634 215.556 46.7655 215.556 45.8317C215.556 44.8434 215.427 43.8968 215.176 42.9884C214.919 42.0824 214.531 41.2864 214.004 40.604L214.002 40.6063ZM211.526 47.3691C211.416 47.909 211.23 48.3794 210.967 48.7838C210.704 49.1882 210.36 49.5172 209.931 49.7675C209.506 50.0189 208.975 50.1463 208.341 50.1463C207.706 50.1463 207.199 50.02 206.764 49.7675C206.328 49.5172 205.978 49.1882 205.715 48.7838C205.451 48.3794 205.262 47.909 205.144 47.3691C205.025 46.8304 204.968 46.2824 204.968 45.7274C204.968 45.1724 205.021 44.5943 205.13 44.0567C205.24 43.5179 205.425 43.0417 205.689 42.6269C205.95 42.2145 206.297 41.8785 206.724 41.6178C207.15 41.3571 207.679 41.225 208.315 41.225C208.95 41.225 209.455 41.3571 209.88 41.6178C210.306 41.8773 210.656 42.2179 210.928 42.6408C211.199 43.0637 211.394 43.5445 211.513 44.0821C211.632 44.6209 211.689 45.1701 211.689 45.7274C211.689 46.2847 211.636 46.8315 211.527 47.3691H211.526ZM230.575 42.9907C230.321 42.0847 229.931 41.2887 229.405 40.6063C228.878 39.9239 228.218 39.3759 227.419 38.9634C226.62 38.5498 225.667 38.3435 224.561 38.3435C223.691 38.3435 222.891 38.5138 222.167 38.8545C221.441 39.1963 220.842 39.7443 220.37 40.4986H220.317V38.7189H216.643V57.5279H220.507V50.9261H220.562C221.034 51.6097 221.638 52.1252 222.372 52.474C223.106 52.8239 223.91 53 224.781 53C225.814 53 226.716 52.8007 227.488 52.4068C228.259 52.0117 228.904 51.4811 229.42 50.816C229.938 50.151 230.322 49.3886 230.576 48.5266C230.832 47.6634 230.958 46.7655 230.958 45.8317C230.958 44.8434 230.832 43.8968 230.576 42.9884L230.575 42.9907ZM226.928 47.3691C226.82 47.909 226.634 48.3794 226.37 48.7838C226.106 49.1882 225.762 49.5172 225.336 49.7675C224.909 50.0189 224.379 50.1463 223.744 50.1463C223.108 50.1463 222.6 50.02 222.164 49.7675C221.728 49.5172 221.38 49.1882 221.115 48.7838C220.853 48.3794 220.662 47.909 220.544 47.3691C220.426 46.8304 220.367 46.2824 220.367 45.7274C220.367 45.1724 220.422 44.5943 220.531 44.0567C220.64 43.5179 220.826 43.0417 221.09 42.6269C221.352 42.2145 221.697 41.8785 222.125 41.6178C222.549 41.3571 223.081 41.225 223.717 41.225C224.352 41.225 224.854 41.3571 225.281 41.6178C225.708 41.8773 226.057 42.2179 226.329 42.6408C226.602 43.0637 226.798 43.5445 226.915 44.0821C227.034 44.6209 227.091 45.1701 227.091 45.7274C227.091 46.2847 227.036 46.8315 226.928 47.3691Z" fill="#25D366"/>
</svg>
