<svg viewBox="0 0 20 20" xmlns="http://www.w3.org/2000/svg"><g clip-path="url(#clip0)" fill-rule="evenodd" clip-rule="evenodd"><path d="M1.78389 10C1.87497 10.1574 1.99571 10.358 2.14529 10.5896C2.52947 11.1844 3.09841 11.9755 3.83706 12.7634C5.32954 14.3554 7.4162 15.8333 9.99994 15.8333C12.5837 15.8333 14.6703 14.3554 16.1628 12.7634C16.9015 11.9755 17.4704 11.1844 17.8546 10.5896C18.0042 10.358 18.1249 10.1574 18.216 10C18.1249 9.84261 18.0042 9.64204 17.8546 9.41044C17.4704 8.81557 16.9015 8.0245 16.1628 7.23662C14.6703 5.64463 12.5837 4.16667 9.99994 4.16667C7.4162 4.16667 5.32954 5.64463 3.83706 7.23662C3.09841 8.0245 2.52947 8.81557 2.14529 9.41044C1.99571 9.64204 1.87497 9.84261 1.78389 10ZM19.1666 10C19.912 9.62732 19.9118 9.62704 19.9117 9.62674L19.9113 9.626L19.9103 9.62406L19.9074 9.61837C19.9051 9.61377 19.902 9.60758 19.898 9.59985C19.89 9.58439 19.8788 9.56276 19.8643 9.53536C19.8353 9.48058 19.7933 9.40269 19.7383 9.30499C19.6284 9.1097 19.4667 8.8346 19.2547 8.50623C18.8316 7.85109 18.2026 6.9755 17.3787 6.09672C15.7462 4.35537 13.2495 2.5 9.99994 2.5C6.75035 2.5 4.25367 4.35537 2.62116 6.09672C1.7973 6.9755 1.16833 7.85109 0.745222 8.50623C0.533151 8.8346 0.371436 9.1097 0.261585 9.30499C0.206629 9.40269 0.164559 9.48058 0.13557 9.53536C0.121073 9.56276 0.109838 9.58439 0.101891 9.59985C0.0979166 9.60758 0.0947634 9.61377 0.0924341 9.61837L0.0895582 9.62406L0.0885842 9.626L0.0882133 9.62674C0.0880602 9.62704 0.0879198 9.62732 0.833276 10L0.0879198 9.62732L-0.0984192 10L0.0879198 10.3727L0.833276 10C0.0879198 10.3727 0.0880602 10.373 0.0882133 10.3733L0.0885842 10.374L0.0895582 10.3759L0.0924341 10.3816C0.0947634 10.3862 0.0979166 10.3924 0.101891 10.4001C0.109838 10.4156 0.121073 10.4372 0.13557 10.4646C0.164559 10.5194 0.206629 10.5973 0.261585 10.695C0.371436 10.8903 0.533151 11.1654 0.745222 11.4938C1.16833 12.1489 1.7973 13.0245 2.62116 13.9033C4.25367 15.6446 6.75035 17.5 9.99994 17.5C13.2495 17.5 15.7462 15.6446 17.3787 13.9033C18.2026 13.0245 18.8316 12.1489 19.2547 11.4938C19.4667 11.1654 19.6284 10.8903 19.7383 10.695C19.7933 10.5973 19.8353 10.5194 19.8643 10.4646C19.8788 10.4372 19.89 10.4156 19.898 10.4001C19.902 10.3924 19.9051 10.3862 19.9074 10.3816L19.9103 10.3759L19.9113 10.374L19.9117 10.3733C19.9118 10.373 19.912 10.3727 19.1666 10ZM19.1666 10L19.912 10.3727L20.0983 10L19.912 9.62732L19.1666 10Z"/><path d="M10 8.33354C9.07957 8.33354 8.33338 9.07973 8.33338 10.0002C8.33338 10.9207 9.07957 11.6669 10 11.6669C10.9205 11.6669 11.6667 10.9207 11.6667 10.0002C11.6667 9.07973 10.9205 8.33354 10 8.33354ZM6.66672 10.0002C6.66672 8.15925 8.1591 6.66687 10 6.66687C11.841 6.66687 13.3334 8.15925 13.3334 10.0002C13.3334 11.8411 11.841 13.3335 10 13.3335C8.1591 13.3335 6.66672 11.8411 6.66672 10.0002Z"/></g><defs><clipPath id="clip0"><path d="M0 0H20V20H0z"/></clipPath></defs></svg>