<svg viewBox="0 0 60 60" fill="none" xmlns="http://www.w3.org/2000/svg"><path d="M57.0014 12.037H39.7205C39.7205 12.037 39.7205 11.9375 39.7205 11.8807V6.3809C39.7205 4.72476 38.3781 3.38232 36.7219 3.38232H23.2639C21.6077 3.38232 20.2653 4.72476 20.2653 6.3809V11.8949C20.2653 11.8949 20.2653 11.9944 20.2653 12.0512H2.99858C1.34243 12.0512 0 13.3936 0 15.0498V53.6192C0 55.2753 1.34243 56.6178 2.99858 56.6178H57.0014C58.6576 56.6178 60 55.2753 60 53.6192V15.0356C60 13.3794 58.6576 12.037 57.0014 12.037ZM23.1075 11.8665L23.136 6.35248C23.136 6.26615 23.2059 6.19616 23.2923 6.19616H36.7788C36.8651 6.19616 36.9351 6.26615 36.9351 6.35248V11.8665C36.9351 11.9528 36.8651 12.0228 36.7788 12.0228H23.2639C23.1775 12.0228 23.1075 11.9528 23.1075 11.8665ZM2.99858 14.8792H57.0014C55.6656 17.4089 48.7163 29.3747 35.784 32.2454V30.5969C35.7843 28.9628 34.476 27.6292 32.8423 27.5983H27.1577C25.5016 27.5983 24.1592 28.9408 24.1592 30.5969V32.2738C11.2411 29.4316 4.26338 17.4231 2.94173 14.9077L2.99858 14.8792ZM32.9559 30.5969V38.8679C32.9559 38.9542 32.886 39.0242 32.7996 39.0242H27.1577C27.0714 39.0242 27.0014 38.9542 27.0014 38.8679V30.5969C27.0014 30.5106 27.0714 30.4406 27.1577 30.4406H32.8423C32.9117 30.4601 32.9586 30.5248 32.9559 30.5969ZM57.1151 53.6334C57.1151 53.7197 57.0451 53.7897 56.9588 53.7897H2.99858C2.91225 53.7897 2.84225 53.7197 2.84225 53.6334V20.1943C6.33823 25.2677 13.3018 32.9844 24.1592 35.1729V38.8537C24.1592 40.5098 25.5016 41.8522 27.1577 41.8522H32.8423C34.4984 41.8522 35.8408 40.5098 35.8408 38.8537V35.1729C46.6982 33.0128 53.6618 25.2251 57.1577 20.1943L57.1151 53.6334Z" fill="#FE5000"/></svg>