<svg xmlns="http://www.w3.org/2000/svg" viewBox="0 0 60 60"><defs><clipPath id="a"><path fill="none" d="M0 0H60V60H0z"/></clipPath></defs><g fill="#fe5000" clip-path="url(#a)"><path d="M59.49,49.54,49.35,39.4l5-5a1.76,1.76,0,0,0-.69-2.91L23.8,21.58a1.76,1.76,0,0,0-2.22,2.22l9.94,29.83a1.76,1.76,0,0,0,2.91.69l5-5L49.54,59.49a1.76,1.76,0,0,0,2.49,0L59.49,52A1.76,1.76,0,0,0,59.49,49.54Zm-8.7,6.21L40.65,45.62a1.76,1.76,0,0,0-2.49,0L34,49.82,26,26,49.82,34l-4.2,4.2a1.76,1.76,0,0,0,0,2.49L55.76,50.78Z"/><path d="M22.85,14.06a1.76,1.76,0,0,0,1.76-1.76V1.76a1.76,1.76,0,1,0-3.52,0V12.3A1.76,1.76,0,0,0,22.85,14.06Z"/><path d="M9.18,6.69A1.76,1.76,0,0,0,6.69,9.18l7.46,7.46a1.76,1.76,0,0,0,2.49-2.49Z"/><path d="M14.15,29.07,6.69,36.52A1.76,1.76,0,1,0,9.18,39l7.46-7.46a1.76,1.76,0,0,0-2.49-2.49Z"/><path d="M31.55,16.64,39,9.18a1.76,1.76,0,1,0-2.49-2.49l-7.46,7.46a1.76,1.76,0,0,0,2.49,2.49Z"/><path d="M14.06,22.85a1.76,1.76,0,0,0-1.76-1.76H1.76a1.76,1.76,0,1,0,0,3.52H12.3A1.76,1.76,0,0,0,14.06,22.85Z"/></g></svg>