<svg width="18" height="18" viewBox="0 0 18 18" fill="none" xmlns="http://www.w3.org/2000/svg"><path d="M2.25 4.5H3.25H2.25ZM2.25 14.625H1.25H2.25ZM14.625 15.75V14.75V15.75ZM3.375 15.75V16.75H3.375L3.375 15.75ZM15.75 4.50002H16.75H15.75ZM15.75 14.625H14.75H15.75ZM14.625 3.37502L14.625 4.37502L14.625 3.37502ZM3.375 3.375L3.375 4.375H3.375L3.375 3.375ZM15.75 8.875C16.3023 8.875 16.75 8.42728 16.75 7.875C16.75 7.32271 16.3023 6.875 15.75 6.875V8.875ZM2.25 6.875C1.69772 6.875 1.25 7.32272 1.25 7.875C1.25 8.42728 1.69772 8.875 2.25 8.875L2.25 6.875ZM4.625 4.5C4.625 5.05228 5.07272 5.5 5.625 5.5C6.17729 5.5 6.625 5.05228 6.625 4.5H4.625ZM6.625 2.25C6.625 1.69772 6.17728 1.25 5.625 1.25C5.07272 1.25 4.625 1.69772 4.625 2.25L6.625 2.25ZM11.375 4.5C11.375 5.05228 11.8227 5.5 12.375 5.5C12.9273 5.5 13.375 5.05228 13.375 4.5H11.375ZM13.375 2.25C13.375 1.69772 12.9273 1.25 12.375 1.25C11.8227 1.25 11.375 1.69772 11.375 2.25H13.375ZM1.25 4.5L1.25 14.625H3.25L3.25 4.5H1.25ZM14.625 14.75L3.375 14.75L3.375 16.75L14.625 16.75V14.75ZM14.75 4.50002L14.75 14.625H16.75L16.75 4.50002H14.75ZM14.625 2.37502L3.375 2.375L3.375 4.375L14.625 4.37502L14.625 2.37502ZM16.75 4.50002C16.75 3.32642 15.7986 2.37503 14.625 2.37502L14.625 4.37502C14.694 4.37502 14.75 4.43099 14.75 4.50002H16.75ZM3.25 4.5C3.25 4.43096 3.30597 4.375 3.375 4.375L3.37501 2.375C2.2014 2.375 1.25 3.3264 1.25 4.5H3.25ZM1.25 14.625C1.25 15.7986 2.20139 16.75 3.375 16.75V14.75C3.30596 14.75 3.25 14.694 3.25 14.625H1.25ZM14.625 16.75C15.7986 16.75 16.75 15.7986 16.75 14.625H14.75C14.75 14.694 14.694 14.75 14.625 14.75V16.75ZM15.75 6.875L2.25 6.875L2.25 8.875L15.75 8.875V6.875ZM6.625 4.5V2.25L4.625 2.25L4.625 4.5H6.625ZM13.375 4.5V2.25H11.375V4.5H13.375Z"/></svg>