<svg viewBox="0 0 60 60" fill="none" xmlns="http://www.w3.org/2000/svg"><path d="M35.7114 51.1989C32.7401 54.1704 28.7899 55.8066 24.5876 55.8066C15.9151 55.8066 8.85914 48.7507 8.85914 40.0773C8.85914 35.8747 10.495 31.9236 13.4657 28.9527C14.2845 28.1339 14.2842 26.8063 13.4654 25.9876C12.6467 25.1685 11.3191 25.1688 10.5003 25.9878C6.73798 29.7508 4.66602 34.7543 4.66602 40.077C4.66602 51.0622 13.6027 59.9994 24.5876 59.9994C29.9097 59.9994 34.9133 57.9269 38.6765 54.1631C39.4952 53.3444 39.495 52.0168 38.6762 51.1983C37.8574 50.3804 36.5299 50.3801 35.7114 51.1989Z" fill="#FE5000"/><path d="M53.2371 46.6013H47.2731L43.5806 36.3563C43.2809 35.5247 42.4921 34.9706 41.6081 34.9706H26.0623V25.5568H40.5C41.6579 25.5568 42.5966 24.6184 42.5966 23.4602C42.5966 22.3021 41.6579 21.3637 40.5 21.3637H26.0623V14.8937C26.0623 13.7355 25.1236 12.7971 23.9657 12.7971C22.8078 12.7971 21.8691 13.7355 21.8691 14.8937V37.0669C21.8691 38.2251 22.8078 39.1635 23.9657 39.1635H40.135L43.8274 49.4084C44.1271 50.2401 44.916 50.7941 45.7999 50.7941H53.2368C54.3947 50.7941 55.3334 49.8557 55.3334 48.6975C55.3334 47.5394 54.3952 46.6013 53.2371 46.6013Z" fill="#FE5000"/><path d="M24.0441 10.1859C26.8572 10.1859 29.1377 7.90656 29.1377 5.09157C29.1374 2.28134 26.8572 0 24.0441 0C21.2311 0 18.9512 2.28134 18.9512 5.09185C18.9512 7.90656 21.2311 10.1859 24.0441 10.1859Z" fill="#FE5000"/></svg>