<svg xmlns="http://www.w3.org/2000/svg" viewBox="0 0 40 40"><defs><clipPath id="clip-path"><path fill="none" d="M0 0H40V40H0z"/></clipPath></defs><g clip-path="url(#clip-path)"><path d="M39.69,19.5a2.86,2.86,0,0,0-2.87-2.86H36.74a2.78,2.78,0,0,0-2,.82l-6.59,6.59V0H6.78L0,6.78V39.69H28.17V32.27l8.32-8.32,0.15,0.15a1.68,1.68,0,0,1,0,2.37L32,31.1a2.19,2.19,0,0,0,0,3.09L32.83,35l0.91-.91-0.83-.83a0.91,0.91,0,0,1,0-1.28l4.63-4.63a3,3,0,0,0,0-4.18L37.39,23l1.45-1.45A2.91,2.91,0,0,0,39.69,19.5ZM6.4,2.19V6.4H2.19ZM26.89,38.41H1.28V7.68h6.4V1.28h19.2V25.34l-6.33,6.33-1.19,4.18H18.43a0.18,0.18,0,0,1-.16-0.1l-1-2.07,0.55-.89a5.1,5.1,0,0,0,.78-2.71,1.92,1.92,0,1,0-3.84,0v0.23a5.13,5.13,0,0,0,.54,2.28l0.51,1-1.35,2.16a0.18,0.18,0,0,1-.15.08H13.44a0.18,0.18,0,0,1-.17-0.14l-0.33-1.32a1.46,1.46,0,0,0-2.83,0L9.78,35.71a0.18,0.18,0,0,1-.17.14H7.68v1.28H9.6A1.46,1.46,0,0,0,11,36l0.33-1.32a0.19,0.19,0,0,1,.35,0L12,36a1.46,1.46,0,0,0,1.41,1.11h0.83a1.45,1.45,0,0,0,1.24-.69l0.93-1.49,0.69,1.37a1.45,1.45,0,0,0,1.31.81h1.5l4.73-1.35,2.23-2.23v4.86Zm-5.44-5.18,1.66,1.66-2.33.66ZM16.7,32.11l-0.14.22L16.41,32a3.84,3.84,0,0,1-.4-1.71V30.09a0.64,0.64,0,1,1,1.28,0A3.82,3.82,0,0,1,16.7,32.11Zm7.62,2.19L22,32,33.29,20.75l2.3,2.3ZM37.93,20.69l-1.45,1.45-2.3-2.3,1.47-1.47a1.51,1.51,0,0,1,1.07-.45h0.08a1.58,1.58,0,0,1,1.12.46A1.65,1.65,0,0,1,37.93,20.69ZM5.12,35.85H6.4v1.28H5.12V35.85ZM24.32,2.56H25.6V3.84H24.32V2.56Zm-9,0H23V3.84H15.36V2.56Zm9,2.56H25.6V6.4H24.32V5.12Zm-9,0H23V6.4H15.36V5.12Zm9,2.56H25.6V9H24.32V7.68Zm-9,0H23V9H15.36V7.68ZM2.56,10.24h23v1.28h-23V10.24Zm0,2.56h23v1.28h-23V12.8Zm0,2.56h23v1.28h-23V15.36Zm9,3.2H12.8v1.28H11.52V18.56Zm2.56,0H25.6v1.28H14.08V18.56Zm-2.56,2.56H25.6V22.4H11.52V21.12Zm0,2.56H25.6V25H11.52V23.68ZM6.4,25.6a3.84,3.84,0,1,0-3.84-3.84A3.84,3.84,0,0,0,6.4,25.6Zm0-6.4a2.56,2.56,0,1,1-2.56,2.56A2.56,2.56,0,0,1,6.4,19.2ZM2.56,26.88h9v1.28h-9V26.88Zm0,2.56h9v1.28h-9V29.45Z" fill="#fe5000"/></g></svg>