<svg xmlns="http://www.w3.org/2000/svg" viewBox="0 0 40 40"><defs><clipPath id="clip-path"><path fill="none" d="M0 0H40V40H0z"/></clipPath></defs><g clip-path="url(#clip-path)"><path d="M33,26.78a16.06,16.06,0,0,0-.31-21.69h0A16.06,16.06,0,0,0,21.47,0H20.35A16.06,16.06,0,0,0,9.18,5.08h0a16,16,0,0,0-4.33,9.79l1.09,0.4A14.93,14.93,0,0,1,9.73,6.12a20.44,20.44,0,0,0,4.39,2.16,20.5,20.5,0,0,0-1.53,7.27H6.69L9.6,16.66h3q0,0.59.07,1.18l1.16,0.44q-0.09-.81-0.11-1.63h4.58l0.39-.34,0.94-.77H13.7a19.4,19.4,0,0,1,1.48-6.93,20.53,20.53,0,0,0,5.17.8V15c0.39-.31.76-0.23,1.11-0.5v-5a20.5,20.5,0,0,0,5.17-.8,19.4,19.4,0,0,1,1.48,6.93l-2.64,0,0.19,1.09h2.45a19.39,19.39,0,0,1-1.28,6.43,20.42,20.42,0,0,0-5.24-.85l-0.28.23-1,.88h0.07v6.08l0.38,2.78h0.73a16.07,16.07,0,0,0,11.45-5.38l0,0v0ZM23.68,15.2a2.18,2.18,0,0,1,.7.29h0a1.75,1.75,0,0,1,.65.89,1.61,1.61,0,0,1,0,1.06,4.64,4.64,0,0,1-.34.9,6.83,6.83,0,0,1-.45.78,8.46,8.46,0,0,1-1.62,1.82L21.33,22,20,23.09,19,24a0.71,0.71,0,0,0-.23.27,0.69,0.69,0,0,0,0,.37q0.78,5.59,1.54,11.18a5.79,5.79,0,0,1,.05.74,3.74,3.74,0,0,1-.11.91h0a2.58,2.58,0,0,1-.57,1.06,3.4,3.4,0,0,1-1,.76,0.8,0.8,0,0,1-.21.13l-0.23.08a1.63,1.63,0,0,1-.33.12,1.41,1.41,0,0,1-.34,0,1.27,1.27,0,0,1-.77-0.25,1.76,1.76,0,0,1-.54-0.7,5.77,5.77,0,0,1-.24-0.59c-0.05-.15-0.11-0.3-0.17-0.45-0.77-1.92-1.72-4.13-2.36-6.06A6.24,6.24,0,0,0,13,30.77c-0.14-.28-0.31-0.56-0.49-0.84l-0.07-.12-0.54.42c-0.85.68-1.72,1.35-2.6,2l-1.43,1.1c0.13,0.54.27,1.06,0.39,1.6a2.57,2.57,0,0,1,.13.93,2.61,2.61,0,0,1-.19.85,2,2,0,0,1-.51.81,2.26,2.26,0,0,1-.86.51h0a1.5,1.5,0,0,1-1.17-.18l-0.06,0a1.34,1.34,0,0,1-.31-0.21,2.11,2.11,0,0,1-.25-0.29c-0.6-.73-1.2-1.47-1.79-2.22s-1.13-1.45-1.69-2.19l-1-1.22a2.34,2.34,0,0,1-.32-0.37A1.26,1.26,0,0,1,0,30.45,1.32,1.32,0,0,1,.42,29.6h0a9.83,9.83,0,0,1,.77-0.72A1.54,1.54,0,0,1,2,28.49a1.77,1.77,0,0,1,.95.16c0.23,0.1.45,0.22,0.67,0.34s0.43,0.23.66,0.33l0.54,0.25,0.08,0,0.48-.45L6,28.63l3.25-3.1-0.08-.1L9,25.22a7.53,7.53,0,0,0-1.6-1.33l-0.11-.08C6.39,23.2,5.51,22.6,4.63,22S2.85,20.79,2,20.18L1.71,20A3.88,3.88,0,0,1,1.4,19.7,1.48,1.48,0,0,1,.9,18.84a1.36,1.36,0,0,1,.22-0.95,4.39,4.39,0,0,1,.59-0.82,5,5,0,0,1,.79-0.71A1.61,1.61,0,0,1,3.25,16a2,2,0,0,1,.9.07c0.35,0.1.66,0.2,1,.31,3.15,1.05,6.45,2.42,9.59,3.59l0.56,0.15a0.63,0.63,0,0,0,.32,0,1.21,1.21,0,0,0,.32-0.2l0.39-.36,0.38-.35c0.42-.34.82-0.74,1.24-1.09q1.32-1.08,2.31-1.85h0a6.09,6.09,0,0,1,1.23-.71,5.85,5.85,0,0,1,1.39-.39h0A2.69,2.69,0,0,1,23.68,15.2Zm-0.2,2.66a4.56,4.56,0,0,0,.29-0.71l0-.05a0.54,0.54,0,0,0,0-.3,0.2,0.2,0,0,0-.1-0.13h0a1,1,0,0,0-.28-0.1,0.79,0.79,0,0,0-.3,0h0a4.24,4.24,0,0,0-1.06.29,4.52,4.52,0,0,0-1,.56c-0.47.36-1,.77-1.52,1.23l-0.73.61-1.22,1.07-0.39.36L16.77,21h0a2.08,2.08,0,0,1-.8.45,2,2,0,0,1-.9,0l-0.13,0a4.29,4.29,0,0,1-.61-0.18L4.72,17.73l-0.41-.15-0.5-.15a0.9,0.9,0,0,0-.35,0,0.21,0.21,0,0,0-.13.06h0A5.39,5.39,0,0,0,2.7,18a3.17,3.17,0,0,0-.47.63v0h0a0.15,0.15,0,0,0,0,0l0.08,0.09a2.68,2.68,0,0,0,.44.34h0L5.34,21,8,22.77a10.94,10.94,0,0,1,1,.75,7.29,7.29,0,0,1,.93.91,2.17,2.17,0,0,1,.27.36L10.37,25v0l0.07,0.11,0.08,0.13,0.32,0.45c-1.31,1.31-2.68,2.56-4,3.83l-0.61.59-0.62.59h0a1,1,0,0,1-.49.22,0.76,0.76,0,0,1-.48-0.1L4.3,30.7l-0.57-.26-0.66-.35-0.66-.31h0a0.45,0.45,0,0,0-.24-0.06A0.27,0.27,0,0,0,2,29.8H2a3.82,3.82,0,0,0-.32.28l-0.36.36,0.07,0.11a1.21,1.21,0,0,0,.16.22c0.28,0.28.71,0.9,1,1.24,0.55,0.73,1.12,1.46,1.7,2.2L6,36.43l0,0a0.46,0.46,0,0,0,.08.11l0.11,0.08h0a0.45,0.45,0,0,0,.16.08,0.94,0.94,0,0,0,.36-0.19A1.12,1.12,0,0,0,7,36.2a1.07,1.07,0,0,0,.11-0.44A2,2,0,0,0,7,35.22l-0.1-.47c0-.22-0.11-0.46-0.18-0.69s-0.13-.46-0.18-0.7a1,1,0,0,1,0-.43,0.77,0.77,0,0,1,.33-0.49l0.77-.6c1.14-.89,2.31-1.8,3.49-2.68l1.71-1.27c0.31,0.45.57,0.84,0.86,1.31,0.18,0.31.36,0.61,0.53,0.94a9,9,0,0,1,.46,1l2.25,6c0.07,0.16.12,0.31,0.18,0.46a5.64,5.64,0,0,0,.23.56h0a0.28,0.28,0,0,0,.1.16,0.4,0.4,0,0,0,.24,0A2.34,2.34,0,0,0,18,38.19a1.9,1.9,0,0,0,.58-0.43,1.61,1.61,0,0,0,.32-0.57A1.65,1.65,0,0,0,19,36.72a5.07,5.07,0,0,0,0-.65c-0.51-3.72-1-7.45-1.54-11.17a2,2,0,0,1,.12-1.06A1.91,1.91,0,0,1,18.17,23l1-.87c0.87-.72,1.74-1.43,2.56-2.15h0a7.66,7.66,0,0,0,.79-0.75,4.89,4.89,0,0,0,.56-0.75C23.24,18.3,23.37,18.08,23.48,17.86ZM7.35,24.79q0.25,0.38.51,0.75l0.06-.06-0.1-.12C7.76,25.28,7.7,25.2,7.63,25.1Zm28.54-9.24H29.22a20.5,20.5,0,0,0-1.53-7.27,20.44,20.44,0,0,0,4.39-2.16A14.93,14.93,0,0,1,35.89,15.55ZM20.35,8.31a19.39,19.39,0,0,1-4.7-.71,19.43,19.43,0,0,1,4.7-6.13V8.31Zm1.11,0V1.47a19.43,19.43,0,0,1,4.7,6.13A19.39,19.39,0,0,1,21.46,8.31Zm5.78-1.05a20.51,20.51,0,0,0-4.38-6,15,15,0,0,1,8.43,4.06A19.29,19.29,0,0,1,27.24,7.26Zm-12.67,0a19.3,19.3,0,0,1-4.05-2A15,15,0,0,1,19,1.24,20.49,20.49,0,0,0,14.57,7.26Zm6.89,23.48v-7.4a19.37,19.37,0,0,1,4.93.78A19.42,19.42,0,0,1,21.46,30.74Zm7.76-14.08h6.67a14.92,14.92,0,0,1-3.5,9.08,20.48,20.48,0,0,0-4.5-2.29A20.5,20.5,0,0,0,29.22,16.66ZM22.86,31a20.48,20.48,0,0,0,4.59-6.5,19.36,19.36,0,0,1,4.17,2.1A15,15,0,0,1,22.86,31Z" fill="#fe5000"/></g></svg>