<svg viewBox="0 0 40 40" fill="none" xmlns="http://www.w3.org/2000/svg"><path fill-rule="evenodd" clip-rule="evenodd" d="M37.2862 15.878H29.4242C29.0252 15.878 28.7027 16.2005 28.7027 16.5995C28.7027 16.9985 29.0252 17.3207 29.4242 17.3207H35.99L38.0812 36.7977H1.63648L4.09123 17.3207H10.6687C11.0675 17.3207 11.39 16.9985 11.39 16.5995C11.39 16.2005 11.0675 15.878 10.6687 15.878H2.81873L0.000228882 38.2405H39.6877L37.2862 15.878ZM19.2277 27.3875C19.1215 27.4503 19.0082 27.5057 18.9065 27.5715C18.748 27.674 18.5927 27.7815 18.4405 27.8925C18.1195 28.1285 18.0502 28.58 18.2855 28.901C18.427 29.0935 18.6462 29.1952 18.8685 29.1952C19.0162 29.1952 19.1655 29.1497 19.2947 29.056C19.423 28.9615 19.5537 28.8707 19.69 28.7827C19.9215 28.6327 20.1675 28.492 20.4215 28.3635C20.759 28.1928 20.8962 27.793 20.7547 27.4482C20.7605 27.4425 20.7677 27.438 20.7727 27.4323C22.0777 26.0503 26.4752 20.8707 28.296 12.2417C28.6652 10.4917 28.7482 8.81224 28.5427 7.25049C27.9222 2.50749 24.9755 0 20.021 0C15.0682 0 12.1215 2.50749 11.4995 7.25049C11.2947 8.81299 11.3777 10.4925 11.747 12.2417C13.5497 20.787 17.878 25.9463 19.2277 27.3875ZM20.0217 13.6505C22.944 13.6505 25.321 11.2735 25.321 8.35124C25.321 5.429 22.944 3.05225 20.0217 3.05225C17.0995 3.05225 14.7227 5.429 14.7227 8.35124C14.7227 11.2735 17.0995 13.6505 20.0217 13.6505ZM22.6715 26.0905C22.282 26.1727 22.0337 26.5565 22.1167 26.9467C22.1887 27.2857 22.4882 27.5175 22.8215 27.5175C22.8712 27.5175 22.9225 27.5122 22.973 27.5015C23.3957 27.412 23.8537 27.3362 24.3335 27.2757C24.7287 27.2275 25.01 26.8667 24.9602 26.4715C24.9112 26.0755 24.5542 25.7897 24.156 25.8445C23.6345 25.9087 23.1345 25.9917 22.6715 26.0905ZM26.4017 26.3835C26.4175 26.7707 26.7377 27.0737 27.1215 27.0737C27.1325 27.0737 27.1425 27.0737 27.1532 27.073L28.5967 27.0132C28.9942 26.995 29.303 26.6575 29.2842 26.26C29.2662 25.8612 28.8955 25.5502 28.531 25.572L27.0912 25.6317C26.693 25.6482 26.3842 25.9845 26.4017 26.3835ZM16.1827 29.7025C15.812 29.9822 15.429 30.2515 15.043 30.501C14.709 30.718 14.6137 31.1647 14.831 31.4992C14.9687 31.7122 15.201 31.8275 15.4367 31.8275C15.5717 31.8275 15.7075 31.79 15.8292 31.7115C16.2425 31.443 16.6545 31.1545 17.052 30.8545C17.3695 30.6142 17.433 30.162 17.1935 29.8438C16.9532 29.5285 16.5022 29.4622 16.1827 29.7025ZM32.2597 24.9457C32.016 25.1167 31.6992 25.2407 31.289 25.3252C30.8987 25.4052 30.6475 25.7875 30.7285 26.1777C30.799 26.519 31.0992 26.7535 31.4347 26.7535C31.483 26.7535 31.532 26.7485 31.581 26.7382C32.1885 26.6127 32.682 26.4122 33.093 26.123L33.1897 26.0522C33.507 25.8115 33.57 25.359 33.3297 25.0417C33.0887 24.7242 32.6372 24.6622 32.319 24.9017L32.2597 24.9457ZM6.39173 30.586C6.49623 30.2017 6.26824 29.8055 5.88374 29.7017C5.50224 29.5942 5.10323 29.8237 4.99948 30.2095C4.90848 30.5442 4.85448 30.8862 4.83698 31.223C4.83348 31.306 4.83123 31.3897 4.83123 31.4777C4.83198 31.619 4.83848 31.7605 4.85223 31.9012C4.89048 32.2727 5.20349 32.549 5.56924 32.549C5.59299 32.549 5.61748 32.5475 5.64348 32.5452C6.03948 32.5042 6.32824 32.1507 6.28849 31.754C6.27824 31.6595 6.27473 31.5635 6.27398 31.4727C6.27398 31.4127 6.27624 31.353 6.27899 31.2938C6.29074 31.06 6.32823 30.8212 6.39173 30.586ZM32.244 19.3385C31.6712 19.262 31.087 19.309 30.5227 19.469C30.139 19.5765 29.9162 19.9755 30.025 20.3585C30.1145 20.6767 30.4037 20.8845 30.7182 20.8845C30.784 20.8845 30.8495 20.8757 30.9145 20.857C31.2895 20.7517 31.6755 20.7185 32.0507 20.769C32.456 20.8195 32.8095 20.5447 32.8622 20.1507C32.9155 19.7547 32.6385 19.392 32.244 19.3385ZM33.6795 22.9122C33.562 23.2922 33.7755 23.697 34.1555 23.814C34.227 23.8362 34.2977 23.8462 34.3685 23.8462C34.6772 23.8462 34.962 23.648 35.0572 23.3377C35.1287 23.1085 35.1727 22.8755 35.1892 22.6432C35.193 22.5832 35.195 22.5227 35.195 22.4627C35.195 22.1252 35.133 21.787 35.0112 21.4587C34.8727 21.0842 34.455 20.8952 34.0842 21.033C33.7097 21.1715 33.52 21.587 33.6585 21.96C33.7207 22.1272 33.7525 22.297 33.7525 22.462L33.7502 22.5465C33.7415 22.6662 33.7185 22.786 33.6795 22.9122ZM12.6105 31.8573C12.1877 32.0555 11.7572 32.2395 11.3307 32.4047C10.9592 32.5475 10.7747 32.9653 10.9182 33.3375C11.0285 33.623 11.3012 33.799 11.5912 33.799C11.6777 33.799 11.7657 33.784 11.851 33.7507C12.309 33.574 12.7707 33.3762 13.2237 33.1642C13.5842 32.9955 13.7395 32.5655 13.57 32.205C13.402 31.8435 12.9735 31.687 12.6105 31.8573ZM7.35898 28.854C7.47523 28.854 7.59348 28.826 7.70373 28.766C7.91148 28.6527 8.13298 28.5822 8.36098 28.5577C8.45848 28.546 8.55798 28.546 8.65373 28.559C9.05998 28.6117 9.41123 28.3332 9.46323 27.9387C9.51523 27.5432 9.23748 27.1812 8.84273 27.1292C8.62798 27.1012 8.40924 27.0997 8.19998 27.1235C7.78598 27.169 7.38648 27.296 7.01273 27.4992C6.66273 27.6905 6.53373 28.1277 6.72498 28.4775C6.85624 28.7185 7.10348 28.854 7.35898 28.854ZM7.20898 34.5102C7.36473 34.5507 7.52348 34.581 7.68073 34.5997C7.86548 34.6222 8.04998 34.6337 8.23548 34.6337C8.46123 34.6337 8.68774 34.6177 8.91349 34.589C9.30874 34.5392 9.58949 34.1785 9.53899 33.7832C9.48849 33.388 9.12999 33.1095 8.73324 33.1577C8.44174 33.1952 8.14748 33.204 7.85598 33.1688C7.76073 33.1562 7.66549 33.1382 7.57174 33.1145C7.18574 33.0112 6.79273 33.245 6.69173 33.631C6.59298 34.017 6.82373 34.4107 7.20898 34.5102ZM20.0217 4.49548C22.1477 4.49548 23.8782 6.22548 23.8782 8.35198C23.8782 10.4787 22.1485 12.2085 20.0217 12.2085C17.8952 12.2085 16.1655 10.4787 16.1655 8.35198C16.1655 6.22548 17.896 4.49548 20.0217 4.49548ZM12.93 7.43875C13.4587 3.40499 15.7787 1.44348 20.022 1.44348C24.2657 1.44348 26.585 3.40499 27.113 7.43875C27.297 8.83825 27.2197 10.3552 26.885 11.9452C25.2482 19.702 21.3455 24.624 20.0217 26.1172C18.6967 24.6225 14.7947 19.6985 13.1587 11.9452C12.8232 10.3552 12.747 8.83899 12.93 7.43875Z" fill="#FE5000"/></svg>