<svg xmlns="http://www.w3.org/2000/svg" viewBox="0 0 55.24 60"><defs><clipPath id="a" transform="translate(-2.38)"><path fill="none" d="M0 0H60V60H0z"/></clipPath></defs><g clip-path="url(#a)"><path d="M57.59,14.15a1.57,1.57,0,0,0-.15-.67,1.47,1.47,0,0,0-1-.81L30.62.15a1.53,1.53,0,0,0-1.33,0l-26,12.63a1.53,1.53,0,0,0-.86,1.32h0V45.84a1.51,1.51,0,0,0,.86,1.37l26,12.63h0l.11.05h.05l.11,0h0l.13,0h.41l.13,0h0l.11,0h.05l.11-.05h0L56.76,47.17a1.53,1.53,0,0,0,.86-1.37V14.18S57.59,14.16,57.59,14.15ZM29.95,3.2l22.59,11-8.32,4-22.59-11Zm0,21.91-22.59-11L18.15,8.93l22.59,11ZM5.42,16.6l23,11.16V56l-23-11.16ZM31.47,56V27.76l10.8-5.24v7.4a1.52,1.52,0,0,0,3,0V21l9.24-4.48V44.83Z" transform="translate(-2.38)" fill="#fe5000"/></g></svg>