<svg viewBox="0 0 40 40" fill="none" xmlns="http://www.w3.org/2000/svg"><path fill-rule="evenodd" clip-rule="evenodd" d="M21.5335 8.01599H11.3953V31.6718H13.641V21.5335H21.5335C25.261 21.5335 28.2925 18.5023 28.2925 14.7748C28.2925 11.047 25.261 8.01575 21.5335 8.01575V8.01599ZM2.8425 0H36.845C38.4085 0 39.6875 1.279 39.6875 2.8425V36.845C39.6875 38.4085 38.4085 39.6875 36.845 39.6875H2.8425C1.279 39.6875 0 38.4085 0 36.845V2.8425C0 1.279 1.279 0 2.8425 0ZM4.421 1.8425H35.2665C36.6848 1.8425 37.845 3.00275 37.845 4.421V35.2665C37.845 36.6848 36.6848 37.845 35.2665 37.845H4.421C3.00275 37.845 1.8425 36.6848 1.8425 35.2665V4.421C1.8425 3.00275 3.00275 1.8425 4.421 1.8425ZM21.5335 19.288H13.641V10.261H21.5335C28.1417 10.4853 28.1217 19.5075 21.5335 19.2877V19.288Z" fill="#FE5000"/></svg>