<svg xmlns="http://www.w3.org/2000/svg" viewBox="0 0 48.05 60"><defs><clipPath id="a" transform="translate(-5.98)"><path fill="none" d="M0 0H60V60H0z"/></clipPath></defs><g fill="#fe5000" clip-path="url(#a)"><path d="M48.92,0H11.08A5.11,5.11,0,0,0,6,5.1V43a5.11,5.11,0,0,0,5.1,5.1H22.4v8.36H20.65a1.76,1.76,0,0,0,0,3.52H39.35a1.76,1.76,0,1,0,0-3.52H37.6V48.12H48.92A5.11,5.11,0,0,0,54,43V5.1A5.11,5.11,0,0,0,48.92,0ZM34.08,56.48H25.92V48.12h8.16ZM50.51,43a1.59,1.59,0,0,1-1.58,1.58H11.08A1.59,1.59,0,0,1,9.49,43V5.1a1.59,1.59,0,0,1,1.58-1.58H48.92A1.59,1.59,0,0,1,50.51,5.1Z" transform="translate(-5.98)"/><path d="M33.39,7.05H22.78a6.21,6.21,0,0,0-6.2,6.2V39.17a1.91,1.91,0,0,0,1.91,1.91h6.28a1.91,1.91,0,0,0,1.91-1.91V30.74h6.72A10.52,10.52,0,0,0,43.9,20.24V17.56A10.52,10.52,0,0,0,33.39,7.05Zm7,13.19a7,7,0,0,1-7,7H25.06a1.91,1.91,0,0,0-1.91,1.91v8.42H20.09V13.25a2.69,2.69,0,0,1,2.69-2.69H33.39a7,7,0,0,1,7,7Z" transform="translate(-5.98)"/><path d="M32.76,13.36h-7.7a1.91,1.91,0,0,0-1.91,1.91v7.12a1.91,1.91,0,0,0,1.91,1.91h7.7a4.56,4.56,0,0,0,4.55-4.55V17.92A4.56,4.56,0,0,0,32.76,13.36Zm1,6.38a1,1,0,0,1-1,1H26.67v-3.9h6.09a1,1,0,0,1,1,1Z" transform="translate(-5.98)"/></g></svg>