<svg viewBox="0 0 15 15" fill="none" xmlns="http://www.w3.org/2000/svg"><g clip-path="url(#clip0)"><path d="M13.9348 15.0662C14.2475 15.3783 14.7541 15.3779 15.0662 15.0652C15.3783 14.7525 15.3779 14.2459 15.0652 13.9338L13.9348 15.0662ZM11.3129 11.3188L10.7477 10.7527L11.3129 11.3188ZM7.25 12.2C4.51619 12.2 2.3 9.98381 2.3 7.25H0.7C0.7 10.8675 3.63253 13.8 7.25 13.8V12.2ZM2.3 7.25C2.3 4.51619 4.51619 2.3 7.25 2.3V0.7C3.63253 0.7 0.7 3.63253 0.7 7.25H2.3ZM7.25 2.3C9.98381 2.3 12.2 4.51619 12.2 7.25H13.8C13.8 3.63253 10.8675 0.7 7.25 0.7V2.3ZM12.2 7.25C12.2 8.61841 11.6458 9.85585 10.7477 10.7527L11.8782 11.8849C13.0646 10.7002 13.8 9.06021 13.8 7.25H12.2ZM10.7477 10.7527C9.85121 11.6479 8.61585 12.2 7.25 12.2V13.8C9.05681 13.8 10.694 13.0674 11.8782 11.8849L10.7477 10.7527ZM10.7478 11.885L13.9348 15.0662L15.0652 13.9338L11.8781 10.7526L10.7478 11.885Z" fill="#0C0A3E"/></g><defs><clipPath id="clip0"><path fill="#fff" d="M0 0H15V15H0z"/></clipPath></defs></svg>