<svg viewBox="0 0 16 16" xmlns="http://www.w3.org/2000/svg"><path d="M11.3523 0H4.64775C2.08497 0 0 2.08497 0 4.64775V11.3523C0 13.915 2.08497 16 4.64775 16H11.3523C13.915 16 16 13.915 16 11.3523V4.64775C16 2.08497 13.915 0 11.3523 0ZM14.75 11.3523C14.75 13.2258 13.2258 14.75 11.3523 14.75H4.64775C2.77422 14.75 1.25 13.2258 1.25 11.3523V4.64775C1.25 2.77422 2.77422 1.25 4.64775 1.25H11.3523C13.2258 1.25 14.75 2.77422 14.75 4.64775V11.3523Z"/><path d="M8 4C5.79438 4 4 5.79438 4 8C4 10.2056 5.79438 12 8 12C10.2056 12 12 10.2056 12 8C12 5.79438 10.2056 4 8 4ZM8 10.8406C6.43371 10.8406 5.15942 9.56629 5.15942 8C5.15942 6.43371 6.43371 5.15942 8 5.15942C9.56629 5.15942 10.8406 6.43371 10.8406 8C10.8406 9.56629 9.56629 10.8406 8 10.8406Z"/><path d="M12 5C12.5523 5 13 4.55228 13 4C13 3.44772 12.5523 3 12 3C11.4477 3 11 3.44772 11 4C11 4.55228 11.4477 5 12 5Z"/></svg>