<svg viewBox="0 0 16 11" xmlns="http://www.w3.org/2000/svg"><path d="M15.3764 0.944272C14.7988 0.27358 13.7325 0 11.6961 0H4.30379C2.22075 0 1.13636 0.291228 0.560981 1.00528C0 1.70148 0 2.72729 0 4.14702V6.85303C0 9.60351 0.6656 11 4.30379 11H11.6961C13.4621 11 14.4407 10.7586 15.0738 10.1667C15.723 9.55974 16 8.56873 16 6.85303V4.14702C16 2.64979 15.9566 1.61794 15.3764 0.944272ZM10.2721 5.87361L6.91525 7.58745C6.84021 7.62577 6.75814 7.64478 6.67618 7.64478C6.58338 7.64478 6.49079 7.62038 6.40877 7.57187C6.25435 7.48046 6.16005 7.31695 6.16005 7.14058V3.72389C6.16005 3.54783 6.25409 3.38446 6.40821 3.293C6.56237 3.20154 6.75412 3.19529 6.91406 3.27646L10.2709 4.97926C10.4417 5.06588 10.5489 5.23812 10.5492 5.42603C10.5494 5.6141 10.4426 5.78659 10.2721 5.87361Z"/></svg>