<svg viewBox="0 0 16 9" xmlns="http://www.w3.org/2000/svg"><path fill-rule="evenodd" clip-rule="evenodd" d="M13.7703 5.72261C14.301 6.23766 14.8612 6.72226 15.3372 7.28925C15.5475 7.54121 15.7466 7.80122 15.8989 8.09363C16.1147 8.5093 15.9192 8.96672 15.5442 8.99154L13.2133 8.99049C12.6121 9.04008 12.1325 8.79951 11.7293 8.39095C11.4066 8.06421 11.1077 7.71647 10.7974 7.37871C10.6702 7.24066 10.537 7.11075 10.3779 7.00808C10.0597 6.80278 9.78353 6.86564 9.60169 7.19551C9.41649 7.53102 9.37449 7.90254 9.3563 8.27646C9.33133 8.82203 9.16542 8.96546 8.61407 8.99044C7.43578 9.04567 6.31753 8.86848 5.2787 8.27766C4.36284 7.75681 3.65263 7.02151 3.03447 6.18907C1.83089 4.56814 0.909193 2.787 0.0808054 0.955963C-0.105658 0.543428 0.0307068 0.321981 0.488638 0.314143C1.24905 0.29946 2.00936 0.300505 2.77067 0.313098C3.07973 0.317592 3.28433 0.493788 3.40366 0.783999C3.81507 1.7895 4.31847 2.74614 4.95036 3.63287C5.11863 3.86895 5.29022 4.10502 5.53456 4.27119C5.80487 4.45517 6.01068 4.39419 6.13784 4.09489C6.21854 3.9051 6.25386 3.70069 6.27205 3.49743C6.3323 2.79813 6.34024 2.10004 6.23457 1.40319C6.1697 0.968295 5.92326 0.686757 5.48667 0.604459C5.26388 0.5625 5.29705 0.480098 5.40492 0.353699C5.59228 0.1357 5.76849 0 6.11976 0H8.75406C9.16878 0.0813574 9.26088 0.266541 9.31766 0.681323L9.31992 3.58986C9.3154 3.75044 9.40061 4.22693 9.69158 4.33321C9.92447 4.40887 10.078 4.22369 10.2177 4.07691C10.8484 3.41153 11.2986 2.62517 11.7007 1.81092C11.8792 1.45289 12.0327 1.08106 12.1814 0.709539C12.2916 0.433854 12.4645 0.298206 12.7769 0.304215L15.3122 0.306462C15.3874 0.306462 15.4635 0.307559 15.5363 0.319943C15.9635 0.392313 16.0806 0.574989 15.9486 0.989666C15.7407 1.64026 15.3362 2.18244 14.9407 2.72712C14.5179 3.30864 14.0657 3.87025 13.6464 4.45522C13.2611 4.9894 13.2917 5.25866 13.7703 5.72261Z"/></svg>