<svg viewBox="0 0 10 16" xmlns="http://www.w3.org/2000/svg"><path d="M4.01622 11.2698C2.77585 11.1405 1.65747 10.835 0.699956 10.0861C0.581147 9.99293 0.458484 9.90312 0.350065 9.79905C-0.0690345 9.39654 -0.111263 8.93555 0.220363 8.46048C0.504064 8.05395 0.980305 7.9452 1.47532 8.17863C1.57117 8.22387 1.66249 8.28034 1.74997 8.341C3.53445 9.56713 5.98587 9.60098 7.77705 8.39613C7.95451 8.26007 8.1442 8.14913 8.36406 8.09249C8.79154 7.98273 9.19019 8.13975 9.4196 8.51377C9.68168 8.94091 9.67833 9.35783 9.35542 9.68946C8.86007 10.1979 8.26435 10.5657 7.60244 10.8224C6.97656 11.0651 6.29102 11.1872 5.61252 11.2683C5.7149 11.3798 5.76316 11.4346 5.82718 11.4989C6.74849 12.4246 7.67383 13.3464 8.59213 14.2749C8.90498 14.5913 8.97034 14.9836 8.79807 15.3516C8.60972 15.7537 8.18811 16.0183 7.77471 15.99C7.51279 15.9719 7.30852 15.8416 7.12704 15.6587C6.43178 14.9591 5.72345 14.2724 5.04227 13.5595C4.84403 13.3523 4.74868 13.3915 4.57373 13.5714C3.87429 14.2915 3.16344 15.0005 2.44841 15.7055C2.12734 16.022 1.74527 16.079 1.37293 15.8982C0.977122 15.7063 0.72526 15.3023 0.744698 14.8963C0.758104 14.6216 0.893168 14.4118 1.08169 14.2236C1.99345 13.3132 2.9027 12.4004 3.81228 11.4885C3.87244 11.4279 3.92858 11.3635 4.01622 11.2698Z"/><path d="M4.77225 8.09863C2.55945 8.09109 0.744978 6.25667 0.757881 4.04036C0.770616 1.79958 2.58626 -0.00618427 4.82084 1.59188e-05C7.05995 0.00604853 8.85716 1.83778 8.84594 4.10186C8.83454 6.31365 7.0075 8.10634 4.77225 8.09863ZM6.78329 4.04572C6.77943 2.94527 5.90303 2.0692 4.80476 2.0682C3.69727 2.06702 2.81299 2.95901 2.82154 4.06952C2.82975 5.16578 3.71369 6.03565 4.81498 6.03162C5.91292 6.02777 6.78697 5.146 6.78329 4.04572Z"/></svg>