<svg xmlns="http://www.w3.org/2000/svg" viewBox="0 0 56.21 60"><defs><clipPath id="a" transform="translate(-1.88)"><path fill="none" d="M0 0H60V60H0z"/></clipPath></defs><g fill="#fe5000" clip-path="url(#a)"><path d="M10.93,33.65a53.63,53.63,0,0,0,19.18,3.18A53.63,53.63,0,0,0,49.3,33.65c5.67-2.25,8.79-5.45,8.79-9,0-2-1-4.85-5.58-7.48A20.3,20.3,0,0,0,50,16l-1.06-.43C48.13,7.31,46,2.46,42.58.71c-4-2-8.33.7-10.94,2.32-.5.31-1.15.71-1.52.89-.37-.18-1-.58-1.52-.89C26,1.41,21.62-1.29,17.65.71c-3.47,1.75-5.55,6.6-6.37,14.82L10.22,16a20.3,20.3,0,0,0-2.5,1.2c-4.61,2.63-5.58,5.52-5.58,7.48C2.14,28.2,5.26,31.39,10.93,33.65Zm8.31-29.8a3.27,3.27,0,0,1,1.49-.33c2,0,4.25,1.41,6,2.5,1.44.89,2.39,1.48,3.38,1.48S32,6.91,33.49,6c2.24-1.39,5.3-3.28,7.5-2.17,1.58.8,3.61,3.54,4.44,12a34.57,34.57,0,0,1-15.32,3.38,34.57,34.57,0,0,1-15.32-3.38C15.63,7.39,17.65,4.65,19.24,3.85ZM9.47,20.21a16.8,16.8,0,0,1,2.07-1l1.24-.5a37.9,37.9,0,0,0,17.34,4,37.9,37.9,0,0,0,17.34-4l1.24.5a16.8,16.8,0,0,1,2.07,1c2.45,1.4,3.8,3,3.8,4.43,0,2-2.46,4.1-6.57,5.74a50.08,50.08,0,0,1-17.88,2.93,50.08,50.08,0,0,1-17.88-2.93c-4.11-1.64-6.57-3.78-6.57-5.74C5.66,23.19,7,21.61,9.47,20.21Z" transform="translate(-1.88)"/><path d="M56.33,45h-2.1a10.84,10.84,0,0,0-20.05.06,9.18,9.18,0,0,0-8.42,0A10.84,10.84,0,0,0,5.7,45H3.63a1.76,1.76,0,0,0,0,3.52H4.89c0,.21,0,.42,0,.63a10.84,10.84,0,1,0,21.68,0c0-.13,0-.26,0-.39a5.63,5.63,0,0,1,6.84-.06q0,.22,0,.45a10.84,10.84,0,1,0,21.68,0c0-.21,0-.42,0-.63h1.29a1.76,1.76,0,0,0,0-3.52ZM15.71,56.48A7.32,7.32,0,1,1,23,49.16,7.33,7.33,0,0,1,15.71,56.48Zm28.51,0a7.32,7.32,0,1,1,7.32-7.32A7.33,7.33,0,0,1,44.22,56.48Z" transform="translate(-1.88)"/></g></svg>