<svg xmlns="http://www.w3.org/2000/svg" viewBox="0 0 60 57.24"><defs><clipPath id="a" transform="translate(0 -1.38)"><path fill="none" d="M0 0H60V60H0z"/></clipPath></defs><g clip-path="url(#a)"><path d="M59.86,22.61A1.63,1.63,0,0,0,58.2,21.4H38.28L31.75,2.59A1.65,1.65,0,0,0,30,1.38a1.69,1.69,0,0,0-1.76,1.21L21.74,21.4H1.82A1.66,1.66,0,0,0,.09,22.61a1.77,1.77,0,0,0,.59,2l16,12.49-5.8,19.14a1.73,1.73,0,0,0,.65,2,1.88,1.88,0,0,0,2.15,0L30,46.87,46.36,58.28a1.83,1.83,0,0,0,1.08.33,1.77,1.77,0,0,0,1.79-1.79,2.54,2.54,0,0,0-.13-.75L43.36,37.12l16-12.49A1.65,1.65,0,0,0,59.86,22.61ZM40.17,35A1.88,1.88,0,0,0,39.55,37l4.63,15.36L31,43.18a1.63,1.63,0,0,0-2,0L15.84,52.31,20.47,37A1.88,1.88,0,0,0,19.85,35L7,25h16a1.63,1.63,0,0,0,1.66-1.21L30,8.65l5.25,15.16A1.64,1.64,0,0,0,37,25H53Z" transform="translate(0 -1.38)" fill="#fe5000"/></g></svg>