<svg xmlns="http://www.w3.org/2000/svg" viewBox="0 0 40 40"><defs><clipPath id="clip-path"><path fill="none" d="M0 0H40V40H0z"/></clipPath></defs><g clip-path="url(#clip-path)"><path d="M3.14,5H36.55a3.13,3.13,0,0,1,2.22.92h0a3.12,3.12,0,0,1,.92,2.21v22.3a3.13,3.13,0,0,1-.92,2.21h0a3.13,3.13,0,0,1-2.21.92H3.14a3.12,3.12,0,0,1-2.21-.92h0A3.13,3.13,0,0,1,0,30.44V8.14A3.14,3.14,0,0,1,3.14,5ZM1.88,11.64H37.81V8.14a1.26,1.26,0,0,0-1.26-1.26H3.14A1.27,1.27,0,0,0,1.88,8.14v3.5Zm35.94,2H1.88v3H37.81v-3ZM1.88,18.54v11.9A1.27,1.27,0,0,0,3.14,31.7H36.55a1.26,1.26,0,0,0,1.26-1.26V18.54H1.88Zm22,9.52h9.3v1.49h-9.3V28.06Z" fill="#fe5000"/></g></svg>