<svg viewBox="0 0 60 60" fill="none" xmlns="http://www.w3.org/2000/svg"><path d="M52.5795 15.0257L51.3364 16.2688C50.3208 17.2845 48.9703 17.8438 47.5338 17.8438C46.0973 17.8438 44.7471 17.2845 43.7313 16.2688C42.7157 15.2531 42.1563 13.9027 42.1563 12.4663C42.1563 11.0299 42.7157 9.67945 43.7313 8.66367L44.9745 7.42055L37.5538 0L0 37.5538L7.42055 44.9743L8.66367 43.7312C9.67934 42.7155 11.0298 42.1562 12.4663 42.1562C13.9028 42.1562 15.253 42.7155 16.2688 43.7312C17.2845 44.7469 17.8438 46.0973 17.8438 47.5337C17.8438 48.9701 17.2845 50.3205 16.2688 51.3363L15.0257 52.5795L22.4462 60L60 22.4462L52.5795 15.0257ZM19.8762 52.4573C20.8414 51.0109 21.36 49.3121 21.36 47.5337C21.36 45.1581 20.4349 42.9247 18.755 41.245C17.0753 39.5651 14.8418 38.64 12.4663 38.64C10.6879 38.64 8.9891 39.1586 7.54266 40.1238L4.9725 37.5538L37.5538 4.9725L40.1238 7.54266C39.1586 8.9891 38.64 10.6879 38.64 12.4663C38.64 14.8419 39.5651 17.0753 41.245 18.755C42.9247 20.4349 45.1582 21.36 47.5337 21.36C49.3121 21.36 51.0109 20.8414 52.4573 19.8762L55.0275 22.4462L22.4462 55.0275L19.8762 52.4573Z" fill="#FE5000"/><path d="M35.0331 22.47L32.5469 24.9563L35.043 27.4524L37.5293 24.9662L35.0331 22.47Z" fill="#FE5000"/><path d="M30.0429 17.4761L27.5566 19.9623L30.0528 22.4585L32.539 19.9723L30.0429 17.4761Z" fill="#FE5000"/><path d="M40.0272 27.4623L37.541 29.9486L40.0372 32.4447L42.5234 29.9585L40.0272 27.4623Z" fill="#FE5000"/></svg>