<svg xmlns="http://www.w3.org/2000/svg" viewBox="0 0 86.19 80.4"><defs><style>.cls-1{fill:#e3e3e3;}.cls-2{fill:#fff;}</style></defs><title>ic-faq</title><g id="Слой_2" data-name="Слой 2"><g id="Слой_2-2" data-name="Слой 2"><g id="_Группа_" data-name="&lt;Группа&gt;"><g id="_Группа_2" data-name="&lt;Группа&gt;"><path id="_Составной_контур_" data-name="&lt;Составной контур&gt;" class="cls-1" d="M14.85,14.53a28.33,28.33,0,0,1,7.22.87,9.28,9.28,0,0,1,7.29,7.91,28.41,28.41,0,0,1,.26,8,15.59,15.59,0,0,1-1,4.7,8.86,8.86,0,0,1-6.25,5.17,30.63,30.63,0,0,1-9.52.87.81.81,0,0,0-.56.24c-.81.88-1.6,1.79-2.4,2.68a3.42,3.42,0,0,1-.44.43c-1,.8-2,.43-2.19-.86a21.53,21.53,0,0,1-.05-2.86.69.69,0,0,0-.55-.8A9,9,0,0,1,.54,33.7,26.12,26.12,0,0,1,.76,22.18a8.63,8.63,0,0,1,5.91-6.44A24.3,24.3,0,0,1,14.85,14.53Z"/><path id="_Контур_" data-name="&lt;Контур&gt;" class="cls-2" d="M9.48,20.95a3,3,0,0,1,.93.52,27.72,27.72,0,0,1,2.07,2.72c.58.9.43,1.4-.4,2.08s-1,1.06-.52,2.16A7.15,7.15,0,0,0,15.34,32c.79.34,1,.25,1.58-.45.83-1.06,1.38-1.15,2.54-.44.17.11.36.2.52.33.66.5,1.32,1,2,1.51a1.12,1.12,0,0,1,.33,1.51,4.76,4.76,0,0,1-1.9,2.08,1.86,1.86,0,0,1-1.68.1A20.31,20.31,0,0,1,6.78,24.53a1.79,1.79,0,0,1,.63-2.34,12,12,0,0,1,1.27-.93A4.61,4.61,0,0,1,9.48,20.95Z"/><path id="_Контур_2" data-name="&lt;Контур&gt;" class="cls-2" d="M22.17,28.18l-.42.77a3,3,0,0,1-.3-.82,6.59,6.59,0,0,0-3.1-5.54,7.21,7.21,0,0,0-3.3-1c-.21,0-.39-.21-.59-.33.21-.1.43-.29.64-.28A7.34,7.34,0,0,1,22.17,28.18Z"/><path id="_Контур_3" data-name="&lt;Контур&gt;" class="cls-2" d="M20.15,27.33c0,.1,0,.17,0,.21-.1.23-.21.45-.31.67a2.16,2.16,0,0,1-.27-.63,4.24,4.24,0,0,0-3.9-4.08c-.07,0-.17,0-.22,0s-.28-.23-.42-.35c.15-.08.3-.25.43-.24a5,5,0,0,1,3.32,1.43A4.48,4.48,0,0,1,20.15,27.33Z"/><path id="_Контур_4" data-name="&lt;Контур&gt;" class="cls-2" d="M18.33,27.3l-.29.3c-.11-.13-.29-.25-.31-.39A1.82,1.82,0,0,0,16,25.39c-.13,0-.24-.21-.35-.32.16-.09.32-.27.47-.27A2.41,2.41,0,0,1,18.33,27.3Z"/></g><path id="_Составной_контур_2" data-name="&lt;Составной контур&gt;" class="cls-1" d="M29.57,76.67c0-1,0-2,0-3.05a1.13,1.13,0,0,0-.5-1,18.87,18.87,0,0,1-7.3-12.88A18.58,18.58,0,0,1,28.11,43.3C36.33,35.73,50,35.87,58,43.57a18.93,18.93,0,0,1-1.61,29.29,21.89,21.89,0,0,1-18.76,3.9A2.12,2.12,0,0,0,36,77c-1.93,1.11-3.89,2.16-5.83,3.25-.49.28-.64.21-.62-.37C29.59,78.81,29.57,77.74,29.57,76.67Zm.15-13c.43.17.7-.07,1-.22,2.72-1.49,5.44-3,8.14-4.49.56-.32.89-.34,1.35.19,1.44,1.63,3,3.19,4.43,4.8.31.34.48.37.81,0,2.69-2.9,5.4-5.78,8.1-8.67l2.7-2.9a1.15,1.15,0,0,0-.78.25c-2.86,1.58-5.72,3.15-8.56,4.77a.84.84,0,0,1-1.24-.21c-1.48-1.6-3-3.14-4.5-4.74-.37-.4-.58-.43-1,0-2.52,2.73-5.07,5.43-7.61,8.14Z"/><g id="_Группа_3" data-name="&lt;Группа&gt;"><path id="_Составной_контур_3" data-name="&lt;Составной контур&gt;" class="cls-1" d="M57.53,21.37a2.32,2.32,0,0,0,1.59-.6l-7.7-7.71-.53.38q-.87.64-1.4,1a8.76,8.76,0,0,1-1.43.73,4.38,4.38,0,0,1-1.67.37h0a4.38,4.38,0,0,1-1.67-.37,8.63,8.63,0,0,1-1.43-.73q-.54-.36-1.4-1l-.53-.38-7.71,7.71a2.32,2.32,0,0,0,1.59.6Zm0,0"/><path id="_Составной_контур_4" data-name="&lt;Составной контур&gt;" class="cls-1" d="M34.29,8.21a8.08,8.08,0,0,1-1.53-1.32V18.62l6.79-6.79q-2-1.42-5.26-3.61Zm0,0"/><path id="_Составной_контур_5" data-name="&lt;Составной контур&gt;" class="cls-1" d="M58.44,8.21q-3.1,2.1-5.27,3.61L60,18.62V6.89a8.41,8.41,0,0,1-1.52,1.32Zm0,0"/><path id="_Составной_контур_6" data-name="&lt;Составной контур&gt;" class="cls-1" d="M57.53,0H35.19a2.16,2.16,0,0,0-1.8.79,3.06,3.06,0,0,0-.63,2,3.55,3.55,0,0,0,.84,2.07,7.54,7.54,0,0,0,1.78,1.75l3.11,2.16,2.45,1.7,1.53,1.07.23.16.42.3.82.58c.22.15.48.31.79.49a4.57,4.57,0,0,0,.87.41,2.4,2.4,0,0,0,.76.14h0a2.41,2.41,0,0,0,.76-.14,4.57,4.57,0,0,0,.87-.41c.31-.18.57-.35.79-.49l.82-.58.42-.3.23-.16,1.54-1.07,5.57-3.87a7.22,7.22,0,0,0,1.85-1.87A4,4,0,0,0,60,2.43,2.33,2.33,0,0,0,59.23.71,2.34,2.34,0,0,0,57.53,0Zm0,0"/></g><path id="_Составной_контур_7" data-name="&lt;Составной контур&gt;" class="cls-1" d="M84,14.47,70.38,10.79a3,3,0,0,0-3.7,2.12L59.84,38.14A3,3,0,0,0,62,41.84l13.58,3.68a3,3,0,0,0,3.7-2.12l6.84-25.22A3,3,0,0,0,84,14.47ZM72.89,13l7.76,2.1-.26,1L72.63,14Zm-3.62,28.7a2,2,0,1,1,2.47-1.41,2,2,0,0,1-2.47,1.41ZM78.62,38,63.09,33.81l5.26-19.4,15.52,4.21Zm0,0"/></g></g></g></svg>