<svg xmlns="http://www.w3.org/2000/svg" viewBox="0 0 42.78 44.95"><defs><style>.cls-1{fill:#bc2436;stroke:#fff;stroke-miterlimit:10;}</style></defs><title>Ресурс 3</title><g id="Слой_2" data-name="Слой 2"><g id="Слой_2-2" data-name="Слой 2"><g id="_Группа_" data-name="&lt;Группа&gt;"><path id="_Составной_контур_" data-name="&lt;Составной контур&gt;" class="cls-1" d="M35.78,9.51H34.65V7A6.5,6.5,0,0,0,28.16.5H14.52A6.5,6.5,0,0,0,8,7V9.51H7A6.5,6.5,0,0,0,.5,16V26.48A6.5,6.5,0,0,0,7,33H8v8.24a3.25,3.25,0,0,0,3.24,3.24H31.4a3.25,3.25,0,0,0,3.24-3.24V33h1.14a6.5,6.5,0,0,0,6.49-6.49V16a6.5,6.5,0,0,0-6.49-6.49ZM10.48,7a4,4,0,0,1,4-4H28.14a4,4,0,0,1,4,4V9.51H10.48ZM32.18,41.23a.79.79,0,0,1-.78.78H11.26a.79.79,0,0,1-.78-.78V27.65H32.18Zm7.63-14.74a4,4,0,0,1-4,4H34.65V27.65h1.62a1.23,1.23,0,1,0,0-2.46H6.21a1.23,1.23,0,1,0,0,2.46H8v2.88H7a4,4,0,0,1-4-4V16a4,4,0,0,1,4-4H35.78a4,4,0,0,1,4,4Zm0,0"/><path id="_Составной_контур_2" data-name="&lt;Составной контур&gt;" class="cls-1" d="M13.45,33.7H29.11a1.23,1.23,0,0,0,0-2.46H13.45a1.23,1.23,0,1,0,0,2.46Zm0,0"/><path id="_Составной_контур_3" data-name="&lt;Составной контур&gt;" class="cls-1" d="M29.21,36.26H13.54a1.23,1.23,0,0,0,0,2.46H29.2a1.23,1.23,0,0,0,0-2.46Zm0,0"/><path id="_Составной_контур_4" data-name="&lt;Составной контур&gt;" class="cls-1" d="M35.75,14.34h-2.5a1.23,1.23,0,1,0,0,2.46h2.5a1.23,1.23,0,0,0,0-2.46Zm0,0"/></g></g></g></svg>