<svg xmlns="http://www.w3.org/2000/svg" viewBox="0 0 22.13 22.12"><defs><style>.cls-1,.cls-2{fill:#1e88e5;}.cls-1{stroke:#1e88e5;stroke-miterlimit:10;stroke-width:0.5px;}</style></defs><title>ic-phone-2</title><g id="Слой_2" data-name="Слой 2"><g id="Слой_2-2" data-name="Слой 2"><g id="_Группа_" data-name="&lt;Группа&gt;"><path id="_Составной_контур_" data-name="&lt;Составной контур&gt;" class="cls-1" d="M17.63,21.87a9.3,9.3,0,0,1-3.18-.67,23.92,23.92,0,0,1-8-5.5,23.93,23.93,0,0,1-5.5-8C0,5.29,0,3.34.92,2.44L1.32,2c.82-.86,1.76-1.84,3-1.78a3.54,3.54,0,0,1,2.5,1.6C9.25,4.92,8.13,6,6.85,7.29l-.23.23c-.21.21-.61,1.19,3.1,4.89A20.67,20.67,0,0,0,12.78,15c.52.34,1.45.85,1.83.47l.23-.23c1.27-1.29,2.36-2.4,5.44.07a3.55,3.55,0,0,1,1.6,2.5c.05,1.23-.92,2.15-1.78,3l-.41.39a2.85,2.85,0,0,1-2.05.67ZM4.19,1c-.87,0-1.65.83-2.35,1.56L1.43,3c-.66.67-.6,2.42.17,4.46a23.13,23.13,0,0,0,5.33,7.77,23.13,23.13,0,0,0,7.77,5.33c2,.77,3.8.84,4.46.17l.42-.41c.75-.71,1.59-1.51,1.56-2.41a2.94,2.94,0,0,0-1.33-2c-2.56-2.06-3.27-1.33-4.46-.13l-.23.23c-.56.57-1.49.44-2.74-.37A21.33,21.33,0,0,1,9.2,12.92C6.12,9.84,5.14,8,6.1,7l.23-.23c1.2-1.19,1.93-1.9-.12-4.46A3,3,0,0,0,4.25,1Zm0,0"/><g id="_Группа_2" data-name="&lt;Группа&gt;"><path id="_Составной_контур_2" data-name="&lt;Составной контур&gt;" class="cls-2" d="M14.47,8a.36.36,0,0,1-.26-.62l7-7a.36.36,0,0,1,.51.51l-7,7a.37.37,0,0,1-.26.11Zm0,0"/><path id="_Составной_контур_3" data-name="&lt;Составной контур&gt;" class="cls-2" d="M19.85,8H14.47a.36.36,0,0,1-.36-.36V2.27a.36.36,0,0,1,.73,0v5h5a.36.36,0,1,1,0,.73Zm0,0"/></g></g></g></g></svg>