<?xml version="1.0" encoding="utf-8"?>
<!-- Generator: Adobe Illustrator 19.2.1, SVG Export Plug-In . SVG Version: 6.00 Build 0)  -->
<svg version="1.1" id="OBJECTS" xmlns="http://www.w3.org/2000/svg" xmlns:xlink="http://www.w3.org/1999/xlink" x="0px" y="0px"
	 viewBox="0 0 500 384.1" style="enable-background:new 0 0 500 384.1;" xml:space="preserve">
<style type="text/css">
	.st0{enable-background:new    ;}
	.st1{fill:#0C0A3E;}
	.st2{opacity:0.55;}
	.st3{fill:#7D7D7D;}
	.st4{fill:#6D6D6D;}
	.st5{fill:#ADADAD;}
	.st6{fill:#D8D8D8;}
	.st7{fill:#EFEFEF;}
	.st8{fill:#FFFFFF;}
</style>
<title>bg</title>
<g class="st0">
	<path class="st1" d="M172.5,37.7l9.4,1c-0.6,5.7-2.8,10.3-6.6,14s-8.7,5.5-14.8,5.5c-5.2,0-9.3-1.3-12.6-3.9
		c-3.2-2.6-5.7-6.1-7.4-10.6s-2.6-9.3-2.6-14.7c0-8.6,2-15.6,6.1-21c4.1-5.4,9.7-8.1,16.8-8.1c5.6,0,10.3,1.7,14,5.2
		c3.7,3.4,6.1,8.4,7,14.8l-9.4,1c-1.7-8.5-5.6-12.8-11.5-12.8c-3.8,0-6.8,1.8-8.9,5.3c-2.1,3.5-3.2,8.7-3.2,15.4
		c0,6.8,1.1,12,3.4,15.5c2.3,3.5,5.3,5.2,9,5.2c3,0,5.5-1.2,7.6-3.5C171,43.8,172.2,41,172.5,37.7z"/>
</g>
<g class="st0">
	<path class="st1" d="M233.9,57.3H223l-4.5-13.4h-21.7l-4.4,13.4h-8.7l18.7-56.5h12.5L233.9,57.3z M215.8,35.8l-8.2-25.2l-8.2,25.2
		H215.8z"/>
	<path class="st1" d="M250.8,57.3h-10.2V0.9h10.2V57.3z"/>
</g>
<g class="st0">
	<path class="st1" d="M307.3,57.3h-10.8l-8.8-23.2h-14.3v23.2h-10.2V0.9h24.5c6.8,0,11.8,1.5,15,4.6c3.2,3.1,4.8,7.1,4.8,11.9
		c0,7.3-3.4,12.2-10.2,15L307.3,57.3z M273.4,26h12.7c3.7,0,6.4-0.8,8.2-2.3s2.7-3.7,2.7-6.4c0-2.5-0.9-4.5-2.6-6
		c-1.8-1.5-4.2-2.3-7.4-2.3h-13.5V26z"/>
</g>
<g class="st0">
	<path class="st1" d="M337.8,58.2c-7.5,0-13.3-2.8-17.5-8.4c-4.2-5.6-6.3-12.6-6.3-20.9c0-8.2,2.2-15.1,6.7-20.6
		C325.1,2.8,331,0,338.2,0c7.3,0,13.1,2.8,17.4,8.3c4.3,5.5,6.4,12.4,6.4,20.8c0,8.7-2.2,15.8-6.6,21.1
		C351,55.5,345.1,58.2,337.8,58.2z M337.9,50c3.7,0,6.8-1.5,9.3-4.6c2.5-3,3.8-8.5,3.8-16.5c0-6.5-1-11.6-3.1-15.2
		c-2.1-3.7-5.4-5.5-9.8-5.5c-8.7,0-13.1,7-13.1,21.1c0,6.8,1.1,12,3.3,15.5C330.5,48.3,333.7,50,337.9,50z"/>
</g>
<g class="st0">
	<path class="st1" d="M224.1,82.3H215v-14h9v2.1h-6.5v3.8h5.2v2h-5.2v3.9h6.6V82.3z"/>
</g>
<g class="st0">
	<path class="st1" d="M241.1,75.2v7.2h-1.1l-0.8-1.9c-0.8,1.4-2.1,2.1-3.8,2.1c-1.9,0-3.3-0.7-4.3-2.2c-0.9-1.4-1.4-3.1-1.4-5
		c0-2,0.5-3.7,1.6-5.1c1-1.4,2.5-2.1,4.4-2.1c1.4,0,2.6,0.4,3.5,1.2c0.9,0.8,1.5,1.8,1.7,3.1l-2.2,0.4c-0.4-1.7-1.4-2.6-2.9-2.6
		c-1,0-1.8,0.4-2.4,1.2c-0.6,0.8-0.9,2-0.9,3.7c0,3.5,1.1,5.3,3.3,5.3c0.9,0,1.6-0.3,2.1-0.9c0.6-0.6,0.8-1.4,0.8-2.4h-2.9v-2H241.1
		z"/>
</g>
<g class="st0">
	<path class="st1" d="M253,82.3h-2.7v-5.9l-4.8-8.1h3.1l3.3,5.8l3.2-5.8h2.4l-4.5,8.1V82.3z"/>
	<path class="st1" d="M265.3,82.3h-2.5v-14h5.7c1.6,0,2.8,0.4,3.6,1.2c0.8,0.8,1.2,1.8,1.2,2.9c0,1.3-0.4,2.3-1.3,3.1
		s-1.9,1.2-3.3,1.2h-3.5V82.3z M265.3,74.6h3c0.8,0,1.4-0.2,1.8-0.6s0.6-0.9,0.6-1.5c0-0.6-0.2-1.1-0.6-1.5
		c-0.4-0.4-1.1-0.6-2.1-0.6h-2.8V74.6z"/>
	<path class="st1" d="M284.2,82.3h-2.7V70.5h-3.7v-2.2H288v2.2h-3.7V82.3z"/>
</g>
<rect x="139.5" y="74" class="st1" width="68.4" height="2"/>
<rect x="292.1" y="74" class="st1" width="68.4" height="2"/>
<g class="st2">
	<rect x="370.5" y="208.8" class="st3" width="3.8" height="2.8"/>
	<rect x="370.5" y="211.7" class="st4" width="6.3" height="2.8"/>
	<rect x="370.5" y="214.5" class="st3" width="8.8" height="2.8"/>
	<rect x="370.5" y="217.3" class="st4" width="11.3" height="2.8"/>
	<rect x="370.5" y="220.1" class="st3" width="13.8" height="2.8"/>
	<rect x="370.5" y="222.9" class="st4" width="16.3" height="2.8"/>
	<rect x="370.5" y="225.7" class="st3" width="18.9" height="2.8"/>
	<rect x="370.5" y="228.5" class="st4" width="21.4" height="2.8"/>
	<rect x="370.5" y="231.3" class="st3" width="23.9" height="2.8"/>
	<rect x="370.5" y="234.1" class="st4" width="26.4" height="2.8"/>
	<rect x="370.5" y="237" class="st3" width="28.9" height="2.8"/>
	<rect x="370.5" y="239.8" class="st4" width="31.4" height="2.8"/>
	<rect x="370.5" y="242.6" class="st3" width="33.9" height="2.8"/>
	<rect x="370.5" y="245.4" class="st4" width="36.4" height="2.8"/>
	<rect x="370.5" y="248.2" class="st3" width="38.9" height="2.8"/>
	<rect x="370.5" y="251" class="st4" width="41.4" height="2.8"/>
	<rect x="370.5" y="253.8" class="st3" width="43.9" height="2.8"/>
	<rect x="370.5" y="256.6" class="st4" width="46.4" height="2.8"/>
	<rect x="370.5" y="259.4" class="st3" width="48.9" height="2.8"/>
	<rect x="370.5" y="262.3" class="st4" width="51.4" height="2.8"/>
	<rect x="370.5" y="265.1" class="st3" width="53.9" height="2.8"/>
	<rect x="370.5" y="267.9" class="st4" width="56.4" height="2.8"/>
	<rect x="370.5" y="270.7" class="st3" width="58.9" height="2.8"/>
	<rect x="370.5" y="273.5" class="st4" width="61.4" height="2.8"/>
	<rect x="370.5" y="276.3" class="st3" width="64" height="2.8"/>
	<rect x="370.5" y="279.1" class="st4" width="66.5" height="2.8"/>
	<rect x="370.5" y="281.9" class="st3" width="69" height="2.8"/>
	<rect x="370.5" y="284.7" class="st4" width="71.5" height="2.8"/>
	<rect x="370.5" y="287.5" class="st3" width="74" height="2.8"/>
	<rect x="370.5" y="290.4" class="st4" width="76.5" height="2.8"/>
	<rect x="370.5" y="293.2" class="st3" width="79" height="2.4"/>
	<rect x="370.5" y="295.5" class="st4" width="81.5" height="2.8"/>
	<rect x="370.5" y="298.3" class="st3" width="84" height="2.8"/>
	<rect x="370.5" y="301.1" class="st4" width="86.5" height="2.8"/>
	<rect x="370.5" y="304" class="st3" width="89" height="2.8"/>
	<rect x="370.5" y="306.8" class="st4" width="91.5" height="2.8"/>
	<rect x="370.5" y="309.6" class="st3" width="94" height="2.8"/>
	<rect x="370.5" y="312.4" class="st4" width="96.5" height="2.8"/>
	<rect x="370.5" y="315.2" class="st3" width="99" height="2.8"/>
	<rect x="370.5" y="318" class="st4" width="101.5" height="2.8"/>
	<rect x="370.5" y="320.8" class="st3" width="104" height="2.8"/>
	<rect x="370.5" y="323.6" class="st4" width="106.6" height="2.8"/>
	<rect x="370.5" y="326.4" class="st3" width="109.1" height="2.8"/>
	<rect x="370.5" y="329.2" class="st4" width="111.6" height="2.8"/>
	<rect x="370.5" y="332.1" class="st3" width="114.1" height="2.8"/>
	<rect x="370.5" y="334.9" class="st4" width="116.6" height="2.8"/>
	<rect x="370.5" y="337.7" class="st3" width="119.1" height="2.8"/>
	<rect x="370.5" y="340.5" class="st4" width="121.6" height="2.8"/>
	<rect x="370.5" y="343.3" class="st3" width="124.1" height="2.8"/>
	<rect x="370.5" y="346.1" class="st4" width="126.6" height="2.8"/>
	<rect x="370.5" y="348.9" class="st3" width="129.1" height="2.8"/>
	<polygon class="st5" points="245.7,348.9 370.5,348.9 370.5,348.9 430.8,348.9 432,348.9 432,351.7 372.3,351.7 372.3,351.7 
		243.2,351.7 243.2,348.9 	"/>
	<polygon class="st5" points="370.5,211.7 370.5,211.7 368.5,211.7 368.5,208.8 370.5,208.8 372.3,208.8 372.3,208.8 372.3,211.7 
		372.3,211.7 	"/>
	<polygon class="st3" points="370.5,214.5 366,214.5 366,211.7 368.5,211.7 370.5,211.7 370.5,211.7 372.3,211.7 372.3,211.7 
		373.5,211.7 373.5,214.5 370.5,214.5 	"/>
	<polygon class="st5" points="370.5,217.3 363.5,217.3 363.5,214.5 366,214.5 370.5,214.5 370.5,214.5 373.5,214.5 374.7,214.5 
		374.7,217.3 370.5,217.3 	"/>
	<polygon class="st3" points="370.5,220.1 361,220.1 361,217.3 363.5,217.3 370.5,217.3 370.5,217.3 374.7,217.3 375.9,217.3 
		375.9,220.1 370.5,220.1 	"/>
	<polygon class="st5" points="370.5,222.9 358.5,222.9 358.5,220.1 361,220.1 370.5,220.1 370.5,220.1 375.9,220.1 377.1,220.1 
		377.1,222.9 372.3,222.9 	"/>
	<polygon class="st3" points="370.5,225.7 356,225.7 356,222.9 358.5,222.9 370.5,222.9 372.3,222.9 377.1,222.9 378.3,222.9 
		378.3,225.7 370.5,225.7 	"/>
	<polygon class="st5" points="370.5,228.5 353.5,228.5 353.5,225.7 356,225.7 370.5,225.7 370.5,225.7 378.3,225.7 379.5,225.7 
		379.5,228.5 370.5,228.5 	"/>
	<polygon class="st3" points="370.5,231.3 351,231.3 351,228.5 353.5,228.5 370.5,228.5 370.5,228.5 379.5,228.5 380.7,228.5 
		380.7,231.3 370.5,231.3 	"/>
	<polygon class="st5" points="370.5,234.1 348.5,234.1 348.5,231.3 351,231.3 370.5,231.3 370.5,231.3 380.7,231.3 381.9,231.3 
		381.9,234.1 370.5,234.1 	"/>
	<polygon class="st3" points="370.5,237 346,237 346,234.1 348.5,234.1 370.5,234.1 370.5,234.1 381.9,234.1 383,234.1 383,237 
		372.3,237 	"/>
	<polygon class="st5" points="370.5,239.8 343.5,239.8 343.5,237 346,237 370.5,237 372.3,237 383,237 384.2,237 384.2,239.8 
		370.5,239.8 	"/>
	<polygon class="st3" points="370.5,242.6 341,242.6 341,239.8 343.5,239.8 370.5,239.8 370.5,239.8 384.2,239.8 385.4,239.8 
		385.4,242.6 370.5,242.6 	"/>
	<polygon class="st5" points="370.5,245.4 338.5,245.4 338.5,242.6 341,242.6 370.5,242.6 370.5,242.6 385.4,242.6 386.6,242.6 
		386.6,245.4 370.5,245.4 	"/>
	<polygon class="st3" points="370.5,248.2 336,248.2 336,245.4 338.5,245.4 370.5,245.4 370.5,245.4 386.6,245.4 387.8,245.4 
		387.8,248.2 370.5,248.2 	"/>
	<polygon class="st5" points="370.5,251 333.5,251 333.5,248.2 336,248.2 370.5,248.2 370.5,248.2 387.8,248.2 389,248.2 389,251 
		372.3,251 	"/>
	<polygon class="st3" points="370.5,253.8 330.9,253.8 330.9,251 333.5,251 370.5,251 372.3,251 389,251 390.2,251 390.2,253.8 
		372.3,253.8 	"/>
	<polygon class="st5" points="370.5,256.6 328.4,256.6 328.4,253.8 330.9,253.8 370.5,253.8 372.3,253.8 390.2,253.8 391.4,253.8 
		391.4,256.6 370.5,256.6 	"/>
	<polygon class="st3" points="370.5,259.4 325.9,259.4 325.9,256.6 328.4,256.6 370.5,256.6 370.5,256.6 391.4,256.6 392.6,256.6 
		392.6,259.4 370.5,259.4 	"/>
	<polygon class="st5" points="370.5,262.3 323.4,262.3 323.4,259.4 325.9,259.4 370.5,259.4 370.5,259.4 392.6,259.4 393.8,259.4 
		393.8,262.3 370.5,262.3 	"/>
	<polygon class="st3" points="370.5,265.1 320.9,265.1 320.9,262.3 323.4,262.3 370.5,262.3 370.5,262.3 393.8,262.3 395,262.3 
		395,265.1 370.5,265.1 	"/>
	<polygon class="st5" points="370.5,267.9 318.4,267.9 318.4,265.1 320.9,265.1 370.5,265.1 370.5,265.1 395,265.1 396.2,265.1 
		396.2,267.9 372.3,267.9 	"/>
	<polygon class="st3" points="370.5,270.7 315.9,270.7 315.9,267.9 318.4,267.9 370.5,267.9 372.3,267.9 396.2,267.9 397.4,267.9 
		397.4,270.7 370.5,270.7 	"/>
	<polygon class="st5" points="370.5,273.5 313.4,273.5 313.4,270.7 315.9,270.7 370.5,270.7 370.5,270.7 397.4,270.7 398.6,270.7 
		398.6,273.5 370.5,273.5 	"/>
	<polygon class="st3" points="370.5,276.3 310.9,276.3 310.9,273.5 313.4,273.5 370.5,273.5 370.5,273.5 398.6,273.5 399.8,273.5 
		399.8,276.3 370.5,276.3 	"/>
	<polygon class="st5" points="370.5,279.1 308.4,279.1 308.4,276.3 310.9,276.3 370.5,276.3 370.5,276.3 399.8,276.3 401,276.3 
		401,279.1 370.5,279.1 	"/>
	<polygon class="st3" points="370.5,281.9 305.9,281.9 305.9,279.1 308.4,279.1 370.5,279.1 370.5,279.1 401,279.1 402.1,279.1 
		402.1,281.9 372.3,281.9 	"/>
	<polygon class="st5" points="370.5,284.7 303.4,284.7 303.4,281.9 305.9,281.9 370.5,281.9 372.3,281.9 402.1,281.9 403.3,281.9 
		403.3,284.7 370.5,284.7 	"/>
	<polygon class="st3" points="370.5,287.5 300.9,287.5 300.9,284.7 303.4,284.7 370.5,284.7 370.5,284.7 403.3,284.7 404.5,284.7 
		404.5,287.5 370.5,287.5 	"/>
	<polygon class="st5" points="370.5,290.4 298.4,290.4 298.4,287.5 300.9,287.5 370.5,287.5 370.5,287.5 404.5,287.5 405.7,287.5 
		405.7,290.4 370.5,290.4 	"/>
	<polygon class="st3" points="370.5,293.2 295.9,293.2 295.9,290.4 298.4,290.4 370.5,290.4 370.5,290.4 405.7,290.4 406.9,290.4 
		406.9,293.2 370.5,293.2 	"/>
	<polygon class="st5" points="370.5,295.5 293.4,295.5 293.4,293.2 295.9,293.2 370.5,293.2 370.5,293.2 406.9,293.2 408.1,293.2 
		408.1,295.5 370.5,295.5 	"/>
	<polygon class="st3" points="370.5,298.3 290.8,298.3 290.8,295.5 293.4,295.5 370.5,295.5 370.5,295.5 408.1,295.5 409.3,295.5 
		409.3,298.3 370.5,298.3 	"/>
	<polygon class="st5" points="370.5,301.1 288.3,301.1 288.3,298.3 290.8,298.3 370.5,298.3 370.5,298.3 409.3,298.3 410.5,298.3 
		410.5,301.1 372.3,301.1 	"/>
	<polygon class="st3" points="370.5,304 285.8,304 285.8,301.1 288.3,301.1 370.5,301.1 372.3,301.1 410.5,301.1 411.7,301.1 
		411.7,304 372.3,304 	"/>
	<polygon class="st5" points="370.5,306.8 283.3,306.8 283.3,304 285.8,304 370.5,304 372.3,304 411.7,304 412.9,304 412.9,306.8 
		370.5,306.8 	"/>
	<polygon class="st3" points="370.5,309.6 280.8,309.6 280.8,306.8 283.3,306.8 370.5,306.8 370.5,306.8 412.9,306.8 414.1,306.8 
		414.1,309.6 370.5,309.6 	"/>
	<polygon class="st5" points="370.5,312.4 278.3,312.4 278.3,309.6 280.8,309.6 370.5,309.6 370.5,309.6 414.1,309.6 415.3,309.6 
		415.3,312.4 370.5,312.4 	"/>
	<polygon class="st3" points="370.5,315.2 275.8,315.2 275.8,312.4 278.3,312.4 370.5,312.4 370.5,312.4 415.3,312.4 416.5,312.4 
		416.5,315.2 372.3,315.2 	"/>
	<polygon class="st5" points="370.5,318 273.3,318 273.3,315.2 275.8,315.2 370.5,315.2 372.3,315.2 416.5,315.2 417.7,315.2 
		417.7,318 372.3,318 	"/>
	<polygon class="st3" points="370.5,320.8 270.8,320.8 270.8,318 273.3,318 370.5,318 372.3,318 417.7,318 418.9,318 418.9,320.8 
		370.5,320.8 	"/>
	<polygon class="st5" points="370.5,323.6 268.3,323.6 268.3,320.8 270.8,320.8 370.5,320.8 370.5,320.8 418.9,320.8 420.1,320.8 
		420.1,323.6 370.5,323.6 	"/>
	<polygon class="st3" points="370.5,326.4 265.8,326.4 265.8,323.6 268.3,323.6 370.5,323.6 370.5,323.6 420.1,323.6 421.3,323.6 
		421.3,326.4 370.5,326.4 	"/>
	<polygon class="st5" points="370.5,329.2 263.3,329.2 263.3,326.4 265.8,326.4 370.5,326.4 370.5,326.4 421.3,326.4 422.4,326.4 
		422.4,329.2 370.5,329.2 	"/>
	<polygon class="st3" points="370.5,332.1 260.8,332.1 260.8,329.2 263.3,329.2 370.5,329.2 370.5,329.2 422.4,329.2 423.6,329.2 
		423.6,332.1 372.3,332.1 	"/>
	<polygon class="st5" points="370.5,334.9 258.3,334.9 258.3,332.1 260.8,332.1 370.5,332.1 372.3,332.1 423.6,332.1 424.8,332.1 
		424.8,334.9 370.5,334.9 	"/>
	<polygon class="st3" points="370.5,337.7 255.8,337.7 255.8,334.9 258.3,334.9 370.5,334.9 370.5,334.9 424.8,334.9 426,334.9 
		426,337.7 370.5,337.7 	"/>
	<polygon class="st5" points="370.5,340.5 253.3,340.5 253.3,337.7 255.8,337.7 370.5,337.7 370.5,337.7 426,337.7 427.2,337.7 
		427.2,340.5 370.5,340.5 	"/>
	<polygon class="st3" points="370.5,343.3 250.7,343.3 250.7,340.5 253.3,340.5 370.5,340.5 370.5,340.5 427.2,340.5 428.4,340.5 
		428.4,343.3 370.5,343.3 	"/>
	<polygon class="st5" points="370.5,346.1 248.2,346.1 248.2,343.3 250.7,343.3 370.5,343.3 370.5,343.3 428.4,343.3 429.6,343.3 
		429.6,346.1 372.3,346.1 	"/>
	<polygon class="st3" points="370.5,348.9 245.7,348.9 245.7,346.1 248.2,346.1 370.5,346.1 372.3,346.1 429.6,346.1 430.8,346.1 
		430.8,348.9 370.5,348.9 	"/>
	<rect x="292.4" y="241.2" class="st3" width="3.8" height="2.8"/>
	<rect x="292.4" y="244" class="st4" width="6.3" height="2.8"/>
	<rect x="292.4" y="246.8" class="st3" width="8.8" height="2.8"/>
	<rect x="292.4" y="249.6" class="st4" width="11.3" height="2.8"/>
	<rect x="292.4" y="252.4" class="st3" width="13.8" height="2.8"/>
	<rect x="292.4" y="255.2" class="st4" width="16.3" height="2.8"/>
	<rect x="292.4" y="258.1" class="st3" width="18.9" height="2.8"/>
	<rect x="292.4" y="260.9" class="st4" width="21.4" height="2.8"/>
	<rect x="292.4" y="263.7" class="st3" width="23.9" height="2.8"/>
	<rect x="292.4" y="266.5" class="st4" width="26.4" height="2.8"/>
	<rect x="292.4" y="269.3" class="st3" width="28.9" height="2.8"/>
	<rect x="292.4" y="272.1" class="st4" width="31.4" height="2.8"/>
	<rect x="292.4" y="274.9" class="st3" width="33.9" height="2.8"/>
	<rect x="292.4" y="277.7" class="st4" width="36.4" height="2.8"/>
	<rect x="292.4" y="280.5" class="st3" width="38.9" height="2.8"/>
	<rect x="292.4" y="283.4" class="st4" width="41.4" height="2.8"/>
	<rect x="292.4" y="286.2" class="st3" width="43.9" height="2.8"/>
	<rect x="292.4" y="289" class="st4" width="46.4" height="2.8"/>
	<rect x="292.4" y="291.8" class="st3" width="48.9" height="2.8"/>
	<rect x="292.4" y="294.6" class="st4" width="51.4" height="2.8"/>
	<rect x="292.4" y="297.4" class="st3" width="53.9" height="2.8"/>
	<rect x="292.4" y="300.2" class="st4" width="56.4" height="2.8"/>
	<rect x="292.4" y="303" class="st3" width="58.9" height="2.8"/>
	<rect x="292.4" y="305.8" class="st4" width="61.4" height="2.8"/>
	<rect x="292.4" y="308.6" class="st3" width="64" height="2.8"/>
	<rect x="292.4" y="311.5" class="st4" width="66.5" height="2.8"/>
	<rect x="292.4" y="314.3" class="st3" width="69" height="2.8"/>
	<rect x="292.4" y="317.1" class="st4" width="71.5" height="2.8"/>
	<rect x="292.4" y="319.9" class="st3" width="74" height="2.8"/>
	<rect x="292.4" y="322.7" class="st4" width="76.5" height="2.8"/>
	<rect x="292.4" y="325.5" class="st3" width="79" height="2.4"/>
	<rect x="292.4" y="327.9" class="st4" width="81.5" height="2.8"/>
	<rect x="292.4" y="330.7" class="st3" width="84" height="2.8"/>
	<rect x="292.4" y="333.5" class="st4" width="86.5" height="2.8"/>
	<rect x="292.4" y="336.3" class="st3" width="89" height="2.8"/>
	<rect x="292.4" y="339.1" class="st4" width="91.5" height="2.8"/>
	<rect x="292.4" y="341.9" class="st3" width="94" height="2.8"/>
	<rect x="292.4" y="344.7" class="st4" width="96.5" height="2.8"/>
	<rect x="292.4" y="347.5" class="st3" width="99" height="2.8"/>
	<rect x="292.4" y="350.3" class="st4" width="101.5" height="2.8"/>
	<rect x="292.4" y="353.2" class="st3" width="104" height="2.8"/>
	<rect x="292.4" y="356" class="st4" width="106.6" height="2.8"/>
	<rect x="292.4" y="358.8" class="st3" width="109.1" height="2.8"/>
	<rect x="292.4" y="361.6" class="st4" width="111.6" height="2.8"/>
	<rect x="292.4" y="364.4" class="st3" width="114.1" height="2.8"/>
	<rect x="292.4" y="367.2" class="st4" width="116.6" height="2.8"/>
	<rect x="292.4" y="370" class="st3" width="119.1" height="2.8"/>
	<rect x="292.4" y="372.8" class="st4" width="121.6" height="2.8"/>
	<rect x="292.4" y="375.6" class="st3" width="124.1" height="2.8"/>
	<rect x="292.4" y="378.5" class="st4" width="126.6" height="2.8"/>
	<rect x="292.4" y="381.3" class="st3" width="129.1" height="2.8"/>
	<polygon class="st5" points="167.7,381.3 292.4,381.3 292.4,381.3 352.7,381.3 353.9,381.3 353.9,384.1 294.3,384.1 294.3,384.1 
		165.2,384.1 165.2,381.3 	"/>
	<polygon class="st5" points="292.4,244 292.4,244 290.5,244 290.5,241.2 292.4,241.2 294.2,241.2 294.3,241.2 294.3,244 294.2,244 
			"/>
	<polygon class="st3" points="292.4,246.8 288,246.8 288,244 290.5,244 292.4,244 292.4,244 294.2,244 294.3,244 295.4,244 
		295.4,246.8 292.4,246.8 	"/>
	<polygon class="st5" points="292.4,249.6 285.5,249.6 285.5,246.8 288,246.8 292.4,246.8 292.4,246.8 295.4,246.8 296.6,246.8 
		296.6,249.6 292.4,249.6 	"/>
	<polygon class="st3" points="292.4,252.4 283,252.4 283,249.6 285.5,249.6 292.4,249.6 292.4,249.6 296.6,249.6 297.8,249.6 
		297.8,252.4 292.4,252.4 	"/>
	<polygon class="st5" points="292.4,255.2 280.5,255.2 280.5,252.4 283,252.4 292.4,252.4 292.4,252.4 297.8,252.4 299,252.4 
		299,255.2 294.3,255.2 	"/>
	<polygon class="st3" points="292.4,258.1 277.9,258.1 277.9,255.2 280.5,255.2 292.4,255.2 294.3,255.2 299,255.2 300.2,255.2 
		300.2,258.1 292.4,258.1 	"/>
	<polygon class="st5" points="292.4,260.9 275.4,260.9 275.4,258.1 277.9,258.1 292.4,258.1 292.4,258.1 300.2,258.1 301.4,258.1 
		301.4,260.9 292.4,260.9 	"/>
	<polygon class="st3" points="292.4,263.7 272.9,263.7 272.9,260.9 275.4,260.9 292.4,260.9 292.4,260.9 301.4,260.9 302.6,260.9 
		302.6,263.7 292.4,263.7 	"/>
	<polygon class="st5" points="292.4,266.5 270.4,266.5 270.4,263.7 272.9,263.7 292.4,263.7 292.4,263.7 302.6,263.7 303.8,263.7 
		303.8,266.5 292.4,266.5 	"/>
	<polygon class="st3" points="292.4,269.3 267.9,269.3 267.9,266.5 270.4,266.5 292.4,266.5 292.4,266.5 303.8,266.5 305,266.5 
		305,269.3 294.3,269.3 	"/>
	<polygon class="st5" points="292.4,272.1 265.4,272.1 265.4,269.3 267.9,269.3 292.4,269.3 294.3,269.3 305,269.3 306.2,269.3 
		306.2,272.1 292.4,272.1 	"/>
	<polygon class="st3" points="292.4,274.9 262.9,274.9 262.9,272.1 265.4,272.1 292.4,272.1 292.4,272.1 306.2,272.1 307.4,272.1 
		307.4,274.9 292.4,274.9 	"/>
	<polygon class="st5" points="292.4,277.7 260.4,277.7 260.4,274.9 262.9,274.9 292.4,274.9 292.4,274.9 307.4,274.9 308.6,274.9 
		308.6,277.7 292.4,277.7 	"/>
	<polygon class="st3" points="292.4,280.5 257.9,280.5 257.9,277.7 260.4,277.7 292.4,277.7 292.4,277.7 308.6,277.7 309.8,277.7 
		309.8,280.5 292.4,280.5 	"/>
	<polygon class="st5" points="292.4,283.4 255.4,283.4 255.4,280.5 257.9,280.5 292.4,280.5 292.4,280.5 309.8,280.5 311,280.5 
		311,283.4 294.3,283.4 	"/>
	<polygon class="st3" points="292.4,286.2 252.9,286.2 252.9,283.4 255.4,283.4 292.4,283.4 294.3,283.4 311,283.4 312.1,283.4 
		312.1,286.2 294.3,286.2 	"/>
	<polygon class="st5" points="292.4,289 250.4,289 250.4,286.2 252.9,286.2 292.4,286.2 294.3,286.2 312.1,286.2 313.3,286.2 
		313.3,289 292.4,289 	"/>
	<polygon class="st3" points="292.4,291.8 247.9,291.8 247.9,289 250.4,289 292.4,289 292.4,289 313.3,289 314.5,289 314.5,291.8 
		292.4,291.8 	"/>
	<polygon class="st5" points="292.4,294.6 245.4,294.6 245.4,291.8 247.9,291.8 292.4,291.8 292.4,291.8 314.5,291.8 315.7,291.8 
		315.7,294.6 292.4,294.6 	"/>
	<polygon class="st3" points="292.4,297.4 242.9,297.4 242.9,294.6 245.4,294.6 292.4,294.6 292.4,294.6 315.7,294.6 316.9,294.6 
		316.9,297.4 292.4,297.4 	"/>
	<polygon class="st5" points="292.4,300.2 240.4,300.2 240.4,297.4 242.9,297.4 292.4,297.4 292.4,297.4 316.9,297.4 318.1,297.4 
		318.1,300.2 294.3,300.2 	"/>
	<polygon class="st3" points="292.4,303 237.9,303 237.9,300.2 240.4,300.2 292.4,300.2 294.3,300.2 318.1,300.2 319.3,300.2 
		319.3,303 292.4,303 	"/>
	<polygon class="st5" points="292.4,305.8 235.3,305.8 235.3,303 237.9,303 292.4,303 292.4,303 319.3,303 320.5,303 320.5,305.8 
		292.4,305.8 	"/>
	<polygon class="st3" points="292.4,308.6 232.8,308.6 232.8,305.8 235.3,305.8 292.4,305.8 292.4,305.8 320.5,305.8 321.7,305.8 
		321.7,308.6 292.4,308.6 	"/>
	<polygon class="st5" points="292.4,311.5 230.3,311.5 230.3,308.6 232.8,308.6 292.4,308.6 292.4,308.6 321.7,308.6 322.9,308.6 
		322.9,311.5 292.4,311.5 	"/>
	<polygon class="st3" points="292.4,314.3 227.8,314.3 227.8,311.5 230.3,311.5 292.4,311.5 292.4,311.5 322.9,311.5 324.1,311.5 
		324.1,314.3 294.3,314.3 	"/>
	<polygon class="st5" points="292.4,317.1 225.3,317.1 225.3,314.3 227.8,314.3 292.4,314.3 294.3,314.3 324.1,314.3 325.3,314.3 
		325.3,317.1 292.4,317.1 	"/>
	<polygon class="st3" points="292.4,319.9 222.8,319.9 222.8,317.1 225.3,317.1 292.4,317.1 292.4,317.1 325.3,317.1 326.5,317.1 
		326.5,319.9 292.4,319.9 	"/>
	<polygon class="st5" points="292.4,322.7 220.3,322.7 220.3,319.9 222.8,319.9 292.4,319.9 292.4,319.9 326.5,319.9 327.7,319.9 
		327.7,322.7 292.4,322.7 	"/>
	<polygon class="st3" points="292.4,325.5 217.8,325.5 217.8,322.7 220.3,322.7 292.4,322.7 292.4,322.7 327.7,322.7 328.9,322.7 
		328.9,325.5 292.4,325.5 	"/>
	<polygon class="st5" points="292.4,327.9 215.3,327.9 215.3,325.5 217.8,325.5 292.4,325.5 292.4,325.5 328.9,325.5 330.1,325.5 
		330.1,327.9 292.4,327.9 	"/>
	<polygon class="st3" points="292.4,330.7 212.8,330.7 212.8,327.9 215.3,327.9 292.4,327.9 292.4,327.9 330.1,327.9 331.3,327.9 
		331.3,330.7 292.4,330.7 	"/>
	<polygon class="st5" points="292.4,333.5 210.3,333.5 210.3,330.7 212.8,330.7 292.4,330.7 292.4,330.7 331.3,330.7 332.5,330.7 
		332.5,333.5 294.3,333.5 	"/>
	<polygon class="st3" points="292.4,336.3 207.8,336.3 207.8,333.5 210.3,333.5 292.4,333.5 294.3,333.5 332.5,333.5 333.6,333.5 
		333.6,336.3 294.3,336.3 	"/>
	<polygon class="st5" points="292.4,339.1 205.3,339.1 205.3,336.3 207.8,336.3 292.4,336.3 294.3,336.3 333.6,336.3 334.8,336.3 
		334.8,339.1 292.4,339.1 	"/>
	<polygon class="st3" points="292.4,341.9 202.8,341.9 202.8,339.1 205.3,339.1 292.4,339.1 292.4,339.1 334.8,339.1 336,339.1 
		336,341.9 292.4,341.9 	"/>
	<polygon class="st5" points="292.4,344.7 200.3,344.7 200.3,341.9 202.8,341.9 292.4,341.9 292.4,341.9 336,341.9 337.2,341.9 
		337.2,344.7 292.4,344.7 	"/>
	<polygon class="st3" points="292.4,347.5 197.7,347.5 197.7,344.7 200.3,344.7 292.4,344.7 292.4,344.7 337.2,344.7 338.4,344.7 
		338.4,347.5 294.3,347.5 	"/>
	<polygon class="st5" points="292.4,350.3 195.2,350.3 195.2,347.5 197.7,347.5 292.4,347.5 294.3,347.5 338.4,347.5 339.6,347.5 
		339.6,350.3 294.3,350.3 	"/>
	<polygon class="st3" points="292.4,353.2 192.7,353.2 192.7,350.3 195.2,350.3 292.4,350.3 294.3,350.3 339.6,350.3 340.8,350.3 
		340.8,353.2 292.4,353.2 	"/>
	<polygon class="st5" points="292.4,356 190.2,356 190.2,353.2 192.7,353.2 292.4,353.2 292.4,353.2 340.8,353.2 342,353.2 342,356 
		292.4,356 	"/>
	<polygon class="st3" points="292.4,358.8 187.7,358.8 187.7,356 190.2,356 292.4,356 292.4,356 342,356 343.2,356 343.2,358.8 
		292.4,358.8 	"/>
	<polygon class="st5" points="292.4,361.6 185.2,361.6 185.2,358.8 187.7,358.8 292.4,358.8 292.4,358.8 343.2,358.8 344.4,358.8 
		344.4,361.6 292.4,361.6 	"/>
	<polygon class="st3" points="292.4,364.4 182.7,364.4 182.7,361.6 185.2,361.6 292.4,361.6 292.4,361.6 344.4,361.6 345.6,361.6 
		345.6,364.4 294.3,364.4 	"/>
	<polygon class="st5" points="292.4,367.2 180.2,367.2 180.2,364.4 182.7,364.4 292.4,364.4 294.3,364.4 345.6,364.4 346.8,364.4 
		346.8,367.2 292.4,367.2 	"/>
	<polygon class="st3" points="292.4,370 177.7,370 177.7,367.2 180.2,367.2 292.4,367.2 292.4,367.2 346.8,367.2 348,367.2 348,370 
		292.4,370 	"/>
	<polygon class="st5" points="292.4,372.8 175.2,372.8 175.2,370 177.7,370 292.4,370 292.4,370 348,370 349.2,370 349.2,372.8 
		292.4,372.8 	"/>
	<polygon class="st3" points="292.4,375.6 172.7,375.6 172.7,372.8 175.2,372.8 292.4,372.8 292.4,372.8 349.2,372.8 350.4,372.8 
		350.4,375.6 292.4,375.6 	"/>
	<polygon class="st5" points="292.4,378.5 170.2,378.5 170.2,375.6 172.7,375.6 292.4,375.6 292.4,375.6 350.4,375.6 351.5,375.6 
		351.5,378.5 294.3,378.5 	"/>
	<polygon class="st3" points="292.4,381.3 167.7,381.3 167.7,378.5 170.2,378.5 292.4,378.5 294.3,378.5 351.5,378.5 352.7,378.5 
		352.7,381.3 292.4,381.3 	"/>
	<rect y="357.3" class="st3" width="352.7" height="4.8"/>
	<rect x="2" y="352.5" class="st5" width="348.7" height="4.8"/>
	<rect x="6.7" y="347.8" class="st6" width="340.7" height="4.8"/>
	<rect x="14.3" y="343" class="st7" width="326.6" height="4.8"/>
	<rect x="19.7" y="338.2" class="st3" width="316.6" height="4.8"/>
	<rect x="21.7" y="333.4" class="st5" width="312.6" height="4.8"/>
	<rect x="24.3" y="328.7" class="st6" width="306.6" height="4.8"/>
	<rect x="26" y="323.9" class="st7" width="303.6" height="4.8"/>
	<rect x="30" y="319.1" class="st3" width="297.6" height="4.8"/>
	<rect x="32" y="314.3" class="st5" width="293.6" height="4.8"/>
	<rect x="34.7" y="309.6" class="st6" width="287.6" height="4.8"/>
	<rect x="36.3" y="304.8" class="st7" width="279.6" height="4.8"/>
	<rect x="38.7" y="300" class="st3" width="275.6" height="4.8"/>
	<rect x="40.7" y="295.2" class="st5" width="271.6" height="4.8"/>
	<rect x="43.3" y="290.5" class="st6" width="265.6" height="4.8"/>
	<rect x="45" y="285.7" class="st7" width="257.6" height="4.8"/>
	<rect x="47" y="281.1" class="st3" width="173.6" height="4.8"/>
	<rect x="49" y="276.3" class="st5" width="169.6" height="4.8"/>
	<rect x="51.7" y="271.6" class="st6" width="163.6" height="4.8"/>
	<rect x="53.3" y="266.8" class="st7" width="155.5" height="4.8"/>
	<rect x="58.4" y="262" class="st3" width="146.5" height="4.8"/>
	<rect x="60.4" y="257.2" class="st5" width="142.5" height="4.8"/>
	<rect x="63.1" y="252.5" class="st6" width="136.5" height="4.8"/>
	<rect x="64.8" y="247.7" class="st7" width="132.5" height="4.8"/>
	<rect x="63.1" y="242.9" class="st3" width="135.5" height="4.8"/>
	<rect x="61.1" y="238.1" class="st5" width="138.5" height="4.8"/>
	<rect x="59.7" y="233.4" class="st6" width="140.5" height="4.8"/>
	<rect x="58.4" y="228.6" class="st7" width="142.5" height="4.8"/>
	<rect x="56.4" y="223.8" class="st3" width="145.5" height="4.8"/>
	<rect x="54.4" y="219" class="st5" width="149.5" height="4.8"/>
	<rect x="53" y="214.3" class="st6" width="152.5" height="4.8"/>
	<rect x="51.7" y="209.5" class="st7" width="156.5" height="4.8"/>
	<rect x="53.1" y="204.7" class="st3" width="156.5" height="4.8"/>
	<rect x="54.1" y="200" class="st5" width="156.5" height="4.8"/>
	<rect x="56.8" y="195.3" class="st6" width="152.5" height="4.8"/>
	<rect x="59.4" y="190.5" class="st7" width="148.5" height="4.8"/>
	<rect x="63.1" y="185.7" class="st3" width="141.5" height="4.8"/>
	<rect x="67.1" y="180.9" class="st5" width="134.5" height="4.8"/>
	<rect x="69.8" y="176.2" class="st6" width="129.5" height="4.8"/>
	<rect x="72.4" y="171.4" class="st7" width="123.5" height="4.8"/>
	<rect x="75.8" y="166.6" class="st3" width="118.5" height="4.8"/>
	<rect x="77.8" y="161.8" class="st5" width="114.5" height="4.8"/>
	<rect x="80.5" y="157.1" class="st6" width="109.5" height="4.8"/>
	<rect x="82.2" y="152.3" class="st7" width="103.5" height="4.8"/>
	<rect x="85.4" y="147.5" class="st3" width="98.5" height="4.8"/>
	<rect x="87.4" y="142.7" class="st5" width="94.5" height="4.8"/>
	<rect x="93.1" y="138" class="st6" width="83.5" height="4.8"/>
	<rect x="102.7" y="133.2" class="st7" width="61.5" height="4.8"/>
	<rect x="181.1" y="357.3" class="st4" width="171.6" height="4.8"/>
	<rect x="179.1" y="352.5" class="st3" width="171.6" height="4.8"/>
	<rect x="178.8" y="347.8" class="st5" width="168.6" height="4.8"/>
	<rect x="177.4" y="343" class="st6" width="163.5" height="4.8"/>
	<rect x="178.8" y="338.2" class="st4" width="157.5" height="4.8"/>
	<rect x="176.8" y="333.4" class="st3" width="157.5" height="4.8"/>
	<rect x="175.4" y="328.7" class="st5" width="155.5" height="4.8"/>
	<rect x="173.1" y="323.9" class="st6" width="156.5" height="4.8"/>
	<rect x="170.1" y="319.1" class="st4" width="157.5" height="4.8"/>
	<rect x="172.1" y="314.3" class="st3" width="153.5" height="4.8"/>
	<rect x="174.8" y="309.6" class="st5" width="147.5" height="4.8"/>
	<rect x="176.4" y="304.8" class="st6" width="139.5" height="4.8"/>
	<rect x="178.8" y="300" class="st4" width="135.5" height="4.8"/>
	<rect x="180.8" y="295.2" class="st3" width="131.5" height="4.8"/>
	<rect x="183.4" y="290.5" class="st5" width="125.5" height="4.8"/>
	<rect x="185.1" y="285.7" class="st6" width="117.5" height="4.8"/>
	<rect x="187.1" y="281.1" class="st4" width="33.5" height="4.8"/>
	<rect x="189.1" y="276.3" class="st3" width="29.5" height="4.8"/>
	<rect x="191.8" y="271.6" class="st5" width="23.5" height="4.8"/>
	<rect x="131.5" y="262" class="st4" width="23.5" height="4.8"/>
	<rect x="123.5" y="257.2" class="st3" width="39.5" height="4.8"/>
	<rect x="120.1" y="252.5" class="st5" width="52.5" height="4.8"/>
	<rect x="115.8" y="247.7" class="st6" width="67.5" height="4.8"/>
	<rect x="111.1" y="242.9" class="st4" width="82.5" height="4.8"/>
	<rect x="109.1" y="238.1" class="st3" width="90.5" height="4.8"/>
	<rect x="104.8" y="233.4" class="st5" width="95.5" height="4.8"/>
	<rect x="103.4" y="228.6" class="st6" width="97.5" height="4.8"/>
	<rect x="101.4" y="223.8" class="st4" width="100.5" height="4.8"/>
	<rect x="99.4" y="219" class="st3" width="104.5" height="4.8"/>
	<rect x="91.1" y="214.3" class="st5" width="114.5" height="4.8"/>
	<rect x="87.7" y="209.5" class="st6" width="120.5" height="4.8"/>
	<rect x="85.1" y="204.7" class="st4" width="124.5" height="4.8"/>
	<rect x="86.1" y="200" class="st3" width="124.5" height="4.8"/>
	<rect x="84.8" y="195.3" class="st5" width="124.5" height="4.8"/>
	<rect x="83.4" y="190.5" class="st6" width="124.5" height="4.8"/>
	<rect x="82.1" y="185.7" class="st4" width="122.5" height="4.8"/>
	<rect x="82.1" y="180.9" class="st3" width="119.5" height="4.8"/>
	<rect x="82.8" y="176.2" class="st5" width="116.5" height="4.8"/>
	<rect x="84.4" y="171.4" class="st6" width="111.5" height="4.8"/>
	<rect x="84.8" y="166.6" class="st4" width="109.5" height="4.8"/>
	<rect x="86.8" y="161.8" class="st3" width="105.5" height="4.8"/>
	<rect x="85.5" y="157.1" class="st5" width="104.5" height="4.8"/>
	<rect x="87.2" y="152.3" class="st6" width="98.5" height="4.8"/>
	<rect x="88.4" y="147.5" class="st4" width="95.5" height="4.8"/>
	<rect x="89.4" y="142.7" class="st3" width="92.5" height="4.8"/>
	<rect x="93.1" y="138" class="st5" width="83.5" height="4.8"/>
	<rect x="102.7" y="133.2" class="st6" width="61.5" height="4.8"/>
	<rect x="83.1" y="357.3" class="st4" width="24.5" height="4.8"/>
	<rect x="85.1" y="352.5" class="st3" width="24.5" height="4.8"/>
	<rect x="86.7" y="347.8" class="st5" width="24.5" height="4.8"/>
	<rect x="88.4" y="343" class="st6" width="24.5" height="4.8"/>
	<rect x="86.7" y="338.2" class="st4" width="27.5" height="4.8"/>
	<rect x="84.7" y="333.4" class="st3" width="30.5" height="4.8"/>
	<rect x="87.4" y="328.7" class="st5" width="26.5" height="4.8"/>
	<rect x="90.1" y="323.9" class="st6" width="22.5" height="4.8"/>
	<rect x="91.1" y="214.3" class="st7" width="34.5" height="4.8"/>
	<rect x="87.7" y="209.5" class="st8" width="40.5" height="4.8"/>
	<rect x="85.1" y="204.7" class="st5" width="44.5" height="4.8"/>
	<rect x="86.1" y="200" class="st6" width="12.4" height="4.8"/>
	<rect x="84.8" y="195.3" class="st7" width="20.5" height="4.8"/>
	<rect x="83.4" y="190.5" class="st8" width="49.5" height="4.8"/>
	<rect x="82.1" y="185.7" class="st5" width="51.5" height="4.8"/>
	<rect x="82.1" y="180.9" class="st6" width="49.5" height="4.8"/>
	<rect x="82.8" y="176.2" class="st7" width="50.5" height="4.8"/>
	<rect x="84.4" y="171.4" class="st8" width="50.5" height="4.8"/>
	<rect x="84.8" y="166.6" class="st5" width="52.5" height="4.8"/>
	<rect x="86.8" y="161.8" class="st6" width="47.5" height="4.8"/>
	<rect x="85.5" y="157.1" class="st7" width="50.5" height="4.8"/>
	<rect x="87.2" y="152.3" class="st8" width="51.5" height="4.8"/>
	<rect x="88.4" y="147.5" class="st5" width="52.5" height="4.8"/>
	<rect x="89.4" y="142.7" class="st6" width="54.5" height="4.8"/>
	<rect x="93.1" y="138" class="st7" width="54.5" height="4.8"/>
	<rect x="102.7" y="133.2" class="st8" width="51.5" height="4.8"/>
	<rect x="191.8" y="214.3" class="st7" width="6.4" height="4.8"/>
	<rect x="191.2" y="209.5" class="st8" width="9.4" height="4.8"/>
	<rect x="189.8" y="204.7" class="st5" width="11.4" height="4.8"/>
	<rect x="188.8" y="199.9" class="st6" width="13.4" height="4.8"/>
	<rect x="188.1" y="195.3" class="st7" width="15.4" height="4.8"/>
	<rect x="187.4" y="190.5" class="st8" width="15.4" height="4.8"/>
	<rect x="186.8" y="185.7" class="st5" width="15.4" height="4.8"/>
	<rect x="185.8" y="180.9" class="st6" width="13.4" height="4.8"/>
	<rect x="184.1" y="176.2" class="st7" width="12.4" height="4.8"/>
	<rect x="182.4" y="171.4" class="st8" width="11.4" height="4.8"/>
	<rect x="180" y="166.6" class="st5" width="11.4" height="4.8"/>
	<rect x="178" y="161.8" class="st6" width="10.4" height="4.8"/>
	<rect x="175.4" y="157.1" class="st7" width="10.4" height="4.8"/>
	<rect x="172.7" y="152.3" class="st8" width="10.4" height="4.8"/>
	<rect x="170.5" y="147.5" class="st5" width="8.4" height="4.8"/>
	<rect x="167.5" y="142.7" class="st6" width="8.4" height="4.8"/>
	<rect x="164.8" y="138" class="st7" width="6.4" height="4.8"/>
	<rect x="97.1" y="185.7" class="st4" width="17.5" height="4.8"/>
	<rect x="102.1" y="180.9" class="st3" width="9.4" height="4.8"/>
	<rect x="106.8" y="176.2" class="st5" width="8.4" height="4.8"/>
	<rect x="108.4" y="171.4" class="st6" width="7.4" height="4.8"/>
	<rect x="88.8" y="166.6" class="st4" width="11.4" height="4.8"/>
	<rect x="87.8" y="161.8" class="st3" width="14.4" height="4.8"/>
	<rect x="85.5" y="157.1" class="st5" width="14.4" height="4.8"/>
	<rect x="110.9" y="166.6" class="st4" width="17.5" height="4.8"/>
	<rect x="112.9" y="161.8" class="st3" width="17.5" height="4.8"/>
	<rect x="113.5" y="157.1" class="st5" width="14.4" height="4.8"/>
	<rect x="435.1" y="318.8" class="st7" width="22.8" height="52.4"/>
	<rect x="457.8" y="322.5" class="st6" width="42.2" height="48.7"/>
	<rect x="457.8" y="322.5" class="st5" width="8.5" height="48.7"/>
	<rect x="475.1" y="322.5" class="st5" width="1.8" height="48.7"/>
	<rect x="490.1" y="322.5" class="st5" width="1.8" height="48.7"/>
	<rect x="385.3" y="299.9" class="st8" width="22" height="71.4"/>
	<rect x="255.7" y="294.2" class="st8" width="28.3" height="77"/>
	<rect x="284.1" y="299.9" class="st7" width="22.5" height="71.4"/>
	<rect x="306.5" y="288.7" class="st8" width="78.7" height="82.5"/>
	<rect x="335.8" y="327.2" class="st8" width="20.2" height="44"/>
	<rect x="341" y="336.2" class="st6" width="9.7" height="35.1"/>
	<rect x="312.4" y="302" class="st8" width="4.4" height="69.2"/>
	<rect x="363.4" y="302" class="st8" width="4.4" height="69.2"/>
	<rect x="324.1" y="302" class="st8" width="4.4" height="69.2"/>
	<rect x="375" y="302" class="st8" width="4.4" height="69.2"/>
	<rect x="293.4" y="310.1" class="st6" width="4.4" height="61.1"/>
	<rect x="263" y="306" class="st6" width="4.4" height="65.2"/>
	<rect x="272.3" y="306" class="st6" width="4.4" height="65.2"/>
	<rect x="394.8" y="310.1" class="st6" width="4.4" height="61.1"/>
	<rect x="407.2" y="310" class="st7" width="15.2" height="61.3"/>
	<rect x="422.4" y="318.8" class="st6" width="14.1" height="52.4"/>
	<rect x="233.5" y="299.9" class="st7" width="22.2" height="71.4"/>
	<rect x="250.5" y="299.9" class="st6" width="5.2" height="71.4"/>
	<rect x="241.5" y="299.9" class="st6" width="1.4" height="71.4"/>
	<rect x="216.8" y="310" class="st6" width="16.7" height="61.3"/>
	<rect x="194.1" y="318.8" class="st7" width="22.8" height="52.4"/>
	<rect x="151.9" y="322.5" class="st6" width="42.2" height="48.7"/>
	<rect x="185.6" y="322.5" class="st5" width="8.5" height="48.7"/>
	<rect x="175.1" y="322.5" class="st5" width="1.8" height="48.7"/>
	<rect x="160.1" y="322.5" class="st5" width="1.8" height="48.7"/>
	<rect x="135.4" y="328.2" class="st5" width="16.6" height="43"/>
	<rect x="122.8" y="331" class="st6" width="12.5" height="40.2"/>
	<rect x="96.6" y="333.8" class="st6" width="26.2" height="37.4"/>
	<rect x="117.6" y="333.8" class="st5" width="5.3" height="37.4"/>
	<rect x="104.8" y="333.8" class="st5" width="2" height="37.4"/>
	<rect x="82.1" y="336.2" class="st5" width="14.5" height="35.1"/>
	<rect x="53.8" y="338.9" class="st6" width="28.3" height="32.3"/>
	<rect x="60.5" y="338.9" class="st5" width="1.4" height="32.3"/>
	<rect x="46.9" y="343.3" class="st5" width="6.9" height="27.9"/>
</g>
</svg>
