<svg viewBox="0 0 22 24" fill="none" xmlns="http://www.w3.org/2000/svg"><path d="M10.1736 10.7307C10.4961 10.4082 10.4961 9.88415 10.1736 9.56167C9.85115 9.23919 9.32712 9.23919 9.00464 9.56167L4.631 13.9353C3.88526 14.681 3.48216 15.6485 3.48216 16.6966C3.48216 17.7446 3.88526 18.7121 4.631 19.4578C6.16278 20.9896 8.64185 20.9896 10.1535 19.4578L20.0294 9.58182C21.0574 8.55392 21.6217 7.18337 21.6217 5.73221C21.6217 4.28105 21.0574 2.91051 20.0294 1.8826C17.893 -0.253835 14.4465 -0.253835 12.3101 1.8826L2.45425 11.7384C1.12402 13.0686 0.398438 14.8221 0.398438 16.6966C0.398438 18.571 1.12402 20.3446 2.45425 21.6547C3.78448 22.9849 5.53797 23.7105 7.41239 23.7105C9.28681 23.7105 11.0605 22.9849 12.3705 21.6547L16.7442 17.281C17.0667 16.9586 17.0667 16.4345 16.7442 16.1121C16.4217 15.7896 15.8977 15.7896 15.5752 16.1121L11.2015 20.4857C10.1938 21.4935 8.8434 22.0578 7.41239 22.0578C5.98138 22.0578 4.631 21.4935 3.62324 20.4857C2.61549 19.4779 2.05115 18.1276 2.05115 16.6966C2.05115 15.2655 2.61549 13.9152 3.62324 12.9074L13.4791 3.05159C14.2046 2.32601 15.1519 1.94306 16.1597 1.94306C17.1674 1.94306 18.1349 2.34616 18.8403 3.05159C19.5659 3.77717 19.9488 4.72446 19.9488 5.73221C19.9488 6.73996 19.5457 7.70741 18.8403 8.41283L8.96433 18.2888C8.09766 19.1555 6.66666 19.1555 5.77983 18.2888C5.35658 17.8655 5.11472 17.3012 5.11472 16.6966C5.11472 16.0919 5.35658 15.5276 5.77983 15.1043L10.1736 10.7307Z" fill="#E43828"/></svg>