<svg width="16" height="16" viewBox="0 0 16 16" fill="none" xmlns="http://www.w3.org/2000/svg"><g clip-path="url(#clip0)" fill="#E43828"><path d="M15.0141 0H9.51256C8.96875 0 8.52638 0.442431 8.52638 0.986186C8.52638 1.52994 8.96875 1.97237 9.51256 1.97237H12.6333L7.4276 7.17797C7.24124 7.36422 7.13867 7.61184 7.13867 7.87535C7.13867 8.13885 7.24118 8.38642 7.42748 8.57249C7.61379 8.75897 7.86135 8.86159 8.12486 8.86159C8.38825 8.86159 8.63593 8.75902 8.82229 8.57266L14.0279 3.36701V6.4877C14.0279 7.03145 14.4703 7.47388 15.0141 7.47388C15.5578 7.47388 16.0003 7.03145 16.0003 6.4877V0.986186C16.0003 0.442431 15.5578 0 15.0141 0Z"/><path d="M11.3348 14.3094H1.69061V4.66521H8.94392L10.6345 2.97461H0.845303C0.37847 2.97461 0 3.35308 0 3.81991V15.1547C0 15.6215 0.37847 16 0.845303 16H12.1801C12.6469 16 13.0254 15.6215 13.0254 15.1547V5.36546L11.3348 7.05607V14.3094Z"/></g><defs><clipPath id="clip0"><path fill="#fff" d="M0 0H16V16H0z"/></clipPath></defs></svg>