<svg viewBox="0 0 60 60" fill="none" xmlns="http://www.w3.org/2000/svg"><path d="M41.5008 0L24.0633 16.9533L8.9615 1.85141C8.01458 0.906811 6.75745 0.385768 5.42102 0.385768C2.65908 0.385768 0.412109 2.63274 0.412109 5.39375C0.412109 6.73298 0.933152 7.9901 1.87961 8.93516L16.8812 23.9367L5.73915 34.7681L30.9712 60.0002L59.6421 32.3177V18.1418L41.5008 0ZM53.3504 25.2242L57.7315 20.8431V29.6057L53.3504 25.2242ZM35.5883 35.562L32.0534 35.0573L35.0836 32.0271L35.5883 35.562ZM9.01001 13.3652L7.49493 11.8496L11.876 7.46859L13.3911 8.98368L9.01001 13.3652ZM11.876 13.2005L31.5422 32.8668L30.0271 34.3823L10.3609 14.7156L11.876 13.2005ZM32.8931 31.5163L13.2269 11.8496L14.742 10.3346L34.4082 30.0008L32.8931 31.5163ZM2.32275 5.39375C2.32275 3.68555 3.71282 2.29641 5.42102 2.29641C6.24853 2.29641 7.02613 2.61874 7.61155 3.20322L10.5251 6.11771L6.14405 10.4992L3.22956 7.58334C2.64508 6.99979 2.32275 6.2222 2.32275 5.39375ZM8.46005 34.7872L18.2311 25.2876L29.5765 36.633L37.84 37.8136L36.6593 29.5502L25.4142 18.3041L41.4817 2.68265L57.3359 18.5369L50.6486 25.2242L57.3238 31.8993L30.9941 57.3203L8.46005 34.7872Z" fill="#E43828"/></svg>