<svg viewBox="0 0 60 40" fill="none" xmlns="http://www.w3.org/2000/svg"><path d="M13.75 5.00008H58.75C59.441 5.00008 60.0001 4.44098 60.0001 3.75004C60.0001 3.0591 59.441 2.5 58.75 2.5H13.75C13.0591 2.5 12.5 3.0591 12.5 3.75004C12.5001 4.44098 13.0592 5.00008 13.75 5.00008Z" fill="#E43828"/><path d="M58.75 18.75H13.75C13.0591 18.75 12.5 19.3091 12.5 20C12.5 20.691 13.0591 21.2501 13.75 21.2501H58.75C59.441 21.2501 60.0001 20.691 60.0001 20C60.0001 19.3091 59.441 18.75 58.75 18.75Z" fill="#E43828"/><path d="M58.75 35H13.75C13.0591 35 12.5 35.5591 12.5 36.25C12.5 36.941 13.0591 37.5001 13.75 37.5001H58.75C59.441 37.5001 60.0001 36.941 60.0001 36.25C60.0001 35.5591 59.441 35 58.75 35Z" fill="#E43828"/><path d="M6.24996 0H1.25004C0.559102 0 0 0.559101 0 1.25004V6.25007C0 6.94101 0.559102 7.50011 1.25004 7.50011H6.25008C6.94102 7.50011 7.50012 6.94101 7.50012 6.25007V1.25004C7.5 0.559101 6.9409 0 6.24996 0ZM5.00004 5.00003H2.49996V2.50008H4.99992V5.00003H5.00004Z" fill="#E43828"/><path d="M6.24996 16.25H1.25004C0.559102 16.25 0 16.8091 0 17.5V22.5001C0 23.1909 0.559102 23.75 1.25004 23.75H6.25008C6.9409 23.75 7.5 23.1909 7.5 22.5V17.4999C7.5 16.8091 6.9409 16.25 6.24996 16.25ZM5.00004 21.25H2.49996V18.7501H4.99992V21.25H5.00004Z" fill="#E43828"/><path d="M6.24996 32.5H1.25004C0.559102 32.5 0 33.0591 0 33.7499V38.75C0 39.4409 0.559102 40 1.25004 40H6.25008C6.9409 40 7.5 39.4409 7.5 38.75V33.7499C7.5 33.0591 6.9409 32.5 6.24996 32.5ZM5.00004 37.4999H2.49996V35H4.99992V37.4999H5.00004Z" fill="#E43828"/></svg>