<svg viewBox="0 0 60 60" fill="none" xmlns="http://www.w3.org/2000/svg"><path d="M57.3151 42.2162C57.2807 41.8283 57.02 41.4973 56.6503 41.3734L48.5199 38.6508L45.9982 16.7612C45.9389 16.2718 45.518 15.9069 45.0248 15.9184H38.7V11.5059C38.7 5.16151 33.2487 0 26.5776 0C19.907 0 14.4551 5.16151 14.4551 11.5059V15.9184H7.40858C6.91592 15.9069 6.495 16.2718 6.43569 16.7612L2.74548 48.8227C2.48575 51.0526 3.20514 53.2854 4.71662 54.9452C6.37255 56.7752 8.73017 57.8122 11.1983 57.7959H38.1787L38.6929 59.3313C38.8167 59.7011 39.1473 59.9617 39.5357 59.9962C39.5644 59.9986 39.5931 60 39.6217 60C39.9805 60 40.31 59.8044 40.4818 59.4896L41.4083 57.7916C43.5463 57.7629 45.5983 56.9455 47.1701 55.4957L51.1717 59.4734C51.5543 59.8541 52.1732 59.8536 52.5554 59.4715L56.7904 55.2364C57.1726 54.8543 57.1731 54.2353 56.7924 53.8527L49.9084 46.9267L56.8086 43.1623C57.1506 42.9758 57.3496 42.6041 57.3151 42.2162ZM16.4143 11.5059C16.4143 6.24203 20.987 1.95918 26.5776 1.95918C32.1681 1.95918 36.7409 6.24203 36.7409 11.5059V15.9184H16.4143V11.5059ZM11.1983 55.8367C9.28789 55.8506 7.46215 55.0499 6.17883 53.6346C5.04235 52.3976 4.49994 50.7278 4.69222 49.059L8.28199 17.8776H14.4551V26.5346C14.4551 27.0756 14.8938 27.5142 15.4347 27.5142C15.9762 27.5142 16.4143 27.0756 16.4143 26.5346V17.8776H36.7409V26.5346C36.7409 27.0756 37.1795 27.5142 37.7204 27.5142C38.2619 27.5142 38.7 27.0756 38.7 26.5346V17.8776H44.1519L46.4684 37.9888L31.5152 32.9684C31.1646 32.8474 30.7753 32.9364 30.5122 33.198C30.2487 33.4597 30.1573 33.8485 30.2759 34.2001L37.5219 55.8367H11.1983ZM42.5424 55.7124L44.2461 52.5894L45.7791 54.1129C44.8684 54.9351 43.7477 55.489 42.5419 55.7124H42.5424ZM47.8249 45.8318C47.5541 45.9796 47.369 46.2455 47.3246 46.5507C47.2801 46.8559 47.382 47.1639 47.5991 47.3825L54.7145 54.541L51.8604 57.3951L44.7015 50.2797C44.4834 50.0625 44.1748 49.9606 43.8702 50.0051C43.565 50.0496 43.299 50.2347 43.1512 50.5054L39.8375 56.5791L32.7574 35.4385L53.8985 42.518L47.8249 45.8318Z" fill="#E43828"/><path d="M22.9027 24.1971C22.5205 23.8145 21.9001 23.8145 21.5175 24.1971C21.1348 24.5798 21.1348 25.1997 21.5175 25.5824L24.5165 28.5814C24.8992 28.964 25.5191 28.964 25.9017 28.5814C26.2844 28.1987 26.2844 27.5784 25.9017 27.1962L22.9027 24.1971Z" fill="#E43828"/><path d="M25.2905 37.2435L19.0097 36.3863C18.662 36.3366 18.3143 36.4772 18.099 36.7546C17.8833 37.0321 17.8326 37.4037 17.966 37.7285C18.0995 38.0533 18.397 38.2819 18.7452 38.3273L25.0255 39.1845C25.5617 39.2577 26.0558 38.8822 26.1285 38.346C26.2017 37.8103 25.8267 37.3162 25.2905 37.243V37.2435Z" fill="#E43828"/></svg>