<svg viewBox="0 0 60 60" fill="none" xmlns="http://www.w3.org/2000/svg"><g clip-path="url(#clip0)" fill="#E43828"><path d="M59.9596 25.9149V25.91C59.9845 25.6102 59.9996 25.3099 59.9996 24.9999C60.003 24.6371 59.985 24.2738 59.9454 23.913C59.0655 13.8681 45.9118 6 29.9998 6C14.206 6 1.23388 13.7709 0.0908196 23.5922C0.0322263 23.7201 0.000976556 23.8593 0 23.9999V34.9998C0 40.3909 3.56882 45.261 9.28314 48.7219C9.39593 48.8352 9.53509 48.9196 9.68792 48.967C15.9057 52.3825 22.9066 54.1174 29.9998 53.9997C37.093 54.1174 44.0939 52.3825 50.3117 48.967C50.4645 48.9196 50.6037 48.8352 50.7165 48.7219C56.4308 45.261 59.9996 40.3909 59.9996 34.9998L59.9596 25.9203V25.9149ZM29.9998 7.99999C44.8566 7.99999 57.1149 15.04 57.9508 24.0702L57.9596 25.87C57.8468 27.1571 57.5055 28.4144 56.9527 29.5819C53.5548 36.8919 42.4709 41.9998 29.9998 41.9998C17.5287 41.9998 6.44478 36.8919 3.04685 29.5789C2.36668 28.1478 2.00926 26.5848 1.99999 24.9999C1.99999 15.6259 14.5609 7.99999 29.9998 7.99999ZM11.6 40.054C11.8759 40.1873 12.1552 40.3186 12.4379 40.448C12.7768 40.6018 13.12 40.7507 13.4691 40.8948C13.7611 41.0159 14.0541 41.135 14.3529 41.2498C14.7108 41.387 15.0741 41.5169 15.4408 41.6502C15.7411 41.7561 16.0497 41.8611 16.3607 41.9597C16.7401 42.0818 17.1259 42.1941 17.514 42.3049C17.827 42.3948 18.139 42.4851 18.4569 42.5681C18.639 42.615 18.8177 42.6677 19.0008 42.7078V50.6359C16.2103 49.9294 13.5214 48.8674 11.0009 47.4768V39.76C11.2001 39.8611 11.3998 39.9558 11.6 40.054ZM20.9999 43.1457C21.2997 43.2058 21.6161 43.2458 21.9227 43.304C22.245 43.3601 22.5619 43.4202 22.888 43.469C23.346 43.5388 23.8128 43.593 24.2796 43.6492C24.5877 43.6858 24.8919 43.7288 25.203 43.76C25.7259 43.8118 26.2576 43.8469 26.7899 43.8821C27.053 43.8992 27.3118 43.925 27.577 43.9387C28.0467 43.9622 28.5237 43.9661 28.9998 43.9758V51.985C26.3118 51.9313 23.6341 51.633 20.9999 51.0939V43.1457ZM30.9998 43.9758C31.4749 43.9661 31.9529 43.9622 32.4217 43.9387C32.6868 43.925 32.9456 43.8992 33.2078 43.8821C33.74 43.8469 34.2717 43.8127 34.7947 43.761C35.1057 43.7297 35.4109 43.6858 35.719 43.6492C36.1848 43.593 36.6506 43.5388 37.1086 43.47C37.4338 43.4211 37.7497 43.3611 38.0705 43.3049C38.3918 43.2488 38.6946 43.2048 38.9997 43.1467V51.0939C36.3655 51.633 33.6878 51.9313 30.9998 51.985V43.9758ZM40.9997 42.7C41.1809 42.655 41.3576 42.6072 41.5378 42.5598C41.8567 42.4778 42.1687 42.387 42.4817 42.2981C42.8698 42.1868 43.2556 42.074 43.6359 41.9529C43.9445 41.8528 44.2478 41.7532 44.5505 41.6438C44.9196 41.5159 45.2849 41.385 45.6437 41.2439C45.9411 41.1301 46.2336 41.0125 46.5217 40.8919C46.8722 40.7468 47.2179 40.5969 47.5588 40.4431C47.84 40.3152 48.1174 40.1843 48.3908 40.051C48.5905 39.9509 48.8005 39.8508 48.9997 39.7508V47.4641C46.4787 48.8542 43.7902 49.9157 40.9997 50.6227V42.7ZM1.99999 34.9998V31.8621L2.0161 31.887C2.09618 32.0179 2.19188 32.1419 2.27489 32.2718C2.49315 32.6092 2.7119 32.9461 2.95701 33.2718C3.08689 33.4451 3.23484 33.6102 3.37205 33.7791C3.59421 34.0521 3.81296 34.326 4.0532 34.5901C4.21677 34.7698 4.39597 34.9422 4.56882 35.118C4.8071 35.3602 5.04293 35.6028 5.29684 35.8382C5.48873 36.014 5.69674 36.1829 5.89693 36.3548C6.15572 36.5769 6.41402 36.7991 6.68599 37.012C6.90181 37.1809 7.12788 37.3431 7.352 37.5071C7.63081 37.7068 7.91108 37.9129 8.20307 38.1072C8.44086 38.2659 8.68695 38.4192 8.93305 38.573L9.00385 38.6179V46.2258C4.64792 43.2297 1.99999 39.3001 1.99999 34.9998ZM50.9997 46.2268V38.6189L51.0685 38.575C51.3117 38.4231 51.5558 38.2752 51.7907 38.115C52.0905 37.9148 52.3698 37.7151 52.6515 37.5061C52.8727 37.345 53.0949 37.1858 53.3068 37.0198C53.5856 36.802 53.8488 36.576 54.1066 36.3489C54.3068 36.1819 54.5006 36.0188 54.6866 35.8489C54.9508 35.6048 55.1954 35.3489 55.4415 35.1009C55.6046 34.9349 55.7755 34.7732 55.9308 34.6009C56.1876 34.3191 56.4225 34.0272 56.6578 33.7352C56.7794 33.5838 56.9117 33.4349 57.0275 33.285C57.3277 32.8939 57.5904 32.492 57.8458 32.0848C57.8844 32.0233 57.9308 31.9652 57.9689 31.9031L57.9806 31.8841L57.9996 34.9998C57.9996 39.3001 55.3507 43.2297 50.9997 46.2268Z"/><path d="M29.9999 31.9999C22.8828 31.9999 19 30.0179 19 28.9999C19 28.4476 18.5522 27.9999 18 27.9999C17.4478 27.9999 17 28.4476 17 28.9999C17 32.1131 22.8818 33.8162 28.9999 33.9832V36.9998C28.9999 37.5521 29.4477 37.9998 29.9999 37.9998C30.5521 37.9998 30.9999 37.5521 30.9999 36.9998V33.9832C37.118 33.8162 42.9998 32.1131 42.9998 28.9999C42.9998 25.7172 36.4598 23.9999 29.9999 23.9999C22.8828 23.9999 19 22.018 19 20.9999C19 19.9824 22.8828 18 29.9999 18C37.117 18 40.9998 19.9824 40.9998 20.9999C40.9998 21.5522 41.4476 21.9999 41.9998 21.9999C42.5521 21.9999 42.9998 21.5522 42.9998 20.9999C42.9998 17.8872 37.118 16.1841 30.9999 16.0171V13C30.9999 12.4478 30.5521 12 29.9999 12C29.4477 12 28.9999 12.4478 28.9999 13V16.0171C22.8818 16.1841 17 17.8872 17 20.9999C17 24.2831 23.54 25.9999 29.9999 25.9999C37.117 25.9999 40.9998 27.9823 40.9998 28.9999C40.9998 30.0179 37.117 31.9999 29.9999 31.9999Z"/></g><defs><clipPath id="clip0"><path fill="#fff" d="M0 0H60V60H0z"/></clipPath></defs></svg>