<svg viewBox="0 0 60 60" fill="none" xmlns="http://www.w3.org/2000/svg"><path d="M44.5595 44.9218H1.7603V15.0791H8.69213C9.17821 15.0791 9.57229 14.6851 9.57229 14.199C9.57229 13.7129 9.17821 13.3188 8.69213 13.3188H0.880151C0.394073 13.3188 0 13.7129 0 14.199V45.8019C0 46.288 0.394073 46.6821 0.880151 46.6821H8.53547L11.8146 53.7527C12.0163 54.1878 12.5477 54.383 12.9833 54.1809L16.1938 52.692L25.9269 59.6365C26.3174 59.9151 26.8764 59.8211 27.1546 59.4312L36.2512 46.682H44.5597C45.0458 46.682 45.4398 46.2879 45.4398 45.8018C45.4396 45.3159 45.0455 44.9218 44.5595 44.9218ZM10.4758 46.6821H24.9693L13.041 52.2138L10.4758 46.6821ZM26.2327 57.6924L18.0307 51.8402L29.1536 46.6821H34.0885L26.2327 57.6924Z" fill="#E43828"/><path d="M59.1193 13.3186H51.464L48.185 6.24778C47.9835 5.81334 47.4515 5.61771 47.0163 5.81968L43.8057 7.30854L34.0728 0.364032C33.6822 0.0856698 33.1233 0.179318 32.845 0.569401L23.7485 13.3187H12.2122C11.7261 13.3187 11.332 13.7128 11.332 14.1988C11.332 14.6849 11.7261 15.079 12.2122 15.079H24.2003C24.2005 15.079 24.2008 15.0791 24.201 15.0791C24.2014 15.0791 24.2017 15.079 24.202 15.079H50.8993C50.9003 15.079 50.9014 15.0792 50.9026 15.0792C50.904 15.0792 50.9054 15.079 50.9068 15.079H58.239V44.9216H48.0794C47.5932 44.9216 47.1992 45.3157 47.1992 45.8018C47.1992 46.2878 47.5932 46.6819 48.0794 46.6819H59.1192C59.6054 46.6819 59.9993 46.2878 59.9993 45.8018V14.1987C59.9995 13.7126 59.6055 13.3186 59.1193 13.3186ZM49.5237 13.3186H35.03L46.9584 7.78687L49.5237 13.3186ZM33.7668 2.30823L41.9689 8.16041L30.8459 13.3187H25.9111L33.7668 2.30823Z" fill="#E43828"/><path d="M29.9998 38.4117C34.6317 38.4117 38.3999 34.6433 38.3999 30.0115C38.3999 25.3797 34.6317 21.6113 29.9998 21.6113C25.3679 21.6113 21.5996 25.3795 21.5996 30.0115C21.5996 34.6433 25.3679 38.4117 29.9998 38.4117ZM29.9998 23.3716C33.661 23.3716 36.6396 26.3502 36.6396 30.0115C36.6396 33.6727 33.661 36.6514 29.9998 36.6514C26.3386 36.6514 23.3599 33.6727 23.3599 30.0115C23.3599 26.3503 26.3386 23.3716 29.9998 23.3716Z" fill="#E43828"/><path d="M22.5478 42.3685H49.3593C49.8455 42.3685 50.2395 41.9744 50.2395 41.4884C50.2395 39.2726 52.4739 37.0979 54.7503 37.0979C55.2365 37.0979 55.6305 36.7039 55.6305 36.2178V23.7821C55.6305 23.296 55.2365 22.9019 54.7503 22.9019C52.4739 22.9019 50.2395 20.7272 50.2395 18.5115C50.2395 18.0254 49.8455 17.6313 49.3593 17.6313H10.1595C9.67344 17.6313 9.27937 18.0254 9.27937 18.5115C9.27937 20.8629 7.39526 22.9254 5.24734 22.9254C4.76126 22.9254 4.36719 23.3195 4.36719 23.8055V36.1941C4.36719 36.6802 4.76126 37.0742 5.24734 37.0742C7.39526 37.0742 9.27937 39.1368 9.27937 41.4881C9.27937 41.9742 9.67344 42.3683 10.1595 42.3683H19.0272C19.5133 42.3683 19.9074 41.9742 19.9074 41.4881C19.9074 41.0021 19.5133 40.608 19.0272 40.608H10.9742C10.7914 39.373 10.2316 38.1771 9.37712 37.2308C8.47526 36.2319 7.34456 35.5957 6.12737 35.3882V24.6112C7.34444 24.4037 8.47515 23.7675 9.37712 22.7686C10.2316 21.8224 10.7914 20.6264 10.9742 19.3914H48.5568C49.0007 21.9212 51.2896 24.1614 53.8702 24.5888V35.4105C51.2896 35.8378 49.0007 38.0781 48.5568 40.6079H22.5478C22.0617 40.6079 21.6677 41.0019 21.6677 41.488C21.6677 41.9744 22.0617 42.3685 22.5478 42.3685Z" fill="#E43828"/></svg>