<svg viewBox="0 0 60 60" fill="none" xmlns="http://www.w3.org/2000/svg"><g clip-path="url(#clip0)" fill="#E43828"><path d="M47.5857 35.1729C40.7405 35.1729 35.1719 40.7415 35.1719 47.5866C35.1719 54.4318 40.7405 60.0004 47.5857 60.0004C54.4308 60.0004 59.9995 54.4318 59.9995 47.5866C59.9995 40.7415 54.4308 35.1729 47.5857 35.1729ZM47.5857 57.9315C41.8815 57.9315 37.2408 53.2908 37.2408 47.5866C37.2408 41.8825 41.8815 37.2418 47.5857 37.2418C53.2898 37.2418 57.9305 41.8825 57.9305 47.5866C57.9305 53.2908 53.2898 57.9315 47.5857 57.9315Z"/><path d="M53.7922 46.5516H48.6197V41.3792C48.6197 40.8071 48.1573 40.3447 47.5853 40.3447C47.0132 40.3447 46.5508 40.8071 46.5508 41.3792V47.5861C46.5508 48.1582 47.0132 48.6206 47.5853 48.6206H53.7922C54.3642 48.6206 54.8266 48.1582 54.8266 47.5861C54.8266 47.014 54.3642 46.5516 53.7922 46.5516Z"/><path d="M27.9318 21.7246H25.8629H18.6215H16.5525H7.24219V31.035V33.1039V40.3453V42.4143V51.7246H16.5525H18.6215H27.9318V42.4143V40.3453V33.1039H35.1732H37.2422H46.5525V21.7246H37.2422H35.1732H27.9318ZM37.2422 23.7936H44.4836V31.035H37.2422V23.7936ZM18.6215 23.7936H25.8629V31.035H18.6215V23.7936ZM9.31115 23.7936H16.5525V31.035H9.31115V23.7936ZM9.31115 33.1039H16.5525V40.3453H9.31115V33.1039ZM16.5525 49.6556H9.31115V42.4143H16.5525V49.6556ZM25.8629 49.6556H18.6215V42.4143H25.8629V49.6556ZM25.8629 40.3453H18.6215V33.1039H25.8629V40.3453ZM35.1732 31.035H27.9318V23.7936H35.1732V31.035Z"/><path d="M34.1379 56.8966H2.06897V16.5517H51.7241V30C51.7241 30.5721 52.1866 31.0345 52.7586 31.0345C53.3307 31.0345 53.7931 30.5721 53.7931 30V15.5172V5.17241C53.7931 4.60035 53.3307 4.13793 52.7586 4.13793H47.5862V1.03448C47.5862 0.462414 47.1238 0 46.5517 0H39.3103C38.7383 0 38.2759 0.462414 38.2759 1.03448V4.13793H15.5172V1.03448C15.5172 0.462414 15.0548 0 14.4828 0H7.24138C6.66931 0 6.2069 0.462414 6.2069 1.03448V4.13793H1.03448C0.462414 4.13793 0 4.60035 0 5.17241V15.5172V57.931C0 58.5031 0.462414 58.9655 1.03448 58.9655H34.1379C34.71 58.9655 35.1724 58.5031 35.1724 57.931C35.1724 57.359 34.71 56.8966 34.1379 56.8966ZM40.3448 2.06897H45.5172V5.17241V8.27586H40.3448V5.17241V2.06897ZM8.27586 2.06897H13.4483V5.17241V8.27586H8.27586V5.17241V2.06897ZM2.06897 6.2069H6.2069V9.31035C6.2069 9.88241 6.66931 10.3448 7.24138 10.3448H14.4828C15.0548 10.3448 15.5172 9.88241 15.5172 9.31035V6.2069H38.2759V9.31035C38.2759 9.88241 38.7383 10.3448 39.3103 10.3448H46.5517C47.1238 10.3448 47.5862 9.88241 47.5862 9.31035V6.2069H51.7241V14.4828H2.06897V6.2069Z"/></g><defs><clipPath id="clip0"><path fill="#fff" d="M0 0H60V60H0z"/></clipPath></defs></svg>