<svg viewBox="0 0 54 60" fill="none" xmlns="http://www.w3.org/2000/svg"><path d="M32.8675 20.0143C36.802 21.0299 39.7788 24.2736 40.4513 28.2784C40.5283 28.7365 40.9252 29.0607 41.3748 29.0607C41.4263 29.0607 41.4786 29.0565 41.5312 29.0477C42.0418 28.962 42.3862 28.4786 42.3004 27.9679C41.5053 23.2338 37.9865 19.3993 33.336 18.199C32.8341 18.0694 32.3233 18.3711 32.1939 18.8725C32.0648 19.3736 32.3663 19.885 32.8675 20.0143Z" fill="#E43828"/><path d="M16.058 49.5266C16.7661 48.8183 17.1562 47.8766 17.1562 46.875C17.1562 46.1939 16.9755 45.5407 16.6375 44.9696L19.7002 41.907C22.5165 44.4127 26.2239 45.9375 30.2812 45.9375C39.0693 45.9375 46.2188 38.7879 46.2188 30C46.2188 21.2121 39.0693 14.0625 30.2812 14.0625C21.4932 14.0625 14.3438 21.2121 14.3438 30C14.3438 34.0574 15.8686 37.7646 18.3742 40.5811L15.3115 43.6438C14.7404 43.3057 14.0873 43.125 13.4062 43.125C12.4045 43.125 11.4629 43.515 10.7546 44.2233L1.37965 53.5983C0.671367 54.3066 0.28125 55.2483 0.28125 56.25C0.28125 57.2516 0.671367 58.1933 1.37965 58.9017C2.11066 59.6327 3.07102 59.9981 4.03125 59.9981C4.99148 59.9981 5.95184 59.6326 6.68285 58.9017L16.058 49.5266C16.0579 49.5267 16.0579 49.5267 16.058 49.5266ZM30.2812 15.9375C38.0353 15.9375 44.3438 22.2459 44.3438 30C44.3438 37.7541 38.0353 44.0625 30.2812 44.0625C22.5272 44.0625 16.2188 37.7541 16.2188 30C16.2188 22.2459 22.5272 15.9375 30.2812 15.9375ZM14.732 48.2009L5.35699 57.5757C4.62586 58.307 3.43629 58.3066 2.70539 57.5759C2.35125 57.2217 2.15625 56.7507 2.15625 56.25C2.15625 55.7491 2.35125 55.2783 2.70539 54.9243L12.0804 45.5491C12.4345 45.1951 12.9054 45 13.4061 45C13.9069 45 14.3779 45.195 14.732 45.5493C15.0863 45.9033 15.2812 46.3741 15.2812 46.875C15.2812 47.3757 15.0863 47.8467 14.732 48.2009Z" fill="#E43828"/><path d="M53.7141 13.0323C53.7128 13.0189 53.7102 13.0061 53.7083 12.9929C53.7059 12.9758 53.7039 12.9587 53.7005 12.9416C53.6974 12.9262 53.6932 12.9114 53.6895 12.8962C53.6858 12.8817 53.6827 12.8671 53.6783 12.8527C53.6739 12.8379 53.6682 12.8235 53.6631 12.8089C53.6579 12.7945 53.6532 12.7801 53.6474 12.7659C53.6418 12.7525 53.6352 12.7395 53.629 12.7263C53.6222 12.7118 53.6156 12.6971 53.608 12.6829C53.6012 12.6702 53.5935 12.6582 53.5862 12.6459C53.5779 12.632 53.5699 12.6178 53.5608 12.6042C53.5519 12.591 53.5419 12.5784 53.5324 12.5657C53.5236 12.5539 53.5155 12.5419 53.5062 12.5305C53.4884 12.5088 53.4694 12.4881 53.4497 12.468C53.4477 12.4661 53.4462 12.4638 53.4442 12.462L41.2567 0.274453C41.2564 0.274219 41.2561 0.273984 41.2559 0.27375C41.2266 0.24457 41.1948 0.218086 41.1619 0.192891C41.1543 0.187148 41.1468 0.181289 41.139 0.175781C41.1057 0.151875 41.0713 0.129727 41.0351 0.110391C41.0324 0.108984 41.0296 0.107813 41.0269 0.106406C40.9927 0.0885938 40.9569 0.073125 40.9203 0.0595313C40.9128 0.0568359 40.9055 0.0539063 40.898 0.0513281C40.8588 0.0378516 40.8187 0.0263672 40.7774 0.0181641C40.7762 0.0179297 40.7749 0.0178125 40.7736 0.0175781C40.7357 0.0101953 40.6968 0.00574219 40.6574 0.00304688C40.6467 0.00234375 40.6361 0.00175781 40.6254 0.00140625C40.6148 0.00128906 40.6044 0 40.5938 0H9.65625C8.10539 0 6.84375 1.26176 6.84375 2.8125V43.1249C6.84375 43.6426 7.26352 44.0624 7.78125 44.0624C8.29898 44.0624 8.71875 43.6426 8.71875 43.1249V2.8125C8.71875 2.29559 9.13934 1.875 9.65625 1.875H39.6562V11.25C39.6562 12.8007 40.918 14.0625 42.4688 14.0625H48.0936C48.6114 14.0625 49.0311 13.6427 49.0311 13.125C49.0311 12.6073 48.6114 12.1875 48.0936 12.1875H42.4688C41.9518 12.1875 41.5312 11.7669 41.5312 11.25V3.20074L51.8438 13.5132V57.1875C51.8438 57.7044 51.4232 58.125 50.9062 58.125H10.5941C10.0764 58.125 9.6566 58.5448 9.6566 59.0625C9.6566 59.5802 10.0764 60 10.5941 60H50.9062C52.4571 60 53.7188 58.7382 53.7188 57.1875V13.1252C53.7188 13.0943 53.7171 13.0632 53.7141 13.0323Z" fill="#E43828"/><path d="M38.7188 30C38.7188 29.4823 38.299 29.0625 37.7812 29.0625H19.0312C18.5135 29.0625 18.0938 29.4823 18.0938 30C18.0938 30.5177 18.5135 30.9375 19.0312 30.9375H37.7812C38.299 30.9375 38.7188 30.5177 38.7188 30Z" fill="#E43828"/><path d="M39.6562 33.75H21.8438C21.326 33.75 20.9062 34.1698 20.9062 34.6875C20.9062 35.2052 21.326 35.625 21.8438 35.625H39.6562C40.174 35.625 40.5938 35.2052 40.5938 34.6875C40.5938 34.1698 40.174 33.75 39.6562 33.75Z" fill="#E43828"/><path d="M21.8438 26.25H35.9062C36.424 26.25 36.8438 25.8302 36.8438 25.3125C36.8438 24.7948 36.424 24.375 35.9062 24.375H21.8438C21.326 24.375 20.9062 24.7948 20.9062 25.3125C20.9062 25.8302 21.326 26.25 21.8438 26.25Z" fill="#E43828"/></svg>