<svg viewBox="0 0 60 60" fill="none" xmlns="http://www.w3.org/2000/svg"><path d="M31.6338 37.9886C32.6748 37.9076 33.6238 37.3766 34.2398 36.5296L43.6028 23.5856C43.8898 23.1886 43.8468 22.6406 43.4988 22.2926C43.1508 21.9456 42.6028 21.9026 42.2058 22.1886L29.2598 31.5546C28.4158 32.1686 27.8848 33.1176 27.8038 34.1586C27.7228 35.1996 28.0998 36.2186 28.8368 36.9556C29.5078 37.6276 30.4128 37.9996 31.3538 37.9996C31.4468 37.9996 31.5398 37.9956 31.6338 37.9886ZM29.7978 34.3146C29.8328 33.8576 30.0668 33.4406 30.4348 33.1726L38.3318 27.4596L32.6208 35.3546C32.3508 35.7256 31.9338 35.9586 31.4768 35.9946C31.0218 36.0246 30.5748 35.8666 30.2498 35.5416C29.9278 35.2186 29.7618 34.7706 29.7978 34.3146Z" fill="#E43828"/><path d="M54.0347 19.564C54.0247 19.543 54.0247 19.521 54.0137 19.5C54.0017 19.48 53.9827 19.469 53.9697 19.45C52.9587 17.716 51.7627 16.103 50.4047 14.641L52.5527 12.494L53.9667 13.908L58.2087 9.665L53.9667 5.423L49.7237 9.665L51.1387 11.08L48.9907 13.227C47.5287 11.869 45.9167 10.672 44.1817 9.661C44.1627 9.648 44.1517 9.629 44.1317 9.617C44.1107 9.605 44.0887 9.606 44.0677 9.595C40.9747 7.813 37.4997 6.626 33.7947 6.191V5H35.2947C36.6737 5 37.7947 3.879 37.7947 2.5C37.7947 1.121 36.6727 0 35.2937 0H26.2937C24.9147 0 23.7937 1.121 23.7937 2.5C23.7937 3.879 24.9147 5 26.2937 5H27.7937V6.156C26.7137 6.271 25.6357 6.447 24.5697 6.691C24.0317 6.814 23.6947 7.351 23.8187 7.889C23.9417 8.427 24.4787 8.765 25.0167 8.64C25.9367 8.429 26.8657 8.27 27.7967 8.163L28.8697 8.08C29.1977 8.055 29.4997 8.037 29.7937 8.023V10C29.7937 10.553 30.2407 11 30.7937 11C31.3467 11 31.7937 10.553 31.7937 10V8.03C35.5547 8.203 39.0987 9.213 42.2497 10.875L41.2637 12.582C40.9877 13.061 41.1517 13.672 41.6297 13.948C41.7867 14.039 41.9587 14.082 42.1287 14.082C42.4747 14.082 42.8107 13.903 42.9957 13.582L43.9787 11.879C47.1077 13.864 49.7657 16.522 51.7507 19.651L50.0477 20.634C49.5707 20.91 49.4067 21.521 49.6837 22C49.8697 22.321 50.2047 22.5 50.5507 22.5C50.7207 22.5 50.8927 22.457 51.0497 22.366L52.7567 21.38C54.4417 24.576 55.4547 28.178 55.6057 31.999H53.6307C53.0777 31.999 52.6307 32.446 52.6307 32.999C52.6307 33.552 53.0777 33.999 53.6307 33.999H55.6057C55.4547 37.82 54.4417 41.422 52.7567 44.618L51.0497 43.632C50.5717 43.356 49.9597 43.518 49.6837 43.998C49.4077 44.477 49.5717 45.088 50.0497 45.364L51.7527 46.347C49.7677 49.476 47.1097 52.134 43.9807 54.119L42.9977 52.416C42.7207 51.936 42.1077 51.773 41.6317 52.05C41.1527 52.326 40.9887 52.938 41.2657 53.416L42.2517 55.123C39.1007 56.785 35.5567 57.795 31.7957 57.968V56C31.7957 55.447 31.3487 55 30.7957 55C30.2427 55 29.7957 55.447 29.7957 56V57.976C28.1987 57.921 26.5967 57.721 25.0197 57.359C24.4817 57.23 23.9447 57.572 23.8217 58.11C23.6977 58.648 24.0347 59.185 24.5727 59.308C26.5687 59.768 28.6077 60 30.6307 60C30.6797 60 30.7267 59.997 30.7757 59.996C30.7827 59.996 30.7877 60 30.7937 60C30.8017 60 30.8087 59.995 30.8167 59.995C35.6237 59.962 40.1337 58.664 44.0357 56.422C44.0667 56.408 44.0997 56.401 44.1297 56.383C44.1497 56.371 44.1607 56.352 44.1797 56.339C48.2187 53.985 51.5937 50.614 53.9527 46.578C53.9717 46.551 53.9957 46.53 54.0127 46.5C54.0247 46.479 54.0237 46.457 54.0337 46.436C56.3177 42.476 57.6307 37.89 57.6307 33C57.6307 28.11 56.3177 23.524 54.0347 19.564ZM53.9657 8.251L55.3797 9.665L53.9657 11.08L52.5507 9.665L53.9657 8.251ZM29.7937 6.021V3H26.2937C26.0187 3 25.7937 2.775 25.7937 2.5C25.7937 2.225 26.0187 2 26.2937 2H35.2937C35.5687 2 35.7937 2.225 35.7937 2.5C35.7937 2.775 35.5687 3 35.2937 3H31.7937V6.021C31.4457 6.007 31.1137 6 30.7937 6C30.7657 6 30.7337 6.002 30.7057 6.002C30.6807 6.002 30.6557 6 30.6307 6C30.4667 6 30.3027 6.011 30.1387 6.014C30.0227 6.017 29.9137 6.016 29.7937 6.021Z" fill="#E43828"/><path d="M21.793 14H16.793C16.24 14 15.793 14.447 15.793 15C15.793 15.553 16.24 16 16.793 16H21.793C22.346 16 22.793 15.553 22.793 15C22.793 14.447 22.346 14 21.793 14Z" fill="#E43828"/><path d="M21.793 21H11.793C11.24 21 10.793 21.447 10.793 22C10.793 22.553 11.24 23 11.793 23H21.793C22.346 23 22.793 22.553 22.793 22C22.793 21.447 22.346 21 21.793 21Z" fill="#E43828"/><path d="M21.793 28H6.79297C6.23997 28 5.79297 28.447 5.79297 29C5.79297 29.553 6.23997 30 6.79297 30H21.793C22.346 30 22.793 29.553 22.793 29C22.793 28.447 22.346 28 21.793 28Z" fill="#E43828"/><path d="M21.793 35H2.79297C2.23997 35 1.79297 35.447 1.79297 36C1.79297 36.553 2.23997 37 2.79297 37H21.793C22.346 37 22.793 36.553 22.793 36C22.793 35.447 22.346 35 21.793 35Z" fill="#E43828"/><path d="M21.793 42H8.79297C8.23997 42 7.79297 42.447 7.79297 43C7.79297 43.553 8.23997 44 8.79297 44H21.793C22.346 44 22.793 43.553 22.793 43C22.793 42.447 22.346 42 21.793 42Z" fill="#E43828"/><path d="M21.793 49H14.793C14.24 49 13.793 49.447 13.793 50C13.793 50.553 14.24 51 14.793 51H21.793C22.346 51 22.793 50.553 22.793 50C22.793 49.447 22.346 49 21.793 49Z" fill="#E43828"/></svg>