<svg viewBox="0 0 60 60" fill="none" xmlns="http://www.w3.org/2000/svg"><path d="M58.9996 54.0002H55.9996V35.0002C55.9992 34.448 55.5511 34.0006 54.9988 34.001C54.673 34.0012 54.3676 34.1602 54.1806 34.4272L40.1806 54.4272C39.8641 54.8798 39.9744 55.5033 40.4271 55.8197C40.5949 55.9371 40.7947 56.0001 40.9996 56.0002H53.9996V59.0002C53.9996 59.5525 54.4473 60.0002 54.9996 60.0002C55.5518 60.0002 55.9996 59.5525 55.9996 59.0002V56.0002H58.9996C59.5518 56.0002 59.9996 55.5525 59.9996 55.0002C59.9996 54.448 59.5518 54.0002 58.9996 54.0002ZM53.9996 54.0002H42.9196L53.9996 38.1722V54.0002Z" fill="#E43828"/><path d="M41 57.9998H29.161L40.168 45.0388C40.193 45.009 40.2164 44.978 40.238 44.9458C42.3087 41.881 41.619 37.7316 38.668 35.5018C35.0799 32.9237 30.0811 33.7425 27.5031 37.3307C26.5255 38.6913 25.9998 40.3244 26 41.9998C26 42.552 26.4478 42.9998 27 42.9998C27.5523 42.9998 28 42.552 28 41.9998C27.9996 38.686 30.6857 35.9995 33.9994 35.9991C35.2554 35.999 36.4797 36.393 37.5 37.1258C39.5671 38.7096 40.0485 41.6266 38.6 43.7908L26.238 58.3528C25.8806 58.7739 25.9324 59.4049 26.3535 59.7623C26.5341 59.9155 26.7631 59.9996 27 59.9998H41C41.5522 59.9998 42 59.552 42 58.9998C42 58.4475 41.5522 57.9998 41 57.9998Z" fill="#E43828"/><path d="M27.022 53.019C27.0429 52.4671 26.6122 52.0029 26.0604 51.982C26.0602 51.982 26.0601 51.982 26.06 51.982C13.0137 51.4977 2.54262 41.0454 2.035 28H6C6.55225 28 7 27.5522 7 27C7 26.4478 6.55225 26 6 26H2.035C2.53538 12.9776 12.9775 2.53588 26 2.036V5C26 5.55225 26.4478 6 27 6C27.5522 6 28 5.55225 28 5V2.036C40.8442 2.53275 51.2108 12.7035 51.952 25.536L48.052 21.636C47.6547 21.2522 47.0218 21.2633 46.638 21.6605C46.2638 22.048 46.2638 22.6624 46.638 23.05L52.22 28.632C52.3251 28.7593 52.4606 28.8579 52.614 28.919C52.6531 28.9307 52.6929 28.9405 52.733 28.948C52.8016 28.9727 52.8726 28.9899 52.945 28.999C52.955 28.999 52.964 28.999 52.974 28.999C52.984 28.999 52.993 28.999 53.002 28.999C53.0781 28.9932 53.1534 28.9785 53.226 28.955C53.2671 28.95 53.3079 28.9424 53.348 28.932C53.4834 28.8839 53.6066 28.8067 53.709 28.706L59.367 23.05C59.7506 22.6528 59.7397 22.0198 59.3425 21.636C58.955 21.2617 58.3406 21.2617 57.953 21.636L53.956 25.63C53.2416 11.2962 41.4225 0.035125 27.071 0.014C27.046 0.013 27.025 0 27 0C26.975 0 26.954 0.013 26.929 0.014C12.0728 0.034375 0.034375 12.0728 0.014 26.929C0.014 26.954 0 26.975 0 27C0 27.025 0.013 27.046 0.014 27.071C0.038875 41.5606 11.5064 53.4422 25.986 53.981H26.023C26.5604 53.9809 27.0016 53.556 27.022 53.019Z" fill="#E43828"/><path d="M40.4351 13.5652C40.0446 13.1749 39.4116 13.1749 39.0211 13.5652L28.2751 24.3102C27.4632 23.9482 26.5358 23.9482 25.7241 24.3102L20.6361 19.2222C20.2388 18.8386 19.6057 18.8496 19.2221 19.2469C18.8478 19.6344 18.8478 20.2487 19.2221 20.6362L24.3001 25.7142C23.5871 27.2067 24.2191 28.9947 25.7117 29.7076C26.8573 30.2549 28.2236 30.0202 29.1211 29.1222C30.0235 28.2275 30.2558 26.8575 29.6991 25.7152L40.4351 14.9792C40.8255 14.5887 40.8255 13.9557 40.4351 13.5652ZM27.7073 27.707C27.7072 27.7071 27.7072 27.7071 27.7071 27.7072C27.3116 28.0854 26.6886 28.0854 26.2931 27.7072C25.9025 27.3167 25.9025 26.6836 26.2928 26.293C26.6833 25.9024 27.3165 25.9024 27.7071 26.2927C28.0977 26.6832 28.0977 27.3165 27.7073 27.707Z" fill="#E43828"/></svg>