<svg viewBox="0 0 60 60" fill="none" xmlns="http://www.w3.org/2000/svg"><g clip-path="url(#clip0)" fill="#E43828"><path d="M48.771 19.637C48.6051 19.2934 48.2585 19.0759 47.8771 19.0759H33.5559L41.8219 1.62427C41.9679 1.31639 41.946 0.955881 41.7633 0.667868C41.5825 0.380849 41.2657 0.206055 40.9251 0.206055H21.0621C20.5834 0.206055 20.1723 0.547697 20.0859 1.01845L15.1201 27.8334C15.0665 28.1234 15.144 28.4224 15.3337 28.6488C15.5214 28.8762 15.8014 29.0073 16.0964 29.0073H27.5583L16.1629 58.4432C15.9862 58.9011 16.1699 59.4195 16.596 59.6628C16.7499 59.7522 16.9207 59.7949 17.0886 59.7949C17.3835 59.7949 17.6725 59.6638 17.8672 59.4195L48.6548 20.6867C48.8911 20.3878 48.9368 19.9806 48.771 19.637ZM20.3699 53.0782L29.9339 28.3727C30.0521 28.0668 30.0124 27.7232 29.8277 27.4521C29.6419 27.1829 29.3351 27.021 29.0073 27.021H17.2902L21.8884 2.19235H39.3559L31.0899 19.6439C30.944 19.9518 30.9658 20.3123 31.1485 20.6003C31.3293 20.8874 31.6461 21.0621 31.9868 21.0621H45.8193L20.3699 53.0782Z"/><path d="M9.14341 29.0068H1.19822C0.649722 29.0068 0.205078 29.4515 0.205078 30C0.205078 30.5485 0.649724 30.9931 1.19822 30.9931H9.14341C9.69191 30.9931 10.1365 30.5485 10.1365 30C10.1365 29.4515 9.6919 29.0068 9.14341 29.0068Z"/><path d="M58.8016 29.0068H50.8564C50.3079 29.0068 49.8633 29.4515 49.8633 30C49.8633 30.5485 50.3079 30.9931 50.8564 30.9931H58.8016C59.3501 30.9931 59.7948 30.5485 59.7948 30C59.7948 29.4515 59.3501 29.0068 58.8016 29.0068Z"/><path d="M57.8938 1.19994L52.3468 6.74696C51.9589 7.13481 51.9589 7.76363 52.3468 8.15147C52.7346 8.53932 53.3634 8.53932 53.7513 8.15147L59.2983 2.60445C59.6862 2.21661 59.6862 1.58779 59.2983 1.19994C58.9105 0.812099 58.2816 0.812101 57.8938 1.19994Z"/><path d="M6.25318 50.8552L0.706161 56.4022C0.318316 56.7901 0.318316 57.4189 0.706161 57.8067C1.09401 58.1946 1.72283 58.1946 2.11067 57.8067L7.65769 52.2597C8.04553 51.8719 8.04553 51.2431 7.65769 50.8552C7.26985 50.4674 6.64102 50.4674 6.25318 50.8552Z"/><path d="M59.2964 57.3965L53.7493 51.8495C53.3615 51.4617 52.7327 51.4617 52.3448 51.8495C51.957 52.2373 51.957 52.8662 52.3448 53.254L57.8918 58.801C58.2797 59.1889 58.9085 59.1889 59.2964 58.801C59.6842 58.4132 59.6842 57.7844 59.2964 57.3965Z"/><path d="M7.65378 6.74516L2.10676 1.19814C1.71892 0.810292 1.0901 0.810292 0.702254 1.19814C0.31441 1.58598 0.314409 2.2148 0.702253 2.60264L6.24927 8.14966C6.63712 8.53751 7.26594 8.53751 7.65378 8.14966C8.04163 7.76182 8.04163 7.133 7.65378 6.74516Z"/></g><defs><clipPath id="clip0"><path fill="#fff" d="M0 0H60V60H0z"/></clipPath></defs></svg>