<svg viewBox="0 0 50 60" fill="none" xmlns="http://www.w3.org/2000/svg"><path d="M49.1483 27.7515C48.6635 26.9109 47.8516 26.309 46.9063 26.0896V20.914C46.9063 9.39179 37.0684 0 24.9773 0C12.8862 0 3.0482 9.39179 3.0482 20.914V26.0896C2.09912 26.3223 1.29031 26.941 0.817373 27.7961C0.449705 28.5048 0.269147 29.2958 0.293128 30.0939V41.4823C0.271098 42.2766 0.451517 43.0635 0.817373 43.7689C1.56456 45.0516 2.98616 45.7864 4.46478 45.6539H6.19367C6.2645 46.8335 7.24286 47.753 8.42451 47.7509H10.3876C11.6198 47.7509 12.6185 46.7522 12.6185 45.5201V25.833C12.6185 24.6009 11.6198 23.6022 10.3876 23.6022H8.36873C7.13662 23.6022 6.1379 24.6009 6.1379 25.833V25.9222H5.23442V20.914C5.23442 10.6076 14.0685 2.23083 24.9326 2.23083C35.7968 2.23083 44.6309 10.6076 44.6309 20.914V25.9222H43.7274V25.833C43.7274 24.6009 42.7287 23.6022 41.4966 23.6022H39.6227C38.3906 23.6022 37.3918 24.6009 37.3918 25.833V45.5982C37.4186 46.7148 38.267 47.6395 39.3773 47.7621C39.1645 49.1807 38.5357 50.5044 37.5703 51.5656C35.8191 53.5064 32.9636 54.6219 29.1155 54.9119V54.4211C29.0552 53.1358 27.9695 52.1398 26.6839 52.1903H21.8987C20.6131 52.1398 19.5273 53.1358 19.4671 54.4211V57.7673C19.5273 59.0526 20.6131 60.0486 21.8987 59.9982H26.7285C28.0141 60.0486 29.0998 59.0526 29.1601 57.7673V57.1427C33.6775 56.8415 37.0907 55.4807 39.2657 53.0826C40.6211 51.6069 41.4759 49.7409 41.7085 47.7509C42.8342 47.6855 43.7341 46.7904 43.8055 45.6651H45.5344C47.0129 45.7975 48.4346 45.0628 49.1818 43.78C49.5476 43.0747 49.7281 42.2877 49.706 41.4934V30.0939C49.7274 29.2778 49.5351 28.4704 49.1483 27.7515ZM8.42451 43.5123V28.1085C8.43594 27.9785 8.43594 27.848 8.42451 27.7181V25.8776L10.2984 25.8218V45.5312H8.42451V43.5123ZM6.19367 28.0527V43.4231H4.46478C3.1709 43.4231 2.86974 42.8765 2.76935 42.6869C2.58893 42.308 2.50458 41.8904 2.52396 41.4711V30.0939C2.49928 29.6718 2.57973 29.2502 2.7582 28.8669C2.85858 28.6885 3.15975 28.1308 4.45363 28.1308L6.19367 28.0527ZM26.9739 56.0496V57.5777C26.9242 57.6685 26.8316 57.7273 26.7285 57.7339H21.8987C21.8393 57.7382 21.7796 57.7382 21.7203 57.7339V54.4769C21.7826 54.4255 21.863 54.4014 21.9433 54.4099H26.7731C26.8958 54.4099 26.9739 54.4099 26.9739 54.4099V56.0496ZM41.5412 28.1085V45.5312H40.66H40.5262H40.4369H39.6561V25.833H41.5746L41.5412 28.1085ZM47.1852 42.7092C47.0848 42.8877 46.7836 43.4454 45.4897 43.4454H43.772V28.1531H45.4897C46.7836 28.1531 47.0848 28.6996 47.1852 28.8892C47.3656 29.2682 47.45 29.6858 47.4306 30.105V41.4934C47.4498 41.9127 47.3656 42.3303 47.1852 42.7092Z" fill="#E43828"/></svg>