<svg viewBox="0 0 60 60" fill="none" xmlns="http://www.w3.org/2000/svg"><path d="M57.3634 25.6046H56.485V22.9674V13.5924C56.485 10.523 53.9878 8.02588 50.9186 8.02588H26.7805L10.4958 3.37307C10.4911 3.37178 10.4863 3.37108 10.4816 3.36979C10.4768 3.3685 10.4722 3.36663 10.4674 3.36545C10.4576 3.36299 10.4478 3.36182 10.4381 3.35971C10.423 3.35655 10.4079 3.35327 10.3928 3.35081C10.379 3.34858 10.3656 3.34717 10.3519 3.34553C10.3359 3.34366 10.3201 3.34202 10.3043 3.34108C10.2914 3.34038 10.2786 3.34026 10.2657 3.34003C10.2493 3.33979 10.233 3.33967 10.2167 3.34038C10.2047 3.34085 10.1926 3.34202 10.1806 3.34295C10.1639 3.34436 10.1471 3.34588 10.1306 3.34835C10.1194 3.34999 10.1082 3.3521 10.0971 3.35409C10.08 3.35713 10.0631 3.36042 10.0463 3.36452C10.0359 3.3671 10.0257 3.37003 10.0154 3.37295C9.9983 3.37788 9.98143 3.38292 9.96455 3.38878C9.95506 3.39217 9.94568 3.39581 9.93619 3.39956C9.9192 3.40612 9.90232 3.41303 9.8858 3.42065C9.87701 3.42475 9.86846 3.4292 9.85979 3.43354C9.84326 3.44186 9.82697 3.4503 9.81104 3.45979C9.80272 3.4646 9.79475 3.46975 9.78654 3.47491C9.77084 3.48475 9.75537 3.49483 9.74037 3.50573C9.73252 3.51135 9.7249 3.51745 9.71717 3.52342C9.70275 3.53456 9.68846 3.54592 9.67475 3.55799C9.66701 3.56479 9.65963 3.57194 9.65213 3.57897C9.63924 3.59116 9.62647 3.60335 9.61428 3.61624C9.60666 3.62432 9.59951 3.63276 9.59213 3.6412C9.581 3.65397 9.56998 3.66686 9.55955 3.68034C9.55205 3.69006 9.54502 3.70002 9.53787 3.70999C9.52861 3.72299 9.51947 3.73612 9.51104 3.74959C9.50377 3.76108 9.49709 3.77303 9.49041 3.78487C9.48303 3.79788 9.47565 3.811 9.46897 3.82448C9.4624 3.8376 9.45654 3.85108 9.45057 3.86456C9.44471 3.8778 9.43897 3.89104 9.43381 3.90463C9.42842 3.91893 9.42373 3.93358 9.41893 3.94834C9.41588 3.95784 9.41213 3.96674 9.40932 3.97635C9.40791 3.98116 9.40733 3.98584 9.40604 3.99053C9.40475 3.99534 9.40287 3.99991 9.4017 4.00471L8.3967 8.02564H5.56698C2.50382 8.02564 0.0110156 10.5127 0.000937498 13.5736C0.000820311 13.58 0 13.5859 0 13.5922V44.0608C0 44.546 0.394921 44.9398 0.878905 44.9398C1.36406 44.9398 1.75781 44.546 1.75781 44.0608V17.646C2.75437 18.583 4.09429 19.1589 5.56698 19.1589H50.9186C50.9196 19.1589 50.9206 19.1588 50.9216 19.1588C53.0202 19.1604 54.7272 20.8683 54.7272 22.9675V29.1203H45.0578C45.0572 29.1203 45.0568 29.1204 45.0562 29.1204C45.0307 29.1204 45.0054 29.1219 44.9802 29.1242C44.9522 29.1266 44.9246 29.1306 44.8974 29.1356C44.8933 29.1363 44.8893 29.1367 44.8852 29.1375C44.8622 29.1421 44.8397 29.1482 44.8173 29.1545C44.8124 29.1559 44.8074 29.1569 44.8026 29.1584C44.7826 29.1645 44.7633 29.1717 44.744 29.1791C44.7366 29.1819 44.7291 29.1843 44.7217 29.1873C44.7055 29.194 44.69 29.2019 44.6744 29.2095C44.6641 29.2144 44.6536 29.219 44.6436 29.2242C44.6314 29.2307 44.6199 29.2381 44.6082 29.2451C44.5951 29.2528 44.5819 29.2603 44.5693 29.2688C44.5607 29.2744 44.5528 29.2808 44.5446 29.2868C44.5296 29.2976 44.5145 29.3083 44.5002 29.3201C44.494 29.3253 44.4883 29.331 44.4823 29.3363C44.4669 29.3496 44.4516 29.3629 44.4371 29.3774C44.4285 29.386 44.4208 29.3953 44.4127 29.4042C44.4013 29.4165 44.3896 29.4286 44.3788 29.4417C44.3607 29.4639 44.3437 29.4869 44.3277 29.5106C44.3274 29.511 44.327 29.5115 44.3268 29.5119L39.6395 36.5433C39.6068 36.5923 39.5792 36.6442 39.5573 36.6982C39.5489 36.7184 39.5423 36.7389 39.5356 36.7593C39.5336 36.7655 39.531 36.7714 39.5291 36.7777C39.5226 36.7993 39.5175 36.8213 39.5127 36.8431C39.5114 36.8488 39.5098 36.8544 39.5086 36.8602C39.5048 36.8798 39.5022 36.8997 39.4997 36.9195C39.4987 36.9279 39.497 36.9363 39.4962 36.9449C39.4946 36.9612 39.4942 36.9773 39.4936 36.9936C39.493 37.0061 39.492 37.0185 39.492 37.031C39.492 37.0431 39.493 37.0552 39.4935 37.0672C39.4941 37.0839 39.4946 37.1006 39.4962 37.1173C39.497 37.1254 39.4986 37.1334 39.4996 37.1415C39.5022 37.1617 39.5048 37.1818 39.5088 37.2019C39.5098 37.2074 39.5114 37.2128 39.5127 37.2183C39.5175 37.2403 39.5227 37.2623 39.5293 37.2843C39.5311 37.2905 39.5337 37.2964 39.5357 37.3028C39.5424 37.3232 39.5491 37.3437 39.5574 37.3638C39.5794 37.4177 39.6071 37.4698 39.6399 37.5189L44.327 44.5492C44.3273 44.5495 44.3275 44.5498 44.3277 44.5501C44.3466 44.5781 44.3672 44.6048 44.389 44.6305C44.3962 44.6389 44.4038 44.6468 44.4112 44.6548C44.426 44.671 44.4415 44.6867 44.4576 44.7019C44.4671 44.7108 44.4764 44.7194 44.486 44.7278C44.5032 44.7424 44.5209 44.7561 44.539 44.7695C44.5472 44.7755 44.5551 44.782 44.5634 44.7876C44.5898 44.8056 44.6171 44.8221 44.6453 44.8371C44.6525 44.8408 44.6598 44.844 44.667 44.8475C44.6895 44.8588 44.7125 44.8692 44.736 44.8785C44.7451 44.8821 44.7543 44.8854 44.7635 44.8887C44.7859 44.8966 44.8087 44.9037 44.8319 44.9099C44.8414 44.9123 44.8507 44.9149 44.8603 44.9173C44.8841 44.9228 44.9083 44.927 44.9328 44.9305C44.9417 44.9318 44.9505 44.9335 44.9594 44.9346C44.9896 44.938 45.0203 44.9399 45.0515 44.9401C45.0539 44.9401 45.0564 44.9406 45.059 44.9406C45.0594 44.9406 45.06 44.9405 45.0606 44.9405H54.7275V51.0937C54.7275 53.194 53.0189 54.9025 50.9189 54.9025H5.56745C3.46745 54.9025 1.75886 53.194 1.75886 51.0937C1.75886 51.0892 1.75828 51.0847 1.75816 51.0801V47.5769C1.75816 47.093 1.36441 46.698 0.879256 46.698C0.395273 46.698 0.000351562 47.093 0.000351562 47.5769V51.0937C0.000351562 51.1029 0.00140625 51.1118 0.00175781 51.1208C0.0164062 54.1777 2.50722 56.6604 5.56745 56.6604H50.9189C53.9879 56.6604 56.4849 54.1637 56.4853 51.0947C56.4853 51.0945 56.4853 51.0944 56.4853 51.0942V44.9405H57.3638C58.8173 44.9405 60 43.7578 60 42.3042V28.2408C59.9996 26.7872 58.817 25.6046 57.3634 25.6046ZM10.8867 5.31287L26.3951 9.74408C26.3958 9.74431 26.3967 9.74443 26.3974 9.74466L36.7914 12.7144H9.03678L10.8867 5.31287ZM54.727 18.9134C53.7306 17.9766 52.3909 17.4009 50.9186 17.4009C50.9171 17.4009 50.9156 17.4011 50.914 17.4011H5.56698C3.46687 17.4011 1.75828 15.6925 1.75828 13.5924C1.75828 11.4923 3.46687 9.78369 5.56698 9.78369H7.95737L7.22495 12.7144H5.56722C5.08183 12.7144 4.68831 13.1079 4.68831 13.5933C4.68831 14.0787 5.08183 14.4722 5.56722 14.4722H7.90815C7.90932 14.4722 7.91061 14.4725 7.9119 14.4725C7.91284 14.4725 7.91377 14.4722 7.91459 14.4722H43.0639C43.065 14.4722 43.0661 14.4725 43.0671 14.4725C43.0681 14.4725 43.069 14.4722 43.07 14.4722H49.7456C50.231 14.4722 50.6246 14.0787 50.6246 13.5933C50.6246 13.1079 50.231 12.7144 49.7456 12.7144H43.1898L32.9326 9.78369H50.9185C53.0185 9.78369 54.727 11.4923 54.727 13.5924V18.9134ZM58.2418 42.3037C58.2418 42.7881 57.8477 43.1822 57.3634 43.1822H45.5282L41.4268 37.0305L45.5282 30.878H57.3634C57.3757 30.878 57.3877 30.8766 57.3998 30.8761C57.6947 30.872 57.9778 30.8195 58.2418 30.726V42.3037ZM57.3634 29.1192C57.3573 29.1192 57.3513 29.1201 57.3452 29.1202H56.485V27.3624H57.3634C57.8477 27.3624 58.2418 27.7565 58.2418 28.2408C58.2418 28.7251 57.8477 29.1192 57.3634 29.1192Z" fill="#E43828"/><path d="M48.5742 33.8076C46.7972 33.8076 45.3516 35.2534 45.3516 37.0304C45.3516 38.8074 46.7972 40.253 48.5742 40.253C50.3512 40.253 51.7969 38.8074 51.7969 37.0304C51.7969 35.2534 50.3512 33.8076 48.5742 33.8076ZM48.5742 38.4952C47.7664 38.4952 47.1094 37.8382 47.1094 37.0304C47.1094 36.2226 47.7664 35.5654 48.5742 35.5654C49.382 35.5654 50.0391 36.2226 50.0391 37.0304C50.0391 37.8382 49.382 38.4952 48.5742 38.4952Z" fill="#E43828"/></svg>