<svg viewBox="0 0 60 56" fill="none" xmlns="http://www.w3.org/2000/svg"><path d="M21.3594 24.6967C21.0887 24.2423 20.5011 24.0934 20.0469 24.3641L8.8934 31.0074C8.60348 31.18 8.42578 31.4925 8.42578 31.8299C8.42578 32.1673 8.60348 32.4798 8.89327 32.6524L20.0468 39.2957C20.2003 39.3872 20.3691 39.4308 20.5358 39.4308C20.8621 39.4308 21.1802 39.2638 21.3592 38.9631C21.6299 38.5088 21.4809 37.9212 21.0267 37.6507L11.2542 31.8299L21.0267 26.0091C21.481 25.7386 21.63 25.151 21.3594 24.6967Z" fill="#E43828"/><path d="M38.641 38.9631C38.8201 39.2638 39.1381 39.4307 39.4644 39.4307C39.6311 39.4307 39.7999 39.3872 39.9534 39.2956L51.1069 32.6524C51.3969 32.4796 51.5744 32.1672 51.5744 31.8298C51.5744 31.4924 51.3967 31.1799 51.1069 31.0073L39.9534 24.3641C39.4992 24.0934 38.9114 24.2423 38.641 24.6966C38.3703 25.151 38.5193 25.7386 38.9735 26.0091L48.746 31.8298L38.9735 37.6506C38.5192 37.9211 38.3702 38.5087 38.641 38.9631Z" fill="#E43828"/><path d="M33.6653 24.6533L24.7428 37.9399C24.448 38.3788 24.5648 38.9737 25.0038 39.2686C25.1678 39.3786 25.3532 39.4312 25.5368 39.4312C25.8451 39.4312 26.1478 39.2825 26.3325 39.0074L35.255 25.7208C35.5498 25.2819 35.433 24.687 34.994 24.3921C34.5547 24.0973 33.9599 24.2144 33.6653 24.6533Z" fill="#E43828"/><path d="M59.0426 0.872559H0.957447C0.428553 0.872559 0 1.30124 0 1.83001V54.1704C0 54.6992 0.428553 55.1279 0.957447 55.1279H59.0426C59.5714 55.1279 60 54.6992 60 54.1704V43.9577C60 43.4289 59.5714 43.0002 59.0426 43.0002C58.5137 43.0002 58.0851 43.4289 58.0851 43.9577V53.213H1.91489V10.447H58.0851V40.1279C58.0851 40.6566 58.5137 41.0853 59.0426 41.0853C59.5714 41.0853 60 40.6566 60 40.1279V1.83001C60 1.30124 59.5714 0.872559 59.0426 0.872559ZM1.91489 2.78745H37.3404V8.53213H1.91489V2.78745ZM39.2553 8.53213V2.78745H58.0851V8.53213H39.2553Z" fill="#E43828"/><path d="M48.7029 4.63867C48.1398 4.63867 47.6816 5.09684 47.6816 5.65995C47.6816 6.22305 48.1398 6.68122 48.7029 6.68122C49.266 6.68122 49.7242 6.22305 49.7242 5.65995C49.7242 5.09684 49.266 4.63867 48.7029 4.63867Z" fill="#E43828"/><path d="M43.4685 4.63867C42.9054 4.63867 42.4473 5.09684 42.4473 5.65995C42.4473 6.22305 42.9054 6.68122 43.4685 6.68122C44.0316 6.68122 44.4898 6.22305 44.4898 5.65995C44.4898 5.09684 44.0316 4.63867 43.4685 4.63867Z" fill="#E43828"/><path d="M53.9353 4.63867C53.3722 4.63867 52.9141 5.09684 52.9141 5.65995C52.9141 6.22305 53.3722 6.68122 53.9353 6.68122C54.4984 6.68122 54.9566 6.22305 54.9566 5.65995C54.9566 5.09684 54.4984 4.63867 53.9353 4.63867Z" fill="#E43828"/></svg>