<svg xmlns="http://www.w3.org/2000/svg" viewBox="0 0 40 38.25"><path d="M36.63,15.89A1.62,1.62,0,0,0,35,17.51v1.63A15.89,15.89,0,0,1,19.12,35h0a15.89,15.89,0,0,1,0-31.79h0a15.79,15.79,0,0,1,6.46,1.38,1.62,1.62,0,0,0,1.32-3A19,19,0,0,0,19.14,0h0A19.12,19.12,0,0,0,5.59,32.64a19,19,0,0,0,13.52,5.61h0A19.12,19.12,0,0,0,38.25,19.13V17.51A1.62,1.62,0,0,0,36.63,15.89Z"/><path d="M39.53,2.23a1.62,1.62,0,0,0-2.29,0L19.12,20.35,15,16.24a1.62,1.62,0,0,0-2.29,2.29L18,23.78a1.62,1.62,0,0,0,2.29,0L39.53,4.52A1.62,1.62,0,0,0,39.53,2.23Z"/></svg>