<svg width="28" height="28" viewBox="0 0 28 28" fill="none" xmlns="http://www.w3.org/2000/svg">
<g id="Social logo" clip-path="url(#clip0_3631_496227)">
<path id="Container" fill-rule="evenodd" clip-rule="evenodd" d="M0.67238 3.14432C0.015625 4.40862 0.015625 6.06964 0.015625 9.39167V18.6083C0.015625 21.9304 0.015625 23.5914 0.67238 24.8557C1.22582 25.9211 2.09452 26.7898 3.15994 27.3432C4.42425 28 6.08526 28 9.40729 28H18.624C21.946 28 23.607 28 24.8713 27.3432C25.9367 26.7898 26.8054 25.9211 27.3589 24.8557C28.0156 23.5914 28.0156 21.9304 28.0156 18.6083V9.39167C28.0156 6.06964 28.0156 4.40862 27.3589 3.14432C26.8054 2.0789 25.9367 1.2102 24.8713 0.656755C23.607 0 21.946 0 18.624 0H9.40729C6.08526 0 4.42425 0 3.15994 0.656755C2.09452 1.2102 1.22582 2.0789 0.67238 3.14432ZM9.80213 3.87979C10.8882 3.83037 11.2352 3.81828 14.0003 3.81828H13.9971C16.7631 3.81828 17.1088 3.83037 18.1949 3.87979C19.2788 3.92943 20.0191 4.10104 20.6681 4.35282C21.3384 4.61267 21.9048 4.96055 22.4711 5.52692C23.0375 6.09285 23.3853 6.66091 23.6462 7.33058C23.8965 7.97797 24.0683 8.71785 24.1192 9.80179C24.168 10.8879 24.1808 11.2349 24.1808 14.0001C24.1808 16.7653 24.168 17.1115 24.1192 18.1975C24.0683 19.2811 23.8965 20.0212 23.6462 20.6688C23.3853 21.3382 23.0375 21.9063 22.4711 22.4722C21.9054 23.0386 21.3382 23.3873 20.6688 23.6474C20.021 23.8992 19.2803 24.0708 18.1964 24.1204C17.1103 24.1698 16.7644 24.1819 13.999 24.1819C11.2341 24.1819 10.8873 24.1698 9.80128 24.1204C8.71758 24.0708 7.97752 23.8992 7.32972 23.6474C6.6605 23.3873 6.09245 23.0386 5.52674 22.4722C4.96061 21.9063 4.61274 21.3382 4.35247 20.6685C4.10091 20.0212 3.92931 19.2813 3.87946 18.1973C3.83025 17.1113 3.81795 16.7653 3.81795 14.0001C3.81795 11.2349 3.83067 10.8876 3.87925 9.80158C3.92803 8.71807 4.09985 7.97797 4.35226 7.33037C4.61316 6.66091 4.96103 6.09285 5.52738 5.52692C6.0933 4.96076 6.66134 4.61288 7.33099 4.35282C7.97836 4.10104 8.71822 3.92943 9.80213 3.87979ZM13.661 5.65303C13.4551 5.65294 13.2643 5.65285 13.0869 5.65313V5.65058C11.1894 5.6527 10.8254 5.66543 9.88613 5.70785C8.89343 5.75346 8.35444 5.91891 7.99555 6.05891C7.52041 6.24388 7.18102 6.46449 6.82467 6.82085C6.46832 7.17722 6.2473 7.51661 6.06276 7.99176C5.9234 8.35067 5.75752 8.88946 5.71213 9.88219C5.66334 10.9555 5.65359 11.2762 5.65359 13.9952C5.65359 16.7142 5.66334 17.0366 5.71213 18.1099C5.75731 19.1027 5.9234 19.6415 6.06276 19.9999C6.24772 20.4753 6.46832 20.8139 6.82467 21.1702C7.18102 21.5266 7.52041 21.7472 7.99555 21.9317C8.35466 22.0711 8.89343 22.237 9.88613 22.2828C10.9594 22.3316 11.2816 22.3422 14.0003 22.3422C16.7188 22.3422 17.0412 22.3316 18.1145 22.2828C19.1072 22.2374 19.6464 22.0719 20.0048 21.9319C20.4802 21.7474 20.8185 21.5268 21.1749 21.1704C21.5312 20.8143 21.7523 20.4759 21.9368 20.0008C22.0761 19.6423 22.242 19.1035 22.2874 18.1108C22.3362 17.0375 22.3468 16.715 22.3468 13.9978C22.3468 11.2805 22.3362 10.9581 22.2874 9.88473C22.2422 8.892 22.0761 8.35322 21.9368 7.99473C21.7518 7.51958 21.5312 7.18019 21.1749 6.82382C20.8187 6.46746 20.48 6.24685 20.0048 6.06231C19.646 5.92295 19.1072 5.75707 18.1145 5.71167C17.041 5.66288 16.7188 5.65313 14.0003 5.65313C13.8828 5.65313 13.7698 5.65308 13.661 5.65303ZM18.2133 8.56513C18.2133 7.89037 18.7606 7.34373 19.4351 7.34373V7.34331C20.1096 7.34331 20.6569 7.89058 20.6569 8.56513C20.6569 9.23967 20.1096 9.78694 19.4351 9.78694C18.7606 9.78694 18.2133 9.23967 18.2133 8.56513ZM8.77167 14.0001C8.77167 11.1126 11.1127 8.77142 14.0001 8.77131C16.8876 8.77131 19.2281 11.1125 19.2281 14.0001C19.2281 16.8877 16.8878 19.2278 14.0003 19.2278C11.1128 19.2278 8.77167 16.8877 8.77167 14.0001ZM17.3941 14.0001C17.3941 12.1256 15.8745 10.6062 14.0003 10.6062C12.1258 10.6062 10.6065 12.1256 10.6065 14.0001C10.6065 15.8744 12.1258 17.394 14.0003 17.394C15.8745 17.394 17.3941 15.8744 17.3941 14.0001Z" fill="#C7448A"/>
</g>
<defs>
<clipPath id="clip0_3631_496227">
<rect width="28" height="28" fill="white"/>
</clipPath>
</defs>
</svg>
