<svg width="28" height="28" viewBox="0 0 28 28" fill="none" xmlns="http://www.w3.org/2000/svg">
<g id="Social logo">
<path id="Container" fill-rule="evenodd" clip-rule="evenodd" d="M0.656755 3.14432C0 4.40862 0 6.06964 0 9.39167V18.6083C0 21.9304 0 23.5914 0.656755 24.8557C1.2102 25.9211 2.0789 26.7898 3.14432 27.3432C4.40862 28 6.06964 28 9.39167 28H18.6083C21.9304 28 23.5914 28 24.8557 27.3432C25.9211 26.7898 26.7898 25.9211 27.3432 24.8557C28 23.5914 28 21.9304 28 18.6083V9.39167C28 6.06964 28 4.40862 27.3432 3.14432C26.7898 2.0789 25.9211 1.2102 24.8557 0.656755C23.5914 0 21.9304 0 18.6083 0H9.39167C6.06964 0 4.40862 0 3.14432 0.656755C2.0789 1.2102 1.2102 2.0789 0.656755 3.14432ZM6.28472 8.69537C7.62621 8.69537 8.71371 7.60788 8.71371 6.26638C8.71371 4.92488 7.62621 3.83739 6.28472 3.83739C4.94322 3.83739 3.85572 4.92488 3.85572 6.26638C3.85572 7.60788 4.94322 8.69537 6.28472 8.69537ZM10.9383 10.4905H14.9639V12.3346C14.9639 12.3346 16.0563 10.1498 19.0286 10.1498C21.68 10.1498 23.8764 11.456 23.8764 15.4372V23.8325H19.7047V16.4545C19.7047 14.1059 18.4509 13.8476 17.4954 13.8476C15.5126 13.8476 15.1731 15.558 15.1731 16.7608V23.8325H10.9383V10.4905ZM8.40214 10.4905H4.1673V23.8325H8.40214V10.4905Z" fill="#3A67AF"/>
</g>
</svg>
