<svg width="28" height="28" viewBox="0 0 28 28" fill="none" xmlns="http://www.w3.org/2000/svg">
<g id="Social logo">
<path id="Container" fill-rule="evenodd" clip-rule="evenodd" d="M0.656755 3.14432C0 4.40862 0 6.06964 0 9.39167V18.6083C0 21.9304 0 23.5914 0.656755 24.8557C1.2102 25.9211 2.0789 26.7898 3.14432 27.3432C4.40862 28 6.06964 28 9.39167 28H18.6083C21.9304 28 23.5914 28 24.8557 27.3432C25.9211 26.7898 26.7898 25.9211 27.3432 24.8557C28 23.5914 28 21.9304 28 18.6083V9.39167C28 6.06964 28 4.40862 27.3432 3.14432C26.7898 2.0789 25.9211 1.2102 24.8557 0.656755C23.5914 0 21.9304 0 18.6083 0H9.39167C6.06964 0 4.40862 0 3.14432 0.656755C2.0789 1.2102 1.2102 2.0789 0.656755 3.14432ZM21.7805 11.1132C21.7805 10.9384 21.7782 10.7635 21.7714 10.5887C22.4957 10.0243 23.1227 9.31688 23.6209 8.51399C22.9569 8.83197 22.2409 9.04644 21.4903 9.14183C22.2575 8.64897 22.8446 7.86215 23.1227 6.92413C22.4053 7.38519 21.6124 7.71904 20.766 7.89392C20.09 7.11489 19.1268 6.62991 18.0604 6.62991C16.012 6.62991 14.3517 8.4265 14.3517 10.6444C14.3517 10.9544 14.3841 11.2643 14.4474 11.5585C11.3657 11.3915 8.63218 9.79368 6.80382 7.36119C6.48276 7.95739 6.30037 8.64901 6.30037 9.38035C6.30037 10.7715 6.95531 12.0036 7.95164 12.727C7.34344 12.7031 6.77067 12.5204 6.27024 12.2263V12.274C6.27024 14.2216 7.54918 15.8432 9.24717 16.2089C8.93365 16.3043 8.60657 16.3519 8.26968 16.3519C8.03077 16.3519 7.79716 16.328 7.57031 16.2803C8.04285 17.8702 9.41299 19.0387 11.0356 19.0626C9.76645 20.1437 8.16644 20.7877 6.42926 20.7877C6.13006 20.7877 5.83538 20.7638 5.54522 20.732C7.18669 21.8688 9.13489 22.5365 11.23 22.5365C18.0506 22.5365 21.7805 16.4154 21.7805 11.1132Z" fill="#4B99E8"/>
</g>
</svg>
