<svg width="140" height="140" viewBox="0 0 140 140" fill="none" xmlns="http://www.w3.org/2000/svg">
<g clip-path="url(#clip0_2507_206501)">
<path d="M173.871 -33.8708H-33.871V173.871H173.871V-33.8708Z" fill="white"/>
<path d="M19.3993 114.317C20.8306 114.317 21.9909 113.156 21.9909 111.725C21.9909 110.294 20.8306 109.134 19.3993 109.134C17.968 109.134 16.8077 110.294 16.8077 111.725C16.8077 113.156 17.968 114.317 19.3993 114.317Z" fill="#5886C9"/>
<path d="M132.011 73.0177C133.844 73.0177 135.33 71.5319 135.33 69.699C135.33 67.8662 133.844 66.3804 132.011 66.3804C130.178 66.3804 128.692 67.8662 128.692 69.699C128.692 71.5319 130.178 73.0177 132.011 73.0177Z" fill="#5886C9"/>
<path d="M71.0439 126.096C100.117 126.096 123.686 102.527 123.686 73.4538C123.686 44.3805 100.117 20.812 71.0439 20.812C41.9706 20.812 18.4021 44.3805 18.4021 73.4538C18.4021 102.527 41.9706 126.096 71.0439 126.096Z" fill="#ECF3FE"/>
<path d="M26.0263 74.6381C26.0159 74.6381 26.0056 74.6381 25.9952 74.6381C24.972 74.5758 23.9801 74.4356 23.0504 74.2226C22.7596 74.1551 22.5778 73.8643 22.6453 73.5734C22.7128 73.2826 23.0037 73.1008 23.2945 73.1683C24.167 73.3709 25.1019 73.5007 26.0627 73.5631C26.3639 73.5786 26.5872 73.8383 26.5717 74.1343C26.5561 74.42 26.3172 74.6433 26.0315 74.6433L26.0263 74.6381ZM28.9139 74.6121C28.6335 74.6121 28.3946 74.394 28.3738 74.1136C28.353 73.8175 28.5764 73.5527 28.8724 73.5319C29.7865 73.4592 30.7265 73.3293 31.6717 73.1476C31.9729 73.0904 32.2482 73.2826 32.3105 73.5734C32.3677 73.8695 32.1755 74.1499 31.8846 74.2122C30.9031 74.4044 29.9163 74.5394 28.9607 74.6173C28.9451 74.6173 28.9347 74.6173 28.9191 74.6173L28.9139 74.6121ZM34.5749 73.5059C34.3412 73.5059 34.1283 73.3553 34.0556 73.1216C33.9673 72.836 34.1283 72.5347 34.4139 72.4464C35.302 72.1712 36.2005 71.844 37.0782 71.4752C37.3586 71.361 37.6703 71.4908 37.7897 71.7661C37.904 72.0413 37.7741 72.3581 37.4989 72.4724C36.5848 72.8567 35.6552 73.1943 34.7359 73.4748C34.684 73.4903 34.6268 73.5007 34.5749 73.5007V73.5059ZM20.4381 73.3086C20.3602 73.3086 20.2823 73.293 20.2096 73.2566C19.2643 72.8204 18.4022 72.2802 17.6491 71.657C17.4206 71.4649 17.3843 71.1273 17.5764 70.8936C17.7686 70.665 18.1062 70.6287 18.3399 70.8209C19.0254 71.387 19.8045 71.87 20.6666 72.2699C20.9366 72.3945 21.0561 72.7165 20.9315 72.9866C20.838 73.1839 20.6458 73.3034 20.4381 73.3034V73.3086ZM16.0547 69.6523C15.8833 69.6523 15.7119 69.5692 15.6081 69.4186C15.2341 68.8733 14.8862 68.2812 14.5901 67.6788C14.4551 67.7151 14.3097 67.6995 14.1798 67.6268C13.3645 67.1646 12.5387 66.5881 11.7337 65.9233C11.5052 65.7312 11.4688 65.3936 11.661 65.1599C11.8531 64.9314 12.1907 64.895 12.4244 65.0872C13.0061 65.5702 13.5982 65.996 14.185 66.3648C14.237 66.235 14.3408 66.1259 14.4863 66.0688C14.7615 65.9545 15.0783 66.0895 15.1926 66.37C15.5354 67.2113 15.9872 68.0527 16.5066 68.8058C16.6779 69.0499 16.6156 69.3874 16.3663 69.5588C16.2728 69.6211 16.1638 69.6523 16.0599 69.6523H16.0547ZM18.8904 69.0499C18.2776 69.0499 17.6336 68.9616 16.9688 68.7902C16.6779 68.7175 16.5066 68.4214 16.5793 68.1306C16.652 67.8398 16.948 67.6684 17.2388 67.7411C18.1789 67.9852 19.067 68.0267 19.8564 67.8709C20.1524 67.8138 20.4329 68.006 20.4952 68.2968C20.5523 68.5928 20.3602 68.8733 20.0693 68.9356C19.6902 69.0083 19.2903 69.0499 18.8852 69.0499H18.8904ZM22.5363 67.684C22.3805 67.684 22.2195 67.6164 22.1156 67.4814C21.9286 67.2477 21.965 66.9101 22.1987 66.718C22.8998 66.1519 23.4919 65.4507 23.9229 64.6821C24.0684 64.4224 24.4007 64.3289 24.6604 64.4743C24.9201 64.6198 25.0136 64.9521 24.8682 65.2118C24.3748 66.0999 23.6892 66.9101 22.879 67.5645C22.7804 67.6476 22.6609 67.684 22.5363 67.684ZM13.9513 64.3237C13.6813 64.3237 13.4476 64.1212 13.4164 63.8459C13.3748 63.4824 13.3489 63.1188 13.3489 62.7657C13.3489 62.0801 13.432 61.4101 13.593 60.7817C13.6657 60.4909 13.9617 60.3195 14.2526 60.3922C14.5434 60.4649 14.7148 60.761 14.6421 61.0518C14.5018 61.5971 14.4343 62.1736 14.4343 62.7657C14.4343 63.3577 14.4551 63.3993 14.4915 63.7213C14.5278 64.0173 14.3149 64.2874 14.0188 64.3237C13.9981 64.3237 13.9773 64.3237 13.9565 64.3237H13.9513ZM9.98865 64.0537C9.84323 64.0537 9.69781 63.9965 9.58875 63.8771C8.92397 63.1552 8.29555 62.3813 7.72426 61.5815C7.55288 61.3374 7.60481 60.9999 7.84891 60.8233C8.093 60.6467 8.43059 60.7038 8.60717 60.9479C9.15249 61.7114 9.74975 62.4489 10.3886 63.1396C10.5911 63.3577 10.5755 63.7005 10.3574 63.903C10.2535 63.9965 10.1237 64.0485 9.98865 64.0485V64.0537ZM25.1902 62.7397C25.185 62.7397 25.1746 62.7397 25.1694 62.7397C24.8682 62.7293 24.6397 62.4748 24.65 62.1788C24.65 62.1165 24.65 62.0541 24.65 61.9918C24.65 61.8828 24.65 61.7737 24.6396 61.6594C24.5929 60.9947 24.4059 60.2935 24.0943 59.634C23.9697 59.3639 24.0839 59.0419 24.354 58.9121C24.6241 58.7874 24.9461 58.9017 25.0759 59.1717C25.4446 59.956 25.668 60.7869 25.7199 61.5867C25.7303 61.7218 25.7355 61.8568 25.7355 61.9918C25.7355 62.1269 25.7355 62.1476 25.7355 62.2203C25.7251 62.5112 25.481 62.7397 25.1954 62.7397H25.1902ZM6.644 59.3587C6.45184 59.3587 6.26488 59.2548 6.1662 59.073C5.75072 58.2888 5.39755 57.5046 5.1171 56.7308C5.07036 56.6009 5.02362 56.4711 4.98207 56.3412C4.88858 56.0556 5.0392 55.7492 5.32484 55.6557C5.61049 55.5622 5.91691 55.7128 6.01039 55.9985C6.05194 56.1179 6.09349 56.2374 6.13504 56.3568C6.39991 57.0839 6.7323 57.8266 7.12701 58.5641C7.26723 58.829 7.16855 59.1561 6.90368 59.2964C6.82058 59.3379 6.73749 59.3587 6.6492 59.3587H6.644ZM15.3744 58.8705C15.2601 58.8705 15.151 58.8341 15.0524 58.7666C14.8135 58.59 14.7615 58.2525 14.9381 58.0084C15.6029 57.1099 16.3975 56.388 17.2336 55.9258C17.4933 55.7803 17.8257 55.879 17.9711 56.1387C18.1166 56.3984 18.0179 56.7308 17.7582 56.8762C17.0519 57.2657 16.3819 57.8785 15.8106 58.6524C15.7067 58.7978 15.5406 58.8705 15.3744 58.8705ZM22.8531 57.65C22.7284 57.65 22.6038 57.6085 22.4999 57.5202C21.7936 56.9177 20.999 56.5334 20.1992 56.414C19.9031 56.3672 19.7006 56.092 19.7421 55.7959C19.7889 55.4999 20.0641 55.2973 20.3602 55.3389C21.3625 55.4895 22.3441 55.9569 23.201 56.6944C23.4296 56.8866 23.4555 57.2293 23.2582 57.4579C23.1491 57.5825 22.9985 57.6448 22.8479 57.6448L22.8531 57.65ZM4.80549 53.9055C4.54062 53.9055 4.3121 53.7133 4.27055 53.4432C4.13033 52.5292 4.05762 51.584 4.05762 50.6335V50.4777C4.05762 50.1817 4.30172 49.9428 4.59775 49.9428C4.89897 49.9428 5.13788 50.1921 5.13268 50.4881V50.6335C5.13268 51.5268 5.2002 52.4201 5.33004 53.2771C5.37678 53.5731 5.17423 53.8483 4.8782 53.8951C4.85223 53.8951 4.82107 53.9003 4.7951 53.9003L4.80549 53.9055ZM4.83665 48.151C4.81068 48.151 4.77952 48.151 4.75355 48.1458C4.45752 48.0991 4.25497 47.8238 4.30171 47.5278C4.44713 46.5774 4.66007 45.6062 4.93533 44.6402C5.01842 44.3545 5.31965 44.1883 5.60529 44.2662C5.89094 44.3493 6.05713 44.6506 5.97923 44.9362C5.71436 45.8555 5.51181 46.7851 5.37158 47.6888C5.33004 47.9589 5.10152 48.151 4.83665 48.151ZM6.41029 42.6043C6.34278 42.6043 6.27007 42.5887 6.20255 42.5628C5.92729 42.4485 5.79226 42.1317 5.90652 41.8564C6.27526 40.9683 6.70113 40.0751 7.17375 39.1973C7.31397 38.9325 7.64117 38.8338 7.90604 38.9792C8.17091 39.1194 8.26958 39.4518 8.12416 39.7115C7.67233 40.5529 7.26204 41.415 6.90888 42.2667C6.82059 42.4745 6.61804 42.5991 6.41029 42.5991V42.6043ZM9.13691 37.5198C9.03304 37.5198 8.92917 37.4887 8.83568 37.4315C8.58639 37.2653 8.51888 36.9278 8.68507 36.6785C9.22001 35.8735 9.80168 35.0789 10.4145 34.305C10.6015 34.0713 10.9391 34.0298 11.178 34.2167C11.4117 34.4037 11.4532 34.7465 11.2663 34.9802C10.6742 35.728 10.1081 36.4967 9.59394 37.2757C9.49007 37.4315 9.31868 37.5198 9.1421 37.5198H9.13691ZM12.7257 33.0014C12.5906 33.0014 12.4608 32.9547 12.3569 32.856C12.1388 32.6535 12.1284 32.3107 12.3309 32.0926C12.8191 31.5732 13.3333 31.0487 13.8578 30.5449C14.076 30.3371 14.4187 30.3475 14.6213 30.5605C14.829 30.7786 14.8187 31.1214 14.6057 31.3239C14.0916 31.8121 13.593 32.3211 13.1204 32.8249C13.0113 32.9391 12.8711 32.9962 12.7257 32.9962V33.0014Z" fill="#F0B64E"/>
<path d="M114.337 72.1089L124.06 115.667C124.07 115.719 124.08 115.776 124.091 115.828C124.096 115.854 124.101 115.88 124.101 115.906C124.101 115.927 124.112 115.953 124.112 115.979C124.112 115.989 124.112 116 124.112 116.01C124.112 116.031 124.112 116.046 124.112 116.062C124.117 116.098 124.117 116.14 124.122 116.181C124.122 116.218 124.122 116.259 124.122 116.296C124.122 116.316 124.122 116.332 124.122 116.353C124.122 116.363 124.122 116.379 124.122 116.394C124.122 116.415 124.122 116.431 124.122 116.451C124.122 116.488 124.122 116.519 124.122 116.555C124.122 116.555 124.122 116.571 124.122 116.576C124.117 116.633 124.112 116.695 124.106 116.753C124.106 116.753 124.106 116.753 124.106 116.763C124.106 116.794 124.101 116.825 124.096 116.851C124.096 116.877 124.086 116.903 124.086 116.929C124.086 116.94 124.086 116.945 124.086 116.95C124.07 117.023 124.054 117.101 124.034 117.173C124.029 117.194 124.023 117.225 124.013 117.251C124.008 117.277 123.997 117.298 123.992 117.324C123.982 117.345 123.977 117.371 123.966 117.397C123.951 117.443 123.93 117.495 123.914 117.542C123.904 117.573 123.888 117.599 123.883 117.63C123.852 117.698 123.826 117.76 123.79 117.822C123.764 117.869 123.743 117.916 123.717 117.958C123.691 118.004 123.665 118.046 123.639 118.087C123.629 118.108 123.613 118.129 123.597 118.15C123.587 118.17 123.571 118.186 123.561 118.202C123.546 118.222 123.53 118.243 123.514 118.269C123.514 118.274 123.504 118.28 123.499 118.29C123.462 118.342 123.421 118.394 123.379 118.446C123.379 118.446 123.369 118.456 123.369 118.461C123.333 118.498 123.301 118.539 123.265 118.576C123.255 118.591 123.244 118.602 123.229 118.612C123.208 118.633 123.192 118.653 123.172 118.669C123.156 118.685 123.14 118.7 123.125 118.716C123.109 118.731 123.088 118.752 123.073 118.763C122.948 118.877 122.818 118.975 122.673 119.064C122.663 119.064 122.657 119.074 122.647 119.079C122.637 119.079 122.626 119.09 122.616 119.095C122.585 119.116 122.548 119.136 122.517 119.152C122.46 119.188 122.398 119.214 122.341 119.246C122.309 119.261 122.278 119.277 122.247 119.292C122.226 119.303 122.206 119.308 122.185 119.318C122.159 119.329 122.133 119.339 122.112 119.349C122.112 119.349 122.107 119.349 122.102 119.349C122.081 119.355 122.06 119.365 122.039 119.37C122.029 119.37 122.019 119.375 122.008 119.381C121.993 119.386 121.972 119.396 121.956 119.401C121.946 119.401 121.936 119.407 121.925 119.412C121.889 119.422 121.847 119.432 121.811 119.443C121.754 119.458 121.702 119.474 121.645 119.484L44.6919 136.665C44.6347 136.675 44.5828 136.685 44.5257 136.696C44.4893 136.701 44.4478 136.706 44.4062 136.717C44.3647 136.722 44.3179 136.727 44.2764 136.732C44.2504 136.732 44.2245 136.737 44.1985 136.737C44.1362 136.743 44.0738 136.743 44.0115 136.743C43.9907 136.743 43.9752 136.743 43.9596 136.743C43.8921 136.743 43.8245 136.743 43.757 136.732C43.7155 136.732 43.6791 136.727 43.6428 136.722C43.461 136.701 43.2792 136.665 43.1078 136.618C43.0663 136.602 43.0195 136.592 42.978 136.576C42.9313 136.561 42.8793 136.54 42.8326 136.524C42.5469 136.41 42.2769 136.26 42.0328 136.067C41.9756 136.026 41.9185 135.979 41.8666 135.927C41.6848 135.766 41.5238 135.584 41.3836 135.382C41.3524 135.335 41.3213 135.283 41.2901 135.236C41.2589 135.19 41.233 135.138 41.2018 135.086C41.1758 135.034 41.1447 134.982 41.1239 134.93C41.0979 134.878 41.0772 134.831 41.0564 134.779C41.0564 134.774 41.0512 134.764 41.046 134.753C41.0252 134.707 41.0096 134.655 40.9889 134.603C40.9889 134.603 40.9889 134.598 40.9837 134.592C40.9681 134.551 40.9577 134.515 40.9473 134.478C40.9214 134.4 40.9006 134.322 40.885 134.244L31.1627 90.6862C31.0796 90.3123 31.064 89.9383 31.1107 89.58C31.1835 89.0087 31.412 88.4737 31.7599 88.0271C31.7599 88.0219 31.7703 88.0167 31.7755 88.0063L31.9105 87.8453C32.3364 87.3727 32.9129 87.0196 33.5829 86.8689L110.536 69.6887C110.614 69.6731 110.686 69.6575 110.759 69.6471C110.769 69.6419 110.785 69.6419 110.801 69.6419C110.873 69.6315 110.946 69.6212 111.019 69.616C111.034 69.616 111.055 69.616 111.071 69.616C111.133 69.616 111.195 69.616 111.258 69.616C111.273 69.616 111.289 69.616 111.304 69.616C111.382 69.616 111.455 69.6212 111.533 69.6264C111.606 69.6316 111.678 69.6419 111.746 69.6523C111.844 69.6679 111.943 69.6887 112.037 69.7146C112.089 69.725 112.146 69.7406 112.192 69.7562C112.286 69.7822 112.374 69.8185 112.457 69.8549L112.644 69.9432C112.655 69.9432 112.66 69.9484 112.67 69.9535C112.722 69.9743 112.764 70.0055 112.81 70.0315C112.847 70.0522 112.878 70.073 112.914 70.0938C113.018 70.1561 113.117 70.2288 113.216 70.3067C113.262 70.3431 113.304 70.3794 113.34 70.4158C113.512 70.5664 113.667 70.7326 113.802 70.9247C113.839 70.9767 113.875 71.0286 113.911 71.0806C113.911 71.0806 113.911 71.0805 113.911 71.0857C113.969 71.1688 114.015 71.2623 114.062 71.3506C114.083 71.3974 114.104 71.4389 114.124 71.4856C114.14 71.522 114.156 71.5532 114.171 71.5947C114.187 71.6311 114.202 71.6674 114.213 71.7038C114.228 71.7453 114.244 71.7921 114.259 71.8388C114.275 71.8752 114.285 71.9167 114.291 71.9531C114.306 72.005 114.322 72.0621 114.332 72.1141L114.337 72.1089Z" fill="#FDC46A"/>
<path d="M113.917 71.0857L31.1056 89.5747C31.1783 89.0034 31.4068 88.4685 31.7548 88.0218C31.7548 88.0166 31.7652 88.0114 31.7704 88.001L31.9054 87.84L63.7678 50.1505C64.7027 49.039 66.2659 48.6911 67.5851 49.2987L112.452 69.8548L112.639 69.9431C112.649 69.9431 112.655 69.9483 112.665 69.9535C112.717 69.9742 112.759 70.0054 112.805 70.0314C112.842 70.0521 112.873 70.0729 112.909 70.0937C113.013 70.156 113.112 70.2287 113.21 70.3066C113.257 70.343 113.299 70.3793 113.335 70.4157C113.506 70.5663 113.662 70.7325 113.797 70.9247C113.834 70.9766 113.87 71.0285 113.906 71.0805C113.906 71.0805 113.906 71.0805 113.906 71.0857H113.917Z" fill="#F0B64E"/>
<path d="M115.392 102.481L43.1286 118.617L28.488 53.0485C27.8024 49.9688 29.7396 46.915 32.8194 46.2242L93.9267 32.5808C97.0065 31.8952 100.06 33.8324 100.751 36.9122L115.392 102.481Z" fill="white"/>
<path d="M95.2979 57.5461L42.199 69.4029C41.4563 69.5691 40.7085 69.0965 40.5423 68.3539L40.4124 67.7774C40.2462 67.0347 40.7189 66.2868 41.4615 66.1206L94.5604 54.2638C95.303 54.0976 96.0509 54.5702 96.2171 55.3129L96.347 55.8893C96.5131 56.632 96.0405 57.3799 95.2979 57.5461Z" fill="#E4ECF9"/>
<path d="M96.8611 64.5522L43.7623 76.409C43.0196 76.5752 42.2717 76.1026 42.1055 75.36L41.9757 74.7835C41.8095 74.0408 42.2821 73.2929 43.0248 73.1267L96.1236 61.2699C96.8663 61.1037 97.6141 61.5763 97.7803 62.319L97.9102 62.8954C98.0764 63.6381 97.6038 64.386 96.8611 64.5522Z" fill="#E4ECF9"/>
<path d="M98.4243 71.5583L45.3255 83.4152C44.5828 83.5814 43.8349 83.1087 43.6687 82.3661L43.5389 81.7896C43.3727 81.0469 43.8453 80.299 44.588 80.1328L97.6868 68.276C98.4295 68.1098 99.1774 68.5824 99.3436 69.3251L99.4734 69.9015C99.6396 70.6442 99.167 71.3921 98.4243 71.5583Z" fill="#E4ECF9"/>
<path d="M99.9875 78.5698L46.8887 90.4266C46.146 90.5928 45.3982 90.1202 45.232 89.3775L45.1021 88.801C44.9359 88.0584 45.4086 87.3105 46.1512 87.1443L99.2501 75.2874C99.9927 75.1212 100.741 75.5939 100.907 76.3365L101.037 76.913C101.203 77.6557 100.73 78.4036 99.9875 78.5698Z" fill="#E4ECF9"/>
<path d="M101.556 85.5756L48.4572 97.4325C47.7145 97.5987 46.9667 97.1261 46.8005 96.3834L46.6706 95.8069C46.5044 95.0642 46.977 94.3164 47.7197 94.1502L100.819 82.2933C101.561 82.1271 102.309 82.5997 102.475 83.3424L102.605 83.9189C102.771 84.6616 102.299 85.4094 101.556 85.5756Z" fill="#E4ECF9"/>
<path d="M62.5317 51.5944L39.3737 56.7672C38.631 56.9334 37.8832 56.4608 37.717 55.7181L37.5871 55.1416C37.4209 54.3989 37.8935 53.6511 38.6362 53.4849L61.7942 48.3121C62.5369 48.1459 63.2848 48.6185 63.451 49.3612L63.5808 49.9377C63.747 50.6804 63.2744 51.4282 62.5317 51.5944Z" fill="#64B791"/>
<path d="M77.8735 104.34C77.78 104.501 77.6657 104.652 77.5255 104.792L44.8685 136.618L44.6971 136.654C44.3803 136.727 44.0686 136.748 43.7622 136.722C43.7207 136.722 43.6739 136.717 43.6376 136.711C43.1026 136.649 42.5937 136.452 42.1626 136.145C42.1211 136.119 42.0795 136.088 42.038 136.052C41.9185 135.958 41.8043 135.854 41.6952 135.745C41.6588 135.709 41.6277 135.673 41.5913 135.631C41.5602 135.59 41.5238 135.553 41.4926 135.512C41.207 135.148 40.9941 134.717 40.885 134.229L31.1627 90.6706C31.0796 90.2967 31.064 89.9227 31.1107 89.5644C31.1835 88.9931 31.412 88.4581 31.7599 88.0115C31.7599 88.0063 31.7703 88.0011 31.7755 87.9907L31.9105 87.8297C32.3364 87.3571 32.9129 87.004 33.5829 86.8533C34.0503 86.7495 34.5333 86.7754 34.9851 86.9312L38.0805 88.0011L72.9604 100.071L74.2743 100.523L76.7776 101.39C76.9646 101.452 77.136 101.546 77.2866 101.65C78.1383 102.247 78.398 103.421 77.8838 104.324L77.8735 104.34Z" fill="#F0B64E"/>
<path d="M114.337 72.1089L124.06 115.667C124.07 115.719 124.08 115.776 124.091 115.828C124.096 115.854 124.101 115.88 124.101 115.906C124.101 115.927 124.112 115.953 124.112 115.979C124.112 115.989 124.112 116 124.112 116.01C124.112 116.031 124.112 116.046 124.112 116.062C124.117 116.098 124.117 116.14 124.122 116.181C124.122 116.218 124.122 116.259 124.122 116.296C124.122 116.296 124.122 116.311 124.122 116.316C124.122 116.327 124.122 116.342 124.122 116.353C124.122 116.363 124.122 116.379 124.122 116.394C124.122 116.415 124.122 116.431 124.122 116.451C124.122 116.488 124.122 116.519 124.122 116.555C124.122 116.555 124.122 116.571 124.122 116.576C124.122 116.633 124.112 116.695 124.106 116.753C124.106 116.753 124.106 116.753 124.106 116.763C124.106 116.794 124.101 116.82 124.096 116.851C124.096 116.877 124.091 116.898 124.086 116.929C124.086 116.934 124.086 116.945 124.086 116.95C124.07 117.023 124.054 117.101 124.034 117.173C124.028 117.194 124.023 117.225 124.013 117.251C124.008 117.277 123.997 117.298 123.992 117.324C123.982 117.345 123.977 117.371 123.966 117.397C123.951 117.443 123.93 117.495 123.914 117.542C123.904 117.573 123.888 117.599 123.883 117.63C123.852 117.698 123.821 117.76 123.79 117.822C123.764 117.869 123.743 117.916 123.717 117.958C123.691 118.004 123.665 118.046 123.639 118.087C123.629 118.108 123.613 118.129 123.597 118.15C123.587 118.17 123.571 118.186 123.561 118.202C123.545 118.222 123.53 118.243 123.514 118.269C123.514 118.274 123.504 118.28 123.499 118.29C123.462 118.342 123.421 118.394 123.379 118.446C123.379 118.446 123.369 118.456 123.369 118.461C123.333 118.498 123.301 118.539 123.265 118.576C123.255 118.591 123.244 118.602 123.229 118.612C123.208 118.633 123.192 118.653 123.172 118.669C123.156 118.685 123.14 118.7 123.125 118.716C123.109 118.731 123.088 118.752 123.073 118.763C122.948 118.877 122.818 118.975 122.673 119.064C122.663 119.064 122.652 119.074 122.647 119.079C122.637 119.079 122.626 119.09 122.616 119.095C122.585 119.116 122.548 119.136 122.517 119.152C122.46 119.188 122.398 119.214 122.341 119.246C122.309 119.261 122.278 119.277 122.247 119.292C122.226 119.303 122.206 119.308 122.185 119.318C122.159 119.329 122.133 119.339 122.112 119.349H122.107C122.086 119.36 122.065 119.37 122.045 119.375C122.034 119.375 122.024 119.381 122.013 119.386C121.998 119.391 121.977 119.396 121.961 119.407C121.951 119.407 121.941 119.412 121.93 119.417C121.894 119.427 121.852 119.438 121.816 119.448C121.759 119.464 121.707 119.479 121.65 119.49L121.478 119.526L78.3824 104.61C78.1954 104.548 78.024 104.454 77.8786 104.35C77.0269 103.753 76.762 102.585 77.2814 101.676C77.3696 101.515 77.4891 101.364 77.6293 101.224L79.525 99.375L80.5169 98.4038L106.952 72.6438L109.352 70.3067C109.658 70.0055 110.042 69.7977 110.463 69.7043L110.536 69.6887C110.614 69.6731 110.686 69.6575 110.759 69.6471C110.769 69.6419 110.785 69.6419 110.801 69.6419C110.873 69.6315 110.946 69.6212 111.019 69.616C111.034 69.616 111.055 69.616 111.071 69.616C111.133 69.616 111.195 69.616 111.258 69.616C111.273 69.616 111.289 69.616 111.304 69.616C111.382 69.616 111.455 69.6212 111.533 69.6264C111.606 69.6316 111.678 69.6419 111.746 69.6523C111.844 69.6679 111.943 69.6887 112.037 69.7146C112.089 69.725 112.146 69.7406 112.192 69.7562C112.286 69.7822 112.374 69.8185 112.457 69.8549L112.644 69.9432C112.655 69.9432 112.66 69.9484 112.67 69.9535C112.722 69.9743 112.764 70.0055 112.81 70.0315C112.847 70.0522 112.878 70.073 112.914 70.0938C113.018 70.1561 113.117 70.2288 113.216 70.3067C113.262 70.3431 113.304 70.3794 113.34 70.4158C113.512 70.5664 113.667 70.7326 113.802 70.9247C113.839 70.9767 113.875 71.0286 113.911 71.0806C113.911 71.0806 113.911 71.0806 113.911 71.0857C113.969 71.1688 114.015 71.2623 114.062 71.3506C114.083 71.3974 114.104 71.4389 114.124 71.4856C114.14 71.522 114.156 71.5532 114.171 71.5947C114.187 71.6311 114.202 71.6674 114.213 71.7038C114.228 71.7453 114.244 71.7921 114.259 71.8388C114.275 71.8752 114.285 71.9167 114.291 71.9531C114.306 72.005 114.322 72.0621 114.332 72.1141L114.337 72.1089Z" fill="#F0B64E"/>
<g style="mix-blend-mode:multiply" opacity="0.2">
<path d="M123.935 115.075L124.034 115.527C124.434 117.324 123.364 119.09 121.645 119.474L44.6919 136.654C42.9728 137.039 41.2486 135.896 40.8487 134.099L40.75 133.647L74.5133 98.7673C75.5623 97.6819 77.1256 97.3339 78.5331 97.8689L123.93 115.07L123.935 115.075Z" fill="#B67D20"/>
</g>
<path d="M123.966 115.231L124.065 115.667C124.449 117.386 123.364 119.095 121.645 119.479L44.6919 136.66C42.9728 137.044 41.2641 135.958 40.8798 134.239L40.7811 133.803L74.7885 100.019C75.8428 98.97 77.4112 98.622 78.8083 99.1206L123.961 115.231H123.966Z" fill="#FDC46A"/>
<path d="M114.306 59.9664C124.081 59.9664 132.006 52.042 132.006 42.2668C132.006 32.4915 124.081 24.5671 114.306 24.5671C104.531 24.5671 96.6066 32.4915 96.6066 42.2668C96.6066 52.042 104.531 59.9664 114.306 59.9664Z" fill="#64B791"/>
<path d="M117.926 37.9043L118.482 36.7097L121.463 37.3537L117.994 45.0766C117.775 45.5647 117.651 45.8919 117.614 46.0581C117.578 46.2295 117.588 46.3749 117.656 46.4944C117.724 46.6087 117.812 46.6814 117.936 46.7073C118.342 46.7956 118.923 46.645 119.681 46.2503C120.44 45.8608 121.156 45.2583 121.832 44.4481C122.507 43.6379 122.964 42.6875 123.198 41.6073C123.395 40.7036 123.405 39.8155 123.234 38.943C123.062 38.0705 122.72 37.2707 122.2 36.5436C121.681 35.8165 120.98 35.1828 120.097 34.6479C119.214 34.113 118.175 33.7131 116.97 33.4534C115.745 33.1885 114.581 33.1054 113.491 33.2041C112.4 33.3028 111.398 33.5677 110.494 33.9987C109.59 34.4298 108.78 35.027 108.074 35.7957C107.451 36.4657 106.916 37.2395 106.474 38.1224C106.033 39.0053 105.706 39.9297 105.493 40.9009C105.212 42.1941 105.212 43.4354 105.498 44.6195C105.784 45.8037 106.334 46.8631 107.16 47.8032C107.986 48.7432 109.061 49.5118 110.385 50.1195C111.709 50.7271 113.273 51.127 115.064 51.3244C116.493 51.4594 117.739 51.3971 118.809 51.1426C119.879 50.8829 120.84 50.4051 121.691 49.7092L124.096 50.2286C123.53 50.9505 122.865 51.5581 122.102 52.0515C121.338 52.5501 120.486 52.9188 119.552 53.1733C118.617 53.4226 117.599 53.5472 116.503 53.5472C115.407 53.5472 114.244 53.4122 113.008 53.1473C111.154 52.7474 109.544 52.145 108.162 51.34C106.786 50.535 105.69 49.5638 104.875 48.4316C104.059 47.2994 103.53 46.0426 103.285 44.6611C103.041 43.2796 103.083 41.8202 103.415 40.2881C103.763 38.6833 104.355 37.2447 105.186 35.9671C106.022 34.6895 107.056 33.6456 108.282 32.8354C109.507 32.0252 110.91 31.485 112.483 31.2202C114.057 30.9553 115.719 31.0124 117.464 31.3864C118.892 31.698 120.159 32.1862 121.266 32.8665C122.367 33.5417 123.26 34.3623 123.94 35.3283C124.621 36.2943 125.072 37.3641 125.285 38.5327C125.503 39.7012 125.467 40.9321 125.187 42.2305C124.969 43.238 124.574 44.1885 124.003 45.0766C123.431 45.9646 122.725 46.7229 121.884 47.3461C121.042 47.9746 120.118 48.4108 119.11 48.6601C118.103 48.9094 117.074 48.925 116.02 48.6965C115.412 48.5666 114.961 48.3589 114.665 48.0784C114.368 47.798 114.218 47.4188 114.202 46.9462C113.408 47.45 112.566 47.6993 111.678 47.6837C110.79 47.6681 109.985 47.4137 109.258 46.9099C108.531 46.4113 108.006 45.7206 107.679 44.8376C107.352 43.9547 107.316 42.9472 107.56 41.8098C107.814 40.6257 108.323 39.5195 109.076 38.4859C109.829 37.4524 110.759 36.6734 111.855 36.1436C112.951 35.6191 114.088 35.4789 115.272 35.7334C116.628 36.0242 117.511 36.7513 117.921 37.9043H117.926ZM110.484 42.4175C110.286 43.3211 110.328 44.0534 110.598 44.6143C110.868 45.1752 111.309 45.5232 111.922 45.6582C112.629 45.8088 113.314 45.6634 113.974 45.2168C114.633 44.7701 115.194 44.1417 115.662 43.3419C116.124 42.5421 116.446 41.7371 116.622 40.9321C116.711 40.5322 116.742 40.1635 116.716 39.8259C116.69 39.4883 116.612 39.1767 116.482 38.8962C116.347 38.6158 116.165 38.3873 115.937 38.2055C115.703 38.0237 115.423 37.8991 115.09 37.8264C114.426 37.6809 113.776 37.8108 113.132 38.2107C112.488 38.6106 111.938 39.1923 111.47 39.9557C111.008 40.7192 110.681 41.5397 110.489 42.4226L110.484 42.4175Z" fill="#F9F9F9"/>
<path d="M7.11658 39.5971L10.3522 19.6487L42.0588 18.4646L7.11658 39.5971Z" fill="#3C9F72"/>
<path d="M9.38615 26.0057C9.55235 25.9537 42.0588 18.4698 42.0588 18.4698L0.853149 16.8442L9.38615 26.0057Z" fill="#64B791"/>
<path d="M12.2842 29.127L7.11658 39.5971L23.1179 30.176L12.2842 29.127Z" fill="#358F66"/>
<path d="M12.2842 29.127L20.8795 38.2988L42.0588 18.4646L12.2842 29.127Z" fill="#64B791"/>
<path d="M71.3712 17.457L73.6616 16.2521C74.1809 15.9769 74.7886 16.4183 74.6899 17L74.2536 19.5552C74.2121 19.7838 74.29 20.0175 74.4562 20.1837L76.3103 21.991C76.7309 22.4013 76.4972 23.1128 75.9156 23.2011L73.3499 23.575C73.1214 23.6062 72.9189 23.7516 72.815 23.9646L71.6672 26.2861C71.4076 26.8106 70.6597 26.8106 70.4 26.2861L69.2522 23.9646C69.1484 23.7568 68.951 23.6114 68.7173 23.575L66.1517 23.2011C65.57 23.118 65.3415 22.4013 65.757 21.991L67.6111 20.1837C67.7773 20.0227 67.8552 19.7889 67.8136 19.5552L67.3774 17C67.2787 16.4235 67.8863 15.9821 68.4057 16.2521L70.696 17.457C70.9038 17.5661 71.1479 17.5661 71.3556 17.457H71.3712Z" fill="#5886C9"/>
</g>
<defs>
<clipPath id="clip0_2507_206501">
<rect width="140" height="140" fill="white"/>
</clipPath>
</defs>
</svg>
