<?xml version="1.0" standalone="no"?>
<!DOCTYPE svg PUBLIC "-//W3C//DTD SVG 20010904//EN"
 "http://www.w3.org/TR/2001/REC-SVG-20010904/DTD/svg10.dtd">
<svg version="1.0" xmlns="http://www.w3.org/2000/svg"
 width="592.000000pt" height="592.000000pt" viewBox="0 0 592.000000 592.000000"
 preserveAspectRatio="xMidYMid meet">
<metadata>
Created by potrace 1.14, written by Peter Selinger 2001-2017
</metadata>
<g transform="translate(0.000000,592.000000) scale(0.100000,-0.100000)"
fill="#000000" stroke="none">
<path d="M2730 5669 c-30 -4 -82 -11 -115 -14 -286 -31 -679 -164 -956 -322
-20 -12 -47 -27 -60 -35 -13 -7 -66 -42 -119 -77 -88 -59 -121 -84 -176 -129
-11 -9 -40 -33 -65 -52 -54 -43 -271 -261 -319 -320 -19 -24 -51 -64 -70 -89
-19 -25 -38 -47 -42 -49 -5 -2 -8 -10 -8 -17 0 -7 -3 -15 -7 -17 -12 -5 -63
-75 -63 -85 0 -5 -8 -18 -18 -29 -18 -19 -56 -84 -124 -211 -60 -113 -169
-374 -183 -443 -2 -8 -8 -26 -13 -40 -5 -14 -11 -29 -12 -35 -1 -5 -4 -14 -6
-20 -8 -27 -44 -195 -49 -230 -4 -22 -8 -47 -10 -55 -2 -8 -7 -37 -10 -65 -4
-27 -8 -61 -10 -74 -4 -22 -18 -284 -17 -306 0 -5 3 -66 6 -135 3 -69 8 -136
11 -150 2 -14 7 -45 10 -70 9 -78 13 -103 30 -185 27 -126 29 -136 73 -275 20
-63 36 -117 37 -120 3 -9 18 -45 36 -87 11 -23 19 -44 19 -47 0 -2 21 -48 46
-102 25 -53 47 -102 48 -108 1 -6 4 -15 8 -21 8 -13 8 -157 0 -170 -4 -5 -7
-16 -8 -22 -1 -7 -33 -75 -70 -150 -38 -76 -69 -140 -69 -143 -1 -4 -193 -396
-336 -684 -16 -32 -29 -71 -29 -87 0 -26 28 -68 47 -70 5 0 16 -2 26 -4 16 -3
84 24 242 95 22 10 85 37 140 60 55 23 128 55 163 71 35 16 67 29 72 29 5 0
21 7 37 15 23 13 136 64 153 70 22 8 53 21 98 41 96 44 165 62 217 59 97 -7
107 -11 297 -126 124 -75 202 -116 328 -171 96 -42 263 -105 300 -113 8 -2 35
-8 60 -15 25 -7 52 -13 60 -15 8 -2 33 -8 56 -14 56 -15 139 -30 199 -37 28
-3 56 -7 64 -10 71 -23 552 -22 666 1 11 2 40 7 65 10 219 26 519 117 750 228
98 46 259 134 270 146 3 4 16 12 30 19 27 14 177 122 251 182 134 107 292 267
410 416 69 85 199 277 199 293 0 6 4 11 9 11 7 0 134 248 172 335 62 143 124
348 158 525 31 164 38 216 47 355 14 224 2 456 -36 660 -5 28 -12 64 -15 82
-3 18 -9 42 -14 55 -5 13 -9 28 -10 33 -8 46 -65 244 -81 280 -5 11 -25 61
-45 110 -84 207 -207 422 -349 611 -124 163 -362 400 -516 514 -26 19 -60 44
-75 55 -170 127 -477 283 -685 350 -30 10 -59 20 -65 24 -5 3 -14 6 -20 7 -5
1 -30 7 -55 14 -25 7 -52 13 -60 15 -8 2 -42 10 -75 18 -33 9 -80 19 -105 22
-24 4 -47 8 -50 10 -3 1 -32 6 -65 10 -33 4 -76 10 -95 12 -64 8 -474 10 -530
2z"/>
</g>
</svg>
