<svg width="12" height="13" viewBox="0 0 12 13" fill="none" xmlns="http://www.w3.org/2000/svg">
<g id="Page-1">
<g id="twitter-newui-iconkit">
<path id="twitter-verified" fill-rule="evenodd" clip-rule="evenodd" d="M3.57589 6.97545C3.57589 7.09598 3.61607 7.19643 3.69643 7.27679L5.07589 8.65625C5.1875 8.74554 5.30803 8.79018 5.4375 8.79018C5.5625 8.79018 5.66518 8.72322 5.74554 8.58929L8.22321 4.87946C8.28572 4.78125 8.3058 4.67411 8.28348 4.55804C8.26116 4.44196 8.20089 4.35268 8.10268 4.29018C8.00446 4.22768 7.89732 4.20536 7.78125 4.22321C7.66518 4.24107 7.57143 4.29911 7.5 4.39732L5.31696 7.67857L4.3125 6.67411C4.22321 6.58482 4.12054 6.54241 4.00446 6.54688C3.88839 6.55134 3.78795 6.59375 3.70312 6.67411C3.6183 6.75446 3.57589 6.85491 3.57589 6.97545ZM12 6.76116C12 7.1942 11.8996 7.58928 11.6987 7.94643C11.4978 8.30357 11.2277 8.58036 10.8884 8.77679C10.8973 8.83929 10.9018 8.9375 10.9018 9.07143C10.9018 9.70536 10.6897 10.2455 10.2656 10.692C9.84152 11.1384 9.33036 11.3616 8.73214 11.3616C8.46428 11.3616 8.20982 11.3125 7.96875 11.2143C7.78125 11.5982 7.51116 11.9085 7.15848 12.1451C6.8058 12.3817 6.41741 12.5 5.9933 12.5C5.56919 12.5 5.18304 12.3839 4.83482 12.1518C4.48661 11.9196 4.21875 11.6071 4.03125 11.2143C3.79018 11.3125 3.53572 11.3616 3.26786 11.3616C2.66964 11.3616 2.15625 11.1384 1.72768 10.692C1.29911 10.2455 1.08482 9.70536 1.08482 9.07143C1.08482 9 1.09375 8.90179 1.11161 8.77679C0.77232 8.58036 0.502233 8.30357 0.301339 7.94643C0.100445 7.58928 0 7.1942 0 6.76116C0 6.32812 0.111606 5.92634 0.334821 5.5558C0.558037 5.18527 0.857141 4.91072 1.23214 4.73214C1.13393 4.46428 1.08482 4.19643 1.08482 3.92857C1.08482 3.29464 1.29911 2.75447 1.72768 2.30804C2.15625 1.8616 2.66964 1.63839 3.26786 1.63839C3.53572 1.63839 3.79018 1.6875 4.03125 1.78571C4.21875 1.40178 4.48884 1.09152 4.84152 0.854911C5.1942 0.618303 5.58036 0.5 6 0.5C6.41964 0.5 6.8058 0.618303 7.15848 0.854911C7.51116 1.09152 7.78125 1.40178 7.96875 1.78571C8.20982 1.6875 8.46428 1.63839 8.73214 1.63839C9.33036 1.63839 9.84152 1.8616 10.2656 2.30804C10.6897 2.75447 10.9018 3.29464 10.9018 3.92857C10.9018 4.22322 10.8571 4.49107 10.7679 4.73214C11.1429 4.91072 11.442 5.18527 11.6652 5.5558C11.8884 5.92634 12 6.32812 12 6.76116Z" fill="#4A99E9"/>
</g>
</g>
</svg>
