<svg width="13" height="13" viewBox="0 0 13 13" fill="none" xmlns="http://www.w3.org/2000/svg">
<g id="Page-1">
<g id="twitter-newui-iconkit">
<path id="twitter-like-outline" d="M1.65767 4.45848C1.65767 5.22673 1.86354 6.03421 2.27989 6.88309C2.70575 7.75135 3.20608 8.49876 3.7805 9.12651C4.3629 9.763 4.94908 10.2891 5.53843 10.7054C6.09275 11.0969 6.51575 11.2888 6.76797 11.2949C7.03352 11.2888 7.45914 11.0965 8.01792 10.7046C8.61117 10.2885 9.19911 9.76266 9.78121 9.12651C10.3556 8.49876 10.856 7.75135 11.2818 6.88309C11.6982 6.03421 11.904 5.22673 11.904 4.45848C11.904 3.72931 11.6456 3.09333 11.118 2.53164C10.5953 1.97511 10.007 1.70552 9.33143 1.70552C8.49214 1.70552 7.75846 2.13906 7.10826 3.04469L6.78086 3.50072L6.45345 3.04469C5.80325 2.13906 5.06957 1.70552 4.23028 1.70552C3.55474 1.70552 2.96637 1.97511 2.44369 2.53164C1.91615 3.09333 1.65767 3.72931 1.65767 4.45848ZM9.33143 0.899414C10.236 0.899414 11.0346 1.26531 11.7056 1.97978C12.3718 2.68909 12.7101 3.52161 12.7101 4.45848C12.7101 5.35627 12.4737 6.2835 12.0056 7.23807C11.5469 8.17325 11.0038 8.98451 10.3759 9.67069C9.75572 10.3485 9.12422 10.9133 8.48081 11.3646C7.80295 11.84 7.24957 12.09 6.78086 12.101C6.29882 12.09 5.74711 11.8396 5.07338 11.3638C4.43467 10.9127 3.80568 10.3481 3.18579 9.67069C2.55791 8.98451 2.01484 8.17325 1.55615 7.23807C1.08796 6.2835 0.851562 5.35627 0.851562 4.45848C0.851562 3.52161 1.18993 2.68909 1.8561 1.97978C2.52712 1.26531 3.32567 0.899414 4.23028 0.899414C5.19934 0.899414 6.05432 1.32801 6.78086 2.16017C7.5074 1.32801 8.36237 0.899414 9.33143 0.899414Z" fill="#526875"/>
</g>
</g>
</svg>
