<svg width="22" height="22" viewBox="0 0 22 22" fill="none" xmlns="http://www.w3.org/2000/svg">
<g id="Icon" clip-path="url(#clip0_3652_499754)">
<circle id="Ellipse 5" cx="11.3012" cy="11.0219" r="9.37656" fill="url(#paint0_linear_3652_499754)" stroke="white" stroke-width="1.59601"/>
<path id="heart" d="M14.6323 7.8134C14.9752 8.122 15.2324 8.48204 15.3695 8.91065C15.5067 9.35641 15.5238 9.78503 15.421 10.2308C15.3181 10.6766 15.1124 11.0537 14.8038 11.3623L11.4949 14.7913C11.3748 14.9113 11.2377 14.9627 11.1005 14.9627C10.9462 14.9627 10.8091 14.9113 10.7062 14.7913L7.39729 11.3795C7.07154 11.0537 6.8658 10.6766 6.76294 10.2308C6.66007 9.78503 6.69436 9.35641 6.83152 8.91065C6.96867 8.48204 7.2087 8.122 7.56873 7.8134C7.87734 7.55623 8.22023 7.38478 8.61456 7.3162C8.99174 7.24762 9.38607 7.28191 9.76325 7.40193C10.1404 7.53908 10.4662 7.74482 10.7576 8.03628L11.1005 8.37917L11.4434 8.03628C11.7177 7.74482 12.0606 7.53908 12.4378 7.40193C12.815 7.28191 13.1922 7.24762 13.5865 7.3162C13.9637 7.38478 14.3237 7.55623 14.6323 7.8134Z" fill="white"/>
</g>
<defs>
<linearGradient id="paint0_linear_3652_499754" x1="11.3012" y1="2.44336" x2="11.3012" y2="19.6005" gradientUnits="userSpaceOnUse">
<stop stop-color="#F95E73"/>
<stop offset="1" stop-color="#E3223C"/>
</linearGradient>
<clipPath id="clip0_3652_499754">
<rect width="20.7481" height="20.7481" fill="white" transform="translate(0.726562 0.449219)"/>
</clipPath>
</defs>
</svg>
