<svg width="22" height="22" viewBox="0 0 22 22" fill="none" xmlns="http://www.w3.org/2000/svg">
<g id="Icon" clip-path="url(#clip0_3652_499757)">
<circle id="Ellipse 5" cx="11.145" cy="11.0219" r="9.37656" fill="url(#paint0_linear_3652_499757)" stroke="white" stroke-width="1.59601"/>
<path id="thumbs-up" d="M8.33773 10.5738C8.4406 10.5738 8.54347 10.6252 8.62919 10.6938C8.69777 10.7795 8.7492 10.8824 8.7492 10.9853V15.1C8.7492 15.22 8.69777 15.3229 8.62919 15.3914C8.54347 15.4772 8.4406 15.5115 8.33773 15.5115H6.96616C6.84615 15.5115 6.74328 15.4772 6.6747 15.3914C6.58898 15.3229 6.55469 15.22 6.55469 15.1V10.9853C6.55469 10.8824 6.58898 10.7795 6.6747 10.6938C6.74328 10.6252 6.84615 10.5738 6.96616 10.5738H8.33773ZM7.65194 14.8257C7.75481 14.8257 7.85768 14.7914 7.9434 14.7057C8.01198 14.6371 8.06342 14.5342 8.06342 14.4142C8.06342 14.3113 8.01198 14.2085 7.9434 14.1227C7.85768 14.0542 7.75481 14.0027 7.65194 14.0027C7.53193 14.0027 7.42906 14.0542 7.36049 14.1227C7.27476 14.2085 7.24047 14.3113 7.24047 14.4142C7.24047 14.5342 7.27476 14.6371 7.36049 14.7057C7.42906 14.7914 7.53193 14.8257 7.65194 14.8257ZM13.1382 8.12211C13.1382 7.57349 12.9839 7.1963 12.6753 6.95628C12.4696 6.81912 12.2124 6.7334 11.9038 6.7334C11.7495 6.7334 11.6124 6.87056 11.5095 7.11058C11.4409 7.24774 11.3895 7.45347 11.3209 7.71064V7.72779C11.2523 7.98496 11.2009 8.17355 11.1666 8.27642C11.098 8.48215 10.9951 8.63645 10.8923 8.73932C10.7037 8.91077 10.4808 9.20223 10.2065 9.59655C9.8636 10.0766 9.58929 10.4366 9.36641 10.6767C9.31497 10.711 9.29783 10.7624 9.29783 10.8138V14.4828C9.29783 14.5514 9.31497 14.6028 9.34926 14.6371C9.38355 14.6714 9.43499 14.6885 9.50357 14.6885C9.69216 14.6885 9.98362 14.7914 10.3779 14.9628C10.7723 15.1343 11.0809 15.2543 11.3209 15.3229C11.6981 15.46 12.0753 15.5115 12.4524 15.5115H12.5039C13.0011 15.5115 13.3783 15.4943 13.6183 15.4429C14.0126 15.3743 14.2869 15.2371 14.4412 15.0143C14.5784 14.8085 14.6298 14.5514 14.5612 14.2428C14.6984 14.0884 14.7841 13.8827 14.8527 13.6427C14.9041 13.4027 14.9041 13.1798 14.8355 12.9569C14.9727 12.7683 15.0584 12.5454 15.0927 12.2883C15.1099 12.0482 15.0756 11.8082 14.9899 11.5853H15.007C15.0927 11.4825 15.1613 11.3625 15.2299 11.2081C15.2985 11.071 15.3327 10.9167 15.3327 10.7452C15.3327 10.4881 15.2299 10.2652 15.0241 10.0595C14.8184 9.85372 14.5784 9.75085 14.3041 9.75085H12.5725C12.5896 9.64799 12.6582 9.4594 12.7953 9.21937C12.8982 9.01364 12.9839 8.85933 13.0354 8.73932C13.1039 8.53359 13.1382 8.32785 13.1382 8.12211Z" fill="white"/>
</g>
<defs>
<linearGradient id="paint0_linear_3652_499757" x1="11.145" y1="2.44336" x2="11.145" y2="19.6005" gradientUnits="userSpaceOnUse">
<stop stop-color="#48ADF8"/>
<stop offset="1" stop-color="#1E5FED"/>
</linearGradient>
<clipPath id="clip0_3652_499757">
<rect width="20.7481" height="20.7481" fill="white" transform="translate(0.570312 0.449219)"/>
</clipPath>
</defs>
</svg>
