<svg width="14" height="11" viewBox="0 0 14 11" fill="none" xmlns="http://www.w3.org/2000/svg">
<g id="Page-1">
<g id="twitter-newui-iconkit">
<path id="twitter-retweet" fill-rule="evenodd" clip-rule="evenodd" d="M13.5909 7.77965C13.5909 7.96429 13.5265 8.12102 13.3976 8.24984L11.5427 10.1048C11.4139 10.2336 11.2571 10.298 11.0725 10.298C10.8879 10.298 10.7311 10.2336 10.6023 10.1048L8.74735 8.24984C8.61853 8.12102 8.55412 7.96429 8.55412 7.77965C8.55412 7.59502 8.61853 7.43829 8.74735 7.30947C8.87616 7.18066 9.03289 7.11625 9.21753 7.11625C9.40217 7.11625 9.55889 7.18066 9.68771 7.30947L10.4091 8.04373V2.87818C10.4091 2.63772 10.3254 2.43591 10.1579 2.27274C9.99043 2.10957 9.79076 2.02798 9.55889 2.02798H6.69916C6.51882 2.02798 6.36424 1.96358 6.23542 1.83476C6.1066 1.70594 6.04219 1.54922 6.04219 1.36458C6.04219 1.17994 6.1066 1.02321 6.23542 0.894397C6.36424 0.76558 6.51882 0.701172 6.69916 0.701172H9.55889C10.16 0.701172 10.6732 0.913717 11.0983 1.33882C11.5234 1.76391 11.7359 2.27703 11.7359 2.87818V8.04373L12.4573 7.30947C12.5861 7.18066 12.7407 7.11625 12.921 7.11625C13.1014 7.11625 13.2581 7.18066 13.3912 7.30947C13.5243 7.43829 13.5909 7.59502 13.5909 7.77965ZM4.45775 8.97121H7.31748C7.49782 8.97121 7.6524 9.03562 7.78122 9.16444C7.91004 9.29325 7.97445 9.44998 7.97445 9.63462C7.97445 9.81925 7.91004 9.97598 7.78122 10.1048C7.6524 10.2336 7.49782 10.298 7.31748 10.298H4.45775C3.8566 10.298 3.34348 10.0855 2.91839 9.66038C2.49329 9.23528 2.28074 8.72217 2.28074 8.12102V2.95547L1.55937 3.68972C1.43055 3.81854 1.27597 3.88295 1.09563 3.88295C0.915284 3.88295 0.758559 3.81854 0.625447 3.68972C0.492336 3.5609 0.425781 3.40418 0.425781 3.21954C0.425781 3.0349 0.494483 2.87818 0.631888 2.74936L2.48685 0.894397C2.60708 0.76558 2.75951 0.701172 2.94415 0.701172C3.12879 0.701172 3.28551 0.76558 3.41433 0.894397L5.26929 2.74936C5.39811 2.87818 5.46252 3.0349 5.46252 3.21954C5.46252 3.40418 5.39811 3.5609 5.26929 3.68972C5.14048 3.81854 4.9859 3.88295 4.80555 3.88295C4.62521 3.88295 4.47063 3.81854 4.34181 3.68972L3.60756 2.95547V8.12102C3.60756 8.36148 3.69129 8.56329 3.85875 8.72646C4.02621 8.88963 4.22588 8.97121 4.45775 8.97121Z" fill="#526875"/>
</g>
</g>
</svg>
