<svg width="12" height="13" viewBox="0 0 12 13" fill="none" xmlns="http://www.w3.org/2000/svg">
<g id="Page-1">
<g id="twitter-newui-iconkit">
<path id="twitter-reply-outline" d="M9.23063 8.60738C9.77742 8.1444 10.1845 7.63461 10.4554 7.07709C10.7253 6.52153 10.8593 5.95474 10.8593 5.37252C10.8593 4.26376 10.487 3.35348 9.73497 2.6053C8.98237 1.8566 8.0693 1.48597 6.97043 1.48596L4.69265 1.47309C3.5965 1.47309 2.68373 1.84553 1.93114 2.59812C1.17785 3.35141 0.806106 4.24513 0.806106 5.30167C0.806106 6.35902 1.15479 7.22116 1.85791 7.91268C2.56617 8.60927 3.44915 8.97524 4.52701 9.01458L4.91536 9.02875V11.5171C7.22075 10.0668 8.66169 9.08911 9.23063 8.60738ZM1.29266 8.48741C0.432796 7.64171 0 6.57161 0 5.30167C0 4.03091 0.456972 2.93228 1.36113 2.02812C2.266 1.12326 3.38422 0.666986 4.69493 0.666992L6.97271 0.679863C8.28071 0.679863 9.39863 1.13365 10.3035 2.03382C11.2089 2.9345 11.6654 4.05092 11.6654 5.35964C11.6654 6.07847 11.503 6.76548 11.1804 7.4294C10.8588 8.09134 10.3813 8.68937 9.75153 9.22258C9.14393 9.73704 7.68652 10.7259 5.35713 12.2067C5.21744 12.294 5.05246 12.3323 4.86655 12.3323C4.61007 12.3323 4.39151 12.2097 4.25819 11.9907C4.16268 11.8338 4.10926 11.6773 4.10926 11.5171V9.793C3.00289 9.67745 2.05919 9.2413 1.29266 8.48741Z" fill="#526875"/>
</g>
</g>
</svg>
