<svg width="12" height="12" viewBox="0 0 12 12" fill="none" xmlns="http://www.w3.org/2000/svg">
<g id="Share">
<path id="Vector 5 (Stroke)" fill-rule="evenodd" clip-rule="evenodd" d="M5.7535 0.092817C5.87726 -0.030939 6.07791 -0.030939 6.20166 0.092817L9.37064 3.26179C9.49439 3.38554 9.49439 3.58619 9.37064 3.70995C9.24688 3.8337 9.04623 3.8337 8.92247 3.70995L6.29448 1.08195V7.60553C6.29448 7.78055 6.1526 7.92243 5.97758 7.92243C5.80257 7.92243 5.66069 7.78055 5.66069 7.60553V1.08195L3.03269 3.70995C2.90894 3.8337 2.70829 3.8337 2.58453 3.70995C2.46078 3.58619 2.46078 3.38554 2.58453 3.26179L5.7535 0.092817ZM0.590335 6.65484C0.765352 6.65484 0.907232 6.79672 0.907232 6.97174V10.1407C0.907232 10.6658 1.33287 11.0914 1.85792 11.0914H10.4141C10.9392 11.0914 11.3648 10.6658 11.3648 10.1407V6.97174C11.3648 6.79672 11.5067 6.65484 11.6817 6.65484C11.8567 6.65484 11.9986 6.79672 11.9986 6.97174V10.1407C11.9986 11.0158 11.2892 11.7252 10.4141 11.7252H1.85792C0.982836 11.7252 0.273438 11.0158 0.273438 10.1407V6.97174C0.273438 6.79672 0.415317 6.65484 0.590335 6.65484Z" fill="#526875"/>
</g>
</svg>
