<svg width="16" height="16" viewBox="0 0 16 16" fill="none" xmlns="http://www.w3.org/2000/svg">
<path d="M2.01584 10.9543L4.25806 9.23966C4.12985 8.85025 4.06052 8.43367 4.06052 8.00034C4.06052 7.56702 4.12985 7.15043 4.25806 6.76103L2.01584 5.04639C1.57852 5.93549 1.33325 6.93788 1.33325 8.00034C1.33325 9.0628 1.57852 10.0652 2.01584 10.9543Z" fill="#FBBC05"/>
<path d="M4.25809 6.76084C4.77542 5.18954 6.25145 4.06077 7.99995 4.06077C8.93934 4.06077 9.78783 4.3941 10.4545 4.93956L12.3939 3.00016C11.2121 1.96986 9.69692 1.3335 7.99995 1.3335C5.36544 1.3335 3.10025 2.84156 2.01587 5.04621L4.25809 6.76084Z" fill="#EA4335"/>
<path d="M7.99987 14.6668C5.36463 14.6668 3.09892 13.1579 2.01489 10.9522L4.2562 9.23389C4.77188 10.8081 6.24933 11.9395 7.99987 11.9395C8.85647 11.9395 9.61545 11.7378 10.2165 11.3584L12.3452 13.0064C11.1799 14.0899 9.62595 14.6668 7.99987 14.6668Z" fill="#34A853"/>
<path d="M8 6.78809H14.2121C14.303 7.18203 14.3636 7.60627 14.3636 8.00021C14.3636 10.1731 13.5687 11.869 12.3453 13.0065L10.2166 11.3585C10.9126 10.9193 11.3969 10.2419 11.5758 9.36384H8V6.78809Z" fill="#4285F4"/>
</svg>
